M48
; DRILL file {KiCad 5.1.9+dfsg1-1+deb11u1} date Mon Nov  3 12:09:52 2025
; FORMAT={-:-/ absolute / metric / decimal}
; #@! TF.CreationDate,2025-11-03T12:09:52+01:00
; #@! TF.GenerationSoftware,Kicad,Pcbnew,5.1.9+dfsg1-1+deb11u1
; #@! TF.FileFunction,Plated,1,2,PTH
FMAT,2
METRIC
T1C0.400
T2C0.650
T3C1.000
T4C3.200
%
G90
G05
T1
X117.95Y-85.86
X121.05Y-62.81
X121.67Y-78.05
X124.32Y-84.79
X124.652Y-81.392
X125.23Y-95.63
X125.25Y-56.0
X126.85Y-86.11
X127.74Y-92.77
X127.75Y-64.0
X127.76Y-90.43
X127.77Y-96.57
X127.9Y-55.99
X128.31Y-72.39
X128.971Y-85.983
X129.364Y-93.0
X129.46Y-83.31
X130.599Y-77.82
X132.49Y-87.38
X132.51Y-92.95
X132.82Y-53.55
X132.84Y-59.283
X133.3Y-65.03
X134.14Y-67.85
X135.38Y-66.66
X138.0Y-65.0
X138.785Y-72.215
X139.17Y-62.07
X139.378Y-92.753
X139.734Y-65.633
X140.25Y-56.0
X140.427Y-73.289
X141.25Y-79.865
X141.66Y-62.7
X141.821Y-55.929
X141.92Y-72.34
X142.281Y-74.061
X142.464Y-61.216
X142.71Y-82.07
X143.003Y-94.552
X143.11Y-66.5
X143.144Y-90.147
X143.203Y-61.948
X143.376Y-69.321
X143.596Y-63.062
X143.75Y-76.5
X143.75Y-79.75
X143.86Y-74.24
X143.974Y-73.214
X144.0Y-71.75
X144.75Y-70.25
X145.013Y-66.964
X145.066Y-82.066
X145.08Y-83.65
X146.0Y-74.0
X146.232Y-69.137
X146.72Y-82.602
X147.805Y-73.782
X147.89Y-78.217
X148.1Y-82.2
X148.762Y-84.106
X149.114Y-71.039
X149.822Y-77.794
X150.1Y-61.07
X150.26Y-56.28
X151.882Y-75.681
X153.367Y-67.147
X153.532Y-84.879
X154.05Y-67.878
X154.416Y-65.009
X154.51Y-87.83
X154.627Y-63.559
X155.33Y-76.5
X155.685Y-93.978
X155.87Y-62.24
X156.98Y-63.375
X157.235Y-56.35
X157.65Y-80.87
X157.77Y-83.29
X158.08Y-60.78
X160.34Y-64.21
X160.68Y-62.48
X160.76Y-51.31
X160.79Y-56.34
X160.81Y-54.5
X161.08Y-66.23
X161.475Y-69.6
X162.25Y-80.75
X163.044Y-69.354
X163.31Y-51.03
X163.769Y-66.92
X164.193Y-73.663
X164.909Y-69.542
X165.0Y-66.0
X165.0Y-75.5
X165.25Y-57.5
X165.41Y-61.07
X165.446Y-55.744
X167.0Y-54.0
X168.5Y-57.0
X168.61Y-62.19
X171.12Y-76.67
T3
X115.41Y-76.45
X115.41Y-78.99
X170.68Y-81.85
X170.68Y-84.39
X170.68Y-86.93
T4
X116.0Y-54.0
X116.0Y-95.0
X171.0Y-54.0
X171.0Y-95.0
T2
G00X168.675Y-67.18
M15
G01X169.675Y-67.18
M16
G05
G00X168.675Y-75.82
M15
G01X169.675Y-75.82
M16
G05
G00X172.35Y-67.18
M15
G01X173.65Y-67.18
M16
G05
G00X172.35Y-75.82
M15
G01X173.65Y-75.82
M16
G05
T0
M30
