%TF.GenerationSoftware,KiCad,Pcbnew,5.1.9+dfsg1-1*%
%TF.CreationDate,2022-02-05T10:31:28+01:00*%
%TF.ProjectId,STM32F4XX,53544d33-3246-4345-9858-2e6b69636164,2.0*%
%TF.SameCoordinates,Original*%
%TF.FileFunction,Paste,Top*%
%TF.FilePolarity,Positive*%
%FSLAX46Y46*%
G04 Gerber Fmt 4.6, Leading zero omitted, Abs format (unit mm)*
G04 Created by KiCad (PCBNEW 5.1.9+dfsg1-1) date 2022-02-05 10:31:28*
%MOMM*%
%LPD*%
G01*
G04 APERTURE LIST*
%ADD10R,1.600000X2.180000*%
%ADD11R,2.000000X4.500000*%
%ADD12R,2.000000X1.500000*%
%ADD13R,2.000000X3.800000*%
%ADD14R,1.700000X2.000000*%
%ADD15R,2.000000X0.500000*%
G04 APERTURE END LIST*
%TO.C,R5*%
G36*
G01*
X120525001Y-105800000D02*
X119274999Y-105800000D01*
G75*
G02*
X119025000Y-105550001I0J249999D01*
G01*
X119025000Y-104749999D01*
G75*
G02*
X119274999Y-104500000I249999J0D01*
G01*
X120525001Y-104500000D01*
G75*
G02*
X120775000Y-104749999I0J-249999D01*
G01*
X120775000Y-105550001D01*
G75*
G02*
X120525001Y-105800000I-249999J0D01*
G01*
G37*
G36*
G01*
X120525001Y-108900000D02*
X119274999Y-108900000D01*
G75*
G02*
X119025000Y-108650001I0J249999D01*
G01*
X119025000Y-107849999D01*
G75*
G02*
X119274999Y-107600000I249999J0D01*
G01*
X120525001Y-107600000D01*
G75*
G02*
X120775000Y-107849999I0J-249999D01*
G01*
X120775000Y-108650001D01*
G75*
G02*
X120525001Y-108900000I-249999J0D01*
G01*
G37*
%TD*%
%TO.C,C1*%
G36*
G01*
X141949998Y-79700000D02*
X143250002Y-79700000D01*
G75*
G02*
X143500000Y-79949998I0J-249998D01*
G01*
X143500000Y-80775002D01*
G75*
G02*
X143250002Y-81025000I-249998J0D01*
G01*
X141949998Y-81025000D01*
G75*
G02*
X141700000Y-80775002I0J249998D01*
G01*
X141700000Y-79949998D01*
G75*
G02*
X141949998Y-79700000I249998J0D01*
G01*
G37*
G36*
G01*
X141949998Y-76575000D02*
X143250002Y-76575000D01*
G75*
G02*
X143500000Y-76824998I0J-249998D01*
G01*
X143500000Y-77650002D01*
G75*
G02*
X143250002Y-77900000I-249998J0D01*
G01*
X141949998Y-77900000D01*
G75*
G02*
X141700000Y-77650002I0J249998D01*
G01*
X141700000Y-76824998D01*
G75*
G02*
X141949998Y-76575000I249998J0D01*
G01*
G37*
%TD*%
%TO.C,C6*%
G36*
G01*
X134825001Y-90050000D02*
X133974999Y-90050000D01*
G75*
G02*
X133725000Y-89800001I0J249999D01*
G01*
X133725000Y-88724999D01*
G75*
G02*
X133974999Y-88475000I249999J0D01*
G01*
X134825001Y-88475000D01*
G75*
G02*
X135075000Y-88724999I0J-249999D01*
G01*
X135075000Y-89800001D01*
G75*
G02*
X134825001Y-90050000I-249999J0D01*
G01*
G37*
G36*
G01*
X134825001Y-92925000D02*
X133974999Y-92925000D01*
G75*
G02*
X133725000Y-92675001I0J249999D01*
G01*
X133725000Y-91599999D01*
G75*
G02*
X133974999Y-91350000I249999J0D01*
G01*
X134825001Y-91350000D01*
G75*
G02*
X135075000Y-91599999I0J-249999D01*
G01*
X135075000Y-92675001D01*
G75*
G02*
X134825001Y-92925000I-249999J0D01*
G01*
G37*
%TD*%
%TO.C,C8*%
G36*
G01*
X152300000Y-98750002D02*
X152300000Y-97449998D01*
G75*
G02*
X152549998Y-97200000I249998J0D01*
G01*
X153375002Y-97200000D01*
G75*
G02*
X153625000Y-97449998I0J-249998D01*
G01*
X153625000Y-98750002D01*
G75*
G02*
X153375002Y-99000000I-249998J0D01*
G01*
X152549998Y-99000000D01*
G75*
G02*
X152300000Y-98750002I0J249998D01*
G01*
G37*
G36*
G01*
X149175000Y-98750002D02*
X149175000Y-97449998D01*
G75*
G02*
X149424998Y-97200000I249998J0D01*
G01*
X150250002Y-97200000D01*
G75*
G02*
X150500000Y-97449998I0J-249998D01*
G01*
X150500000Y-98750002D01*
G75*
G02*
X150250002Y-99000000I-249998J0D01*
G01*
X149424998Y-99000000D01*
G75*
G02*
X149175000Y-98750002I0J249998D01*
G01*
G37*
%TD*%
%TO.C,D1*%
G36*
G01*
X123525000Y-105775000D02*
X123525000Y-107025000D01*
G75*
G02*
X123275000Y-107275000I-250000J0D01*
G01*
X122350000Y-107275000D01*
G75*
G02*
X122100000Y-107025000I0J250000D01*
G01*
X122100000Y-105775000D01*
G75*
G02*
X122350000Y-105525000I250000J0D01*
G01*
X123275000Y-105525000D01*
G75*
G02*
X123525000Y-105775000I0J-250000D01*
G01*
G37*
G36*
G01*
X126500000Y-105775000D02*
X126500000Y-107025000D01*
G75*
G02*
X126250000Y-107275000I-250000J0D01*
G01*
X125325000Y-107275000D01*
G75*
G02*
X125075000Y-107025000I0J250000D01*
G01*
X125075000Y-105775000D01*
G75*
G02*
X125325000Y-105525000I250000J0D01*
G01*
X126250000Y-105525000D01*
G75*
G02*
X126500000Y-105775000I0J-250000D01*
G01*
G37*
%TD*%
%TO.C,FB1*%
G36*
G01*
X138050000Y-96500001D02*
X138050000Y-95099999D01*
G75*
G02*
X138299999Y-94850000I249999J0D01*
G01*
X139025001Y-94850000D01*
G75*
G02*
X139275000Y-95099999I0J-249999D01*
G01*
X139275000Y-96500001D01*
G75*
G02*
X139025001Y-96750000I-249999J0D01*
G01*
X138299999Y-96750000D01*
G75*
G02*
X138050000Y-96500001I0J249999D01*
G01*
G37*
G36*
G01*
X134725000Y-96500001D02*
X134725000Y-95099999D01*
G75*
G02*
X134974999Y-94850000I249999J0D01*
G01*
X135700001Y-94850000D01*
G75*
G02*
X135950000Y-95099999I0J-249999D01*
G01*
X135950000Y-96500001D01*
G75*
G02*
X135700001Y-96750000I-249999J0D01*
G01*
X134974999Y-96750000D01*
G75*
G02*
X134725000Y-96500001I0J249999D01*
G01*
G37*
%TD*%
%TO.C,R1*%
G36*
G01*
X130900000Y-75625001D02*
X130900000Y-74374999D01*
G75*
G02*
X131149999Y-74125000I249999J0D01*
G01*
X131950001Y-74125000D01*
G75*
G02*
X132200000Y-74374999I0J-249999D01*
G01*
X132200000Y-75625001D01*
G75*
G02*
X131950001Y-75875000I-249999J0D01*
G01*
X131149999Y-75875000D01*
G75*
G02*
X130900000Y-75625001I0J249999D01*
G01*
G37*
G36*
G01*
X127800000Y-75625001D02*
X127800000Y-74374999D01*
G75*
G02*
X128049999Y-74125000I249999J0D01*
G01*
X128850001Y-74125000D01*
G75*
G02*
X129100000Y-74374999I0J-249999D01*
G01*
X129100000Y-75625001D01*
G75*
G02*
X128850001Y-75875000I-249999J0D01*
G01*
X128049999Y-75875000D01*
G75*
G02*
X127800000Y-75625001I0J249999D01*
G01*
G37*
%TD*%
%TO.C,R2*%
G36*
G01*
X139000000Y-90025001D02*
X139000000Y-88774999D01*
G75*
G02*
X139249999Y-88525000I249999J0D01*
G01*
X140050001Y-88525000D01*
G75*
G02*
X140300000Y-88774999I0J-249999D01*
G01*
X140300000Y-90025001D01*
G75*
G02*
X140050001Y-90275000I-249999J0D01*
G01*
X139249999Y-90275000D01*
G75*
G02*
X139000000Y-90025001I0J249999D01*
G01*
G37*
G36*
G01*
X135900000Y-90025001D02*
X135900000Y-88774999D01*
G75*
G02*
X136149999Y-88525000I249999J0D01*
G01*
X136950001Y-88525000D01*
G75*
G02*
X137200000Y-88774999I0J-249999D01*
G01*
X137200000Y-90025001D01*
G75*
G02*
X136950001Y-90275000I-249999J0D01*
G01*
X136149999Y-90275000D01*
G75*
G02*
X135900000Y-90025001I0J249999D01*
G01*
G37*
%TD*%
%TO.C,R4*%
G36*
G01*
X167000000Y-107125001D02*
X167000000Y-105874999D01*
G75*
G02*
X167249999Y-105625000I249999J0D01*
G01*
X168050001Y-105625000D01*
G75*
G02*
X168300000Y-105874999I0J-249999D01*
G01*
X168300000Y-107125001D01*
G75*
G02*
X168050001Y-107375000I-249999J0D01*
G01*
X167249999Y-107375000D01*
G75*
G02*
X167000000Y-107125001I0J249999D01*
G01*
G37*
G36*
G01*
X163900000Y-107125001D02*
X163900000Y-105874999D01*
G75*
G02*
X164149999Y-105625000I249999J0D01*
G01*
X164950001Y-105625000D01*
G75*
G02*
X165200000Y-105874999I0J-249999D01*
G01*
X165200000Y-107125001D01*
G75*
G02*
X164950001Y-107375000I-249999J0D01*
G01*
X164149999Y-107375000D01*
G75*
G02*
X163900000Y-107125001I0J249999D01*
G01*
G37*
%TD*%
D10*
%TO.C,SW1*%
X122900000Y-69410000D03*
X122900000Y-78590000D03*
%TD*%
%TO.C,U1*%
G36*
G01*
X145750000Y-81350000D02*
X145750000Y-79950000D01*
G75*
G02*
X145825000Y-79875000I75000J0D01*
G01*
X145975000Y-79875000D01*
G75*
G02*
X146050000Y-79950000I0J-75000D01*
G01*
X146050000Y-81350000D01*
G75*
G02*
X145975000Y-81425000I-75000J0D01*
G01*
X145825000Y-81425000D01*
G75*
G02*
X145750000Y-81350000I0J75000D01*
G01*
G37*
G36*
G01*
X146250000Y-81350000D02*
X146250000Y-79950000D01*
G75*
G02*
X146325000Y-79875000I75000J0D01*
G01*
X146475000Y-79875000D01*
G75*
G02*
X146550000Y-79950000I0J-75000D01*
G01*
X146550000Y-81350000D01*
G75*
G02*
X146475000Y-81425000I-75000J0D01*
G01*
X146325000Y-81425000D01*
G75*
G02*
X146250000Y-81350000I0J75000D01*
G01*
G37*
G36*
G01*
X146750000Y-81350000D02*
X146750000Y-79950000D01*
G75*
G02*
X146825000Y-79875000I75000J0D01*
G01*
X146975000Y-79875000D01*
G75*
G02*
X147050000Y-79950000I0J-75000D01*
G01*
X147050000Y-81350000D01*
G75*
G02*
X146975000Y-81425000I-75000J0D01*
G01*
X146825000Y-81425000D01*
G75*
G02*
X146750000Y-81350000I0J75000D01*
G01*
G37*
G36*
G01*
X147250000Y-81350000D02*
X147250000Y-79950000D01*
G75*
G02*
X147325000Y-79875000I75000J0D01*
G01*
X147475000Y-79875000D01*
G75*
G02*
X147550000Y-79950000I0J-75000D01*
G01*
X147550000Y-81350000D01*
G75*
G02*
X147475000Y-81425000I-75000J0D01*
G01*
X147325000Y-81425000D01*
G75*
G02*
X147250000Y-81350000I0J75000D01*
G01*
G37*
G36*
G01*
X147750000Y-81350000D02*
X147750000Y-79950000D01*
G75*
G02*
X147825000Y-79875000I75000J0D01*
G01*
X147975000Y-79875000D01*
G75*
G02*
X148050000Y-79950000I0J-75000D01*
G01*
X148050000Y-81350000D01*
G75*
G02*
X147975000Y-81425000I-75000J0D01*
G01*
X147825000Y-81425000D01*
G75*
G02*
X147750000Y-81350000I0J75000D01*
G01*
G37*
G36*
G01*
X148250000Y-81350000D02*
X148250000Y-79950000D01*
G75*
G02*
X148325000Y-79875000I75000J0D01*
G01*
X148475000Y-79875000D01*
G75*
G02*
X148550000Y-79950000I0J-75000D01*
G01*
X148550000Y-81350000D01*
G75*
G02*
X148475000Y-81425000I-75000J0D01*
G01*
X148325000Y-81425000D01*
G75*
G02*
X148250000Y-81350000I0J75000D01*
G01*
G37*
G36*
G01*
X148750000Y-81350000D02*
X148750000Y-79950000D01*
G75*
G02*
X148825000Y-79875000I75000J0D01*
G01*
X148975000Y-79875000D01*
G75*
G02*
X149050000Y-79950000I0J-75000D01*
G01*
X149050000Y-81350000D01*
G75*
G02*
X148975000Y-81425000I-75000J0D01*
G01*
X148825000Y-81425000D01*
G75*
G02*
X148750000Y-81350000I0J75000D01*
G01*
G37*
G36*
G01*
X149250000Y-81350000D02*
X149250000Y-79950000D01*
G75*
G02*
X149325000Y-79875000I75000J0D01*
G01*
X149475000Y-79875000D01*
G75*
G02*
X149550000Y-79950000I0J-75000D01*
G01*
X149550000Y-81350000D01*
G75*
G02*
X149475000Y-81425000I-75000J0D01*
G01*
X149325000Y-81425000D01*
G75*
G02*
X149250000Y-81350000I0J75000D01*
G01*
G37*
G36*
G01*
X149750000Y-81350000D02*
X149750000Y-79950000D01*
G75*
G02*
X149825000Y-79875000I75000J0D01*
G01*
X149975000Y-79875000D01*
G75*
G02*
X150050000Y-79950000I0J-75000D01*
G01*
X150050000Y-81350000D01*
G75*
G02*
X149975000Y-81425000I-75000J0D01*
G01*
X149825000Y-81425000D01*
G75*
G02*
X149750000Y-81350000I0J75000D01*
G01*
G37*
G36*
G01*
X150250000Y-81350000D02*
X150250000Y-79950000D01*
G75*
G02*
X150325000Y-79875000I75000J0D01*
G01*
X150475000Y-79875000D01*
G75*
G02*
X150550000Y-79950000I0J-75000D01*
G01*
X150550000Y-81350000D01*
G75*
G02*
X150475000Y-81425000I-75000J0D01*
G01*
X150325000Y-81425000D01*
G75*
G02*
X150250000Y-81350000I0J75000D01*
G01*
G37*
G36*
G01*
X150750000Y-81350000D02*
X150750000Y-79950000D01*
G75*
G02*
X150825000Y-79875000I75000J0D01*
G01*
X150975000Y-79875000D01*
G75*
G02*
X151050000Y-79950000I0J-75000D01*
G01*
X151050000Y-81350000D01*
G75*
G02*
X150975000Y-81425000I-75000J0D01*
G01*
X150825000Y-81425000D01*
G75*
G02*
X150750000Y-81350000I0J75000D01*
G01*
G37*
G36*
G01*
X151250000Y-81350000D02*
X151250000Y-79950000D01*
G75*
G02*
X151325000Y-79875000I75000J0D01*
G01*
X151475000Y-79875000D01*
G75*
G02*
X151550000Y-79950000I0J-75000D01*
G01*
X151550000Y-81350000D01*
G75*
G02*
X151475000Y-81425000I-75000J0D01*
G01*
X151325000Y-81425000D01*
G75*
G02*
X151250000Y-81350000I0J75000D01*
G01*
G37*
G36*
G01*
X151750000Y-81350000D02*
X151750000Y-79950000D01*
G75*
G02*
X151825000Y-79875000I75000J0D01*
G01*
X151975000Y-79875000D01*
G75*
G02*
X152050000Y-79950000I0J-75000D01*
G01*
X152050000Y-81350000D01*
G75*
G02*
X151975000Y-81425000I-75000J0D01*
G01*
X151825000Y-81425000D01*
G75*
G02*
X151750000Y-81350000I0J75000D01*
G01*
G37*
G36*
G01*
X152250000Y-81350000D02*
X152250000Y-79950000D01*
G75*
G02*
X152325000Y-79875000I75000J0D01*
G01*
X152475000Y-79875000D01*
G75*
G02*
X152550000Y-79950000I0J-75000D01*
G01*
X152550000Y-81350000D01*
G75*
G02*
X152475000Y-81425000I-75000J0D01*
G01*
X152325000Y-81425000D01*
G75*
G02*
X152250000Y-81350000I0J75000D01*
G01*
G37*
G36*
G01*
X152750000Y-81350000D02*
X152750000Y-79950000D01*
G75*
G02*
X152825000Y-79875000I75000J0D01*
G01*
X152975000Y-79875000D01*
G75*
G02*
X153050000Y-79950000I0J-75000D01*
G01*
X153050000Y-81350000D01*
G75*
G02*
X152975000Y-81425000I-75000J0D01*
G01*
X152825000Y-81425000D01*
G75*
G02*
X152750000Y-81350000I0J75000D01*
G01*
G37*
G36*
G01*
X153250000Y-81350000D02*
X153250000Y-79950000D01*
G75*
G02*
X153325000Y-79875000I75000J0D01*
G01*
X153475000Y-79875000D01*
G75*
G02*
X153550000Y-79950000I0J-75000D01*
G01*
X153550000Y-81350000D01*
G75*
G02*
X153475000Y-81425000I-75000J0D01*
G01*
X153325000Y-81425000D01*
G75*
G02*
X153250000Y-81350000I0J75000D01*
G01*
G37*
G36*
G01*
X154550000Y-82650000D02*
X154550000Y-82500000D01*
G75*
G02*
X154625000Y-82425000I75000J0D01*
G01*
X156025000Y-82425000D01*
G75*
G02*
X156100000Y-82500000I0J-75000D01*
G01*
X156100000Y-82650000D01*
G75*
G02*
X156025000Y-82725000I-75000J0D01*
G01*
X154625000Y-82725000D01*
G75*
G02*
X154550000Y-82650000I0J75000D01*
G01*
G37*
G36*
G01*
X154550000Y-83150000D02*
X154550000Y-83000000D01*
G75*
G02*
X154625000Y-82925000I75000J0D01*
G01*
X156025000Y-82925000D01*
G75*
G02*
X156100000Y-83000000I0J-75000D01*
G01*
X156100000Y-83150000D01*
G75*
G02*
X156025000Y-83225000I-75000J0D01*
G01*
X154625000Y-83225000D01*
G75*
G02*
X154550000Y-83150000I0J75000D01*
G01*
G37*
G36*
G01*
X154550000Y-83650000D02*
X154550000Y-83500000D01*
G75*
G02*
X154625000Y-83425000I75000J0D01*
G01*
X156025000Y-83425000D01*
G75*
G02*
X156100000Y-83500000I0J-75000D01*
G01*
X156100000Y-83650000D01*
G75*
G02*
X156025000Y-83725000I-75000J0D01*
G01*
X154625000Y-83725000D01*
G75*
G02*
X154550000Y-83650000I0J75000D01*
G01*
G37*
G36*
G01*
X154550000Y-84150000D02*
X154550000Y-84000000D01*
G75*
G02*
X154625000Y-83925000I75000J0D01*
G01*
X156025000Y-83925000D01*
G75*
G02*
X156100000Y-84000000I0J-75000D01*
G01*
X156100000Y-84150000D01*
G75*
G02*
X156025000Y-84225000I-75000J0D01*
G01*
X154625000Y-84225000D01*
G75*
G02*
X154550000Y-84150000I0J75000D01*
G01*
G37*
G36*
G01*
X154550000Y-84650000D02*
X154550000Y-84500000D01*
G75*
G02*
X154625000Y-84425000I75000J0D01*
G01*
X156025000Y-84425000D01*
G75*
G02*
X156100000Y-84500000I0J-75000D01*
G01*
X156100000Y-84650000D01*
G75*
G02*
X156025000Y-84725000I-75000J0D01*
G01*
X154625000Y-84725000D01*
G75*
G02*
X154550000Y-84650000I0J75000D01*
G01*
G37*
G36*
G01*
X154550000Y-85150000D02*
X154550000Y-85000000D01*
G75*
G02*
X154625000Y-84925000I75000J0D01*
G01*
X156025000Y-84925000D01*
G75*
G02*
X156100000Y-85000000I0J-75000D01*
G01*
X156100000Y-85150000D01*
G75*
G02*
X156025000Y-85225000I-75000J0D01*
G01*
X154625000Y-85225000D01*
G75*
G02*
X154550000Y-85150000I0J75000D01*
G01*
G37*
G36*
G01*
X154550000Y-85650000D02*
X154550000Y-85500000D01*
G75*
G02*
X154625000Y-85425000I75000J0D01*
G01*
X156025000Y-85425000D01*
G75*
G02*
X156100000Y-85500000I0J-75000D01*
G01*
X156100000Y-85650000D01*
G75*
G02*
X156025000Y-85725000I-75000J0D01*
G01*
X154625000Y-85725000D01*
G75*
G02*
X154550000Y-85650000I0J75000D01*
G01*
G37*
G36*
G01*
X154550000Y-86150000D02*
X154550000Y-86000000D01*
G75*
G02*
X154625000Y-85925000I75000J0D01*
G01*
X156025000Y-85925000D01*
G75*
G02*
X156100000Y-86000000I0J-75000D01*
G01*
X156100000Y-86150000D01*
G75*
G02*
X156025000Y-86225000I-75000J0D01*
G01*
X154625000Y-86225000D01*
G75*
G02*
X154550000Y-86150000I0J75000D01*
G01*
G37*
G36*
G01*
X154550000Y-86650000D02*
X154550000Y-86500000D01*
G75*
G02*
X154625000Y-86425000I75000J0D01*
G01*
X156025000Y-86425000D01*
G75*
G02*
X156100000Y-86500000I0J-75000D01*
G01*
X156100000Y-86650000D01*
G75*
G02*
X156025000Y-86725000I-75000J0D01*
G01*
X154625000Y-86725000D01*
G75*
G02*
X154550000Y-86650000I0J75000D01*
G01*
G37*
G36*
G01*
X154550000Y-87150000D02*
X154550000Y-87000000D01*
G75*
G02*
X154625000Y-86925000I75000J0D01*
G01*
X156025000Y-86925000D01*
G75*
G02*
X156100000Y-87000000I0J-75000D01*
G01*
X156100000Y-87150000D01*
G75*
G02*
X156025000Y-87225000I-75000J0D01*
G01*
X154625000Y-87225000D01*
G75*
G02*
X154550000Y-87150000I0J75000D01*
G01*
G37*
G36*
G01*
X154550000Y-87650000D02*
X154550000Y-87500000D01*
G75*
G02*
X154625000Y-87425000I75000J0D01*
G01*
X156025000Y-87425000D01*
G75*
G02*
X156100000Y-87500000I0J-75000D01*
G01*
X156100000Y-87650000D01*
G75*
G02*
X156025000Y-87725000I-75000J0D01*
G01*
X154625000Y-87725000D01*
G75*
G02*
X154550000Y-87650000I0J75000D01*
G01*
G37*
G36*
G01*
X154550000Y-88150000D02*
X154550000Y-88000000D01*
G75*
G02*
X154625000Y-87925000I75000J0D01*
G01*
X156025000Y-87925000D01*
G75*
G02*
X156100000Y-88000000I0J-75000D01*
G01*
X156100000Y-88150000D01*
G75*
G02*
X156025000Y-88225000I-75000J0D01*
G01*
X154625000Y-88225000D01*
G75*
G02*
X154550000Y-88150000I0J75000D01*
G01*
G37*
G36*
G01*
X154550000Y-88650000D02*
X154550000Y-88500000D01*
G75*
G02*
X154625000Y-88425000I75000J0D01*
G01*
X156025000Y-88425000D01*
G75*
G02*
X156100000Y-88500000I0J-75000D01*
G01*
X156100000Y-88650000D01*
G75*
G02*
X156025000Y-88725000I-75000J0D01*
G01*
X154625000Y-88725000D01*
G75*
G02*
X154550000Y-88650000I0J75000D01*
G01*
G37*
G36*
G01*
X154550000Y-89150000D02*
X154550000Y-89000000D01*
G75*
G02*
X154625000Y-88925000I75000J0D01*
G01*
X156025000Y-88925000D01*
G75*
G02*
X156100000Y-89000000I0J-75000D01*
G01*
X156100000Y-89150000D01*
G75*
G02*
X156025000Y-89225000I-75000J0D01*
G01*
X154625000Y-89225000D01*
G75*
G02*
X154550000Y-89150000I0J75000D01*
G01*
G37*
G36*
G01*
X154550000Y-89650000D02*
X154550000Y-89500000D01*
G75*
G02*
X154625000Y-89425000I75000J0D01*
G01*
X156025000Y-89425000D01*
G75*
G02*
X156100000Y-89500000I0J-75000D01*
G01*
X156100000Y-89650000D01*
G75*
G02*
X156025000Y-89725000I-75000J0D01*
G01*
X154625000Y-89725000D01*
G75*
G02*
X154550000Y-89650000I0J75000D01*
G01*
G37*
G36*
G01*
X154550000Y-90150000D02*
X154550000Y-90000000D01*
G75*
G02*
X154625000Y-89925000I75000J0D01*
G01*
X156025000Y-89925000D01*
G75*
G02*
X156100000Y-90000000I0J-75000D01*
G01*
X156100000Y-90150000D01*
G75*
G02*
X156025000Y-90225000I-75000J0D01*
G01*
X154625000Y-90225000D01*
G75*
G02*
X154550000Y-90150000I0J75000D01*
G01*
G37*
G36*
G01*
X153250000Y-92700000D02*
X153250000Y-91300000D01*
G75*
G02*
X153325000Y-91225000I75000J0D01*
G01*
X153475000Y-91225000D01*
G75*
G02*
X153550000Y-91300000I0J-75000D01*
G01*
X153550000Y-92700000D01*
G75*
G02*
X153475000Y-92775000I-75000J0D01*
G01*
X153325000Y-92775000D01*
G75*
G02*
X153250000Y-92700000I0J75000D01*
G01*
G37*
G36*
G01*
X152750000Y-92700000D02*
X152750000Y-91300000D01*
G75*
G02*
X152825000Y-91225000I75000J0D01*
G01*
X152975000Y-91225000D01*
G75*
G02*
X153050000Y-91300000I0J-75000D01*
G01*
X153050000Y-92700000D01*
G75*
G02*
X152975000Y-92775000I-75000J0D01*
G01*
X152825000Y-92775000D01*
G75*
G02*
X152750000Y-92700000I0J75000D01*
G01*
G37*
G36*
G01*
X152250000Y-92700000D02*
X152250000Y-91300000D01*
G75*
G02*
X152325000Y-91225000I75000J0D01*
G01*
X152475000Y-91225000D01*
G75*
G02*
X152550000Y-91300000I0J-75000D01*
G01*
X152550000Y-92700000D01*
G75*
G02*
X152475000Y-92775000I-75000J0D01*
G01*
X152325000Y-92775000D01*
G75*
G02*
X152250000Y-92700000I0J75000D01*
G01*
G37*
G36*
G01*
X151750000Y-92700000D02*
X151750000Y-91300000D01*
G75*
G02*
X151825000Y-91225000I75000J0D01*
G01*
X151975000Y-91225000D01*
G75*
G02*
X152050000Y-91300000I0J-75000D01*
G01*
X152050000Y-92700000D01*
G75*
G02*
X151975000Y-92775000I-75000J0D01*
G01*
X151825000Y-92775000D01*
G75*
G02*
X151750000Y-92700000I0J75000D01*
G01*
G37*
G36*
G01*
X151250000Y-92700000D02*
X151250000Y-91300000D01*
G75*
G02*
X151325000Y-91225000I75000J0D01*
G01*
X151475000Y-91225000D01*
G75*
G02*
X151550000Y-91300000I0J-75000D01*
G01*
X151550000Y-92700000D01*
G75*
G02*
X151475000Y-92775000I-75000J0D01*
G01*
X151325000Y-92775000D01*
G75*
G02*
X151250000Y-92700000I0J75000D01*
G01*
G37*
G36*
G01*
X150750000Y-92700000D02*
X150750000Y-91300000D01*
G75*
G02*
X150825000Y-91225000I75000J0D01*
G01*
X150975000Y-91225000D01*
G75*
G02*
X151050000Y-91300000I0J-75000D01*
G01*
X151050000Y-92700000D01*
G75*
G02*
X150975000Y-92775000I-75000J0D01*
G01*
X150825000Y-92775000D01*
G75*
G02*
X150750000Y-92700000I0J75000D01*
G01*
G37*
G36*
G01*
X150250000Y-92700000D02*
X150250000Y-91300000D01*
G75*
G02*
X150325000Y-91225000I75000J0D01*
G01*
X150475000Y-91225000D01*
G75*
G02*
X150550000Y-91300000I0J-75000D01*
G01*
X150550000Y-92700000D01*
G75*
G02*
X150475000Y-92775000I-75000J0D01*
G01*
X150325000Y-92775000D01*
G75*
G02*
X150250000Y-92700000I0J75000D01*
G01*
G37*
G36*
G01*
X149750000Y-92700000D02*
X149750000Y-91300000D01*
G75*
G02*
X149825000Y-91225000I75000J0D01*
G01*
X149975000Y-91225000D01*
G75*
G02*
X150050000Y-91300000I0J-75000D01*
G01*
X150050000Y-92700000D01*
G75*
G02*
X149975000Y-92775000I-75000J0D01*
G01*
X149825000Y-92775000D01*
G75*
G02*
X149750000Y-92700000I0J75000D01*
G01*
G37*
G36*
G01*
X149250000Y-92700000D02*
X149250000Y-91300000D01*
G75*
G02*
X149325000Y-91225000I75000J0D01*
G01*
X149475000Y-91225000D01*
G75*
G02*
X149550000Y-91300000I0J-75000D01*
G01*
X149550000Y-92700000D01*
G75*
G02*
X149475000Y-92775000I-75000J0D01*
G01*
X149325000Y-92775000D01*
G75*
G02*
X149250000Y-92700000I0J75000D01*
G01*
G37*
G36*
G01*
X148750000Y-92700000D02*
X148750000Y-91300000D01*
G75*
G02*
X148825000Y-91225000I75000J0D01*
G01*
X148975000Y-91225000D01*
G75*
G02*
X149050000Y-91300000I0J-75000D01*
G01*
X149050000Y-92700000D01*
G75*
G02*
X148975000Y-92775000I-75000J0D01*
G01*
X148825000Y-92775000D01*
G75*
G02*
X148750000Y-92700000I0J75000D01*
G01*
G37*
G36*
G01*
X148250000Y-92700000D02*
X148250000Y-91300000D01*
G75*
G02*
X148325000Y-91225000I75000J0D01*
G01*
X148475000Y-91225000D01*
G75*
G02*
X148550000Y-91300000I0J-75000D01*
G01*
X148550000Y-92700000D01*
G75*
G02*
X148475000Y-92775000I-75000J0D01*
G01*
X148325000Y-92775000D01*
G75*
G02*
X148250000Y-92700000I0J75000D01*
G01*
G37*
G36*
G01*
X147750000Y-92700000D02*
X147750000Y-91300000D01*
G75*
G02*
X147825000Y-91225000I75000J0D01*
G01*
X147975000Y-91225000D01*
G75*
G02*
X148050000Y-91300000I0J-75000D01*
G01*
X148050000Y-92700000D01*
G75*
G02*
X147975000Y-92775000I-75000J0D01*
G01*
X147825000Y-92775000D01*
G75*
G02*
X147750000Y-92700000I0J75000D01*
G01*
G37*
G36*
G01*
X147250000Y-92700000D02*
X147250000Y-91300000D01*
G75*
G02*
X147325000Y-91225000I75000J0D01*
G01*
X147475000Y-91225000D01*
G75*
G02*
X147550000Y-91300000I0J-75000D01*
G01*
X147550000Y-92700000D01*
G75*
G02*
X147475000Y-92775000I-75000J0D01*
G01*
X147325000Y-92775000D01*
G75*
G02*
X147250000Y-92700000I0J75000D01*
G01*
G37*
G36*
G01*
X146750000Y-92700000D02*
X146750000Y-91300000D01*
G75*
G02*
X146825000Y-91225000I75000J0D01*
G01*
X146975000Y-91225000D01*
G75*
G02*
X147050000Y-91300000I0J-75000D01*
G01*
X147050000Y-92700000D01*
G75*
G02*
X146975000Y-92775000I-75000J0D01*
G01*
X146825000Y-92775000D01*
G75*
G02*
X146750000Y-92700000I0J75000D01*
G01*
G37*
G36*
G01*
X146250000Y-92700000D02*
X146250000Y-91300000D01*
G75*
G02*
X146325000Y-91225000I75000J0D01*
G01*
X146475000Y-91225000D01*
G75*
G02*
X146550000Y-91300000I0J-75000D01*
G01*
X146550000Y-92700000D01*
G75*
G02*
X146475000Y-92775000I-75000J0D01*
G01*
X146325000Y-92775000D01*
G75*
G02*
X146250000Y-92700000I0J75000D01*
G01*
G37*
G36*
G01*
X145750000Y-92700000D02*
X145750000Y-91300000D01*
G75*
G02*
X145825000Y-91225000I75000J0D01*
G01*
X145975000Y-91225000D01*
G75*
G02*
X146050000Y-91300000I0J-75000D01*
G01*
X146050000Y-92700000D01*
G75*
G02*
X145975000Y-92775000I-75000J0D01*
G01*
X145825000Y-92775000D01*
G75*
G02*
X145750000Y-92700000I0J75000D01*
G01*
G37*
G36*
G01*
X143200000Y-90150000D02*
X143200000Y-90000000D01*
G75*
G02*
X143275000Y-89925000I75000J0D01*
G01*
X144675000Y-89925000D01*
G75*
G02*
X144750000Y-90000000I0J-75000D01*
G01*
X144750000Y-90150000D01*
G75*
G02*
X144675000Y-90225000I-75000J0D01*
G01*
X143275000Y-90225000D01*
G75*
G02*
X143200000Y-90150000I0J75000D01*
G01*
G37*
G36*
G01*
X143200000Y-89650000D02*
X143200000Y-89500000D01*
G75*
G02*
X143275000Y-89425000I75000J0D01*
G01*
X144675000Y-89425000D01*
G75*
G02*
X144750000Y-89500000I0J-75000D01*
G01*
X144750000Y-89650000D01*
G75*
G02*
X144675000Y-89725000I-75000J0D01*
G01*
X143275000Y-89725000D01*
G75*
G02*
X143200000Y-89650000I0J75000D01*
G01*
G37*
G36*
G01*
X143200000Y-89150000D02*
X143200000Y-89000000D01*
G75*
G02*
X143275000Y-88925000I75000J0D01*
G01*
X144675000Y-88925000D01*
G75*
G02*
X144750000Y-89000000I0J-75000D01*
G01*
X144750000Y-89150000D01*
G75*
G02*
X144675000Y-89225000I-75000J0D01*
G01*
X143275000Y-89225000D01*
G75*
G02*
X143200000Y-89150000I0J75000D01*
G01*
G37*
G36*
G01*
X143200000Y-88650000D02*
X143200000Y-88500000D01*
G75*
G02*
X143275000Y-88425000I75000J0D01*
G01*
X144675000Y-88425000D01*
G75*
G02*
X144750000Y-88500000I0J-75000D01*
G01*
X144750000Y-88650000D01*
G75*
G02*
X144675000Y-88725000I-75000J0D01*
G01*
X143275000Y-88725000D01*
G75*
G02*
X143200000Y-88650000I0J75000D01*
G01*
G37*
G36*
G01*
X143200000Y-88150000D02*
X143200000Y-88000000D01*
G75*
G02*
X143275000Y-87925000I75000J0D01*
G01*
X144675000Y-87925000D01*
G75*
G02*
X144750000Y-88000000I0J-75000D01*
G01*
X144750000Y-88150000D01*
G75*
G02*
X144675000Y-88225000I-75000J0D01*
G01*
X143275000Y-88225000D01*
G75*
G02*
X143200000Y-88150000I0J75000D01*
G01*
G37*
G36*
G01*
X143200000Y-87650000D02*
X143200000Y-87500000D01*
G75*
G02*
X143275000Y-87425000I75000J0D01*
G01*
X144675000Y-87425000D01*
G75*
G02*
X144750000Y-87500000I0J-75000D01*
G01*
X144750000Y-87650000D01*
G75*
G02*
X144675000Y-87725000I-75000J0D01*
G01*
X143275000Y-87725000D01*
G75*
G02*
X143200000Y-87650000I0J75000D01*
G01*
G37*
G36*
G01*
X143200000Y-87150000D02*
X143200000Y-87000000D01*
G75*
G02*
X143275000Y-86925000I75000J0D01*
G01*
X144675000Y-86925000D01*
G75*
G02*
X144750000Y-87000000I0J-75000D01*
G01*
X144750000Y-87150000D01*
G75*
G02*
X144675000Y-87225000I-75000J0D01*
G01*
X143275000Y-87225000D01*
G75*
G02*
X143200000Y-87150000I0J75000D01*
G01*
G37*
G36*
G01*
X143200000Y-86650000D02*
X143200000Y-86500000D01*
G75*
G02*
X143275000Y-86425000I75000J0D01*
G01*
X144675000Y-86425000D01*
G75*
G02*
X144750000Y-86500000I0J-75000D01*
G01*
X144750000Y-86650000D01*
G75*
G02*
X144675000Y-86725000I-75000J0D01*
G01*
X143275000Y-86725000D01*
G75*
G02*
X143200000Y-86650000I0J75000D01*
G01*
G37*
G36*
G01*
X143200000Y-86150000D02*
X143200000Y-86000000D01*
G75*
G02*
X143275000Y-85925000I75000J0D01*
G01*
X144675000Y-85925000D01*
G75*
G02*
X144750000Y-86000000I0J-75000D01*
G01*
X144750000Y-86150000D01*
G75*
G02*
X144675000Y-86225000I-75000J0D01*
G01*
X143275000Y-86225000D01*
G75*
G02*
X143200000Y-86150000I0J75000D01*
G01*
G37*
G36*
G01*
X143200000Y-85650000D02*
X143200000Y-85500000D01*
G75*
G02*
X143275000Y-85425000I75000J0D01*
G01*
X144675000Y-85425000D01*
G75*
G02*
X144750000Y-85500000I0J-75000D01*
G01*
X144750000Y-85650000D01*
G75*
G02*
X144675000Y-85725000I-75000J0D01*
G01*
X143275000Y-85725000D01*
G75*
G02*
X143200000Y-85650000I0J75000D01*
G01*
G37*
G36*
G01*
X143200000Y-85150000D02*
X143200000Y-85000000D01*
G75*
G02*
X143275000Y-84925000I75000J0D01*
G01*
X144675000Y-84925000D01*
G75*
G02*
X144750000Y-85000000I0J-75000D01*
G01*
X144750000Y-85150000D01*
G75*
G02*
X144675000Y-85225000I-75000J0D01*
G01*
X143275000Y-85225000D01*
G75*
G02*
X143200000Y-85150000I0J75000D01*
G01*
G37*
G36*
G01*
X143200000Y-84650000D02*
X143200000Y-84500000D01*
G75*
G02*
X143275000Y-84425000I75000J0D01*
G01*
X144675000Y-84425000D01*
G75*
G02*
X144750000Y-84500000I0J-75000D01*
G01*
X144750000Y-84650000D01*
G75*
G02*
X144675000Y-84725000I-75000J0D01*
G01*
X143275000Y-84725000D01*
G75*
G02*
X143200000Y-84650000I0J75000D01*
G01*
G37*
G36*
G01*
X143200000Y-84150000D02*
X143200000Y-84000000D01*
G75*
G02*
X143275000Y-83925000I75000J0D01*
G01*
X144675000Y-83925000D01*
G75*
G02*
X144750000Y-84000000I0J-75000D01*
G01*
X144750000Y-84150000D01*
G75*
G02*
X144675000Y-84225000I-75000J0D01*
G01*
X143275000Y-84225000D01*
G75*
G02*
X143200000Y-84150000I0J75000D01*
G01*
G37*
G36*
G01*
X143200000Y-83650000D02*
X143200000Y-83500000D01*
G75*
G02*
X143275000Y-83425000I75000J0D01*
G01*
X144675000Y-83425000D01*
G75*
G02*
X144750000Y-83500000I0J-75000D01*
G01*
X144750000Y-83650000D01*
G75*
G02*
X144675000Y-83725000I-75000J0D01*
G01*
X143275000Y-83725000D01*
G75*
G02*
X143200000Y-83650000I0J75000D01*
G01*
G37*
G36*
G01*
X143200000Y-83150000D02*
X143200000Y-83000000D01*
G75*
G02*
X143275000Y-82925000I75000J0D01*
G01*
X144675000Y-82925000D01*
G75*
G02*
X144750000Y-83000000I0J-75000D01*
G01*
X144750000Y-83150000D01*
G75*
G02*
X144675000Y-83225000I-75000J0D01*
G01*
X143275000Y-83225000D01*
G75*
G02*
X143200000Y-83150000I0J75000D01*
G01*
G37*
G36*
G01*
X143200000Y-82650000D02*
X143200000Y-82500000D01*
G75*
G02*
X143275000Y-82425000I75000J0D01*
G01*
X144675000Y-82425000D01*
G75*
G02*
X144750000Y-82500000I0J-75000D01*
G01*
X144750000Y-82650000D01*
G75*
G02*
X144675000Y-82725000I-75000J0D01*
G01*
X143275000Y-82725000D01*
G75*
G02*
X143200000Y-82650000I0J75000D01*
G01*
G37*
%TD*%
D11*
%TO.C,Y1*%
X128700000Y-89950000D03*
X128700000Y-81450000D03*
%TD*%
D12*
%TO.C,U2*%
X128850000Y-100700000D03*
X128850000Y-105300000D03*
X128850000Y-103000000D03*
D13*
X135150000Y-103000000D03*
%TD*%
D14*
%TO.C,J3*%
X175850000Y-100550000D03*
X170400000Y-100550000D03*
X175850000Y-109450000D03*
X170400000Y-109450000D03*
D15*
X170300000Y-103400000D03*
X170300000Y-104200000D03*
X170300000Y-105000000D03*
X170300000Y-105800000D03*
X170300000Y-106600000D03*
%TD*%
%TO.C,C2*%
G36*
G01*
X145500000Y-94849998D02*
X145500000Y-96150002D01*
G75*
G02*
X145250002Y-96400000I-249998J0D01*
G01*
X144424998Y-96400000D01*
G75*
G02*
X144175000Y-96150002I0J249998D01*
G01*
X144175000Y-94849998D01*
G75*
G02*
X144424998Y-94600000I249998J0D01*
G01*
X145250002Y-94600000D01*
G75*
G02*
X145500000Y-94849998I0J-249998D01*
G01*
G37*
G36*
G01*
X148625000Y-94849998D02*
X148625000Y-96150002D01*
G75*
G02*
X148375002Y-96400000I-249998J0D01*
G01*
X147549998Y-96400000D01*
G75*
G02*
X147300000Y-96150002I0J249998D01*
G01*
X147300000Y-94849998D01*
G75*
G02*
X147549998Y-94600000I249998J0D01*
G01*
X148375002Y-94600000D01*
G75*
G02*
X148625000Y-94849998I0J-249998D01*
G01*
G37*
%TD*%
%TO.C,C3*%
G36*
G01*
X154100000Y-94949998D02*
X154100000Y-96250002D01*
G75*
G02*
X153850002Y-96500000I-249998J0D01*
G01*
X153024998Y-96500000D01*
G75*
G02*
X152775000Y-96250002I0J249998D01*
G01*
X152775000Y-94949998D01*
G75*
G02*
X153024998Y-94700000I249998J0D01*
G01*
X153850002Y-94700000D01*
G75*
G02*
X154100000Y-94949998I0J-249998D01*
G01*
G37*
G36*
G01*
X157225000Y-94949998D02*
X157225000Y-96250002D01*
G75*
G02*
X156975002Y-96500000I-249998J0D01*
G01*
X156149998Y-96500000D01*
G75*
G02*
X155900000Y-96250002I0J249998D01*
G01*
X155900000Y-94949998D01*
G75*
G02*
X156149998Y-94700000I249998J0D01*
G01*
X156975002Y-94700000D01*
G75*
G02*
X157225000Y-94949998I0J-249998D01*
G01*
G37*
%TD*%
%TO.C,C4*%
G36*
G01*
X157549998Y-82000000D02*
X158850002Y-82000000D01*
G75*
G02*
X159100000Y-82249998I0J-249998D01*
G01*
X159100000Y-83075002D01*
G75*
G02*
X158850002Y-83325000I-249998J0D01*
G01*
X157549998Y-83325000D01*
G75*
G02*
X157300000Y-83075002I0J249998D01*
G01*
X157300000Y-82249998D01*
G75*
G02*
X157549998Y-82000000I249998J0D01*
G01*
G37*
G36*
G01*
X157549998Y-78875000D02*
X158850002Y-78875000D01*
G75*
G02*
X159100000Y-79124998I0J-249998D01*
G01*
X159100000Y-79950002D01*
G75*
G02*
X158850002Y-80200000I-249998J0D01*
G01*
X157549998Y-80200000D01*
G75*
G02*
X157300000Y-79950002I0J249998D01*
G01*
X157300000Y-79124998D01*
G75*
G02*
X157549998Y-78875000I249998J0D01*
G01*
G37*
%TD*%
%TO.C,C5*%
G36*
G01*
X137200000Y-91349998D02*
X137200000Y-92650002D01*
G75*
G02*
X136950002Y-92900000I-249998J0D01*
G01*
X136124998Y-92900000D01*
G75*
G02*
X135875000Y-92650002I0J249998D01*
G01*
X135875000Y-91349998D01*
G75*
G02*
X136124998Y-91100000I249998J0D01*
G01*
X136950002Y-91100000D01*
G75*
G02*
X137200000Y-91349998I0J-249998D01*
G01*
G37*
G36*
G01*
X140325000Y-91349998D02*
X140325000Y-92650002D01*
G75*
G02*
X140075002Y-92900000I-249998J0D01*
G01*
X139249998Y-92900000D01*
G75*
G02*
X139000000Y-92650002I0J249998D01*
G01*
X139000000Y-91349998D01*
G75*
G02*
X139249998Y-91100000I249998J0D01*
G01*
X140075002Y-91100000D01*
G75*
G02*
X140325000Y-91349998I0J-249998D01*
G01*
G37*
%TD*%
%TO.C,C7*%
G36*
G01*
X123800000Y-67150002D02*
X123800000Y-65849998D01*
G75*
G02*
X124049998Y-65600000I249998J0D01*
G01*
X124875002Y-65600000D01*
G75*
G02*
X125125000Y-65849998I0J-249998D01*
G01*
X125125000Y-67150002D01*
G75*
G02*
X124875002Y-67400000I-249998J0D01*
G01*
X124049998Y-67400000D01*
G75*
G02*
X123800000Y-67150002I0J249998D01*
G01*
G37*
G36*
G01*
X120675000Y-67150002D02*
X120675000Y-65849998D01*
G75*
G02*
X120924998Y-65600000I249998J0D01*
G01*
X121750002Y-65600000D01*
G75*
G02*
X122000000Y-65849998I0J-249998D01*
G01*
X122000000Y-67150002D01*
G75*
G02*
X121750002Y-67400000I-249998J0D01*
G01*
X120924998Y-67400000D01*
G75*
G02*
X120675000Y-67150002I0J249998D01*
G01*
G37*
%TD*%
%TO.C,C11*%
G36*
G01*
X125600000Y-100050002D02*
X125600000Y-98749998D01*
G75*
G02*
X125849998Y-98500000I249998J0D01*
G01*
X126675002Y-98500000D01*
G75*
G02*
X126925000Y-98749998I0J-249998D01*
G01*
X126925000Y-100050002D01*
G75*
G02*
X126675002Y-100300000I-249998J0D01*
G01*
X125849998Y-100300000D01*
G75*
G02*
X125600000Y-100050002I0J249998D01*
G01*
G37*
G36*
G01*
X122475000Y-100050002D02*
X122475000Y-98749998D01*
G75*
G02*
X122724998Y-98500000I249998J0D01*
G01*
X123550002Y-98500000D01*
G75*
G02*
X123800000Y-98749998I0J-249998D01*
G01*
X123800000Y-100050002D01*
G75*
G02*
X123550002Y-100300000I-249998J0D01*
G01*
X122724998Y-100300000D01*
G75*
G02*
X122475000Y-100050002I0J249998D01*
G01*
G37*
%TD*%
%TO.C,C12*%
G36*
G01*
X128700000Y-107449998D02*
X128700000Y-108750002D01*
G75*
G02*
X128450002Y-109000000I-249998J0D01*
G01*
X127624998Y-109000000D01*
G75*
G02*
X127375000Y-108750002I0J249998D01*
G01*
X127375000Y-107449998D01*
G75*
G02*
X127624998Y-107200000I249998J0D01*
G01*
X128450002Y-107200000D01*
G75*
G02*
X128700000Y-107449998I0J-249998D01*
G01*
G37*
G36*
G01*
X131825000Y-107449998D02*
X131825000Y-108750002D01*
G75*
G02*
X131575002Y-109000000I-249998J0D01*
G01*
X130749998Y-109000000D01*
G75*
G02*
X130500000Y-108750002I0J249998D01*
G01*
X130500000Y-107449998D01*
G75*
G02*
X130749998Y-107200000I249998J0D01*
G01*
X131575002Y-107200000D01*
G75*
G02*
X131825000Y-107449998I0J-249998D01*
G01*
G37*
%TD*%
%TO.C,C13*%
G36*
G01*
X125050000Y-103725001D02*
X125050000Y-102874999D01*
G75*
G02*
X125299999Y-102625000I249999J0D01*
G01*
X126375001Y-102625000D01*
G75*
G02*
X126625000Y-102874999I0J-249999D01*
G01*
X126625000Y-103725001D01*
G75*
G02*
X126375001Y-103975000I-249999J0D01*
G01*
X125299999Y-103975000D01*
G75*
G02*
X125050000Y-103725001I0J249999D01*
G01*
G37*
G36*
G01*
X122175000Y-103725001D02*
X122175000Y-102874999D01*
G75*
G02*
X122424999Y-102625000I249999J0D01*
G01*
X123500001Y-102625000D01*
G75*
G02*
X123750000Y-102874999I0J-249999D01*
G01*
X123750000Y-103725001D01*
G75*
G02*
X123500001Y-103975000I-249999J0D01*
G01*
X122424999Y-103975000D01*
G75*
G02*
X122175000Y-103725001I0J249999D01*
G01*
G37*
%TD*%
%TO.C,R3*%
G36*
G01*
X167000000Y-104725001D02*
X167000000Y-103474999D01*
G75*
G02*
X167249999Y-103225000I249999J0D01*
G01*
X168050001Y-103225000D01*
G75*
G02*
X168300000Y-103474999I0J-249999D01*
G01*
X168300000Y-104725001D01*
G75*
G02*
X168050001Y-104975000I-249999J0D01*
G01*
X167249999Y-104975000D01*
G75*
G02*
X167000000Y-104725001I0J249999D01*
G01*
G37*
G36*
G01*
X163900000Y-104725001D02*
X163900000Y-103474999D01*
G75*
G02*
X164149999Y-103225000I249999J0D01*
G01*
X164950001Y-103225000D01*
G75*
G02*
X165200000Y-103474999I0J-249999D01*
G01*
X165200000Y-104725001D01*
G75*
G02*
X164950001Y-104975000I-249999J0D01*
G01*
X164149999Y-104975000D01*
G75*
G02*
X163900000Y-104725001I0J249999D01*
G01*
G37*
%TD*%
%TO.C,C9*%
G36*
G01*
X122500000Y-81949998D02*
X122500000Y-83250002D01*
G75*
G02*
X122250002Y-83500000I-249998J0D01*
G01*
X121424998Y-83500000D01*
G75*
G02*
X121175000Y-83250002I0J249998D01*
G01*
X121175000Y-81949998D01*
G75*
G02*
X121424998Y-81700000I249998J0D01*
G01*
X122250002Y-81700000D01*
G75*
G02*
X122500000Y-81949998I0J-249998D01*
G01*
G37*
G36*
G01*
X125625000Y-81949998D02*
X125625000Y-83250002D01*
G75*
G02*
X125375002Y-83500000I-249998J0D01*
G01*
X124549998Y-83500000D01*
G75*
G02*
X124300000Y-83250002I0J249998D01*
G01*
X124300000Y-81949998D01*
G75*
G02*
X124549998Y-81700000I249998J0D01*
G01*
X125375002Y-81700000D01*
G75*
G02*
X125625000Y-81949998I0J-249998D01*
G01*
G37*
%TD*%
%TO.C,C10*%
G36*
G01*
X122500000Y-88249998D02*
X122500000Y-89550002D01*
G75*
G02*
X122250002Y-89800000I-249998J0D01*
G01*
X121424998Y-89800000D01*
G75*
G02*
X121175000Y-89550002I0J249998D01*
G01*
X121175000Y-88249998D01*
G75*
G02*
X121424998Y-88000000I249998J0D01*
G01*
X122250002Y-88000000D01*
G75*
G02*
X122500000Y-88249998I0J-249998D01*
G01*
G37*
G36*
G01*
X125625000Y-88249998D02*
X125625000Y-89550002D01*
G75*
G02*
X125375002Y-89800000I-249998J0D01*
G01*
X124549998Y-89800000D01*
G75*
G02*
X124300000Y-89550002I0J249998D01*
G01*
X124300000Y-88249998D01*
G75*
G02*
X124549998Y-88000000I249998J0D01*
G01*
X125375002Y-88000000D01*
G75*
G02*
X125625000Y-88249998I0J-249998D01*
G01*
G37*
%TD*%
M02*
