%TF.GenerationSoftware,KiCad,Pcbnew,5.1.9+dfsg1-1+deb11u1*%
%TF.CreationDate,2025-11-03T12:09:50+01:00*%
%TF.ProjectId,STM32F4XX,53544d33-3246-4345-9858-2e6b69636164,0.4*%
%TF.SameCoordinates,Original*%
%TF.FileFunction,Legend,Top*%
%TF.FilePolarity,Positive*%
%FSLAX46Y46*%
G04 Gerber Fmt 4.6, Leading zero omitted, Abs format (unit mm)*
G04 Created by KiCad (PCBNEW 5.1.9+dfsg1-1+deb11u1) date 2025-11-03 12:09:50*
%MOMM*%
%LPD*%
G01*
G04 APERTURE LIST*
%ADD10C,0.150000*%
%ADD11C,0.100000*%
%ADD12C,0.300000*%
%ADD13C,0.200000*%
%ADD14C,0.127000*%
%ADD15C,0.120000*%
%ADD16C,0.010000*%
G04 APERTURE END LIST*
D10*
X120237619Y-82052380D02*
X119904285Y-81576190D01*
X119666190Y-82052380D02*
X119666190Y-81052380D01*
X120047142Y-81052380D01*
X120142380Y-81100000D01*
X120190000Y-81147619D01*
X120237619Y-81242857D01*
X120237619Y-81385714D01*
X120190000Y-81480952D01*
X120142380Y-81528571D01*
X120047142Y-81576190D01*
X119666190Y-81576190D01*
X120666190Y-81528571D02*
X120999523Y-81528571D01*
X121142380Y-82052380D02*
X120666190Y-82052380D01*
X120666190Y-81052380D01*
X121142380Y-81052380D01*
X121523333Y-82004761D02*
X121666190Y-82052380D01*
X121904285Y-82052380D01*
X121999523Y-82004761D01*
X122047142Y-81957142D01*
X122094761Y-81861904D01*
X122094761Y-81766666D01*
X122047142Y-81671428D01*
X121999523Y-81623809D01*
X121904285Y-81576190D01*
X121713809Y-81528571D01*
X121618571Y-81480952D01*
X121570952Y-81433333D01*
X121523333Y-81338095D01*
X121523333Y-81242857D01*
X121570952Y-81147619D01*
X121618571Y-81100000D01*
X121713809Y-81052380D01*
X121951904Y-81052380D01*
X122094761Y-81100000D01*
X122523333Y-81528571D02*
X122856666Y-81528571D01*
X122999523Y-82052380D02*
X122523333Y-82052380D01*
X122523333Y-81052380D01*
X122999523Y-81052380D01*
X123285238Y-81052380D02*
X123856666Y-81052380D01*
X123570952Y-82052380D02*
X123570952Y-81052380D01*
D11*
X167937142Y-81796666D02*
X167899047Y-81910952D01*
X167860952Y-81949047D01*
X167784761Y-81987142D01*
X167670476Y-81987142D01*
X167594285Y-81949047D01*
X167556190Y-81910952D01*
X167518095Y-81834761D01*
X167518095Y-81530000D01*
X168318095Y-81530000D01*
X168318095Y-81796666D01*
X168280000Y-81872857D01*
X168241904Y-81910952D01*
X168165714Y-81949047D01*
X168089523Y-81949047D01*
X168013333Y-81910952D01*
X167975238Y-81872857D01*
X167937142Y-81796666D01*
X167937142Y-81530000D01*
X168318095Y-84310952D02*
X168318095Y-84463333D01*
X168280000Y-84539523D01*
X168203809Y-84615714D01*
X168051428Y-84653809D01*
X167784761Y-84653809D01*
X167632380Y-84615714D01*
X167556190Y-84539523D01*
X167518095Y-84463333D01*
X167518095Y-84310952D01*
X167556190Y-84234761D01*
X167632380Y-84158571D01*
X167784761Y-84120476D01*
X168051428Y-84120476D01*
X168203809Y-84158571D01*
X168280000Y-84234761D01*
X168318095Y-84310952D01*
X167899047Y-86977619D02*
X167518095Y-86977619D01*
X168318095Y-86710952D02*
X167899047Y-86977619D01*
X168318095Y-87244285D01*
X166218095Y-80768095D02*
X167018095Y-80768095D01*
X167018095Y-80958571D01*
X166980000Y-81072857D01*
X166903809Y-81149047D01*
X166827619Y-81187142D01*
X166675238Y-81225238D01*
X166560952Y-81225238D01*
X166408571Y-81187142D01*
X166332380Y-81149047D01*
X166256190Y-81072857D01*
X166218095Y-80958571D01*
X166218095Y-80768095D01*
X166637142Y-81568095D02*
X166637142Y-81834761D01*
X166218095Y-81949047D02*
X166218095Y-81568095D01*
X167018095Y-81568095D01*
X167018095Y-81949047D01*
X166637142Y-82558571D02*
X166599047Y-82672857D01*
X166560952Y-82710952D01*
X166484761Y-82749047D01*
X166370476Y-82749047D01*
X166294285Y-82710952D01*
X166256190Y-82672857D01*
X166218095Y-82596666D01*
X166218095Y-82291904D01*
X167018095Y-82291904D01*
X167018095Y-82558571D01*
X166980000Y-82634761D01*
X166941904Y-82672857D01*
X166865714Y-82710952D01*
X166789523Y-82710952D01*
X166713333Y-82672857D01*
X166675238Y-82634761D01*
X166637142Y-82558571D01*
X166637142Y-82291904D01*
X167018095Y-83091904D02*
X166370476Y-83091904D01*
X166294285Y-83130000D01*
X166256190Y-83168095D01*
X166218095Y-83244285D01*
X166218095Y-83396666D01*
X166256190Y-83472857D01*
X166294285Y-83510952D01*
X166370476Y-83549047D01*
X167018095Y-83549047D01*
X166980000Y-84349047D02*
X167018095Y-84272857D01*
X167018095Y-84158571D01*
X166980000Y-84044285D01*
X166903809Y-83968095D01*
X166827619Y-83930000D01*
X166675238Y-83891904D01*
X166560952Y-83891904D01*
X166408571Y-83930000D01*
X166332380Y-83968095D01*
X166256190Y-84044285D01*
X166218095Y-84158571D01*
X166218095Y-84234761D01*
X166256190Y-84349047D01*
X166294285Y-84387142D01*
X166560952Y-84387142D01*
X166560952Y-84234761D01*
X167018095Y-85339523D02*
X166370476Y-85339523D01*
X166294285Y-85377619D01*
X166256190Y-85415714D01*
X166218095Y-85491904D01*
X166218095Y-85644285D01*
X166256190Y-85720476D01*
X166294285Y-85758571D01*
X166370476Y-85796666D01*
X167018095Y-85796666D01*
X166446666Y-86139523D02*
X166446666Y-86520476D01*
X166218095Y-86063333D02*
X167018095Y-86330000D01*
X166218095Y-86596666D01*
X166218095Y-87320476D02*
X166599047Y-87053809D01*
X166218095Y-86863333D02*
X167018095Y-86863333D01*
X167018095Y-87168095D01*
X166980000Y-87244285D01*
X166941904Y-87282380D01*
X166865714Y-87320476D01*
X166751428Y-87320476D01*
X166675238Y-87282380D01*
X166637142Y-87244285D01*
X166599047Y-87168095D01*
X166599047Y-86863333D01*
X167018095Y-87549047D02*
X167018095Y-88006190D01*
X166218095Y-87777619D02*
X167018095Y-87777619D01*
D10*
X122200714Y-52656071D02*
X122307857Y-52691785D01*
X122486428Y-52691785D01*
X122557857Y-52656071D01*
X122593571Y-52620357D01*
X122629285Y-52548928D01*
X122629285Y-52477500D01*
X122593571Y-52406071D01*
X122557857Y-52370357D01*
X122486428Y-52334642D01*
X122343571Y-52298928D01*
X122272142Y-52263214D01*
X122236428Y-52227500D01*
X122200714Y-52156071D01*
X122200714Y-52084642D01*
X122236428Y-52013214D01*
X122272142Y-51977500D01*
X122343571Y-51941785D01*
X122522142Y-51941785D01*
X122629285Y-51977500D01*
X122843571Y-51941785D02*
X123272142Y-51941785D01*
X123057857Y-52691785D02*
X123057857Y-51941785D01*
X123879285Y-52691785D02*
X123522142Y-52691785D01*
X123522142Y-51941785D01*
X124129285Y-52691785D02*
X124129285Y-52191785D01*
X124129285Y-51941785D02*
X124093571Y-51977500D01*
X124129285Y-52013214D01*
X124165000Y-51977500D01*
X124129285Y-51941785D01*
X124129285Y-52013214D01*
X124486428Y-52191785D02*
X124486428Y-52691785D01*
X124486428Y-52263214D02*
X124522142Y-52227500D01*
X124593571Y-52191785D01*
X124700714Y-52191785D01*
X124772142Y-52227500D01*
X124807857Y-52298928D01*
X124807857Y-52691785D01*
X125165000Y-52691785D02*
X125165000Y-51941785D01*
X125236428Y-52406071D02*
X125450714Y-52691785D01*
X125450714Y-52191785D02*
X125165000Y-52477500D01*
X126236428Y-51941785D02*
X126486428Y-52691785D01*
X126736428Y-51941785D01*
X126950714Y-52013214D02*
X126986428Y-51977500D01*
X127057857Y-51941785D01*
X127236428Y-51941785D01*
X127307857Y-51977500D01*
X127343571Y-52013214D01*
X127379285Y-52084642D01*
X127379285Y-52156071D01*
X127343571Y-52263214D01*
X126915000Y-52691785D01*
X127379285Y-52691785D01*
X121182857Y-53966785D02*
X121182857Y-53216785D01*
X121468571Y-53216785D01*
X121540000Y-53252500D01*
X121575714Y-53288214D01*
X121611428Y-53359642D01*
X121611428Y-53466785D01*
X121575714Y-53538214D01*
X121540000Y-53573928D01*
X121468571Y-53609642D01*
X121182857Y-53609642D01*
X122361428Y-53966785D02*
X122111428Y-53609642D01*
X121932857Y-53966785D02*
X121932857Y-53216785D01*
X122218571Y-53216785D01*
X122290000Y-53252500D01*
X122325714Y-53288214D01*
X122361428Y-53359642D01*
X122361428Y-53466785D01*
X122325714Y-53538214D01*
X122290000Y-53573928D01*
X122218571Y-53609642D01*
X121932857Y-53609642D01*
X122825714Y-53216785D02*
X122968571Y-53216785D01*
X123040000Y-53252500D01*
X123111428Y-53323928D01*
X123147142Y-53466785D01*
X123147142Y-53716785D01*
X123111428Y-53859642D01*
X123040000Y-53931071D01*
X122968571Y-53966785D01*
X122825714Y-53966785D01*
X122754285Y-53931071D01*
X122682857Y-53859642D01*
X122647142Y-53716785D01*
X122647142Y-53466785D01*
X122682857Y-53323928D01*
X122754285Y-53252500D01*
X122825714Y-53216785D01*
X123861428Y-53252500D02*
X123790000Y-53216785D01*
X123682857Y-53216785D01*
X123575714Y-53252500D01*
X123504285Y-53323928D01*
X123468571Y-53395357D01*
X123432857Y-53538214D01*
X123432857Y-53645357D01*
X123468571Y-53788214D01*
X123504285Y-53859642D01*
X123575714Y-53931071D01*
X123682857Y-53966785D01*
X123754285Y-53966785D01*
X123861428Y-53931071D01*
X123897142Y-53895357D01*
X123897142Y-53645357D01*
X123754285Y-53645357D01*
X124647142Y-53966785D02*
X124397142Y-53609642D01*
X124218571Y-53966785D02*
X124218571Y-53216785D01*
X124504285Y-53216785D01*
X124575714Y-53252500D01*
X124611428Y-53288214D01*
X124647142Y-53359642D01*
X124647142Y-53466785D01*
X124611428Y-53538214D01*
X124575714Y-53573928D01*
X124504285Y-53609642D01*
X124218571Y-53609642D01*
X124932857Y-53752500D02*
X125290000Y-53752500D01*
X124861428Y-53966785D02*
X125111428Y-53216785D01*
X125361428Y-53966785D01*
X125611428Y-53966785D02*
X125611428Y-53216785D01*
X125861428Y-53752500D01*
X126111428Y-53216785D01*
X126111428Y-53966785D01*
X126468571Y-53966785D02*
X126468571Y-53216785D01*
X126718571Y-53752500D01*
X126968571Y-53216785D01*
X126968571Y-53966785D01*
X127325714Y-53573928D02*
X127575714Y-53573928D01*
X127682857Y-53966785D02*
X127325714Y-53966785D01*
X127325714Y-53216785D01*
X127682857Y-53216785D01*
X128432857Y-53966785D02*
X128182857Y-53609642D01*
X128004285Y-53966785D02*
X128004285Y-53216785D01*
X128290000Y-53216785D01*
X128361428Y-53252500D01*
X128397142Y-53288214D01*
X128432857Y-53359642D01*
X128432857Y-53466785D01*
X128397142Y-53538214D01*
X128361428Y-53573928D01*
X128290000Y-53609642D01*
X128004285Y-53609642D01*
X144452380Y-90557142D02*
X144500000Y-90604761D01*
X144452380Y-90652380D01*
X144404761Y-90604761D01*
X144452380Y-90557142D01*
X144452380Y-90652380D01*
X144928571Y-90557142D02*
X144976190Y-90604761D01*
X144928571Y-90652380D01*
X144880952Y-90604761D01*
X144928571Y-90557142D01*
X144928571Y-90652380D01*
X145404761Y-90557142D02*
X145452380Y-90604761D01*
X145404761Y-90652380D01*
X145357142Y-90604761D01*
X145404761Y-90557142D01*
X145404761Y-90652380D01*
X146309523Y-90652380D02*
X146309523Y-90128571D01*
X146261904Y-90033333D01*
X146166666Y-89985714D01*
X145976190Y-89985714D01*
X145880952Y-90033333D01*
X146309523Y-90604761D02*
X146214285Y-90652380D01*
X145976190Y-90652380D01*
X145880952Y-90604761D01*
X145833333Y-90509523D01*
X145833333Y-90414285D01*
X145880952Y-90319047D01*
X145976190Y-90271428D01*
X146214285Y-90271428D01*
X146309523Y-90223809D01*
X148119047Y-90652380D02*
X147785714Y-90176190D01*
X147547619Y-90652380D02*
X147547619Y-89652380D01*
X147928571Y-89652380D01*
X148023809Y-89700000D01*
X148071428Y-89747619D01*
X148119047Y-89842857D01*
X148119047Y-89985714D01*
X148071428Y-90080952D01*
X148023809Y-90128571D01*
X147928571Y-90176190D01*
X147547619Y-90176190D01*
X148928571Y-90604761D02*
X148833333Y-90652380D01*
X148642857Y-90652380D01*
X148547619Y-90604761D01*
X148500000Y-90509523D01*
X148500000Y-90128571D01*
X148547619Y-90033333D01*
X148642857Y-89985714D01*
X148833333Y-89985714D01*
X148928571Y-90033333D01*
X148976190Y-90128571D01*
X148976190Y-90223809D01*
X148500000Y-90319047D01*
X149261904Y-89985714D02*
X149642857Y-89985714D01*
X149404761Y-89652380D02*
X149404761Y-90509523D01*
X149452380Y-90604761D01*
X149547619Y-90652380D01*
X149642857Y-90652380D01*
X149976190Y-90652380D02*
X149976190Y-89985714D01*
X149976190Y-90176190D02*
X150023809Y-90080952D01*
X150071428Y-90033333D01*
X150166666Y-89985714D01*
X150261904Y-89985714D01*
X150738095Y-90652380D02*
X150642857Y-90604761D01*
X150595238Y-90557142D01*
X150547619Y-90461904D01*
X150547619Y-90176190D01*
X150595238Y-90080952D01*
X150642857Y-90033333D01*
X150738095Y-89985714D01*
X150880952Y-89985714D01*
X150976190Y-90033333D01*
X151023809Y-90080952D01*
X151071428Y-90176190D01*
X151071428Y-90461904D01*
X151023809Y-90557142D01*
X150976190Y-90604761D01*
X150880952Y-90652380D01*
X150738095Y-90652380D01*
X151833333Y-90128571D02*
X151976190Y-90176190D01*
X152023809Y-90223809D01*
X152071428Y-90319047D01*
X152071428Y-90461904D01*
X152023809Y-90557142D01*
X151976190Y-90604761D01*
X151880952Y-90652380D01*
X151500000Y-90652380D01*
X151500000Y-89652380D01*
X151833333Y-89652380D01*
X151928571Y-89700000D01*
X151976190Y-89747619D01*
X152023809Y-89842857D01*
X152023809Y-89938095D01*
X151976190Y-90033333D01*
X151928571Y-90080952D01*
X151833333Y-90128571D01*
X151500000Y-90128571D01*
X152500000Y-90652380D02*
X152500000Y-89985714D01*
X152500000Y-89652380D02*
X152452380Y-89700000D01*
X152500000Y-89747619D01*
X152547619Y-89700000D01*
X152500000Y-89652380D01*
X152500000Y-89747619D01*
X152833333Y-89985714D02*
X153214285Y-89985714D01*
X152976190Y-89652380D02*
X152976190Y-90509523D01*
X153023809Y-90604761D01*
X153119047Y-90652380D01*
X153214285Y-90652380D01*
X154023809Y-90652380D02*
X153547619Y-90652380D01*
X153547619Y-89652380D01*
X154785714Y-90652380D02*
X154785714Y-90128571D01*
X154738095Y-90033333D01*
X154642857Y-89985714D01*
X154452380Y-89985714D01*
X154357142Y-90033333D01*
X154785714Y-90604761D02*
X154690476Y-90652380D01*
X154452380Y-90652380D01*
X154357142Y-90604761D01*
X154309523Y-90509523D01*
X154309523Y-90414285D01*
X154357142Y-90319047D01*
X154452380Y-90271428D01*
X154690476Y-90271428D01*
X154785714Y-90223809D01*
X155261904Y-90652380D02*
X155261904Y-89652380D01*
X155261904Y-90033333D02*
X155357142Y-89985714D01*
X155547619Y-89985714D01*
X155642857Y-90033333D01*
X155690476Y-90080952D01*
X155738095Y-90176190D01*
X155738095Y-90461904D01*
X155690476Y-90557142D01*
X155642857Y-90604761D01*
X155547619Y-90652380D01*
X155357142Y-90652380D01*
X155261904Y-90604761D01*
X156785714Y-89652380D02*
X157357142Y-89652380D01*
X157071428Y-90652380D02*
X157071428Y-89652380D01*
X158071428Y-90604761D02*
X157976190Y-90652380D01*
X157785714Y-90652380D01*
X157690476Y-90604761D01*
X157642857Y-90509523D01*
X157642857Y-90128571D01*
X157690476Y-90033333D01*
X157785714Y-89985714D01*
X157976190Y-89985714D01*
X158071428Y-90033333D01*
X158119047Y-90128571D01*
X158119047Y-90223809D01*
X157642857Y-90319047D01*
X158976190Y-90604761D02*
X158880952Y-90652380D01*
X158690476Y-90652380D01*
X158595238Y-90604761D01*
X158547619Y-90557142D01*
X158500000Y-90461904D01*
X158500000Y-90176190D01*
X158547619Y-90080952D01*
X158595238Y-90033333D01*
X158690476Y-89985714D01*
X158880952Y-89985714D01*
X158976190Y-90033333D01*
X159404761Y-90652380D02*
X159404761Y-89652380D01*
X159833333Y-90652380D02*
X159833333Y-90128571D01*
X159785714Y-90033333D01*
X159690476Y-89985714D01*
X159547619Y-89985714D01*
X159452380Y-90033333D01*
X159404761Y-90080952D01*
X161595238Y-89700000D02*
X161500000Y-89652380D01*
X161357142Y-89652380D01*
X161214285Y-89700000D01*
X161119047Y-89795238D01*
X161071428Y-89890476D01*
X161023809Y-90080952D01*
X161023809Y-90223809D01*
X161071428Y-90414285D01*
X161119047Y-90509523D01*
X161214285Y-90604761D01*
X161357142Y-90652380D01*
X161452380Y-90652380D01*
X161595238Y-90604761D01*
X161642857Y-90557142D01*
X161642857Y-90223809D01*
X161452380Y-90223809D01*
X162500000Y-89985714D02*
X162500000Y-90652380D01*
X162071428Y-89985714D02*
X162071428Y-90509523D01*
X162119047Y-90604761D01*
X162214285Y-90652380D01*
X162357142Y-90652380D01*
X162452380Y-90604761D01*
X162500000Y-90557142D01*
X162880952Y-89985714D02*
X163119047Y-90652380D01*
X163357142Y-89985714D02*
X163119047Y-90652380D01*
X163023809Y-90890476D01*
X162976190Y-90938095D01*
X162880952Y-90985714D01*
X164499999Y-90652380D02*
X164499999Y-89652380D01*
X164880952Y-89652380D01*
X164976190Y-89700000D01*
X165023809Y-89747619D01*
X165071428Y-89842857D01*
X165071428Y-89985714D01*
X165023809Y-90080952D01*
X164976190Y-90128571D01*
X164880952Y-90176190D01*
X164499999Y-90176190D01*
X165499999Y-90652380D02*
X165499999Y-89985714D01*
X165499999Y-90176190D02*
X165547619Y-90080952D01*
X165595238Y-90033333D01*
X165690476Y-89985714D01*
X165785714Y-89985714D01*
X166261904Y-90652380D02*
X166166666Y-90604761D01*
X166119047Y-90557142D01*
X166071428Y-90461904D01*
X166071428Y-90176190D01*
X166119047Y-90080952D01*
X166166666Y-90033333D01*
X166261904Y-89985714D01*
X166404761Y-89985714D01*
X166499999Y-90033333D01*
X166547619Y-90080952D01*
X166595238Y-90176190D01*
X166595238Y-90461904D01*
X166547619Y-90557142D01*
X166499999Y-90604761D01*
X166404761Y-90652380D01*
X166261904Y-90652380D01*
X167452380Y-90652380D02*
X167452380Y-89652380D01*
X167452380Y-90604761D02*
X167357142Y-90652380D01*
X167166666Y-90652380D01*
X167071428Y-90604761D01*
X167023809Y-90557142D01*
X166976190Y-90461904D01*
X166976190Y-90176190D01*
X167023809Y-90080952D01*
X167071428Y-90033333D01*
X167166666Y-89985714D01*
X167357142Y-89985714D01*
X167452380Y-90033333D01*
X168357142Y-89985714D02*
X168357142Y-90652380D01*
X167928571Y-89985714D02*
X167928571Y-90509523D01*
X167976190Y-90604761D01*
X168071428Y-90652380D01*
X168214285Y-90652380D01*
X168309523Y-90604761D01*
X168357142Y-90557142D01*
X169261904Y-90604761D02*
X169166666Y-90652380D01*
X168976190Y-90652380D01*
X168880952Y-90604761D01*
X168833333Y-90557142D01*
X168785714Y-90461904D01*
X168785714Y-90176190D01*
X168833333Y-90080952D01*
X168880952Y-90033333D01*
X168976190Y-89985714D01*
X169166666Y-89985714D01*
X169261904Y-90033333D01*
X169547619Y-89985714D02*
X169928571Y-89985714D01*
X169690476Y-89652380D02*
X169690476Y-90509523D01*
X169738095Y-90604761D01*
X169833333Y-90652380D01*
X169928571Y-90652380D01*
X170261904Y-90652380D02*
X170261904Y-89985714D01*
X170261904Y-89652380D02*
X170214285Y-89700000D01*
X170261904Y-89747619D01*
X170309523Y-89700000D01*
X170261904Y-89652380D01*
X170261904Y-89747619D01*
X170880952Y-90652380D02*
X170785714Y-90604761D01*
X170738095Y-90557142D01*
X170690476Y-90461904D01*
X170690476Y-90176190D01*
X170738095Y-90080952D01*
X170785714Y-90033333D01*
X170880952Y-89985714D01*
X171023809Y-89985714D01*
X171119047Y-90033333D01*
X171166666Y-90080952D01*
X171214285Y-90176190D01*
X171214285Y-90461904D01*
X171166666Y-90557142D01*
X171119047Y-90604761D01*
X171023809Y-90652380D01*
X170880952Y-90652380D01*
X171642857Y-89985714D02*
X171642857Y-90652380D01*
X171642857Y-90080952D02*
X171690476Y-90033333D01*
X171785714Y-89985714D01*
X171928571Y-89985714D01*
X172023809Y-90033333D01*
X172071428Y-90128571D01*
X172071428Y-90652380D01*
X172547619Y-90557142D02*
X172595238Y-90604761D01*
X172547619Y-90652380D01*
X172499999Y-90604761D01*
X172547619Y-90557142D01*
X172547619Y-90652380D01*
X172547619Y-90271428D02*
X172499999Y-89700000D01*
X172547619Y-89652380D01*
X172595238Y-89700000D01*
X172547619Y-90271428D01*
X172547619Y-89652380D01*
X120870952Y-98012380D02*
X120870952Y-97012380D01*
X121299523Y-98012380D02*
X121299523Y-97488571D01*
X121251904Y-97393333D01*
X121156666Y-97345714D01*
X121013809Y-97345714D01*
X120918571Y-97393333D01*
X120870952Y-97440952D01*
X121632857Y-97345714D02*
X122013809Y-97345714D01*
X121775714Y-97012380D02*
X121775714Y-97869523D01*
X121823333Y-97964761D01*
X121918571Y-98012380D01*
X122013809Y-98012380D01*
X122204285Y-97345714D02*
X122585238Y-97345714D01*
X122347142Y-97012380D02*
X122347142Y-97869523D01*
X122394761Y-97964761D01*
X122490000Y-98012380D01*
X122585238Y-98012380D01*
X122918571Y-97345714D02*
X122918571Y-98345714D01*
X122918571Y-97393333D02*
X123013809Y-97345714D01*
X123204285Y-97345714D01*
X123299523Y-97393333D01*
X123347142Y-97440952D01*
X123394761Y-97536190D01*
X123394761Y-97821904D01*
X123347142Y-97917142D01*
X123299523Y-97964761D01*
X123204285Y-98012380D01*
X123013809Y-98012380D01*
X122918571Y-97964761D01*
X123775714Y-97964761D02*
X123870952Y-98012380D01*
X124061428Y-98012380D01*
X124156666Y-97964761D01*
X124204285Y-97869523D01*
X124204285Y-97821904D01*
X124156666Y-97726666D01*
X124061428Y-97679047D01*
X123918571Y-97679047D01*
X123823333Y-97631428D01*
X123775714Y-97536190D01*
X123775714Y-97488571D01*
X123823333Y-97393333D01*
X123918571Y-97345714D01*
X124061428Y-97345714D01*
X124156666Y-97393333D01*
X124632857Y-97917142D02*
X124680476Y-97964761D01*
X124632857Y-98012380D01*
X124585238Y-97964761D01*
X124632857Y-97917142D01*
X124632857Y-98012380D01*
X124632857Y-97393333D02*
X124680476Y-97440952D01*
X124632857Y-97488571D01*
X124585238Y-97440952D01*
X124632857Y-97393333D01*
X124632857Y-97488571D01*
X125823333Y-96964761D02*
X124966190Y-98250476D01*
X126870952Y-96964761D02*
X126013809Y-98250476D01*
X127632857Y-97345714D02*
X127632857Y-98155238D01*
X127585238Y-98250476D01*
X127537619Y-98298095D01*
X127442380Y-98345714D01*
X127299523Y-98345714D01*
X127204285Y-98298095D01*
X127632857Y-97964761D02*
X127537619Y-98012380D01*
X127347142Y-98012380D01*
X127251904Y-97964761D01*
X127204285Y-97917142D01*
X127156666Y-97821904D01*
X127156666Y-97536190D01*
X127204285Y-97440952D01*
X127251904Y-97393333D01*
X127347142Y-97345714D01*
X127537619Y-97345714D01*
X127632857Y-97393333D01*
X128109047Y-98012380D02*
X128109047Y-97345714D01*
X128109047Y-97012380D02*
X128061428Y-97060000D01*
X128109047Y-97107619D01*
X128156666Y-97060000D01*
X128109047Y-97012380D01*
X128109047Y-97107619D01*
X128442380Y-97345714D02*
X128823333Y-97345714D01*
X128585238Y-97012380D02*
X128585238Y-97869523D01*
X128632857Y-97964761D01*
X128728095Y-98012380D01*
X128823333Y-98012380D01*
X129156666Y-98012380D02*
X129156666Y-97012380D01*
X129585238Y-98012380D02*
X129585238Y-97488571D01*
X129537619Y-97393333D01*
X129442380Y-97345714D01*
X129299523Y-97345714D01*
X129204285Y-97393333D01*
X129156666Y-97440952D01*
X130490000Y-97345714D02*
X130490000Y-98012380D01*
X130061428Y-97345714D02*
X130061428Y-97869523D01*
X130109047Y-97964761D01*
X130204285Y-98012380D01*
X130347142Y-98012380D01*
X130442380Y-97964761D01*
X130490000Y-97917142D01*
X130966190Y-98012380D02*
X130966190Y-97012380D01*
X130966190Y-97393333D02*
X131061428Y-97345714D01*
X131251904Y-97345714D01*
X131347142Y-97393333D01*
X131394761Y-97440952D01*
X131442380Y-97536190D01*
X131442380Y-97821904D01*
X131394761Y-97917142D01*
X131347142Y-97964761D01*
X131251904Y-98012380D01*
X131061428Y-98012380D01*
X130966190Y-97964761D01*
X131870952Y-97917142D02*
X131918571Y-97964761D01*
X131870952Y-98012380D01*
X131823333Y-97964761D01*
X131870952Y-97917142D01*
X131870952Y-98012380D01*
X132775714Y-97964761D02*
X132680476Y-98012380D01*
X132490000Y-98012380D01*
X132394761Y-97964761D01*
X132347142Y-97917142D01*
X132299523Y-97821904D01*
X132299523Y-97536190D01*
X132347142Y-97440952D01*
X132394761Y-97393333D01*
X132490000Y-97345714D01*
X132680476Y-97345714D01*
X132775714Y-97393333D01*
X133347142Y-98012380D02*
X133251904Y-97964761D01*
X133204285Y-97917142D01*
X133156666Y-97821904D01*
X133156666Y-97536190D01*
X133204285Y-97440952D01*
X133251904Y-97393333D01*
X133347142Y-97345714D01*
X133490000Y-97345714D01*
X133585238Y-97393333D01*
X133632857Y-97440952D01*
X133680476Y-97536190D01*
X133680476Y-97821904D01*
X133632857Y-97917142D01*
X133585238Y-97964761D01*
X133490000Y-98012380D01*
X133347142Y-98012380D01*
X134109047Y-98012380D02*
X134109047Y-97345714D01*
X134109047Y-97440952D02*
X134156666Y-97393333D01*
X134251904Y-97345714D01*
X134394761Y-97345714D01*
X134490000Y-97393333D01*
X134537619Y-97488571D01*
X134537619Y-98012380D01*
X134537619Y-97488571D02*
X134585238Y-97393333D01*
X134680476Y-97345714D01*
X134823333Y-97345714D01*
X134918571Y-97393333D01*
X134966190Y-97488571D01*
X134966190Y-98012380D01*
X136156666Y-96964761D02*
X135299523Y-98250476D01*
X136918571Y-97345714D02*
X136918571Y-98155238D01*
X136870952Y-98250476D01*
X136823333Y-98298095D01*
X136728095Y-98345714D01*
X136585238Y-98345714D01*
X136490000Y-98298095D01*
X136918571Y-97964761D02*
X136823333Y-98012380D01*
X136632857Y-98012380D01*
X136537619Y-97964761D01*
X136490000Y-97917142D01*
X136442380Y-97821904D01*
X136442380Y-97536190D01*
X136490000Y-97440952D01*
X136537619Y-97393333D01*
X136632857Y-97345714D01*
X136823333Y-97345714D01*
X136918571Y-97393333D01*
X137394761Y-98012380D02*
X137394761Y-97345714D01*
X137394761Y-97012380D02*
X137347142Y-97060000D01*
X137394761Y-97107619D01*
X137442380Y-97060000D01*
X137394761Y-97012380D01*
X137394761Y-97107619D01*
X138299523Y-98012380D02*
X138299523Y-97488571D01*
X138251904Y-97393333D01*
X138156666Y-97345714D01*
X137966190Y-97345714D01*
X137870952Y-97393333D01*
X138299523Y-97964761D02*
X138204285Y-98012380D01*
X137966190Y-98012380D01*
X137870952Y-97964761D01*
X137823333Y-97869523D01*
X137823333Y-97774285D01*
X137870952Y-97679047D01*
X137966190Y-97631428D01*
X138204285Y-97631428D01*
X138299523Y-97583809D01*
X138775714Y-97345714D02*
X138775714Y-98012380D01*
X138775714Y-97440952D02*
X138823333Y-97393333D01*
X138918571Y-97345714D01*
X139061428Y-97345714D01*
X139156666Y-97393333D01*
X139204285Y-97488571D01*
X139204285Y-98012380D01*
X139823333Y-98012380D02*
X139728095Y-97964761D01*
X139680476Y-97869523D01*
X139680476Y-97012380D01*
X140632857Y-97345714D02*
X140632857Y-98012380D01*
X140204285Y-97345714D02*
X140204285Y-97869523D01*
X140251904Y-97964761D01*
X140347142Y-98012380D01*
X140490000Y-98012380D01*
X140585238Y-97964761D01*
X140632857Y-97917142D01*
X141537619Y-97964761D02*
X141442380Y-98012380D01*
X141251904Y-98012380D01*
X141156666Y-97964761D01*
X141109047Y-97917142D01*
X141061428Y-97821904D01*
X141061428Y-97536190D01*
X141109047Y-97440952D01*
X141156666Y-97393333D01*
X141251904Y-97345714D01*
X141442380Y-97345714D01*
X141537619Y-97393333D01*
X142394761Y-98012380D02*
X142394761Y-97488571D01*
X142347142Y-97393333D01*
X142251904Y-97345714D01*
X142061428Y-97345714D01*
X141966190Y-97393333D01*
X142394761Y-97964761D02*
X142299523Y-98012380D01*
X142061428Y-98012380D01*
X141966190Y-97964761D01*
X141918571Y-97869523D01*
X141918571Y-97774285D01*
X141966190Y-97679047D01*
X142061428Y-97631428D01*
X142299523Y-97631428D01*
X142394761Y-97583809D01*
X142870952Y-98012380D02*
X142870952Y-97345714D01*
X142870952Y-97536190D02*
X142918571Y-97440952D01*
X142966190Y-97393333D01*
X143061428Y-97345714D01*
X143156666Y-97345714D01*
X143870952Y-97964761D02*
X143775714Y-98012380D01*
X143585238Y-98012380D01*
X143490000Y-97964761D01*
X143442380Y-97869523D01*
X143442380Y-97488571D01*
X143490000Y-97393333D01*
X143585238Y-97345714D01*
X143775714Y-97345714D01*
X143870952Y-97393333D01*
X143918571Y-97488571D01*
X143918571Y-97583809D01*
X143442380Y-97679047D01*
X144347142Y-97345714D02*
X144347142Y-98012380D01*
X144347142Y-97440952D02*
X144394761Y-97393333D01*
X144490000Y-97345714D01*
X144632857Y-97345714D01*
X144728095Y-97393333D01*
X144775714Y-97488571D01*
X144775714Y-98012380D01*
X145156666Y-97345714D02*
X145680476Y-97345714D01*
X145156666Y-98012380D01*
X145680476Y-98012380D01*
X146061428Y-98012380D02*
X146061428Y-97345714D01*
X146061428Y-97012380D02*
X146013809Y-97060000D01*
X146061428Y-97107619D01*
X146109047Y-97060000D01*
X146061428Y-97012380D01*
X146061428Y-97107619D01*
X147251904Y-96964761D02*
X146394761Y-98250476D01*
X147537619Y-97964761D02*
X147680476Y-98012380D01*
X147918571Y-98012380D01*
X148013809Y-97964761D01*
X148061428Y-97917142D01*
X148109047Y-97821904D01*
X148109047Y-97726666D01*
X148061428Y-97631428D01*
X148013809Y-97583809D01*
X147918571Y-97536190D01*
X147728095Y-97488571D01*
X147632857Y-97440952D01*
X147585238Y-97393333D01*
X147537619Y-97298095D01*
X147537619Y-97202857D01*
X147585238Y-97107619D01*
X147632857Y-97060000D01*
X147728095Y-97012380D01*
X147966190Y-97012380D01*
X148109047Y-97060000D01*
X148394761Y-97012380D02*
X148966190Y-97012380D01*
X148680476Y-98012380D02*
X148680476Y-97012380D01*
X149299523Y-98012380D02*
X149299523Y-97012380D01*
X149632857Y-97726666D01*
X149966190Y-97012380D01*
X149966190Y-98012380D01*
X150347142Y-97012380D02*
X150966190Y-97012380D01*
X150632857Y-97393333D01*
X150775714Y-97393333D01*
X150870952Y-97440952D01*
X150918571Y-97488571D01*
X150966190Y-97583809D01*
X150966190Y-97821904D01*
X150918571Y-97917142D01*
X150870952Y-97964761D01*
X150775714Y-98012380D01*
X150490000Y-98012380D01*
X150394761Y-97964761D01*
X150347142Y-97917142D01*
X151347142Y-97107619D02*
X151394761Y-97060000D01*
X151490000Y-97012380D01*
X151728095Y-97012380D01*
X151823333Y-97060000D01*
X151870952Y-97107619D01*
X151918571Y-97202857D01*
X151918571Y-97298095D01*
X151870952Y-97440952D01*
X151299523Y-98012380D01*
X151918571Y-98012380D01*
X152680476Y-97488571D02*
X152347142Y-97488571D01*
X152347142Y-98012380D02*
X152347142Y-97012380D01*
X152823333Y-97012380D01*
X153632857Y-97345714D02*
X153632857Y-98012380D01*
X153394761Y-96964761D02*
X153156666Y-97679047D01*
X153775714Y-97679047D01*
X154061428Y-97012380D02*
X154728095Y-98012380D01*
X154728095Y-97012380D02*
X154061428Y-98012380D01*
X155013809Y-97012380D02*
X155680476Y-98012380D01*
X155680476Y-97012380D02*
X155013809Y-98012380D01*
X156775714Y-96964761D02*
X155918571Y-98250476D01*
X157061428Y-97964761D02*
X157204285Y-98012380D01*
X157442380Y-98012380D01*
X157537619Y-97964761D01*
X157585238Y-97917142D01*
X157632857Y-97821904D01*
X157632857Y-97726666D01*
X157585238Y-97631428D01*
X157537619Y-97583809D01*
X157442380Y-97536190D01*
X157251904Y-97488571D01*
X157156666Y-97440952D01*
X157109047Y-97393333D01*
X157061428Y-97298095D01*
X157061428Y-97202857D01*
X157109047Y-97107619D01*
X157156666Y-97060000D01*
X157251904Y-97012380D01*
X157490000Y-97012380D01*
X157632857Y-97060000D01*
X157918571Y-97012380D02*
X158490000Y-97012380D01*
X158204285Y-98012380D02*
X158204285Y-97012380D01*
X158823333Y-98012380D02*
X158823333Y-97012380D01*
X159156666Y-97726666D01*
X159490000Y-97012380D01*
X159490000Y-98012380D01*
X159870952Y-97012380D02*
X160490000Y-97012380D01*
X160156666Y-97393333D01*
X160299523Y-97393333D01*
X160394761Y-97440952D01*
X160442380Y-97488571D01*
X160490000Y-97583809D01*
X160490000Y-97821904D01*
X160442380Y-97917142D01*
X160394761Y-97964761D01*
X160299523Y-98012380D01*
X160013809Y-98012380D01*
X159918571Y-97964761D01*
X159870952Y-97917142D01*
X160870952Y-97107619D02*
X160918571Y-97060000D01*
X161013809Y-97012380D01*
X161251904Y-97012380D01*
X161347142Y-97060000D01*
X161394761Y-97107619D01*
X161442380Y-97202857D01*
X161442380Y-97298095D01*
X161394761Y-97440952D01*
X160823333Y-98012380D01*
X161442380Y-98012380D01*
X162204285Y-97488571D02*
X161870952Y-97488571D01*
X161870952Y-98012380D02*
X161870952Y-97012380D01*
X162347142Y-97012380D01*
X163156666Y-97345714D02*
X163156666Y-98012380D01*
X162918571Y-96964761D02*
X162680476Y-97679047D01*
X163299523Y-97679047D01*
X163870952Y-97012380D02*
X163966190Y-97012380D01*
X164061428Y-97060000D01*
X164109047Y-97107619D01*
X164156666Y-97202857D01*
X164204285Y-97393333D01*
X164204285Y-97631428D01*
X164156666Y-97821904D01*
X164109047Y-97917142D01*
X164061428Y-97964761D01*
X163966190Y-98012380D01*
X163870952Y-98012380D01*
X163775714Y-97964761D01*
X163728095Y-97917142D01*
X163680476Y-97821904D01*
X163632857Y-97631428D01*
X163632857Y-97393333D01*
X163680476Y-97202857D01*
X163728095Y-97107619D01*
X163775714Y-97060000D01*
X163870952Y-97012380D01*
X165156666Y-98012380D02*
X164585238Y-98012380D01*
X164870952Y-98012380D02*
X164870952Y-97012380D01*
X164775714Y-97155238D01*
X164680476Y-97250476D01*
X164585238Y-97298095D01*
D12*
X114245714Y-67132142D02*
X114451071Y-67203571D01*
X114808214Y-67203571D01*
X114960000Y-67132142D01*
X115040357Y-67060714D01*
X115129642Y-66917857D01*
X115147500Y-66775000D01*
X115093928Y-66632142D01*
X115031428Y-66560714D01*
X114897500Y-66489285D01*
X114620714Y-66417857D01*
X114486785Y-66346428D01*
X114424285Y-66275000D01*
X114370714Y-66132142D01*
X114388571Y-65989285D01*
X114477857Y-65846428D01*
X114558214Y-65775000D01*
X114710000Y-65703571D01*
X115067142Y-65703571D01*
X115272500Y-65775000D01*
X115710000Y-65703571D02*
X116567142Y-65703571D01*
X115951071Y-67203571D02*
X116138571Y-65703571D01*
X116879642Y-67203571D02*
X117067142Y-65703571D01*
X117433214Y-66775000D01*
X118067142Y-65703571D01*
X117879642Y-67203571D01*
X118638571Y-65703571D02*
X119567142Y-65703571D01*
X118995714Y-66275000D01*
X119210000Y-66275000D01*
X119343928Y-66346428D01*
X119406428Y-66417857D01*
X119460000Y-66560714D01*
X119415357Y-66917857D01*
X119326071Y-67060714D01*
X119245714Y-67132142D01*
X119093928Y-67203571D01*
X118665357Y-67203571D01*
X118531428Y-67132142D01*
X118468928Y-67060714D01*
X120120714Y-65846428D02*
X120201071Y-65775000D01*
X120352857Y-65703571D01*
X120710000Y-65703571D01*
X120843928Y-65775000D01*
X120906428Y-65846428D01*
X120960000Y-65989285D01*
X120942142Y-66132142D01*
X120843928Y-66346428D01*
X119879642Y-67203571D01*
X120808214Y-67203571D01*
X122049285Y-66417857D02*
X121549285Y-66417857D01*
X121451071Y-67203571D02*
X121638571Y-65703571D01*
X122352857Y-65703571D01*
X123504642Y-66203571D02*
X123379642Y-67203571D01*
X123218928Y-65632142D02*
X122727857Y-66703571D01*
X123656428Y-66703571D01*
X124638571Y-65703571D02*
X124781428Y-65703571D01*
X124915357Y-65775000D01*
X124977857Y-65846428D01*
X125031428Y-65989285D01*
X125067142Y-66275000D01*
X125022500Y-66632142D01*
X124915357Y-66917857D01*
X124826071Y-67060714D01*
X124745714Y-67132142D01*
X124593928Y-67203571D01*
X124451071Y-67203571D01*
X124317142Y-67132142D01*
X124254642Y-67060714D01*
X124201071Y-66917857D01*
X124165357Y-66632142D01*
X124210000Y-66275000D01*
X124317142Y-65989285D01*
X124406428Y-65846428D01*
X124486785Y-65775000D01*
X124638571Y-65703571D01*
X126379642Y-67203571D02*
X125522500Y-67203571D01*
X125951071Y-67203571D02*
X126138571Y-65703571D01*
X125968928Y-65917857D01*
X125808214Y-66060714D01*
X125656428Y-66132142D01*
X127093928Y-66632142D02*
X128236785Y-66632142D01*
X129736785Y-67203571D02*
X129326071Y-66489285D01*
X128879642Y-67203571D02*
X129067142Y-65703571D01*
X129638571Y-65703571D01*
X129772500Y-65775000D01*
X129835000Y-65846428D01*
X129888571Y-65989285D01*
X129861785Y-66203571D01*
X129772500Y-66346428D01*
X129692142Y-66417857D01*
X129540357Y-66489285D01*
X128968928Y-66489285D01*
X130977857Y-66417857D02*
X131183214Y-66489285D01*
X131245714Y-66560714D01*
X131299285Y-66703571D01*
X131272500Y-66917857D01*
X131183214Y-67060714D01*
X131102857Y-67132142D01*
X130951071Y-67203571D01*
X130379642Y-67203571D01*
X130567142Y-65703571D01*
X131067142Y-65703571D01*
X131201071Y-65775000D01*
X131263571Y-65846428D01*
X131317142Y-65989285D01*
X131299285Y-66132142D01*
X131210000Y-66275000D01*
X131129642Y-66346428D01*
X130977857Y-66417857D01*
X130477857Y-66417857D01*
X132593928Y-67203571D02*
X131879642Y-67203571D01*
X132067142Y-65703571D01*
X113942142Y-68967857D02*
X114442142Y-68967857D01*
X114558214Y-69753571D02*
X113843928Y-69753571D01*
X114031428Y-68253571D01*
X114745714Y-68253571D01*
X115183214Y-68753571D02*
X115415357Y-69753571D01*
X115897500Y-68753571D01*
X116986785Y-69753571D02*
X117085000Y-68967857D01*
X117031428Y-68825000D01*
X116897500Y-68753571D01*
X116611785Y-68753571D01*
X116460000Y-68825000D01*
X116995714Y-69682142D02*
X116843928Y-69753571D01*
X116486785Y-69753571D01*
X116352857Y-69682142D01*
X116299285Y-69539285D01*
X116317142Y-69396428D01*
X116406428Y-69253571D01*
X116558214Y-69182142D01*
X116915357Y-69182142D01*
X117067142Y-69110714D01*
X117915357Y-69753571D02*
X117781428Y-69682142D01*
X117727857Y-69539285D01*
X117888571Y-68253571D01*
X119254642Y-68753571D02*
X119129642Y-69753571D01*
X118611785Y-68753571D02*
X118513571Y-69539285D01*
X118567142Y-69682142D01*
X118701071Y-69753571D01*
X118915357Y-69753571D01*
X119067142Y-69682142D01*
X119147500Y-69610714D01*
X120486785Y-69753571D02*
X120585000Y-68967857D01*
X120531428Y-68825000D01*
X120397500Y-68753571D01*
X120111785Y-68753571D01*
X119960000Y-68825000D01*
X120495714Y-69682142D02*
X120343928Y-69753571D01*
X119986785Y-69753571D01*
X119852857Y-69682142D01*
X119799285Y-69539285D01*
X119817142Y-69396428D01*
X119906428Y-69253571D01*
X120058214Y-69182142D01*
X120415357Y-69182142D01*
X120567142Y-69110714D01*
X121111785Y-68753571D02*
X121683214Y-68753571D01*
X121388571Y-68253571D02*
X121227857Y-69539285D01*
X121281428Y-69682142D01*
X121415357Y-69753571D01*
X121558214Y-69753571D01*
X122058214Y-69753571D02*
X122183214Y-68753571D01*
X122245714Y-68253571D02*
X122165357Y-68325000D01*
X122227857Y-68396428D01*
X122308214Y-68325000D01*
X122245714Y-68253571D01*
X122227857Y-68396428D01*
X122986785Y-69753571D02*
X122852857Y-69682142D01*
X122790357Y-69610714D01*
X122736785Y-69467857D01*
X122790357Y-69039285D01*
X122879642Y-68896428D01*
X122960000Y-68825000D01*
X123111785Y-68753571D01*
X123326071Y-68753571D01*
X123460000Y-68825000D01*
X123522500Y-68896428D01*
X123576071Y-69039285D01*
X123522500Y-69467857D01*
X123433214Y-69610714D01*
X123352857Y-69682142D01*
X123201071Y-69753571D01*
X122986785Y-69753571D01*
X124254642Y-68753571D02*
X124129642Y-69753571D01*
X124236785Y-68896428D02*
X124317142Y-68825000D01*
X124468928Y-68753571D01*
X124683214Y-68753571D01*
X124817142Y-68825000D01*
X124870714Y-68967857D01*
X124772500Y-69753571D01*
X126629642Y-69753571D02*
X126817142Y-68253571D01*
X127486785Y-69753571D02*
X126951071Y-68896428D01*
X127674285Y-68253571D02*
X126710000Y-69110714D01*
X128129642Y-69753571D02*
X128254642Y-68753571D01*
X128317142Y-68253571D02*
X128236785Y-68325000D01*
X128299285Y-68396428D01*
X128379642Y-68325000D01*
X128317142Y-68253571D01*
X128299285Y-68396428D01*
X128754642Y-68753571D02*
X129326071Y-68753571D01*
X129031428Y-68253571D02*
X128870714Y-69539285D01*
X128924285Y-69682142D01*
X129058214Y-69753571D01*
X129201071Y-69753571D01*
X130817142Y-68253571D02*
X131129642Y-69753571D01*
X131817142Y-68253571D01*
X132227857Y-68396428D02*
X132308214Y-68325000D01*
X132460000Y-68253571D01*
X132817142Y-68253571D01*
X132951071Y-68325000D01*
X133013571Y-68396428D01*
X133067142Y-68539285D01*
X133049285Y-68682142D01*
X132951071Y-68896428D01*
X131986785Y-69753571D01*
X132915357Y-69753571D01*
D13*
%TO.C,J3*%
X167500000Y-74600000D02*
G75*
G03*
X167500000Y-74600000I-100000J0D01*
G01*
D14*
X170705000Y-75970000D02*
X171470000Y-75970000D01*
X174950000Y-75970000D02*
X174530000Y-75970000D01*
X174950000Y-67030000D02*
X174950000Y-75970000D01*
X174530000Y-67030000D02*
X174950000Y-67030000D01*
X170705000Y-67030000D02*
X171470000Y-67030000D01*
D15*
%TO.C,J1*%
X169350000Y-80520000D02*
X170680000Y-80520000D01*
X169350000Y-81850000D02*
X169350000Y-80520000D01*
X169350000Y-83120000D02*
X172010000Y-83120000D01*
X172010000Y-83120000D02*
X172010000Y-88260000D01*
X169350000Y-83120000D02*
X169350000Y-88260000D01*
X169350000Y-88260000D02*
X172010000Y-88260000D01*
D16*
%TO.C,LOGO1*%
G36*
X131719909Y-88309560D02*
G01*
X131772412Y-88335499D01*
X131837158Y-88380700D01*
X131884347Y-88429991D01*
X131916665Y-88491885D01*
X131936797Y-88574896D01*
X131947430Y-88687538D01*
X131951247Y-88838324D01*
X131951470Y-88903149D01*
X131950818Y-89045221D01*
X131948112Y-89146757D01*
X131942224Y-89217015D01*
X131932027Y-89265256D01*
X131916394Y-89300738D01*
X131900128Y-89324943D01*
X131796295Y-89427929D01*
X131674021Y-89489874D01*
X131542114Y-89508506D01*
X131409384Y-89481549D01*
X131367333Y-89462486D01*
X131266666Y-89410015D01*
X131266666Y-90232259D01*
X131340135Y-90194267D01*
X131436941Y-90164872D01*
X131555928Y-90157342D01*
X131674745Y-90171245D01*
X131764473Y-90202476D01*
X131838899Y-90261954D01*
X131902490Y-90347066D01*
X131907271Y-90355805D01*
X131927437Y-90396966D01*
X131942165Y-90438454D01*
X131952303Y-90488713D01*
X131958699Y-90556184D01*
X131962201Y-90649309D01*
X131963658Y-90776531D01*
X131963921Y-90919701D01*
X131963921Y-91376471D01*
X131690000Y-91376471D01*
X131690000Y-90534231D01*
X131613383Y-90469763D01*
X131533793Y-90418194D01*
X131458422Y-90408818D01*
X131382633Y-90432947D01*
X131342241Y-90456574D01*
X131312179Y-90490227D01*
X131290797Y-90541087D01*
X131276450Y-90616334D01*
X131267490Y-90723146D01*
X131262270Y-90868704D01*
X131260431Y-90965588D01*
X131254215Y-91364020D01*
X131123480Y-91371547D01*
X130992745Y-91379073D01*
X130992745Y-88906582D01*
X131266666Y-88906582D01*
X131273650Y-89044423D01*
X131297182Y-89140107D01*
X131341135Y-89199641D01*
X131409382Y-89229029D01*
X131478333Y-89234902D01*
X131556386Y-89228154D01*
X131608189Y-89201594D01*
X131640583Y-89166499D01*
X131666084Y-89128752D01*
X131681265Y-89086700D01*
X131688019Y-89027779D01*
X131688241Y-88939428D01*
X131685968Y-88865448D01*
X131680749Y-88754000D01*
X131672979Y-88680833D01*
X131659895Y-88634422D01*
X131638732Y-88603244D01*
X131618760Y-88585223D01*
X131535314Y-88545925D01*
X131436551Y-88539579D01*
X131379841Y-88553116D01*
X131323692Y-88601233D01*
X131286499Y-88694833D01*
X131268472Y-88833254D01*
X131266666Y-88906582D01*
X130992745Y-88906582D01*
X130992745Y-88288628D01*
X131129705Y-88288628D01*
X131211935Y-88291879D01*
X131254360Y-88303426D01*
X131266661Y-88325952D01*
X131266666Y-88326620D01*
X131272374Y-88348681D01*
X131297547Y-88346176D01*
X131347598Y-88321935D01*
X131464219Y-88284851D01*
X131595429Y-88280953D01*
X131719909Y-88309560D01*
G37*
X131719909Y-88309560D02*
X131772412Y-88335499D01*
X131837158Y-88380700D01*
X131884347Y-88429991D01*
X131916665Y-88491885D01*
X131936797Y-88574896D01*
X131947430Y-88687538D01*
X131951247Y-88838324D01*
X131951470Y-88903149D01*
X131950818Y-89045221D01*
X131948112Y-89146757D01*
X131942224Y-89217015D01*
X131932027Y-89265256D01*
X131916394Y-89300738D01*
X131900128Y-89324943D01*
X131796295Y-89427929D01*
X131674021Y-89489874D01*
X131542114Y-89508506D01*
X131409384Y-89481549D01*
X131367333Y-89462486D01*
X131266666Y-89410015D01*
X131266666Y-90232259D01*
X131340135Y-90194267D01*
X131436941Y-90164872D01*
X131555928Y-90157342D01*
X131674745Y-90171245D01*
X131764473Y-90202476D01*
X131838899Y-90261954D01*
X131902490Y-90347066D01*
X131907271Y-90355805D01*
X131927437Y-90396966D01*
X131942165Y-90438454D01*
X131952303Y-90488713D01*
X131958699Y-90556184D01*
X131962201Y-90649309D01*
X131963658Y-90776531D01*
X131963921Y-90919701D01*
X131963921Y-91376471D01*
X131690000Y-91376471D01*
X131690000Y-90534231D01*
X131613383Y-90469763D01*
X131533793Y-90418194D01*
X131458422Y-90408818D01*
X131382633Y-90432947D01*
X131342241Y-90456574D01*
X131312179Y-90490227D01*
X131290797Y-90541087D01*
X131276450Y-90616334D01*
X131267490Y-90723146D01*
X131262270Y-90868704D01*
X131260431Y-90965588D01*
X131254215Y-91364020D01*
X131123480Y-91371547D01*
X130992745Y-91379073D01*
X130992745Y-88906582D01*
X131266666Y-88906582D01*
X131273650Y-89044423D01*
X131297182Y-89140107D01*
X131341135Y-89199641D01*
X131409382Y-89229029D01*
X131478333Y-89234902D01*
X131556386Y-89228154D01*
X131608189Y-89201594D01*
X131640583Y-89166499D01*
X131666084Y-89128752D01*
X131681265Y-89086700D01*
X131688019Y-89027779D01*
X131688241Y-88939428D01*
X131685968Y-88865448D01*
X131680749Y-88754000D01*
X131672979Y-88680833D01*
X131659895Y-88634422D01*
X131638732Y-88603244D01*
X131618760Y-88585223D01*
X131535314Y-88545925D01*
X131436551Y-88539579D01*
X131379841Y-88553116D01*
X131323692Y-88601233D01*
X131286499Y-88694833D01*
X131268472Y-88833254D01*
X131266666Y-88906582D01*
X130992745Y-88906582D01*
X130992745Y-88288628D01*
X131129705Y-88288628D01*
X131211935Y-88291879D01*
X131254360Y-88303426D01*
X131266661Y-88325952D01*
X131266666Y-88326620D01*
X131272374Y-88348681D01*
X131297547Y-88346176D01*
X131347598Y-88321935D01*
X131464219Y-88284851D01*
X131595429Y-88280953D01*
X131719909Y-88309560D01*
G36*
X132758720Y-90165922D02*
G01*
X132875870Y-90197180D01*
X132965051Y-90253837D01*
X133027984Y-90328045D01*
X133047548Y-90359716D01*
X133061992Y-90392891D01*
X133072089Y-90435329D01*
X133078615Y-90494788D01*
X133082342Y-90579029D01*
X133084046Y-90695810D01*
X133084500Y-90852890D01*
X133084509Y-90894565D01*
X133084509Y-91376471D01*
X132964980Y-91376471D01*
X132888739Y-91371131D01*
X132832366Y-91357604D01*
X132818242Y-91349262D01*
X132779630Y-91334864D01*
X132740192Y-91349262D01*
X132675262Y-91367237D01*
X132580945Y-91374472D01*
X132476407Y-91371333D01*
X132380811Y-91358186D01*
X132325000Y-91341318D01*
X132216998Y-91271986D01*
X132149503Y-91175772D01*
X132119159Y-91047844D01*
X132118877Y-91044559D01*
X132121540Y-90987808D01*
X132362353Y-90987808D01*
X132383405Y-91052358D01*
X132417697Y-91088686D01*
X132486532Y-91116162D01*
X132577390Y-91127129D01*
X132670042Y-91121731D01*
X132744256Y-91100110D01*
X132765049Y-91086239D01*
X132801381Y-91022143D01*
X132810588Y-90949278D01*
X132810588Y-90853530D01*
X132672827Y-90853530D01*
X132541953Y-90863605D01*
X132442741Y-90892148D01*
X132381023Y-90936639D01*
X132362353Y-90987808D01*
X132121540Y-90987808D01*
X132125436Y-90904790D01*
X132171534Y-90794282D01*
X132258200Y-90710712D01*
X132270179Y-90703110D01*
X132321655Y-90678357D01*
X132385368Y-90663368D01*
X132474435Y-90656082D01*
X132580245Y-90654407D01*
X132810588Y-90654314D01*
X132810588Y-90557755D01*
X132800817Y-90482836D01*
X132775884Y-90432644D01*
X132772965Y-90429972D01*
X132717481Y-90408015D01*
X132633727Y-90399505D01*
X132541167Y-90403687D01*
X132459270Y-90419809D01*
X132410673Y-90443990D01*
X132384341Y-90463359D01*
X132356535Y-90467057D01*
X132318161Y-90451188D01*
X132260125Y-90411855D01*
X132173331Y-90345164D01*
X132165365Y-90338916D01*
X132169447Y-90315800D01*
X132203501Y-90277352D01*
X132255260Y-90234627D01*
X132312455Y-90198679D01*
X132330425Y-90190191D01*
X132395972Y-90173252D01*
X132492020Y-90161170D01*
X132599329Y-90156323D01*
X132604347Y-90156313D01*
X132758720Y-90165922D01*
G37*
X132758720Y-90165922D02*
X132875870Y-90197180D01*
X132965051Y-90253837D01*
X133027984Y-90328045D01*
X133047548Y-90359716D01*
X133061992Y-90392891D01*
X133072089Y-90435329D01*
X133078615Y-90494788D01*
X133082342Y-90579029D01*
X133084046Y-90695810D01*
X133084500Y-90852890D01*
X133084509Y-90894565D01*
X133084509Y-91376471D01*
X132964980Y-91376471D01*
X132888739Y-91371131D01*
X132832366Y-91357604D01*
X132818242Y-91349262D01*
X132779630Y-91334864D01*
X132740192Y-91349262D01*
X132675262Y-91367237D01*
X132580945Y-91374472D01*
X132476407Y-91371333D01*
X132380811Y-91358186D01*
X132325000Y-91341318D01*
X132216998Y-91271986D01*
X132149503Y-91175772D01*
X132119159Y-91047844D01*
X132118877Y-91044559D01*
X132121540Y-90987808D01*
X132362353Y-90987808D01*
X132383405Y-91052358D01*
X132417697Y-91088686D01*
X132486532Y-91116162D01*
X132577390Y-91127129D01*
X132670042Y-91121731D01*
X132744256Y-91100110D01*
X132765049Y-91086239D01*
X132801381Y-91022143D01*
X132810588Y-90949278D01*
X132810588Y-90853530D01*
X132672827Y-90853530D01*
X132541953Y-90863605D01*
X132442741Y-90892148D01*
X132381023Y-90936639D01*
X132362353Y-90987808D01*
X132121540Y-90987808D01*
X132125436Y-90904790D01*
X132171534Y-90794282D01*
X132258200Y-90710712D01*
X132270179Y-90703110D01*
X132321655Y-90678357D01*
X132385368Y-90663368D01*
X132474435Y-90656082D01*
X132580245Y-90654407D01*
X132810588Y-90654314D01*
X132810588Y-90557755D01*
X132800817Y-90482836D01*
X132775884Y-90432644D01*
X132772965Y-90429972D01*
X132717481Y-90408015D01*
X132633727Y-90399505D01*
X132541167Y-90403687D01*
X132459270Y-90419809D01*
X132410673Y-90443990D01*
X132384341Y-90463359D01*
X132356535Y-90467057D01*
X132318161Y-90451188D01*
X132260125Y-90411855D01*
X132173331Y-90345164D01*
X132165365Y-90338916D01*
X132169447Y-90315800D01*
X132203501Y-90277352D01*
X132255260Y-90234627D01*
X132312455Y-90198679D01*
X132330425Y-90190191D01*
X132395972Y-90173252D01*
X132492020Y-90161170D01*
X132599329Y-90156323D01*
X132604347Y-90156313D01*
X132758720Y-90165922D01*
G36*
X133532764Y-90158921D02*
G01*
X133570030Y-90170091D01*
X133582043Y-90194633D01*
X133582549Y-90205712D01*
X133584704Y-90236572D01*
X133599551Y-90241417D01*
X133639657Y-90220260D01*
X133663480Y-90205806D01*
X133738638Y-90174850D01*
X133828406Y-90159544D01*
X133922529Y-90158367D01*
X134010754Y-90169799D01*
X134082826Y-90192320D01*
X134128492Y-90224409D01*
X134137498Y-90264545D01*
X134132953Y-90275415D01*
X134099821Y-90320534D01*
X134048445Y-90376026D01*
X134039152Y-90384996D01*
X133990182Y-90426245D01*
X133947931Y-90439572D01*
X133888841Y-90430271D01*
X133865169Y-90424090D01*
X133791504Y-90409246D01*
X133739710Y-90415921D01*
X133695969Y-90439465D01*
X133655902Y-90471061D01*
X133626392Y-90510798D01*
X133605884Y-90566252D01*
X133592824Y-90645003D01*
X133585656Y-90754629D01*
X133582824Y-90902706D01*
X133582549Y-90992111D01*
X133582549Y-91376471D01*
X133333529Y-91376471D01*
X133333529Y-90156275D01*
X133458039Y-90156275D01*
X133532764Y-90158921D01*
G37*
X133532764Y-90158921D02*
X133570030Y-90170091D01*
X133582043Y-90194633D01*
X133582549Y-90205712D01*
X133584704Y-90236572D01*
X133599551Y-90241417D01*
X133639657Y-90220260D01*
X133663480Y-90205806D01*
X133738638Y-90174850D01*
X133828406Y-90159544D01*
X133922529Y-90158367D01*
X134010754Y-90169799D01*
X134082826Y-90192320D01*
X134128492Y-90224409D01*
X134137498Y-90264545D01*
X134132953Y-90275415D01*
X134099821Y-90320534D01*
X134048445Y-90376026D01*
X134039152Y-90384996D01*
X133990182Y-90426245D01*
X133947931Y-90439572D01*
X133888841Y-90430271D01*
X133865169Y-90424090D01*
X133791504Y-90409246D01*
X133739710Y-90415921D01*
X133695969Y-90439465D01*
X133655902Y-90471061D01*
X133626392Y-90510798D01*
X133605884Y-90566252D01*
X133592824Y-90645003D01*
X133585656Y-90754629D01*
X133582824Y-90902706D01*
X133582549Y-90992111D01*
X133582549Y-91376471D01*
X133333529Y-91376471D01*
X133333529Y-90156275D01*
X133458039Y-90156275D01*
X133532764Y-90158921D01*
G36*
X135101568Y-91376471D02*
G01*
X134964607Y-91376471D01*
X134885111Y-91374140D01*
X134843708Y-91364488D01*
X134828801Y-91343525D01*
X134827647Y-91329351D01*
X134825133Y-91300927D01*
X134809280Y-91295475D01*
X134767621Y-91312998D01*
X134735224Y-91329351D01*
X134610849Y-91368103D01*
X134475646Y-91370346D01*
X134365726Y-91341444D01*
X134263366Y-91271619D01*
X134185340Y-91168555D01*
X134142614Y-91046989D01*
X134141526Y-91040192D01*
X134135178Y-90966032D01*
X134132021Y-90859570D01*
X134132275Y-90779052D01*
X134404289Y-90779052D01*
X134410590Y-90886070D01*
X134424925Y-90974278D01*
X134444331Y-91024090D01*
X134517746Y-91092162D01*
X134604914Y-91116564D01*
X134694804Y-91096831D01*
X134771617Y-91037968D01*
X134800708Y-90998379D01*
X134817717Y-90951138D01*
X134825684Y-90882181D01*
X134827647Y-90778607D01*
X134824134Y-90676039D01*
X134814857Y-90585921D01*
X134801706Y-90525613D01*
X134799514Y-90520208D01*
X134746478Y-90455940D01*
X134669067Y-90420656D01*
X134582454Y-90414959D01*
X134501807Y-90439453D01*
X134442297Y-90494742D01*
X134436124Y-90505743D01*
X134416801Y-90572827D01*
X134406274Y-90669284D01*
X134404289Y-90779052D01*
X134132275Y-90779052D01*
X134132404Y-90738225D01*
X134134194Y-90672918D01*
X134146373Y-90511355D01*
X134171685Y-90390053D01*
X134213793Y-90300379D01*
X134276359Y-90233699D01*
X134337100Y-90194557D01*
X134421964Y-90167040D01*
X134527515Y-90157603D01*
X134635598Y-90165290D01*
X134728058Y-90189146D01*
X134776910Y-90217685D01*
X134827647Y-90263601D01*
X134827647Y-89683137D01*
X135101568Y-89683137D01*
X135101568Y-91376471D01*
G37*
X135101568Y-91376471D02*
X134964607Y-91376471D01*
X134885111Y-91374140D01*
X134843708Y-91364488D01*
X134828801Y-91343525D01*
X134827647Y-91329351D01*
X134825133Y-91300927D01*
X134809280Y-91295475D01*
X134767621Y-91312998D01*
X134735224Y-91329351D01*
X134610849Y-91368103D01*
X134475646Y-91370346D01*
X134365726Y-91341444D01*
X134263366Y-91271619D01*
X134185340Y-91168555D01*
X134142614Y-91046989D01*
X134141526Y-91040192D01*
X134135178Y-90966032D01*
X134132021Y-90859570D01*
X134132275Y-90779052D01*
X134404289Y-90779052D01*
X134410590Y-90886070D01*
X134424925Y-90974278D01*
X134444331Y-91024090D01*
X134517746Y-91092162D01*
X134604914Y-91116564D01*
X134694804Y-91096831D01*
X134771617Y-91037968D01*
X134800708Y-90998379D01*
X134817717Y-90951138D01*
X134825684Y-90882181D01*
X134827647Y-90778607D01*
X134824134Y-90676039D01*
X134814857Y-90585921D01*
X134801706Y-90525613D01*
X134799514Y-90520208D01*
X134746478Y-90455940D01*
X134669067Y-90420656D01*
X134582454Y-90414959D01*
X134501807Y-90439453D01*
X134442297Y-90494742D01*
X134436124Y-90505743D01*
X134416801Y-90572827D01*
X134406274Y-90669284D01*
X134404289Y-90779052D01*
X134132275Y-90779052D01*
X134132404Y-90738225D01*
X134134194Y-90672918D01*
X134146373Y-90511355D01*
X134171685Y-90390053D01*
X134213793Y-90300379D01*
X134276359Y-90233699D01*
X134337100Y-90194557D01*
X134421964Y-90167040D01*
X134527515Y-90157603D01*
X134635598Y-90165290D01*
X134728058Y-90189146D01*
X134776910Y-90217685D01*
X134827647Y-90263601D01*
X134827647Y-89683137D01*
X135101568Y-89683137D01*
X135101568Y-91376471D01*
G36*
X136057528Y-90161332D02*
G01*
X136156014Y-90168726D01*
X136284776Y-90554706D01*
X136413537Y-90940686D01*
X136453911Y-90803726D01*
X136478207Y-90719083D01*
X136510167Y-90604697D01*
X136544679Y-90478963D01*
X136562928Y-90411520D01*
X136631571Y-90156275D01*
X136914773Y-90156275D01*
X136830122Y-90423971D01*
X136788435Y-90555638D01*
X136738074Y-90714458D01*
X136685481Y-90880128D01*
X136638530Y-91027843D01*
X136531589Y-91364020D01*
X136300661Y-91379044D01*
X136238050Y-91172316D01*
X136199438Y-91043896D01*
X136157300Y-90902322D01*
X136120472Y-90777285D01*
X136119018Y-90772309D01*
X136091511Y-90687586D01*
X136067242Y-90629778D01*
X136050243Y-90607918D01*
X136046750Y-90610446D01*
X136034490Y-90644336D01*
X136011195Y-90716930D01*
X135979700Y-90819101D01*
X135942842Y-90941720D01*
X135922899Y-91009167D01*
X135814895Y-91376471D01*
X135585679Y-91376471D01*
X135402439Y-90797500D01*
X135350963Y-90635091D01*
X135304070Y-90487602D01*
X135263977Y-90361960D01*
X135232897Y-90265095D01*
X135213045Y-90203934D01*
X135207011Y-90186065D01*
X135211788Y-90167768D01*
X135249297Y-90159755D01*
X135327355Y-90160557D01*
X135339574Y-90161163D01*
X135484326Y-90168726D01*
X135579130Y-90517353D01*
X135613977Y-90644497D01*
X135645117Y-90756265D01*
X135669809Y-90842953D01*
X135685312Y-90894856D01*
X135688176Y-90903318D01*
X135700046Y-90893587D01*
X135723983Y-90843172D01*
X135757239Y-90758935D01*
X135797064Y-90647741D01*
X135830730Y-90547297D01*
X135959041Y-90153939D01*
X136057528Y-90161332D01*
G37*
X136057528Y-90161332D02*
X136156014Y-90168726D01*
X136284776Y-90554706D01*
X136413537Y-90940686D01*
X136453911Y-90803726D01*
X136478207Y-90719083D01*
X136510167Y-90604697D01*
X136544679Y-90478963D01*
X136562928Y-90411520D01*
X136631571Y-90156275D01*
X136914773Y-90156275D01*
X136830122Y-90423971D01*
X136788435Y-90555638D01*
X136738074Y-90714458D01*
X136685481Y-90880128D01*
X136638530Y-91027843D01*
X136531589Y-91364020D01*
X136300661Y-91379044D01*
X136238050Y-91172316D01*
X136199438Y-91043896D01*
X136157300Y-90902322D01*
X136120472Y-90777285D01*
X136119018Y-90772309D01*
X136091511Y-90687586D01*
X136067242Y-90629778D01*
X136050243Y-90607918D01*
X136046750Y-90610446D01*
X136034490Y-90644336D01*
X136011195Y-90716930D01*
X135979700Y-90819101D01*
X135942842Y-90941720D01*
X135922899Y-91009167D01*
X135814895Y-91376471D01*
X135585679Y-91376471D01*
X135402439Y-90797500D01*
X135350963Y-90635091D01*
X135304070Y-90487602D01*
X135263977Y-90361960D01*
X135232897Y-90265095D01*
X135213045Y-90203934D01*
X135207011Y-90186065D01*
X135211788Y-90167768D01*
X135249297Y-90159755D01*
X135327355Y-90160557D01*
X135339574Y-90161163D01*
X135484326Y-90168726D01*
X135579130Y-90517353D01*
X135613977Y-90644497D01*
X135645117Y-90756265D01*
X135669809Y-90842953D01*
X135685312Y-90894856D01*
X135688176Y-90903318D01*
X135700046Y-90893587D01*
X135723983Y-90843172D01*
X135757239Y-90758935D01*
X135797064Y-90647741D01*
X135830730Y-90547297D01*
X135959041Y-90153939D01*
X136057528Y-90161332D01*
G36*
X137556459Y-90163669D02*
G01*
X137661420Y-90189163D01*
X137691761Y-90202669D01*
X137750573Y-90238046D01*
X137795709Y-90277890D01*
X137829106Y-90329120D01*
X137852701Y-90398654D01*
X137868433Y-90493409D01*
X137878239Y-90620305D01*
X137884057Y-90786258D01*
X137886266Y-90897108D01*
X137894396Y-91376471D01*
X137755531Y-91376471D01*
X137671287Y-91372938D01*
X137627884Y-91360866D01*
X137616666Y-91340594D01*
X137610744Y-91318674D01*
X137584266Y-91322865D01*
X137548186Y-91340441D01*
X137457862Y-91367382D01*
X137341777Y-91374642D01*
X137219680Y-91362767D01*
X137111321Y-91332305D01*
X137101602Y-91328077D01*
X137002568Y-91258505D01*
X136937281Y-91161789D01*
X136907240Y-91048738D01*
X136909535Y-91008122D01*
X137154633Y-91008122D01*
X137176229Y-91062782D01*
X137240259Y-91101952D01*
X137343565Y-91122974D01*
X137398774Y-91125766D01*
X137490782Y-91118620D01*
X137551941Y-91090848D01*
X137566862Y-91077647D01*
X137607287Y-91005829D01*
X137616666Y-90940686D01*
X137616666Y-90853530D01*
X137495269Y-90853530D01*
X137354153Y-90860722D01*
X137255173Y-90883345D01*
X137192633Y-90922964D01*
X137178631Y-90940628D01*
X137154633Y-91008122D01*
X136909535Y-91008122D01*
X136913941Y-90930157D01*
X136958880Y-90816855D01*
X137020196Y-90740285D01*
X137057332Y-90707181D01*
X137093687Y-90685425D01*
X137140990Y-90672161D01*
X137210973Y-90664528D01*
X137315364Y-90659670D01*
X137356770Y-90658273D01*
X137616666Y-90649780D01*
X137616285Y-90571116D01*
X137606219Y-90488428D01*
X137569829Y-90438431D01*
X137496311Y-90406489D01*
X137494339Y-90405920D01*
X137390105Y-90393361D01*
X137288108Y-90409766D01*
X137212305Y-90449657D01*
X137181890Y-90469354D01*
X137149132Y-90466629D01*
X137098721Y-90438091D01*
X137069119Y-90417950D01*
X137011218Y-90374919D01*
X136975352Y-90342662D01*
X136969597Y-90333427D01*
X136993295Y-90285636D01*
X137063313Y-90228562D01*
X137093725Y-90209305D01*
X137181155Y-90176140D01*
X137298983Y-90157350D01*
X137429866Y-90153129D01*
X137556459Y-90163669D01*
G37*
X137556459Y-90163669D02*
X137661420Y-90189163D01*
X137691761Y-90202669D01*
X137750573Y-90238046D01*
X137795709Y-90277890D01*
X137829106Y-90329120D01*
X137852701Y-90398654D01*
X137868433Y-90493409D01*
X137878239Y-90620305D01*
X137884057Y-90786258D01*
X137886266Y-90897108D01*
X137894396Y-91376471D01*
X137755531Y-91376471D01*
X137671287Y-91372938D01*
X137627884Y-91360866D01*
X137616666Y-91340594D01*
X137610744Y-91318674D01*
X137584266Y-91322865D01*
X137548186Y-91340441D01*
X137457862Y-91367382D01*
X137341777Y-91374642D01*
X137219680Y-91362767D01*
X137111321Y-91332305D01*
X137101602Y-91328077D01*
X137002568Y-91258505D01*
X136937281Y-91161789D01*
X136907240Y-91048738D01*
X136909535Y-91008122D01*
X137154633Y-91008122D01*
X137176229Y-91062782D01*
X137240259Y-91101952D01*
X137343565Y-91122974D01*
X137398774Y-91125766D01*
X137490782Y-91118620D01*
X137551941Y-91090848D01*
X137566862Y-91077647D01*
X137607287Y-91005829D01*
X137616666Y-90940686D01*
X137616666Y-90853530D01*
X137495269Y-90853530D01*
X137354153Y-90860722D01*
X137255173Y-90883345D01*
X137192633Y-90922964D01*
X137178631Y-90940628D01*
X137154633Y-91008122D01*
X136909535Y-91008122D01*
X136913941Y-90930157D01*
X136958880Y-90816855D01*
X137020196Y-90740285D01*
X137057332Y-90707181D01*
X137093687Y-90685425D01*
X137140990Y-90672161D01*
X137210973Y-90664528D01*
X137315364Y-90659670D01*
X137356770Y-90658273D01*
X137616666Y-90649780D01*
X137616285Y-90571116D01*
X137606219Y-90488428D01*
X137569829Y-90438431D01*
X137496311Y-90406489D01*
X137494339Y-90405920D01*
X137390105Y-90393361D01*
X137288108Y-90409766D01*
X137212305Y-90449657D01*
X137181890Y-90469354D01*
X137149132Y-90466629D01*
X137098721Y-90438091D01*
X137069119Y-90417950D01*
X137011218Y-90374919D01*
X136975352Y-90342662D01*
X136969597Y-90333427D01*
X136993295Y-90285636D01*
X137063313Y-90228562D01*
X137093725Y-90209305D01*
X137181155Y-90176140D01*
X137298983Y-90157350D01*
X137429866Y-90153129D01*
X137556459Y-90163669D01*
G36*
X138738446Y-90155883D02*
G01*
X138834177Y-90174755D01*
X138888677Y-90202699D01*
X138946008Y-90249123D01*
X138864441Y-90352111D01*
X138814150Y-90414479D01*
X138780001Y-90444907D01*
X138746063Y-90449555D01*
X138696406Y-90434586D01*
X138673096Y-90426117D01*
X138578063Y-90413622D01*
X138491032Y-90440406D01*
X138427138Y-90500915D01*
X138416759Y-90520208D01*
X138405456Y-90571314D01*
X138396732Y-90665500D01*
X138390997Y-90796089D01*
X138388660Y-90956405D01*
X138388627Y-90979211D01*
X138388627Y-91376471D01*
X138114705Y-91376471D01*
X138114705Y-90156275D01*
X138251666Y-90156275D01*
X138330638Y-90158337D01*
X138371779Y-90167513D01*
X138386992Y-90188290D01*
X138388627Y-90207886D01*
X138388627Y-90259497D01*
X138454240Y-90207886D01*
X138529475Y-90172675D01*
X138630544Y-90155265D01*
X138738446Y-90155883D01*
G37*
X138738446Y-90155883D02*
X138834177Y-90174755D01*
X138888677Y-90202699D01*
X138946008Y-90249123D01*
X138864441Y-90352111D01*
X138814150Y-90414479D01*
X138780001Y-90444907D01*
X138746063Y-90449555D01*
X138696406Y-90434586D01*
X138673096Y-90426117D01*
X138578063Y-90413622D01*
X138491032Y-90440406D01*
X138427138Y-90500915D01*
X138416759Y-90520208D01*
X138405456Y-90571314D01*
X138396732Y-90665500D01*
X138390997Y-90796089D01*
X138388660Y-90956405D01*
X138388627Y-90979211D01*
X138388627Y-91376471D01*
X138114705Y-91376471D01*
X138114705Y-90156275D01*
X138251666Y-90156275D01*
X138330638Y-90158337D01*
X138371779Y-90167513D01*
X138386992Y-90188290D01*
X138388627Y-90207886D01*
X138388627Y-90259497D01*
X138454240Y-90207886D01*
X138529475Y-90172675D01*
X138630544Y-90155265D01*
X138738446Y-90155883D01*
G36*
X139525307Y-90162784D02*
G01*
X139644337Y-90193731D01*
X139744021Y-90257600D01*
X139792288Y-90305313D01*
X139871408Y-90418106D01*
X139916752Y-90548950D01*
X139932330Y-90709792D01*
X139932410Y-90722794D01*
X139932549Y-90853530D01*
X139180091Y-90853530D01*
X139196130Y-90922010D01*
X139225091Y-90984031D01*
X139275778Y-91048654D01*
X139286379Y-91058971D01*
X139377494Y-91114805D01*
X139481400Y-91124275D01*
X139601000Y-91087540D01*
X139621274Y-91077647D01*
X139683456Y-91047574D01*
X139725106Y-91030440D01*
X139732373Y-91028855D01*
X139757740Y-91044242D01*
X139806120Y-91081887D01*
X139830679Y-91102459D01*
X139881570Y-91149714D01*
X139898281Y-91180917D01*
X139886683Y-91209620D01*
X139880483Y-91217468D01*
X139838493Y-91251819D01*
X139769206Y-91293565D01*
X139720882Y-91317935D01*
X139583711Y-91360873D01*
X139431847Y-91374786D01*
X139288024Y-91358300D01*
X139247745Y-91346496D01*
X139123078Y-91279689D01*
X139030671Y-91176892D01*
X138969990Y-91037105D01*
X138940498Y-90859330D01*
X138937260Y-90766373D01*
X138946714Y-90631033D01*
X139185490Y-90631033D01*
X139208584Y-90641038D01*
X139270662Y-90648888D01*
X139360914Y-90653521D01*
X139422058Y-90654314D01*
X139532040Y-90653549D01*
X139601457Y-90649970D01*
X139639538Y-90641649D01*
X139655515Y-90626657D01*
X139658627Y-90604903D01*
X139637278Y-90537892D01*
X139583529Y-90471664D01*
X139512822Y-90420832D01*
X139442089Y-90400038D01*
X139346016Y-90418484D01*
X139262849Y-90471811D01*
X139205186Y-90548677D01*
X139185490Y-90631033D01*
X138946714Y-90631033D01*
X138951028Y-90569291D01*
X138993520Y-90412271D01*
X139065635Y-90294069D01*
X139168273Y-90213440D01*
X139302332Y-90169139D01*
X139374957Y-90160607D01*
X139525307Y-90162784D01*
G37*
X139525307Y-90162784D02*
X139644337Y-90193731D01*
X139744021Y-90257600D01*
X139792288Y-90305313D01*
X139871408Y-90418106D01*
X139916752Y-90548950D01*
X139932330Y-90709792D01*
X139932410Y-90722794D01*
X139932549Y-90853530D01*
X139180091Y-90853530D01*
X139196130Y-90922010D01*
X139225091Y-90984031D01*
X139275778Y-91048654D01*
X139286379Y-91058971D01*
X139377494Y-91114805D01*
X139481400Y-91124275D01*
X139601000Y-91087540D01*
X139621274Y-91077647D01*
X139683456Y-91047574D01*
X139725106Y-91030440D01*
X139732373Y-91028855D01*
X139757740Y-91044242D01*
X139806120Y-91081887D01*
X139830679Y-91102459D01*
X139881570Y-91149714D01*
X139898281Y-91180917D01*
X139886683Y-91209620D01*
X139880483Y-91217468D01*
X139838493Y-91251819D01*
X139769206Y-91293565D01*
X139720882Y-91317935D01*
X139583711Y-91360873D01*
X139431847Y-91374786D01*
X139288024Y-91358300D01*
X139247745Y-91346496D01*
X139123078Y-91279689D01*
X139030671Y-91176892D01*
X138969990Y-91037105D01*
X138940498Y-90859330D01*
X138937260Y-90766373D01*
X138946714Y-90631033D01*
X139185490Y-90631033D01*
X139208584Y-90641038D01*
X139270662Y-90648888D01*
X139360914Y-90653521D01*
X139422058Y-90654314D01*
X139532040Y-90653549D01*
X139601457Y-90649970D01*
X139639538Y-90641649D01*
X139655515Y-90626657D01*
X139658627Y-90604903D01*
X139637278Y-90537892D01*
X139583529Y-90471664D01*
X139512822Y-90420832D01*
X139442089Y-90400038D01*
X139346016Y-90418484D01*
X139262849Y-90471811D01*
X139205186Y-90548677D01*
X139185490Y-90631033D01*
X138946714Y-90631033D01*
X138951028Y-90569291D01*
X138993520Y-90412271D01*
X139065635Y-90294069D01*
X139168273Y-90213440D01*
X139302332Y-90169139D01*
X139374957Y-90160607D01*
X139525307Y-90162784D01*
G36*
X130473247Y-88301568D02*
G01*
X130603522Y-88359163D01*
X130702419Y-88455334D01*
X130770082Y-88590229D01*
X130806655Y-88763996D01*
X130809276Y-88791126D01*
X130811330Y-88982408D01*
X130784699Y-89150073D01*
X130731001Y-89285967D01*
X130702247Y-89329681D01*
X130602091Y-89422198D01*
X130474537Y-89482119D01*
X130331837Y-89506985D01*
X130186240Y-89494339D01*
X130075562Y-89455391D01*
X129980384Y-89389755D01*
X129902594Y-89303699D01*
X129901249Y-89301685D01*
X129869657Y-89248570D01*
X129849127Y-89195160D01*
X129836695Y-89127754D01*
X129829397Y-89032653D01*
X129826182Y-88954666D01*
X129824844Y-88883944D01*
X130073814Y-88883944D01*
X130076247Y-88954348D01*
X130085080Y-89048068D01*
X130100664Y-89108214D01*
X130128766Y-89151006D01*
X130155086Y-89176002D01*
X130248392Y-89228338D01*
X130346020Y-89235333D01*
X130436942Y-89197676D01*
X130482402Y-89155479D01*
X130515162Y-89112956D01*
X130534323Y-89072267D01*
X130542733Y-89019314D01*
X130543237Y-88939997D01*
X130540645Y-88866950D01*
X130535071Y-88762601D01*
X130526234Y-88694920D01*
X130510307Y-88650774D01*
X130483462Y-88617031D01*
X130462189Y-88597746D01*
X130373206Y-88547086D01*
X130277211Y-88544560D01*
X130196719Y-88574567D01*
X130128053Y-88637231D01*
X130087144Y-88740168D01*
X130073814Y-88883944D01*
X129824844Y-88883944D01*
X129823246Y-88799582D01*
X129828260Y-88683600D01*
X129843283Y-88596367D01*
X129870376Y-88527530D01*
X129911600Y-88466737D01*
X129926885Y-88448686D01*
X130022454Y-88358746D01*
X130124961Y-88306211D01*
X130250321Y-88284201D01*
X130311450Y-88282402D01*
X130473247Y-88301568D01*
G37*
X130473247Y-88301568D02*
X130603522Y-88359163D01*
X130702419Y-88455334D01*
X130770082Y-88590229D01*
X130806655Y-88763996D01*
X130809276Y-88791126D01*
X130811330Y-88982408D01*
X130784699Y-89150073D01*
X130731001Y-89285967D01*
X130702247Y-89329681D01*
X130602091Y-89422198D01*
X130474537Y-89482119D01*
X130331837Y-89506985D01*
X130186240Y-89494339D01*
X130075562Y-89455391D01*
X129980384Y-89389755D01*
X129902594Y-89303699D01*
X129901249Y-89301685D01*
X129869657Y-89248570D01*
X129849127Y-89195160D01*
X129836695Y-89127754D01*
X129829397Y-89032653D01*
X129826182Y-88954666D01*
X129824844Y-88883944D01*
X130073814Y-88883944D01*
X130076247Y-88954348D01*
X130085080Y-89048068D01*
X130100664Y-89108214D01*
X130128766Y-89151006D01*
X130155086Y-89176002D01*
X130248392Y-89228338D01*
X130346020Y-89235333D01*
X130436942Y-89197676D01*
X130482402Y-89155479D01*
X130515162Y-89112956D01*
X130534323Y-89072267D01*
X130542733Y-89019314D01*
X130543237Y-88939997D01*
X130540645Y-88866950D01*
X130535071Y-88762601D01*
X130526234Y-88694920D01*
X130510307Y-88650774D01*
X130483462Y-88617031D01*
X130462189Y-88597746D01*
X130373206Y-88547086D01*
X130277211Y-88544560D01*
X130196719Y-88574567D01*
X130128053Y-88637231D01*
X130087144Y-88740168D01*
X130073814Y-88883944D01*
X129824844Y-88883944D01*
X129823246Y-88799582D01*
X129828260Y-88683600D01*
X129843283Y-88596367D01*
X129870376Y-88527530D01*
X129911600Y-88466737D01*
X129926885Y-88448686D01*
X130022454Y-88358746D01*
X130124961Y-88306211D01*
X130250321Y-88284201D01*
X130311450Y-88282402D01*
X130473247Y-88301568D01*
G36*
X132813204Y-88316354D02*
G01*
X132838019Y-88328037D01*
X132923906Y-88390951D01*
X133005121Y-88482769D01*
X133065764Y-88583868D01*
X133083012Y-88630349D01*
X133098749Y-88713376D01*
X133108133Y-88813713D01*
X133109272Y-88855147D01*
X133109411Y-88985882D01*
X132356953Y-88985882D01*
X132372993Y-89054363D01*
X132412363Y-89135355D01*
X132481194Y-89205351D01*
X132563081Y-89250441D01*
X132615263Y-89259804D01*
X132686029Y-89248441D01*
X132770460Y-89219943D01*
X132799142Y-89206831D01*
X132905209Y-89153858D01*
X132995728Y-89222901D01*
X133047961Y-89269597D01*
X133075753Y-89308140D01*
X133077160Y-89319452D01*
X133052332Y-89346868D01*
X132997917Y-89388532D01*
X132948528Y-89421037D01*
X132815252Y-89479468D01*
X132665839Y-89505915D01*
X132517751Y-89499039D01*
X132399705Y-89463096D01*
X132278018Y-89386101D01*
X132191540Y-89284728D01*
X132137441Y-89153570D01*
X132112891Y-88987224D01*
X132110714Y-88911108D01*
X132119427Y-88736685D01*
X132120497Y-88731611D01*
X132369827Y-88731611D01*
X132376694Y-88747968D01*
X132404917Y-88756988D01*
X132463127Y-88760854D01*
X132559958Y-88761749D01*
X132597243Y-88761765D01*
X132710683Y-88760413D01*
X132782622Y-88755505D01*
X132821313Y-88745760D01*
X132835005Y-88729899D01*
X132835490Y-88724805D01*
X132819863Y-88684326D01*
X132780753Y-88627621D01*
X132763939Y-88607766D01*
X132701519Y-88551611D01*
X132636453Y-88529532D01*
X132601397Y-88527686D01*
X132506558Y-88550766D01*
X132427027Y-88612759D01*
X132376577Y-88702802D01*
X132375683Y-88705735D01*
X132369827Y-88731611D01*
X132120497Y-88731611D01*
X132148399Y-88599343D01*
X132200590Y-88489461D01*
X132264421Y-88411461D01*
X132382433Y-88326882D01*
X132521158Y-88281686D01*
X132668710Y-88277600D01*
X132813204Y-88316354D01*
G37*
X132813204Y-88316354D02*
X132838019Y-88328037D01*
X132923906Y-88390951D01*
X133005121Y-88482769D01*
X133065764Y-88583868D01*
X133083012Y-88630349D01*
X133098749Y-88713376D01*
X133108133Y-88813713D01*
X133109272Y-88855147D01*
X133109411Y-88985882D01*
X132356953Y-88985882D01*
X132372993Y-89054363D01*
X132412363Y-89135355D01*
X132481194Y-89205351D01*
X132563081Y-89250441D01*
X132615263Y-89259804D01*
X132686029Y-89248441D01*
X132770460Y-89219943D01*
X132799142Y-89206831D01*
X132905209Y-89153858D01*
X132995728Y-89222901D01*
X133047961Y-89269597D01*
X133075753Y-89308140D01*
X133077160Y-89319452D01*
X133052332Y-89346868D01*
X132997917Y-89388532D01*
X132948528Y-89421037D01*
X132815252Y-89479468D01*
X132665839Y-89505915D01*
X132517751Y-89499039D01*
X132399705Y-89463096D01*
X132278018Y-89386101D01*
X132191540Y-89284728D01*
X132137441Y-89153570D01*
X132112891Y-88987224D01*
X132110714Y-88911108D01*
X132119427Y-88736685D01*
X132120497Y-88731611D01*
X132369827Y-88731611D01*
X132376694Y-88747968D01*
X132404917Y-88756988D01*
X132463127Y-88760854D01*
X132559958Y-88761749D01*
X132597243Y-88761765D01*
X132710683Y-88760413D01*
X132782622Y-88755505D01*
X132821313Y-88745760D01*
X132835005Y-88729899D01*
X132835490Y-88724805D01*
X132819863Y-88684326D01*
X132780753Y-88627621D01*
X132763939Y-88607766D01*
X132701519Y-88551611D01*
X132636453Y-88529532D01*
X132601397Y-88527686D01*
X132506558Y-88550766D01*
X132427027Y-88612759D01*
X132376577Y-88702802D01*
X132375683Y-88705735D01*
X132369827Y-88731611D01*
X132120497Y-88731611D01*
X132148399Y-88599343D01*
X132200590Y-88489461D01*
X132264421Y-88411461D01*
X132382433Y-88326882D01*
X132521158Y-88281686D01*
X132668710Y-88277600D01*
X132813204Y-88316354D01*
G36*
X135527759Y-88284345D02*
G01*
X135622059Y-88302229D01*
X135719890Y-88339633D01*
X135730343Y-88344402D01*
X135804531Y-88383412D01*
X135855910Y-88419664D01*
X135872517Y-88442887D01*
X135856702Y-88480761D01*
X135818288Y-88536644D01*
X135801237Y-88557505D01*
X135730969Y-88639618D01*
X135640379Y-88586168D01*
X135554164Y-88550561D01*
X135454549Y-88531529D01*
X135359019Y-88530326D01*
X135285061Y-88548210D01*
X135267312Y-88559373D01*
X135233512Y-88610553D01*
X135229404Y-88669509D01*
X135254696Y-88715567D01*
X135269656Y-88724499D01*
X135314486Y-88735592D01*
X135393286Y-88748630D01*
X135490426Y-88761088D01*
X135508346Y-88763042D01*
X135664365Y-88790030D01*
X135777523Y-88835873D01*
X135852569Y-88904803D01*
X135894253Y-89001054D01*
X135907238Y-89118617D01*
X135889299Y-89252254D01*
X135831050Y-89357195D01*
X135732255Y-89433630D01*
X135592682Y-89481748D01*
X135437745Y-89500732D01*
X135311398Y-89500504D01*
X135208913Y-89483262D01*
X135138921Y-89459457D01*
X135050483Y-89417978D01*
X134968754Y-89369842D01*
X134939705Y-89348655D01*
X134865000Y-89287676D01*
X134955098Y-89196508D01*
X135045196Y-89105339D01*
X135147632Y-89173128D01*
X135250374Y-89224042D01*
X135360087Y-89250673D01*
X135465551Y-89253483D01*
X135555546Y-89232935D01*
X135618854Y-89189493D01*
X135639296Y-89152838D01*
X135636229Y-89094053D01*
X135585434Y-89049099D01*
X135487048Y-89018057D01*
X135379256Y-89003710D01*
X135213365Y-88976337D01*
X135090124Y-88924693D01*
X135007886Y-88847266D01*
X134965001Y-88742544D01*
X134959060Y-88618387D01*
X134988406Y-88488702D01*
X135055309Y-88390677D01*
X135160371Y-88323866D01*
X135304190Y-88287820D01*
X135410738Y-88280754D01*
X135527759Y-88284345D01*
G37*
X135527759Y-88284345D02*
X135622059Y-88302229D01*
X135719890Y-88339633D01*
X135730343Y-88344402D01*
X135804531Y-88383412D01*
X135855910Y-88419664D01*
X135872517Y-88442887D01*
X135856702Y-88480761D01*
X135818288Y-88536644D01*
X135801237Y-88557505D01*
X135730969Y-88639618D01*
X135640379Y-88586168D01*
X135554164Y-88550561D01*
X135454549Y-88531529D01*
X135359019Y-88530326D01*
X135285061Y-88548210D01*
X135267312Y-88559373D01*
X135233512Y-88610553D01*
X135229404Y-88669509D01*
X135254696Y-88715567D01*
X135269656Y-88724499D01*
X135314486Y-88735592D01*
X135393286Y-88748630D01*
X135490426Y-88761088D01*
X135508346Y-88763042D01*
X135664365Y-88790030D01*
X135777523Y-88835873D01*
X135852569Y-88904803D01*
X135894253Y-89001054D01*
X135907238Y-89118617D01*
X135889299Y-89252254D01*
X135831050Y-89357195D01*
X135732255Y-89433630D01*
X135592682Y-89481748D01*
X135437745Y-89500732D01*
X135311398Y-89500504D01*
X135208913Y-89483262D01*
X135138921Y-89459457D01*
X135050483Y-89417978D01*
X134968754Y-89369842D01*
X134939705Y-89348655D01*
X134865000Y-89287676D01*
X134955098Y-89196508D01*
X135045196Y-89105339D01*
X135147632Y-89173128D01*
X135250374Y-89224042D01*
X135360087Y-89250673D01*
X135465551Y-89253483D01*
X135555546Y-89232935D01*
X135618854Y-89189493D01*
X135639296Y-89152838D01*
X135636229Y-89094053D01*
X135585434Y-89049099D01*
X135487048Y-89018057D01*
X135379256Y-89003710D01*
X135213365Y-88976337D01*
X135090124Y-88924693D01*
X135007886Y-88847266D01*
X134965001Y-88742544D01*
X134959060Y-88618387D01*
X134988406Y-88488702D01*
X135055309Y-88390677D01*
X135160371Y-88323866D01*
X135304190Y-88287820D01*
X135410738Y-88280754D01*
X135527759Y-88284345D01*
G36*
X136709547Y-88303364D02*
G01*
X136835502Y-88371959D01*
X136934047Y-88480245D01*
X136980478Y-88568315D01*
X137000412Y-88646101D01*
X137013328Y-88756993D01*
X137018863Y-88884738D01*
X137016654Y-89013084D01*
X137006337Y-89125779D01*
X136994286Y-89185969D01*
X136953634Y-89268311D01*
X136883230Y-89355770D01*
X136798382Y-89432251D01*
X136714397Y-89481655D01*
X136712349Y-89482439D01*
X136608134Y-89504027D01*
X136484627Y-89504562D01*
X136367261Y-89484908D01*
X136321942Y-89469155D01*
X136205220Y-89402966D01*
X136121624Y-89316246D01*
X136066701Y-89201438D01*
X136035995Y-89050982D01*
X136029047Y-88972173D01*
X136029933Y-88873145D01*
X136296862Y-88873145D01*
X136305854Y-89017645D01*
X136331736Y-89127760D01*
X136372868Y-89198116D01*
X136402172Y-89218235D01*
X136477251Y-89232265D01*
X136566494Y-89228111D01*
X136643650Y-89207922D01*
X136663883Y-89196815D01*
X136717265Y-89132123D01*
X136752500Y-89033119D01*
X136767498Y-88912632D01*
X136760172Y-88783494D01*
X136743799Y-88705775D01*
X136696790Y-88615771D01*
X136622582Y-88559509D01*
X136533209Y-88540057D01*
X136440707Y-88560481D01*
X136369653Y-88610437D01*
X136332312Y-88651655D01*
X136310518Y-88692281D01*
X136300130Y-88747264D01*
X136297006Y-88831549D01*
X136296862Y-88873145D01*
X136029933Y-88873145D01*
X136030930Y-88761874D01*
X136065180Y-88589423D01*
X136131802Y-88454814D01*
X136230799Y-88358040D01*
X136362175Y-88299094D01*
X136390385Y-88292259D01*
X136559926Y-88276213D01*
X136709547Y-88303364D01*
G37*
X136709547Y-88303364D02*
X136835502Y-88371959D01*
X136934047Y-88480245D01*
X136980478Y-88568315D01*
X137000412Y-88646101D01*
X137013328Y-88756993D01*
X137018863Y-88884738D01*
X137016654Y-89013084D01*
X137006337Y-89125779D01*
X136994286Y-89185969D01*
X136953634Y-89268311D01*
X136883230Y-89355770D01*
X136798382Y-89432251D01*
X136714397Y-89481655D01*
X136712349Y-89482439D01*
X136608134Y-89504027D01*
X136484627Y-89504562D01*
X136367261Y-89484908D01*
X136321942Y-89469155D01*
X136205220Y-89402966D01*
X136121624Y-89316246D01*
X136066701Y-89201438D01*
X136035995Y-89050982D01*
X136029047Y-88972173D01*
X136029933Y-88873145D01*
X136296862Y-88873145D01*
X136305854Y-89017645D01*
X136331736Y-89127760D01*
X136372868Y-89198116D01*
X136402172Y-89218235D01*
X136477251Y-89232265D01*
X136566494Y-89228111D01*
X136643650Y-89207922D01*
X136663883Y-89196815D01*
X136717265Y-89132123D01*
X136752500Y-89033119D01*
X136767498Y-88912632D01*
X136760172Y-88783494D01*
X136743799Y-88705775D01*
X136696790Y-88615771D01*
X136622582Y-88559509D01*
X136533209Y-88540057D01*
X136440707Y-88560481D01*
X136369653Y-88610437D01*
X136332312Y-88651655D01*
X136310518Y-88692281D01*
X136300130Y-88747264D01*
X136297006Y-88831549D01*
X136296862Y-88873145D01*
X136029933Y-88873145D01*
X136030930Y-88761874D01*
X136065180Y-88589423D01*
X136131802Y-88454814D01*
X136230799Y-88358040D01*
X136362175Y-88299094D01*
X136390385Y-88292259D01*
X136559926Y-88276213D01*
X136709547Y-88303364D01*
G36*
X137467254Y-88676245D02*
G01*
X137469608Y-88858879D01*
X137478207Y-88997600D01*
X137495360Y-89098147D01*
X137523374Y-89166254D01*
X137564557Y-89207659D01*
X137621217Y-89228097D01*
X137691372Y-89233318D01*
X137764848Y-89227468D01*
X137820657Y-89206093D01*
X137861109Y-89163458D01*
X137888509Y-89093825D01*
X137905167Y-88991460D01*
X137913389Y-88850624D01*
X137915490Y-88676245D01*
X137915490Y-88288628D01*
X138189411Y-88288628D01*
X138189411Y-89483922D01*
X138052451Y-89483922D01*
X137969884Y-89480576D01*
X137927368Y-89468826D01*
X137915490Y-89446520D01*
X137908336Y-89426654D01*
X137879865Y-89430857D01*
X137822476Y-89458971D01*
X137690945Y-89502342D01*
X137551438Y-89499270D01*
X137417765Y-89452174D01*
X137354108Y-89414971D01*
X137305553Y-89374691D01*
X137270081Y-89324291D01*
X137245674Y-89256729D01*
X137230313Y-89164965D01*
X137221982Y-89041955D01*
X137218662Y-88880659D01*
X137218235Y-88755928D01*
X137218235Y-88288628D01*
X137467254Y-88288628D01*
X137467254Y-88676245D01*
G37*
X137467254Y-88676245D02*
X137469608Y-88858879D01*
X137478207Y-88997600D01*
X137495360Y-89098147D01*
X137523374Y-89166254D01*
X137564557Y-89207659D01*
X137621217Y-89228097D01*
X137691372Y-89233318D01*
X137764848Y-89227468D01*
X137820657Y-89206093D01*
X137861109Y-89163458D01*
X137888509Y-89093825D01*
X137905167Y-88991460D01*
X137913389Y-88850624D01*
X137915490Y-88676245D01*
X137915490Y-88288628D01*
X138189411Y-88288628D01*
X138189411Y-89483922D01*
X138052451Y-89483922D01*
X137969884Y-89480576D01*
X137927368Y-89468826D01*
X137915490Y-89446520D01*
X137908336Y-89426654D01*
X137879865Y-89430857D01*
X137822476Y-89458971D01*
X137690945Y-89502342D01*
X137551438Y-89499270D01*
X137417765Y-89452174D01*
X137354108Y-89414971D01*
X137305553Y-89374691D01*
X137270081Y-89324291D01*
X137245674Y-89256729D01*
X137230313Y-89164965D01*
X137221982Y-89041955D01*
X137218662Y-88880659D01*
X137218235Y-88755928D01*
X137218235Y-88288628D01*
X137467254Y-88288628D01*
X137467254Y-88676245D01*
G36*
X139890976Y-88299056D02*
G01*
X140035256Y-88360348D01*
X140080699Y-88390185D01*
X140138779Y-88436036D01*
X140175238Y-88472089D01*
X140181568Y-88483832D01*
X140163693Y-88509889D01*
X140117950Y-88554105D01*
X140081328Y-88584965D01*
X139981088Y-88665520D01*
X139901935Y-88598918D01*
X139840769Y-88555921D01*
X139781129Y-88541079D01*
X139712872Y-88544704D01*
X139604482Y-88571652D01*
X139529872Y-88627587D01*
X139484530Y-88718014D01*
X139463947Y-88848435D01*
X139463942Y-88848517D01*
X139465722Y-88994290D01*
X139493387Y-89101245D01*
X139548571Y-89174064D01*
X139586192Y-89198723D01*
X139686105Y-89229431D01*
X139792822Y-89229449D01*
X139885669Y-89199655D01*
X139907647Y-89185098D01*
X139962765Y-89147914D01*
X140005859Y-89141820D01*
X140052335Y-89169496D01*
X140103716Y-89219205D01*
X140185046Y-89303116D01*
X140094749Y-89377546D01*
X139955236Y-89461549D01*
X139797912Y-89502947D01*
X139633503Y-89499950D01*
X139525531Y-89472500D01*
X139399331Y-89404620D01*
X139298401Y-89297831D01*
X139252548Y-89222451D01*
X139215410Y-89114297D01*
X139196827Y-88977318D01*
X139196684Y-88828864D01*
X139214865Y-88686281D01*
X139251255Y-88566918D01*
X139256987Y-88554680D01*
X139341865Y-88434655D01*
X139456782Y-88347267D01*
X139592659Y-88294329D01*
X139740417Y-88277654D01*
X139890976Y-88299056D01*
G37*
X139890976Y-88299056D02*
X140035256Y-88360348D01*
X140080699Y-88390185D01*
X140138779Y-88436036D01*
X140175238Y-88472089D01*
X140181568Y-88483832D01*
X140163693Y-88509889D01*
X140117950Y-88554105D01*
X140081328Y-88584965D01*
X139981088Y-88665520D01*
X139901935Y-88598918D01*
X139840769Y-88555921D01*
X139781129Y-88541079D01*
X139712872Y-88544704D01*
X139604482Y-88571652D01*
X139529872Y-88627587D01*
X139484530Y-88718014D01*
X139463947Y-88848435D01*
X139463942Y-88848517D01*
X139465722Y-88994290D01*
X139493387Y-89101245D01*
X139548571Y-89174064D01*
X139586192Y-89198723D01*
X139686105Y-89229431D01*
X139792822Y-89229449D01*
X139885669Y-89199655D01*
X139907647Y-89185098D01*
X139962765Y-89147914D01*
X140005859Y-89141820D01*
X140052335Y-89169496D01*
X140103716Y-89219205D01*
X140185046Y-89303116D01*
X140094749Y-89377546D01*
X139955236Y-89461549D01*
X139797912Y-89502947D01*
X139633503Y-89499950D01*
X139525531Y-89472500D01*
X139399331Y-89404620D01*
X139298401Y-89297831D01*
X139252548Y-89222451D01*
X139215410Y-89114297D01*
X139196827Y-88977318D01*
X139196684Y-88828864D01*
X139214865Y-88686281D01*
X139251255Y-88566918D01*
X139256987Y-88554680D01*
X139341865Y-88434655D01*
X139456782Y-88347267D01*
X139592659Y-88294329D01*
X139740417Y-88277654D01*
X139890976Y-88299056D01*
G36*
X140803287Y-88284355D02*
G01*
X140867051Y-88299845D01*
X140989300Y-88356569D01*
X141093834Y-88443202D01*
X141166180Y-88547074D01*
X141176119Y-88570396D01*
X141189754Y-88631484D01*
X141199298Y-88721853D01*
X141202549Y-88813190D01*
X141202549Y-88985882D01*
X140841470Y-88985882D01*
X140692546Y-88986445D01*
X140587632Y-88989864D01*
X140520937Y-88998731D01*
X140486666Y-89015641D01*
X140479028Y-89043189D01*
X140492229Y-89083968D01*
X140515877Y-89131683D01*
X140581843Y-89211314D01*
X140673512Y-89250987D01*
X140785555Y-89249695D01*
X140912472Y-89206514D01*
X141022158Y-89153224D01*
X141113173Y-89225191D01*
X141204188Y-89297157D01*
X141118563Y-89376269D01*
X141004250Y-89451017D01*
X140863666Y-89496084D01*
X140712449Y-89508696D01*
X140566236Y-89486079D01*
X140542647Y-89478405D01*
X140414141Y-89411296D01*
X140318551Y-89311247D01*
X140253861Y-89175271D01*
X140218057Y-89000380D01*
X140217640Y-88996632D01*
X140214434Y-88806032D01*
X140227393Y-88738035D01*
X140480392Y-88738035D01*
X140503627Y-88748491D01*
X140566710Y-88756500D01*
X140659706Y-88761073D01*
X140718638Y-88761765D01*
X140828537Y-88761332D01*
X140897252Y-88758578D01*
X140933405Y-88751321D01*
X140945615Y-88737376D01*
X140942504Y-88714562D01*
X140939894Y-88705735D01*
X140895344Y-88622800D01*
X140825279Y-88555960D01*
X140763446Y-88526589D01*
X140681301Y-88528362D01*
X140598062Y-88564990D01*
X140528238Y-88625634D01*
X140486337Y-88699456D01*
X140480392Y-88738035D01*
X140227393Y-88738035D01*
X140246385Y-88638395D01*
X140309773Y-88497711D01*
X140400878Y-88387974D01*
X140515978Y-88313174D01*
X140651355Y-88277304D01*
X140803287Y-88284355D01*
G37*
X140803287Y-88284355D02*
X140867051Y-88299845D01*
X140989300Y-88356569D01*
X141093834Y-88443202D01*
X141166180Y-88547074D01*
X141176119Y-88570396D01*
X141189754Y-88631484D01*
X141199298Y-88721853D01*
X141202549Y-88813190D01*
X141202549Y-88985882D01*
X140841470Y-88985882D01*
X140692546Y-88986445D01*
X140587632Y-88989864D01*
X140520937Y-88998731D01*
X140486666Y-89015641D01*
X140479028Y-89043189D01*
X140492229Y-89083968D01*
X140515877Y-89131683D01*
X140581843Y-89211314D01*
X140673512Y-89250987D01*
X140785555Y-89249695D01*
X140912472Y-89206514D01*
X141022158Y-89153224D01*
X141113173Y-89225191D01*
X141204188Y-89297157D01*
X141118563Y-89376269D01*
X141004250Y-89451017D01*
X140863666Y-89496084D01*
X140712449Y-89508696D01*
X140566236Y-89486079D01*
X140542647Y-89478405D01*
X140414141Y-89411296D01*
X140318551Y-89311247D01*
X140253861Y-89175271D01*
X140218057Y-89000380D01*
X140217640Y-88996632D01*
X140214434Y-88806032D01*
X140227393Y-88738035D01*
X140480392Y-88738035D01*
X140503627Y-88748491D01*
X140566710Y-88756500D01*
X140659706Y-88761073D01*
X140718638Y-88761765D01*
X140828537Y-88761332D01*
X140897252Y-88758578D01*
X140933405Y-88751321D01*
X140945615Y-88737376D01*
X140942504Y-88714562D01*
X140939894Y-88705735D01*
X140895344Y-88622800D01*
X140825279Y-88555960D01*
X140763446Y-88526589D01*
X140681301Y-88528362D01*
X140598062Y-88564990D01*
X140528238Y-88625634D01*
X140486337Y-88699456D01*
X140480392Y-88738035D01*
X140227393Y-88738035D01*
X140246385Y-88638395D01*
X140309773Y-88497711D01*
X140400878Y-88387974D01*
X140515978Y-88313174D01*
X140651355Y-88277304D01*
X140803287Y-88284355D01*
G36*
X134006760Y-88309199D02*
G01*
X134068736Y-88338802D01*
X134128759Y-88381561D01*
X134174486Y-88430775D01*
X134207793Y-88493544D01*
X134230555Y-88576971D01*
X134244647Y-88688159D01*
X134251942Y-88834209D01*
X134254318Y-89022223D01*
X134254355Y-89041912D01*
X134254902Y-89483922D01*
X133980980Y-89483922D01*
X133980980Y-89076435D01*
X133980785Y-88925471D01*
X133979436Y-88816056D01*
X133975788Y-88739933D01*
X133968696Y-88688848D01*
X133957013Y-88654545D01*
X133939594Y-88628768D01*
X133915329Y-88603298D01*
X133830435Y-88548571D01*
X133737761Y-88538416D01*
X133649473Y-88573017D01*
X133618770Y-88598770D01*
X133596229Y-88622982D01*
X133580046Y-88648912D01*
X133569168Y-88684708D01*
X133562542Y-88738519D01*
X133559115Y-88818493D01*
X133557834Y-88932779D01*
X133557647Y-89071907D01*
X133557647Y-89483922D01*
X133283725Y-89483922D01*
X133283725Y-88288628D01*
X133420686Y-88288628D01*
X133502916Y-88291879D01*
X133545340Y-88303426D01*
X133557641Y-88325952D01*
X133557647Y-88326620D01*
X133563354Y-88348681D01*
X133588527Y-88346177D01*
X133638578Y-88321937D01*
X133752094Y-88286271D01*
X133881945Y-88282305D01*
X134006760Y-88309199D01*
G37*
X134006760Y-88309199D02*
X134068736Y-88338802D01*
X134128759Y-88381561D01*
X134174486Y-88430775D01*
X134207793Y-88493544D01*
X134230555Y-88576971D01*
X134244647Y-88688159D01*
X134251942Y-88834209D01*
X134254318Y-89022223D01*
X134254355Y-89041912D01*
X134254902Y-89483922D01*
X133980980Y-89483922D01*
X133980980Y-89076435D01*
X133980785Y-88925471D01*
X133979436Y-88816056D01*
X133975788Y-88739933D01*
X133968696Y-88688848D01*
X133957013Y-88654545D01*
X133939594Y-88628768D01*
X133915329Y-88603298D01*
X133830435Y-88548571D01*
X133737761Y-88538416D01*
X133649473Y-88573017D01*
X133618770Y-88598770D01*
X133596229Y-88622982D01*
X133580046Y-88648912D01*
X133569168Y-88684708D01*
X133562542Y-88738519D01*
X133559115Y-88818493D01*
X133557834Y-88932779D01*
X133557647Y-89071907D01*
X133557647Y-89483922D01*
X133283725Y-89483922D01*
X133283725Y-88288628D01*
X133420686Y-88288628D01*
X133502916Y-88291879D01*
X133545340Y-88303426D01*
X133557641Y-88325952D01*
X133557647Y-88326620D01*
X133563354Y-88348681D01*
X133588527Y-88346177D01*
X133638578Y-88321937D01*
X133752094Y-88286271D01*
X133881945Y-88282305D01*
X134006760Y-88309199D01*
G36*
X139063637Y-88287472D02*
G01*
X139149290Y-88313641D01*
X139204437Y-88346707D01*
X139222401Y-88372855D01*
X139217457Y-88403852D01*
X139185372Y-88452547D01*
X139158243Y-88487035D01*
X139102317Y-88549383D01*
X139060299Y-88575615D01*
X139024480Y-88573903D01*
X138918224Y-88546863D01*
X138840189Y-88548091D01*
X138776820Y-88578735D01*
X138755546Y-88596670D01*
X138687451Y-88659779D01*
X138687451Y-89483922D01*
X138413529Y-89483922D01*
X138413529Y-88288628D01*
X138550490Y-88288628D01*
X138632719Y-88291879D01*
X138675144Y-88303426D01*
X138687445Y-88325952D01*
X138687451Y-88326620D01*
X138693260Y-88350215D01*
X138719531Y-88347138D01*
X138755931Y-88330115D01*
X138831111Y-88298439D01*
X138892158Y-88279381D01*
X138970708Y-88274496D01*
X139063637Y-88287472D01*
G37*
X139063637Y-88287472D02*
X139149290Y-88313641D01*
X139204437Y-88346707D01*
X139222401Y-88372855D01*
X139217457Y-88403852D01*
X139185372Y-88452547D01*
X139158243Y-88487035D01*
X139102317Y-88549383D01*
X139060299Y-88575615D01*
X139024480Y-88573903D01*
X138918224Y-88546863D01*
X138840189Y-88548091D01*
X138776820Y-88578735D01*
X138755546Y-88596670D01*
X138687451Y-88659779D01*
X138687451Y-89483922D01*
X138413529Y-89483922D01*
X138413529Y-88288628D01*
X138550490Y-88288628D01*
X138632719Y-88291879D01*
X138675144Y-88303426D01*
X138687445Y-88325952D01*
X138687451Y-88326620D01*
X138693260Y-88350215D01*
X138719531Y-88347138D01*
X138755931Y-88330115D01*
X138831111Y-88298439D01*
X138892158Y-88279381D01*
X138970708Y-88274496D01*
X139063637Y-88287472D01*
G36*
X136246535Y-80033172D02*
G01*
X136359117Y-80630363D01*
X136774531Y-80801610D01*
X137189944Y-80972857D01*
X137688302Y-80633978D01*
X137827868Y-80539622D01*
X137954028Y-80455375D01*
X138060895Y-80385083D01*
X138142582Y-80332592D01*
X138193201Y-80301749D01*
X138206986Y-80295098D01*
X138231820Y-80312203D01*
X138284888Y-80359489D01*
X138360240Y-80430917D01*
X138451929Y-80520445D01*
X138554007Y-80622034D01*
X138660526Y-80729643D01*
X138765536Y-80837232D01*
X138863091Y-80938760D01*
X138947242Y-81028186D01*
X139012040Y-81099471D01*
X139051538Y-81146573D01*
X139060980Y-81162337D01*
X139047391Y-81191398D01*
X139009293Y-81255066D01*
X138950694Y-81347112D01*
X138875597Y-81461309D01*
X138788009Y-81591429D01*
X138737254Y-81665646D01*
X138644745Y-81801167D01*
X138562540Y-81923461D01*
X138494630Y-82026440D01*
X138445000Y-82104018D01*
X138417640Y-82150106D01*
X138413529Y-82159792D01*
X138422849Y-82187319D01*
X138448254Y-82251473D01*
X138485911Y-82343235D01*
X138531986Y-82453584D01*
X138582646Y-82573500D01*
X138634059Y-82693964D01*
X138682389Y-82805954D01*
X138723806Y-82900452D01*
X138754474Y-82968437D01*
X138770562Y-83000888D01*
X138771511Y-83002165D01*
X138796772Y-83008362D01*
X138864046Y-83022185D01*
X138966360Y-83042277D01*
X139096741Y-83067279D01*
X139248216Y-83095831D01*
X139336594Y-83112296D01*
X139498452Y-83143114D01*
X139644649Y-83172439D01*
X139767787Y-83198666D01*
X139860469Y-83220191D01*
X139915301Y-83235410D01*
X139926323Y-83240238D01*
X139937119Y-83272919D01*
X139945829Y-83346730D01*
X139952460Y-83453037D01*
X139957018Y-83583212D01*
X139959509Y-83728621D01*
X139959938Y-83880635D01*
X139958311Y-84030622D01*
X139954635Y-84169951D01*
X139948915Y-84289990D01*
X139941158Y-84382110D01*
X139931368Y-84437677D01*
X139925496Y-84449245D01*
X139890399Y-84463110D01*
X139816028Y-84482933D01*
X139712223Y-84506384D01*
X139588819Y-84531136D01*
X139545741Y-84539143D01*
X139338047Y-84577186D01*
X139173984Y-84607824D01*
X139048130Y-84632274D01*
X138955065Y-84651754D01*
X138889367Y-84667481D01*
X138845617Y-84680673D01*
X138818392Y-84692549D01*
X138802272Y-84704325D01*
X138800017Y-84706653D01*
X138777503Y-84744145D01*
X138743158Y-84817110D01*
X138700411Y-84916612D01*
X138652692Y-85033718D01*
X138603430Y-85159493D01*
X138556055Y-85285002D01*
X138513995Y-85401310D01*
X138480680Y-85499484D01*
X138459541Y-85570588D01*
X138454005Y-85605687D01*
X138454466Y-85606917D01*
X138473223Y-85635606D01*
X138515776Y-85698730D01*
X138577653Y-85789718D01*
X138654382Y-85902000D01*
X138741491Y-86029005D01*
X138766299Y-86065098D01*
X138854753Y-86195948D01*
X138932588Y-86315336D01*
X138995566Y-86416407D01*
X139039445Y-86492304D01*
X139059985Y-86536172D01*
X139060980Y-86541562D01*
X139043722Y-86569889D01*
X138996036Y-86626006D01*
X138924050Y-86703882D01*
X138833897Y-86797485D01*
X138731705Y-86900786D01*
X138623606Y-87007751D01*
X138515728Y-87112351D01*
X138414204Y-87208554D01*
X138325162Y-87290329D01*
X138254733Y-87351645D01*
X138209047Y-87386471D01*
X138196409Y-87392157D01*
X138166991Y-87378765D01*
X138106761Y-87342644D01*
X138025530Y-87289881D01*
X137963030Y-87247412D01*
X137849785Y-87169485D01*
X137715674Y-87077729D01*
X137581155Y-86986120D01*
X137508833Y-86937091D01*
X137264038Y-86771515D01*
X137058551Y-86882620D01*
X136964936Y-86931293D01*
X136885330Y-86969126D01*
X136831467Y-86990703D01*
X136817757Y-86993706D01*
X136801270Y-86971538D01*
X136768745Y-86908894D01*
X136722609Y-86811554D01*
X136665290Y-86685294D01*
X136599216Y-86535895D01*
X136526815Y-86369133D01*
X136450516Y-86190787D01*
X136372746Y-86006636D01*
X136295934Y-85822457D01*
X136222506Y-85644030D01*
X136154892Y-85477132D01*
X136095520Y-85327542D01*
X136046816Y-85201038D01*
X136011210Y-85103399D01*
X135991130Y-85040402D01*
X135987900Y-85018766D01*
X136013496Y-84991169D01*
X136069539Y-84946370D01*
X136144311Y-84893679D01*
X136150587Y-84889510D01*
X136343845Y-84734814D01*
X136499674Y-84554336D01*
X136616724Y-84353847D01*
X136693645Y-84139119D01*
X136729086Y-83915922D01*
X136721697Y-83690026D01*
X136670127Y-83467204D01*
X136573026Y-83253224D01*
X136544458Y-83206409D01*
X136395868Y-83017363D01*
X136220327Y-82865557D01*
X136023910Y-82751779D01*
X135812693Y-82676820D01*
X135592753Y-82641467D01*
X135370163Y-82646512D01*
X135151001Y-82692744D01*
X134941342Y-82780951D01*
X134747261Y-82911924D01*
X134687226Y-82965082D01*
X134534435Y-83131484D01*
X134423097Y-83306657D01*
X134346723Y-83503011D01*
X134304187Y-83697462D01*
X134293686Y-83916087D01*
X134328701Y-84135797D01*
X134405673Y-84349165D01*
X134521047Y-84548767D01*
X134671266Y-84727174D01*
X134852773Y-84876962D01*
X134876627Y-84892751D01*
X134952201Y-84944457D01*
X135009651Y-84989257D01*
X135037117Y-85017862D01*
X135037517Y-85018766D01*
X135031620Y-85049709D01*
X135008245Y-85119936D01*
X134969821Y-85223670D01*
X134918777Y-85355135D01*
X134857542Y-85508552D01*
X134788544Y-85678146D01*
X134714214Y-85858138D01*
X134636978Y-86042753D01*
X134559268Y-86226213D01*
X134483511Y-86402741D01*
X134412137Y-86566559D01*
X134347574Y-86711892D01*
X134292252Y-86832962D01*
X134248600Y-86923992D01*
X134219046Y-86979205D01*
X134207144Y-86993706D01*
X134170777Y-86982414D01*
X134102730Y-86952130D01*
X134014737Y-86908265D01*
X133966351Y-86882620D01*
X133760863Y-86771515D01*
X133516068Y-86937091D01*
X133391106Y-87021915D01*
X133254295Y-87115261D01*
X133126089Y-87203153D01*
X133061871Y-87247412D01*
X132971551Y-87308063D01*
X132895071Y-87356126D01*
X132842407Y-87385515D01*
X132825302Y-87391727D01*
X132800405Y-87374968D01*
X132745305Y-87328181D01*
X132665343Y-87256225D01*
X132565861Y-87163957D01*
X132452200Y-87056235D01*
X132380315Y-86987071D01*
X132254551Y-86863502D01*
X132145863Y-86752979D01*
X132058645Y-86660230D01*
X131997289Y-86589982D01*
X131966191Y-86546965D01*
X131963208Y-86538235D01*
X131977053Y-86505029D01*
X132015312Y-86437887D01*
X132073742Y-86343608D01*
X132148097Y-86228990D01*
X132234135Y-86100828D01*
X132258603Y-86065098D01*
X132347755Y-85935234D01*
X132427738Y-85818314D01*
X132494080Y-85720907D01*
X132542311Y-85649584D01*
X132567957Y-85610915D01*
X132570435Y-85606917D01*
X132566729Y-85576100D01*
X132547061Y-85508344D01*
X132514860Y-85412584D01*
X132473555Y-85297754D01*
X132426575Y-85172789D01*
X132377349Y-85046624D01*
X132329308Y-84928193D01*
X132285881Y-84826430D01*
X132250496Y-84750271D01*
X132226584Y-84708649D01*
X132224884Y-84706653D01*
X132210262Y-84694758D01*
X132185565Y-84682995D01*
X132145372Y-84670146D01*
X132084263Y-84654994D01*
X131996817Y-84636321D01*
X131877612Y-84612910D01*
X131721227Y-84583542D01*
X131522243Y-84547000D01*
X131479160Y-84539143D01*
X131351471Y-84514472D01*
X131240153Y-84490338D01*
X131155045Y-84469069D01*
X131105983Y-84452993D01*
X131099405Y-84449245D01*
X131088564Y-84416018D01*
X131079753Y-84341766D01*
X131072976Y-84235121D01*
X131068240Y-84104712D01*
X131065550Y-83959172D01*
X131064913Y-83807131D01*
X131066334Y-83657221D01*
X131069820Y-83518073D01*
X131075376Y-83398317D01*
X131083008Y-83306586D01*
X131092722Y-83251511D01*
X131098578Y-83240238D01*
X131131180Y-83228868D01*
X131205418Y-83210369D01*
X131313896Y-83186347D01*
X131449217Y-83158407D01*
X131603985Y-83128153D01*
X131688308Y-83112296D01*
X131848296Y-83082389D01*
X131990967Y-83055295D01*
X132109348Y-83032376D01*
X132196465Y-83014988D01*
X132245345Y-83004492D01*
X132253390Y-83002165D01*
X132266987Y-82975931D01*
X132295729Y-82912740D01*
X132335785Y-82821622D01*
X132383324Y-82711602D01*
X132434515Y-82591710D01*
X132485526Y-82470972D01*
X132532526Y-82358416D01*
X132571684Y-82263071D01*
X132599169Y-82193962D01*
X132611149Y-82160119D01*
X132611372Y-82158640D01*
X132597791Y-82131942D01*
X132559715Y-82070505D01*
X132501147Y-81980434D01*
X132426088Y-81867835D01*
X132338540Y-81738815D01*
X132287647Y-81664706D01*
X132194909Y-81528822D01*
X132112541Y-81405454D01*
X132044561Y-81300842D01*
X131994988Y-81221228D01*
X131967842Y-81172852D01*
X131963921Y-81162007D01*
X131980775Y-81136765D01*
X132027368Y-81082869D01*
X132097749Y-81006358D01*
X132185965Y-80913268D01*
X132286065Y-80809640D01*
X132392098Y-80701509D01*
X132498111Y-80594915D01*
X132598152Y-80495895D01*
X132686270Y-80410487D01*
X132756513Y-80344730D01*
X132802928Y-80304661D01*
X132818456Y-80295098D01*
X132843739Y-80308545D01*
X132904211Y-80346320D01*
X132993992Y-80404580D01*
X133107203Y-80479479D01*
X133237964Y-80567170D01*
X133336600Y-80633978D01*
X133834957Y-80972857D01*
X134250371Y-80801610D01*
X134665784Y-80630363D01*
X134778366Y-80033172D01*
X134890949Y-79435980D01*
X136133952Y-79435980D01*
X136246535Y-80033172D01*
G37*
X136246535Y-80033172D02*
X136359117Y-80630363D01*
X136774531Y-80801610D01*
X137189944Y-80972857D01*
X137688302Y-80633978D01*
X137827868Y-80539622D01*
X137954028Y-80455375D01*
X138060895Y-80385083D01*
X138142582Y-80332592D01*
X138193201Y-80301749D01*
X138206986Y-80295098D01*
X138231820Y-80312203D01*
X138284888Y-80359489D01*
X138360240Y-80430917D01*
X138451929Y-80520445D01*
X138554007Y-80622034D01*
X138660526Y-80729643D01*
X138765536Y-80837232D01*
X138863091Y-80938760D01*
X138947242Y-81028186D01*
X139012040Y-81099471D01*
X139051538Y-81146573D01*
X139060980Y-81162337D01*
X139047391Y-81191398D01*
X139009293Y-81255066D01*
X138950694Y-81347112D01*
X138875597Y-81461309D01*
X138788009Y-81591429D01*
X138737254Y-81665646D01*
X138644745Y-81801167D01*
X138562540Y-81923461D01*
X138494630Y-82026440D01*
X138445000Y-82104018D01*
X138417640Y-82150106D01*
X138413529Y-82159792D01*
X138422849Y-82187319D01*
X138448254Y-82251473D01*
X138485911Y-82343235D01*
X138531986Y-82453584D01*
X138582646Y-82573500D01*
X138634059Y-82693964D01*
X138682389Y-82805954D01*
X138723806Y-82900452D01*
X138754474Y-82968437D01*
X138770562Y-83000888D01*
X138771511Y-83002165D01*
X138796772Y-83008362D01*
X138864046Y-83022185D01*
X138966360Y-83042277D01*
X139096741Y-83067279D01*
X139248216Y-83095831D01*
X139336594Y-83112296D01*
X139498452Y-83143114D01*
X139644649Y-83172439D01*
X139767787Y-83198666D01*
X139860469Y-83220191D01*
X139915301Y-83235410D01*
X139926323Y-83240238D01*
X139937119Y-83272919D01*
X139945829Y-83346730D01*
X139952460Y-83453037D01*
X139957018Y-83583212D01*
X139959509Y-83728621D01*
X139959938Y-83880635D01*
X139958311Y-84030622D01*
X139954635Y-84169951D01*
X139948915Y-84289990D01*
X139941158Y-84382110D01*
X139931368Y-84437677D01*
X139925496Y-84449245D01*
X139890399Y-84463110D01*
X139816028Y-84482933D01*
X139712223Y-84506384D01*
X139588819Y-84531136D01*
X139545741Y-84539143D01*
X139338047Y-84577186D01*
X139173984Y-84607824D01*
X139048130Y-84632274D01*
X138955065Y-84651754D01*
X138889367Y-84667481D01*
X138845617Y-84680673D01*
X138818392Y-84692549D01*
X138802272Y-84704325D01*
X138800017Y-84706653D01*
X138777503Y-84744145D01*
X138743158Y-84817110D01*
X138700411Y-84916612D01*
X138652692Y-85033718D01*
X138603430Y-85159493D01*
X138556055Y-85285002D01*
X138513995Y-85401310D01*
X138480680Y-85499484D01*
X138459541Y-85570588D01*
X138454005Y-85605687D01*
X138454466Y-85606917D01*
X138473223Y-85635606D01*
X138515776Y-85698730D01*
X138577653Y-85789718D01*
X138654382Y-85902000D01*
X138741491Y-86029005D01*
X138766299Y-86065098D01*
X138854753Y-86195948D01*
X138932588Y-86315336D01*
X138995566Y-86416407D01*
X139039445Y-86492304D01*
X139059985Y-86536172D01*
X139060980Y-86541562D01*
X139043722Y-86569889D01*
X138996036Y-86626006D01*
X138924050Y-86703882D01*
X138833897Y-86797485D01*
X138731705Y-86900786D01*
X138623606Y-87007751D01*
X138515728Y-87112351D01*
X138414204Y-87208554D01*
X138325162Y-87290329D01*
X138254733Y-87351645D01*
X138209047Y-87386471D01*
X138196409Y-87392157D01*
X138166991Y-87378765D01*
X138106761Y-87342644D01*
X138025530Y-87289881D01*
X137963030Y-87247412D01*
X137849785Y-87169485D01*
X137715674Y-87077729D01*
X137581155Y-86986120D01*
X137508833Y-86937091D01*
X137264038Y-86771515D01*
X137058551Y-86882620D01*
X136964936Y-86931293D01*
X136885330Y-86969126D01*
X136831467Y-86990703D01*
X136817757Y-86993706D01*
X136801270Y-86971538D01*
X136768745Y-86908894D01*
X136722609Y-86811554D01*
X136665290Y-86685294D01*
X136599216Y-86535895D01*
X136526815Y-86369133D01*
X136450516Y-86190787D01*
X136372746Y-86006636D01*
X136295934Y-85822457D01*
X136222506Y-85644030D01*
X136154892Y-85477132D01*
X136095520Y-85327542D01*
X136046816Y-85201038D01*
X136011210Y-85103399D01*
X135991130Y-85040402D01*
X135987900Y-85018766D01*
X136013496Y-84991169D01*
X136069539Y-84946370D01*
X136144311Y-84893679D01*
X136150587Y-84889510D01*
X136343845Y-84734814D01*
X136499674Y-84554336D01*
X136616724Y-84353847D01*
X136693645Y-84139119D01*
X136729086Y-83915922D01*
X136721697Y-83690026D01*
X136670127Y-83467204D01*
X136573026Y-83253224D01*
X136544458Y-83206409D01*
X136395868Y-83017363D01*
X136220327Y-82865557D01*
X136023910Y-82751779D01*
X135812693Y-82676820D01*
X135592753Y-82641467D01*
X135370163Y-82646512D01*
X135151001Y-82692744D01*
X134941342Y-82780951D01*
X134747261Y-82911924D01*
X134687226Y-82965082D01*
X134534435Y-83131484D01*
X134423097Y-83306657D01*
X134346723Y-83503011D01*
X134304187Y-83697462D01*
X134293686Y-83916087D01*
X134328701Y-84135797D01*
X134405673Y-84349165D01*
X134521047Y-84548767D01*
X134671266Y-84727174D01*
X134852773Y-84876962D01*
X134876627Y-84892751D01*
X134952201Y-84944457D01*
X135009651Y-84989257D01*
X135037117Y-85017862D01*
X135037517Y-85018766D01*
X135031620Y-85049709D01*
X135008245Y-85119936D01*
X134969821Y-85223670D01*
X134918777Y-85355135D01*
X134857542Y-85508552D01*
X134788544Y-85678146D01*
X134714214Y-85858138D01*
X134636978Y-86042753D01*
X134559268Y-86226213D01*
X134483511Y-86402741D01*
X134412137Y-86566559D01*
X134347574Y-86711892D01*
X134292252Y-86832962D01*
X134248600Y-86923992D01*
X134219046Y-86979205D01*
X134207144Y-86993706D01*
X134170777Y-86982414D01*
X134102730Y-86952130D01*
X134014737Y-86908265D01*
X133966351Y-86882620D01*
X133760863Y-86771515D01*
X133516068Y-86937091D01*
X133391106Y-87021915D01*
X133254295Y-87115261D01*
X133126089Y-87203153D01*
X133061871Y-87247412D01*
X132971551Y-87308063D01*
X132895071Y-87356126D01*
X132842407Y-87385515D01*
X132825302Y-87391727D01*
X132800405Y-87374968D01*
X132745305Y-87328181D01*
X132665343Y-87256225D01*
X132565861Y-87163957D01*
X132452200Y-87056235D01*
X132380315Y-86987071D01*
X132254551Y-86863502D01*
X132145863Y-86752979D01*
X132058645Y-86660230D01*
X131997289Y-86589982D01*
X131966191Y-86546965D01*
X131963208Y-86538235D01*
X131977053Y-86505029D01*
X132015312Y-86437887D01*
X132073742Y-86343608D01*
X132148097Y-86228990D01*
X132234135Y-86100828D01*
X132258603Y-86065098D01*
X132347755Y-85935234D01*
X132427738Y-85818314D01*
X132494080Y-85720907D01*
X132542311Y-85649584D01*
X132567957Y-85610915D01*
X132570435Y-85606917D01*
X132566729Y-85576100D01*
X132547061Y-85508344D01*
X132514860Y-85412584D01*
X132473555Y-85297754D01*
X132426575Y-85172789D01*
X132377349Y-85046624D01*
X132329308Y-84928193D01*
X132285881Y-84826430D01*
X132250496Y-84750271D01*
X132226584Y-84708649D01*
X132224884Y-84706653D01*
X132210262Y-84694758D01*
X132185565Y-84682995D01*
X132145372Y-84670146D01*
X132084263Y-84654994D01*
X131996817Y-84636321D01*
X131877612Y-84612910D01*
X131721227Y-84583542D01*
X131522243Y-84547000D01*
X131479160Y-84539143D01*
X131351471Y-84514472D01*
X131240153Y-84490338D01*
X131155045Y-84469069D01*
X131105983Y-84452993D01*
X131099405Y-84449245D01*
X131088564Y-84416018D01*
X131079753Y-84341766D01*
X131072976Y-84235121D01*
X131068240Y-84104712D01*
X131065550Y-83959172D01*
X131064913Y-83807131D01*
X131066334Y-83657221D01*
X131069820Y-83518073D01*
X131075376Y-83398317D01*
X131083008Y-83306586D01*
X131092722Y-83251511D01*
X131098578Y-83240238D01*
X131131180Y-83228868D01*
X131205418Y-83210369D01*
X131313896Y-83186347D01*
X131449217Y-83158407D01*
X131603985Y-83128153D01*
X131688308Y-83112296D01*
X131848296Y-83082389D01*
X131990967Y-83055295D01*
X132109348Y-83032376D01*
X132196465Y-83014988D01*
X132245345Y-83004492D01*
X132253390Y-83002165D01*
X132266987Y-82975931D01*
X132295729Y-82912740D01*
X132335785Y-82821622D01*
X132383324Y-82711602D01*
X132434515Y-82591710D01*
X132485526Y-82470972D01*
X132532526Y-82358416D01*
X132571684Y-82263071D01*
X132599169Y-82193962D01*
X132611149Y-82160119D01*
X132611372Y-82158640D01*
X132597791Y-82131942D01*
X132559715Y-82070505D01*
X132501147Y-81980434D01*
X132426088Y-81867835D01*
X132338540Y-81738815D01*
X132287647Y-81664706D01*
X132194909Y-81528822D01*
X132112541Y-81405454D01*
X132044561Y-81300842D01*
X131994988Y-81221228D01*
X131967842Y-81172852D01*
X131963921Y-81162007D01*
X131980775Y-81136765D01*
X132027368Y-81082869D01*
X132097749Y-81006358D01*
X132185965Y-80913268D01*
X132286065Y-80809640D01*
X132392098Y-80701509D01*
X132498111Y-80594915D01*
X132598152Y-80495895D01*
X132686270Y-80410487D01*
X132756513Y-80344730D01*
X132802928Y-80304661D01*
X132818456Y-80295098D01*
X132843739Y-80308545D01*
X132904211Y-80346320D01*
X132993992Y-80404580D01*
X133107203Y-80479479D01*
X133237964Y-80567170D01*
X133336600Y-80633978D01*
X133834957Y-80972857D01*
X134250371Y-80801610D01*
X134665784Y-80630363D01*
X134778366Y-80033172D01*
X134890949Y-79435980D01*
X136133952Y-79435980D01*
X136246535Y-80033172D01*
D15*
%TO.C,C1*%
X136034051Y-68237198D02*
X135827198Y-68444051D01*
X135312802Y-67515949D02*
X135105949Y-67722802D01*
%TO.C,C2*%
X139782802Y-63055949D02*
X139575949Y-63262802D01*
X140504051Y-63777198D02*
X140297198Y-63984051D01*
%TO.C,C3*%
X152132802Y-68434051D02*
X151925949Y-68227198D01*
X152854051Y-67712802D02*
X152647198Y-67505949D01*
%TO.C,C4*%
X147947198Y-80984051D02*
X148154051Y-80777198D01*
X147225949Y-80262802D02*
X147432802Y-80055949D01*
%TO.C,C5*%
X129890000Y-74603733D02*
X129890000Y-74896267D01*
X130910000Y-74603733D02*
X130910000Y-74896267D01*
%TO.C,C6*%
X134620000Y-76500000D02*
X134620000Y-72115000D01*
X134620000Y-72115000D02*
X131600000Y-72115000D01*
X131600000Y-72115000D02*
X131600000Y-76500000D01*
%TO.C,C7*%
X121616267Y-76080000D02*
X121323733Y-76080000D01*
X121616267Y-75060000D02*
X121323733Y-75060000D01*
%TO.C,C8*%
X137774457Y-64194990D02*
X137404990Y-64564457D01*
X136735010Y-63155543D02*
X136365543Y-63525010D01*
%TO.C,C9*%
X147473733Y-71040000D02*
X147766267Y-71040000D01*
X147473733Y-72060000D02*
X147766267Y-72060000D01*
%TO.C,C10*%
X143813733Y-68520000D02*
X144106267Y-68520000D01*
X143813733Y-67500000D02*
X144106267Y-67500000D01*
%TO.C,C11*%
X168623733Y-64680000D02*
X168916267Y-64680000D01*
X168623733Y-65700000D02*
X168916267Y-65700000D01*
%TO.C,C12*%
X163503733Y-76590000D02*
X163796267Y-76590000D01*
X163503733Y-77610000D02*
X163796267Y-77610000D01*
%TO.C,C13*%
X157933733Y-66920000D02*
X158226267Y-66920000D01*
X157933733Y-65900000D02*
X158226267Y-65900000D01*
%TO.C,C14*%
X155565000Y-70440000D02*
X159950000Y-70440000D01*
X155565000Y-67420000D02*
X155565000Y-70440000D01*
X159950000Y-67420000D02*
X155565000Y-67420000D01*
%TO.C,J5*%
X138030000Y-58560000D02*
X137010000Y-58560000D01*
X138030000Y-53360000D02*
X137010000Y-53360000D01*
X140570000Y-58560000D02*
X139550000Y-58560000D01*
X140570000Y-53360000D02*
X139550000Y-53360000D01*
X143110000Y-58560000D02*
X142090000Y-58560000D01*
X143110000Y-53360000D02*
X142090000Y-53360000D01*
X145650000Y-58560000D02*
X144630000Y-58560000D01*
X145650000Y-53360000D02*
X144630000Y-53360000D01*
X135490000Y-58560000D02*
X134920000Y-58560000D01*
X135490000Y-53360000D02*
X134920000Y-53360000D01*
X147740000Y-58560000D02*
X147170000Y-58560000D01*
X147740000Y-53360000D02*
X147170000Y-53360000D01*
X147170000Y-51920000D02*
X147170000Y-53360000D01*
X134920000Y-53360000D02*
X134920000Y-58560000D01*
X147740000Y-53360000D02*
X147740000Y-58560000D01*
%TO.C,L1*%
X129040000Y-74538748D02*
X129040000Y-75061252D01*
X127620000Y-74538748D02*
X127620000Y-75061252D01*
%TO.C,LD1*%
X119690000Y-58905000D02*
X115630000Y-58905000D01*
X115630000Y-58905000D02*
X115630000Y-61175000D01*
X115630000Y-61175000D02*
X119690000Y-61175000D01*
%TO.C,R1*%
X125304724Y-72497500D02*
X124795276Y-72497500D01*
X125304724Y-73542500D02*
X124795276Y-73542500D01*
%TO.C,R2*%
X132845276Y-77817500D02*
X133354724Y-77817500D01*
X132845276Y-78862500D02*
X133354724Y-78862500D01*
%TO.C,R4*%
X163245276Y-70377500D02*
X163754724Y-70377500D01*
X163245276Y-71422500D02*
X163754724Y-71422500D01*
%TO.C,R5*%
X163245276Y-73022500D02*
X163754724Y-73022500D01*
X163245276Y-71977500D02*
X163754724Y-71977500D01*
%TO.C,R7*%
X117855276Y-61807500D02*
X118364724Y-61807500D01*
X117855276Y-62852500D02*
X118364724Y-62852500D01*
D13*
%TO.C,SW1*%
X118230000Y-77075000D02*
G75*
G03*
X118230000Y-77075000I-100000J0D01*
G01*
X124880000Y-80650000D02*
X124880000Y-79700000D01*
X118680000Y-80650000D02*
X124880000Y-80650000D01*
X118680000Y-79700000D02*
X118680000Y-80650000D01*
X124880000Y-76550000D02*
X124880000Y-77500000D01*
X118680000Y-76550000D02*
X124880000Y-76550000D01*
X118680000Y-77500000D02*
X118680000Y-76550000D01*
D15*
%TO.C,U2*%
X161040000Y-73430000D02*
X159780000Y-73430000D01*
X154220000Y-73430000D02*
X155480000Y-73430000D01*
X161040000Y-77190000D02*
X161040000Y-73430000D01*
X154220000Y-79440000D02*
X154220000Y-73430000D01*
%TO.C,Y1*%
X149320738Y-76014493D02*
X140411192Y-67104948D01*
X145714493Y-79620738D02*
X149320738Y-76014493D01*
X136804948Y-70711192D02*
X145714493Y-79620738D01*
%TO.C,JP1*%
X114080000Y-80320000D02*
X116740000Y-80320000D01*
X114080000Y-77720000D02*
X114080000Y-80320000D01*
X116740000Y-77720000D02*
X116740000Y-80320000D01*
X114080000Y-77720000D02*
X116740000Y-77720000D01*
X114080000Y-76450000D02*
X114080000Y-75120000D01*
X114080000Y-75120000D02*
X115410000Y-75120000D01*
%TO.C,LD2*%
X116690000Y-82830000D02*
X113830000Y-82830000D01*
X113830000Y-82830000D02*
X113830000Y-84750000D01*
X113830000Y-84750000D02*
X116690000Y-84750000D01*
%TO.C,R8*%
X115505276Y-85337500D02*
X116014724Y-85337500D01*
X115505276Y-86382500D02*
X116014724Y-86382500D01*
%TO.C,R9*%
X119597500Y-85884724D02*
X119597500Y-85375276D01*
X120642500Y-85884724D02*
X120642500Y-85375276D01*
%TO.C,J3*%
D10*
X173266666Y-77252380D02*
X173266666Y-77966666D01*
X173219047Y-78109523D01*
X173123809Y-78204761D01*
X172980952Y-78252380D01*
X172885714Y-78252380D01*
X173647619Y-77252380D02*
X174266666Y-77252380D01*
X173933333Y-77633333D01*
X174076190Y-77633333D01*
X174171428Y-77680952D01*
X174219047Y-77728571D01*
X174266666Y-77823809D01*
X174266666Y-78061904D01*
X174219047Y-78157142D01*
X174171428Y-78204761D01*
X174076190Y-78252380D01*
X173790476Y-78252380D01*
X173695238Y-78204761D01*
X173647619Y-78157142D01*
%TO.C,J1*%
X173076666Y-84162380D02*
X173076666Y-84876666D01*
X173029047Y-85019523D01*
X172933809Y-85114761D01*
X172790952Y-85162380D01*
X172695714Y-85162380D01*
X174076666Y-85162380D02*
X173505238Y-85162380D01*
X173790952Y-85162380D02*
X173790952Y-84162380D01*
X173695714Y-84305238D01*
X173600476Y-84400476D01*
X173505238Y-84448095D01*
%TO.C,C1*%
X136715850Y-69361552D02*
X136715850Y-69428895D01*
X136648506Y-69563582D01*
X136581163Y-69630926D01*
X136446475Y-69698269D01*
X136311788Y-69698269D01*
X136210773Y-69664598D01*
X136042414Y-69563582D01*
X135941399Y-69462567D01*
X135840384Y-69294208D01*
X135806712Y-69193193D01*
X135806712Y-69058506D01*
X135874056Y-68923819D01*
X135941399Y-68856475D01*
X136076086Y-68789132D01*
X136143430Y-68789132D01*
X137456628Y-68755460D02*
X137052567Y-69159521D01*
X137254598Y-68957491D02*
X136547491Y-68250384D01*
X136581163Y-68418743D01*
X136581163Y-68553430D01*
X136547491Y-68654445D01*
%TO.C,C2*%
X141185850Y-64901552D02*
X141185850Y-64968895D01*
X141118506Y-65103582D01*
X141051163Y-65170926D01*
X140916475Y-65238269D01*
X140781788Y-65238269D01*
X140680773Y-65204598D01*
X140512414Y-65103582D01*
X140411399Y-65002567D01*
X140310384Y-64834208D01*
X140276712Y-64733193D01*
X140276712Y-64598506D01*
X140344056Y-64463819D01*
X140411399Y-64396475D01*
X140546086Y-64329132D01*
X140613430Y-64329132D01*
X140882804Y-64059758D02*
X140882804Y-63992414D01*
X140916475Y-63891399D01*
X141084834Y-63723040D01*
X141185850Y-63689369D01*
X141253193Y-63689369D01*
X141354208Y-63723040D01*
X141421552Y-63790384D01*
X141488895Y-63925071D01*
X141488895Y-64733193D01*
X141926628Y-64295460D01*
%TO.C,C3*%
X150949610Y-69104687D02*
X150882267Y-69104687D01*
X150747580Y-69037343D01*
X150680236Y-68970000D01*
X150612893Y-68835312D01*
X150612893Y-68700625D01*
X150646564Y-68599610D01*
X150747580Y-68431251D01*
X150848595Y-68330236D01*
X151016954Y-68229221D01*
X151117969Y-68195549D01*
X151252656Y-68195549D01*
X151387343Y-68262893D01*
X151454687Y-68330236D01*
X151522030Y-68464923D01*
X151522030Y-68532267D01*
X151825076Y-68700625D02*
X152262809Y-69138358D01*
X151757732Y-69172030D01*
X151858748Y-69273045D01*
X151892419Y-69374061D01*
X151892419Y-69441404D01*
X151858748Y-69542419D01*
X151690389Y-69710778D01*
X151589374Y-69744450D01*
X151522030Y-69744450D01*
X151421015Y-69710778D01*
X151218984Y-69508748D01*
X151185312Y-69407732D01*
X151185312Y-69340389D01*
%TO.C,C4*%
X149014687Y-81930389D02*
X149014687Y-81997732D01*
X148947343Y-82132419D01*
X148880000Y-82199763D01*
X148745312Y-82267106D01*
X148610625Y-82267106D01*
X148509610Y-82233435D01*
X148341251Y-82132419D01*
X148240236Y-82031404D01*
X148139221Y-81863045D01*
X148105549Y-81762030D01*
X148105549Y-81627343D01*
X148172893Y-81492656D01*
X148240236Y-81425312D01*
X148374923Y-81357969D01*
X148442267Y-81357969D01*
X149216717Y-80920236D02*
X149688122Y-81391641D01*
X148778984Y-80819221D02*
X149115702Y-81492656D01*
X149553435Y-81054923D01*
%TO.C,C5*%
X130153333Y-72697142D02*
X130105714Y-72744761D01*
X129962857Y-72792380D01*
X129867619Y-72792380D01*
X129724761Y-72744761D01*
X129629523Y-72649523D01*
X129581904Y-72554285D01*
X129534285Y-72363809D01*
X129534285Y-72220952D01*
X129581904Y-72030476D01*
X129629523Y-71935238D01*
X129724761Y-71840000D01*
X129867619Y-71792380D01*
X129962857Y-71792380D01*
X130105714Y-71840000D01*
X130153333Y-71887619D01*
X131058095Y-71792380D02*
X130581904Y-71792380D01*
X130534285Y-72268571D01*
X130581904Y-72220952D01*
X130677142Y-72173333D01*
X130915238Y-72173333D01*
X131010476Y-72220952D01*
X131058095Y-72268571D01*
X131105714Y-72363809D01*
X131105714Y-72601904D01*
X131058095Y-72697142D01*
X131010476Y-72744761D01*
X130915238Y-72792380D01*
X130677142Y-72792380D01*
X130581904Y-72744761D01*
X130534285Y-72697142D01*
%TO.C,C6*%
X132813333Y-71767142D02*
X132765714Y-71814761D01*
X132622857Y-71862380D01*
X132527619Y-71862380D01*
X132384761Y-71814761D01*
X132289523Y-71719523D01*
X132241904Y-71624285D01*
X132194285Y-71433809D01*
X132194285Y-71290952D01*
X132241904Y-71100476D01*
X132289523Y-71005238D01*
X132384761Y-70910000D01*
X132527619Y-70862380D01*
X132622857Y-70862380D01*
X132765714Y-70910000D01*
X132813333Y-70957619D01*
X133670476Y-70862380D02*
X133480000Y-70862380D01*
X133384761Y-70910000D01*
X133337142Y-70957619D01*
X133241904Y-71100476D01*
X133194285Y-71290952D01*
X133194285Y-71671904D01*
X133241904Y-71767142D01*
X133289523Y-71814761D01*
X133384761Y-71862380D01*
X133575238Y-71862380D01*
X133670476Y-71814761D01*
X133718095Y-71767142D01*
X133765714Y-71671904D01*
X133765714Y-71433809D01*
X133718095Y-71338571D01*
X133670476Y-71290952D01*
X133575238Y-71243333D01*
X133384761Y-71243333D01*
X133289523Y-71290952D01*
X133241904Y-71338571D01*
X133194285Y-71433809D01*
%TO.C,C7*%
X121253333Y-74467142D02*
X121205714Y-74514761D01*
X121062857Y-74562380D01*
X120967619Y-74562380D01*
X120824761Y-74514761D01*
X120729523Y-74419523D01*
X120681904Y-74324285D01*
X120634285Y-74133809D01*
X120634285Y-73990952D01*
X120681904Y-73800476D01*
X120729523Y-73705238D01*
X120824761Y-73610000D01*
X120967619Y-73562380D01*
X121062857Y-73562380D01*
X121205714Y-73610000D01*
X121253333Y-73657619D01*
X121586666Y-73562380D02*
X122253333Y-73562380D01*
X121824761Y-74562380D01*
%TO.C,C8*%
X135724687Y-63300389D02*
X135724687Y-63367732D01*
X135657343Y-63502419D01*
X135590000Y-63569763D01*
X135455312Y-63637106D01*
X135320625Y-63637106D01*
X135219610Y-63603435D01*
X135051251Y-63502419D01*
X134950236Y-63401404D01*
X134849221Y-63233045D01*
X134815549Y-63132030D01*
X134815549Y-62997343D01*
X134882893Y-62862656D01*
X134950236Y-62795312D01*
X135084923Y-62727969D01*
X135152267Y-62727969D01*
X135792030Y-62559610D02*
X135691015Y-62593282D01*
X135623671Y-62593282D01*
X135522656Y-62559610D01*
X135488984Y-62525938D01*
X135455312Y-62424923D01*
X135455312Y-62357580D01*
X135488984Y-62256564D01*
X135623671Y-62121877D01*
X135724687Y-62088206D01*
X135792030Y-62088206D01*
X135893045Y-62121877D01*
X135926717Y-62155549D01*
X135960389Y-62256564D01*
X135960389Y-62323908D01*
X135926717Y-62424923D01*
X135792030Y-62559610D01*
X135758358Y-62660625D01*
X135758358Y-62727969D01*
X135792030Y-62828984D01*
X135926717Y-62963671D01*
X136027732Y-62997343D01*
X136095076Y-62997343D01*
X136196091Y-62963671D01*
X136330778Y-62828984D01*
X136364450Y-62727969D01*
X136364450Y-62660625D01*
X136330778Y-62559610D01*
X136196091Y-62424923D01*
X136095076Y-62391251D01*
X136027732Y-62391251D01*
X135926717Y-62424923D01*
%TO.C,C9*%
X147453333Y-70477142D02*
X147405714Y-70524761D01*
X147262857Y-70572380D01*
X147167619Y-70572380D01*
X147024761Y-70524761D01*
X146929523Y-70429523D01*
X146881904Y-70334285D01*
X146834285Y-70143809D01*
X146834285Y-70000952D01*
X146881904Y-69810476D01*
X146929523Y-69715238D01*
X147024761Y-69620000D01*
X147167619Y-69572380D01*
X147262857Y-69572380D01*
X147405714Y-69620000D01*
X147453333Y-69667619D01*
X147929523Y-70572380D02*
X148120000Y-70572380D01*
X148215238Y-70524761D01*
X148262857Y-70477142D01*
X148358095Y-70334285D01*
X148405714Y-70143809D01*
X148405714Y-69762857D01*
X148358095Y-69667619D01*
X148310476Y-69620000D01*
X148215238Y-69572380D01*
X148024761Y-69572380D01*
X147929523Y-69620000D01*
X147881904Y-69667619D01*
X147834285Y-69762857D01*
X147834285Y-70000952D01*
X147881904Y-70096190D01*
X147929523Y-70143809D01*
X148024761Y-70191428D01*
X148215238Y-70191428D01*
X148310476Y-70143809D01*
X148358095Y-70096190D01*
X148405714Y-70000952D01*
%TO.C,C10*%
X146547142Y-68407142D02*
X146499523Y-68454761D01*
X146356666Y-68502380D01*
X146261428Y-68502380D01*
X146118571Y-68454761D01*
X146023333Y-68359523D01*
X145975714Y-68264285D01*
X145928095Y-68073809D01*
X145928095Y-67930952D01*
X145975714Y-67740476D01*
X146023333Y-67645238D01*
X146118571Y-67550000D01*
X146261428Y-67502380D01*
X146356666Y-67502380D01*
X146499523Y-67550000D01*
X146547142Y-67597619D01*
X147499523Y-68502380D02*
X146928095Y-68502380D01*
X147213809Y-68502380D02*
X147213809Y-67502380D01*
X147118571Y-67645238D01*
X147023333Y-67740476D01*
X146928095Y-67788095D01*
X148118571Y-67502380D02*
X148213809Y-67502380D01*
X148309047Y-67550000D01*
X148356666Y-67597619D01*
X148404285Y-67692857D01*
X148451904Y-67883333D01*
X148451904Y-68121428D01*
X148404285Y-68311904D01*
X148356666Y-68407142D01*
X148309047Y-68454761D01*
X148213809Y-68502380D01*
X148118571Y-68502380D01*
X148023333Y-68454761D01*
X147975714Y-68407142D01*
X147928095Y-68311904D01*
X147880476Y-68121428D01*
X147880476Y-67883333D01*
X147928095Y-67692857D01*
X147975714Y-67597619D01*
X148023333Y-67550000D01*
X148118571Y-67502380D01*
%TO.C,C11*%
X168127142Y-64117142D02*
X168079523Y-64164761D01*
X167936666Y-64212380D01*
X167841428Y-64212380D01*
X167698571Y-64164761D01*
X167603333Y-64069523D01*
X167555714Y-63974285D01*
X167508095Y-63783809D01*
X167508095Y-63640952D01*
X167555714Y-63450476D01*
X167603333Y-63355238D01*
X167698571Y-63260000D01*
X167841428Y-63212380D01*
X167936666Y-63212380D01*
X168079523Y-63260000D01*
X168127142Y-63307619D01*
X169079523Y-64212380D02*
X168508095Y-64212380D01*
X168793809Y-64212380D02*
X168793809Y-63212380D01*
X168698571Y-63355238D01*
X168603333Y-63450476D01*
X168508095Y-63498095D01*
X170031904Y-64212380D02*
X169460476Y-64212380D01*
X169746190Y-64212380D02*
X169746190Y-63212380D01*
X169650952Y-63355238D01*
X169555714Y-63450476D01*
X169460476Y-63498095D01*
%TO.C,C12*%
X163057142Y-78947142D02*
X163009523Y-78994761D01*
X162866666Y-79042380D01*
X162771428Y-79042380D01*
X162628571Y-78994761D01*
X162533333Y-78899523D01*
X162485714Y-78804285D01*
X162438095Y-78613809D01*
X162438095Y-78470952D01*
X162485714Y-78280476D01*
X162533333Y-78185238D01*
X162628571Y-78090000D01*
X162771428Y-78042380D01*
X162866666Y-78042380D01*
X163009523Y-78090000D01*
X163057142Y-78137619D01*
X164009523Y-79042380D02*
X163438095Y-79042380D01*
X163723809Y-79042380D02*
X163723809Y-78042380D01*
X163628571Y-78185238D01*
X163533333Y-78280476D01*
X163438095Y-78328095D01*
X164390476Y-78137619D02*
X164438095Y-78090000D01*
X164533333Y-78042380D01*
X164771428Y-78042380D01*
X164866666Y-78090000D01*
X164914285Y-78137619D01*
X164961904Y-78232857D01*
X164961904Y-78328095D01*
X164914285Y-78470952D01*
X164342857Y-79042380D01*
X164961904Y-79042380D01*
%TO.C,C13*%
X157437142Y-65337142D02*
X157389523Y-65384761D01*
X157246666Y-65432380D01*
X157151428Y-65432380D01*
X157008571Y-65384761D01*
X156913333Y-65289523D01*
X156865714Y-65194285D01*
X156818095Y-65003809D01*
X156818095Y-64860952D01*
X156865714Y-64670476D01*
X156913333Y-64575238D01*
X157008571Y-64480000D01*
X157151428Y-64432380D01*
X157246666Y-64432380D01*
X157389523Y-64480000D01*
X157437142Y-64527619D01*
X158389523Y-65432380D02*
X157818095Y-65432380D01*
X158103809Y-65432380D02*
X158103809Y-64432380D01*
X158008571Y-64575238D01*
X157913333Y-64670476D01*
X157818095Y-64718095D01*
X158722857Y-64432380D02*
X159341904Y-64432380D01*
X159008571Y-64813333D01*
X159151428Y-64813333D01*
X159246666Y-64860952D01*
X159294285Y-64908571D01*
X159341904Y-65003809D01*
X159341904Y-65241904D01*
X159294285Y-65337142D01*
X159246666Y-65384761D01*
X159151428Y-65432380D01*
X158865714Y-65432380D01*
X158770476Y-65384761D01*
X158722857Y-65337142D01*
%TO.C,C14*%
X155157142Y-70032857D02*
X155204761Y-70080476D01*
X155252380Y-70223333D01*
X155252380Y-70318571D01*
X155204761Y-70461428D01*
X155109523Y-70556666D01*
X155014285Y-70604285D01*
X154823809Y-70651904D01*
X154680952Y-70651904D01*
X154490476Y-70604285D01*
X154395238Y-70556666D01*
X154300000Y-70461428D01*
X154252380Y-70318571D01*
X154252380Y-70223333D01*
X154300000Y-70080476D01*
X154347619Y-70032857D01*
X155252380Y-69080476D02*
X155252380Y-69651904D01*
X155252380Y-69366190D02*
X154252380Y-69366190D01*
X154395238Y-69461428D01*
X154490476Y-69556666D01*
X154538095Y-69651904D01*
X154585714Y-68223333D02*
X155252380Y-68223333D01*
X154204761Y-68461428D02*
X154919047Y-68699523D01*
X154919047Y-68080476D01*
%TO.C,J5*%
X129966666Y-55352380D02*
X129966666Y-56066666D01*
X129919047Y-56209523D01*
X129823809Y-56304761D01*
X129680952Y-56352380D01*
X129585714Y-56352380D01*
X130919047Y-55352380D02*
X130442857Y-55352380D01*
X130395238Y-55828571D01*
X130442857Y-55780952D01*
X130538095Y-55733333D01*
X130776190Y-55733333D01*
X130871428Y-55780952D01*
X130919047Y-55828571D01*
X130966666Y-55923809D01*
X130966666Y-56161904D01*
X130919047Y-56257142D01*
X130871428Y-56304761D01*
X130776190Y-56352380D01*
X130538095Y-56352380D01*
X130442857Y-56304761D01*
X130395238Y-56257142D01*
%TO.C,L1*%
X128333333Y-77992380D02*
X127857142Y-77992380D01*
X127857142Y-76992380D01*
X129190476Y-77992380D02*
X128619047Y-77992380D01*
X128904761Y-77992380D02*
X128904761Y-76992380D01*
X128809523Y-77135238D01*
X128714285Y-77230476D01*
X128619047Y-77278095D01*
%TO.C,LD1*%
X117423333Y-58672380D02*
X116947142Y-58672380D01*
X116947142Y-57672380D01*
X117756666Y-58672380D02*
X117756666Y-57672380D01*
X117994761Y-57672380D01*
X118137619Y-57720000D01*
X118232857Y-57815238D01*
X118280476Y-57910476D01*
X118328095Y-58100952D01*
X118328095Y-58243809D01*
X118280476Y-58434285D01*
X118232857Y-58529523D01*
X118137619Y-58624761D01*
X117994761Y-58672380D01*
X117756666Y-58672380D01*
X119280476Y-58672380D02*
X118709047Y-58672380D01*
X118994761Y-58672380D02*
X118994761Y-57672380D01*
X118899523Y-57815238D01*
X118804285Y-57910476D01*
X118709047Y-57958095D01*
%TO.C,R1*%
X124883333Y-74902380D02*
X124550000Y-74426190D01*
X124311904Y-74902380D02*
X124311904Y-73902380D01*
X124692857Y-73902380D01*
X124788095Y-73950000D01*
X124835714Y-73997619D01*
X124883333Y-74092857D01*
X124883333Y-74235714D01*
X124835714Y-74330952D01*
X124788095Y-74378571D01*
X124692857Y-74426190D01*
X124311904Y-74426190D01*
X125835714Y-74902380D02*
X125264285Y-74902380D01*
X125550000Y-74902380D02*
X125550000Y-73902380D01*
X125454761Y-74045238D01*
X125359523Y-74140476D01*
X125264285Y-74188095D01*
%TO.C,R2*%
X135523333Y-78712380D02*
X135190000Y-78236190D01*
X134951904Y-78712380D02*
X134951904Y-77712380D01*
X135332857Y-77712380D01*
X135428095Y-77760000D01*
X135475714Y-77807619D01*
X135523333Y-77902857D01*
X135523333Y-78045714D01*
X135475714Y-78140952D01*
X135428095Y-78188571D01*
X135332857Y-78236190D01*
X134951904Y-78236190D01*
X135904285Y-77807619D02*
X135951904Y-77760000D01*
X136047142Y-77712380D01*
X136285238Y-77712380D01*
X136380476Y-77760000D01*
X136428095Y-77807619D01*
X136475714Y-77902857D01*
X136475714Y-77998095D01*
X136428095Y-78140952D01*
X135856666Y-78712380D01*
X136475714Y-78712380D01*
%TO.C,R4*%
X163333333Y-69922380D02*
X163000000Y-69446190D01*
X162761904Y-69922380D02*
X162761904Y-68922380D01*
X163142857Y-68922380D01*
X163238095Y-68970000D01*
X163285714Y-69017619D01*
X163333333Y-69112857D01*
X163333333Y-69255714D01*
X163285714Y-69350952D01*
X163238095Y-69398571D01*
X163142857Y-69446190D01*
X162761904Y-69446190D01*
X164190476Y-69255714D02*
X164190476Y-69922380D01*
X163952380Y-68874761D02*
X163714285Y-69589047D01*
X164333333Y-69589047D01*
%TO.C,R5*%
X162733333Y-74432380D02*
X162400000Y-73956190D01*
X162161904Y-74432380D02*
X162161904Y-73432380D01*
X162542857Y-73432380D01*
X162638095Y-73480000D01*
X162685714Y-73527619D01*
X162733333Y-73622857D01*
X162733333Y-73765714D01*
X162685714Y-73860952D01*
X162638095Y-73908571D01*
X162542857Y-73956190D01*
X162161904Y-73956190D01*
X163638095Y-73432380D02*
X163161904Y-73432380D01*
X163114285Y-73908571D01*
X163161904Y-73860952D01*
X163257142Y-73813333D01*
X163495238Y-73813333D01*
X163590476Y-73860952D01*
X163638095Y-73908571D01*
X163685714Y-74003809D01*
X163685714Y-74241904D01*
X163638095Y-74337142D01*
X163590476Y-74384761D01*
X163495238Y-74432380D01*
X163257142Y-74432380D01*
X163161904Y-74384761D01*
X163114285Y-74337142D01*
%TO.C,R7*%
X118013333Y-64392380D02*
X117680000Y-63916190D01*
X117441904Y-64392380D02*
X117441904Y-63392380D01*
X117822857Y-63392380D01*
X117918095Y-63440000D01*
X117965714Y-63487619D01*
X118013333Y-63582857D01*
X118013333Y-63725714D01*
X117965714Y-63820952D01*
X117918095Y-63868571D01*
X117822857Y-63916190D01*
X117441904Y-63916190D01*
X118346666Y-63392380D02*
X119013333Y-63392380D01*
X118584761Y-64392380D01*
%TO.C,U2*%
X152288095Y-74052380D02*
X152288095Y-74861904D01*
X152335714Y-74957142D01*
X152383333Y-75004761D01*
X152478571Y-75052380D01*
X152669047Y-75052380D01*
X152764285Y-75004761D01*
X152811904Y-74957142D01*
X152859523Y-74861904D01*
X152859523Y-74052380D01*
X153288095Y-74147619D02*
X153335714Y-74100000D01*
X153430952Y-74052380D01*
X153669047Y-74052380D01*
X153764285Y-74100000D01*
X153811904Y-74147619D01*
X153859523Y-74242857D01*
X153859523Y-74338095D01*
X153811904Y-74480952D01*
X153240476Y-75052380D01*
X153859523Y-75052380D01*
%TO.C,Y1*%
X139949889Y-75236675D02*
X139613171Y-75573393D01*
X140084576Y-74630584D02*
X139949889Y-75236675D01*
X140555980Y-75101988D01*
X140454965Y-76415186D02*
X140050904Y-76011125D01*
X140252935Y-76213156D02*
X140960041Y-75506049D01*
X140791683Y-75539721D01*
X140656996Y-75539721D01*
X140555980Y-75506049D01*
%TO.C,JP1*%
X114536666Y-73392380D02*
X114536666Y-74106666D01*
X114489047Y-74249523D01*
X114393809Y-74344761D01*
X114250952Y-74392380D01*
X114155714Y-74392380D01*
X115012857Y-74392380D02*
X115012857Y-73392380D01*
X115393809Y-73392380D01*
X115489047Y-73440000D01*
X115536666Y-73487619D01*
X115584285Y-73582857D01*
X115584285Y-73725714D01*
X115536666Y-73820952D01*
X115489047Y-73868571D01*
X115393809Y-73916190D01*
X115012857Y-73916190D01*
X116536666Y-74392380D02*
X115965238Y-74392380D01*
X116250952Y-74392380D02*
X116250952Y-73392380D01*
X116155714Y-73535238D01*
X116060476Y-73630476D01*
X115965238Y-73678095D01*
%TO.C,LD2*%
X115023333Y-82592380D02*
X114547142Y-82592380D01*
X114547142Y-81592380D01*
X115356666Y-82592380D02*
X115356666Y-81592380D01*
X115594761Y-81592380D01*
X115737619Y-81640000D01*
X115832857Y-81735238D01*
X115880476Y-81830476D01*
X115928095Y-82020952D01*
X115928095Y-82163809D01*
X115880476Y-82354285D01*
X115832857Y-82449523D01*
X115737619Y-82544761D01*
X115594761Y-82592380D01*
X115356666Y-82592380D01*
X116309047Y-81687619D02*
X116356666Y-81640000D01*
X116451904Y-81592380D01*
X116690000Y-81592380D01*
X116785238Y-81640000D01*
X116832857Y-81687619D01*
X116880476Y-81782857D01*
X116880476Y-81878095D01*
X116832857Y-82020952D01*
X116261428Y-82592380D01*
X116880476Y-82592380D01*
%TO.C,R8*%
X115483333Y-87912380D02*
X115150000Y-87436190D01*
X114911904Y-87912380D02*
X114911904Y-86912380D01*
X115292857Y-86912380D01*
X115388095Y-86960000D01*
X115435714Y-87007619D01*
X115483333Y-87102857D01*
X115483333Y-87245714D01*
X115435714Y-87340952D01*
X115388095Y-87388571D01*
X115292857Y-87436190D01*
X114911904Y-87436190D01*
X116054761Y-87340952D02*
X115959523Y-87293333D01*
X115911904Y-87245714D01*
X115864285Y-87150476D01*
X115864285Y-87102857D01*
X115911904Y-87007619D01*
X115959523Y-86960000D01*
X116054761Y-86912380D01*
X116245238Y-86912380D01*
X116340476Y-86960000D01*
X116388095Y-87007619D01*
X116435714Y-87102857D01*
X116435714Y-87150476D01*
X116388095Y-87245714D01*
X116340476Y-87293333D01*
X116245238Y-87340952D01*
X116054761Y-87340952D01*
X115959523Y-87388571D01*
X115911904Y-87436190D01*
X115864285Y-87531428D01*
X115864285Y-87721904D01*
X115911904Y-87817142D01*
X115959523Y-87864761D01*
X116054761Y-87912380D01*
X116245238Y-87912380D01*
X116340476Y-87864761D01*
X116388095Y-87817142D01*
X116435714Y-87721904D01*
X116435714Y-87531428D01*
X116388095Y-87436190D01*
X116340476Y-87388571D01*
X116245238Y-87340952D01*
%TO.C,R9*%
X119973333Y-88482380D02*
X119640000Y-88006190D01*
X119401904Y-88482380D02*
X119401904Y-87482380D01*
X119782857Y-87482380D01*
X119878095Y-87530000D01*
X119925714Y-87577619D01*
X119973333Y-87672857D01*
X119973333Y-87815714D01*
X119925714Y-87910952D01*
X119878095Y-87958571D01*
X119782857Y-88006190D01*
X119401904Y-88006190D01*
X120449523Y-88482380D02*
X120640000Y-88482380D01*
X120735238Y-88434761D01*
X120782857Y-88387142D01*
X120878095Y-88244285D01*
X120925714Y-88053809D01*
X120925714Y-87672857D01*
X120878095Y-87577619D01*
X120830476Y-87530000D01*
X120735238Y-87482380D01*
X120544761Y-87482380D01*
X120449523Y-87530000D01*
X120401904Y-87577619D01*
X120354285Y-87672857D01*
X120354285Y-87910952D01*
X120401904Y-88006190D01*
X120449523Y-88053809D01*
X120544761Y-88101428D01*
X120735238Y-88101428D01*
X120830476Y-88053809D01*
X120878095Y-88006190D01*
X120925714Y-87910952D01*
%TD*%
M02*
