%TF.GenerationSoftware,KiCad,Pcbnew,5.1.9+dfsg1-1*%
%TF.CreationDate,2022-02-07T09:49:48+01:00*%
%TF.ProjectId,STM32F4XX,53544d33-3246-4345-9858-2e6b69636164,2.0*%
%TF.SameCoordinates,Original*%
%TF.FileFunction,Soldermask,Bot*%
%TF.FilePolarity,Negative*%
%FSLAX46Y46*%
G04 Gerber Fmt 4.6, Leading zero omitted, Abs format (unit mm)*
G04 Created by KiCad (PCBNEW 5.1.9+dfsg1-1) date 2022-02-07 09:49:48*
%MOMM*%
%LPD*%
G01*
G04 APERTURE LIST*
%ADD10C,1.700000*%
%ADD11O,1.700000X1.700000*%
%ADD12R,1.700000X1.700000*%
%ADD13C,5.600000*%
%ADD14C,1.000000*%
%ADD15C,0.800000*%
G04 APERTURE END LIST*
D10*
%TO.C,J5*%
X171760000Y-81640000D03*
X171760000Y-84180000D03*
X171760000Y-86720000D03*
X171760000Y-89260000D03*
X171760000Y-91800000D03*
X174300000Y-81640000D03*
X174300000Y-84180000D03*
X174300000Y-86720000D03*
X174300000Y-89260000D03*
G36*
G01*
X175150000Y-91200000D02*
X175150000Y-92400000D01*
G75*
G02*
X174900000Y-92650000I-250000J0D01*
G01*
X173700000Y-92650000D01*
G75*
G02*
X173450000Y-92400000I0J250000D01*
G01*
X173450000Y-91200000D01*
G75*
G02*
X173700000Y-90950000I250000J0D01*
G01*
X174900000Y-90950000D01*
G75*
G02*
X175150000Y-91200000I0J-250000D01*
G01*
G37*
%TD*%
D11*
%TO.C,J1*%
X175800000Y-119380000D03*
X175800000Y-116840000D03*
D12*
X175800000Y-114300000D03*
%TD*%
D11*
%TO.C,J2*%
X128400000Y-118960000D03*
X128400000Y-121500000D03*
X130940000Y-118960000D03*
X130940000Y-121500000D03*
X133480000Y-118960000D03*
X133480000Y-121500000D03*
X136020000Y-118960000D03*
X136020000Y-121500000D03*
X138560000Y-118960000D03*
X138560000Y-121500000D03*
X141100000Y-118960000D03*
X141100000Y-121500000D03*
X143640000Y-118960000D03*
X143640000Y-121500000D03*
X146180000Y-118960000D03*
X146180000Y-121500000D03*
X148720000Y-118960000D03*
X148720000Y-121500000D03*
X151260000Y-118960000D03*
X151260000Y-121500000D03*
X153800000Y-118960000D03*
X153800000Y-121500000D03*
X156340000Y-118960000D03*
X156340000Y-121500000D03*
X158880000Y-118960000D03*
X158880000Y-121500000D03*
X161420000Y-118960000D03*
X161420000Y-121500000D03*
X163960000Y-118960000D03*
X163960000Y-121500000D03*
X166500000Y-118960000D03*
D12*
X166500000Y-121500000D03*
%TD*%
D11*
%TO.C,J4*%
X129400000Y-58420000D03*
X129400000Y-60960000D03*
X131940000Y-58420000D03*
X131940000Y-60960000D03*
X134480000Y-58420000D03*
X134480000Y-60960000D03*
X137020000Y-58420000D03*
X137020000Y-60960000D03*
X139560000Y-58420000D03*
X139560000Y-60960000D03*
X142100000Y-58420000D03*
X142100000Y-60960000D03*
X144640000Y-58420000D03*
X144640000Y-60960000D03*
X147180000Y-58420000D03*
X147180000Y-60960000D03*
X149720000Y-58420000D03*
X149720000Y-60960000D03*
X152260000Y-58420000D03*
X152260000Y-60960000D03*
X154800000Y-58420000D03*
X154800000Y-60960000D03*
X157340000Y-58420000D03*
X157340000Y-60960000D03*
X159880000Y-58420000D03*
X159880000Y-60960000D03*
X162420000Y-58420000D03*
X162420000Y-60960000D03*
X164960000Y-58420000D03*
X164960000Y-60960000D03*
X167500000Y-58420000D03*
D12*
X167500000Y-60960000D03*
%TD*%
D13*
%TO.C,H2*%
X120500000Y-59500000D03*
%TD*%
%TO.C,H1*%
X174000000Y-59500000D03*
%TD*%
%TO.C,H3*%
X120500000Y-121000000D03*
%TD*%
D14*
%TO.C,J3*%
X173000000Y-102800000D03*
X173000000Y-107200000D03*
%TD*%
D15*
X154241900Y-97102700D03*
X145679400Y-97103300D03*
X142901000Y-78585300D03*
X155460600Y-94390300D03*
X145929800Y-79259700D03*
X146900000Y-90619600D03*
X148140400Y-93993400D03*
X142701800Y-106783700D03*
X142199500Y-83829600D03*
X141454200Y-81939300D03*
X142456300Y-81915600D03*
X149101300Y-82026300D03*
X154342500Y-80738400D03*
X157704300Y-89574600D03*
X150352700Y-83464200D03*
X151060200Y-84171600D03*
X150150000Y-89120600D03*
X149400000Y-88368200D03*
X146676400Y-82508000D03*
X143440000Y-74417400D03*
X142574400Y-87326300D03*
X144580600Y-80634800D03*
X142587400Y-86228600D03*
X145663300Y-77326600D03*
X150400000Y-93379700D03*
X149386800Y-87312600D03*
X151637100Y-89665500D03*
X149267500Y-73883400D03*
X151026000Y-72847700D03*
X152262700Y-87673900D03*
X147400000Y-76351300D03*
X147810000Y-72857100D03*
X151476300Y-71847300D03*
X151708800Y-93382800D03*
X155325000Y-90829500D03*
X156703900Y-89539300D03*
X153939400Y-88733000D03*
X156711000Y-88424000D03*
M02*
