%TF.GenerationSoftware,KiCad,Pcbnew,5.1.9+dfsg1-1*%
%TF.CreationDate,2022-02-05T10:31:28+01:00*%
%TF.ProjectId,STM32F4XX,53544d33-3246-4345-9858-2e6b69636164,2.0*%
%TF.SameCoordinates,Original*%
%TF.FileFunction,Legend,Bot*%
%TF.FilePolarity,Positive*%
%FSLAX46Y46*%
G04 Gerber Fmt 4.6, Leading zero omitted, Abs format (unit mm)*
G04 Created by KiCad (PCBNEW 5.1.9+dfsg1-1) date 2022-02-05 10:31:28*
%MOMM*%
%LPD*%
G01*
G04 APERTURE LIST*
%ADD10C,0.150000*%
%ADD11C,0.120000*%
%ADD12C,0.010000*%
G04 APERTURE END LIST*
D10*
X171119047Y-115452380D02*
X171119047Y-114452380D01*
X170690476Y-115452380D02*
X170690476Y-114928571D01*
X170738095Y-114833333D01*
X170833333Y-114785714D01*
X170976190Y-114785714D01*
X171071428Y-114833333D01*
X171119047Y-114880952D01*
X170357142Y-114785714D02*
X169976190Y-114785714D01*
X170214285Y-114452380D02*
X170214285Y-115309523D01*
X170166666Y-115404761D01*
X170071428Y-115452380D01*
X169976190Y-115452380D01*
X169785714Y-114785714D02*
X169404761Y-114785714D01*
X169642857Y-114452380D02*
X169642857Y-115309523D01*
X169595238Y-115404761D01*
X169500000Y-115452380D01*
X169404761Y-115452380D01*
X169071428Y-114785714D02*
X169071428Y-115785714D01*
X169071428Y-114833333D02*
X168976190Y-114785714D01*
X168785714Y-114785714D01*
X168690476Y-114833333D01*
X168642857Y-114880952D01*
X168595238Y-114976190D01*
X168595238Y-115261904D01*
X168642857Y-115357142D01*
X168690476Y-115404761D01*
X168785714Y-115452380D01*
X168976190Y-115452380D01*
X169071428Y-115404761D01*
X168214285Y-115404761D02*
X168119047Y-115452380D01*
X167928571Y-115452380D01*
X167833333Y-115404761D01*
X167785714Y-115309523D01*
X167785714Y-115261904D01*
X167833333Y-115166666D01*
X167928571Y-115119047D01*
X168071428Y-115119047D01*
X168166666Y-115071428D01*
X168214285Y-114976190D01*
X168214285Y-114928571D01*
X168166666Y-114833333D01*
X168071428Y-114785714D01*
X167928571Y-114785714D01*
X167833333Y-114833333D01*
X167357142Y-115357142D02*
X167309523Y-115404761D01*
X167357142Y-115452380D01*
X167404761Y-115404761D01*
X167357142Y-115357142D01*
X167357142Y-115452380D01*
X167357142Y-114833333D02*
X167309523Y-114880952D01*
X167357142Y-114928571D01*
X167404761Y-114880952D01*
X167357142Y-114833333D01*
X167357142Y-114928571D01*
X166166666Y-114404761D02*
X167023809Y-115690476D01*
X165119047Y-114404761D02*
X165976190Y-115690476D01*
X164357142Y-114785714D02*
X164357142Y-115595238D01*
X164404761Y-115690476D01*
X164452380Y-115738095D01*
X164547619Y-115785714D01*
X164690476Y-115785714D01*
X164785714Y-115738095D01*
X164357142Y-115404761D02*
X164452380Y-115452380D01*
X164642857Y-115452380D01*
X164738095Y-115404761D01*
X164785714Y-115357142D01*
X164833333Y-115261904D01*
X164833333Y-114976190D01*
X164785714Y-114880952D01*
X164738095Y-114833333D01*
X164642857Y-114785714D01*
X164452380Y-114785714D01*
X164357142Y-114833333D01*
X163880952Y-115452380D02*
X163880952Y-114785714D01*
X163880952Y-114452380D02*
X163928571Y-114500000D01*
X163880952Y-114547619D01*
X163833333Y-114500000D01*
X163880952Y-114452380D01*
X163880952Y-114547619D01*
X163547619Y-114785714D02*
X163166666Y-114785714D01*
X163404761Y-114452380D02*
X163404761Y-115309523D01*
X163357142Y-115404761D01*
X163261904Y-115452380D01*
X163166666Y-115452380D01*
X162833333Y-115452380D02*
X162833333Y-114452380D01*
X162404761Y-115452380D02*
X162404761Y-114928571D01*
X162452380Y-114833333D01*
X162547619Y-114785714D01*
X162690476Y-114785714D01*
X162785714Y-114833333D01*
X162833333Y-114880952D01*
X161500000Y-114785714D02*
X161500000Y-115452380D01*
X161928571Y-114785714D02*
X161928571Y-115309523D01*
X161880952Y-115404761D01*
X161785714Y-115452380D01*
X161642857Y-115452380D01*
X161547619Y-115404761D01*
X161500000Y-115357142D01*
X161023809Y-115452380D02*
X161023809Y-114452380D01*
X161023809Y-114833333D02*
X160928571Y-114785714D01*
X160738095Y-114785714D01*
X160642857Y-114833333D01*
X160595238Y-114880952D01*
X160547619Y-114976190D01*
X160547619Y-115261904D01*
X160595238Y-115357142D01*
X160642857Y-115404761D01*
X160738095Y-115452380D01*
X160928571Y-115452380D01*
X161023809Y-115404761D01*
X160119047Y-115357142D02*
X160071428Y-115404761D01*
X160119047Y-115452380D01*
X160166666Y-115404761D01*
X160119047Y-115357142D01*
X160119047Y-115452380D01*
X159214285Y-115404761D02*
X159309523Y-115452380D01*
X159500000Y-115452380D01*
X159595238Y-115404761D01*
X159642857Y-115357142D01*
X159690476Y-115261904D01*
X159690476Y-114976190D01*
X159642857Y-114880952D01*
X159595238Y-114833333D01*
X159500000Y-114785714D01*
X159309523Y-114785714D01*
X159214285Y-114833333D01*
X158642857Y-115452380D02*
X158738095Y-115404761D01*
X158785714Y-115357142D01*
X158833333Y-115261904D01*
X158833333Y-114976190D01*
X158785714Y-114880952D01*
X158738095Y-114833333D01*
X158642857Y-114785714D01*
X158500000Y-114785714D01*
X158404761Y-114833333D01*
X158357142Y-114880952D01*
X158309523Y-114976190D01*
X158309523Y-115261904D01*
X158357142Y-115357142D01*
X158404761Y-115404761D01*
X158500000Y-115452380D01*
X158642857Y-115452380D01*
X157880952Y-115452380D02*
X157880952Y-114785714D01*
X157880952Y-114880952D02*
X157833333Y-114833333D01*
X157738095Y-114785714D01*
X157595238Y-114785714D01*
X157500000Y-114833333D01*
X157452380Y-114928571D01*
X157452380Y-115452380D01*
X157452380Y-114928571D02*
X157404761Y-114833333D01*
X157309523Y-114785714D01*
X157166666Y-114785714D01*
X157071428Y-114833333D01*
X157023809Y-114928571D01*
X157023809Y-115452380D01*
X155833333Y-114404761D02*
X156690476Y-115690476D01*
X155071428Y-114785714D02*
X155071428Y-115595238D01*
X155119047Y-115690476D01*
X155166666Y-115738095D01*
X155261904Y-115785714D01*
X155404761Y-115785714D01*
X155500000Y-115738095D01*
X155071428Y-115404761D02*
X155166666Y-115452380D01*
X155357142Y-115452380D01*
X155452380Y-115404761D01*
X155500000Y-115357142D01*
X155547619Y-115261904D01*
X155547619Y-114976190D01*
X155500000Y-114880952D01*
X155452380Y-114833333D01*
X155357142Y-114785714D01*
X155166666Y-114785714D01*
X155071428Y-114833333D01*
X154595238Y-115452380D02*
X154595238Y-114785714D01*
X154595238Y-114452380D02*
X154642857Y-114500000D01*
X154595238Y-114547619D01*
X154547619Y-114500000D01*
X154595238Y-114452380D01*
X154595238Y-114547619D01*
X153690476Y-115452380D02*
X153690476Y-114928571D01*
X153738095Y-114833333D01*
X153833333Y-114785714D01*
X154023809Y-114785714D01*
X154119047Y-114833333D01*
X153690476Y-115404761D02*
X153785714Y-115452380D01*
X154023809Y-115452380D01*
X154119047Y-115404761D01*
X154166666Y-115309523D01*
X154166666Y-115214285D01*
X154119047Y-115119047D01*
X154023809Y-115071428D01*
X153785714Y-115071428D01*
X153690476Y-115023809D01*
X153214285Y-114785714D02*
X153214285Y-115452380D01*
X153214285Y-114880952D02*
X153166666Y-114833333D01*
X153071428Y-114785714D01*
X152928571Y-114785714D01*
X152833333Y-114833333D01*
X152785714Y-114928571D01*
X152785714Y-115452380D01*
X152166666Y-115452380D02*
X152261904Y-115404761D01*
X152309523Y-115309523D01*
X152309523Y-114452380D01*
X151357142Y-114785714D02*
X151357142Y-115452380D01*
X151785714Y-114785714D02*
X151785714Y-115309523D01*
X151738095Y-115404761D01*
X151642857Y-115452380D01*
X151500000Y-115452380D01*
X151404761Y-115404761D01*
X151357142Y-115357142D01*
X150452380Y-115404761D02*
X150547619Y-115452380D01*
X150738095Y-115452380D01*
X150833333Y-115404761D01*
X150880952Y-115357142D01*
X150928571Y-115261904D01*
X150928571Y-114976190D01*
X150880952Y-114880952D01*
X150833333Y-114833333D01*
X150738095Y-114785714D01*
X150547619Y-114785714D01*
X150452380Y-114833333D01*
X149595238Y-115452380D02*
X149595238Y-114928571D01*
X149642857Y-114833333D01*
X149738095Y-114785714D01*
X149928571Y-114785714D01*
X150023809Y-114833333D01*
X149595238Y-115404761D02*
X149690476Y-115452380D01*
X149928571Y-115452380D01*
X150023809Y-115404761D01*
X150071428Y-115309523D01*
X150071428Y-115214285D01*
X150023809Y-115119047D01*
X149928571Y-115071428D01*
X149690476Y-115071428D01*
X149595238Y-115023809D01*
X149119047Y-115452380D02*
X149119047Y-114785714D01*
X149119047Y-114976190D02*
X149071428Y-114880952D01*
X149023809Y-114833333D01*
X148928571Y-114785714D01*
X148833333Y-114785714D01*
X148119047Y-115404761D02*
X148214285Y-115452380D01*
X148404761Y-115452380D01*
X148500000Y-115404761D01*
X148547619Y-115309523D01*
X148547619Y-114928571D01*
X148500000Y-114833333D01*
X148404761Y-114785714D01*
X148214285Y-114785714D01*
X148119047Y-114833333D01*
X148071428Y-114928571D01*
X148071428Y-115023809D01*
X148547619Y-115119047D01*
X147642857Y-114785714D02*
X147642857Y-115452380D01*
X147642857Y-114880952D02*
X147595238Y-114833333D01*
X147500000Y-114785714D01*
X147357142Y-114785714D01*
X147261904Y-114833333D01*
X147214285Y-114928571D01*
X147214285Y-115452380D01*
X146833333Y-114785714D02*
X146309523Y-114785714D01*
X146833333Y-115452380D01*
X146309523Y-115452380D01*
X145928571Y-115452380D02*
X145928571Y-114785714D01*
X145928571Y-114452380D02*
X145976190Y-114500000D01*
X145928571Y-114547619D01*
X145880952Y-114500000D01*
X145928571Y-114452380D01*
X145928571Y-114547619D01*
X144738095Y-114404761D02*
X145595238Y-115690476D01*
X144452380Y-115404761D02*
X144309523Y-115452380D01*
X144071428Y-115452380D01*
X143976190Y-115404761D01*
X143928571Y-115357142D01*
X143880952Y-115261904D01*
X143880952Y-115166666D01*
X143928571Y-115071428D01*
X143976190Y-115023809D01*
X144071428Y-114976190D01*
X144261904Y-114928571D01*
X144357142Y-114880952D01*
X144404761Y-114833333D01*
X144452380Y-114738095D01*
X144452380Y-114642857D01*
X144404761Y-114547619D01*
X144357142Y-114500000D01*
X144261904Y-114452380D01*
X144023809Y-114452380D01*
X143880952Y-114500000D01*
X143595238Y-114452380D02*
X143023809Y-114452380D01*
X143309523Y-115452380D02*
X143309523Y-114452380D01*
X142690476Y-115452380D02*
X142690476Y-114452380D01*
X142357142Y-115166666D01*
X142023809Y-114452380D01*
X142023809Y-115452380D01*
X141642857Y-114452380D02*
X141023809Y-114452380D01*
X141357142Y-114833333D01*
X141214285Y-114833333D01*
X141119047Y-114880952D01*
X141071428Y-114928571D01*
X141023809Y-115023809D01*
X141023809Y-115261904D01*
X141071428Y-115357142D01*
X141119047Y-115404761D01*
X141214285Y-115452380D01*
X141500000Y-115452380D01*
X141595238Y-115404761D01*
X141642857Y-115357142D01*
X140642857Y-114547619D02*
X140595238Y-114500000D01*
X140500000Y-114452380D01*
X140261904Y-114452380D01*
X140166666Y-114500000D01*
X140119047Y-114547619D01*
X140071428Y-114642857D01*
X140071428Y-114738095D01*
X140119047Y-114880952D01*
X140690476Y-115452380D01*
X140071428Y-115452380D01*
X139309523Y-114928571D02*
X139642857Y-114928571D01*
X139642857Y-115452380D02*
X139642857Y-114452380D01*
X139166666Y-114452380D01*
X138357142Y-114785714D02*
X138357142Y-115452380D01*
X138595238Y-114404761D02*
X138833333Y-115119047D01*
X138214285Y-115119047D01*
X137928571Y-114452380D02*
X137261904Y-115452380D01*
X137261904Y-114452380D02*
X137928571Y-115452380D01*
X136976190Y-114452380D02*
X136309523Y-115452380D01*
X136309523Y-114452380D02*
X136976190Y-115452380D01*
X135214285Y-114404761D02*
X136071428Y-115690476D01*
X134928571Y-115404761D02*
X134785714Y-115452380D01*
X134547619Y-115452380D01*
X134452380Y-115404761D01*
X134404761Y-115357142D01*
X134357142Y-115261904D01*
X134357142Y-115166666D01*
X134404761Y-115071428D01*
X134452380Y-115023809D01*
X134547619Y-114976190D01*
X134738095Y-114928571D01*
X134833333Y-114880952D01*
X134880952Y-114833333D01*
X134928571Y-114738095D01*
X134928571Y-114642857D01*
X134880952Y-114547619D01*
X134833333Y-114500000D01*
X134738095Y-114452380D01*
X134500000Y-114452380D01*
X134357142Y-114500000D01*
X134071428Y-114452380D02*
X133500000Y-114452380D01*
X133785714Y-115452380D02*
X133785714Y-114452380D01*
X133166666Y-115452380D02*
X133166666Y-114452380D01*
X132833333Y-115166666D01*
X132500000Y-114452380D01*
X132500000Y-115452380D01*
X132119047Y-114452380D02*
X131500000Y-114452380D01*
X131833333Y-114833333D01*
X131690476Y-114833333D01*
X131595238Y-114880952D01*
X131547619Y-114928571D01*
X131500000Y-115023809D01*
X131500000Y-115261904D01*
X131547619Y-115357142D01*
X131595238Y-115404761D01*
X131690476Y-115452380D01*
X131976190Y-115452380D01*
X132071428Y-115404761D01*
X132119047Y-115357142D01*
X131119047Y-114547619D02*
X131071428Y-114500000D01*
X130976190Y-114452380D01*
X130738095Y-114452380D01*
X130642857Y-114500000D01*
X130595238Y-114547619D01*
X130547619Y-114642857D01*
X130547619Y-114738095D01*
X130595238Y-114880952D01*
X131166666Y-115452380D01*
X130547619Y-115452380D01*
X129785714Y-114928571D02*
X130119047Y-114928571D01*
X130119047Y-115452380D02*
X130119047Y-114452380D01*
X129642857Y-114452380D01*
X128833333Y-114785714D02*
X128833333Y-115452380D01*
X129071428Y-114404761D02*
X129309523Y-115119047D01*
X128690476Y-115119047D01*
X128119047Y-114452380D02*
X128023809Y-114452380D01*
X127928571Y-114500000D01*
X127880952Y-114547619D01*
X127833333Y-114642857D01*
X127785714Y-114833333D01*
X127785714Y-115071428D01*
X127833333Y-115261904D01*
X127880952Y-115357142D01*
X127928571Y-115404761D01*
X128023809Y-115452380D01*
X128119047Y-115452380D01*
X128214285Y-115404761D01*
X128261904Y-115357142D01*
X128309523Y-115261904D01*
X128357142Y-115071428D01*
X128357142Y-114833333D01*
X128309523Y-114642857D01*
X128261904Y-114547619D01*
X128214285Y-114500000D01*
X128119047Y-114452380D01*
X126833333Y-115452380D02*
X127404761Y-115452380D01*
X127119047Y-115452380D02*
X127119047Y-114452380D01*
X127214285Y-114595238D01*
X127309523Y-114690476D01*
X127404761Y-114738095D01*
X118452380Y-66666666D02*
X117785714Y-66666666D01*
X117452380Y-66666666D02*
X117500000Y-66619047D01*
X117547619Y-66666666D01*
X117500000Y-66714285D01*
X117452380Y-66666666D01*
X117547619Y-66666666D01*
X117785714Y-67142857D02*
X118452380Y-67142857D01*
X117880952Y-67142857D02*
X117833333Y-67190476D01*
X117785714Y-67285714D01*
X117785714Y-67428571D01*
X117833333Y-67523809D01*
X117928571Y-67571428D01*
X118452380Y-67571428D01*
X118452380Y-68809523D02*
X117785714Y-68809523D01*
X117880952Y-68809523D02*
X117833333Y-68857142D01*
X117785714Y-68952380D01*
X117785714Y-69095238D01*
X117833333Y-69190476D01*
X117928571Y-69238095D01*
X118452380Y-69238095D01*
X117928571Y-69238095D02*
X117833333Y-69285714D01*
X117785714Y-69380952D01*
X117785714Y-69523809D01*
X117833333Y-69619047D01*
X117928571Y-69666666D01*
X118452380Y-69666666D01*
X118404761Y-70523809D02*
X118452380Y-70428571D01*
X118452380Y-70238095D01*
X118404761Y-70142857D01*
X118309523Y-70095238D01*
X117928571Y-70095238D01*
X117833333Y-70142857D01*
X117785714Y-70238095D01*
X117785714Y-70428571D01*
X117833333Y-70523809D01*
X117928571Y-70571428D01*
X118023809Y-70571428D01*
X118119047Y-70095238D01*
X118452380Y-71000000D02*
X117785714Y-71000000D01*
X117880952Y-71000000D02*
X117833333Y-71047619D01*
X117785714Y-71142857D01*
X117785714Y-71285714D01*
X117833333Y-71380952D01*
X117928571Y-71428571D01*
X118452380Y-71428571D01*
X117928571Y-71428571D02*
X117833333Y-71476190D01*
X117785714Y-71571428D01*
X117785714Y-71714285D01*
X117833333Y-71809523D01*
X117928571Y-71857142D01*
X118452380Y-71857142D01*
X118452380Y-72476190D02*
X118404761Y-72380952D01*
X118357142Y-72333333D01*
X118261904Y-72285714D01*
X117976190Y-72285714D01*
X117880952Y-72333333D01*
X117833333Y-72380952D01*
X117785714Y-72476190D01*
X117785714Y-72619047D01*
X117833333Y-72714285D01*
X117880952Y-72761904D01*
X117976190Y-72809523D01*
X118261904Y-72809523D01*
X118357142Y-72761904D01*
X118404761Y-72714285D01*
X118452380Y-72619047D01*
X118452380Y-72476190D01*
X118452380Y-73238095D02*
X117785714Y-73238095D01*
X117976190Y-73238095D02*
X117880952Y-73285714D01*
X117833333Y-73333333D01*
X117785714Y-73428571D01*
X117785714Y-73523809D01*
X118452380Y-73857142D02*
X117785714Y-73857142D01*
X117452380Y-73857142D02*
X117500000Y-73809523D01*
X117547619Y-73857142D01*
X117500000Y-73904761D01*
X117452380Y-73857142D01*
X117547619Y-73857142D01*
X118452380Y-74761904D02*
X117928571Y-74761904D01*
X117833333Y-74714285D01*
X117785714Y-74619047D01*
X117785714Y-74428571D01*
X117833333Y-74333333D01*
X118404761Y-74761904D02*
X118452380Y-74666666D01*
X118452380Y-74428571D01*
X118404761Y-74333333D01*
X118309523Y-74285714D01*
X118214285Y-74285714D01*
X118119047Y-74333333D01*
X118071428Y-74428571D01*
X118071428Y-74666666D01*
X118023809Y-74761904D01*
X118452380Y-75238095D02*
X117785714Y-75238095D01*
X117880952Y-75238095D02*
X117833333Y-75285714D01*
X117785714Y-75380952D01*
X117785714Y-75523809D01*
X117833333Y-75619047D01*
X117928571Y-75666666D01*
X118452380Y-75666666D01*
X117928571Y-75666666D02*
X117833333Y-75714285D01*
X117785714Y-75809523D01*
X117785714Y-75952380D01*
X117833333Y-76047619D01*
X117928571Y-76095238D01*
X118452380Y-76095238D01*
X118166666Y-77285714D02*
X118166666Y-77761904D01*
X118452380Y-77190476D02*
X117452380Y-77523809D01*
X118452380Y-77857142D01*
X118357142Y-78190476D02*
X118404761Y-78238095D01*
X118452380Y-78190476D01*
X118404761Y-78142857D01*
X118357142Y-78190476D01*
X118452380Y-78190476D01*
X118404761Y-78619047D02*
X118452380Y-78761904D01*
X118452380Y-79000000D01*
X118404761Y-79095238D01*
X118357142Y-79142857D01*
X118261904Y-79190476D01*
X118166666Y-79190476D01*
X118071428Y-79142857D01*
X118023809Y-79095238D01*
X117976190Y-79000000D01*
X117928571Y-78809523D01*
X117880952Y-78714285D01*
X117833333Y-78666666D01*
X117738095Y-78619047D01*
X117642857Y-78619047D01*
X117547619Y-78666666D01*
X117500000Y-78714285D01*
X117452380Y-78809523D01*
X117452380Y-79047619D01*
X117500000Y-79190476D01*
X118357142Y-79619047D02*
X118404761Y-79666666D01*
X118452380Y-79619047D01*
X118404761Y-79571428D01*
X118357142Y-79619047D01*
X118452380Y-79619047D01*
X118071428Y-80857142D02*
X118071428Y-81619047D01*
X117500000Y-83380952D02*
X117452380Y-83285714D01*
X117452380Y-83142857D01*
X117500000Y-83000000D01*
X117595238Y-82904761D01*
X117690476Y-82857142D01*
X117880952Y-82809523D01*
X118023809Y-82809523D01*
X118214285Y-82857142D01*
X118309523Y-82904761D01*
X118404761Y-83000000D01*
X118452380Y-83142857D01*
X118452380Y-83238095D01*
X118404761Y-83380952D01*
X118357142Y-83428571D01*
X118023809Y-83428571D01*
X118023809Y-83238095D01*
X118357142Y-83857142D02*
X118404761Y-83904761D01*
X118452380Y-83857142D01*
X118404761Y-83809523D01*
X118357142Y-83857142D01*
X118452380Y-83857142D01*
X118452380Y-84333333D02*
X117452380Y-84333333D01*
X117452380Y-84571428D01*
X117500000Y-84714285D01*
X117595238Y-84809523D01*
X117690476Y-84857142D01*
X117880952Y-84904761D01*
X118023809Y-84904761D01*
X118214285Y-84857142D01*
X118309523Y-84809523D01*
X118404761Y-84714285D01*
X118452380Y-84571428D01*
X118452380Y-84333333D01*
X118357142Y-85333333D02*
X118404761Y-85380952D01*
X118452380Y-85333333D01*
X118404761Y-85285714D01*
X118357142Y-85333333D01*
X118452380Y-85333333D01*
D11*
%TO.C,J2*%
X127070000Y-122830000D02*
X127070000Y-117630000D01*
X165230000Y-122830000D02*
X127070000Y-122830000D01*
X167830000Y-117630000D02*
X127070000Y-117630000D01*
X165230000Y-122830000D02*
X165230000Y-120230000D01*
X165230000Y-120230000D02*
X167830000Y-120230000D01*
X167830000Y-120230000D02*
X167830000Y-117630000D01*
X166500000Y-122830000D02*
X167830000Y-122830000D01*
X167830000Y-122830000D02*
X167830000Y-121500000D01*
%TO.C,J4*%
X128070000Y-62290000D02*
X128070000Y-57090000D01*
X166230000Y-62290000D02*
X128070000Y-62290000D01*
X168830000Y-57090000D02*
X128070000Y-57090000D01*
X166230000Y-62290000D02*
X166230000Y-59690000D01*
X166230000Y-59690000D02*
X168830000Y-59690000D01*
X168830000Y-59690000D02*
X168830000Y-57090000D01*
X167500000Y-62290000D02*
X168830000Y-62290000D01*
X168830000Y-62290000D02*
X168830000Y-60960000D01*
D12*
%TO.C,LOGO2*%
G36*
X154055743Y-105893689D02*
G01*
X153791220Y-105893725D01*
X153668088Y-105893730D01*
X151697189Y-105893730D01*
X151697189Y-106009910D01*
X151684789Y-106151291D01*
X151647364Y-106281684D01*
X151584577Y-106401862D01*
X151496094Y-106512602D01*
X151466157Y-106542511D01*
X151358466Y-106627348D01*
X151239725Y-106689221D01*
X151113460Y-106728159D01*
X150983197Y-106744190D01*
X150852465Y-106737342D01*
X150724788Y-106707643D01*
X150603695Y-106655120D01*
X150492712Y-106579803D01*
X150442868Y-106534363D01*
X150349983Y-106422952D01*
X150281873Y-106300435D01*
X150239129Y-106168215D01*
X150222347Y-106027692D01*
X150222124Y-106013867D01*
X150221244Y-105893734D01*
X150168443Y-105893732D01*
X150121604Y-105900089D01*
X150078817Y-105915556D01*
X150075989Y-105917154D01*
X150066325Y-105922168D01*
X150057451Y-105926073D01*
X150049335Y-105930007D01*
X150041943Y-105935106D01*
X150035245Y-105942508D01*
X150029208Y-105953351D01*
X150023801Y-105968772D01*
X150018990Y-105989909D01*
X150014745Y-106017899D01*
X150011032Y-106053879D01*
X150007821Y-106098987D01*
X150005078Y-106154360D01*
X150002772Y-106221137D01*
X150000871Y-106300453D01*
X149999342Y-106393447D01*
X149998154Y-106501257D01*
X149997274Y-106625019D01*
X149996670Y-106765871D01*
X149996311Y-106924950D01*
X149996165Y-107103395D01*
X149996198Y-107302342D01*
X149996380Y-107522929D01*
X149996677Y-107766293D01*
X149997059Y-108033572D01*
X149997492Y-108325903D01*
X149997945Y-108644424D01*
X149997998Y-108683230D01*
X149998404Y-109003782D01*
X149998749Y-109298012D01*
X149999069Y-109567056D01*
X149999400Y-109812052D01*
X149999779Y-110034137D01*
X150000243Y-110234447D01*
X150000828Y-110414119D01*
X150001570Y-110574290D01*
X150002506Y-110716098D01*
X150003673Y-110840679D01*
X150005107Y-110949170D01*
X150006844Y-111042707D01*
X150008922Y-111122429D01*
X150011376Y-111189472D01*
X150014244Y-111244973D01*
X150017561Y-111290068D01*
X150021364Y-111325895D01*
X150025690Y-111353591D01*
X150030575Y-111374293D01*
X150036055Y-111389137D01*
X150042168Y-111399260D01*
X150048950Y-111405800D01*
X150056437Y-111409893D01*
X150064666Y-111412676D01*
X150073673Y-111415287D01*
X150083495Y-111418862D01*
X150085894Y-111419950D01*
X150093435Y-111422396D01*
X150106056Y-111424642D01*
X150124859Y-111426698D01*
X150150947Y-111428572D01*
X150185422Y-111430271D01*
X150229385Y-111431803D01*
X150283939Y-111433177D01*
X150350185Y-111434400D01*
X150429226Y-111435481D01*
X150522163Y-111436427D01*
X150630099Y-111437247D01*
X150754136Y-111437947D01*
X150895376Y-111438538D01*
X151054921Y-111439025D01*
X151233872Y-111439419D01*
X151433332Y-111439725D01*
X151654404Y-111439953D01*
X151898188Y-111440110D01*
X152165787Y-111440205D01*
X152458303Y-111440245D01*
X152776839Y-111440238D01*
X152880021Y-111440228D01*
X153205623Y-111440176D01*
X153504881Y-111440091D01*
X153778909Y-111439963D01*
X154028824Y-111439785D01*
X154255740Y-111439548D01*
X154460773Y-111439242D01*
X154645038Y-111438860D01*
X154809650Y-111438392D01*
X154955725Y-111437830D01*
X155084376Y-111437165D01*
X155196721Y-111436388D01*
X155293874Y-111435491D01*
X155376950Y-111434465D01*
X155447064Y-111433301D01*
X155505332Y-111431991D01*
X155552869Y-111430525D01*
X155590790Y-111428896D01*
X155620210Y-111427093D01*
X155642245Y-111425110D01*
X155658010Y-111422936D01*
X155668620Y-111420563D01*
X155674404Y-111418391D01*
X155684684Y-111414056D01*
X155694122Y-111410859D01*
X155702755Y-111407665D01*
X155710619Y-111403338D01*
X155717748Y-111396744D01*
X155724179Y-111386747D01*
X155729947Y-111372212D01*
X155735089Y-111352003D01*
X155739640Y-111324985D01*
X155743635Y-111290023D01*
X155747111Y-111245981D01*
X155750102Y-111191724D01*
X155752646Y-111126117D01*
X155754777Y-111048024D01*
X155756532Y-110956310D01*
X155757945Y-110849840D01*
X155758315Y-110808973D01*
X155391884Y-110808973D01*
X154096734Y-110808973D01*
X154121655Y-110771217D01*
X154146447Y-110732417D01*
X154167440Y-110695469D01*
X154184935Y-110657788D01*
X154199230Y-110616788D01*
X154210623Y-110569883D01*
X154219413Y-110514487D01*
X154225898Y-110448016D01*
X154230377Y-110367883D01*
X154233150Y-110271502D01*
X154234513Y-110156289D01*
X154234767Y-110019657D01*
X154234209Y-109859020D01*
X154233893Y-109799382D01*
X154230325Y-109160041D01*
X153825298Y-109711449D01*
X153710554Y-109867876D01*
X153611143Y-110004088D01*
X153525990Y-110121890D01*
X153454022Y-110223084D01*
X153394166Y-110309477D01*
X153345348Y-110382874D01*
X153306495Y-110445077D01*
X153276534Y-110497893D01*
X153254391Y-110543125D01*
X153238993Y-110582578D01*
X153229266Y-110618058D01*
X153224137Y-110651368D01*
X153222532Y-110684313D01*
X153223379Y-110718697D01*
X153223595Y-110723019D01*
X153228054Y-110809031D01*
X151808692Y-110808973D01*
X151914265Y-110702522D01*
X151942913Y-110673406D01*
X151970090Y-110645076D01*
X151996989Y-110615968D01*
X152024803Y-110584520D01*
X152054725Y-110549169D01*
X152087946Y-110508354D01*
X152125661Y-110460511D01*
X152169060Y-110404079D01*
X152219338Y-110337494D01*
X152277688Y-110259195D01*
X152345300Y-110167619D01*
X152423369Y-110061204D01*
X152513088Y-109938387D01*
X152615648Y-109797605D01*
X152732242Y-109637297D01*
X152827809Y-109505798D01*
X152947749Y-109340596D01*
X153052380Y-109196152D01*
X153142648Y-109071094D01*
X153219503Y-108964052D01*
X153283891Y-108873654D01*
X153336761Y-108798529D01*
X153379060Y-108737304D01*
X153411736Y-108688610D01*
X153435738Y-108651074D01*
X153452013Y-108623325D01*
X153461508Y-108603992D01*
X153465173Y-108591703D01*
X153464071Y-108585242D01*
X153450724Y-108568048D01*
X153421866Y-108531655D01*
X153379240Y-108478224D01*
X153324585Y-108409919D01*
X153259644Y-108328903D01*
X153186158Y-108237340D01*
X153105868Y-108137392D01*
X153020515Y-108031224D01*
X152931840Y-107920997D01*
X152841586Y-107808876D01*
X152791944Y-107747244D01*
X151559373Y-107747244D01*
X151508146Y-107839919D01*
X151456919Y-107932595D01*
X151456919Y-110623622D01*
X151508146Y-110716298D01*
X151559373Y-110808973D01*
X150953396Y-110808973D01*
X150808734Y-110808931D01*
X150689244Y-110808741D01*
X150592642Y-110808308D01*
X150516642Y-110807536D01*
X150458957Y-110806330D01*
X150417301Y-110804594D01*
X150389389Y-110802232D01*
X150372935Y-110799150D01*
X150365652Y-110795251D01*
X150365255Y-110790440D01*
X150369458Y-110784622D01*
X150369501Y-110784574D01*
X150386813Y-110759532D01*
X150409736Y-110718815D01*
X150429981Y-110678168D01*
X150468379Y-110596162D01*
X150476211Y-107747244D01*
X151559373Y-107747244D01*
X152791944Y-107747244D01*
X152751493Y-107697024D01*
X152663302Y-107587604D01*
X152578754Y-107482778D01*
X152499592Y-107384711D01*
X152427556Y-107295566D01*
X152364387Y-107217505D01*
X152311827Y-107152692D01*
X152271617Y-107103290D01*
X152248000Y-107074487D01*
X152156290Y-106966778D01*
X152068060Y-106869580D01*
X151986403Y-106786076D01*
X151914410Y-106719448D01*
X151863319Y-106678599D01*
X151802907Y-106635135D01*
X153192298Y-106635135D01*
X153191908Y-106716666D01*
X153195791Y-106776606D01*
X153210390Y-106832177D01*
X153232988Y-106884855D01*
X153247678Y-106914615D01*
X153263472Y-106944103D01*
X153281814Y-106975276D01*
X153304145Y-107010093D01*
X153331909Y-107050510D01*
X153366549Y-107098486D01*
X153409507Y-107155978D01*
X153462227Y-107224943D01*
X153526151Y-107307339D01*
X153602721Y-107405124D01*
X153693381Y-107520255D01*
X153799574Y-107654690D01*
X153811568Y-107669859D01*
X154230325Y-108199412D01*
X154234378Y-107612922D01*
X154235195Y-107437251D01*
X154235021Y-107288532D01*
X154233849Y-107166275D01*
X154231669Y-107069989D01*
X154228474Y-106999183D01*
X154224256Y-106953369D01*
X154222838Y-106944679D01*
X154200591Y-106853135D01*
X154171443Y-106770608D01*
X154138182Y-106704253D01*
X154118200Y-106676110D01*
X154083722Y-106635135D01*
X154737914Y-106635135D01*
X154893969Y-106635269D01*
X155024467Y-106635703D01*
X155131310Y-106636489D01*
X155216398Y-106637676D01*
X155281635Y-106639317D01*
X155328921Y-106641461D01*
X155360157Y-106644159D01*
X155377246Y-106647462D01*
X155382088Y-106651421D01*
X155381753Y-106652298D01*
X155367885Y-106673231D01*
X155344732Y-106706412D01*
X155332754Y-106723193D01*
X155320369Y-106739940D01*
X155309237Y-106754915D01*
X155299288Y-106769594D01*
X155290451Y-106785449D01*
X155282657Y-106803955D01*
X155275835Y-106826585D01*
X155269916Y-106854813D01*
X155264829Y-106890113D01*
X155260504Y-106933958D01*
X155256871Y-106987822D01*
X155253860Y-107053180D01*
X155251401Y-107131504D01*
X155249423Y-107224268D01*
X155247858Y-107332947D01*
X155246634Y-107459013D01*
X155245681Y-107603942D01*
X155244930Y-107769206D01*
X155244311Y-107956279D01*
X155243752Y-108166635D01*
X155243185Y-108401748D01*
X155242655Y-108617741D01*
X155242155Y-108858535D01*
X155241895Y-109088274D01*
X155241868Y-109305493D01*
X155242067Y-109508722D01*
X155242486Y-109696496D01*
X155243118Y-109867345D01*
X155243956Y-110019803D01*
X155244992Y-110152403D01*
X155246220Y-110263676D01*
X155247633Y-110352156D01*
X155249225Y-110416375D01*
X155250987Y-110454865D01*
X155251321Y-110458933D01*
X155263466Y-110552248D01*
X155282427Y-110627190D01*
X155311302Y-110692594D01*
X155353190Y-110757293D01*
X155358429Y-110764352D01*
X155391884Y-110808973D01*
X155758315Y-110808973D01*
X155759054Y-110727479D01*
X155759893Y-110588090D01*
X155760498Y-110430539D01*
X155760905Y-110253691D01*
X155761150Y-110056410D01*
X155761267Y-109837560D01*
X155761295Y-109596007D01*
X155761267Y-109330615D01*
X155761220Y-109040249D01*
X155761190Y-108723773D01*
X155761189Y-108660946D01*
X155761172Y-108341137D01*
X155761112Y-108047661D01*
X155761002Y-107779390D01*
X155760833Y-107535198D01*
X155760597Y-107313957D01*
X155760284Y-107114540D01*
X155759885Y-106935820D01*
X155759393Y-106776671D01*
X155758797Y-106635966D01*
X155758090Y-106512576D01*
X155757263Y-106405376D01*
X155756307Y-106313238D01*
X155755213Y-106235035D01*
X155753973Y-106169641D01*
X155752578Y-106115928D01*
X155751018Y-106072769D01*
X155749286Y-106039037D01*
X155747372Y-106013605D01*
X155745268Y-105995347D01*
X155742966Y-105983134D01*
X155740455Y-105975841D01*
X155740363Y-105975659D01*
X155735192Y-105964518D01*
X155730885Y-105954431D01*
X155726121Y-105945346D01*
X155719578Y-105937212D01*
X155709935Y-105929976D01*
X155695871Y-105923586D01*
X155676063Y-105917989D01*
X155649191Y-105913133D01*
X155613933Y-105908966D01*
X155568968Y-105905436D01*
X155512974Y-105902491D01*
X155444629Y-105900077D01*
X155362614Y-105898144D01*
X155265605Y-105896638D01*
X155152282Y-105895508D01*
X155021323Y-105894702D01*
X154871407Y-105894166D01*
X154701213Y-105893849D01*
X154509418Y-105893699D01*
X154294702Y-105893663D01*
X154055743Y-105893689D01*
G37*
X154055743Y-105893689D02*
X153791220Y-105893725D01*
X153668088Y-105893730D01*
X151697189Y-105893730D01*
X151697189Y-106009910D01*
X151684789Y-106151291D01*
X151647364Y-106281684D01*
X151584577Y-106401862D01*
X151496094Y-106512602D01*
X151466157Y-106542511D01*
X151358466Y-106627348D01*
X151239725Y-106689221D01*
X151113460Y-106728159D01*
X150983197Y-106744190D01*
X150852465Y-106737342D01*
X150724788Y-106707643D01*
X150603695Y-106655120D01*
X150492712Y-106579803D01*
X150442868Y-106534363D01*
X150349983Y-106422952D01*
X150281873Y-106300435D01*
X150239129Y-106168215D01*
X150222347Y-106027692D01*
X150222124Y-106013867D01*
X150221244Y-105893734D01*
X150168443Y-105893732D01*
X150121604Y-105900089D01*
X150078817Y-105915556D01*
X150075989Y-105917154D01*
X150066325Y-105922168D01*
X150057451Y-105926073D01*
X150049335Y-105930007D01*
X150041943Y-105935106D01*
X150035245Y-105942508D01*
X150029208Y-105953351D01*
X150023801Y-105968772D01*
X150018990Y-105989909D01*
X150014745Y-106017899D01*
X150011032Y-106053879D01*
X150007821Y-106098987D01*
X150005078Y-106154360D01*
X150002772Y-106221137D01*
X150000871Y-106300453D01*
X149999342Y-106393447D01*
X149998154Y-106501257D01*
X149997274Y-106625019D01*
X149996670Y-106765871D01*
X149996311Y-106924950D01*
X149996165Y-107103395D01*
X149996198Y-107302342D01*
X149996380Y-107522929D01*
X149996677Y-107766293D01*
X149997059Y-108033572D01*
X149997492Y-108325903D01*
X149997945Y-108644424D01*
X149997998Y-108683230D01*
X149998404Y-109003782D01*
X149998749Y-109298012D01*
X149999069Y-109567056D01*
X149999400Y-109812052D01*
X149999779Y-110034137D01*
X150000243Y-110234447D01*
X150000828Y-110414119D01*
X150001570Y-110574290D01*
X150002506Y-110716098D01*
X150003673Y-110840679D01*
X150005107Y-110949170D01*
X150006844Y-111042707D01*
X150008922Y-111122429D01*
X150011376Y-111189472D01*
X150014244Y-111244973D01*
X150017561Y-111290068D01*
X150021364Y-111325895D01*
X150025690Y-111353591D01*
X150030575Y-111374293D01*
X150036055Y-111389137D01*
X150042168Y-111399260D01*
X150048950Y-111405800D01*
X150056437Y-111409893D01*
X150064666Y-111412676D01*
X150073673Y-111415287D01*
X150083495Y-111418862D01*
X150085894Y-111419950D01*
X150093435Y-111422396D01*
X150106056Y-111424642D01*
X150124859Y-111426698D01*
X150150947Y-111428572D01*
X150185422Y-111430271D01*
X150229385Y-111431803D01*
X150283939Y-111433177D01*
X150350185Y-111434400D01*
X150429226Y-111435481D01*
X150522163Y-111436427D01*
X150630099Y-111437247D01*
X150754136Y-111437947D01*
X150895376Y-111438538D01*
X151054921Y-111439025D01*
X151233872Y-111439419D01*
X151433332Y-111439725D01*
X151654404Y-111439953D01*
X151898188Y-111440110D01*
X152165787Y-111440205D01*
X152458303Y-111440245D01*
X152776839Y-111440238D01*
X152880021Y-111440228D01*
X153205623Y-111440176D01*
X153504881Y-111440091D01*
X153778909Y-111439963D01*
X154028824Y-111439785D01*
X154255740Y-111439548D01*
X154460773Y-111439242D01*
X154645038Y-111438860D01*
X154809650Y-111438392D01*
X154955725Y-111437830D01*
X155084376Y-111437165D01*
X155196721Y-111436388D01*
X155293874Y-111435491D01*
X155376950Y-111434465D01*
X155447064Y-111433301D01*
X155505332Y-111431991D01*
X155552869Y-111430525D01*
X155590790Y-111428896D01*
X155620210Y-111427093D01*
X155642245Y-111425110D01*
X155658010Y-111422936D01*
X155668620Y-111420563D01*
X155674404Y-111418391D01*
X155684684Y-111414056D01*
X155694122Y-111410859D01*
X155702755Y-111407665D01*
X155710619Y-111403338D01*
X155717748Y-111396744D01*
X155724179Y-111386747D01*
X155729947Y-111372212D01*
X155735089Y-111352003D01*
X155739640Y-111324985D01*
X155743635Y-111290023D01*
X155747111Y-111245981D01*
X155750102Y-111191724D01*
X155752646Y-111126117D01*
X155754777Y-111048024D01*
X155756532Y-110956310D01*
X155757945Y-110849840D01*
X155758315Y-110808973D01*
X155391884Y-110808973D01*
X154096734Y-110808973D01*
X154121655Y-110771217D01*
X154146447Y-110732417D01*
X154167440Y-110695469D01*
X154184935Y-110657788D01*
X154199230Y-110616788D01*
X154210623Y-110569883D01*
X154219413Y-110514487D01*
X154225898Y-110448016D01*
X154230377Y-110367883D01*
X154233150Y-110271502D01*
X154234513Y-110156289D01*
X154234767Y-110019657D01*
X154234209Y-109859020D01*
X154233893Y-109799382D01*
X154230325Y-109160041D01*
X153825298Y-109711449D01*
X153710554Y-109867876D01*
X153611143Y-110004088D01*
X153525990Y-110121890D01*
X153454022Y-110223084D01*
X153394166Y-110309477D01*
X153345348Y-110382874D01*
X153306495Y-110445077D01*
X153276534Y-110497893D01*
X153254391Y-110543125D01*
X153238993Y-110582578D01*
X153229266Y-110618058D01*
X153224137Y-110651368D01*
X153222532Y-110684313D01*
X153223379Y-110718697D01*
X153223595Y-110723019D01*
X153228054Y-110809031D01*
X151808692Y-110808973D01*
X151914265Y-110702522D01*
X151942913Y-110673406D01*
X151970090Y-110645076D01*
X151996989Y-110615968D01*
X152024803Y-110584520D01*
X152054725Y-110549169D01*
X152087946Y-110508354D01*
X152125661Y-110460511D01*
X152169060Y-110404079D01*
X152219338Y-110337494D01*
X152277688Y-110259195D01*
X152345300Y-110167619D01*
X152423369Y-110061204D01*
X152513088Y-109938387D01*
X152615648Y-109797605D01*
X152732242Y-109637297D01*
X152827809Y-109505798D01*
X152947749Y-109340596D01*
X153052380Y-109196152D01*
X153142648Y-109071094D01*
X153219503Y-108964052D01*
X153283891Y-108873654D01*
X153336761Y-108798529D01*
X153379060Y-108737304D01*
X153411736Y-108688610D01*
X153435738Y-108651074D01*
X153452013Y-108623325D01*
X153461508Y-108603992D01*
X153465173Y-108591703D01*
X153464071Y-108585242D01*
X153450724Y-108568048D01*
X153421866Y-108531655D01*
X153379240Y-108478224D01*
X153324585Y-108409919D01*
X153259644Y-108328903D01*
X153186158Y-108237340D01*
X153105868Y-108137392D01*
X153020515Y-108031224D01*
X152931840Y-107920997D01*
X152841586Y-107808876D01*
X152791944Y-107747244D01*
X151559373Y-107747244D01*
X151508146Y-107839919D01*
X151456919Y-107932595D01*
X151456919Y-110623622D01*
X151508146Y-110716298D01*
X151559373Y-110808973D01*
X150953396Y-110808973D01*
X150808734Y-110808931D01*
X150689244Y-110808741D01*
X150592642Y-110808308D01*
X150516642Y-110807536D01*
X150458957Y-110806330D01*
X150417301Y-110804594D01*
X150389389Y-110802232D01*
X150372935Y-110799150D01*
X150365652Y-110795251D01*
X150365255Y-110790440D01*
X150369458Y-110784622D01*
X150369501Y-110784574D01*
X150386813Y-110759532D01*
X150409736Y-110718815D01*
X150429981Y-110678168D01*
X150468379Y-110596162D01*
X150476211Y-107747244D01*
X151559373Y-107747244D01*
X152791944Y-107747244D01*
X152751493Y-107697024D01*
X152663302Y-107587604D01*
X152578754Y-107482778D01*
X152499592Y-107384711D01*
X152427556Y-107295566D01*
X152364387Y-107217505D01*
X152311827Y-107152692D01*
X152271617Y-107103290D01*
X152248000Y-107074487D01*
X152156290Y-106966778D01*
X152068060Y-106869580D01*
X151986403Y-106786076D01*
X151914410Y-106719448D01*
X151863319Y-106678599D01*
X151802907Y-106635135D01*
X153192298Y-106635135D01*
X153191908Y-106716666D01*
X153195791Y-106776606D01*
X153210390Y-106832177D01*
X153232988Y-106884855D01*
X153247678Y-106914615D01*
X153263472Y-106944103D01*
X153281814Y-106975276D01*
X153304145Y-107010093D01*
X153331909Y-107050510D01*
X153366549Y-107098486D01*
X153409507Y-107155978D01*
X153462227Y-107224943D01*
X153526151Y-107307339D01*
X153602721Y-107405124D01*
X153693381Y-107520255D01*
X153799574Y-107654690D01*
X153811568Y-107669859D01*
X154230325Y-108199412D01*
X154234378Y-107612922D01*
X154235195Y-107437251D01*
X154235021Y-107288532D01*
X154233849Y-107166275D01*
X154231669Y-107069989D01*
X154228474Y-106999183D01*
X154224256Y-106953369D01*
X154222838Y-106944679D01*
X154200591Y-106853135D01*
X154171443Y-106770608D01*
X154138182Y-106704253D01*
X154118200Y-106676110D01*
X154083722Y-106635135D01*
X154737914Y-106635135D01*
X154893969Y-106635269D01*
X155024467Y-106635703D01*
X155131310Y-106636489D01*
X155216398Y-106637676D01*
X155281635Y-106639317D01*
X155328921Y-106641461D01*
X155360157Y-106644159D01*
X155377246Y-106647462D01*
X155382088Y-106651421D01*
X155381753Y-106652298D01*
X155367885Y-106673231D01*
X155344732Y-106706412D01*
X155332754Y-106723193D01*
X155320369Y-106739940D01*
X155309237Y-106754915D01*
X155299288Y-106769594D01*
X155290451Y-106785449D01*
X155282657Y-106803955D01*
X155275835Y-106826585D01*
X155269916Y-106854813D01*
X155264829Y-106890113D01*
X155260504Y-106933958D01*
X155256871Y-106987822D01*
X155253860Y-107053180D01*
X155251401Y-107131504D01*
X155249423Y-107224268D01*
X155247858Y-107332947D01*
X155246634Y-107459013D01*
X155245681Y-107603942D01*
X155244930Y-107769206D01*
X155244311Y-107956279D01*
X155243752Y-108166635D01*
X155243185Y-108401748D01*
X155242655Y-108617741D01*
X155242155Y-108858535D01*
X155241895Y-109088274D01*
X155241868Y-109305493D01*
X155242067Y-109508722D01*
X155242486Y-109696496D01*
X155243118Y-109867345D01*
X155243956Y-110019803D01*
X155244992Y-110152403D01*
X155246220Y-110263676D01*
X155247633Y-110352156D01*
X155249225Y-110416375D01*
X155250987Y-110454865D01*
X155251321Y-110458933D01*
X155263466Y-110552248D01*
X155282427Y-110627190D01*
X155311302Y-110692594D01*
X155353190Y-110757293D01*
X155358429Y-110764352D01*
X155391884Y-110808973D01*
X155758315Y-110808973D01*
X155759054Y-110727479D01*
X155759893Y-110588090D01*
X155760498Y-110430539D01*
X155760905Y-110253691D01*
X155761150Y-110056410D01*
X155761267Y-109837560D01*
X155761295Y-109596007D01*
X155761267Y-109330615D01*
X155761220Y-109040249D01*
X155761190Y-108723773D01*
X155761189Y-108660946D01*
X155761172Y-108341137D01*
X155761112Y-108047661D01*
X155761002Y-107779390D01*
X155760833Y-107535198D01*
X155760597Y-107313957D01*
X155760284Y-107114540D01*
X155759885Y-106935820D01*
X155759393Y-106776671D01*
X155758797Y-106635966D01*
X155758090Y-106512576D01*
X155757263Y-106405376D01*
X155756307Y-106313238D01*
X155755213Y-106235035D01*
X155753973Y-106169641D01*
X155752578Y-106115928D01*
X155751018Y-106072769D01*
X155749286Y-106039037D01*
X155747372Y-106013605D01*
X155745268Y-105995347D01*
X155742966Y-105983134D01*
X155740455Y-105975841D01*
X155740363Y-105975659D01*
X155735192Y-105964518D01*
X155730885Y-105954431D01*
X155726121Y-105945346D01*
X155719578Y-105937212D01*
X155709935Y-105929976D01*
X155695871Y-105923586D01*
X155676063Y-105917989D01*
X155649191Y-105913133D01*
X155613933Y-105908966D01*
X155568968Y-105905436D01*
X155512974Y-105902491D01*
X155444629Y-105900077D01*
X155362614Y-105898144D01*
X155265605Y-105896638D01*
X155152282Y-105895508D01*
X155021323Y-105894702D01*
X154871407Y-105894166D01*
X154701213Y-105893849D01*
X154509418Y-105893699D01*
X154294702Y-105893663D01*
X154055743Y-105893689D01*
G36*
X147660038Y-106580499D02*
G01*
X147511986Y-106596707D01*
X147368548Y-106625718D01*
X147223890Y-106669045D01*
X147072176Y-106728201D01*
X146907572Y-106804700D01*
X146877929Y-106819517D01*
X146809902Y-106853031D01*
X146745744Y-106883208D01*
X146691785Y-106907166D01*
X146654360Y-106922024D01*
X146648611Y-106923895D01*
X146593514Y-106940402D01*
X146840149Y-107299201D01*
X146900448Y-107386893D01*
X146955578Y-107467012D01*
X147003664Y-107536836D01*
X147042832Y-107593647D01*
X147071206Y-107634723D01*
X147086913Y-107657346D01*
X147089464Y-107660928D01*
X147099829Y-107653438D01*
X147125340Y-107630918D01*
X147161437Y-107597461D01*
X147181358Y-107578550D01*
X147294227Y-107488778D01*
X147420986Y-107420561D01*
X147530217Y-107383195D01*
X147595786Y-107371460D01*
X147677884Y-107364308D01*
X147766856Y-107361874D01*
X147853044Y-107364288D01*
X147926795Y-107371683D01*
X147956224Y-107377347D01*
X148088867Y-107422982D01*
X148208394Y-107492663D01*
X148314717Y-107586260D01*
X148407747Y-107703649D01*
X148487395Y-107844700D01*
X148553574Y-108009286D01*
X148606194Y-108197280D01*
X148637467Y-108358217D01*
X148645626Y-108429263D01*
X148651185Y-108521046D01*
X148654198Y-108626968D01*
X148654719Y-108740434D01*
X148652800Y-108854849D01*
X148648497Y-108963617D01*
X148641863Y-109060143D01*
X148632951Y-109137831D01*
X148631021Y-109149817D01*
X148588501Y-109342892D01*
X148530567Y-109513773D01*
X148456867Y-109663224D01*
X148367049Y-109792011D01*
X148303293Y-109861639D01*
X148188714Y-109956173D01*
X148063058Y-110026246D01*
X147928443Y-110071477D01*
X147786989Y-110091484D01*
X147640817Y-110085885D01*
X147492045Y-110054300D01*
X147404089Y-110023394D01*
X147282371Y-109961506D01*
X147156920Y-109872729D01*
X147086647Y-109812694D01*
X147047189Y-109777947D01*
X147016188Y-109752454D01*
X146998542Y-109740170D01*
X146996352Y-109739795D01*
X146988476Y-109752347D01*
X146968068Y-109785516D01*
X146936868Y-109836458D01*
X146896614Y-109902331D01*
X146849043Y-109980289D01*
X146795896Y-110067490D01*
X146766313Y-110116067D01*
X146540352Y-110487215D01*
X146822473Y-110626639D01*
X146924478Y-110676719D01*
X147007111Y-110716210D01*
X147075422Y-110747073D01*
X147134463Y-110771268D01*
X147189286Y-110790758D01*
X147244940Y-110807503D01*
X147306477Y-110823465D01*
X147365460Y-110837482D01*
X147417885Y-110848329D01*
X147472712Y-110856526D01*
X147535428Y-110862528D01*
X147611523Y-110866790D01*
X147706484Y-110869767D01*
X147770487Y-110871052D01*
X147861808Y-110871930D01*
X147949373Y-110871487D01*
X148027388Y-110869852D01*
X148090058Y-110867149D01*
X148131587Y-110863505D01*
X148134048Y-110863142D01*
X148349697Y-110816487D01*
X148552207Y-110745729D01*
X148741505Y-110650914D01*
X148917521Y-110532089D01*
X149080184Y-110389300D01*
X149229422Y-110222594D01*
X149337504Y-110074433D01*
X149452566Y-109880502D01*
X149545577Y-109675699D01*
X149616987Y-109458383D01*
X149667244Y-109226912D01*
X149696799Y-108979643D01*
X149706111Y-108728559D01*
X149698452Y-108485670D01*
X149674387Y-108261570D01*
X149633148Y-108052477D01*
X149573973Y-107854613D01*
X149496096Y-107664196D01*
X149486797Y-107644468D01*
X149384352Y-107460059D01*
X149258528Y-107284576D01*
X149112888Y-107121650D01*
X148950999Y-106974914D01*
X148776424Y-106848001D01*
X148613756Y-106754905D01*
X148449427Y-106681991D01*
X148284749Y-106629174D01*
X148113348Y-106595015D01*
X147928847Y-106578078D01*
X147818541Y-106575580D01*
X147660038Y-106580499D01*
G37*
X147660038Y-106580499D02*
X147511986Y-106596707D01*
X147368548Y-106625718D01*
X147223890Y-106669045D01*
X147072176Y-106728201D01*
X146907572Y-106804700D01*
X146877929Y-106819517D01*
X146809902Y-106853031D01*
X146745744Y-106883208D01*
X146691785Y-106907166D01*
X146654360Y-106922024D01*
X146648611Y-106923895D01*
X146593514Y-106940402D01*
X146840149Y-107299201D01*
X146900448Y-107386893D01*
X146955578Y-107467012D01*
X147003664Y-107536836D01*
X147042832Y-107593647D01*
X147071206Y-107634723D01*
X147086913Y-107657346D01*
X147089464Y-107660928D01*
X147099829Y-107653438D01*
X147125340Y-107630918D01*
X147161437Y-107597461D01*
X147181358Y-107578550D01*
X147294227Y-107488778D01*
X147420986Y-107420561D01*
X147530217Y-107383195D01*
X147595786Y-107371460D01*
X147677884Y-107364308D01*
X147766856Y-107361874D01*
X147853044Y-107364288D01*
X147926795Y-107371683D01*
X147956224Y-107377347D01*
X148088867Y-107422982D01*
X148208394Y-107492663D01*
X148314717Y-107586260D01*
X148407747Y-107703649D01*
X148487395Y-107844700D01*
X148553574Y-108009286D01*
X148606194Y-108197280D01*
X148637467Y-108358217D01*
X148645626Y-108429263D01*
X148651185Y-108521046D01*
X148654198Y-108626968D01*
X148654719Y-108740434D01*
X148652800Y-108854849D01*
X148648497Y-108963617D01*
X148641863Y-109060143D01*
X148632951Y-109137831D01*
X148631021Y-109149817D01*
X148588501Y-109342892D01*
X148530567Y-109513773D01*
X148456867Y-109663224D01*
X148367049Y-109792011D01*
X148303293Y-109861639D01*
X148188714Y-109956173D01*
X148063058Y-110026246D01*
X147928443Y-110071477D01*
X147786989Y-110091484D01*
X147640817Y-110085885D01*
X147492045Y-110054300D01*
X147404089Y-110023394D01*
X147282371Y-109961506D01*
X147156920Y-109872729D01*
X147086647Y-109812694D01*
X147047189Y-109777947D01*
X147016188Y-109752454D01*
X146998542Y-109740170D01*
X146996352Y-109739795D01*
X146988476Y-109752347D01*
X146968068Y-109785516D01*
X146936868Y-109836458D01*
X146896614Y-109902331D01*
X146849043Y-109980289D01*
X146795896Y-110067490D01*
X146766313Y-110116067D01*
X146540352Y-110487215D01*
X146822473Y-110626639D01*
X146924478Y-110676719D01*
X147007111Y-110716210D01*
X147075422Y-110747073D01*
X147134463Y-110771268D01*
X147189286Y-110790758D01*
X147244940Y-110807503D01*
X147306477Y-110823465D01*
X147365460Y-110837482D01*
X147417885Y-110848329D01*
X147472712Y-110856526D01*
X147535428Y-110862528D01*
X147611523Y-110866790D01*
X147706484Y-110869767D01*
X147770487Y-110871052D01*
X147861808Y-110871930D01*
X147949373Y-110871487D01*
X148027388Y-110869852D01*
X148090058Y-110867149D01*
X148131587Y-110863505D01*
X148134048Y-110863142D01*
X148349697Y-110816487D01*
X148552207Y-110745729D01*
X148741505Y-110650914D01*
X148917521Y-110532089D01*
X149080184Y-110389300D01*
X149229422Y-110222594D01*
X149337504Y-110074433D01*
X149452566Y-109880502D01*
X149545577Y-109675699D01*
X149616987Y-109458383D01*
X149667244Y-109226912D01*
X149696799Y-108979643D01*
X149706111Y-108728559D01*
X149698452Y-108485670D01*
X149674387Y-108261570D01*
X149633148Y-108052477D01*
X149573973Y-107854613D01*
X149496096Y-107664196D01*
X149486797Y-107644468D01*
X149384352Y-107460059D01*
X149258528Y-107284576D01*
X149112888Y-107121650D01*
X148950999Y-106974914D01*
X148776424Y-106848001D01*
X148613756Y-106754905D01*
X148449427Y-106681991D01*
X148284749Y-106629174D01*
X148113348Y-106595015D01*
X147928847Y-106578078D01*
X147818541Y-106575580D01*
X147660038Y-106580499D01*
G36*
X144932495Y-107684229D02*
G01*
X144864469Y-107689378D01*
X144669837Y-107715273D01*
X144497471Y-107756575D01*
X144346530Y-107813853D01*
X144216175Y-107887674D01*
X144105566Y-107978608D01*
X144013865Y-108087222D01*
X143940230Y-108214085D01*
X143886461Y-108351352D01*
X143872813Y-108395137D01*
X143860927Y-108436141D01*
X143850666Y-108476569D01*
X143841887Y-108518630D01*
X143834452Y-108564531D01*
X143828220Y-108616480D01*
X143823050Y-108676685D01*
X143818804Y-108747352D01*
X143815340Y-108830689D01*
X143812519Y-108928905D01*
X143810200Y-109044205D01*
X143808243Y-109178799D01*
X143806509Y-109334893D01*
X143804857Y-109514695D01*
X143803676Y-109655676D01*
X143795730Y-110623622D01*
X143744244Y-110716770D01*
X143719863Y-110761645D01*
X143701720Y-110796501D01*
X143693065Y-110815054D01*
X143692757Y-110816311D01*
X143705986Y-110817749D01*
X143743674Y-110819074D01*
X143802817Y-110820249D01*
X143880414Y-110821237D01*
X143973464Y-110821999D01*
X144078965Y-110822500D01*
X144193916Y-110822701D01*
X144207622Y-110822703D01*
X144722487Y-110822703D01*
X144722487Y-110706000D01*
X144723365Y-110653260D01*
X144725708Y-110612926D01*
X144729079Y-110591300D01*
X144730569Y-110589298D01*
X144744196Y-110597683D01*
X144772243Y-110619692D01*
X144808697Y-110650601D01*
X144809515Y-110651316D01*
X144876038Y-110700843D01*
X144960052Y-110750575D01*
X145052063Y-110795626D01*
X145142579Y-110831110D01*
X145182433Y-110843236D01*
X145261745Y-110858637D01*
X145359065Y-110868465D01*
X145465484Y-110872580D01*
X145572093Y-110870841D01*
X145669983Y-110863108D01*
X145738487Y-110851981D01*
X145906480Y-110802648D01*
X146057719Y-110732342D01*
X146191218Y-110641933D01*
X146305994Y-110532295D01*
X146401063Y-110404299D01*
X146475440Y-110258818D01*
X146507526Y-110170541D01*
X146527635Y-110084739D01*
X146540962Y-109981736D01*
X146547128Y-109871034D01*
X146546926Y-109854925D01*
X145618352Y-109854925D01*
X145610652Y-109937184D01*
X145585011Y-110005546D01*
X145537622Y-110068970D01*
X145519421Y-110087567D01*
X145454718Y-110137846D01*
X145379934Y-110170056D01*
X145290338Y-110185648D01*
X145195988Y-110186796D01*
X145106499Y-110179216D01*
X145037982Y-110164389D01*
X145008225Y-110153253D01*
X144954592Y-110122904D01*
X144897765Y-110080221D01*
X144845918Y-110032317D01*
X144807222Y-109986301D01*
X144796946Y-109969421D01*
X144788958Y-109945782D01*
X144783279Y-109908168D01*
X144779644Y-109852985D01*
X144777789Y-109776640D01*
X144777406Y-109703981D01*
X144777665Y-109619270D01*
X144778713Y-109558018D01*
X144780955Y-109516227D01*
X144784794Y-109489899D01*
X144790635Y-109475035D01*
X144798882Y-109467639D01*
X144801433Y-109466461D01*
X144823600Y-109462833D01*
X144867320Y-109459866D01*
X144926689Y-109457827D01*
X144995804Y-109456983D01*
X145010811Y-109456982D01*
X145103195Y-109458457D01*
X145174568Y-109462842D01*
X145231281Y-109470738D01*
X145278128Y-109482270D01*
X145394331Y-109526215D01*
X145485457Y-109580243D01*
X145552295Y-109645219D01*
X145595635Y-109722005D01*
X145616266Y-109811467D01*
X145618352Y-109854925D01*
X146546926Y-109854925D01*
X146545756Y-109762133D01*
X146536468Y-109664536D01*
X146529223Y-109625105D01*
X146482961Y-109478701D01*
X146412616Y-109343995D01*
X146319516Y-109222280D01*
X146204988Y-109114847D01*
X146070360Y-109022988D01*
X145916960Y-108947996D01*
X145786541Y-108902458D01*
X145699377Y-108878533D01*
X145616004Y-108859943D01*
X145531024Y-108846084D01*
X145439035Y-108836351D01*
X145334638Y-108830141D01*
X145212432Y-108826851D01*
X145101945Y-108825924D01*
X144774323Y-108825027D01*
X144780599Y-108726547D01*
X144798421Y-108619695D01*
X144836333Y-108527852D01*
X144892720Y-108453310D01*
X144965969Y-108398364D01*
X145030465Y-108371552D01*
X145122877Y-108354654D01*
X145232889Y-108352227D01*
X145355344Y-108363378D01*
X145485086Y-108387210D01*
X145616958Y-108422830D01*
X145745802Y-108469343D01*
X145839434Y-108511883D01*
X145884483Y-108533728D01*
X145918844Y-108548984D01*
X145936319Y-108554937D01*
X145937267Y-108554746D01*
X145943297Y-108541412D01*
X145958355Y-108506068D01*
X145981023Y-108452101D01*
X146009885Y-108382896D01*
X146043523Y-108301840D01*
X146077716Y-108219118D01*
X146214414Y-107887803D01*
X146117180Y-107871833D01*
X146075036Y-107863820D01*
X146011681Y-107850361D01*
X145932543Y-107832679D01*
X145843049Y-107811996D01*
X145748627Y-107789532D01*
X145711027Y-107780403D01*
X145548363Y-107742674D01*
X145405950Y-107714388D01*
X145278473Y-107694972D01*
X145160616Y-107683854D01*
X145047062Y-107680464D01*
X144932495Y-107684229D01*
G37*
X144932495Y-107684229D02*
X144864469Y-107689378D01*
X144669837Y-107715273D01*
X144497471Y-107756575D01*
X144346530Y-107813853D01*
X144216175Y-107887674D01*
X144105566Y-107978608D01*
X144013865Y-108087222D01*
X143940230Y-108214085D01*
X143886461Y-108351352D01*
X143872813Y-108395137D01*
X143860927Y-108436141D01*
X143850666Y-108476569D01*
X143841887Y-108518630D01*
X143834452Y-108564531D01*
X143828220Y-108616480D01*
X143823050Y-108676685D01*
X143818804Y-108747352D01*
X143815340Y-108830689D01*
X143812519Y-108928905D01*
X143810200Y-109044205D01*
X143808243Y-109178799D01*
X143806509Y-109334893D01*
X143804857Y-109514695D01*
X143803676Y-109655676D01*
X143795730Y-110623622D01*
X143744244Y-110716770D01*
X143719863Y-110761645D01*
X143701720Y-110796501D01*
X143693065Y-110815054D01*
X143692757Y-110816311D01*
X143705986Y-110817749D01*
X143743674Y-110819074D01*
X143802817Y-110820249D01*
X143880414Y-110821237D01*
X143973464Y-110821999D01*
X144078965Y-110822500D01*
X144193916Y-110822701D01*
X144207622Y-110822703D01*
X144722487Y-110822703D01*
X144722487Y-110706000D01*
X144723365Y-110653260D01*
X144725708Y-110612926D01*
X144729079Y-110591300D01*
X144730569Y-110589298D01*
X144744196Y-110597683D01*
X144772243Y-110619692D01*
X144808697Y-110650601D01*
X144809515Y-110651316D01*
X144876038Y-110700843D01*
X144960052Y-110750575D01*
X145052063Y-110795626D01*
X145142579Y-110831110D01*
X145182433Y-110843236D01*
X145261745Y-110858637D01*
X145359065Y-110868465D01*
X145465484Y-110872580D01*
X145572093Y-110870841D01*
X145669983Y-110863108D01*
X145738487Y-110851981D01*
X145906480Y-110802648D01*
X146057719Y-110732342D01*
X146191218Y-110641933D01*
X146305994Y-110532295D01*
X146401063Y-110404299D01*
X146475440Y-110258818D01*
X146507526Y-110170541D01*
X146527635Y-110084739D01*
X146540962Y-109981736D01*
X146547128Y-109871034D01*
X146546926Y-109854925D01*
X145618352Y-109854925D01*
X145610652Y-109937184D01*
X145585011Y-110005546D01*
X145537622Y-110068970D01*
X145519421Y-110087567D01*
X145454718Y-110137846D01*
X145379934Y-110170056D01*
X145290338Y-110185648D01*
X145195988Y-110186796D01*
X145106499Y-110179216D01*
X145037982Y-110164389D01*
X145008225Y-110153253D01*
X144954592Y-110122904D01*
X144897765Y-110080221D01*
X144845918Y-110032317D01*
X144807222Y-109986301D01*
X144796946Y-109969421D01*
X144788958Y-109945782D01*
X144783279Y-109908168D01*
X144779644Y-109852985D01*
X144777789Y-109776640D01*
X144777406Y-109703981D01*
X144777665Y-109619270D01*
X144778713Y-109558018D01*
X144780955Y-109516227D01*
X144784794Y-109489899D01*
X144790635Y-109475035D01*
X144798882Y-109467639D01*
X144801433Y-109466461D01*
X144823600Y-109462833D01*
X144867320Y-109459866D01*
X144926689Y-109457827D01*
X144995804Y-109456983D01*
X145010811Y-109456982D01*
X145103195Y-109458457D01*
X145174568Y-109462842D01*
X145231281Y-109470738D01*
X145278128Y-109482270D01*
X145394331Y-109526215D01*
X145485457Y-109580243D01*
X145552295Y-109645219D01*
X145595635Y-109722005D01*
X145616266Y-109811467D01*
X145618352Y-109854925D01*
X146546926Y-109854925D01*
X146545756Y-109762133D01*
X146536468Y-109664536D01*
X146529223Y-109625105D01*
X146482961Y-109478701D01*
X146412616Y-109343995D01*
X146319516Y-109222280D01*
X146204988Y-109114847D01*
X146070360Y-109022988D01*
X145916960Y-108947996D01*
X145786541Y-108902458D01*
X145699377Y-108878533D01*
X145616004Y-108859943D01*
X145531024Y-108846084D01*
X145439035Y-108836351D01*
X145334638Y-108830141D01*
X145212432Y-108826851D01*
X145101945Y-108825924D01*
X144774323Y-108825027D01*
X144780599Y-108726547D01*
X144798421Y-108619695D01*
X144836333Y-108527852D01*
X144892720Y-108453310D01*
X144965969Y-108398364D01*
X145030465Y-108371552D01*
X145122877Y-108354654D01*
X145232889Y-108352227D01*
X145355344Y-108363378D01*
X145485086Y-108387210D01*
X145616958Y-108422830D01*
X145745802Y-108469343D01*
X145839434Y-108511883D01*
X145884483Y-108533728D01*
X145918844Y-108548984D01*
X145936319Y-108554937D01*
X145937267Y-108554746D01*
X145943297Y-108541412D01*
X145958355Y-108506068D01*
X145981023Y-108452101D01*
X146009885Y-108382896D01*
X146043523Y-108301840D01*
X146077716Y-108219118D01*
X146214414Y-107887803D01*
X146117180Y-107871833D01*
X146075036Y-107863820D01*
X146011681Y-107850361D01*
X145932543Y-107832679D01*
X145843049Y-107811996D01*
X145748627Y-107789532D01*
X145711027Y-107780403D01*
X145548363Y-107742674D01*
X145405950Y-107714388D01*
X145278473Y-107694972D01*
X145160616Y-107683854D01*
X145047062Y-107680464D01*
X144932495Y-107684229D01*
G36*
X141257730Y-106376825D02*
G01*
X141140959Y-106377304D01*
X141101271Y-106377545D01*
X140555514Y-106381135D01*
X140548649Y-108474919D01*
X140547742Y-108758842D01*
X140546938Y-109016640D01*
X140546185Y-109249646D01*
X140545431Y-109459194D01*
X140544625Y-109646618D01*
X140543715Y-109813250D01*
X140542649Y-109960425D01*
X140541376Y-110089477D01*
X140539844Y-110201739D01*
X140538002Y-110298544D01*
X140535797Y-110381226D01*
X140533178Y-110451119D01*
X140530094Y-110509557D01*
X140526492Y-110557872D01*
X140522322Y-110597400D01*
X140517531Y-110629473D01*
X140512069Y-110655424D01*
X140505882Y-110676589D01*
X140498920Y-110694299D01*
X140491131Y-110709889D01*
X140482463Y-110724693D01*
X140472865Y-110740044D01*
X140462285Y-110757276D01*
X140460116Y-110760946D01*
X140423732Y-110823031D01*
X140949569Y-110819434D01*
X141475406Y-110815838D01*
X141482271Y-110700331D01*
X141486008Y-110644899D01*
X141489903Y-110612851D01*
X141495189Y-110600135D01*
X141503097Y-110602696D01*
X141509730Y-110610024D01*
X141538626Y-110636714D01*
X141585721Y-110671021D01*
X141644380Y-110708846D01*
X141707969Y-110746090D01*
X141769851Y-110778653D01*
X141817366Y-110800077D01*
X141928684Y-110835283D01*
X142056404Y-110860222D01*
X142191099Y-110873941D01*
X142323337Y-110875486D01*
X142443692Y-110863906D01*
X142445674Y-110863574D01*
X142610359Y-110822250D01*
X142764521Y-110756412D01*
X142906672Y-110667474D01*
X143035325Y-110556852D01*
X143148993Y-110425961D01*
X143246190Y-110276216D01*
X143325428Y-110109033D01*
X143368570Y-109985190D01*
X143397021Y-109881581D01*
X143418120Y-109781252D01*
X143432512Y-109678109D01*
X143440842Y-109566057D01*
X143443755Y-109439001D01*
X143442465Y-109335252D01*
X142429350Y-109335252D01*
X142424556Y-109509222D01*
X142409432Y-109658895D01*
X142383515Y-109785597D01*
X142346337Y-109890658D01*
X142297435Y-109975406D01*
X142236342Y-110041169D01*
X142165823Y-110087659D01*
X142129129Y-110105014D01*
X142097304Y-110115419D01*
X142061823Y-110120179D01*
X142014159Y-110120601D01*
X141962811Y-110118748D01*
X141861831Y-110109841D01*
X141781965Y-110092398D01*
X141756865Y-110083661D01*
X141699552Y-110057857D01*
X141639103Y-110025453D01*
X141612703Y-110009233D01*
X141544054Y-109964205D01*
X141544054Y-108536982D01*
X141619568Y-108491718D01*
X141724879Y-108440572D01*
X141832475Y-108410324D01*
X141938419Y-108400795D01*
X142038776Y-108411807D01*
X142129613Y-108443181D01*
X142206993Y-108494740D01*
X142231961Y-108519488D01*
X142292144Y-108600577D01*
X142340855Y-108698734D01*
X142378501Y-108815643D01*
X142405488Y-108952985D01*
X142422225Y-109112444D01*
X142429117Y-109295700D01*
X142429350Y-109335252D01*
X143442465Y-109335252D01*
X143441927Y-109292067D01*
X143430353Y-109066053D01*
X143407080Y-108862192D01*
X143371496Y-108677513D01*
X143322987Y-108509048D01*
X143260940Y-108353826D01*
X143238799Y-108307808D01*
X143149615Y-108157739D01*
X143041841Y-108024377D01*
X142918010Y-107909877D01*
X142780658Y-107816389D01*
X142632317Y-107746068D01*
X142543396Y-107717060D01*
X142456067Y-107699840D01*
X142350989Y-107689594D01*
X142236971Y-107686318D01*
X142122823Y-107690009D01*
X142017352Y-107700660D01*
X141932666Y-107717370D01*
X141831872Y-107750140D01*
X141734178Y-107792279D01*
X141648704Y-107839519D01*
X141603211Y-107871581D01*
X141571831Y-107895422D01*
X141549858Y-107909939D01*
X141544859Y-107912000D01*
X141543310Y-107898718D01*
X141541865Y-107860663D01*
X141540557Y-107800519D01*
X141539417Y-107720973D01*
X141538479Y-107624711D01*
X141537774Y-107514419D01*
X141537333Y-107392781D01*
X141537189Y-107268885D01*
X141537270Y-107110196D01*
X141537665Y-106976408D01*
X141538605Y-106864960D01*
X141540320Y-106773295D01*
X141543043Y-106698853D01*
X141547003Y-106639075D01*
X141552431Y-106591402D01*
X141559559Y-106553274D01*
X141568616Y-106522134D01*
X141579833Y-106495421D01*
X141593442Y-106470577D01*
X141609672Y-106445043D01*
X141611760Y-106441881D01*
X141632694Y-106408810D01*
X141645333Y-106386069D01*
X141647027Y-106381272D01*
X141633784Y-106379759D01*
X141595998Y-106378528D01*
X141536584Y-106377599D01*
X141458458Y-106376992D01*
X141364535Y-106376727D01*
X141257730Y-106376825D01*
G37*
X141257730Y-106376825D02*
X141140959Y-106377304D01*
X141101271Y-106377545D01*
X140555514Y-106381135D01*
X140548649Y-108474919D01*
X140547742Y-108758842D01*
X140546938Y-109016640D01*
X140546185Y-109249646D01*
X140545431Y-109459194D01*
X140544625Y-109646618D01*
X140543715Y-109813250D01*
X140542649Y-109960425D01*
X140541376Y-110089477D01*
X140539844Y-110201739D01*
X140538002Y-110298544D01*
X140535797Y-110381226D01*
X140533178Y-110451119D01*
X140530094Y-110509557D01*
X140526492Y-110557872D01*
X140522322Y-110597400D01*
X140517531Y-110629473D01*
X140512069Y-110655424D01*
X140505882Y-110676589D01*
X140498920Y-110694299D01*
X140491131Y-110709889D01*
X140482463Y-110724693D01*
X140472865Y-110740044D01*
X140462285Y-110757276D01*
X140460116Y-110760946D01*
X140423732Y-110823031D01*
X140949569Y-110819434D01*
X141475406Y-110815838D01*
X141482271Y-110700331D01*
X141486008Y-110644899D01*
X141489903Y-110612851D01*
X141495189Y-110600135D01*
X141503097Y-110602696D01*
X141509730Y-110610024D01*
X141538626Y-110636714D01*
X141585721Y-110671021D01*
X141644380Y-110708846D01*
X141707969Y-110746090D01*
X141769851Y-110778653D01*
X141817366Y-110800077D01*
X141928684Y-110835283D01*
X142056404Y-110860222D01*
X142191099Y-110873941D01*
X142323337Y-110875486D01*
X142443692Y-110863906D01*
X142445674Y-110863574D01*
X142610359Y-110822250D01*
X142764521Y-110756412D01*
X142906672Y-110667474D01*
X143035325Y-110556852D01*
X143148993Y-110425961D01*
X143246190Y-110276216D01*
X143325428Y-110109033D01*
X143368570Y-109985190D01*
X143397021Y-109881581D01*
X143418120Y-109781252D01*
X143432512Y-109678109D01*
X143440842Y-109566057D01*
X143443755Y-109439001D01*
X143442465Y-109335252D01*
X142429350Y-109335252D01*
X142424556Y-109509222D01*
X142409432Y-109658895D01*
X142383515Y-109785597D01*
X142346337Y-109890658D01*
X142297435Y-109975406D01*
X142236342Y-110041169D01*
X142165823Y-110087659D01*
X142129129Y-110105014D01*
X142097304Y-110115419D01*
X142061823Y-110120179D01*
X142014159Y-110120601D01*
X141962811Y-110118748D01*
X141861831Y-110109841D01*
X141781965Y-110092398D01*
X141756865Y-110083661D01*
X141699552Y-110057857D01*
X141639103Y-110025453D01*
X141612703Y-110009233D01*
X141544054Y-109964205D01*
X141544054Y-108536982D01*
X141619568Y-108491718D01*
X141724879Y-108440572D01*
X141832475Y-108410324D01*
X141938419Y-108400795D01*
X142038776Y-108411807D01*
X142129613Y-108443181D01*
X142206993Y-108494740D01*
X142231961Y-108519488D01*
X142292144Y-108600577D01*
X142340855Y-108698734D01*
X142378501Y-108815643D01*
X142405488Y-108952985D01*
X142422225Y-109112444D01*
X142429117Y-109295700D01*
X142429350Y-109335252D01*
X143442465Y-109335252D01*
X143441927Y-109292067D01*
X143430353Y-109066053D01*
X143407080Y-108862192D01*
X143371496Y-108677513D01*
X143322987Y-108509048D01*
X143260940Y-108353826D01*
X143238799Y-108307808D01*
X143149615Y-108157739D01*
X143041841Y-108024377D01*
X142918010Y-107909877D01*
X142780658Y-107816389D01*
X142632317Y-107746068D01*
X142543396Y-107717060D01*
X142456067Y-107699840D01*
X142350989Y-107689594D01*
X142236971Y-107686318D01*
X142122823Y-107690009D01*
X142017352Y-107700660D01*
X141932666Y-107717370D01*
X141831872Y-107750140D01*
X141734178Y-107792279D01*
X141648704Y-107839519D01*
X141603211Y-107871581D01*
X141571831Y-107895422D01*
X141549858Y-107909939D01*
X141544859Y-107912000D01*
X141543310Y-107898718D01*
X141541865Y-107860663D01*
X141540557Y-107800519D01*
X141539417Y-107720973D01*
X141538479Y-107624711D01*
X141537774Y-107514419D01*
X141537333Y-107392781D01*
X141537189Y-107268885D01*
X141537270Y-107110196D01*
X141537665Y-106976408D01*
X141538605Y-106864960D01*
X141540320Y-106773295D01*
X141543043Y-106698853D01*
X141547003Y-106639075D01*
X141552431Y-106591402D01*
X141559559Y-106553274D01*
X141568616Y-106522134D01*
X141579833Y-106495421D01*
X141593442Y-106470577D01*
X141609672Y-106445043D01*
X141611760Y-106441881D01*
X141632694Y-106408810D01*
X141645333Y-106386069D01*
X141647027Y-106381272D01*
X141633784Y-106379759D01*
X141595998Y-106378528D01*
X141536584Y-106377599D01*
X141458458Y-106376992D01*
X141364535Y-106376727D01*
X141257730Y-106376825D01*
G36*
X150826079Y-105456490D02*
G01*
X150722973Y-105492238D01*
X150626978Y-105548507D01*
X150541247Y-105625288D01*
X150468930Y-105722573D01*
X150436445Y-105783892D01*
X150408332Y-105869660D01*
X150394705Y-105968677D01*
X150396214Y-106070471D01*
X150412969Y-106162714D01*
X150458763Y-106275432D01*
X150525168Y-106373207D01*
X150608809Y-106454115D01*
X150706312Y-106516232D01*
X150814300Y-106557634D01*
X150929399Y-106576397D01*
X151048234Y-106570598D01*
X151106811Y-106558206D01*
X151220972Y-106513797D01*
X151322365Y-106446033D01*
X151408545Y-106357001D01*
X151477066Y-106248791D01*
X151482864Y-106236973D01*
X151502904Y-106192628D01*
X151515487Y-106155280D01*
X151522319Y-106115880D01*
X151525105Y-106065381D01*
X151525568Y-106010433D01*
X151524803Y-105944415D01*
X151521352Y-105896689D01*
X151513477Y-105858103D01*
X151499443Y-105819506D01*
X151482120Y-105781426D01*
X151417505Y-105673328D01*
X151337934Y-105585803D01*
X151246560Y-105518841D01*
X151146536Y-105472436D01*
X151041012Y-105446581D01*
X150933142Y-105441268D01*
X150826079Y-105456490D01*
G37*
X150826079Y-105456490D02*
X150722973Y-105492238D01*
X150626978Y-105548507D01*
X150541247Y-105625288D01*
X150468930Y-105722573D01*
X150436445Y-105783892D01*
X150408332Y-105869660D01*
X150394705Y-105968677D01*
X150396214Y-106070471D01*
X150412969Y-106162714D01*
X150458763Y-106275432D01*
X150525168Y-106373207D01*
X150608809Y-106454115D01*
X150706312Y-106516232D01*
X150814300Y-106557634D01*
X150929399Y-106576397D01*
X151048234Y-106570598D01*
X151106811Y-106558206D01*
X151220972Y-106513797D01*
X151322365Y-106446033D01*
X151408545Y-106357001D01*
X151477066Y-106248791D01*
X151482864Y-106236973D01*
X151502904Y-106192628D01*
X151515487Y-106155280D01*
X151522319Y-106115880D01*
X151525105Y-106065381D01*
X151525568Y-106010433D01*
X151524803Y-105944415D01*
X151521352Y-105896689D01*
X151513477Y-105858103D01*
X151499443Y-105819506D01*
X151482120Y-105781426D01*
X151417505Y-105673328D01*
X151337934Y-105585803D01*
X151246560Y-105518841D01*
X151146536Y-105472436D01*
X151041012Y-105446581D01*
X150933142Y-105441268D01*
X150826079Y-105456490D01*
G36*
X141859469Y-112060725D02*
G01*
X141828090Y-112082968D01*
X141800381Y-112110677D01*
X141800381Y-112420112D01*
X141800454Y-112511991D01*
X141800797Y-112584032D01*
X141801600Y-112638972D01*
X141803051Y-112679552D01*
X141805340Y-112708509D01*
X141808656Y-112728583D01*
X141813187Y-112742513D01*
X141819123Y-112753037D01*
X141823778Y-112759292D01*
X141854509Y-112783865D01*
X141889796Y-112786533D01*
X141922047Y-112771463D01*
X141932704Y-112762566D01*
X141939828Y-112750749D01*
X141944125Y-112731718D01*
X141946301Y-112701184D01*
X141947064Y-112654854D01*
X141947137Y-112619063D01*
X141947137Y-112484237D01*
X142443848Y-112484237D01*
X142443848Y-112606892D01*
X142444361Y-112662979D01*
X142446416Y-112701525D01*
X142450784Y-112727553D01*
X142458236Y-112746089D01*
X142467245Y-112759292D01*
X142498148Y-112783796D01*
X142533096Y-112786698D01*
X142566554Y-112769281D01*
X142575688Y-112760151D01*
X142582140Y-112748047D01*
X142586395Y-112729193D01*
X142588940Y-112699812D01*
X142590263Y-112656129D01*
X142590849Y-112594367D01*
X142590917Y-112580192D01*
X142591401Y-112463823D01*
X142591651Y-112367919D01*
X142591569Y-112290369D01*
X142591061Y-112229061D01*
X142590030Y-112181882D01*
X142588379Y-112146722D01*
X142586013Y-112121468D01*
X142582835Y-112104009D01*
X142578748Y-112092233D01*
X142573658Y-112084027D01*
X142568026Y-112077837D01*
X142536164Y-112058036D01*
X142502935Y-112060725D01*
X142471557Y-112082968D01*
X142458859Y-112097318D01*
X142450766Y-112113170D01*
X142446250Y-112135746D01*
X142444286Y-112170270D01*
X142443848Y-112221968D01*
X142443848Y-112337481D01*
X141947137Y-112337481D01*
X141947137Y-112218948D01*
X141946630Y-112164340D01*
X141944594Y-112127467D01*
X141940257Y-112103499D01*
X141932845Y-112087607D01*
X141924559Y-112077837D01*
X141892698Y-112058036D01*
X141859469Y-112060725D01*
G37*
X141859469Y-112060725D02*
X141828090Y-112082968D01*
X141800381Y-112110677D01*
X141800381Y-112420112D01*
X141800454Y-112511991D01*
X141800797Y-112584032D01*
X141801600Y-112638972D01*
X141803051Y-112679552D01*
X141805340Y-112708509D01*
X141808656Y-112728583D01*
X141813187Y-112742513D01*
X141819123Y-112753037D01*
X141823778Y-112759292D01*
X141854509Y-112783865D01*
X141889796Y-112786533D01*
X141922047Y-112771463D01*
X141932704Y-112762566D01*
X141939828Y-112750749D01*
X141944125Y-112731718D01*
X141946301Y-112701184D01*
X141947064Y-112654854D01*
X141947137Y-112619063D01*
X141947137Y-112484237D01*
X142443848Y-112484237D01*
X142443848Y-112606892D01*
X142444361Y-112662979D01*
X142446416Y-112701525D01*
X142450784Y-112727553D01*
X142458236Y-112746089D01*
X142467245Y-112759292D01*
X142498148Y-112783796D01*
X142533096Y-112786698D01*
X142566554Y-112769281D01*
X142575688Y-112760151D01*
X142582140Y-112748047D01*
X142586395Y-112729193D01*
X142588940Y-112699812D01*
X142590263Y-112656129D01*
X142590849Y-112594367D01*
X142590917Y-112580192D01*
X142591401Y-112463823D01*
X142591651Y-112367919D01*
X142591569Y-112290369D01*
X142591061Y-112229061D01*
X142590030Y-112181882D01*
X142588379Y-112146722D01*
X142586013Y-112121468D01*
X142582835Y-112104009D01*
X142578748Y-112092233D01*
X142573658Y-112084027D01*
X142568026Y-112077837D01*
X142536164Y-112058036D01*
X142502935Y-112060725D01*
X142471557Y-112082968D01*
X142458859Y-112097318D01*
X142450766Y-112113170D01*
X142446250Y-112135746D01*
X142444286Y-112170270D01*
X142443848Y-112221968D01*
X142443848Y-112337481D01*
X141947137Y-112337481D01*
X141947137Y-112218948D01*
X141946630Y-112164340D01*
X141944594Y-112127467D01*
X141940257Y-112103499D01*
X141932845Y-112087607D01*
X141924559Y-112077837D01*
X141892698Y-112058036D01*
X141859469Y-112060725D01*
G36*
X143125227Y-112055355D02*
G01*
X143046520Y-112055734D01*
X142985429Y-112056525D01*
X142939475Y-112057862D01*
X142906178Y-112059875D01*
X142883056Y-112062698D01*
X142867630Y-112066461D01*
X142857421Y-112071297D01*
X142852479Y-112075014D01*
X142826835Y-112107550D01*
X142823733Y-112141330D01*
X142839581Y-112172018D01*
X142849944Y-112184281D01*
X142861096Y-112192642D01*
X142877257Y-112197849D01*
X142902650Y-112200649D01*
X142941494Y-112201788D01*
X142998012Y-112202013D01*
X143009112Y-112202014D01*
X143155048Y-112202014D01*
X143155048Y-112472948D01*
X143155144Y-112558346D01*
X143155581Y-112624056D01*
X143156580Y-112672966D01*
X143158364Y-112707965D01*
X143161155Y-112731941D01*
X143165175Y-112747785D01*
X143170647Y-112758383D01*
X143177626Y-112766459D01*
X143210558Y-112786304D01*
X143244938Y-112784740D01*
X143276116Y-112762098D01*
X143278406Y-112759292D01*
X143285863Y-112748684D01*
X143291545Y-112736273D01*
X143295691Y-112719042D01*
X143298542Y-112693976D01*
X143300338Y-112658059D01*
X143301320Y-112608275D01*
X143301728Y-112541609D01*
X143301803Y-112465781D01*
X143301803Y-112202014D01*
X143441165Y-112202014D01*
X143500970Y-112201610D01*
X143542374Y-112200032D01*
X143569544Y-112196739D01*
X143586646Y-112191184D01*
X143597849Y-112182823D01*
X143599209Y-112181370D01*
X143615567Y-112148131D01*
X143614120Y-112110554D01*
X143595314Y-112077837D01*
X143588042Y-112071490D01*
X143578665Y-112066458D01*
X143564683Y-112062588D01*
X143543596Y-112059729D01*
X143512903Y-112057727D01*
X143470103Y-112056431D01*
X143412697Y-112055690D01*
X143338182Y-112055350D01*
X143244059Y-112055260D01*
X143224032Y-112055259D01*
X143125227Y-112055355D01*
G37*
X143125227Y-112055355D02*
X143046520Y-112055734D01*
X142985429Y-112056525D01*
X142939475Y-112057862D01*
X142906178Y-112059875D01*
X142883056Y-112062698D01*
X142867630Y-112066461D01*
X142857421Y-112071297D01*
X142852479Y-112075014D01*
X142826835Y-112107550D01*
X142823733Y-112141330D01*
X142839581Y-112172018D01*
X142849944Y-112184281D01*
X142861096Y-112192642D01*
X142877257Y-112197849D01*
X142902650Y-112200649D01*
X142941494Y-112201788D01*
X142998012Y-112202013D01*
X143009112Y-112202014D01*
X143155048Y-112202014D01*
X143155048Y-112472948D01*
X143155144Y-112558346D01*
X143155581Y-112624056D01*
X143156580Y-112672966D01*
X143158364Y-112707965D01*
X143161155Y-112731941D01*
X143165175Y-112747785D01*
X143170647Y-112758383D01*
X143177626Y-112766459D01*
X143210558Y-112786304D01*
X143244938Y-112784740D01*
X143276116Y-112762098D01*
X143278406Y-112759292D01*
X143285863Y-112748684D01*
X143291545Y-112736273D01*
X143295691Y-112719042D01*
X143298542Y-112693976D01*
X143300338Y-112658059D01*
X143301320Y-112608275D01*
X143301728Y-112541609D01*
X143301803Y-112465781D01*
X143301803Y-112202014D01*
X143441165Y-112202014D01*
X143500970Y-112201610D01*
X143542374Y-112200032D01*
X143569544Y-112196739D01*
X143586646Y-112191184D01*
X143597849Y-112182823D01*
X143599209Y-112181370D01*
X143615567Y-112148131D01*
X143614120Y-112110554D01*
X143595314Y-112077837D01*
X143588042Y-112071490D01*
X143578665Y-112066458D01*
X143564683Y-112062588D01*
X143543596Y-112059729D01*
X143512903Y-112057727D01*
X143470103Y-112056431D01*
X143412697Y-112055690D01*
X143338182Y-112055350D01*
X143244059Y-112055260D01*
X143224032Y-112055259D01*
X143125227Y-112055355D01*
G36*
X143899678Y-112062069D02*
G01*
X143875965Y-112076839D01*
X143849314Y-112098419D01*
X143849314Y-112419965D01*
X143849399Y-112514022D01*
X143849763Y-112588124D01*
X143850568Y-112644896D01*
X143851979Y-112686960D01*
X143854159Y-112716940D01*
X143857271Y-112737459D01*
X143861478Y-112751141D01*
X143866944Y-112760608D01*
X143870820Y-112765274D01*
X143902258Y-112785767D01*
X143938059Y-112784931D01*
X143969419Y-112767456D01*
X143996070Y-112745876D01*
X143996070Y-112098419D01*
X143969419Y-112076839D01*
X143943698Y-112061141D01*
X143922692Y-112055259D01*
X143899678Y-112062069D01*
G37*
X143899678Y-112062069D02*
X143875965Y-112076839D01*
X143849314Y-112098419D01*
X143849314Y-112419965D01*
X143849399Y-112514022D01*
X143849763Y-112588124D01*
X143850568Y-112644896D01*
X143851979Y-112686960D01*
X143854159Y-112716940D01*
X143857271Y-112737459D01*
X143861478Y-112751141D01*
X143866944Y-112760608D01*
X143870820Y-112765274D01*
X143902258Y-112785767D01*
X143938059Y-112784931D01*
X143969419Y-112767456D01*
X143996070Y-112745876D01*
X143996070Y-112098419D01*
X143969419Y-112076839D01*
X143943698Y-112061141D01*
X143922692Y-112055259D01*
X143899678Y-112062069D01*
G36*
X144343627Y-112057226D02*
G01*
X144324037Y-112064227D01*
X144323282Y-112064569D01*
X144296679Y-112084870D01*
X144282022Y-112105753D01*
X144279154Y-112115544D01*
X144279296Y-112128553D01*
X144283331Y-112147087D01*
X144292146Y-112173449D01*
X144306623Y-112209944D01*
X144327647Y-112258879D01*
X144356104Y-112322557D01*
X144392877Y-112403285D01*
X144413117Y-112447408D01*
X144449667Y-112526177D01*
X144483977Y-112598615D01*
X144514740Y-112662072D01*
X144540644Y-112713900D01*
X144560382Y-112751451D01*
X144572642Y-112772076D01*
X144575068Y-112774925D01*
X144606109Y-112787494D01*
X144641171Y-112785811D01*
X144669292Y-112770524D01*
X144670438Y-112769281D01*
X144681624Y-112752346D01*
X144700388Y-112719362D01*
X144724417Y-112674572D01*
X144751395Y-112622224D01*
X144761091Y-112602934D01*
X144834278Y-112456342D01*
X144914052Y-112615585D01*
X144942525Y-112670607D01*
X144968942Y-112718324D01*
X144991144Y-112755085D01*
X145006973Y-112777236D01*
X145012338Y-112781933D01*
X145054035Y-112788294D01*
X145088443Y-112774925D01*
X145098564Y-112760638D01*
X145116078Y-112728884D01*
X145139557Y-112682789D01*
X145167572Y-112625477D01*
X145198693Y-112560072D01*
X145231493Y-112489699D01*
X145264542Y-112417483D01*
X145296411Y-112346547D01*
X145325673Y-112280017D01*
X145350897Y-112221018D01*
X145370656Y-112172673D01*
X145383520Y-112138107D01*
X145388061Y-112120445D01*
X145388015Y-112119805D01*
X145376966Y-112097580D01*
X145354882Y-112074945D01*
X145353582Y-112073960D01*
X145326439Y-112058617D01*
X145301334Y-112058766D01*
X145291924Y-112061658D01*
X145280458Y-112067910D01*
X145268282Y-112080206D01*
X145253935Y-112101100D01*
X145235956Y-112133141D01*
X145212885Y-112178880D01*
X145183262Y-112240869D01*
X145156547Y-112298090D01*
X145125812Y-112364418D01*
X145098271Y-112424066D01*
X145075354Y-112473917D01*
X145058494Y-112510856D01*
X145049119Y-112531765D01*
X145047752Y-112535037D01*
X145041603Y-112529689D01*
X145027470Y-112507301D01*
X145007235Y-112471138D01*
X144982777Y-112424469D01*
X144973044Y-112405214D01*
X144940075Y-112340196D01*
X144914649Y-112292846D01*
X144894680Y-112260411D01*
X144878082Y-112240138D01*
X144862768Y-112229274D01*
X144846652Y-112225067D01*
X144836149Y-112224592D01*
X144817622Y-112226234D01*
X144801388Y-112233023D01*
X144785257Y-112247758D01*
X144767041Y-112273236D01*
X144744553Y-112312253D01*
X144715603Y-112367606D01*
X144699630Y-112399095D01*
X144673722Y-112449279D01*
X144651125Y-112490896D01*
X144633834Y-112520434D01*
X144623842Y-112534381D01*
X144622483Y-112534962D01*
X144616031Y-112523985D01*
X144601584Y-112495482D01*
X144580589Y-112452436D01*
X144554495Y-112397830D01*
X144524746Y-112334646D01*
X144510112Y-112303263D01*
X144472042Y-112222270D01*
X144441387Y-112159948D01*
X144416555Y-112114263D01*
X144395955Y-112083181D01*
X144377994Y-112064670D01*
X144361082Y-112056696D01*
X144343627Y-112057226D01*
G37*
X144343627Y-112057226D02*
X144324037Y-112064227D01*
X144323282Y-112064569D01*
X144296679Y-112084870D01*
X144282022Y-112105753D01*
X144279154Y-112115544D01*
X144279296Y-112128553D01*
X144283331Y-112147087D01*
X144292146Y-112173449D01*
X144306623Y-112209944D01*
X144327647Y-112258879D01*
X144356104Y-112322557D01*
X144392877Y-112403285D01*
X144413117Y-112447408D01*
X144449667Y-112526177D01*
X144483977Y-112598615D01*
X144514740Y-112662072D01*
X144540644Y-112713900D01*
X144560382Y-112751451D01*
X144572642Y-112772076D01*
X144575068Y-112774925D01*
X144606109Y-112787494D01*
X144641171Y-112785811D01*
X144669292Y-112770524D01*
X144670438Y-112769281D01*
X144681624Y-112752346D01*
X144700388Y-112719362D01*
X144724417Y-112674572D01*
X144751395Y-112622224D01*
X144761091Y-112602934D01*
X144834278Y-112456342D01*
X144914052Y-112615585D01*
X144942525Y-112670607D01*
X144968942Y-112718324D01*
X144991144Y-112755085D01*
X145006973Y-112777236D01*
X145012338Y-112781933D01*
X145054035Y-112788294D01*
X145088443Y-112774925D01*
X145098564Y-112760638D01*
X145116078Y-112728884D01*
X145139557Y-112682789D01*
X145167572Y-112625477D01*
X145198693Y-112560072D01*
X145231493Y-112489699D01*
X145264542Y-112417483D01*
X145296411Y-112346547D01*
X145325673Y-112280017D01*
X145350897Y-112221018D01*
X145370656Y-112172673D01*
X145383520Y-112138107D01*
X145388061Y-112120445D01*
X145388015Y-112119805D01*
X145376966Y-112097580D01*
X145354882Y-112074945D01*
X145353582Y-112073960D01*
X145326439Y-112058617D01*
X145301334Y-112058766D01*
X145291924Y-112061658D01*
X145280458Y-112067910D01*
X145268282Y-112080206D01*
X145253935Y-112101100D01*
X145235956Y-112133141D01*
X145212885Y-112178880D01*
X145183262Y-112240869D01*
X145156547Y-112298090D01*
X145125812Y-112364418D01*
X145098271Y-112424066D01*
X145075354Y-112473917D01*
X145058494Y-112510856D01*
X145049119Y-112531765D01*
X145047752Y-112535037D01*
X145041603Y-112529689D01*
X145027470Y-112507301D01*
X145007235Y-112471138D01*
X144982777Y-112424469D01*
X144973044Y-112405214D01*
X144940075Y-112340196D01*
X144914649Y-112292846D01*
X144894680Y-112260411D01*
X144878082Y-112240138D01*
X144862768Y-112229274D01*
X144846652Y-112225067D01*
X144836149Y-112224592D01*
X144817622Y-112226234D01*
X144801388Y-112233023D01*
X144785257Y-112247758D01*
X144767041Y-112273236D01*
X144744553Y-112312253D01*
X144715603Y-112367606D01*
X144699630Y-112399095D01*
X144673722Y-112449279D01*
X144651125Y-112490896D01*
X144633834Y-112520434D01*
X144623842Y-112534381D01*
X144622483Y-112534962D01*
X144616031Y-112523985D01*
X144601584Y-112495482D01*
X144580589Y-112452436D01*
X144554495Y-112397830D01*
X144524746Y-112334646D01*
X144510112Y-112303263D01*
X144472042Y-112222270D01*
X144441387Y-112159948D01*
X144416555Y-112114263D01*
X144395955Y-112083181D01*
X144377994Y-112064670D01*
X144361082Y-112056696D01*
X144343627Y-112057226D01*
G36*
X147069983Y-112055467D02*
G01*
X146941004Y-112059828D01*
X146831301Y-112073053D01*
X146739066Y-112095933D01*
X146662490Y-112129262D01*
X146599765Y-112173830D01*
X146549080Y-112230428D01*
X146508629Y-112299850D01*
X146507833Y-112301543D01*
X146483691Y-112363675D01*
X146475089Y-112418701D01*
X146482061Y-112474079D01*
X146504638Y-112537265D01*
X146508920Y-112546881D01*
X146538120Y-112603158D01*
X146570936Y-112646643D01*
X146613290Y-112683609D01*
X146671102Y-112720327D01*
X146674461Y-112722244D01*
X146724788Y-112746419D01*
X146781671Y-112764474D01*
X146848765Y-112777031D01*
X146929727Y-112784714D01*
X147028210Y-112788145D01*
X147063006Y-112788443D01*
X147228698Y-112789037D01*
X147252095Y-112759292D01*
X147259035Y-112749511D01*
X147264450Y-112738089D01*
X147268527Y-112722287D01*
X147271455Y-112699367D01*
X147273425Y-112666588D01*
X147274067Y-112642281D01*
X147117448Y-112642281D01*
X147023566Y-112642281D01*
X146968628Y-112640675D01*
X146912232Y-112636447D01*
X146865947Y-112630484D01*
X146863153Y-112629982D01*
X146780944Y-112607928D01*
X146717178Y-112574792D01*
X146669840Y-112529039D01*
X146636910Y-112469131D01*
X146631184Y-112453253D01*
X146625571Y-112428525D01*
X146628001Y-112404094D01*
X146639825Y-112371592D01*
X146646952Y-112355626D01*
X146670292Y-112313198D01*
X146698412Y-112283432D01*
X146729352Y-112262703D01*
X146791326Y-112235729D01*
X146870641Y-112216190D01*
X146963039Y-112204938D01*
X147029959Y-112202462D01*
X147117448Y-112202014D01*
X147117448Y-112642281D01*
X147274067Y-112642281D01*
X147274624Y-112621213D01*
X147275242Y-112560503D01*
X147275467Y-112481718D01*
X147275492Y-112420112D01*
X147275492Y-112110677D01*
X147247783Y-112082968D01*
X147235486Y-112071736D01*
X147222189Y-112064045D01*
X147203620Y-112059232D01*
X147175506Y-112056638D01*
X147133575Y-112055602D01*
X147073555Y-112055462D01*
X147069983Y-112055467D01*
G37*
X147069983Y-112055467D02*
X146941004Y-112059828D01*
X146831301Y-112073053D01*
X146739066Y-112095933D01*
X146662490Y-112129262D01*
X146599765Y-112173830D01*
X146549080Y-112230428D01*
X146508629Y-112299850D01*
X146507833Y-112301543D01*
X146483691Y-112363675D01*
X146475089Y-112418701D01*
X146482061Y-112474079D01*
X146504638Y-112537265D01*
X146508920Y-112546881D01*
X146538120Y-112603158D01*
X146570936Y-112646643D01*
X146613290Y-112683609D01*
X146671102Y-112720327D01*
X146674461Y-112722244D01*
X146724788Y-112746419D01*
X146781671Y-112764474D01*
X146848765Y-112777031D01*
X146929727Y-112784714D01*
X147028210Y-112788145D01*
X147063006Y-112788443D01*
X147228698Y-112789037D01*
X147252095Y-112759292D01*
X147259035Y-112749511D01*
X147264450Y-112738089D01*
X147268527Y-112722287D01*
X147271455Y-112699367D01*
X147273425Y-112666588D01*
X147274067Y-112642281D01*
X147117448Y-112642281D01*
X147023566Y-112642281D01*
X146968628Y-112640675D01*
X146912232Y-112636447D01*
X146865947Y-112630484D01*
X146863153Y-112629982D01*
X146780944Y-112607928D01*
X146717178Y-112574792D01*
X146669840Y-112529039D01*
X146636910Y-112469131D01*
X146631184Y-112453253D01*
X146625571Y-112428525D01*
X146628001Y-112404094D01*
X146639825Y-112371592D01*
X146646952Y-112355626D01*
X146670292Y-112313198D01*
X146698412Y-112283432D01*
X146729352Y-112262703D01*
X146791326Y-112235729D01*
X146870641Y-112216190D01*
X146963039Y-112204938D01*
X147029959Y-112202462D01*
X147117448Y-112202014D01*
X147117448Y-112642281D01*
X147274067Y-112642281D01*
X147274624Y-112621213D01*
X147275242Y-112560503D01*
X147275467Y-112481718D01*
X147275492Y-112420112D01*
X147275492Y-112110677D01*
X147247783Y-112082968D01*
X147235486Y-112071736D01*
X147222189Y-112064045D01*
X147203620Y-112059232D01*
X147175506Y-112056638D01*
X147133575Y-112055602D01*
X147073555Y-112055462D01*
X147069983Y-112055467D01*
G36*
X147857949Y-112055452D02*
G01*
X147781591Y-112056366D01*
X147723075Y-112058503D01*
X147680037Y-112062367D01*
X147650109Y-112068459D01*
X147630924Y-112077282D01*
X147620116Y-112089338D01*
X147615319Y-112105131D01*
X147614165Y-112125162D01*
X147614159Y-112127527D01*
X147615161Y-112150184D01*
X147619896Y-112167695D01*
X147630959Y-112180766D01*
X147650944Y-112190105D01*
X147682446Y-112196419D01*
X147728060Y-112200414D01*
X147790379Y-112202798D01*
X147871999Y-112204278D01*
X147897015Y-112204606D01*
X148139092Y-112207659D01*
X148142478Y-112272570D01*
X148145863Y-112337481D01*
X147977716Y-112337481D01*
X147912026Y-112337723D01*
X147865120Y-112338748D01*
X147833209Y-112341003D01*
X147812501Y-112344934D01*
X147799208Y-112350990D01*
X147789537Y-112359616D01*
X147789475Y-112359685D01*
X147771936Y-112393304D01*
X147772570Y-112429640D01*
X147790978Y-112460615D01*
X147794621Y-112463799D01*
X147807551Y-112472004D01*
X147825268Y-112477713D01*
X147851722Y-112481354D01*
X147890860Y-112483359D01*
X147946630Y-112484156D01*
X147982298Y-112484237D01*
X148144737Y-112484237D01*
X148144737Y-112642281D01*
X147898131Y-112642281D01*
X147816712Y-112642423D01*
X147754882Y-112643006D01*
X147709655Y-112644260D01*
X147678044Y-112646419D01*
X147657061Y-112649715D01*
X147643719Y-112654381D01*
X147635031Y-112660649D01*
X147632842Y-112662925D01*
X147616678Y-112694472D01*
X147615495Y-112730360D01*
X147628756Y-112761477D01*
X147639249Y-112771463D01*
X147650163Y-112776961D01*
X147667075Y-112781214D01*
X147692659Y-112784372D01*
X147729591Y-112786584D01*
X147780546Y-112787998D01*
X147848198Y-112788764D01*
X147935223Y-112789030D01*
X147954898Y-112789037D01*
X148043381Y-112788979D01*
X148112065Y-112788659D01*
X148163728Y-112787859D01*
X148201147Y-112786359D01*
X148227102Y-112783941D01*
X148244370Y-112780386D01*
X148255730Y-112775474D01*
X148263960Y-112768987D01*
X148268475Y-112764330D01*
X148275271Y-112756081D01*
X148280580Y-112745861D01*
X148284586Y-112730992D01*
X148287471Y-112708794D01*
X148289418Y-112676585D01*
X148290611Y-112631688D01*
X148291231Y-112571420D01*
X148291463Y-112493103D01*
X148291492Y-112427186D01*
X148291421Y-112334820D01*
X148291084Y-112262309D01*
X148290294Y-112206929D01*
X148288866Y-112165957D01*
X148286613Y-112136670D01*
X148283349Y-112116345D01*
X148278888Y-112102258D01*
X148273044Y-112091687D01*
X148268095Y-112085003D01*
X148244698Y-112055259D01*
X147954518Y-112055259D01*
X147857949Y-112055452D01*
G37*
X147857949Y-112055452D02*
X147781591Y-112056366D01*
X147723075Y-112058503D01*
X147680037Y-112062367D01*
X147650109Y-112068459D01*
X147630924Y-112077282D01*
X147620116Y-112089338D01*
X147615319Y-112105131D01*
X147614165Y-112125162D01*
X147614159Y-112127527D01*
X147615161Y-112150184D01*
X147619896Y-112167695D01*
X147630959Y-112180766D01*
X147650944Y-112190105D01*
X147682446Y-112196419D01*
X147728060Y-112200414D01*
X147790379Y-112202798D01*
X147871999Y-112204278D01*
X147897015Y-112204606D01*
X148139092Y-112207659D01*
X148142478Y-112272570D01*
X148145863Y-112337481D01*
X147977716Y-112337481D01*
X147912026Y-112337723D01*
X147865120Y-112338748D01*
X147833209Y-112341003D01*
X147812501Y-112344934D01*
X147799208Y-112350990D01*
X147789537Y-112359616D01*
X147789475Y-112359685D01*
X147771936Y-112393304D01*
X147772570Y-112429640D01*
X147790978Y-112460615D01*
X147794621Y-112463799D01*
X147807551Y-112472004D01*
X147825268Y-112477713D01*
X147851722Y-112481354D01*
X147890860Y-112483359D01*
X147946630Y-112484156D01*
X147982298Y-112484237D01*
X148144737Y-112484237D01*
X148144737Y-112642281D01*
X147898131Y-112642281D01*
X147816712Y-112642423D01*
X147754882Y-112643006D01*
X147709655Y-112644260D01*
X147678044Y-112646419D01*
X147657061Y-112649715D01*
X147643719Y-112654381D01*
X147635031Y-112660649D01*
X147632842Y-112662925D01*
X147616678Y-112694472D01*
X147615495Y-112730360D01*
X147628756Y-112761477D01*
X147639249Y-112771463D01*
X147650163Y-112776961D01*
X147667075Y-112781214D01*
X147692659Y-112784372D01*
X147729591Y-112786584D01*
X147780546Y-112787998D01*
X147848198Y-112788764D01*
X147935223Y-112789030D01*
X147954898Y-112789037D01*
X148043381Y-112788979D01*
X148112065Y-112788659D01*
X148163728Y-112787859D01*
X148201147Y-112786359D01*
X148227102Y-112783941D01*
X148244370Y-112780386D01*
X148255730Y-112775474D01*
X148263960Y-112768987D01*
X148268475Y-112764330D01*
X148275271Y-112756081D01*
X148280580Y-112745861D01*
X148284586Y-112730992D01*
X148287471Y-112708794D01*
X148289418Y-112676585D01*
X148290611Y-112631688D01*
X148291231Y-112571420D01*
X148291463Y-112493103D01*
X148291492Y-112427186D01*
X148291421Y-112334820D01*
X148291084Y-112262309D01*
X148290294Y-112206929D01*
X148288866Y-112165957D01*
X148286613Y-112136670D01*
X148283349Y-112116345D01*
X148278888Y-112102258D01*
X148273044Y-112091687D01*
X148268095Y-112085003D01*
X148244698Y-112055259D01*
X147954518Y-112055259D01*
X147857949Y-112055452D01*
G36*
X149388406Y-112059640D02*
G01*
X149364840Y-112073465D01*
X149334027Y-112096073D01*
X149294370Y-112128530D01*
X149244272Y-112171900D01*
X149182135Y-112227250D01*
X149106364Y-112295643D01*
X149019626Y-112374276D01*
X148839003Y-112538070D01*
X148833359Y-112318221D01*
X148831321Y-112242543D01*
X148829355Y-112186186D01*
X148827026Y-112145898D01*
X148823898Y-112118427D01*
X148819537Y-112100521D01*
X148813508Y-112088929D01*
X148805376Y-112080400D01*
X148801064Y-112076815D01*
X148766533Y-112057862D01*
X148733675Y-112060633D01*
X148707610Y-112076825D01*
X148680959Y-112098391D01*
X148677644Y-112413343D01*
X148676727Y-112505971D01*
X148676260Y-112578736D01*
X148676405Y-112634353D01*
X148677324Y-112675534D01*
X148679179Y-112704995D01*
X148682131Y-112725447D01*
X148686342Y-112739605D01*
X148691974Y-112750183D01*
X148698219Y-112758666D01*
X148711731Y-112774399D01*
X148725175Y-112784828D01*
X148740416Y-112788831D01*
X148759318Y-112785286D01*
X148783747Y-112773071D01*
X148815565Y-112751063D01*
X148856640Y-112718141D01*
X148908834Y-112673183D01*
X148974014Y-112615067D01*
X149047848Y-112548291D01*
X149313137Y-112307650D01*
X149318781Y-112526781D01*
X149320823Y-112602320D01*
X149322794Y-112658546D01*
X149325131Y-112698716D01*
X149328273Y-112726088D01*
X149332656Y-112743920D01*
X149338716Y-112755471D01*
X149346892Y-112763999D01*
X149351076Y-112767474D01*
X149388057Y-112786564D01*
X149423000Y-112783685D01*
X149453428Y-112759292D01*
X149460389Y-112749478D01*
X149465815Y-112738018D01*
X149469895Y-112722160D01*
X149472821Y-112699155D01*
X149474784Y-112666254D01*
X149475975Y-112620708D01*
X149476584Y-112559765D01*
X149476803Y-112480678D01*
X149476826Y-112422148D01*
X149476752Y-112330599D01*
X149476405Y-112258879D01*
X149475593Y-112204237D01*
X149474125Y-112163924D01*
X149471811Y-112135190D01*
X149468459Y-112115285D01*
X149463880Y-112101460D01*
X149457881Y-112090964D01*
X149453428Y-112085003D01*
X149442142Y-112070883D01*
X149431593Y-112060221D01*
X149420185Y-112054084D01*
X149406322Y-112053535D01*
X149388406Y-112059640D01*
G37*
X149388406Y-112059640D02*
X149364840Y-112073465D01*
X149334027Y-112096073D01*
X149294370Y-112128530D01*
X149244272Y-112171900D01*
X149182135Y-112227250D01*
X149106364Y-112295643D01*
X149019626Y-112374276D01*
X148839003Y-112538070D01*
X148833359Y-112318221D01*
X148831321Y-112242543D01*
X148829355Y-112186186D01*
X148827026Y-112145898D01*
X148823898Y-112118427D01*
X148819537Y-112100521D01*
X148813508Y-112088929D01*
X148805376Y-112080400D01*
X148801064Y-112076815D01*
X148766533Y-112057862D01*
X148733675Y-112060633D01*
X148707610Y-112076825D01*
X148680959Y-112098391D01*
X148677644Y-112413343D01*
X148676727Y-112505971D01*
X148676260Y-112578736D01*
X148676405Y-112634353D01*
X148677324Y-112675534D01*
X148679179Y-112704995D01*
X148682131Y-112725447D01*
X148686342Y-112739605D01*
X148691974Y-112750183D01*
X148698219Y-112758666D01*
X148711731Y-112774399D01*
X148725175Y-112784828D01*
X148740416Y-112788831D01*
X148759318Y-112785286D01*
X148783747Y-112773071D01*
X148815565Y-112751063D01*
X148856640Y-112718141D01*
X148908834Y-112673183D01*
X148974014Y-112615067D01*
X149047848Y-112548291D01*
X149313137Y-112307650D01*
X149318781Y-112526781D01*
X149320823Y-112602320D01*
X149322794Y-112658546D01*
X149325131Y-112698716D01*
X149328273Y-112726088D01*
X149332656Y-112743920D01*
X149338716Y-112755471D01*
X149346892Y-112763999D01*
X149351076Y-112767474D01*
X149388057Y-112786564D01*
X149423000Y-112783685D01*
X149453428Y-112759292D01*
X149460389Y-112749478D01*
X149465815Y-112738018D01*
X149469895Y-112722160D01*
X149472821Y-112699155D01*
X149474784Y-112666254D01*
X149475975Y-112620708D01*
X149476584Y-112559765D01*
X149476803Y-112480678D01*
X149476826Y-112422148D01*
X149476752Y-112330599D01*
X149476405Y-112258879D01*
X149475593Y-112204237D01*
X149474125Y-112163924D01*
X149471811Y-112135190D01*
X149468459Y-112115285D01*
X149463880Y-112101460D01*
X149457881Y-112090964D01*
X149453428Y-112085003D01*
X149442142Y-112070883D01*
X149431593Y-112060221D01*
X149420185Y-112054084D01*
X149406322Y-112053535D01*
X149388406Y-112059640D01*
G36*
X150038373Y-112060791D02*
G01*
X149969857Y-112072287D01*
X149917235Y-112090159D01*
X149883000Y-112113691D01*
X149873671Y-112127116D01*
X149864185Y-112158340D01*
X149870569Y-112186587D01*
X149890722Y-112213374D01*
X149922037Y-112225905D01*
X149967475Y-112224888D01*
X150002618Y-112218098D01*
X150080711Y-112205163D01*
X150160518Y-112203934D01*
X150249847Y-112214433D01*
X150274521Y-112218882D01*
X150357583Y-112242300D01*
X150422565Y-112277137D01*
X150468753Y-112322796D01*
X150495437Y-112378686D01*
X150500955Y-112407580D01*
X150497343Y-112466204D01*
X150474021Y-112518071D01*
X150433116Y-112562170D01*
X150376751Y-112597491D01*
X150307052Y-112623021D01*
X150226144Y-112637751D01*
X150136152Y-112640670D01*
X150039202Y-112630767D01*
X150033728Y-112629833D01*
X149995167Y-112622651D01*
X149973786Y-112615713D01*
X149964519Y-112605419D01*
X149962298Y-112588168D01*
X149962248Y-112579033D01*
X149962248Y-112540681D01*
X150030723Y-112540681D01*
X150091192Y-112536539D01*
X150132457Y-112523339D01*
X150156467Y-112499922D01*
X150165169Y-112465128D01*
X150165275Y-112460586D01*
X150160184Y-112430846D01*
X150142725Y-112409611D01*
X150110231Y-112395558D01*
X150060035Y-112387365D01*
X150011415Y-112384353D01*
X149940748Y-112382625D01*
X149889490Y-112385262D01*
X149854531Y-112394992D01*
X149832762Y-112414545D01*
X149821072Y-112446648D01*
X149816352Y-112494030D01*
X149815492Y-112556263D01*
X149816901Y-112625727D01*
X149821140Y-112672978D01*
X149828228Y-112698204D01*
X149829603Y-112700180D01*
X149868520Y-112731700D01*
X149925578Y-112756662D01*
X149997161Y-112774532D01*
X150079650Y-112784778D01*
X150169431Y-112786865D01*
X150262884Y-112780260D01*
X150317848Y-112772148D01*
X150404058Y-112747746D01*
X150484184Y-112707854D01*
X150551269Y-112656079D01*
X150561465Y-112645731D01*
X150594594Y-112602227D01*
X150624486Y-112548310D01*
X150647649Y-112491784D01*
X150660590Y-112440451D01*
X150662150Y-112420736D01*
X150655510Y-112379611D01*
X150637860Y-112328444D01*
X150612589Y-112274586D01*
X150583081Y-112225387D01*
X150557011Y-112192526D01*
X150496057Y-112143644D01*
X150417261Y-112104737D01*
X150323449Y-112076686D01*
X150217442Y-112060371D01*
X150120292Y-112056384D01*
X150038373Y-112060791D01*
G37*
X150038373Y-112060791D02*
X149969857Y-112072287D01*
X149917235Y-112090159D01*
X149883000Y-112113691D01*
X149873671Y-112127116D01*
X149864185Y-112158340D01*
X149870569Y-112186587D01*
X149890722Y-112213374D01*
X149922037Y-112225905D01*
X149967475Y-112224888D01*
X150002618Y-112218098D01*
X150080711Y-112205163D01*
X150160518Y-112203934D01*
X150249847Y-112214433D01*
X150274521Y-112218882D01*
X150357583Y-112242300D01*
X150422565Y-112277137D01*
X150468753Y-112322796D01*
X150495437Y-112378686D01*
X150500955Y-112407580D01*
X150497343Y-112466204D01*
X150474021Y-112518071D01*
X150433116Y-112562170D01*
X150376751Y-112597491D01*
X150307052Y-112623021D01*
X150226144Y-112637751D01*
X150136152Y-112640670D01*
X150039202Y-112630767D01*
X150033728Y-112629833D01*
X149995167Y-112622651D01*
X149973786Y-112615713D01*
X149964519Y-112605419D01*
X149962298Y-112588168D01*
X149962248Y-112579033D01*
X149962248Y-112540681D01*
X150030723Y-112540681D01*
X150091192Y-112536539D01*
X150132457Y-112523339D01*
X150156467Y-112499922D01*
X150165169Y-112465128D01*
X150165275Y-112460586D01*
X150160184Y-112430846D01*
X150142725Y-112409611D01*
X150110231Y-112395558D01*
X150060035Y-112387365D01*
X150011415Y-112384353D01*
X149940748Y-112382625D01*
X149889490Y-112385262D01*
X149854531Y-112394992D01*
X149832762Y-112414545D01*
X149821072Y-112446648D01*
X149816352Y-112494030D01*
X149815492Y-112556263D01*
X149816901Y-112625727D01*
X149821140Y-112672978D01*
X149828228Y-112698204D01*
X149829603Y-112700180D01*
X149868520Y-112731700D01*
X149925578Y-112756662D01*
X149997161Y-112774532D01*
X150079650Y-112784778D01*
X150169431Y-112786865D01*
X150262884Y-112780260D01*
X150317848Y-112772148D01*
X150404058Y-112747746D01*
X150484184Y-112707854D01*
X150551269Y-112656079D01*
X150561465Y-112645731D01*
X150594594Y-112602227D01*
X150624486Y-112548310D01*
X150647649Y-112491784D01*
X150660590Y-112440451D01*
X150662150Y-112420736D01*
X150655510Y-112379611D01*
X150637860Y-112328444D01*
X150612589Y-112274586D01*
X150583081Y-112225387D01*
X150557011Y-112192526D01*
X150496057Y-112143644D01*
X150417261Y-112104737D01*
X150323449Y-112076686D01*
X150217442Y-112060371D01*
X150120292Y-112056384D01*
X150038373Y-112060791D01*
G36*
X151012114Y-112077837D02*
G01*
X151005534Y-112085410D01*
X151000371Y-112095179D01*
X150996456Y-112109763D01*
X150993616Y-112131777D01*
X150991679Y-112163840D01*
X150990475Y-112208567D01*
X150989831Y-112268577D01*
X150989576Y-112346486D01*
X150989537Y-112422148D01*
X150989606Y-112515994D01*
X150989930Y-112589881D01*
X150990678Y-112646424D01*
X150992024Y-112688241D01*
X150994138Y-112717949D01*
X150997192Y-112738165D01*
X151001358Y-112751506D01*
X151006808Y-112760590D01*
X151012114Y-112766459D01*
X151045118Y-112786139D01*
X151080283Y-112784373D01*
X151111747Y-112762909D01*
X151118976Y-112754529D01*
X151124626Y-112744806D01*
X151128891Y-112731053D01*
X151131965Y-112710581D01*
X151134044Y-112680704D01*
X151135322Y-112638733D01*
X151135993Y-112581981D01*
X151136251Y-112507759D01*
X151136292Y-112423729D01*
X151136292Y-112110677D01*
X151108583Y-112082968D01*
X151074429Y-112059655D01*
X151041298Y-112058815D01*
X151012114Y-112077837D01*
G37*
X151012114Y-112077837D02*
X151005534Y-112085410D01*
X151000371Y-112095179D01*
X150996456Y-112109763D01*
X150993616Y-112131777D01*
X150991679Y-112163840D01*
X150990475Y-112208567D01*
X150989831Y-112268577D01*
X150989576Y-112346486D01*
X150989537Y-112422148D01*
X150989606Y-112515994D01*
X150989930Y-112589881D01*
X150990678Y-112646424D01*
X150992024Y-112688241D01*
X150994138Y-112717949D01*
X150997192Y-112738165D01*
X151001358Y-112751506D01*
X151006808Y-112760590D01*
X151012114Y-112766459D01*
X151045118Y-112786139D01*
X151080283Y-112784373D01*
X151111747Y-112762909D01*
X151118976Y-112754529D01*
X151124626Y-112744806D01*
X151128891Y-112731053D01*
X151131965Y-112710581D01*
X151134044Y-112680704D01*
X151135322Y-112638733D01*
X151135993Y-112581981D01*
X151136251Y-112507759D01*
X151136292Y-112423729D01*
X151136292Y-112110677D01*
X151108583Y-112082968D01*
X151074429Y-112059655D01*
X151041298Y-112058815D01*
X151012114Y-112077837D01*
G36*
X151779995Y-112056543D02*
G01*
X151705180Y-112061773D01*
X151635598Y-112069942D01*
X151575294Y-112080742D01*
X151528312Y-112093865D01*
X151498698Y-112109005D01*
X151494152Y-112113461D01*
X151478346Y-112148042D01*
X151483139Y-112183543D01*
X151507656Y-112213917D01*
X151508826Y-112214788D01*
X151523246Y-112224146D01*
X151538300Y-112229068D01*
X151559297Y-112229665D01*
X151591549Y-112226053D01*
X151640365Y-112218346D01*
X151644292Y-112217697D01*
X151717031Y-112208761D01*
X151795509Y-112204353D01*
X151874219Y-112204311D01*
X151947653Y-112208471D01*
X152010303Y-112216671D01*
X152056662Y-112228749D01*
X152059708Y-112229963D01*
X152093340Y-112248807D01*
X152105156Y-112267877D01*
X152095906Y-112286631D01*
X152066339Y-112304529D01*
X152017203Y-112321029D01*
X151949249Y-112335588D01*
X151903937Y-112342598D01*
X151809748Y-112356081D01*
X151734836Y-112368406D01*
X151676009Y-112380641D01*
X151630077Y-112393853D01*
X151593847Y-112409109D01*
X151564130Y-112427477D01*
X151537734Y-112450023D01*
X151516522Y-112472163D01*
X151491357Y-112503011D01*
X151478973Y-112529537D01*
X151475100Y-112562218D01*
X151474959Y-112574187D01*
X151477868Y-112613904D01*
X151489494Y-112643451D01*
X151509615Y-112669678D01*
X151550508Y-112709768D01*
X151596109Y-112740341D01*
X151649805Y-112762395D01*
X151714984Y-112776927D01*
X151795036Y-112784933D01*
X151893349Y-112787410D01*
X151909581Y-112787369D01*
X151975141Y-112786010D01*
X152040158Y-112782922D01*
X152097544Y-112778548D01*
X152140214Y-112773332D01*
X152143664Y-112772733D01*
X152186088Y-112762683D01*
X152222072Y-112749988D01*
X152242442Y-112738382D01*
X152261399Y-112707764D01*
X152262719Y-112672110D01*
X152246377Y-112640336D01*
X152242721Y-112636743D01*
X152227607Y-112626068D01*
X152208707Y-112621468D01*
X152179454Y-112622251D01*
X152143943Y-112626319D01*
X152104262Y-112629954D01*
X152048637Y-112633020D01*
X151983698Y-112635245D01*
X151916077Y-112636356D01*
X151898292Y-112636429D01*
X151830420Y-112636156D01*
X151780746Y-112634838D01*
X151744902Y-112632019D01*
X151718516Y-112627242D01*
X151697218Y-112620049D01*
X151684418Y-112614059D01*
X151656292Y-112597425D01*
X151638360Y-112582360D01*
X151635739Y-112578089D01*
X151641268Y-112560455D01*
X151667552Y-112543384D01*
X151712770Y-112527650D01*
X151775100Y-112514030D01*
X151793463Y-112510996D01*
X151889382Y-112495930D01*
X151965933Y-112483338D01*
X152026072Y-112472303D01*
X152072752Y-112461912D01*
X152108929Y-112451248D01*
X152137557Y-112439397D01*
X152161590Y-112425443D01*
X152183984Y-112408473D01*
X152207694Y-112387570D01*
X152215672Y-112380241D01*
X152243645Y-112352891D01*
X152258452Y-112331221D01*
X152264244Y-112306424D01*
X152265181Y-112275175D01*
X152254867Y-112213897D01*
X152224044Y-112161832D01*
X152172887Y-112119150D01*
X152101575Y-112086017D01*
X152050692Y-112071156D01*
X151995392Y-112061558D01*
X151929145Y-112056128D01*
X151855998Y-112054559D01*
X151779995Y-112056543D01*
G37*
X151779995Y-112056543D02*
X151705180Y-112061773D01*
X151635598Y-112069942D01*
X151575294Y-112080742D01*
X151528312Y-112093865D01*
X151498698Y-112109005D01*
X151494152Y-112113461D01*
X151478346Y-112148042D01*
X151483139Y-112183543D01*
X151507656Y-112213917D01*
X151508826Y-112214788D01*
X151523246Y-112224146D01*
X151538300Y-112229068D01*
X151559297Y-112229665D01*
X151591549Y-112226053D01*
X151640365Y-112218346D01*
X151644292Y-112217697D01*
X151717031Y-112208761D01*
X151795509Y-112204353D01*
X151874219Y-112204311D01*
X151947653Y-112208471D01*
X152010303Y-112216671D01*
X152056662Y-112228749D01*
X152059708Y-112229963D01*
X152093340Y-112248807D01*
X152105156Y-112267877D01*
X152095906Y-112286631D01*
X152066339Y-112304529D01*
X152017203Y-112321029D01*
X151949249Y-112335588D01*
X151903937Y-112342598D01*
X151809748Y-112356081D01*
X151734836Y-112368406D01*
X151676009Y-112380641D01*
X151630077Y-112393853D01*
X151593847Y-112409109D01*
X151564130Y-112427477D01*
X151537734Y-112450023D01*
X151516522Y-112472163D01*
X151491357Y-112503011D01*
X151478973Y-112529537D01*
X151475100Y-112562218D01*
X151474959Y-112574187D01*
X151477868Y-112613904D01*
X151489494Y-112643451D01*
X151509615Y-112669678D01*
X151550508Y-112709768D01*
X151596109Y-112740341D01*
X151649805Y-112762395D01*
X151714984Y-112776927D01*
X151795036Y-112784933D01*
X151893349Y-112787410D01*
X151909581Y-112787369D01*
X151975141Y-112786010D01*
X152040158Y-112782922D01*
X152097544Y-112778548D01*
X152140214Y-112773332D01*
X152143664Y-112772733D01*
X152186088Y-112762683D01*
X152222072Y-112749988D01*
X152242442Y-112738382D01*
X152261399Y-112707764D01*
X152262719Y-112672110D01*
X152246377Y-112640336D01*
X152242721Y-112636743D01*
X152227607Y-112626068D01*
X152208707Y-112621468D01*
X152179454Y-112622251D01*
X152143943Y-112626319D01*
X152104262Y-112629954D01*
X152048637Y-112633020D01*
X151983698Y-112635245D01*
X151916077Y-112636356D01*
X151898292Y-112636429D01*
X151830420Y-112636156D01*
X151780746Y-112634838D01*
X151744902Y-112632019D01*
X151718516Y-112627242D01*
X151697218Y-112620049D01*
X151684418Y-112614059D01*
X151656292Y-112597425D01*
X151638360Y-112582360D01*
X151635739Y-112578089D01*
X151641268Y-112560455D01*
X151667552Y-112543384D01*
X151712770Y-112527650D01*
X151775100Y-112514030D01*
X151793463Y-112510996D01*
X151889382Y-112495930D01*
X151965933Y-112483338D01*
X152026072Y-112472303D01*
X152072752Y-112461912D01*
X152108929Y-112451248D01*
X152137557Y-112439397D01*
X152161590Y-112425443D01*
X152183984Y-112408473D01*
X152207694Y-112387570D01*
X152215672Y-112380241D01*
X152243645Y-112352891D01*
X152258452Y-112331221D01*
X152264244Y-112306424D01*
X152265181Y-112275175D01*
X152254867Y-112213897D01*
X152224044Y-112161832D01*
X152172887Y-112119150D01*
X152101575Y-112086017D01*
X152050692Y-112071156D01*
X151995392Y-112061558D01*
X151929145Y-112056128D01*
X151855998Y-112054559D01*
X151779995Y-112056543D01*
G36*
X152801086Y-112055338D02*
G01*
X152731678Y-112055710D01*
X152679289Y-112056577D01*
X152641139Y-112058138D01*
X152614451Y-112060595D01*
X152596445Y-112064149D01*
X152584341Y-112069002D01*
X152575361Y-112075353D01*
X152572110Y-112078276D01*
X152552335Y-112109334D01*
X152548774Y-112145020D01*
X152561783Y-112176702D01*
X152567798Y-112183105D01*
X152577527Y-112189313D01*
X152593193Y-112194102D01*
X152617700Y-112197706D01*
X152653953Y-112200356D01*
X152704857Y-112202287D01*
X152773318Y-112203731D01*
X152835909Y-112204610D01*
X153083626Y-112207659D01*
X153087011Y-112272570D01*
X153090397Y-112337481D01*
X152922250Y-112337481D01*
X152849251Y-112338111D01*
X152795809Y-112340745D01*
X152758920Y-112346501D01*
X152735580Y-112356496D01*
X152722786Y-112371848D01*
X152717534Y-112393674D01*
X152716737Y-112413930D01*
X152719215Y-112438784D01*
X152728569Y-112457098D01*
X152747675Y-112469829D01*
X152779410Y-112477933D01*
X152826651Y-112482368D01*
X152892275Y-112484091D01*
X152928093Y-112484237D01*
X153089270Y-112484237D01*
X153089270Y-112642281D01*
X152840914Y-112642281D01*
X152759505Y-112642394D01*
X152697634Y-112642904D01*
X152652260Y-112644062D01*
X152620346Y-112646122D01*
X152598851Y-112649338D01*
X152584735Y-112653964D01*
X152574960Y-112660251D01*
X152569981Y-112664859D01*
X152552902Y-112691752D01*
X152547403Y-112715659D01*
X152555255Y-112744859D01*
X152569981Y-112766459D01*
X152577838Y-112773258D01*
X152587980Y-112778538D01*
X152603136Y-112782490D01*
X152626033Y-112785305D01*
X152659401Y-112787174D01*
X152705967Y-112788290D01*
X152768459Y-112788843D01*
X152849606Y-112789025D01*
X152891714Y-112789037D01*
X152981890Y-112788957D01*
X153052216Y-112788590D01*
X153105421Y-112787744D01*
X153144232Y-112786228D01*
X153171379Y-112783851D01*
X153189590Y-112780421D01*
X153201592Y-112775746D01*
X153210114Y-112769636D01*
X153213448Y-112766459D01*
X153220047Y-112758862D01*
X153225219Y-112749062D01*
X153229138Y-112734431D01*
X153231976Y-112712344D01*
X153233907Y-112680174D01*
X153235104Y-112635295D01*
X153235740Y-112575081D01*
X153235989Y-112496905D01*
X153236026Y-112424115D01*
X153235992Y-112330899D01*
X153235757Y-112257623D01*
X153235122Y-112201650D01*
X153233886Y-112160343D01*
X153231848Y-112131064D01*
X153228809Y-112111176D01*
X153224569Y-112098042D01*
X153218927Y-112089024D01*
X153211683Y-112081485D01*
X153209898Y-112079804D01*
X153201237Y-112072364D01*
X153191174Y-112066601D01*
X153176917Y-112062304D01*
X153155675Y-112059256D01*
X153124656Y-112057243D01*
X153081069Y-112056052D01*
X153022123Y-112055467D01*
X152945026Y-112055275D01*
X152890293Y-112055259D01*
X152801086Y-112055338D01*
G37*
X152801086Y-112055338D02*
X152731678Y-112055710D01*
X152679289Y-112056577D01*
X152641139Y-112058138D01*
X152614451Y-112060595D01*
X152596445Y-112064149D01*
X152584341Y-112069002D01*
X152575361Y-112075353D01*
X152572110Y-112078276D01*
X152552335Y-112109334D01*
X152548774Y-112145020D01*
X152561783Y-112176702D01*
X152567798Y-112183105D01*
X152577527Y-112189313D01*
X152593193Y-112194102D01*
X152617700Y-112197706D01*
X152653953Y-112200356D01*
X152704857Y-112202287D01*
X152773318Y-112203731D01*
X152835909Y-112204610D01*
X153083626Y-112207659D01*
X153087011Y-112272570D01*
X153090397Y-112337481D01*
X152922250Y-112337481D01*
X152849251Y-112338111D01*
X152795809Y-112340745D01*
X152758920Y-112346501D01*
X152735580Y-112356496D01*
X152722786Y-112371848D01*
X152717534Y-112393674D01*
X152716737Y-112413930D01*
X152719215Y-112438784D01*
X152728569Y-112457098D01*
X152747675Y-112469829D01*
X152779410Y-112477933D01*
X152826651Y-112482368D01*
X152892275Y-112484091D01*
X152928093Y-112484237D01*
X153089270Y-112484237D01*
X153089270Y-112642281D01*
X152840914Y-112642281D01*
X152759505Y-112642394D01*
X152697634Y-112642904D01*
X152652260Y-112644062D01*
X152620346Y-112646122D01*
X152598851Y-112649338D01*
X152584735Y-112653964D01*
X152574960Y-112660251D01*
X152569981Y-112664859D01*
X152552902Y-112691752D01*
X152547403Y-112715659D01*
X152555255Y-112744859D01*
X152569981Y-112766459D01*
X152577838Y-112773258D01*
X152587980Y-112778538D01*
X152603136Y-112782490D01*
X152626033Y-112785305D01*
X152659401Y-112787174D01*
X152705967Y-112788290D01*
X152768459Y-112788843D01*
X152849606Y-112789025D01*
X152891714Y-112789037D01*
X152981890Y-112788957D01*
X153052216Y-112788590D01*
X153105421Y-112787744D01*
X153144232Y-112786228D01*
X153171379Y-112783851D01*
X153189590Y-112780421D01*
X153201592Y-112775746D01*
X153210114Y-112769636D01*
X153213448Y-112766459D01*
X153220047Y-112758862D01*
X153225219Y-112749062D01*
X153229138Y-112734431D01*
X153231976Y-112712344D01*
X153233907Y-112680174D01*
X153235104Y-112635295D01*
X153235740Y-112575081D01*
X153235989Y-112496905D01*
X153236026Y-112424115D01*
X153235992Y-112330899D01*
X153235757Y-112257623D01*
X153235122Y-112201650D01*
X153233886Y-112160343D01*
X153231848Y-112131064D01*
X153228809Y-112111176D01*
X153224569Y-112098042D01*
X153218927Y-112089024D01*
X153211683Y-112081485D01*
X153209898Y-112079804D01*
X153201237Y-112072364D01*
X153191174Y-112066601D01*
X153176917Y-112062304D01*
X153155675Y-112059256D01*
X153124656Y-112057243D01*
X153081069Y-112056052D01*
X153022123Y-112055467D01*
X152945026Y-112055275D01*
X152890293Y-112055259D01*
X152801086Y-112055338D01*
G36*
X154209663Y-112055258D02*
G01*
X154170181Y-112055659D01*
X154054492Y-112058451D01*
X153957603Y-112066742D01*
X153876211Y-112081424D01*
X153807015Y-112103385D01*
X153746712Y-112133514D01*
X153692000Y-112172702D01*
X153672459Y-112189724D01*
X153640042Y-112229555D01*
X153610812Y-112283605D01*
X153588283Y-112343515D01*
X153575971Y-112400931D01*
X153574692Y-112422148D01*
X153582709Y-112480961D01*
X153604191Y-112545205D01*
X153635291Y-112606013D01*
X153672158Y-112654522D01*
X153678146Y-112660374D01*
X153728871Y-112701513D01*
X153784417Y-112733627D01*
X153847988Y-112757557D01*
X153922786Y-112774145D01*
X154012014Y-112784233D01*
X154118874Y-112788661D01*
X154167820Y-112789037D01*
X154230054Y-112788737D01*
X154273820Y-112787484D01*
X154303223Y-112784746D01*
X154322371Y-112779993D01*
X154335369Y-112772693D01*
X154342337Y-112766459D01*
X154348918Y-112758886D01*
X154354080Y-112749116D01*
X154357995Y-112734532D01*
X154360835Y-112712518D01*
X154362772Y-112680456D01*
X154363976Y-112635728D01*
X154364620Y-112575718D01*
X154364875Y-112497809D01*
X154364914Y-112422148D01*
X154365162Y-112321233D01*
X154365109Y-112240619D01*
X154364149Y-112202014D01*
X154218159Y-112202014D01*
X154218159Y-112642281D01*
X154125026Y-112642196D01*
X154068985Y-112640588D01*
X154010291Y-112636448D01*
X153961320Y-112630656D01*
X153959830Y-112630418D01*
X153880684Y-112611282D01*
X153819294Y-112581479D01*
X153772597Y-112539070D01*
X153742927Y-112493153D01*
X153724645Y-112442218D01*
X153726063Y-112394392D01*
X153747280Y-112343125D01*
X153788781Y-112290091D01*
X153846290Y-112250792D01*
X153921042Y-112224523D01*
X153971000Y-112215227D01*
X154027708Y-112208699D01*
X154087811Y-112203974D01*
X154138931Y-112202009D01*
X154141959Y-112202000D01*
X154218159Y-112202014D01*
X154364149Y-112202014D01*
X154363552Y-112178043D01*
X154359290Y-112131247D01*
X154351122Y-112097970D01*
X154337848Y-112075951D01*
X154318266Y-112062931D01*
X154291175Y-112056649D01*
X154255374Y-112054845D01*
X154209663Y-112055258D01*
G37*
X154209663Y-112055258D02*
X154170181Y-112055659D01*
X154054492Y-112058451D01*
X153957603Y-112066742D01*
X153876211Y-112081424D01*
X153807015Y-112103385D01*
X153746712Y-112133514D01*
X153692000Y-112172702D01*
X153672459Y-112189724D01*
X153640042Y-112229555D01*
X153610812Y-112283605D01*
X153588283Y-112343515D01*
X153575971Y-112400931D01*
X153574692Y-112422148D01*
X153582709Y-112480961D01*
X153604191Y-112545205D01*
X153635291Y-112606013D01*
X153672158Y-112654522D01*
X153678146Y-112660374D01*
X153728871Y-112701513D01*
X153784417Y-112733627D01*
X153847988Y-112757557D01*
X153922786Y-112774145D01*
X154012014Y-112784233D01*
X154118874Y-112788661D01*
X154167820Y-112789037D01*
X154230054Y-112788737D01*
X154273820Y-112787484D01*
X154303223Y-112784746D01*
X154322371Y-112779993D01*
X154335369Y-112772693D01*
X154342337Y-112766459D01*
X154348918Y-112758886D01*
X154354080Y-112749116D01*
X154357995Y-112734532D01*
X154360835Y-112712518D01*
X154362772Y-112680456D01*
X154363976Y-112635728D01*
X154364620Y-112575718D01*
X154364875Y-112497809D01*
X154364914Y-112422148D01*
X154365162Y-112321233D01*
X154365109Y-112240619D01*
X154364149Y-112202014D01*
X154218159Y-112202014D01*
X154218159Y-112642281D01*
X154125026Y-112642196D01*
X154068985Y-112640588D01*
X154010291Y-112636448D01*
X153961320Y-112630656D01*
X153959830Y-112630418D01*
X153880684Y-112611282D01*
X153819294Y-112581479D01*
X153772597Y-112539070D01*
X153742927Y-112493153D01*
X153724645Y-112442218D01*
X153726063Y-112394392D01*
X153747280Y-112343125D01*
X153788781Y-112290091D01*
X153846290Y-112250792D01*
X153921042Y-112224523D01*
X153971000Y-112215227D01*
X154027708Y-112208699D01*
X154087811Y-112203974D01*
X154138931Y-112202009D01*
X154141959Y-112202000D01*
X154218159Y-112202014D01*
X154364149Y-112202014D01*
X154363552Y-112178043D01*
X154359290Y-112131247D01*
X154351122Y-112097970D01*
X154337848Y-112075951D01*
X154318266Y-112062931D01*
X154291175Y-112056649D01*
X154255374Y-112054845D01*
X154209663Y-112055258D01*
%TO.C,J2*%
D10*
X168282380Y-119896666D02*
X168996666Y-119896666D01*
X169139523Y-119849047D01*
X169234761Y-119753809D01*
X169282380Y-119610952D01*
X169282380Y-119515714D01*
X168377619Y-120325238D02*
X168330000Y-120372857D01*
X168282380Y-120468095D01*
X168282380Y-120706190D01*
X168330000Y-120801428D01*
X168377619Y-120849047D01*
X168472857Y-120896666D01*
X168568095Y-120896666D01*
X168710952Y-120849047D01*
X169282380Y-120277619D01*
X169282380Y-120896666D01*
%TO.C,J4*%
X169282380Y-59356666D02*
X169996666Y-59356666D01*
X170139523Y-59309047D01*
X170234761Y-59213809D01*
X170282380Y-59070952D01*
X170282380Y-58975714D01*
X169615714Y-60261428D02*
X170282380Y-60261428D01*
X169234761Y-60023333D02*
X169949047Y-59785238D01*
X169949047Y-60404285D01*
%TD*%
M02*
