%TF.GenerationSoftware,KiCad,Pcbnew,5.1.9+dfsg1-1*%
%TF.CreationDate,2022-01-11T09:27:10+01:00*%
%TF.ProjectId,STM32F4XX,53544d33-3246-4345-9858-2e6b69636164,1.0*%
%TF.SameCoordinates,Original*%
%TF.FileFunction,Legend,Top*%
%TF.FilePolarity,Positive*%
%FSLAX46Y46*%
G04 Gerber Fmt 4.6, Leading zero omitted, Abs format (unit mm)*
G04 Created by KiCad (PCBNEW 5.1.9+dfsg1-1) date 2022-01-11 09:27:10*
%MOMM*%
%LPD*%
G01*
G04 APERTURE LIST*
%ADD10C,0.150000*%
%ADD11C,0.100000*%
%ADD12C,0.400000*%
%ADD13C,0.120000*%
%ADD14C,0.010000*%
G04 APERTURE END LIST*
D10*
X126352380Y-75472380D02*
X125876190Y-75805714D01*
X126352380Y-76043809D02*
X125352380Y-76043809D01*
X125352380Y-75662857D01*
X125400000Y-75567619D01*
X125447619Y-75520000D01*
X125542857Y-75472380D01*
X125685714Y-75472380D01*
X125780952Y-75520000D01*
X125828571Y-75567619D01*
X125876190Y-75662857D01*
X125876190Y-76043809D01*
X125828571Y-75043809D02*
X125828571Y-74710476D01*
X126352380Y-74567619D02*
X126352380Y-75043809D01*
X125352380Y-75043809D01*
X125352380Y-74567619D01*
X126304761Y-74186666D02*
X126352380Y-74043809D01*
X126352380Y-73805714D01*
X126304761Y-73710476D01*
X126257142Y-73662857D01*
X126161904Y-73615238D01*
X126066666Y-73615238D01*
X125971428Y-73662857D01*
X125923809Y-73710476D01*
X125876190Y-73805714D01*
X125828571Y-73996190D01*
X125780952Y-74091428D01*
X125733333Y-74139047D01*
X125638095Y-74186666D01*
X125542857Y-74186666D01*
X125447619Y-74139047D01*
X125400000Y-74091428D01*
X125352380Y-73996190D01*
X125352380Y-73758095D01*
X125400000Y-73615238D01*
X125828571Y-73186666D02*
X125828571Y-72853333D01*
X126352380Y-72710476D02*
X126352380Y-73186666D01*
X125352380Y-73186666D01*
X125352380Y-72710476D01*
X125352380Y-72424761D02*
X125352380Y-71853333D01*
X126352380Y-72139047D02*
X125352380Y-72139047D01*
D11*
X173850000Y-114224285D02*
X173888095Y-114148095D01*
X173888095Y-114033809D01*
X173850000Y-113919523D01*
X173773809Y-113843333D01*
X173697619Y-113805238D01*
X173545238Y-113767142D01*
X173430952Y-113767142D01*
X173278571Y-113805238D01*
X173202380Y-113843333D01*
X173126190Y-113919523D01*
X173088095Y-114033809D01*
X173088095Y-114110000D01*
X173126190Y-114224285D01*
X173164285Y-114262380D01*
X173430952Y-114262380D01*
X173430952Y-114110000D01*
X173088095Y-114605238D02*
X173888095Y-114605238D01*
X173088095Y-115062380D01*
X173888095Y-115062380D01*
X173088095Y-115443333D02*
X173888095Y-115443333D01*
X173888095Y-115633809D01*
X173850000Y-115748095D01*
X173773809Y-115824285D01*
X173697619Y-115862380D01*
X173545238Y-115900476D01*
X173430952Y-115900476D01*
X173278571Y-115862380D01*
X173202380Y-115824285D01*
X173126190Y-115748095D01*
X173088095Y-115633809D01*
X173088095Y-115443333D01*
X173888095Y-116738571D02*
X173888095Y-117195714D01*
X173088095Y-116967142D02*
X173888095Y-116967142D01*
X173888095Y-117386190D02*
X173088095Y-117919523D01*
X173888095Y-117919523D02*
X173088095Y-117386190D01*
X173088095Y-119290952D02*
X173469047Y-119024285D01*
X173088095Y-118833809D02*
X173888095Y-118833809D01*
X173888095Y-119138571D01*
X173850000Y-119214761D01*
X173811904Y-119252857D01*
X173735714Y-119290952D01*
X173621428Y-119290952D01*
X173545238Y-119252857D01*
X173507142Y-119214761D01*
X173469047Y-119138571D01*
X173469047Y-118833809D01*
X173888095Y-119557619D02*
X173088095Y-120090952D01*
X173888095Y-120090952D02*
X173088095Y-119557619D01*
X171788095Y-113348095D02*
X172588095Y-113348095D01*
X172588095Y-113538571D01*
X172550000Y-113652857D01*
X172473809Y-113729047D01*
X172397619Y-113767142D01*
X172245238Y-113805238D01*
X172130952Y-113805238D01*
X171978571Y-113767142D01*
X171902380Y-113729047D01*
X171826190Y-113652857D01*
X171788095Y-113538571D01*
X171788095Y-113348095D01*
X172207142Y-114148095D02*
X172207142Y-114414761D01*
X171788095Y-114529047D02*
X171788095Y-114148095D01*
X172588095Y-114148095D01*
X172588095Y-114529047D01*
X172207142Y-115138571D02*
X172169047Y-115252857D01*
X172130952Y-115290952D01*
X172054761Y-115329047D01*
X171940476Y-115329047D01*
X171864285Y-115290952D01*
X171826190Y-115252857D01*
X171788095Y-115176666D01*
X171788095Y-114871904D01*
X172588095Y-114871904D01*
X172588095Y-115138571D01*
X172550000Y-115214761D01*
X172511904Y-115252857D01*
X172435714Y-115290952D01*
X172359523Y-115290952D01*
X172283333Y-115252857D01*
X172245238Y-115214761D01*
X172207142Y-115138571D01*
X172207142Y-114871904D01*
X172588095Y-115671904D02*
X171940476Y-115671904D01*
X171864285Y-115710000D01*
X171826190Y-115748095D01*
X171788095Y-115824285D01*
X171788095Y-115976666D01*
X171826190Y-116052857D01*
X171864285Y-116090952D01*
X171940476Y-116129047D01*
X172588095Y-116129047D01*
X172550000Y-116929047D02*
X172588095Y-116852857D01*
X172588095Y-116738571D01*
X172550000Y-116624285D01*
X172473809Y-116548095D01*
X172397619Y-116510000D01*
X172245238Y-116471904D01*
X172130952Y-116471904D01*
X171978571Y-116510000D01*
X171902380Y-116548095D01*
X171826190Y-116624285D01*
X171788095Y-116738571D01*
X171788095Y-116814761D01*
X171826190Y-116929047D01*
X171864285Y-116967142D01*
X172130952Y-116967142D01*
X172130952Y-116814761D01*
X172588095Y-117919523D02*
X171940476Y-117919523D01*
X171864285Y-117957619D01*
X171826190Y-117995714D01*
X171788095Y-118071904D01*
X171788095Y-118224285D01*
X171826190Y-118300476D01*
X171864285Y-118338571D01*
X171940476Y-118376666D01*
X172588095Y-118376666D01*
X172016666Y-118719523D02*
X172016666Y-119100476D01*
X171788095Y-118643333D02*
X172588095Y-118910000D01*
X171788095Y-119176666D01*
X171788095Y-119900476D02*
X172169047Y-119633809D01*
X171788095Y-119443333D02*
X172588095Y-119443333D01*
X172588095Y-119748095D01*
X172550000Y-119824285D01*
X172511904Y-119862380D01*
X172435714Y-119900476D01*
X172321428Y-119900476D01*
X172245238Y-119862380D01*
X172207142Y-119824285D01*
X172169047Y-119748095D01*
X172169047Y-119443333D01*
X172588095Y-120129047D02*
X172588095Y-120586190D01*
X171788095Y-120357619D02*
X172588095Y-120357619D01*
D10*
X166412380Y-93490476D02*
X167126666Y-93490476D01*
X167269523Y-93538095D01*
X167364761Y-93633333D01*
X167412380Y-93776190D01*
X167412380Y-93871428D01*
X166412380Y-93157142D02*
X166412380Y-92585714D01*
X167412380Y-92871428D02*
X166412380Y-92871428D01*
X167126666Y-92300000D02*
X167126666Y-91823809D01*
X167412380Y-92395238D02*
X166412380Y-92061904D01*
X167412380Y-91728571D01*
X166460000Y-90871428D02*
X166412380Y-90966666D01*
X166412380Y-91109523D01*
X166460000Y-91252380D01*
X166555238Y-91347619D01*
X166650476Y-91395238D01*
X166840952Y-91442857D01*
X166983809Y-91442857D01*
X167174285Y-91395238D01*
X167269523Y-91347619D01*
X167364761Y-91252380D01*
X167412380Y-91109523D01*
X167412380Y-91014285D01*
X167364761Y-90871428D01*
X167317142Y-90823809D01*
X166983809Y-90823809D01*
X166983809Y-91014285D01*
X167364761Y-89680952D02*
X167412380Y-89538095D01*
X167412380Y-89300000D01*
X167364761Y-89204761D01*
X167317142Y-89157142D01*
X167221904Y-89109523D01*
X167126666Y-89109523D01*
X167031428Y-89157142D01*
X166983809Y-89204761D01*
X166936190Y-89300000D01*
X166888571Y-89490476D01*
X166840952Y-89585714D01*
X166793333Y-89633333D01*
X166698095Y-89680952D01*
X166602857Y-89680952D01*
X166507619Y-89633333D01*
X166460000Y-89585714D01*
X166412380Y-89490476D01*
X166412380Y-89252380D01*
X166460000Y-89109523D01*
X166412380Y-88776190D02*
X167412380Y-88538095D01*
X166698095Y-88347619D01*
X167412380Y-88157142D01*
X166412380Y-87919047D01*
X167412380Y-87538095D02*
X166412380Y-87538095D01*
X166412380Y-87300000D01*
X166460000Y-87157142D01*
X166555238Y-87061904D01*
X166650476Y-87014285D01*
X166840952Y-86966666D01*
X166983809Y-86966666D01*
X167174285Y-87014285D01*
X167269523Y-87061904D01*
X167364761Y-87157142D01*
X167412380Y-87300000D01*
X167412380Y-87538095D01*
X167412380Y-86538095D02*
X166412380Y-86538095D01*
X166412380Y-85871428D02*
X166412380Y-85680952D01*
X166460000Y-85585714D01*
X166555238Y-85490476D01*
X166745714Y-85442857D01*
X167079047Y-85442857D01*
X167269523Y-85490476D01*
X167364761Y-85585714D01*
X167412380Y-85680952D01*
X167412380Y-85871428D01*
X167364761Y-85966666D01*
X167269523Y-86061904D01*
X167079047Y-86109523D01*
X166745714Y-86109523D01*
X166555238Y-86061904D01*
X166460000Y-85966666D01*
X166412380Y-85871428D01*
X167364761Y-84300000D02*
X167412380Y-84157142D01*
X167412380Y-83919047D01*
X167364761Y-83823809D01*
X167317142Y-83776190D01*
X167221904Y-83728571D01*
X167126666Y-83728571D01*
X167031428Y-83776190D01*
X166983809Y-83823809D01*
X166936190Y-83919047D01*
X166888571Y-84109523D01*
X166840952Y-84204761D01*
X166793333Y-84252380D01*
X166698095Y-84300000D01*
X166602857Y-84300000D01*
X166507619Y-84252380D01*
X166460000Y-84204761D01*
X166412380Y-84109523D01*
X166412380Y-83871428D01*
X166460000Y-83728571D01*
X166412380Y-83395238D02*
X167412380Y-83157142D01*
X166698095Y-82966666D01*
X167412380Y-82776190D01*
X166412380Y-82538095D01*
X167317142Y-81585714D02*
X167364761Y-81633333D01*
X167412380Y-81776190D01*
X167412380Y-81871428D01*
X167364761Y-82014285D01*
X167269523Y-82109523D01*
X167174285Y-82157142D01*
X166983809Y-82204761D01*
X166840952Y-82204761D01*
X166650476Y-82157142D01*
X166555238Y-82109523D01*
X166460000Y-82014285D01*
X166412380Y-81871428D01*
X166412380Y-81776190D01*
X166460000Y-81633333D01*
X166507619Y-81585714D01*
X167412380Y-80680952D02*
X167412380Y-81157142D01*
X166412380Y-81157142D01*
X167412380Y-80347619D02*
X166412380Y-80347619D01*
X167412380Y-79776190D02*
X166840952Y-80204761D01*
X166412380Y-79776190D02*
X166983809Y-80347619D01*
D11*
X127539761Y-123686428D02*
X128035000Y-123686428D01*
X127787380Y-123934047D02*
X127787380Y-123438809D01*
X128654047Y-123284047D02*
X128344523Y-123284047D01*
X128313571Y-123593571D01*
X128344523Y-123562619D01*
X128406428Y-123531666D01*
X128561190Y-123531666D01*
X128623095Y-123562619D01*
X128654047Y-123593571D01*
X128685000Y-123655476D01*
X128685000Y-123810238D01*
X128654047Y-123872142D01*
X128623095Y-123903095D01*
X128561190Y-123934047D01*
X128406428Y-123934047D01*
X128344523Y-123903095D01*
X128313571Y-123872142D01*
X128870714Y-123284047D02*
X129087380Y-123934047D01*
X129304047Y-123284047D01*
X130356428Y-123315000D02*
X130294523Y-123284047D01*
X130201666Y-123284047D01*
X130108809Y-123315000D01*
X130046904Y-123376904D01*
X130015952Y-123438809D01*
X129985000Y-123562619D01*
X129985000Y-123655476D01*
X130015952Y-123779285D01*
X130046904Y-123841190D01*
X130108809Y-123903095D01*
X130201666Y-123934047D01*
X130263571Y-123934047D01*
X130356428Y-123903095D01*
X130387380Y-123872142D01*
X130387380Y-123655476D01*
X130263571Y-123655476D01*
X130665952Y-123934047D02*
X130665952Y-123284047D01*
X131037380Y-123934047D01*
X131037380Y-123284047D01*
X131346904Y-123934047D02*
X131346904Y-123284047D01*
X131501666Y-123284047D01*
X131594523Y-123315000D01*
X131656428Y-123376904D01*
X131687380Y-123438809D01*
X131718333Y-123562619D01*
X131718333Y-123655476D01*
X131687380Y-123779285D01*
X131656428Y-123841190D01*
X131594523Y-123903095D01*
X131501666Y-123934047D01*
X131346904Y-123934047D01*
X132832619Y-123315000D02*
X132770714Y-123284047D01*
X132677857Y-123284047D01*
X132585000Y-123315000D01*
X132523095Y-123376904D01*
X132492142Y-123438809D01*
X132461190Y-123562619D01*
X132461190Y-123655476D01*
X132492142Y-123779285D01*
X132523095Y-123841190D01*
X132585000Y-123903095D01*
X132677857Y-123934047D01*
X132739761Y-123934047D01*
X132832619Y-123903095D01*
X132863571Y-123872142D01*
X132863571Y-123655476D01*
X132739761Y-123655476D01*
X133142142Y-123934047D02*
X133142142Y-123284047D01*
X133513571Y-123934047D01*
X133513571Y-123284047D01*
X133823095Y-123934047D02*
X133823095Y-123284047D01*
X133977857Y-123284047D01*
X134070714Y-123315000D01*
X134132619Y-123376904D01*
X134163571Y-123438809D01*
X134194523Y-123562619D01*
X134194523Y-123655476D01*
X134163571Y-123779285D01*
X134132619Y-123841190D01*
X134070714Y-123903095D01*
X133977857Y-123934047D01*
X133823095Y-123934047D01*
X134968333Y-123872142D02*
X134999285Y-123903095D01*
X134968333Y-123934047D01*
X134937380Y-123903095D01*
X134968333Y-123872142D01*
X134968333Y-123934047D01*
X135277857Y-123934047D02*
X135277857Y-123284047D01*
X135649285Y-123934047D01*
X135649285Y-123284047D01*
X136330238Y-123872142D02*
X136299285Y-123903095D01*
X136206428Y-123934047D01*
X136144523Y-123934047D01*
X136051666Y-123903095D01*
X135989761Y-123841190D01*
X135958809Y-123779285D01*
X135927857Y-123655476D01*
X135927857Y-123562619D01*
X135958809Y-123438809D01*
X135989761Y-123376904D01*
X136051666Y-123315000D01*
X136144523Y-123284047D01*
X136206428Y-123284047D01*
X136299285Y-123315000D01*
X136330238Y-123345952D01*
X137599285Y-123872142D02*
X137630238Y-123903095D01*
X137599285Y-123934047D01*
X137568333Y-123903095D01*
X137599285Y-123872142D01*
X137599285Y-123934047D01*
X137908809Y-123934047D02*
X137908809Y-123284047D01*
X138280238Y-123934047D01*
X138280238Y-123284047D01*
X138961190Y-123872142D02*
X138930238Y-123903095D01*
X138837380Y-123934047D01*
X138775476Y-123934047D01*
X138682619Y-123903095D01*
X138620714Y-123841190D01*
X138589761Y-123779285D01*
X138558809Y-123655476D01*
X138558809Y-123562619D01*
X138589761Y-123438809D01*
X138620714Y-123376904D01*
X138682619Y-123315000D01*
X138775476Y-123284047D01*
X138837380Y-123284047D01*
X138930238Y-123315000D01*
X138961190Y-123345952D01*
X140230238Y-123872142D02*
X140261190Y-123903095D01*
X140230238Y-123934047D01*
X140199285Y-123903095D01*
X140230238Y-123872142D01*
X140230238Y-123934047D01*
X140539761Y-123934047D02*
X140539761Y-123284047D01*
X140911190Y-123934047D01*
X140911190Y-123284047D01*
X141592142Y-123872142D02*
X141561190Y-123903095D01*
X141468333Y-123934047D01*
X141406428Y-123934047D01*
X141313571Y-123903095D01*
X141251666Y-123841190D01*
X141220714Y-123779285D01*
X141189761Y-123655476D01*
X141189761Y-123562619D01*
X141220714Y-123438809D01*
X141251666Y-123376904D01*
X141313571Y-123315000D01*
X141406428Y-123284047D01*
X141468333Y-123284047D01*
X141561190Y-123315000D01*
X141592142Y-123345952D01*
X142861190Y-123872142D02*
X142892142Y-123903095D01*
X142861190Y-123934047D01*
X142830238Y-123903095D01*
X142861190Y-123872142D01*
X142861190Y-123934047D01*
X143170714Y-123934047D02*
X143170714Y-123284047D01*
X143542142Y-123934047D01*
X143542142Y-123284047D01*
X144223095Y-123872142D02*
X144192142Y-123903095D01*
X144099285Y-123934047D01*
X144037380Y-123934047D01*
X143944523Y-123903095D01*
X143882619Y-123841190D01*
X143851666Y-123779285D01*
X143820714Y-123655476D01*
X143820714Y-123562619D01*
X143851666Y-123438809D01*
X143882619Y-123376904D01*
X143944523Y-123315000D01*
X144037380Y-123284047D01*
X144099285Y-123284047D01*
X144192142Y-123315000D01*
X144223095Y-123345952D01*
X145430238Y-123284047D02*
X145832619Y-123284047D01*
X145615952Y-123531666D01*
X145708809Y-123531666D01*
X145770714Y-123562619D01*
X145801666Y-123593571D01*
X145832619Y-123655476D01*
X145832619Y-123810238D01*
X145801666Y-123872142D01*
X145770714Y-123903095D01*
X145708809Y-123934047D01*
X145523095Y-123934047D01*
X145461190Y-123903095D01*
X145430238Y-123872142D01*
X146018333Y-123284047D02*
X146235000Y-123934047D01*
X146451666Y-123284047D01*
X146606428Y-123284047D02*
X147008809Y-123284047D01*
X146792142Y-123531666D01*
X146885000Y-123531666D01*
X146946904Y-123562619D01*
X146977857Y-123593571D01*
X147008809Y-123655476D01*
X147008809Y-123810238D01*
X146977857Y-123872142D01*
X146946904Y-123903095D01*
X146885000Y-123934047D01*
X146699285Y-123934047D01*
X146637380Y-123903095D01*
X146606428Y-123872142D01*
X147782619Y-123934047D02*
X147782619Y-123284047D01*
X148030238Y-123284047D01*
X148092142Y-123315000D01*
X148123095Y-123345952D01*
X148154047Y-123407857D01*
X148154047Y-123500714D01*
X148123095Y-123562619D01*
X148092142Y-123593571D01*
X148030238Y-123624523D01*
X147782619Y-123624523D01*
X148401666Y-123748333D02*
X148711190Y-123748333D01*
X148339761Y-123934047D02*
X148556428Y-123284047D01*
X148773095Y-123934047D01*
X149330238Y-123934047D02*
X148958809Y-123934047D01*
X149144523Y-123934047D02*
X149144523Y-123284047D01*
X149082619Y-123376904D01*
X149020714Y-123438809D01*
X148958809Y-123469761D01*
X150104047Y-123934047D02*
X150104047Y-123284047D01*
X150351666Y-123284047D01*
X150413571Y-123315000D01*
X150444523Y-123345952D01*
X150475476Y-123407857D01*
X150475476Y-123500714D01*
X150444523Y-123562619D01*
X150413571Y-123593571D01*
X150351666Y-123624523D01*
X150104047Y-123624523D01*
X150723095Y-123748333D02*
X151032619Y-123748333D01*
X150661190Y-123934047D02*
X150877857Y-123284047D01*
X151094523Y-123934047D01*
X151249285Y-123284047D02*
X151651666Y-123284047D01*
X151435000Y-123531666D01*
X151527857Y-123531666D01*
X151589761Y-123562619D01*
X151620714Y-123593571D01*
X151651666Y-123655476D01*
X151651666Y-123810238D01*
X151620714Y-123872142D01*
X151589761Y-123903095D01*
X151527857Y-123934047D01*
X151342142Y-123934047D01*
X151280238Y-123903095D01*
X151249285Y-123872142D01*
X152425476Y-123934047D02*
X152425476Y-123284047D01*
X152673095Y-123284047D01*
X152735000Y-123315000D01*
X152765952Y-123345952D01*
X152796904Y-123407857D01*
X152796904Y-123500714D01*
X152765952Y-123562619D01*
X152735000Y-123593571D01*
X152673095Y-123624523D01*
X152425476Y-123624523D01*
X153044523Y-123748333D02*
X153354047Y-123748333D01*
X152982619Y-123934047D02*
X153199285Y-123284047D01*
X153415952Y-123934047D01*
X153942142Y-123284047D02*
X153632619Y-123284047D01*
X153601666Y-123593571D01*
X153632619Y-123562619D01*
X153694523Y-123531666D01*
X153849285Y-123531666D01*
X153911190Y-123562619D01*
X153942142Y-123593571D01*
X153973095Y-123655476D01*
X153973095Y-123810238D01*
X153942142Y-123872142D01*
X153911190Y-123903095D01*
X153849285Y-123934047D01*
X153694523Y-123934047D01*
X153632619Y-123903095D01*
X153601666Y-123872142D01*
X154746904Y-123934047D02*
X154746904Y-123284047D01*
X154994523Y-123284047D01*
X155056428Y-123315000D01*
X155087380Y-123345952D01*
X155118333Y-123407857D01*
X155118333Y-123500714D01*
X155087380Y-123562619D01*
X155056428Y-123593571D01*
X154994523Y-123624523D01*
X154746904Y-123624523D01*
X155365952Y-123748333D02*
X155675476Y-123748333D01*
X155304047Y-123934047D02*
X155520714Y-123284047D01*
X155737380Y-123934047D01*
X155892142Y-123284047D02*
X156325476Y-123284047D01*
X156046904Y-123934047D01*
X157068333Y-123934047D02*
X157068333Y-123284047D01*
X157315952Y-123284047D01*
X157377857Y-123315000D01*
X157408809Y-123345952D01*
X157439761Y-123407857D01*
X157439761Y-123500714D01*
X157408809Y-123562619D01*
X157377857Y-123593571D01*
X157315952Y-123624523D01*
X157068333Y-123624523D01*
X157687380Y-123748333D02*
X157996904Y-123748333D01*
X157625476Y-123934047D02*
X157842142Y-123284047D01*
X158058809Y-123934047D01*
X158306428Y-123934047D02*
X158430238Y-123934047D01*
X158492142Y-123903095D01*
X158523095Y-123872142D01*
X158585000Y-123779285D01*
X158615952Y-123655476D01*
X158615952Y-123407857D01*
X158585000Y-123345952D01*
X158554047Y-123315000D01*
X158492142Y-123284047D01*
X158368333Y-123284047D01*
X158306428Y-123315000D01*
X158275476Y-123345952D01*
X158244523Y-123407857D01*
X158244523Y-123562619D01*
X158275476Y-123624523D01*
X158306428Y-123655476D01*
X158368333Y-123686428D01*
X158492142Y-123686428D01*
X158554047Y-123655476D01*
X158585000Y-123624523D01*
X158615952Y-123562619D01*
X159389761Y-123934047D02*
X159389761Y-123284047D01*
X159637380Y-123284047D01*
X159699285Y-123315000D01*
X159730238Y-123345952D01*
X159761190Y-123407857D01*
X159761190Y-123500714D01*
X159730238Y-123562619D01*
X159699285Y-123593571D01*
X159637380Y-123624523D01*
X159389761Y-123624523D01*
X160008809Y-123748333D02*
X160318333Y-123748333D01*
X159946904Y-123934047D02*
X160163571Y-123284047D01*
X160380238Y-123934047D01*
X160937380Y-123934047D02*
X160565952Y-123934047D01*
X160751666Y-123934047D02*
X160751666Y-123284047D01*
X160689761Y-123376904D01*
X160627857Y-123438809D01*
X160565952Y-123469761D01*
X161556428Y-123934047D02*
X161185000Y-123934047D01*
X161370714Y-123934047D02*
X161370714Y-123284047D01*
X161308809Y-123376904D01*
X161246904Y-123438809D01*
X161185000Y-123469761D01*
X162330238Y-123934047D02*
X162330238Y-123284047D01*
X162577857Y-123284047D01*
X162639761Y-123315000D01*
X162670714Y-123345952D01*
X162701666Y-123407857D01*
X162701666Y-123500714D01*
X162670714Y-123562619D01*
X162639761Y-123593571D01*
X162577857Y-123624523D01*
X162330238Y-123624523D01*
X162949285Y-123748333D02*
X163258809Y-123748333D01*
X162887380Y-123934047D02*
X163104047Y-123284047D01*
X163320714Y-123934047D01*
X163877857Y-123934047D02*
X163506428Y-123934047D01*
X163692142Y-123934047D02*
X163692142Y-123284047D01*
X163630238Y-123376904D01*
X163568333Y-123438809D01*
X163506428Y-123469761D01*
X164094523Y-123284047D02*
X164496904Y-123284047D01*
X164280238Y-123531666D01*
X164373095Y-123531666D01*
X164435000Y-123562619D01*
X164465952Y-123593571D01*
X164496904Y-123655476D01*
X164496904Y-123810238D01*
X164465952Y-123872142D01*
X164435000Y-123903095D01*
X164373095Y-123934047D01*
X164187380Y-123934047D01*
X164125476Y-123903095D01*
X164094523Y-123872142D01*
X165270714Y-123934047D02*
X165270714Y-123284047D01*
X165518333Y-123284047D01*
X165580238Y-123315000D01*
X165611190Y-123345952D01*
X165642142Y-123407857D01*
X165642142Y-123500714D01*
X165611190Y-123562619D01*
X165580238Y-123593571D01*
X165518333Y-123624523D01*
X165270714Y-123624523D01*
X165889761Y-123748333D02*
X166199285Y-123748333D01*
X165827857Y-123934047D02*
X166044523Y-123284047D01*
X166261190Y-123934047D01*
X166818333Y-123934047D02*
X166446904Y-123934047D01*
X166632619Y-123934047D02*
X166632619Y-123284047D01*
X166570714Y-123376904D01*
X166508809Y-123438809D01*
X166446904Y-123469761D01*
X167406428Y-123284047D02*
X167096904Y-123284047D01*
X167065952Y-123593571D01*
X167096904Y-123562619D01*
X167158809Y-123531666D01*
X167313571Y-123531666D01*
X167375476Y-123562619D01*
X167406428Y-123593571D01*
X167437380Y-123655476D01*
X167437380Y-123810238D01*
X167406428Y-123872142D01*
X167375476Y-123903095D01*
X167313571Y-123934047D01*
X167158809Y-123934047D01*
X167096904Y-123903095D01*
X167065952Y-123872142D01*
X127489761Y-116846428D02*
X127985000Y-116846428D01*
X127737380Y-117094047D02*
X127737380Y-116598809D01*
X128604047Y-116444047D02*
X128294523Y-116444047D01*
X128263571Y-116753571D01*
X128294523Y-116722619D01*
X128356428Y-116691666D01*
X128511190Y-116691666D01*
X128573095Y-116722619D01*
X128604047Y-116753571D01*
X128635000Y-116815476D01*
X128635000Y-116970238D01*
X128604047Y-117032142D01*
X128573095Y-117063095D01*
X128511190Y-117094047D01*
X128356428Y-117094047D01*
X128294523Y-117063095D01*
X128263571Y-117032142D01*
X128820714Y-116444047D02*
X129037380Y-117094047D01*
X129254047Y-116444047D01*
X129965952Y-116846428D02*
X130461190Y-116846428D01*
X130213571Y-117094047D02*
X130213571Y-116598809D01*
X131080238Y-116444047D02*
X130770714Y-116444047D01*
X130739761Y-116753571D01*
X130770714Y-116722619D01*
X130832619Y-116691666D01*
X130987380Y-116691666D01*
X131049285Y-116722619D01*
X131080238Y-116753571D01*
X131111190Y-116815476D01*
X131111190Y-116970238D01*
X131080238Y-117032142D01*
X131049285Y-117063095D01*
X130987380Y-117094047D01*
X130832619Y-117094047D01*
X130770714Y-117063095D01*
X130739761Y-117032142D01*
X131296904Y-116444047D02*
X131513571Y-117094047D01*
X131730238Y-116444047D01*
X132782619Y-116475000D02*
X132720714Y-116444047D01*
X132627857Y-116444047D01*
X132535000Y-116475000D01*
X132473095Y-116536904D01*
X132442142Y-116598809D01*
X132411190Y-116722619D01*
X132411190Y-116815476D01*
X132442142Y-116939285D01*
X132473095Y-117001190D01*
X132535000Y-117063095D01*
X132627857Y-117094047D01*
X132689761Y-117094047D01*
X132782619Y-117063095D01*
X132813571Y-117032142D01*
X132813571Y-116815476D01*
X132689761Y-116815476D01*
X133092142Y-117094047D02*
X133092142Y-116444047D01*
X133463571Y-117094047D01*
X133463571Y-116444047D01*
X133773095Y-117094047D02*
X133773095Y-116444047D01*
X133927857Y-116444047D01*
X134020714Y-116475000D01*
X134082619Y-116536904D01*
X134113571Y-116598809D01*
X134144523Y-116722619D01*
X134144523Y-116815476D01*
X134113571Y-116939285D01*
X134082619Y-117001190D01*
X134020714Y-117063095D01*
X133927857Y-117094047D01*
X133773095Y-117094047D01*
X134918333Y-117032142D02*
X134949285Y-117063095D01*
X134918333Y-117094047D01*
X134887380Y-117063095D01*
X134918333Y-117032142D01*
X134918333Y-117094047D01*
X135227857Y-117094047D02*
X135227857Y-116444047D01*
X135599285Y-117094047D01*
X135599285Y-116444047D01*
X136280238Y-117032142D02*
X136249285Y-117063095D01*
X136156428Y-117094047D01*
X136094523Y-117094047D01*
X136001666Y-117063095D01*
X135939761Y-117001190D01*
X135908809Y-116939285D01*
X135877857Y-116815476D01*
X135877857Y-116722619D01*
X135908809Y-116598809D01*
X135939761Y-116536904D01*
X136001666Y-116475000D01*
X136094523Y-116444047D01*
X136156428Y-116444047D01*
X136249285Y-116475000D01*
X136280238Y-116505952D01*
X137549285Y-117032142D02*
X137580238Y-117063095D01*
X137549285Y-117094047D01*
X137518333Y-117063095D01*
X137549285Y-117032142D01*
X137549285Y-117094047D01*
X137858809Y-117094047D02*
X137858809Y-116444047D01*
X138230238Y-117094047D01*
X138230238Y-116444047D01*
X138911190Y-117032142D02*
X138880238Y-117063095D01*
X138787380Y-117094047D01*
X138725476Y-117094047D01*
X138632619Y-117063095D01*
X138570714Y-117001190D01*
X138539761Y-116939285D01*
X138508809Y-116815476D01*
X138508809Y-116722619D01*
X138539761Y-116598809D01*
X138570714Y-116536904D01*
X138632619Y-116475000D01*
X138725476Y-116444047D01*
X138787380Y-116444047D01*
X138880238Y-116475000D01*
X138911190Y-116505952D01*
X140180238Y-117032142D02*
X140211190Y-117063095D01*
X140180238Y-117094047D01*
X140149285Y-117063095D01*
X140180238Y-117032142D01*
X140180238Y-117094047D01*
X140489761Y-117094047D02*
X140489761Y-116444047D01*
X140861190Y-117094047D01*
X140861190Y-116444047D01*
X141542142Y-117032142D02*
X141511190Y-117063095D01*
X141418333Y-117094047D01*
X141356428Y-117094047D01*
X141263571Y-117063095D01*
X141201666Y-117001190D01*
X141170714Y-116939285D01*
X141139761Y-116815476D01*
X141139761Y-116722619D01*
X141170714Y-116598809D01*
X141201666Y-116536904D01*
X141263571Y-116475000D01*
X141356428Y-116444047D01*
X141418333Y-116444047D01*
X141511190Y-116475000D01*
X141542142Y-116505952D01*
X142811190Y-117032142D02*
X142842142Y-117063095D01*
X142811190Y-117094047D01*
X142780238Y-117063095D01*
X142811190Y-117032142D01*
X142811190Y-117094047D01*
X143120714Y-117094047D02*
X143120714Y-116444047D01*
X143492142Y-117094047D01*
X143492142Y-116444047D01*
X144173095Y-117032142D02*
X144142142Y-117063095D01*
X144049285Y-117094047D01*
X143987380Y-117094047D01*
X143894523Y-117063095D01*
X143832619Y-117001190D01*
X143801666Y-116939285D01*
X143770714Y-116815476D01*
X143770714Y-116722619D01*
X143801666Y-116598809D01*
X143832619Y-116536904D01*
X143894523Y-116475000D01*
X143987380Y-116444047D01*
X144049285Y-116444047D01*
X144142142Y-116475000D01*
X144173095Y-116505952D01*
X145380238Y-116444047D02*
X145782619Y-116444047D01*
X145565952Y-116691666D01*
X145658809Y-116691666D01*
X145720714Y-116722619D01*
X145751666Y-116753571D01*
X145782619Y-116815476D01*
X145782619Y-116970238D01*
X145751666Y-117032142D01*
X145720714Y-117063095D01*
X145658809Y-117094047D01*
X145473095Y-117094047D01*
X145411190Y-117063095D01*
X145380238Y-117032142D01*
X145968333Y-116444047D02*
X146185000Y-117094047D01*
X146401666Y-116444047D01*
X146556428Y-116444047D02*
X146958809Y-116444047D01*
X146742142Y-116691666D01*
X146835000Y-116691666D01*
X146896904Y-116722619D01*
X146927857Y-116753571D01*
X146958809Y-116815476D01*
X146958809Y-116970238D01*
X146927857Y-117032142D01*
X146896904Y-117063095D01*
X146835000Y-117094047D01*
X146649285Y-117094047D01*
X146587380Y-117063095D01*
X146556428Y-117032142D01*
X147732619Y-117094047D02*
X147732619Y-116444047D01*
X147980238Y-116444047D01*
X148042142Y-116475000D01*
X148073095Y-116505952D01*
X148104047Y-116567857D01*
X148104047Y-116660714D01*
X148073095Y-116722619D01*
X148042142Y-116753571D01*
X147980238Y-116784523D01*
X147732619Y-116784523D01*
X148351666Y-116908333D02*
X148661190Y-116908333D01*
X148289761Y-117094047D02*
X148506428Y-116444047D01*
X148723095Y-117094047D01*
X149063571Y-116444047D02*
X149125476Y-116444047D01*
X149187380Y-116475000D01*
X149218333Y-116505952D01*
X149249285Y-116567857D01*
X149280238Y-116691666D01*
X149280238Y-116846428D01*
X149249285Y-116970238D01*
X149218333Y-117032142D01*
X149187380Y-117063095D01*
X149125476Y-117094047D01*
X149063571Y-117094047D01*
X149001666Y-117063095D01*
X148970714Y-117032142D01*
X148939761Y-116970238D01*
X148908809Y-116846428D01*
X148908809Y-116691666D01*
X148939761Y-116567857D01*
X148970714Y-116505952D01*
X149001666Y-116475000D01*
X149063571Y-116444047D01*
X150054047Y-117094047D02*
X150054047Y-116444047D01*
X150301666Y-116444047D01*
X150363571Y-116475000D01*
X150394523Y-116505952D01*
X150425476Y-116567857D01*
X150425476Y-116660714D01*
X150394523Y-116722619D01*
X150363571Y-116753571D01*
X150301666Y-116784523D01*
X150054047Y-116784523D01*
X150673095Y-116908333D02*
X150982619Y-116908333D01*
X150611190Y-117094047D02*
X150827857Y-116444047D01*
X151044523Y-117094047D01*
X151230238Y-116505952D02*
X151261190Y-116475000D01*
X151323095Y-116444047D01*
X151477857Y-116444047D01*
X151539761Y-116475000D01*
X151570714Y-116505952D01*
X151601666Y-116567857D01*
X151601666Y-116629761D01*
X151570714Y-116722619D01*
X151199285Y-117094047D01*
X151601666Y-117094047D01*
X152375476Y-117094047D02*
X152375476Y-116444047D01*
X152623095Y-116444047D01*
X152685000Y-116475000D01*
X152715952Y-116505952D01*
X152746904Y-116567857D01*
X152746904Y-116660714D01*
X152715952Y-116722619D01*
X152685000Y-116753571D01*
X152623095Y-116784523D01*
X152375476Y-116784523D01*
X152994523Y-116908333D02*
X153304047Y-116908333D01*
X152932619Y-117094047D02*
X153149285Y-116444047D01*
X153365952Y-117094047D01*
X153861190Y-116660714D02*
X153861190Y-117094047D01*
X153706428Y-116413095D02*
X153551666Y-116877380D01*
X153954047Y-116877380D01*
X154696904Y-117094047D02*
X154696904Y-116444047D01*
X154944523Y-116444047D01*
X155006428Y-116475000D01*
X155037380Y-116505952D01*
X155068333Y-116567857D01*
X155068333Y-116660714D01*
X155037380Y-116722619D01*
X155006428Y-116753571D01*
X154944523Y-116784523D01*
X154696904Y-116784523D01*
X155315952Y-116908333D02*
X155625476Y-116908333D01*
X155254047Y-117094047D02*
X155470714Y-116444047D01*
X155687380Y-117094047D01*
X156182619Y-116444047D02*
X156058809Y-116444047D01*
X155996904Y-116475000D01*
X155965952Y-116505952D01*
X155904047Y-116598809D01*
X155873095Y-116722619D01*
X155873095Y-116970238D01*
X155904047Y-117032142D01*
X155935000Y-117063095D01*
X155996904Y-117094047D01*
X156120714Y-117094047D01*
X156182619Y-117063095D01*
X156213571Y-117032142D01*
X156244523Y-116970238D01*
X156244523Y-116815476D01*
X156213571Y-116753571D01*
X156182619Y-116722619D01*
X156120714Y-116691666D01*
X155996904Y-116691666D01*
X155935000Y-116722619D01*
X155904047Y-116753571D01*
X155873095Y-116815476D01*
X157018333Y-117094047D02*
X157018333Y-116444047D01*
X157265952Y-116444047D01*
X157327857Y-116475000D01*
X157358809Y-116505952D01*
X157389761Y-116567857D01*
X157389761Y-116660714D01*
X157358809Y-116722619D01*
X157327857Y-116753571D01*
X157265952Y-116784523D01*
X157018333Y-116784523D01*
X157637380Y-116908333D02*
X157946904Y-116908333D01*
X157575476Y-117094047D02*
X157792142Y-116444047D01*
X158008809Y-117094047D01*
X158318333Y-116722619D02*
X158256428Y-116691666D01*
X158225476Y-116660714D01*
X158194523Y-116598809D01*
X158194523Y-116567857D01*
X158225476Y-116505952D01*
X158256428Y-116475000D01*
X158318333Y-116444047D01*
X158442142Y-116444047D01*
X158504047Y-116475000D01*
X158535000Y-116505952D01*
X158565952Y-116567857D01*
X158565952Y-116598809D01*
X158535000Y-116660714D01*
X158504047Y-116691666D01*
X158442142Y-116722619D01*
X158318333Y-116722619D01*
X158256428Y-116753571D01*
X158225476Y-116784523D01*
X158194523Y-116846428D01*
X158194523Y-116970238D01*
X158225476Y-117032142D01*
X158256428Y-117063095D01*
X158318333Y-117094047D01*
X158442142Y-117094047D01*
X158504047Y-117063095D01*
X158535000Y-117032142D01*
X158565952Y-116970238D01*
X158565952Y-116846428D01*
X158535000Y-116784523D01*
X158504047Y-116753571D01*
X158442142Y-116722619D01*
X159339761Y-117094047D02*
X159339761Y-116444047D01*
X159587380Y-116444047D01*
X159649285Y-116475000D01*
X159680238Y-116505952D01*
X159711190Y-116567857D01*
X159711190Y-116660714D01*
X159680238Y-116722619D01*
X159649285Y-116753571D01*
X159587380Y-116784523D01*
X159339761Y-116784523D01*
X159958809Y-116908333D02*
X160268333Y-116908333D01*
X159896904Y-117094047D02*
X160113571Y-116444047D01*
X160330238Y-117094047D01*
X160887380Y-117094047D02*
X160515952Y-117094047D01*
X160701666Y-117094047D02*
X160701666Y-116444047D01*
X160639761Y-116536904D01*
X160577857Y-116598809D01*
X160515952Y-116629761D01*
X161289761Y-116444047D02*
X161351666Y-116444047D01*
X161413571Y-116475000D01*
X161444523Y-116505952D01*
X161475476Y-116567857D01*
X161506428Y-116691666D01*
X161506428Y-116846428D01*
X161475476Y-116970238D01*
X161444523Y-117032142D01*
X161413571Y-117063095D01*
X161351666Y-117094047D01*
X161289761Y-117094047D01*
X161227857Y-117063095D01*
X161196904Y-117032142D01*
X161165952Y-116970238D01*
X161135000Y-116846428D01*
X161135000Y-116691666D01*
X161165952Y-116567857D01*
X161196904Y-116505952D01*
X161227857Y-116475000D01*
X161289761Y-116444047D01*
X162280238Y-117094047D02*
X162280238Y-116444047D01*
X162527857Y-116444047D01*
X162589761Y-116475000D01*
X162620714Y-116505952D01*
X162651666Y-116567857D01*
X162651666Y-116660714D01*
X162620714Y-116722619D01*
X162589761Y-116753571D01*
X162527857Y-116784523D01*
X162280238Y-116784523D01*
X162899285Y-116908333D02*
X163208809Y-116908333D01*
X162837380Y-117094047D02*
X163054047Y-116444047D01*
X163270714Y-117094047D01*
X163827857Y-117094047D02*
X163456428Y-117094047D01*
X163642142Y-117094047D02*
X163642142Y-116444047D01*
X163580238Y-116536904D01*
X163518333Y-116598809D01*
X163456428Y-116629761D01*
X164075476Y-116505952D02*
X164106428Y-116475000D01*
X164168333Y-116444047D01*
X164323095Y-116444047D01*
X164385000Y-116475000D01*
X164415952Y-116505952D01*
X164446904Y-116567857D01*
X164446904Y-116629761D01*
X164415952Y-116722619D01*
X164044523Y-117094047D01*
X164446904Y-117094047D01*
X165220714Y-117094047D02*
X165220714Y-116444047D01*
X165468333Y-116444047D01*
X165530238Y-116475000D01*
X165561190Y-116505952D01*
X165592142Y-116567857D01*
X165592142Y-116660714D01*
X165561190Y-116722619D01*
X165530238Y-116753571D01*
X165468333Y-116784523D01*
X165220714Y-116784523D01*
X165839761Y-116908333D02*
X166149285Y-116908333D01*
X165777857Y-117094047D02*
X165994523Y-116444047D01*
X166211190Y-117094047D01*
X166768333Y-117094047D02*
X166396904Y-117094047D01*
X166582619Y-117094047D02*
X166582619Y-116444047D01*
X166520714Y-116536904D01*
X166458809Y-116598809D01*
X166396904Y-116629761D01*
X167325476Y-116660714D02*
X167325476Y-117094047D01*
X167170714Y-116413095D02*
X167015952Y-116877380D01*
X167418333Y-116877380D01*
X127869761Y-56924047D02*
X127869761Y-56274047D01*
X128117380Y-56274047D01*
X128179285Y-56305000D01*
X128210238Y-56335952D01*
X128241190Y-56397857D01*
X128241190Y-56490714D01*
X128210238Y-56552619D01*
X128179285Y-56583571D01*
X128117380Y-56614523D01*
X127869761Y-56614523D01*
X128891190Y-56862142D02*
X128860238Y-56893095D01*
X128767380Y-56924047D01*
X128705476Y-56924047D01*
X128612619Y-56893095D01*
X128550714Y-56831190D01*
X128519761Y-56769285D01*
X128488809Y-56645476D01*
X128488809Y-56552619D01*
X128519761Y-56428809D01*
X128550714Y-56366904D01*
X128612619Y-56305000D01*
X128705476Y-56274047D01*
X128767380Y-56274047D01*
X128860238Y-56305000D01*
X128891190Y-56335952D01*
X129510238Y-56924047D02*
X129138809Y-56924047D01*
X129324523Y-56924047D02*
X129324523Y-56274047D01*
X129262619Y-56366904D01*
X129200714Y-56428809D01*
X129138809Y-56459761D01*
X130098333Y-56274047D02*
X129788809Y-56274047D01*
X129757857Y-56583571D01*
X129788809Y-56552619D01*
X129850714Y-56521666D01*
X130005476Y-56521666D01*
X130067380Y-56552619D01*
X130098333Y-56583571D01*
X130129285Y-56645476D01*
X130129285Y-56800238D01*
X130098333Y-56862142D01*
X130067380Y-56893095D01*
X130005476Y-56924047D01*
X129850714Y-56924047D01*
X129788809Y-56893095D01*
X129757857Y-56862142D01*
X130903095Y-56924047D02*
X130903095Y-56274047D01*
X131150714Y-56274047D01*
X131212619Y-56305000D01*
X131243571Y-56335952D01*
X131274523Y-56397857D01*
X131274523Y-56490714D01*
X131243571Y-56552619D01*
X131212619Y-56583571D01*
X131150714Y-56614523D01*
X130903095Y-56614523D01*
X131924523Y-56862142D02*
X131893571Y-56893095D01*
X131800714Y-56924047D01*
X131738809Y-56924047D01*
X131645952Y-56893095D01*
X131584047Y-56831190D01*
X131553095Y-56769285D01*
X131522142Y-56645476D01*
X131522142Y-56552619D01*
X131553095Y-56428809D01*
X131584047Y-56366904D01*
X131645952Y-56305000D01*
X131738809Y-56274047D01*
X131800714Y-56274047D01*
X131893571Y-56305000D01*
X131924523Y-56335952D01*
X132543571Y-56924047D02*
X132172142Y-56924047D01*
X132357857Y-56924047D02*
X132357857Y-56274047D01*
X132295952Y-56366904D01*
X132234047Y-56428809D01*
X132172142Y-56459761D01*
X132760238Y-56274047D02*
X133162619Y-56274047D01*
X132945952Y-56521666D01*
X133038809Y-56521666D01*
X133100714Y-56552619D01*
X133131666Y-56583571D01*
X133162619Y-56645476D01*
X133162619Y-56800238D01*
X133131666Y-56862142D01*
X133100714Y-56893095D01*
X133038809Y-56924047D01*
X132853095Y-56924047D01*
X132791190Y-56893095D01*
X132760238Y-56862142D01*
X133936428Y-56924047D02*
X133936428Y-56274047D01*
X134184047Y-56274047D01*
X134245952Y-56305000D01*
X134276904Y-56335952D01*
X134307857Y-56397857D01*
X134307857Y-56490714D01*
X134276904Y-56552619D01*
X134245952Y-56583571D01*
X134184047Y-56614523D01*
X133936428Y-56614523D01*
X134957857Y-56862142D02*
X134926904Y-56893095D01*
X134834047Y-56924047D01*
X134772142Y-56924047D01*
X134679285Y-56893095D01*
X134617380Y-56831190D01*
X134586428Y-56769285D01*
X134555476Y-56645476D01*
X134555476Y-56552619D01*
X134586428Y-56428809D01*
X134617380Y-56366904D01*
X134679285Y-56305000D01*
X134772142Y-56274047D01*
X134834047Y-56274047D01*
X134926904Y-56305000D01*
X134957857Y-56335952D01*
X135576904Y-56924047D02*
X135205476Y-56924047D01*
X135391190Y-56924047D02*
X135391190Y-56274047D01*
X135329285Y-56366904D01*
X135267380Y-56428809D01*
X135205476Y-56459761D01*
X136195952Y-56924047D02*
X135824523Y-56924047D01*
X136010238Y-56924047D02*
X136010238Y-56274047D01*
X135948333Y-56366904D01*
X135886428Y-56428809D01*
X135824523Y-56459761D01*
X136969761Y-56924047D02*
X136969761Y-56274047D01*
X137217380Y-56274047D01*
X137279285Y-56305000D01*
X137310238Y-56335952D01*
X137341190Y-56397857D01*
X137341190Y-56490714D01*
X137310238Y-56552619D01*
X137279285Y-56583571D01*
X137217380Y-56614523D01*
X136969761Y-56614523D01*
X137991190Y-56862142D02*
X137960238Y-56893095D01*
X137867380Y-56924047D01*
X137805476Y-56924047D01*
X137712619Y-56893095D01*
X137650714Y-56831190D01*
X137619761Y-56769285D01*
X137588809Y-56645476D01*
X137588809Y-56552619D01*
X137619761Y-56428809D01*
X137650714Y-56366904D01*
X137712619Y-56305000D01*
X137805476Y-56274047D01*
X137867380Y-56274047D01*
X137960238Y-56305000D01*
X137991190Y-56335952D01*
X138300714Y-56924047D02*
X138424523Y-56924047D01*
X138486428Y-56893095D01*
X138517380Y-56862142D01*
X138579285Y-56769285D01*
X138610238Y-56645476D01*
X138610238Y-56397857D01*
X138579285Y-56335952D01*
X138548333Y-56305000D01*
X138486428Y-56274047D01*
X138362619Y-56274047D01*
X138300714Y-56305000D01*
X138269761Y-56335952D01*
X138238809Y-56397857D01*
X138238809Y-56552619D01*
X138269761Y-56614523D01*
X138300714Y-56645476D01*
X138362619Y-56676428D01*
X138486428Y-56676428D01*
X138548333Y-56645476D01*
X138579285Y-56614523D01*
X138610238Y-56552619D01*
X139384047Y-56924047D02*
X139384047Y-56274047D01*
X139631666Y-56274047D01*
X139693571Y-56305000D01*
X139724523Y-56335952D01*
X139755476Y-56397857D01*
X139755476Y-56490714D01*
X139724523Y-56552619D01*
X139693571Y-56583571D01*
X139631666Y-56614523D01*
X139384047Y-56614523D01*
X140405476Y-56862142D02*
X140374523Y-56893095D01*
X140281666Y-56924047D01*
X140219761Y-56924047D01*
X140126904Y-56893095D01*
X140065000Y-56831190D01*
X140034047Y-56769285D01*
X140003095Y-56645476D01*
X140003095Y-56552619D01*
X140034047Y-56428809D01*
X140065000Y-56366904D01*
X140126904Y-56305000D01*
X140219761Y-56274047D01*
X140281666Y-56274047D01*
X140374523Y-56305000D01*
X140405476Y-56335952D01*
X140622142Y-56274047D02*
X141055476Y-56274047D01*
X140776904Y-56924047D01*
X141798333Y-56924047D02*
X141798333Y-56274047D01*
X142045952Y-56274047D01*
X142107857Y-56305000D01*
X142138809Y-56335952D01*
X142169761Y-56397857D01*
X142169761Y-56490714D01*
X142138809Y-56552619D01*
X142107857Y-56583571D01*
X142045952Y-56614523D01*
X141798333Y-56614523D01*
X142819761Y-56862142D02*
X142788809Y-56893095D01*
X142695952Y-56924047D01*
X142634047Y-56924047D01*
X142541190Y-56893095D01*
X142479285Y-56831190D01*
X142448333Y-56769285D01*
X142417380Y-56645476D01*
X142417380Y-56552619D01*
X142448333Y-56428809D01*
X142479285Y-56366904D01*
X142541190Y-56305000D01*
X142634047Y-56274047D01*
X142695952Y-56274047D01*
X142788809Y-56305000D01*
X142819761Y-56335952D01*
X143407857Y-56274047D02*
X143098333Y-56274047D01*
X143067380Y-56583571D01*
X143098333Y-56552619D01*
X143160238Y-56521666D01*
X143315000Y-56521666D01*
X143376904Y-56552619D01*
X143407857Y-56583571D01*
X143438809Y-56645476D01*
X143438809Y-56800238D01*
X143407857Y-56862142D01*
X143376904Y-56893095D01*
X143315000Y-56924047D01*
X143160238Y-56924047D01*
X143098333Y-56893095D01*
X143067380Y-56862142D01*
X144212619Y-56924047D02*
X144212619Y-56274047D01*
X144460238Y-56274047D01*
X144522142Y-56305000D01*
X144553095Y-56335952D01*
X144584047Y-56397857D01*
X144584047Y-56490714D01*
X144553095Y-56552619D01*
X144522142Y-56583571D01*
X144460238Y-56614523D01*
X144212619Y-56614523D01*
X145234047Y-56862142D02*
X145203095Y-56893095D01*
X145110238Y-56924047D01*
X145048333Y-56924047D01*
X144955476Y-56893095D01*
X144893571Y-56831190D01*
X144862619Y-56769285D01*
X144831666Y-56645476D01*
X144831666Y-56552619D01*
X144862619Y-56428809D01*
X144893571Y-56366904D01*
X144955476Y-56305000D01*
X145048333Y-56274047D01*
X145110238Y-56274047D01*
X145203095Y-56305000D01*
X145234047Y-56335952D01*
X145450714Y-56274047D02*
X145853095Y-56274047D01*
X145636428Y-56521666D01*
X145729285Y-56521666D01*
X145791190Y-56552619D01*
X145822142Y-56583571D01*
X145853095Y-56645476D01*
X145853095Y-56800238D01*
X145822142Y-56862142D01*
X145791190Y-56893095D01*
X145729285Y-56924047D01*
X145543571Y-56924047D01*
X145481666Y-56893095D01*
X145450714Y-56862142D01*
X146626904Y-56924047D02*
X146626904Y-56274047D01*
X146874523Y-56274047D01*
X146936428Y-56305000D01*
X146967380Y-56335952D01*
X146998333Y-56397857D01*
X146998333Y-56490714D01*
X146967380Y-56552619D01*
X146936428Y-56583571D01*
X146874523Y-56614523D01*
X146626904Y-56614523D01*
X147648333Y-56862142D02*
X147617380Y-56893095D01*
X147524523Y-56924047D01*
X147462619Y-56924047D01*
X147369761Y-56893095D01*
X147307857Y-56831190D01*
X147276904Y-56769285D01*
X147245952Y-56645476D01*
X147245952Y-56552619D01*
X147276904Y-56428809D01*
X147307857Y-56366904D01*
X147369761Y-56305000D01*
X147462619Y-56274047D01*
X147524523Y-56274047D01*
X147617380Y-56305000D01*
X147648333Y-56335952D01*
X148267380Y-56924047D02*
X147895952Y-56924047D01*
X148081666Y-56924047D02*
X148081666Y-56274047D01*
X148019761Y-56366904D01*
X147957857Y-56428809D01*
X147895952Y-56459761D01*
X149041190Y-56924047D02*
X149041190Y-56274047D01*
X149288809Y-56274047D01*
X149350714Y-56305000D01*
X149381666Y-56335952D01*
X149412619Y-56397857D01*
X149412619Y-56490714D01*
X149381666Y-56552619D01*
X149350714Y-56583571D01*
X149288809Y-56614523D01*
X149041190Y-56614523D01*
X149907857Y-56583571D02*
X150000714Y-56614523D01*
X150031666Y-56645476D01*
X150062619Y-56707380D01*
X150062619Y-56800238D01*
X150031666Y-56862142D01*
X150000714Y-56893095D01*
X149938809Y-56924047D01*
X149691190Y-56924047D01*
X149691190Y-56274047D01*
X149907857Y-56274047D01*
X149969761Y-56305000D01*
X150000714Y-56335952D01*
X150031666Y-56397857D01*
X150031666Y-56459761D01*
X150000714Y-56521666D01*
X149969761Y-56552619D01*
X149907857Y-56583571D01*
X149691190Y-56583571D01*
X150465000Y-56274047D02*
X150526904Y-56274047D01*
X150588809Y-56305000D01*
X150619761Y-56335952D01*
X150650714Y-56397857D01*
X150681666Y-56521666D01*
X150681666Y-56676428D01*
X150650714Y-56800238D01*
X150619761Y-56862142D01*
X150588809Y-56893095D01*
X150526904Y-56924047D01*
X150465000Y-56924047D01*
X150403095Y-56893095D01*
X150372142Y-56862142D01*
X150341190Y-56800238D01*
X150310238Y-56676428D01*
X150310238Y-56521666D01*
X150341190Y-56397857D01*
X150372142Y-56335952D01*
X150403095Y-56305000D01*
X150465000Y-56274047D01*
X151455476Y-56924047D02*
X151455476Y-56274047D01*
X151703095Y-56274047D01*
X151765000Y-56305000D01*
X151795952Y-56335952D01*
X151826904Y-56397857D01*
X151826904Y-56490714D01*
X151795952Y-56552619D01*
X151765000Y-56583571D01*
X151703095Y-56614523D01*
X151455476Y-56614523D01*
X152322142Y-56583571D02*
X152415000Y-56614523D01*
X152445952Y-56645476D01*
X152476904Y-56707380D01*
X152476904Y-56800238D01*
X152445952Y-56862142D01*
X152415000Y-56893095D01*
X152353095Y-56924047D01*
X152105476Y-56924047D01*
X152105476Y-56274047D01*
X152322142Y-56274047D01*
X152384047Y-56305000D01*
X152415000Y-56335952D01*
X152445952Y-56397857D01*
X152445952Y-56459761D01*
X152415000Y-56521666D01*
X152384047Y-56552619D01*
X152322142Y-56583571D01*
X152105476Y-56583571D01*
X152724523Y-56335952D02*
X152755476Y-56305000D01*
X152817380Y-56274047D01*
X152972142Y-56274047D01*
X153034047Y-56305000D01*
X153065000Y-56335952D01*
X153095952Y-56397857D01*
X153095952Y-56459761D01*
X153065000Y-56552619D01*
X152693571Y-56924047D01*
X153095952Y-56924047D01*
X153869761Y-56924047D02*
X153869761Y-56274047D01*
X154117380Y-56274047D01*
X154179285Y-56305000D01*
X154210238Y-56335952D01*
X154241190Y-56397857D01*
X154241190Y-56490714D01*
X154210238Y-56552619D01*
X154179285Y-56583571D01*
X154117380Y-56614523D01*
X153869761Y-56614523D01*
X154736428Y-56583571D02*
X154829285Y-56614523D01*
X154860238Y-56645476D01*
X154891190Y-56707380D01*
X154891190Y-56800238D01*
X154860238Y-56862142D01*
X154829285Y-56893095D01*
X154767380Y-56924047D01*
X154519761Y-56924047D01*
X154519761Y-56274047D01*
X154736428Y-56274047D01*
X154798333Y-56305000D01*
X154829285Y-56335952D01*
X154860238Y-56397857D01*
X154860238Y-56459761D01*
X154829285Y-56521666D01*
X154798333Y-56552619D01*
X154736428Y-56583571D01*
X154519761Y-56583571D01*
X155448333Y-56490714D02*
X155448333Y-56924047D01*
X155293571Y-56243095D02*
X155138809Y-56707380D01*
X155541190Y-56707380D01*
X156284047Y-56924047D02*
X156284047Y-56274047D01*
X156531666Y-56274047D01*
X156593571Y-56305000D01*
X156624523Y-56335952D01*
X156655476Y-56397857D01*
X156655476Y-56490714D01*
X156624523Y-56552619D01*
X156593571Y-56583571D01*
X156531666Y-56614523D01*
X156284047Y-56614523D01*
X157150714Y-56583571D02*
X157243571Y-56614523D01*
X157274523Y-56645476D01*
X157305476Y-56707380D01*
X157305476Y-56800238D01*
X157274523Y-56862142D01*
X157243571Y-56893095D01*
X157181666Y-56924047D01*
X156934047Y-56924047D01*
X156934047Y-56274047D01*
X157150714Y-56274047D01*
X157212619Y-56305000D01*
X157243571Y-56335952D01*
X157274523Y-56397857D01*
X157274523Y-56459761D01*
X157243571Y-56521666D01*
X157212619Y-56552619D01*
X157150714Y-56583571D01*
X156934047Y-56583571D01*
X157862619Y-56274047D02*
X157738809Y-56274047D01*
X157676904Y-56305000D01*
X157645952Y-56335952D01*
X157584047Y-56428809D01*
X157553095Y-56552619D01*
X157553095Y-56800238D01*
X157584047Y-56862142D01*
X157615000Y-56893095D01*
X157676904Y-56924047D01*
X157800714Y-56924047D01*
X157862619Y-56893095D01*
X157893571Y-56862142D01*
X157924523Y-56800238D01*
X157924523Y-56645476D01*
X157893571Y-56583571D01*
X157862619Y-56552619D01*
X157800714Y-56521666D01*
X157676904Y-56521666D01*
X157615000Y-56552619D01*
X157584047Y-56583571D01*
X157553095Y-56645476D01*
X158698333Y-56924047D02*
X158698333Y-56274047D01*
X158945952Y-56274047D01*
X159007857Y-56305000D01*
X159038809Y-56335952D01*
X159069761Y-56397857D01*
X159069761Y-56490714D01*
X159038809Y-56552619D01*
X159007857Y-56583571D01*
X158945952Y-56614523D01*
X158698333Y-56614523D01*
X159565000Y-56583571D02*
X159657857Y-56614523D01*
X159688809Y-56645476D01*
X159719761Y-56707380D01*
X159719761Y-56800238D01*
X159688809Y-56862142D01*
X159657857Y-56893095D01*
X159595952Y-56924047D01*
X159348333Y-56924047D01*
X159348333Y-56274047D01*
X159565000Y-56274047D01*
X159626904Y-56305000D01*
X159657857Y-56335952D01*
X159688809Y-56397857D01*
X159688809Y-56459761D01*
X159657857Y-56521666D01*
X159626904Y-56552619D01*
X159565000Y-56583571D01*
X159348333Y-56583571D01*
X160091190Y-56552619D02*
X160029285Y-56521666D01*
X159998333Y-56490714D01*
X159967380Y-56428809D01*
X159967380Y-56397857D01*
X159998333Y-56335952D01*
X160029285Y-56305000D01*
X160091190Y-56274047D01*
X160215000Y-56274047D01*
X160276904Y-56305000D01*
X160307857Y-56335952D01*
X160338809Y-56397857D01*
X160338809Y-56428809D01*
X160307857Y-56490714D01*
X160276904Y-56521666D01*
X160215000Y-56552619D01*
X160091190Y-56552619D01*
X160029285Y-56583571D01*
X159998333Y-56614523D01*
X159967380Y-56676428D01*
X159967380Y-56800238D01*
X159998333Y-56862142D01*
X160029285Y-56893095D01*
X160091190Y-56924047D01*
X160215000Y-56924047D01*
X160276904Y-56893095D01*
X160307857Y-56862142D01*
X160338809Y-56800238D01*
X160338809Y-56676428D01*
X160307857Y-56614523D01*
X160276904Y-56583571D01*
X160215000Y-56552619D01*
X161112619Y-56924047D02*
X161112619Y-56274047D01*
X161360238Y-56274047D01*
X161422142Y-56305000D01*
X161453095Y-56335952D01*
X161484047Y-56397857D01*
X161484047Y-56490714D01*
X161453095Y-56552619D01*
X161422142Y-56583571D01*
X161360238Y-56614523D01*
X161112619Y-56614523D01*
X161979285Y-56583571D02*
X162072142Y-56614523D01*
X162103095Y-56645476D01*
X162134047Y-56707380D01*
X162134047Y-56800238D01*
X162103095Y-56862142D01*
X162072142Y-56893095D01*
X162010238Y-56924047D01*
X161762619Y-56924047D01*
X161762619Y-56274047D01*
X161979285Y-56274047D01*
X162041190Y-56305000D01*
X162072142Y-56335952D01*
X162103095Y-56397857D01*
X162103095Y-56459761D01*
X162072142Y-56521666D01*
X162041190Y-56552619D01*
X161979285Y-56583571D01*
X161762619Y-56583571D01*
X162753095Y-56924047D02*
X162381666Y-56924047D01*
X162567380Y-56924047D02*
X162567380Y-56274047D01*
X162505476Y-56366904D01*
X162443571Y-56428809D01*
X162381666Y-56459761D01*
X163155476Y-56274047D02*
X163217380Y-56274047D01*
X163279285Y-56305000D01*
X163310238Y-56335952D01*
X163341190Y-56397857D01*
X163372142Y-56521666D01*
X163372142Y-56676428D01*
X163341190Y-56800238D01*
X163310238Y-56862142D01*
X163279285Y-56893095D01*
X163217380Y-56924047D01*
X163155476Y-56924047D01*
X163093571Y-56893095D01*
X163062619Y-56862142D01*
X163031666Y-56800238D01*
X163000714Y-56676428D01*
X163000714Y-56521666D01*
X163031666Y-56397857D01*
X163062619Y-56335952D01*
X163093571Y-56305000D01*
X163155476Y-56274047D01*
X164145952Y-56924047D02*
X164145952Y-56274047D01*
X164393571Y-56274047D01*
X164455476Y-56305000D01*
X164486428Y-56335952D01*
X164517380Y-56397857D01*
X164517380Y-56490714D01*
X164486428Y-56552619D01*
X164455476Y-56583571D01*
X164393571Y-56614523D01*
X164145952Y-56614523D01*
X165012619Y-56583571D02*
X165105476Y-56614523D01*
X165136428Y-56645476D01*
X165167380Y-56707380D01*
X165167380Y-56800238D01*
X165136428Y-56862142D01*
X165105476Y-56893095D01*
X165043571Y-56924047D01*
X164795952Y-56924047D01*
X164795952Y-56274047D01*
X165012619Y-56274047D01*
X165074523Y-56305000D01*
X165105476Y-56335952D01*
X165136428Y-56397857D01*
X165136428Y-56459761D01*
X165105476Y-56521666D01*
X165074523Y-56552619D01*
X165012619Y-56583571D01*
X164795952Y-56583571D01*
X165786428Y-56924047D02*
X165415000Y-56924047D01*
X165600714Y-56924047D02*
X165600714Y-56274047D01*
X165538809Y-56366904D01*
X165476904Y-56428809D01*
X165415000Y-56459761D01*
X166003095Y-56274047D02*
X166405476Y-56274047D01*
X166188809Y-56521666D01*
X166281666Y-56521666D01*
X166343571Y-56552619D01*
X166374523Y-56583571D01*
X166405476Y-56645476D01*
X166405476Y-56800238D01*
X166374523Y-56862142D01*
X166343571Y-56893095D01*
X166281666Y-56924047D01*
X166095952Y-56924047D01*
X166034047Y-56893095D01*
X166003095Y-56862142D01*
X167179285Y-56924047D02*
X167179285Y-56274047D01*
X167426904Y-56274047D01*
X167488809Y-56305000D01*
X167519761Y-56335952D01*
X167550714Y-56397857D01*
X167550714Y-56490714D01*
X167519761Y-56552619D01*
X167488809Y-56583571D01*
X167426904Y-56614523D01*
X167179285Y-56614523D01*
X168045952Y-56583571D02*
X168138809Y-56614523D01*
X168169761Y-56645476D01*
X168200714Y-56707380D01*
X168200714Y-56800238D01*
X168169761Y-56862142D01*
X168138809Y-56893095D01*
X168076904Y-56924047D01*
X167829285Y-56924047D01*
X167829285Y-56274047D01*
X168045952Y-56274047D01*
X168107857Y-56305000D01*
X168138809Y-56335952D01*
X168169761Y-56397857D01*
X168169761Y-56459761D01*
X168138809Y-56521666D01*
X168107857Y-56552619D01*
X168045952Y-56583571D01*
X167829285Y-56583571D01*
X168819761Y-56924047D02*
X168448333Y-56924047D01*
X168634047Y-56924047D02*
X168634047Y-56274047D01*
X168572142Y-56366904D01*
X168510238Y-56428809D01*
X168448333Y-56459761D01*
X169407857Y-56274047D02*
X169098333Y-56274047D01*
X169067380Y-56583571D01*
X169098333Y-56552619D01*
X169160238Y-56521666D01*
X169315000Y-56521666D01*
X169376904Y-56552619D01*
X169407857Y-56583571D01*
X169438809Y-56645476D01*
X169438809Y-56800238D01*
X169407857Y-56862142D01*
X169376904Y-56893095D01*
X169315000Y-56924047D01*
X169160238Y-56924047D01*
X169098333Y-56893095D01*
X169067380Y-56862142D01*
X127769761Y-63094047D02*
X127769761Y-62444047D01*
X128017380Y-62444047D01*
X128079285Y-62475000D01*
X128110238Y-62505952D01*
X128141190Y-62567857D01*
X128141190Y-62660714D01*
X128110238Y-62722619D01*
X128079285Y-62753571D01*
X128017380Y-62784523D01*
X127769761Y-62784523D01*
X128791190Y-63032142D02*
X128760238Y-63063095D01*
X128667380Y-63094047D01*
X128605476Y-63094047D01*
X128512619Y-63063095D01*
X128450714Y-63001190D01*
X128419761Y-62939285D01*
X128388809Y-62815476D01*
X128388809Y-62722619D01*
X128419761Y-62598809D01*
X128450714Y-62536904D01*
X128512619Y-62475000D01*
X128605476Y-62444047D01*
X128667380Y-62444047D01*
X128760238Y-62475000D01*
X128791190Y-62505952D01*
X129410238Y-63094047D02*
X129038809Y-63094047D01*
X129224523Y-63094047D02*
X129224523Y-62444047D01*
X129162619Y-62536904D01*
X129100714Y-62598809D01*
X129038809Y-62629761D01*
X129967380Y-62660714D02*
X129967380Y-63094047D01*
X129812619Y-62413095D02*
X129657857Y-62877380D01*
X130060238Y-62877380D01*
X130803095Y-63094047D02*
X130803095Y-62444047D01*
X131050714Y-62444047D01*
X131112619Y-62475000D01*
X131143571Y-62505952D01*
X131174523Y-62567857D01*
X131174523Y-62660714D01*
X131143571Y-62722619D01*
X131112619Y-62753571D01*
X131050714Y-62784523D01*
X130803095Y-62784523D01*
X131824523Y-63032142D02*
X131793571Y-63063095D01*
X131700714Y-63094047D01*
X131638809Y-63094047D01*
X131545952Y-63063095D01*
X131484047Y-63001190D01*
X131453095Y-62939285D01*
X131422142Y-62815476D01*
X131422142Y-62722619D01*
X131453095Y-62598809D01*
X131484047Y-62536904D01*
X131545952Y-62475000D01*
X131638809Y-62444047D01*
X131700714Y-62444047D01*
X131793571Y-62475000D01*
X131824523Y-62505952D01*
X132443571Y-63094047D02*
X132072142Y-63094047D01*
X132257857Y-63094047D02*
X132257857Y-62444047D01*
X132195952Y-62536904D01*
X132134047Y-62598809D01*
X132072142Y-62629761D01*
X132691190Y-62505952D02*
X132722142Y-62475000D01*
X132784047Y-62444047D01*
X132938809Y-62444047D01*
X133000714Y-62475000D01*
X133031666Y-62505952D01*
X133062619Y-62567857D01*
X133062619Y-62629761D01*
X133031666Y-62722619D01*
X132660238Y-63094047D01*
X133062619Y-63094047D01*
X133836428Y-63094047D02*
X133836428Y-62444047D01*
X134084047Y-62444047D01*
X134145952Y-62475000D01*
X134176904Y-62505952D01*
X134207857Y-62567857D01*
X134207857Y-62660714D01*
X134176904Y-62722619D01*
X134145952Y-62753571D01*
X134084047Y-62784523D01*
X133836428Y-62784523D01*
X134857857Y-63032142D02*
X134826904Y-63063095D01*
X134734047Y-63094047D01*
X134672142Y-63094047D01*
X134579285Y-63063095D01*
X134517380Y-63001190D01*
X134486428Y-62939285D01*
X134455476Y-62815476D01*
X134455476Y-62722619D01*
X134486428Y-62598809D01*
X134517380Y-62536904D01*
X134579285Y-62475000D01*
X134672142Y-62444047D01*
X134734047Y-62444047D01*
X134826904Y-62475000D01*
X134857857Y-62505952D01*
X135476904Y-63094047D02*
X135105476Y-63094047D01*
X135291190Y-63094047D02*
X135291190Y-62444047D01*
X135229285Y-62536904D01*
X135167380Y-62598809D01*
X135105476Y-62629761D01*
X135879285Y-62444047D02*
X135941190Y-62444047D01*
X136003095Y-62475000D01*
X136034047Y-62505952D01*
X136065000Y-62567857D01*
X136095952Y-62691666D01*
X136095952Y-62846428D01*
X136065000Y-62970238D01*
X136034047Y-63032142D01*
X136003095Y-63063095D01*
X135941190Y-63094047D01*
X135879285Y-63094047D01*
X135817380Y-63063095D01*
X135786428Y-63032142D01*
X135755476Y-62970238D01*
X135724523Y-62846428D01*
X135724523Y-62691666D01*
X135755476Y-62567857D01*
X135786428Y-62505952D01*
X135817380Y-62475000D01*
X135879285Y-62444047D01*
X136869761Y-63094047D02*
X136869761Y-62444047D01*
X137117380Y-62444047D01*
X137179285Y-62475000D01*
X137210238Y-62505952D01*
X137241190Y-62567857D01*
X137241190Y-62660714D01*
X137210238Y-62722619D01*
X137179285Y-62753571D01*
X137117380Y-62784523D01*
X136869761Y-62784523D01*
X137891190Y-63032142D02*
X137860238Y-63063095D01*
X137767380Y-63094047D01*
X137705476Y-63094047D01*
X137612619Y-63063095D01*
X137550714Y-63001190D01*
X137519761Y-62939285D01*
X137488809Y-62815476D01*
X137488809Y-62722619D01*
X137519761Y-62598809D01*
X137550714Y-62536904D01*
X137612619Y-62475000D01*
X137705476Y-62444047D01*
X137767380Y-62444047D01*
X137860238Y-62475000D01*
X137891190Y-62505952D01*
X138262619Y-62722619D02*
X138200714Y-62691666D01*
X138169761Y-62660714D01*
X138138809Y-62598809D01*
X138138809Y-62567857D01*
X138169761Y-62505952D01*
X138200714Y-62475000D01*
X138262619Y-62444047D01*
X138386428Y-62444047D01*
X138448333Y-62475000D01*
X138479285Y-62505952D01*
X138510238Y-62567857D01*
X138510238Y-62598809D01*
X138479285Y-62660714D01*
X138448333Y-62691666D01*
X138386428Y-62722619D01*
X138262619Y-62722619D01*
X138200714Y-62753571D01*
X138169761Y-62784523D01*
X138138809Y-62846428D01*
X138138809Y-62970238D01*
X138169761Y-63032142D01*
X138200714Y-63063095D01*
X138262619Y-63094047D01*
X138386428Y-63094047D01*
X138448333Y-63063095D01*
X138479285Y-63032142D01*
X138510238Y-62970238D01*
X138510238Y-62846428D01*
X138479285Y-62784523D01*
X138448333Y-62753571D01*
X138386428Y-62722619D01*
X139284047Y-63094047D02*
X139284047Y-62444047D01*
X139531666Y-62444047D01*
X139593571Y-62475000D01*
X139624523Y-62505952D01*
X139655476Y-62567857D01*
X139655476Y-62660714D01*
X139624523Y-62722619D01*
X139593571Y-62753571D01*
X139531666Y-62784523D01*
X139284047Y-62784523D01*
X140305476Y-63032142D02*
X140274523Y-63063095D01*
X140181666Y-63094047D01*
X140119761Y-63094047D01*
X140026904Y-63063095D01*
X139965000Y-63001190D01*
X139934047Y-62939285D01*
X139903095Y-62815476D01*
X139903095Y-62722619D01*
X139934047Y-62598809D01*
X139965000Y-62536904D01*
X140026904Y-62475000D01*
X140119761Y-62444047D01*
X140181666Y-62444047D01*
X140274523Y-62475000D01*
X140305476Y-62505952D01*
X140862619Y-62444047D02*
X140738809Y-62444047D01*
X140676904Y-62475000D01*
X140645952Y-62505952D01*
X140584047Y-62598809D01*
X140553095Y-62722619D01*
X140553095Y-62970238D01*
X140584047Y-63032142D01*
X140615000Y-63063095D01*
X140676904Y-63094047D01*
X140800714Y-63094047D01*
X140862619Y-63063095D01*
X140893571Y-63032142D01*
X140924523Y-62970238D01*
X140924523Y-62815476D01*
X140893571Y-62753571D01*
X140862619Y-62722619D01*
X140800714Y-62691666D01*
X140676904Y-62691666D01*
X140615000Y-62722619D01*
X140584047Y-62753571D01*
X140553095Y-62815476D01*
X141698333Y-63094047D02*
X141698333Y-62444047D01*
X141945952Y-62444047D01*
X142007857Y-62475000D01*
X142038809Y-62505952D01*
X142069761Y-62567857D01*
X142069761Y-62660714D01*
X142038809Y-62722619D01*
X142007857Y-62753571D01*
X141945952Y-62784523D01*
X141698333Y-62784523D01*
X142719761Y-63032142D02*
X142688809Y-63063095D01*
X142595952Y-63094047D01*
X142534047Y-63094047D01*
X142441190Y-63063095D01*
X142379285Y-63001190D01*
X142348333Y-62939285D01*
X142317380Y-62815476D01*
X142317380Y-62722619D01*
X142348333Y-62598809D01*
X142379285Y-62536904D01*
X142441190Y-62475000D01*
X142534047Y-62444047D01*
X142595952Y-62444047D01*
X142688809Y-62475000D01*
X142719761Y-62505952D01*
X143276904Y-62660714D02*
X143276904Y-63094047D01*
X143122142Y-62413095D02*
X142967380Y-62877380D01*
X143369761Y-62877380D01*
X144112619Y-63094047D02*
X144112619Y-62444047D01*
X144360238Y-62444047D01*
X144422142Y-62475000D01*
X144453095Y-62505952D01*
X144484047Y-62567857D01*
X144484047Y-62660714D01*
X144453095Y-62722619D01*
X144422142Y-62753571D01*
X144360238Y-62784523D01*
X144112619Y-62784523D01*
X145134047Y-63032142D02*
X145103095Y-63063095D01*
X145010238Y-63094047D01*
X144948333Y-63094047D01*
X144855476Y-63063095D01*
X144793571Y-63001190D01*
X144762619Y-62939285D01*
X144731666Y-62815476D01*
X144731666Y-62722619D01*
X144762619Y-62598809D01*
X144793571Y-62536904D01*
X144855476Y-62475000D01*
X144948333Y-62444047D01*
X145010238Y-62444047D01*
X145103095Y-62475000D01*
X145134047Y-62505952D01*
X145381666Y-62505952D02*
X145412619Y-62475000D01*
X145474523Y-62444047D01*
X145629285Y-62444047D01*
X145691190Y-62475000D01*
X145722142Y-62505952D01*
X145753095Y-62567857D01*
X145753095Y-62629761D01*
X145722142Y-62722619D01*
X145350714Y-63094047D01*
X145753095Y-63094047D01*
X146526904Y-63094047D02*
X146526904Y-62444047D01*
X146774523Y-62444047D01*
X146836428Y-62475000D01*
X146867380Y-62505952D01*
X146898333Y-62567857D01*
X146898333Y-62660714D01*
X146867380Y-62722619D01*
X146836428Y-62753571D01*
X146774523Y-62784523D01*
X146526904Y-62784523D01*
X147548333Y-63032142D02*
X147517380Y-63063095D01*
X147424523Y-63094047D01*
X147362619Y-63094047D01*
X147269761Y-63063095D01*
X147207857Y-63001190D01*
X147176904Y-62939285D01*
X147145952Y-62815476D01*
X147145952Y-62722619D01*
X147176904Y-62598809D01*
X147207857Y-62536904D01*
X147269761Y-62475000D01*
X147362619Y-62444047D01*
X147424523Y-62444047D01*
X147517380Y-62475000D01*
X147548333Y-62505952D01*
X147950714Y-62444047D02*
X148012619Y-62444047D01*
X148074523Y-62475000D01*
X148105476Y-62505952D01*
X148136428Y-62567857D01*
X148167380Y-62691666D01*
X148167380Y-62846428D01*
X148136428Y-62970238D01*
X148105476Y-63032142D01*
X148074523Y-63063095D01*
X148012619Y-63094047D01*
X147950714Y-63094047D01*
X147888809Y-63063095D01*
X147857857Y-63032142D01*
X147826904Y-62970238D01*
X147795952Y-62846428D01*
X147795952Y-62691666D01*
X147826904Y-62567857D01*
X147857857Y-62505952D01*
X147888809Y-62475000D01*
X147950714Y-62444047D01*
X148941190Y-63094047D02*
X148941190Y-62444047D01*
X149188809Y-62444047D01*
X149250714Y-62475000D01*
X149281666Y-62505952D01*
X149312619Y-62567857D01*
X149312619Y-62660714D01*
X149281666Y-62722619D01*
X149250714Y-62753571D01*
X149188809Y-62784523D01*
X148941190Y-62784523D01*
X149807857Y-62753571D02*
X149900714Y-62784523D01*
X149931666Y-62815476D01*
X149962619Y-62877380D01*
X149962619Y-62970238D01*
X149931666Y-63032142D01*
X149900714Y-63063095D01*
X149838809Y-63094047D01*
X149591190Y-63094047D01*
X149591190Y-62444047D01*
X149807857Y-62444047D01*
X149869761Y-62475000D01*
X149900714Y-62505952D01*
X149931666Y-62567857D01*
X149931666Y-62629761D01*
X149900714Y-62691666D01*
X149869761Y-62722619D01*
X149807857Y-62753571D01*
X149591190Y-62753571D01*
X150581666Y-63094047D02*
X150210238Y-63094047D01*
X150395952Y-63094047D02*
X150395952Y-62444047D01*
X150334047Y-62536904D01*
X150272142Y-62598809D01*
X150210238Y-62629761D01*
X151355476Y-63094047D02*
X151355476Y-62444047D01*
X151603095Y-62444047D01*
X151665000Y-62475000D01*
X151695952Y-62505952D01*
X151726904Y-62567857D01*
X151726904Y-62660714D01*
X151695952Y-62722619D01*
X151665000Y-62753571D01*
X151603095Y-62784523D01*
X151355476Y-62784523D01*
X152222142Y-62753571D02*
X152315000Y-62784523D01*
X152345952Y-62815476D01*
X152376904Y-62877380D01*
X152376904Y-62970238D01*
X152345952Y-63032142D01*
X152315000Y-63063095D01*
X152253095Y-63094047D01*
X152005476Y-63094047D01*
X152005476Y-62444047D01*
X152222142Y-62444047D01*
X152284047Y-62475000D01*
X152315000Y-62505952D01*
X152345952Y-62567857D01*
X152345952Y-62629761D01*
X152315000Y-62691666D01*
X152284047Y-62722619D01*
X152222142Y-62753571D01*
X152005476Y-62753571D01*
X152593571Y-62444047D02*
X152995952Y-62444047D01*
X152779285Y-62691666D01*
X152872142Y-62691666D01*
X152934047Y-62722619D01*
X152965000Y-62753571D01*
X152995952Y-62815476D01*
X152995952Y-62970238D01*
X152965000Y-63032142D01*
X152934047Y-63063095D01*
X152872142Y-63094047D01*
X152686428Y-63094047D01*
X152624523Y-63063095D01*
X152593571Y-63032142D01*
X153769761Y-63094047D02*
X153769761Y-62444047D01*
X154017380Y-62444047D01*
X154079285Y-62475000D01*
X154110238Y-62505952D01*
X154141190Y-62567857D01*
X154141190Y-62660714D01*
X154110238Y-62722619D01*
X154079285Y-62753571D01*
X154017380Y-62784523D01*
X153769761Y-62784523D01*
X154636428Y-62753571D02*
X154729285Y-62784523D01*
X154760238Y-62815476D01*
X154791190Y-62877380D01*
X154791190Y-62970238D01*
X154760238Y-63032142D01*
X154729285Y-63063095D01*
X154667380Y-63094047D01*
X154419761Y-63094047D01*
X154419761Y-62444047D01*
X154636428Y-62444047D01*
X154698333Y-62475000D01*
X154729285Y-62505952D01*
X154760238Y-62567857D01*
X154760238Y-62629761D01*
X154729285Y-62691666D01*
X154698333Y-62722619D01*
X154636428Y-62753571D01*
X154419761Y-62753571D01*
X155379285Y-62444047D02*
X155069761Y-62444047D01*
X155038809Y-62753571D01*
X155069761Y-62722619D01*
X155131666Y-62691666D01*
X155286428Y-62691666D01*
X155348333Y-62722619D01*
X155379285Y-62753571D01*
X155410238Y-62815476D01*
X155410238Y-62970238D01*
X155379285Y-63032142D01*
X155348333Y-63063095D01*
X155286428Y-63094047D01*
X155131666Y-63094047D01*
X155069761Y-63063095D01*
X155038809Y-63032142D01*
X156184047Y-63094047D02*
X156184047Y-62444047D01*
X156431666Y-62444047D01*
X156493571Y-62475000D01*
X156524523Y-62505952D01*
X156555476Y-62567857D01*
X156555476Y-62660714D01*
X156524523Y-62722619D01*
X156493571Y-62753571D01*
X156431666Y-62784523D01*
X156184047Y-62784523D01*
X157050714Y-62753571D02*
X157143571Y-62784523D01*
X157174523Y-62815476D01*
X157205476Y-62877380D01*
X157205476Y-62970238D01*
X157174523Y-63032142D01*
X157143571Y-63063095D01*
X157081666Y-63094047D01*
X156834047Y-63094047D01*
X156834047Y-62444047D01*
X157050714Y-62444047D01*
X157112619Y-62475000D01*
X157143571Y-62505952D01*
X157174523Y-62567857D01*
X157174523Y-62629761D01*
X157143571Y-62691666D01*
X157112619Y-62722619D01*
X157050714Y-62753571D01*
X156834047Y-62753571D01*
X157422142Y-62444047D02*
X157855476Y-62444047D01*
X157576904Y-63094047D01*
X158598333Y-63094047D02*
X158598333Y-62444047D01*
X158845952Y-62444047D01*
X158907857Y-62475000D01*
X158938809Y-62505952D01*
X158969761Y-62567857D01*
X158969761Y-62660714D01*
X158938809Y-62722619D01*
X158907857Y-62753571D01*
X158845952Y-62784523D01*
X158598333Y-62784523D01*
X159465000Y-62753571D02*
X159557857Y-62784523D01*
X159588809Y-62815476D01*
X159619761Y-62877380D01*
X159619761Y-62970238D01*
X159588809Y-63032142D01*
X159557857Y-63063095D01*
X159495952Y-63094047D01*
X159248333Y-63094047D01*
X159248333Y-62444047D01*
X159465000Y-62444047D01*
X159526904Y-62475000D01*
X159557857Y-62505952D01*
X159588809Y-62567857D01*
X159588809Y-62629761D01*
X159557857Y-62691666D01*
X159526904Y-62722619D01*
X159465000Y-62753571D01*
X159248333Y-62753571D01*
X159929285Y-63094047D02*
X160053095Y-63094047D01*
X160115000Y-63063095D01*
X160145952Y-63032142D01*
X160207857Y-62939285D01*
X160238809Y-62815476D01*
X160238809Y-62567857D01*
X160207857Y-62505952D01*
X160176904Y-62475000D01*
X160115000Y-62444047D01*
X159991190Y-62444047D01*
X159929285Y-62475000D01*
X159898333Y-62505952D01*
X159867380Y-62567857D01*
X159867380Y-62722619D01*
X159898333Y-62784523D01*
X159929285Y-62815476D01*
X159991190Y-62846428D01*
X160115000Y-62846428D01*
X160176904Y-62815476D01*
X160207857Y-62784523D01*
X160238809Y-62722619D01*
X161012619Y-63094047D02*
X161012619Y-62444047D01*
X161260238Y-62444047D01*
X161322142Y-62475000D01*
X161353095Y-62505952D01*
X161384047Y-62567857D01*
X161384047Y-62660714D01*
X161353095Y-62722619D01*
X161322142Y-62753571D01*
X161260238Y-62784523D01*
X161012619Y-62784523D01*
X161879285Y-62753571D02*
X161972142Y-62784523D01*
X162003095Y-62815476D01*
X162034047Y-62877380D01*
X162034047Y-62970238D01*
X162003095Y-63032142D01*
X161972142Y-63063095D01*
X161910238Y-63094047D01*
X161662619Y-63094047D01*
X161662619Y-62444047D01*
X161879285Y-62444047D01*
X161941190Y-62475000D01*
X161972142Y-62505952D01*
X162003095Y-62567857D01*
X162003095Y-62629761D01*
X161972142Y-62691666D01*
X161941190Y-62722619D01*
X161879285Y-62753571D01*
X161662619Y-62753571D01*
X162653095Y-63094047D02*
X162281666Y-63094047D01*
X162467380Y-63094047D02*
X162467380Y-62444047D01*
X162405476Y-62536904D01*
X162343571Y-62598809D01*
X162281666Y-62629761D01*
X162900714Y-62505952D02*
X162931666Y-62475000D01*
X162993571Y-62444047D01*
X163148333Y-62444047D01*
X163210238Y-62475000D01*
X163241190Y-62505952D01*
X163272142Y-62567857D01*
X163272142Y-62629761D01*
X163241190Y-62722619D01*
X162869761Y-63094047D01*
X163272142Y-63094047D01*
X164045952Y-63094047D02*
X164045952Y-62444047D01*
X164293571Y-62444047D01*
X164355476Y-62475000D01*
X164386428Y-62505952D01*
X164417380Y-62567857D01*
X164417380Y-62660714D01*
X164386428Y-62722619D01*
X164355476Y-62753571D01*
X164293571Y-62784523D01*
X164045952Y-62784523D01*
X164912619Y-62753571D02*
X165005476Y-62784523D01*
X165036428Y-62815476D01*
X165067380Y-62877380D01*
X165067380Y-62970238D01*
X165036428Y-63032142D01*
X165005476Y-63063095D01*
X164943571Y-63094047D01*
X164695952Y-63094047D01*
X164695952Y-62444047D01*
X164912619Y-62444047D01*
X164974523Y-62475000D01*
X165005476Y-62505952D01*
X165036428Y-62567857D01*
X165036428Y-62629761D01*
X165005476Y-62691666D01*
X164974523Y-62722619D01*
X164912619Y-62753571D01*
X164695952Y-62753571D01*
X165686428Y-63094047D02*
X165315000Y-63094047D01*
X165500714Y-63094047D02*
X165500714Y-62444047D01*
X165438809Y-62536904D01*
X165376904Y-62598809D01*
X165315000Y-62629761D01*
X166243571Y-62660714D02*
X166243571Y-63094047D01*
X166088809Y-62413095D02*
X165934047Y-62877380D01*
X166336428Y-62877380D01*
X167079285Y-63094047D02*
X167079285Y-62444047D01*
X167326904Y-62444047D01*
X167388809Y-62475000D01*
X167419761Y-62505952D01*
X167450714Y-62567857D01*
X167450714Y-62660714D01*
X167419761Y-62722619D01*
X167388809Y-62753571D01*
X167326904Y-62784523D01*
X167079285Y-62784523D01*
X167729285Y-63094047D02*
X167729285Y-62444047D01*
X167884047Y-62444047D01*
X167976904Y-62475000D01*
X168038809Y-62536904D01*
X168069761Y-62598809D01*
X168100714Y-62722619D01*
X168100714Y-62815476D01*
X168069761Y-62939285D01*
X168038809Y-63001190D01*
X167976904Y-63063095D01*
X167884047Y-63094047D01*
X167729285Y-63094047D01*
X168348333Y-62505952D02*
X168379285Y-62475000D01*
X168441190Y-62444047D01*
X168595952Y-62444047D01*
X168657857Y-62475000D01*
X168688809Y-62505952D01*
X168719761Y-62567857D01*
X168719761Y-62629761D01*
X168688809Y-62722619D01*
X168317380Y-63094047D01*
X168719761Y-63094047D01*
D10*
X137952380Y-100357142D02*
X138000000Y-100404761D01*
X137952380Y-100452380D01*
X137904761Y-100404761D01*
X137952380Y-100357142D01*
X137952380Y-100452380D01*
X138428571Y-100357142D02*
X138476190Y-100404761D01*
X138428571Y-100452380D01*
X138380952Y-100404761D01*
X138428571Y-100357142D01*
X138428571Y-100452380D01*
X138904761Y-100357142D02*
X138952380Y-100404761D01*
X138904761Y-100452380D01*
X138857142Y-100404761D01*
X138904761Y-100357142D01*
X138904761Y-100452380D01*
X139809523Y-100452380D02*
X139809523Y-99928571D01*
X139761904Y-99833333D01*
X139666666Y-99785714D01*
X139476190Y-99785714D01*
X139380952Y-99833333D01*
X139809523Y-100404761D02*
X139714285Y-100452380D01*
X139476190Y-100452380D01*
X139380952Y-100404761D01*
X139333333Y-100309523D01*
X139333333Y-100214285D01*
X139380952Y-100119047D01*
X139476190Y-100071428D01*
X139714285Y-100071428D01*
X139809523Y-100023809D01*
X141619047Y-100452380D02*
X141285714Y-99976190D01*
X141047619Y-100452380D02*
X141047619Y-99452380D01*
X141428571Y-99452380D01*
X141523809Y-99500000D01*
X141571428Y-99547619D01*
X141619047Y-99642857D01*
X141619047Y-99785714D01*
X141571428Y-99880952D01*
X141523809Y-99928571D01*
X141428571Y-99976190D01*
X141047619Y-99976190D01*
X142428571Y-100404761D02*
X142333333Y-100452380D01*
X142142857Y-100452380D01*
X142047619Y-100404761D01*
X142000000Y-100309523D01*
X142000000Y-99928571D01*
X142047619Y-99833333D01*
X142142857Y-99785714D01*
X142333333Y-99785714D01*
X142428571Y-99833333D01*
X142476190Y-99928571D01*
X142476190Y-100023809D01*
X142000000Y-100119047D01*
X142761904Y-99785714D02*
X143142857Y-99785714D01*
X142904761Y-99452380D02*
X142904761Y-100309523D01*
X142952380Y-100404761D01*
X143047619Y-100452380D01*
X143142857Y-100452380D01*
X143476190Y-100452380D02*
X143476190Y-99785714D01*
X143476190Y-99976190D02*
X143523809Y-99880952D01*
X143571428Y-99833333D01*
X143666666Y-99785714D01*
X143761904Y-99785714D01*
X144238095Y-100452380D02*
X144142857Y-100404761D01*
X144095238Y-100357142D01*
X144047619Y-100261904D01*
X144047619Y-99976190D01*
X144095238Y-99880952D01*
X144142857Y-99833333D01*
X144238095Y-99785714D01*
X144380952Y-99785714D01*
X144476190Y-99833333D01*
X144523809Y-99880952D01*
X144571428Y-99976190D01*
X144571428Y-100261904D01*
X144523809Y-100357142D01*
X144476190Y-100404761D01*
X144380952Y-100452380D01*
X144238095Y-100452380D01*
X145333333Y-99928571D02*
X145476190Y-99976190D01*
X145523809Y-100023809D01*
X145571428Y-100119047D01*
X145571428Y-100261904D01*
X145523809Y-100357142D01*
X145476190Y-100404761D01*
X145380952Y-100452380D01*
X145000000Y-100452380D01*
X145000000Y-99452380D01*
X145333333Y-99452380D01*
X145428571Y-99500000D01*
X145476190Y-99547619D01*
X145523809Y-99642857D01*
X145523809Y-99738095D01*
X145476190Y-99833333D01*
X145428571Y-99880952D01*
X145333333Y-99928571D01*
X145000000Y-99928571D01*
X146000000Y-100452380D02*
X146000000Y-99785714D01*
X146000000Y-99452380D02*
X145952380Y-99500000D01*
X146000000Y-99547619D01*
X146047619Y-99500000D01*
X146000000Y-99452380D01*
X146000000Y-99547619D01*
X146333333Y-99785714D02*
X146714285Y-99785714D01*
X146476190Y-99452380D02*
X146476190Y-100309523D01*
X146523809Y-100404761D01*
X146619047Y-100452380D01*
X146714285Y-100452380D01*
X147523809Y-100452380D02*
X147047619Y-100452380D01*
X147047619Y-99452380D01*
X148285714Y-100452380D02*
X148285714Y-99928571D01*
X148238095Y-99833333D01*
X148142857Y-99785714D01*
X147952380Y-99785714D01*
X147857142Y-99833333D01*
X148285714Y-100404761D02*
X148190476Y-100452380D01*
X147952380Y-100452380D01*
X147857142Y-100404761D01*
X147809523Y-100309523D01*
X147809523Y-100214285D01*
X147857142Y-100119047D01*
X147952380Y-100071428D01*
X148190476Y-100071428D01*
X148285714Y-100023809D01*
X148761904Y-100452380D02*
X148761904Y-99452380D01*
X148761904Y-99833333D02*
X148857142Y-99785714D01*
X149047619Y-99785714D01*
X149142857Y-99833333D01*
X149190476Y-99880952D01*
X149238095Y-99976190D01*
X149238095Y-100261904D01*
X149190476Y-100357142D01*
X149142857Y-100404761D01*
X149047619Y-100452380D01*
X148857142Y-100452380D01*
X148761904Y-100404761D01*
X150285714Y-99452380D02*
X150857142Y-99452380D01*
X150571428Y-100452380D02*
X150571428Y-99452380D01*
X151571428Y-100404761D02*
X151476190Y-100452380D01*
X151285714Y-100452380D01*
X151190476Y-100404761D01*
X151142857Y-100309523D01*
X151142857Y-99928571D01*
X151190476Y-99833333D01*
X151285714Y-99785714D01*
X151476190Y-99785714D01*
X151571428Y-99833333D01*
X151619047Y-99928571D01*
X151619047Y-100023809D01*
X151142857Y-100119047D01*
X152476190Y-100404761D02*
X152380952Y-100452380D01*
X152190476Y-100452380D01*
X152095238Y-100404761D01*
X152047619Y-100357142D01*
X152000000Y-100261904D01*
X152000000Y-99976190D01*
X152047619Y-99880952D01*
X152095238Y-99833333D01*
X152190476Y-99785714D01*
X152380952Y-99785714D01*
X152476190Y-99833333D01*
X152904761Y-100452380D02*
X152904761Y-99452380D01*
X153333333Y-100452380D02*
X153333333Y-99928571D01*
X153285714Y-99833333D01*
X153190476Y-99785714D01*
X153047619Y-99785714D01*
X152952380Y-99833333D01*
X152904761Y-99880952D01*
X155095238Y-99500000D02*
X155000000Y-99452380D01*
X154857142Y-99452380D01*
X154714285Y-99500000D01*
X154619047Y-99595238D01*
X154571428Y-99690476D01*
X154523809Y-99880952D01*
X154523809Y-100023809D01*
X154571428Y-100214285D01*
X154619047Y-100309523D01*
X154714285Y-100404761D01*
X154857142Y-100452380D01*
X154952380Y-100452380D01*
X155095238Y-100404761D01*
X155142857Y-100357142D01*
X155142857Y-100023809D01*
X154952380Y-100023809D01*
X156000000Y-99785714D02*
X156000000Y-100452380D01*
X155571428Y-99785714D02*
X155571428Y-100309523D01*
X155619047Y-100404761D01*
X155714285Y-100452380D01*
X155857142Y-100452380D01*
X155952380Y-100404761D01*
X156000000Y-100357142D01*
X156380952Y-99785714D02*
X156619047Y-100452380D01*
X156857142Y-99785714D02*
X156619047Y-100452380D01*
X156523809Y-100690476D01*
X156476190Y-100738095D01*
X156380952Y-100785714D01*
X157999999Y-100452380D02*
X157999999Y-99452380D01*
X158380952Y-99452380D01*
X158476190Y-99500000D01*
X158523809Y-99547619D01*
X158571428Y-99642857D01*
X158571428Y-99785714D01*
X158523809Y-99880952D01*
X158476190Y-99928571D01*
X158380952Y-99976190D01*
X157999999Y-99976190D01*
X158999999Y-100452380D02*
X158999999Y-99785714D01*
X158999999Y-99976190D02*
X159047619Y-99880952D01*
X159095238Y-99833333D01*
X159190476Y-99785714D01*
X159285714Y-99785714D01*
X159761904Y-100452380D02*
X159666666Y-100404761D01*
X159619047Y-100357142D01*
X159571428Y-100261904D01*
X159571428Y-99976190D01*
X159619047Y-99880952D01*
X159666666Y-99833333D01*
X159761904Y-99785714D01*
X159904761Y-99785714D01*
X159999999Y-99833333D01*
X160047619Y-99880952D01*
X160095238Y-99976190D01*
X160095238Y-100261904D01*
X160047619Y-100357142D01*
X159999999Y-100404761D01*
X159904761Y-100452380D01*
X159761904Y-100452380D01*
X160952380Y-100452380D02*
X160952380Y-99452380D01*
X160952380Y-100404761D02*
X160857142Y-100452380D01*
X160666666Y-100452380D01*
X160571428Y-100404761D01*
X160523809Y-100357142D01*
X160476190Y-100261904D01*
X160476190Y-99976190D01*
X160523809Y-99880952D01*
X160571428Y-99833333D01*
X160666666Y-99785714D01*
X160857142Y-99785714D01*
X160952380Y-99833333D01*
X161857142Y-99785714D02*
X161857142Y-100452380D01*
X161428571Y-99785714D02*
X161428571Y-100309523D01*
X161476190Y-100404761D01*
X161571428Y-100452380D01*
X161714285Y-100452380D01*
X161809523Y-100404761D01*
X161857142Y-100357142D01*
X162761904Y-100404761D02*
X162666666Y-100452380D01*
X162476190Y-100452380D01*
X162380952Y-100404761D01*
X162333333Y-100357142D01*
X162285714Y-100261904D01*
X162285714Y-99976190D01*
X162333333Y-99880952D01*
X162380952Y-99833333D01*
X162476190Y-99785714D01*
X162666666Y-99785714D01*
X162761904Y-99833333D01*
X163047619Y-99785714D02*
X163428571Y-99785714D01*
X163190476Y-99452380D02*
X163190476Y-100309523D01*
X163238095Y-100404761D01*
X163333333Y-100452380D01*
X163428571Y-100452380D01*
X163761904Y-100452380D02*
X163761904Y-99785714D01*
X163761904Y-99452380D02*
X163714285Y-99500000D01*
X163761904Y-99547619D01*
X163809523Y-99500000D01*
X163761904Y-99452380D01*
X163761904Y-99547619D01*
X164380952Y-100452380D02*
X164285714Y-100404761D01*
X164238095Y-100357142D01*
X164190476Y-100261904D01*
X164190476Y-99976190D01*
X164238095Y-99880952D01*
X164285714Y-99833333D01*
X164380952Y-99785714D01*
X164523809Y-99785714D01*
X164619047Y-99833333D01*
X164666666Y-99880952D01*
X164714285Y-99976190D01*
X164714285Y-100261904D01*
X164666666Y-100357142D01*
X164619047Y-100404761D01*
X164523809Y-100452380D01*
X164380952Y-100452380D01*
X165142857Y-99785714D02*
X165142857Y-100452380D01*
X165142857Y-99880952D02*
X165190476Y-99833333D01*
X165285714Y-99785714D01*
X165428571Y-99785714D01*
X165523809Y-99833333D01*
X165571428Y-99928571D01*
X165571428Y-100452380D01*
X166047619Y-100357142D02*
X166095238Y-100404761D01*
X166047619Y-100452380D01*
X165999999Y-100404761D01*
X166047619Y-100357142D01*
X166047619Y-100452380D01*
X166047619Y-100071428D02*
X165999999Y-99500000D01*
X166047619Y-99452380D01*
X166095238Y-99500000D01*
X166047619Y-100071428D01*
X166047619Y-99452380D01*
D12*
X135700952Y-66739523D02*
X135974761Y-66834761D01*
X136450952Y-66834761D01*
X136653333Y-66739523D01*
X136760476Y-66644285D01*
X136879523Y-66453809D01*
X136903333Y-66263333D01*
X136831904Y-66072857D01*
X136748571Y-65977619D01*
X136570000Y-65882380D01*
X136200952Y-65787142D01*
X136022380Y-65691904D01*
X135939047Y-65596666D01*
X135867619Y-65406190D01*
X135891428Y-65215714D01*
X136010476Y-65025238D01*
X136117619Y-64930000D01*
X136320000Y-64834761D01*
X136796190Y-64834761D01*
X137070000Y-64930000D01*
X137653333Y-64834761D02*
X138796190Y-64834761D01*
X137974761Y-66834761D02*
X138224761Y-64834761D01*
X139212857Y-66834761D02*
X139462857Y-64834761D01*
X139950952Y-66263333D01*
X140796190Y-64834761D01*
X140546190Y-66834761D01*
X141558095Y-64834761D02*
X142796190Y-64834761D01*
X142034285Y-65596666D01*
X142320000Y-65596666D01*
X142498571Y-65691904D01*
X142581904Y-65787142D01*
X142653333Y-65977619D01*
X142593809Y-66453809D01*
X142474761Y-66644285D01*
X142367619Y-66739523D01*
X142165238Y-66834761D01*
X141593809Y-66834761D01*
X141415238Y-66739523D01*
X141331904Y-66644285D01*
X143534285Y-65025238D02*
X143641428Y-64930000D01*
X143843809Y-64834761D01*
X144320000Y-64834761D01*
X144498571Y-64930000D01*
X144581904Y-65025238D01*
X144653333Y-65215714D01*
X144629523Y-65406190D01*
X144498571Y-65691904D01*
X143212857Y-66834761D01*
X144450952Y-66834761D01*
X146105714Y-65787142D02*
X145439047Y-65787142D01*
X145308095Y-66834761D02*
X145558095Y-64834761D01*
X146510476Y-64834761D01*
X148046190Y-65501428D02*
X147879523Y-66834761D01*
X147665238Y-64739523D02*
X147010476Y-66168095D01*
X148248571Y-66168095D01*
X149558095Y-64834761D02*
X149748571Y-64834761D01*
X149927142Y-64930000D01*
X150010476Y-65025238D01*
X150081904Y-65215714D01*
X150129523Y-65596666D01*
X150070000Y-66072857D01*
X149927142Y-66453809D01*
X149808095Y-66644285D01*
X149700952Y-66739523D01*
X149498571Y-66834761D01*
X149308095Y-66834761D01*
X149129523Y-66739523D01*
X149046190Y-66644285D01*
X148974761Y-66453809D01*
X148927142Y-66072857D01*
X148986666Y-65596666D01*
X149129523Y-65215714D01*
X149248571Y-65025238D01*
X149355714Y-64930000D01*
X149558095Y-64834761D01*
X151879523Y-66834761D02*
X150736666Y-66834761D01*
X151308095Y-66834761D02*
X151558095Y-64834761D01*
X151331904Y-65120476D01*
X151117619Y-65310952D01*
X150915238Y-65406190D01*
X152831904Y-66072857D02*
X154355714Y-66072857D01*
X156355714Y-66834761D02*
X155808095Y-65882380D01*
X155212857Y-66834761D02*
X155462857Y-64834761D01*
X156224761Y-64834761D01*
X156403333Y-64930000D01*
X156486666Y-65025238D01*
X156558095Y-65215714D01*
X156522380Y-65501428D01*
X156403333Y-65691904D01*
X156296190Y-65787142D01*
X156093809Y-65882380D01*
X155331904Y-65882380D01*
X158010476Y-65787142D02*
X158284285Y-65882380D01*
X158367619Y-65977619D01*
X158439047Y-66168095D01*
X158403333Y-66453809D01*
X158284285Y-66644285D01*
X158177142Y-66739523D01*
X157974761Y-66834761D01*
X157212857Y-66834761D01*
X157462857Y-64834761D01*
X158129523Y-64834761D01*
X158308095Y-64930000D01*
X158391428Y-65025238D01*
X158462857Y-65215714D01*
X158439047Y-65406190D01*
X158320000Y-65596666D01*
X158212857Y-65691904D01*
X158010476Y-65787142D01*
X157343809Y-65787142D01*
X160165238Y-66834761D02*
X159212857Y-66834761D01*
X159462857Y-64834761D01*
X137867619Y-69187142D02*
X138534285Y-69187142D01*
X138689047Y-70234761D02*
X137736666Y-70234761D01*
X137986666Y-68234761D01*
X138939047Y-68234761D01*
X139522380Y-68901428D02*
X139831904Y-70234761D01*
X140474761Y-68901428D01*
X141927142Y-70234761D02*
X142058095Y-69187142D01*
X141986666Y-68996666D01*
X141808095Y-68901428D01*
X141427142Y-68901428D01*
X141224761Y-68996666D01*
X141939047Y-70139523D02*
X141736666Y-70234761D01*
X141260476Y-70234761D01*
X141081904Y-70139523D01*
X141010476Y-69949047D01*
X141034285Y-69758571D01*
X141153333Y-69568095D01*
X141355714Y-69472857D01*
X141831904Y-69472857D01*
X142034285Y-69377619D01*
X143165238Y-70234761D02*
X142986666Y-70139523D01*
X142915238Y-69949047D01*
X143129523Y-68234761D01*
X144950952Y-68901428D02*
X144784285Y-70234761D01*
X144093809Y-68901428D02*
X143962857Y-69949047D01*
X144034285Y-70139523D01*
X144212857Y-70234761D01*
X144498571Y-70234761D01*
X144700952Y-70139523D01*
X144808095Y-70044285D01*
X146593809Y-70234761D02*
X146724761Y-69187142D01*
X146653333Y-68996666D01*
X146474761Y-68901428D01*
X146093809Y-68901428D01*
X145891428Y-68996666D01*
X146605714Y-70139523D02*
X146403333Y-70234761D01*
X145927142Y-70234761D01*
X145748571Y-70139523D01*
X145677142Y-69949047D01*
X145700952Y-69758571D01*
X145820000Y-69568095D01*
X146022380Y-69472857D01*
X146498571Y-69472857D01*
X146700952Y-69377619D01*
X147427142Y-68901428D02*
X148189047Y-68901428D01*
X147796190Y-68234761D02*
X147581904Y-69949047D01*
X147653333Y-70139523D01*
X147831904Y-70234761D01*
X148022380Y-70234761D01*
X148689047Y-70234761D02*
X148855714Y-68901428D01*
X148939047Y-68234761D02*
X148831904Y-68330000D01*
X148915238Y-68425238D01*
X149022380Y-68330000D01*
X148939047Y-68234761D01*
X148915238Y-68425238D01*
X149927142Y-70234761D02*
X149748571Y-70139523D01*
X149665238Y-70044285D01*
X149593809Y-69853809D01*
X149665238Y-69282380D01*
X149784285Y-69091904D01*
X149891428Y-68996666D01*
X150093809Y-68901428D01*
X150379523Y-68901428D01*
X150558095Y-68996666D01*
X150641428Y-69091904D01*
X150712857Y-69282380D01*
X150641428Y-69853809D01*
X150522380Y-70044285D01*
X150415238Y-70139523D01*
X150212857Y-70234761D01*
X149927142Y-70234761D01*
X151617619Y-68901428D02*
X151450952Y-70234761D01*
X151593809Y-69091904D02*
X151700952Y-68996666D01*
X151903333Y-68901428D01*
X152189047Y-68901428D01*
X152367619Y-68996666D01*
X152439047Y-69187142D01*
X152308095Y-70234761D01*
X154784285Y-70234761D02*
X155034285Y-68234761D01*
X155927142Y-70234761D02*
X155212857Y-69091904D01*
X156177142Y-68234761D02*
X154891428Y-69377619D01*
X156784285Y-70234761D02*
X156950952Y-68901428D01*
X157034285Y-68234761D02*
X156927142Y-68330000D01*
X157010476Y-68425238D01*
X157117619Y-68330000D01*
X157034285Y-68234761D01*
X157010476Y-68425238D01*
X157617619Y-68901428D02*
X158379523Y-68901428D01*
X157986666Y-68234761D02*
X157772380Y-69949047D01*
X157843809Y-70139523D01*
X158022380Y-70234761D01*
X158212857Y-70234761D01*
D13*
%TO.C,R5*%
X118990000Y-107427064D02*
X118990000Y-105972936D01*
X120810000Y-107427064D02*
X120810000Y-105972936D01*
%TO.C,J5*%
X177590000Y-97010000D02*
X168470000Y-97010000D01*
X168470000Y-97010000D02*
X168470000Y-76430000D01*
X168470000Y-76430000D02*
X177590000Y-76430000D01*
X177590000Y-76430000D02*
X177590000Y-97010000D01*
X177590000Y-88770000D02*
X176280000Y-88770000D01*
X176280000Y-88770000D02*
X176280000Y-95710000D01*
X176280000Y-95710000D02*
X169780000Y-95710000D01*
X169780000Y-95710000D02*
X169780000Y-77730000D01*
X169780000Y-77730000D02*
X176280000Y-77730000D01*
X176280000Y-77730000D02*
X176280000Y-84670000D01*
X176280000Y-84670000D02*
X176280000Y-84670000D01*
X176280000Y-84670000D02*
X177590000Y-84670000D01*
X177980000Y-91800000D02*
X178980000Y-92300000D01*
X178980000Y-92300000D02*
X178980000Y-91300000D01*
X178980000Y-91300000D02*
X177980000Y-91800000D01*
%TO.C,C1*%
X143510000Y-78088748D02*
X143510000Y-79511252D01*
X141690000Y-78088748D02*
X141690000Y-79511252D01*
%TO.C,C6*%
X133465000Y-89100000D02*
X133465000Y-93185000D01*
X133465000Y-93185000D02*
X135335000Y-93185000D01*
X135335000Y-93185000D02*
X135335000Y-89100000D01*
%TO.C,C8*%
X150688748Y-97190000D02*
X152111252Y-97190000D01*
X150688748Y-99010000D02*
X152111252Y-99010000D01*
%TO.C,D1*%
X122700000Y-107535000D02*
X126760000Y-107535000D01*
X126760000Y-107535000D02*
X126760000Y-105265000D01*
X126760000Y-105265000D02*
X122700000Y-105265000D01*
%TO.C,FB1*%
X136164758Y-94890000D02*
X137835242Y-94890000D01*
X136164758Y-96710000D02*
X137835242Y-96710000D01*
%TO.C,R1*%
X129272936Y-74090000D02*
X130727064Y-74090000D01*
X129272936Y-75910000D02*
X130727064Y-75910000D01*
%TO.C,R2*%
X137372936Y-88490000D02*
X138827064Y-88490000D01*
X137372936Y-90310000D02*
X138827064Y-90310000D01*
%TO.C,R4*%
X165372936Y-105590000D02*
X166827064Y-105590000D01*
X165372936Y-107410000D02*
X166827064Y-107410000D01*
%TO.C,SW1*%
X124710000Y-77060000D02*
X121090000Y-77060000D01*
X124710000Y-70940000D02*
X124710000Y-77060000D01*
X121090000Y-70940000D02*
X124710000Y-70940000D01*
X121090000Y-77060000D02*
X121090000Y-70940000D01*
%TO.C,U1*%
X153810000Y-91435000D02*
X154760000Y-91435000D01*
X154760000Y-91435000D02*
X154760000Y-90485000D01*
X145490000Y-91435000D02*
X144540000Y-91435000D01*
X144540000Y-91435000D02*
X144540000Y-90485000D01*
X153810000Y-81215000D02*
X154760000Y-81215000D01*
X154760000Y-81215000D02*
X154760000Y-82165000D01*
X145490000Y-81215000D02*
X144540000Y-81215000D01*
X144540000Y-81215000D02*
X144540000Y-82165000D01*
X144540000Y-82165000D02*
X143200000Y-82165000D01*
%TO.C,Y1*%
X131250000Y-91600000D02*
X131250000Y-79000000D01*
X131250000Y-79000000D02*
X126150000Y-79000000D01*
X126150000Y-79000000D02*
X126150000Y-91600000D01*
%TO.C,J1*%
X174470000Y-120710000D02*
X177130000Y-120710000D01*
X174470000Y-115570000D02*
X174470000Y-120710000D01*
X177130000Y-115570000D02*
X177130000Y-120710000D01*
X174470000Y-115570000D02*
X177130000Y-115570000D01*
X174470000Y-114300000D02*
X174470000Y-112970000D01*
X174470000Y-112970000D02*
X175800000Y-112970000D01*
%TO.C,U2*%
X133910000Y-106410000D02*
X133910000Y-105150000D01*
X133910000Y-99590000D02*
X133910000Y-100850000D01*
X130150000Y-106410000D02*
X133910000Y-106410000D01*
X127900000Y-99590000D02*
X133910000Y-99590000D01*
%TO.C,J3*%
X178910000Y-101090000D02*
X178910000Y-108910000D01*
X169590000Y-107110000D02*
X169160000Y-107110000D01*
X178910000Y-101090000D02*
X176960000Y-101090000D01*
X174740000Y-101090000D02*
X171510000Y-101090000D01*
X169590000Y-102890000D02*
X169590000Y-101810000D01*
X169590000Y-108190000D02*
X169590000Y-107110000D01*
X174740000Y-108910000D02*
X171510000Y-108910000D01*
X178910000Y-108910000D02*
X176960000Y-108910000D01*
%TO.C,C2*%
X147111252Y-96410000D02*
X145688748Y-96410000D01*
X147111252Y-94590000D02*
X145688748Y-94590000D01*
%TO.C,C3*%
X155711252Y-96510000D02*
X154288748Y-96510000D01*
X155711252Y-94690000D02*
X154288748Y-94690000D01*
%TO.C,C4*%
X159110000Y-80388748D02*
X159110000Y-81811252D01*
X157290000Y-80388748D02*
X157290000Y-81811252D01*
%TO.C,C5*%
X138811252Y-92910000D02*
X137388748Y-92910000D01*
X138811252Y-91090000D02*
X137388748Y-91090000D01*
%TO.C,C7*%
X122188748Y-65590000D02*
X123611252Y-65590000D01*
X122188748Y-67410000D02*
X123611252Y-67410000D01*
%TO.C,C11*%
X123988748Y-98490000D02*
X125411252Y-98490000D01*
X123988748Y-100310000D02*
X125411252Y-100310000D01*
%TO.C,C12*%
X130311252Y-109010000D02*
X128888748Y-109010000D01*
X130311252Y-107190000D02*
X128888748Y-107190000D01*
%TO.C,C13*%
X126000000Y-102365000D02*
X121915000Y-102365000D01*
X121915000Y-102365000D02*
X121915000Y-104235000D01*
X121915000Y-104235000D02*
X126000000Y-104235000D01*
%TO.C,R3*%
X165372936Y-103190000D02*
X166827064Y-103190000D01*
X165372936Y-105010000D02*
X166827064Y-105010000D01*
%TO.C,C9*%
X124111252Y-83510000D02*
X122688748Y-83510000D01*
X124111252Y-81690000D02*
X122688748Y-81690000D01*
%TO.C,C10*%
X124111252Y-89810000D02*
X122688748Y-89810000D01*
X124111252Y-87990000D02*
X122688748Y-87990000D01*
D14*
%TO.C,LOGO2*%
G36*
X149126535Y-102413172D02*
G01*
X149239117Y-103010363D01*
X149654531Y-103181610D01*
X150069944Y-103352857D01*
X150568302Y-103013978D01*
X150707868Y-102919622D01*
X150834028Y-102835375D01*
X150940895Y-102765083D01*
X151022582Y-102712592D01*
X151073201Y-102681749D01*
X151086986Y-102675098D01*
X151111820Y-102692203D01*
X151164888Y-102739489D01*
X151240240Y-102810917D01*
X151331929Y-102900445D01*
X151434007Y-103002034D01*
X151540526Y-103109643D01*
X151645536Y-103217232D01*
X151743091Y-103318760D01*
X151827242Y-103408186D01*
X151892040Y-103479471D01*
X151931538Y-103526573D01*
X151940980Y-103542337D01*
X151927391Y-103571398D01*
X151889293Y-103635066D01*
X151830694Y-103727112D01*
X151755597Y-103841309D01*
X151668009Y-103971429D01*
X151617254Y-104045646D01*
X151524745Y-104181167D01*
X151442540Y-104303461D01*
X151374630Y-104406440D01*
X151325000Y-104484018D01*
X151297640Y-104530106D01*
X151293529Y-104539792D01*
X151302849Y-104567319D01*
X151328254Y-104631473D01*
X151365911Y-104723235D01*
X151411986Y-104833584D01*
X151462646Y-104953500D01*
X151514059Y-105073964D01*
X151562389Y-105185954D01*
X151603806Y-105280452D01*
X151634474Y-105348437D01*
X151650562Y-105380888D01*
X151651511Y-105382165D01*
X151676772Y-105388362D01*
X151744046Y-105402185D01*
X151846360Y-105422277D01*
X151976741Y-105447279D01*
X152128216Y-105475831D01*
X152216594Y-105492296D01*
X152378452Y-105523114D01*
X152524649Y-105552439D01*
X152647787Y-105578666D01*
X152740469Y-105600191D01*
X152795301Y-105615410D01*
X152806323Y-105620238D01*
X152817119Y-105652919D01*
X152825829Y-105726730D01*
X152832460Y-105833037D01*
X152837018Y-105963212D01*
X152839509Y-106108621D01*
X152839938Y-106260635D01*
X152838311Y-106410622D01*
X152834635Y-106549951D01*
X152828915Y-106669990D01*
X152821158Y-106762110D01*
X152811368Y-106817677D01*
X152805496Y-106829245D01*
X152770399Y-106843110D01*
X152696028Y-106862933D01*
X152592223Y-106886384D01*
X152468819Y-106911136D01*
X152425741Y-106919143D01*
X152218047Y-106957186D01*
X152053984Y-106987824D01*
X151928130Y-107012274D01*
X151835065Y-107031754D01*
X151769367Y-107047481D01*
X151725617Y-107060673D01*
X151698392Y-107072549D01*
X151682272Y-107084325D01*
X151680017Y-107086653D01*
X151657503Y-107124145D01*
X151623158Y-107197110D01*
X151580411Y-107296612D01*
X151532692Y-107413718D01*
X151483430Y-107539493D01*
X151436055Y-107665002D01*
X151393995Y-107781310D01*
X151360680Y-107879484D01*
X151339541Y-107950588D01*
X151334005Y-107985687D01*
X151334466Y-107986917D01*
X151353223Y-108015606D01*
X151395776Y-108078730D01*
X151457653Y-108169718D01*
X151534382Y-108282000D01*
X151621491Y-108409005D01*
X151646299Y-108445098D01*
X151734753Y-108575948D01*
X151812588Y-108695336D01*
X151875566Y-108796407D01*
X151919445Y-108872304D01*
X151939985Y-108916172D01*
X151940980Y-108921562D01*
X151923722Y-108949889D01*
X151876036Y-109006006D01*
X151804050Y-109083882D01*
X151713897Y-109177485D01*
X151611705Y-109280786D01*
X151503606Y-109387751D01*
X151395728Y-109492351D01*
X151294204Y-109588554D01*
X151205162Y-109670329D01*
X151134733Y-109731645D01*
X151089047Y-109766471D01*
X151076409Y-109772157D01*
X151046991Y-109758765D01*
X150986761Y-109722644D01*
X150905530Y-109669881D01*
X150843030Y-109627412D01*
X150729785Y-109549485D01*
X150595674Y-109457729D01*
X150461155Y-109366120D01*
X150388833Y-109317091D01*
X150144038Y-109151515D01*
X149938551Y-109262620D01*
X149844936Y-109311293D01*
X149765330Y-109349126D01*
X149711467Y-109370703D01*
X149697757Y-109373706D01*
X149681270Y-109351538D01*
X149648745Y-109288894D01*
X149602609Y-109191554D01*
X149545290Y-109065294D01*
X149479216Y-108915895D01*
X149406815Y-108749133D01*
X149330516Y-108570787D01*
X149252746Y-108386636D01*
X149175934Y-108202457D01*
X149102506Y-108024030D01*
X149034892Y-107857132D01*
X148975520Y-107707542D01*
X148926816Y-107581038D01*
X148891210Y-107483399D01*
X148871130Y-107420402D01*
X148867900Y-107398766D01*
X148893496Y-107371169D01*
X148949539Y-107326370D01*
X149024311Y-107273679D01*
X149030587Y-107269510D01*
X149223845Y-107114814D01*
X149379674Y-106934336D01*
X149496724Y-106733847D01*
X149573645Y-106519119D01*
X149609086Y-106295922D01*
X149601697Y-106070026D01*
X149550127Y-105847204D01*
X149453026Y-105633224D01*
X149424458Y-105586409D01*
X149275868Y-105397363D01*
X149100327Y-105245557D01*
X148903910Y-105131779D01*
X148692693Y-105056820D01*
X148472753Y-105021467D01*
X148250163Y-105026512D01*
X148031001Y-105072744D01*
X147821342Y-105160951D01*
X147627261Y-105291924D01*
X147567226Y-105345082D01*
X147414435Y-105511484D01*
X147303097Y-105686657D01*
X147226723Y-105883011D01*
X147184187Y-106077462D01*
X147173686Y-106296087D01*
X147208701Y-106515797D01*
X147285673Y-106729165D01*
X147401047Y-106928767D01*
X147551266Y-107107174D01*
X147732773Y-107256962D01*
X147756627Y-107272751D01*
X147832201Y-107324457D01*
X147889651Y-107369257D01*
X147917117Y-107397862D01*
X147917517Y-107398766D01*
X147911620Y-107429709D01*
X147888245Y-107499936D01*
X147849821Y-107603670D01*
X147798777Y-107735135D01*
X147737542Y-107888552D01*
X147668544Y-108058146D01*
X147594214Y-108238138D01*
X147516978Y-108422753D01*
X147439268Y-108606213D01*
X147363511Y-108782741D01*
X147292137Y-108946559D01*
X147227574Y-109091892D01*
X147172252Y-109212962D01*
X147128600Y-109303992D01*
X147099046Y-109359205D01*
X147087144Y-109373706D01*
X147050777Y-109362414D01*
X146982730Y-109332130D01*
X146894737Y-109288265D01*
X146846351Y-109262620D01*
X146640863Y-109151515D01*
X146396068Y-109317091D01*
X146271106Y-109401915D01*
X146134295Y-109495261D01*
X146006089Y-109583153D01*
X145941871Y-109627412D01*
X145851551Y-109688063D01*
X145775071Y-109736126D01*
X145722407Y-109765515D01*
X145705302Y-109771727D01*
X145680405Y-109754968D01*
X145625305Y-109708181D01*
X145545343Y-109636225D01*
X145445861Y-109543957D01*
X145332200Y-109436235D01*
X145260315Y-109367071D01*
X145134551Y-109243502D01*
X145025863Y-109132979D01*
X144938645Y-109040230D01*
X144877289Y-108969982D01*
X144846191Y-108926965D01*
X144843208Y-108918235D01*
X144857053Y-108885029D01*
X144895312Y-108817887D01*
X144953742Y-108723608D01*
X145028097Y-108608990D01*
X145114135Y-108480828D01*
X145138603Y-108445098D01*
X145227755Y-108315234D01*
X145307738Y-108198314D01*
X145374080Y-108100907D01*
X145422311Y-108029584D01*
X145447957Y-107990915D01*
X145450435Y-107986917D01*
X145446729Y-107956100D01*
X145427061Y-107888344D01*
X145394860Y-107792584D01*
X145353555Y-107677754D01*
X145306575Y-107552789D01*
X145257349Y-107426624D01*
X145209308Y-107308193D01*
X145165881Y-107206430D01*
X145130496Y-107130271D01*
X145106584Y-107088649D01*
X145104884Y-107086653D01*
X145090262Y-107074758D01*
X145065565Y-107062995D01*
X145025372Y-107050146D01*
X144964263Y-107034994D01*
X144876817Y-107016321D01*
X144757612Y-106992910D01*
X144601227Y-106963542D01*
X144402243Y-106927000D01*
X144359160Y-106919143D01*
X144231471Y-106894472D01*
X144120153Y-106870338D01*
X144035045Y-106849069D01*
X143985983Y-106832993D01*
X143979405Y-106829245D01*
X143968564Y-106796018D01*
X143959753Y-106721766D01*
X143952976Y-106615121D01*
X143948240Y-106484712D01*
X143945550Y-106339172D01*
X143944913Y-106187131D01*
X143946334Y-106037221D01*
X143949820Y-105898073D01*
X143955376Y-105778317D01*
X143963008Y-105686586D01*
X143972722Y-105631511D01*
X143978578Y-105620238D01*
X144011180Y-105608868D01*
X144085418Y-105590369D01*
X144193896Y-105566347D01*
X144329217Y-105538407D01*
X144483985Y-105508153D01*
X144568308Y-105492296D01*
X144728296Y-105462389D01*
X144870967Y-105435295D01*
X144989348Y-105412376D01*
X145076465Y-105394988D01*
X145125345Y-105384492D01*
X145133390Y-105382165D01*
X145146987Y-105355931D01*
X145175729Y-105292740D01*
X145215785Y-105201622D01*
X145263324Y-105091602D01*
X145314515Y-104971710D01*
X145365526Y-104850972D01*
X145412526Y-104738416D01*
X145451684Y-104643071D01*
X145479169Y-104573962D01*
X145491149Y-104540119D01*
X145491372Y-104538640D01*
X145477791Y-104511942D01*
X145439715Y-104450505D01*
X145381147Y-104360434D01*
X145306088Y-104247835D01*
X145218540Y-104118815D01*
X145167647Y-104044706D01*
X145074909Y-103908822D01*
X144992541Y-103785454D01*
X144924561Y-103680842D01*
X144874988Y-103601228D01*
X144847842Y-103552852D01*
X144843921Y-103542007D01*
X144860775Y-103516765D01*
X144907368Y-103462869D01*
X144977749Y-103386358D01*
X145065965Y-103293268D01*
X145166065Y-103189640D01*
X145272098Y-103081509D01*
X145378111Y-102974915D01*
X145478152Y-102875895D01*
X145566270Y-102790487D01*
X145636513Y-102724730D01*
X145682928Y-102684661D01*
X145698456Y-102675098D01*
X145723739Y-102688545D01*
X145784211Y-102726320D01*
X145873992Y-102784580D01*
X145987203Y-102859479D01*
X146117964Y-102947170D01*
X146216600Y-103013978D01*
X146714957Y-103352857D01*
X147130371Y-103181610D01*
X147545784Y-103010363D01*
X147658366Y-102413172D01*
X147770949Y-101815980D01*
X149013952Y-101815980D01*
X149126535Y-102413172D01*
G37*
X149126535Y-102413172D02*
X149239117Y-103010363D01*
X149654531Y-103181610D01*
X150069944Y-103352857D01*
X150568302Y-103013978D01*
X150707868Y-102919622D01*
X150834028Y-102835375D01*
X150940895Y-102765083D01*
X151022582Y-102712592D01*
X151073201Y-102681749D01*
X151086986Y-102675098D01*
X151111820Y-102692203D01*
X151164888Y-102739489D01*
X151240240Y-102810917D01*
X151331929Y-102900445D01*
X151434007Y-103002034D01*
X151540526Y-103109643D01*
X151645536Y-103217232D01*
X151743091Y-103318760D01*
X151827242Y-103408186D01*
X151892040Y-103479471D01*
X151931538Y-103526573D01*
X151940980Y-103542337D01*
X151927391Y-103571398D01*
X151889293Y-103635066D01*
X151830694Y-103727112D01*
X151755597Y-103841309D01*
X151668009Y-103971429D01*
X151617254Y-104045646D01*
X151524745Y-104181167D01*
X151442540Y-104303461D01*
X151374630Y-104406440D01*
X151325000Y-104484018D01*
X151297640Y-104530106D01*
X151293529Y-104539792D01*
X151302849Y-104567319D01*
X151328254Y-104631473D01*
X151365911Y-104723235D01*
X151411986Y-104833584D01*
X151462646Y-104953500D01*
X151514059Y-105073964D01*
X151562389Y-105185954D01*
X151603806Y-105280452D01*
X151634474Y-105348437D01*
X151650562Y-105380888D01*
X151651511Y-105382165D01*
X151676772Y-105388362D01*
X151744046Y-105402185D01*
X151846360Y-105422277D01*
X151976741Y-105447279D01*
X152128216Y-105475831D01*
X152216594Y-105492296D01*
X152378452Y-105523114D01*
X152524649Y-105552439D01*
X152647787Y-105578666D01*
X152740469Y-105600191D01*
X152795301Y-105615410D01*
X152806323Y-105620238D01*
X152817119Y-105652919D01*
X152825829Y-105726730D01*
X152832460Y-105833037D01*
X152837018Y-105963212D01*
X152839509Y-106108621D01*
X152839938Y-106260635D01*
X152838311Y-106410622D01*
X152834635Y-106549951D01*
X152828915Y-106669990D01*
X152821158Y-106762110D01*
X152811368Y-106817677D01*
X152805496Y-106829245D01*
X152770399Y-106843110D01*
X152696028Y-106862933D01*
X152592223Y-106886384D01*
X152468819Y-106911136D01*
X152425741Y-106919143D01*
X152218047Y-106957186D01*
X152053984Y-106987824D01*
X151928130Y-107012274D01*
X151835065Y-107031754D01*
X151769367Y-107047481D01*
X151725617Y-107060673D01*
X151698392Y-107072549D01*
X151682272Y-107084325D01*
X151680017Y-107086653D01*
X151657503Y-107124145D01*
X151623158Y-107197110D01*
X151580411Y-107296612D01*
X151532692Y-107413718D01*
X151483430Y-107539493D01*
X151436055Y-107665002D01*
X151393995Y-107781310D01*
X151360680Y-107879484D01*
X151339541Y-107950588D01*
X151334005Y-107985687D01*
X151334466Y-107986917D01*
X151353223Y-108015606D01*
X151395776Y-108078730D01*
X151457653Y-108169718D01*
X151534382Y-108282000D01*
X151621491Y-108409005D01*
X151646299Y-108445098D01*
X151734753Y-108575948D01*
X151812588Y-108695336D01*
X151875566Y-108796407D01*
X151919445Y-108872304D01*
X151939985Y-108916172D01*
X151940980Y-108921562D01*
X151923722Y-108949889D01*
X151876036Y-109006006D01*
X151804050Y-109083882D01*
X151713897Y-109177485D01*
X151611705Y-109280786D01*
X151503606Y-109387751D01*
X151395728Y-109492351D01*
X151294204Y-109588554D01*
X151205162Y-109670329D01*
X151134733Y-109731645D01*
X151089047Y-109766471D01*
X151076409Y-109772157D01*
X151046991Y-109758765D01*
X150986761Y-109722644D01*
X150905530Y-109669881D01*
X150843030Y-109627412D01*
X150729785Y-109549485D01*
X150595674Y-109457729D01*
X150461155Y-109366120D01*
X150388833Y-109317091D01*
X150144038Y-109151515D01*
X149938551Y-109262620D01*
X149844936Y-109311293D01*
X149765330Y-109349126D01*
X149711467Y-109370703D01*
X149697757Y-109373706D01*
X149681270Y-109351538D01*
X149648745Y-109288894D01*
X149602609Y-109191554D01*
X149545290Y-109065294D01*
X149479216Y-108915895D01*
X149406815Y-108749133D01*
X149330516Y-108570787D01*
X149252746Y-108386636D01*
X149175934Y-108202457D01*
X149102506Y-108024030D01*
X149034892Y-107857132D01*
X148975520Y-107707542D01*
X148926816Y-107581038D01*
X148891210Y-107483399D01*
X148871130Y-107420402D01*
X148867900Y-107398766D01*
X148893496Y-107371169D01*
X148949539Y-107326370D01*
X149024311Y-107273679D01*
X149030587Y-107269510D01*
X149223845Y-107114814D01*
X149379674Y-106934336D01*
X149496724Y-106733847D01*
X149573645Y-106519119D01*
X149609086Y-106295922D01*
X149601697Y-106070026D01*
X149550127Y-105847204D01*
X149453026Y-105633224D01*
X149424458Y-105586409D01*
X149275868Y-105397363D01*
X149100327Y-105245557D01*
X148903910Y-105131779D01*
X148692693Y-105056820D01*
X148472753Y-105021467D01*
X148250163Y-105026512D01*
X148031001Y-105072744D01*
X147821342Y-105160951D01*
X147627261Y-105291924D01*
X147567226Y-105345082D01*
X147414435Y-105511484D01*
X147303097Y-105686657D01*
X147226723Y-105883011D01*
X147184187Y-106077462D01*
X147173686Y-106296087D01*
X147208701Y-106515797D01*
X147285673Y-106729165D01*
X147401047Y-106928767D01*
X147551266Y-107107174D01*
X147732773Y-107256962D01*
X147756627Y-107272751D01*
X147832201Y-107324457D01*
X147889651Y-107369257D01*
X147917117Y-107397862D01*
X147917517Y-107398766D01*
X147911620Y-107429709D01*
X147888245Y-107499936D01*
X147849821Y-107603670D01*
X147798777Y-107735135D01*
X147737542Y-107888552D01*
X147668544Y-108058146D01*
X147594214Y-108238138D01*
X147516978Y-108422753D01*
X147439268Y-108606213D01*
X147363511Y-108782741D01*
X147292137Y-108946559D01*
X147227574Y-109091892D01*
X147172252Y-109212962D01*
X147128600Y-109303992D01*
X147099046Y-109359205D01*
X147087144Y-109373706D01*
X147050777Y-109362414D01*
X146982730Y-109332130D01*
X146894737Y-109288265D01*
X146846351Y-109262620D01*
X146640863Y-109151515D01*
X146396068Y-109317091D01*
X146271106Y-109401915D01*
X146134295Y-109495261D01*
X146006089Y-109583153D01*
X145941871Y-109627412D01*
X145851551Y-109688063D01*
X145775071Y-109736126D01*
X145722407Y-109765515D01*
X145705302Y-109771727D01*
X145680405Y-109754968D01*
X145625305Y-109708181D01*
X145545343Y-109636225D01*
X145445861Y-109543957D01*
X145332200Y-109436235D01*
X145260315Y-109367071D01*
X145134551Y-109243502D01*
X145025863Y-109132979D01*
X144938645Y-109040230D01*
X144877289Y-108969982D01*
X144846191Y-108926965D01*
X144843208Y-108918235D01*
X144857053Y-108885029D01*
X144895312Y-108817887D01*
X144953742Y-108723608D01*
X145028097Y-108608990D01*
X145114135Y-108480828D01*
X145138603Y-108445098D01*
X145227755Y-108315234D01*
X145307738Y-108198314D01*
X145374080Y-108100907D01*
X145422311Y-108029584D01*
X145447957Y-107990915D01*
X145450435Y-107986917D01*
X145446729Y-107956100D01*
X145427061Y-107888344D01*
X145394860Y-107792584D01*
X145353555Y-107677754D01*
X145306575Y-107552789D01*
X145257349Y-107426624D01*
X145209308Y-107308193D01*
X145165881Y-107206430D01*
X145130496Y-107130271D01*
X145106584Y-107088649D01*
X145104884Y-107086653D01*
X145090262Y-107074758D01*
X145065565Y-107062995D01*
X145025372Y-107050146D01*
X144964263Y-107034994D01*
X144876817Y-107016321D01*
X144757612Y-106992910D01*
X144601227Y-106963542D01*
X144402243Y-106927000D01*
X144359160Y-106919143D01*
X144231471Y-106894472D01*
X144120153Y-106870338D01*
X144035045Y-106849069D01*
X143985983Y-106832993D01*
X143979405Y-106829245D01*
X143968564Y-106796018D01*
X143959753Y-106721766D01*
X143952976Y-106615121D01*
X143948240Y-106484712D01*
X143945550Y-106339172D01*
X143944913Y-106187131D01*
X143946334Y-106037221D01*
X143949820Y-105898073D01*
X143955376Y-105778317D01*
X143963008Y-105686586D01*
X143972722Y-105631511D01*
X143978578Y-105620238D01*
X144011180Y-105608868D01*
X144085418Y-105590369D01*
X144193896Y-105566347D01*
X144329217Y-105538407D01*
X144483985Y-105508153D01*
X144568308Y-105492296D01*
X144728296Y-105462389D01*
X144870967Y-105435295D01*
X144989348Y-105412376D01*
X145076465Y-105394988D01*
X145125345Y-105384492D01*
X145133390Y-105382165D01*
X145146987Y-105355931D01*
X145175729Y-105292740D01*
X145215785Y-105201622D01*
X145263324Y-105091602D01*
X145314515Y-104971710D01*
X145365526Y-104850972D01*
X145412526Y-104738416D01*
X145451684Y-104643071D01*
X145479169Y-104573962D01*
X145491149Y-104540119D01*
X145491372Y-104538640D01*
X145477791Y-104511942D01*
X145439715Y-104450505D01*
X145381147Y-104360434D01*
X145306088Y-104247835D01*
X145218540Y-104118815D01*
X145167647Y-104044706D01*
X145074909Y-103908822D01*
X144992541Y-103785454D01*
X144924561Y-103680842D01*
X144874988Y-103601228D01*
X144847842Y-103552852D01*
X144843921Y-103542007D01*
X144860775Y-103516765D01*
X144907368Y-103462869D01*
X144977749Y-103386358D01*
X145065965Y-103293268D01*
X145166065Y-103189640D01*
X145272098Y-103081509D01*
X145378111Y-102974915D01*
X145478152Y-102875895D01*
X145566270Y-102790487D01*
X145636513Y-102724730D01*
X145682928Y-102684661D01*
X145698456Y-102675098D01*
X145723739Y-102688545D01*
X145784211Y-102726320D01*
X145873992Y-102784580D01*
X145987203Y-102859479D01*
X146117964Y-102947170D01*
X146216600Y-103013978D01*
X146714957Y-103352857D01*
X147130371Y-103181610D01*
X147545784Y-103010363D01*
X147658366Y-102413172D01*
X147770949Y-101815980D01*
X149013952Y-101815980D01*
X149126535Y-102413172D01*
G36*
X151943637Y-110667472D02*
G01*
X152029290Y-110693641D01*
X152084437Y-110726707D01*
X152102401Y-110752855D01*
X152097457Y-110783852D01*
X152065372Y-110832547D01*
X152038243Y-110867035D01*
X151982317Y-110929383D01*
X151940299Y-110955615D01*
X151904480Y-110953903D01*
X151798224Y-110926863D01*
X151720189Y-110928091D01*
X151656820Y-110958735D01*
X151635546Y-110976670D01*
X151567451Y-111039779D01*
X151567451Y-111863922D01*
X151293529Y-111863922D01*
X151293529Y-110668628D01*
X151430490Y-110668628D01*
X151512719Y-110671879D01*
X151555144Y-110683426D01*
X151567445Y-110705952D01*
X151567451Y-110706620D01*
X151573260Y-110730215D01*
X151599531Y-110727138D01*
X151635931Y-110710115D01*
X151711111Y-110678439D01*
X151772158Y-110659381D01*
X151850708Y-110654496D01*
X151943637Y-110667472D01*
G37*
X151943637Y-110667472D02*
X152029290Y-110693641D01*
X152084437Y-110726707D01*
X152102401Y-110752855D01*
X152097457Y-110783852D01*
X152065372Y-110832547D01*
X152038243Y-110867035D01*
X151982317Y-110929383D01*
X151940299Y-110955615D01*
X151904480Y-110953903D01*
X151798224Y-110926863D01*
X151720189Y-110928091D01*
X151656820Y-110958735D01*
X151635546Y-110976670D01*
X151567451Y-111039779D01*
X151567451Y-111863922D01*
X151293529Y-111863922D01*
X151293529Y-110668628D01*
X151430490Y-110668628D01*
X151512719Y-110671879D01*
X151555144Y-110683426D01*
X151567445Y-110705952D01*
X151567451Y-110706620D01*
X151573260Y-110730215D01*
X151599531Y-110727138D01*
X151635931Y-110710115D01*
X151711111Y-110678439D01*
X151772158Y-110659381D01*
X151850708Y-110654496D01*
X151943637Y-110667472D01*
G36*
X146886760Y-110689199D02*
G01*
X146948736Y-110718802D01*
X147008759Y-110761561D01*
X147054486Y-110810775D01*
X147087793Y-110873544D01*
X147110555Y-110956971D01*
X147124647Y-111068159D01*
X147131942Y-111214209D01*
X147134318Y-111402223D01*
X147134355Y-111421912D01*
X147134902Y-111863922D01*
X146860980Y-111863922D01*
X146860980Y-111456435D01*
X146860785Y-111305471D01*
X146859436Y-111196056D01*
X146855788Y-111119933D01*
X146848696Y-111068848D01*
X146837013Y-111034545D01*
X146819594Y-111008768D01*
X146795329Y-110983298D01*
X146710435Y-110928571D01*
X146617761Y-110918416D01*
X146529473Y-110953017D01*
X146498770Y-110978770D01*
X146476229Y-111002982D01*
X146460046Y-111028912D01*
X146449168Y-111064708D01*
X146442542Y-111118519D01*
X146439115Y-111198493D01*
X146437834Y-111312779D01*
X146437647Y-111451907D01*
X146437647Y-111863922D01*
X146163725Y-111863922D01*
X146163725Y-110668628D01*
X146300686Y-110668628D01*
X146382916Y-110671879D01*
X146425340Y-110683426D01*
X146437641Y-110705952D01*
X146437647Y-110706620D01*
X146443354Y-110728681D01*
X146468527Y-110726177D01*
X146518578Y-110701937D01*
X146632094Y-110666271D01*
X146761945Y-110662305D01*
X146886760Y-110689199D01*
G37*
X146886760Y-110689199D02*
X146948736Y-110718802D01*
X147008759Y-110761561D01*
X147054486Y-110810775D01*
X147087793Y-110873544D01*
X147110555Y-110956971D01*
X147124647Y-111068159D01*
X147131942Y-111214209D01*
X147134318Y-111402223D01*
X147134355Y-111421912D01*
X147134902Y-111863922D01*
X146860980Y-111863922D01*
X146860980Y-111456435D01*
X146860785Y-111305471D01*
X146859436Y-111196056D01*
X146855788Y-111119933D01*
X146848696Y-111068848D01*
X146837013Y-111034545D01*
X146819594Y-111008768D01*
X146795329Y-110983298D01*
X146710435Y-110928571D01*
X146617761Y-110918416D01*
X146529473Y-110953017D01*
X146498770Y-110978770D01*
X146476229Y-111002982D01*
X146460046Y-111028912D01*
X146449168Y-111064708D01*
X146442542Y-111118519D01*
X146439115Y-111198493D01*
X146437834Y-111312779D01*
X146437647Y-111451907D01*
X146437647Y-111863922D01*
X146163725Y-111863922D01*
X146163725Y-110668628D01*
X146300686Y-110668628D01*
X146382916Y-110671879D01*
X146425340Y-110683426D01*
X146437641Y-110705952D01*
X146437647Y-110706620D01*
X146443354Y-110728681D01*
X146468527Y-110726177D01*
X146518578Y-110701937D01*
X146632094Y-110666271D01*
X146761945Y-110662305D01*
X146886760Y-110689199D01*
G36*
X153683287Y-110664355D02*
G01*
X153747051Y-110679845D01*
X153869300Y-110736569D01*
X153973834Y-110823202D01*
X154046180Y-110927074D01*
X154056119Y-110950396D01*
X154069754Y-111011484D01*
X154079298Y-111101853D01*
X154082549Y-111193190D01*
X154082549Y-111365882D01*
X153721470Y-111365882D01*
X153572546Y-111366445D01*
X153467632Y-111369864D01*
X153400937Y-111378731D01*
X153366666Y-111395641D01*
X153359028Y-111423189D01*
X153372229Y-111463968D01*
X153395877Y-111511683D01*
X153461843Y-111591314D01*
X153553512Y-111630987D01*
X153665555Y-111629695D01*
X153792472Y-111586514D01*
X153902158Y-111533224D01*
X153993173Y-111605191D01*
X154084188Y-111677157D01*
X153998563Y-111756269D01*
X153884250Y-111831017D01*
X153743666Y-111876084D01*
X153592449Y-111888696D01*
X153446236Y-111866079D01*
X153422647Y-111858405D01*
X153294141Y-111791296D01*
X153198551Y-111691247D01*
X153133861Y-111555271D01*
X153098057Y-111380380D01*
X153097640Y-111376632D01*
X153094434Y-111186032D01*
X153107393Y-111118035D01*
X153360392Y-111118035D01*
X153383627Y-111128491D01*
X153446710Y-111136500D01*
X153539706Y-111141073D01*
X153598638Y-111141765D01*
X153708537Y-111141332D01*
X153777252Y-111138578D01*
X153813405Y-111131321D01*
X153825615Y-111117376D01*
X153822504Y-111094562D01*
X153819894Y-111085735D01*
X153775344Y-111002800D01*
X153705279Y-110935960D01*
X153643446Y-110906589D01*
X153561301Y-110908362D01*
X153478062Y-110944990D01*
X153408238Y-111005634D01*
X153366337Y-111079456D01*
X153360392Y-111118035D01*
X153107393Y-111118035D01*
X153126385Y-111018395D01*
X153189773Y-110877711D01*
X153280878Y-110767974D01*
X153395978Y-110693174D01*
X153531355Y-110657304D01*
X153683287Y-110664355D01*
G37*
X153683287Y-110664355D02*
X153747051Y-110679845D01*
X153869300Y-110736569D01*
X153973834Y-110823202D01*
X154046180Y-110927074D01*
X154056119Y-110950396D01*
X154069754Y-111011484D01*
X154079298Y-111101853D01*
X154082549Y-111193190D01*
X154082549Y-111365882D01*
X153721470Y-111365882D01*
X153572546Y-111366445D01*
X153467632Y-111369864D01*
X153400937Y-111378731D01*
X153366666Y-111395641D01*
X153359028Y-111423189D01*
X153372229Y-111463968D01*
X153395877Y-111511683D01*
X153461843Y-111591314D01*
X153553512Y-111630987D01*
X153665555Y-111629695D01*
X153792472Y-111586514D01*
X153902158Y-111533224D01*
X153993173Y-111605191D01*
X154084188Y-111677157D01*
X153998563Y-111756269D01*
X153884250Y-111831017D01*
X153743666Y-111876084D01*
X153592449Y-111888696D01*
X153446236Y-111866079D01*
X153422647Y-111858405D01*
X153294141Y-111791296D01*
X153198551Y-111691247D01*
X153133861Y-111555271D01*
X153098057Y-111380380D01*
X153097640Y-111376632D01*
X153094434Y-111186032D01*
X153107393Y-111118035D01*
X153360392Y-111118035D01*
X153383627Y-111128491D01*
X153446710Y-111136500D01*
X153539706Y-111141073D01*
X153598638Y-111141765D01*
X153708537Y-111141332D01*
X153777252Y-111138578D01*
X153813405Y-111131321D01*
X153825615Y-111117376D01*
X153822504Y-111094562D01*
X153819894Y-111085735D01*
X153775344Y-111002800D01*
X153705279Y-110935960D01*
X153643446Y-110906589D01*
X153561301Y-110908362D01*
X153478062Y-110944990D01*
X153408238Y-111005634D01*
X153366337Y-111079456D01*
X153360392Y-111118035D01*
X153107393Y-111118035D01*
X153126385Y-111018395D01*
X153189773Y-110877711D01*
X153280878Y-110767974D01*
X153395978Y-110693174D01*
X153531355Y-110657304D01*
X153683287Y-110664355D01*
G36*
X152770976Y-110679056D02*
G01*
X152915256Y-110740348D01*
X152960699Y-110770185D01*
X153018779Y-110816036D01*
X153055238Y-110852089D01*
X153061568Y-110863832D01*
X153043693Y-110889889D01*
X152997950Y-110934105D01*
X152961328Y-110964965D01*
X152861088Y-111045520D01*
X152781935Y-110978918D01*
X152720769Y-110935921D01*
X152661129Y-110921079D01*
X152592872Y-110924704D01*
X152484482Y-110951652D01*
X152409872Y-111007587D01*
X152364530Y-111098014D01*
X152343947Y-111228435D01*
X152343942Y-111228517D01*
X152345722Y-111374290D01*
X152373387Y-111481245D01*
X152428571Y-111554064D01*
X152466192Y-111578723D01*
X152566105Y-111609431D01*
X152672822Y-111609449D01*
X152765669Y-111579655D01*
X152787647Y-111565098D01*
X152842765Y-111527914D01*
X152885859Y-111521820D01*
X152932335Y-111549496D01*
X152983716Y-111599205D01*
X153065046Y-111683116D01*
X152974749Y-111757546D01*
X152835236Y-111841549D01*
X152677912Y-111882947D01*
X152513503Y-111879950D01*
X152405531Y-111852500D01*
X152279331Y-111784620D01*
X152178401Y-111677831D01*
X152132548Y-111602451D01*
X152095410Y-111494297D01*
X152076827Y-111357318D01*
X152076684Y-111208864D01*
X152094865Y-111066281D01*
X152131255Y-110946918D01*
X152136987Y-110934680D01*
X152221865Y-110814655D01*
X152336782Y-110727267D01*
X152472659Y-110674329D01*
X152620417Y-110657654D01*
X152770976Y-110679056D01*
G37*
X152770976Y-110679056D02*
X152915256Y-110740348D01*
X152960699Y-110770185D01*
X153018779Y-110816036D01*
X153055238Y-110852089D01*
X153061568Y-110863832D01*
X153043693Y-110889889D01*
X152997950Y-110934105D01*
X152961328Y-110964965D01*
X152861088Y-111045520D01*
X152781935Y-110978918D01*
X152720769Y-110935921D01*
X152661129Y-110921079D01*
X152592872Y-110924704D01*
X152484482Y-110951652D01*
X152409872Y-111007587D01*
X152364530Y-111098014D01*
X152343947Y-111228435D01*
X152343942Y-111228517D01*
X152345722Y-111374290D01*
X152373387Y-111481245D01*
X152428571Y-111554064D01*
X152466192Y-111578723D01*
X152566105Y-111609431D01*
X152672822Y-111609449D01*
X152765669Y-111579655D01*
X152787647Y-111565098D01*
X152842765Y-111527914D01*
X152885859Y-111521820D01*
X152932335Y-111549496D01*
X152983716Y-111599205D01*
X153065046Y-111683116D01*
X152974749Y-111757546D01*
X152835236Y-111841549D01*
X152677912Y-111882947D01*
X152513503Y-111879950D01*
X152405531Y-111852500D01*
X152279331Y-111784620D01*
X152178401Y-111677831D01*
X152132548Y-111602451D01*
X152095410Y-111494297D01*
X152076827Y-111357318D01*
X152076684Y-111208864D01*
X152094865Y-111066281D01*
X152131255Y-110946918D01*
X152136987Y-110934680D01*
X152221865Y-110814655D01*
X152336782Y-110727267D01*
X152472659Y-110674329D01*
X152620417Y-110657654D01*
X152770976Y-110679056D01*
G36*
X150347254Y-111056245D02*
G01*
X150349608Y-111238879D01*
X150358207Y-111377600D01*
X150375360Y-111478147D01*
X150403374Y-111546254D01*
X150444557Y-111587659D01*
X150501217Y-111608097D01*
X150571372Y-111613318D01*
X150644848Y-111607468D01*
X150700657Y-111586093D01*
X150741109Y-111543458D01*
X150768509Y-111473825D01*
X150785167Y-111371460D01*
X150793389Y-111230624D01*
X150795490Y-111056245D01*
X150795490Y-110668628D01*
X151069411Y-110668628D01*
X151069411Y-111863922D01*
X150932451Y-111863922D01*
X150849884Y-111860576D01*
X150807368Y-111848826D01*
X150795490Y-111826520D01*
X150788336Y-111806654D01*
X150759865Y-111810857D01*
X150702476Y-111838971D01*
X150570945Y-111882342D01*
X150431438Y-111879270D01*
X150297765Y-111832174D01*
X150234108Y-111794971D01*
X150185553Y-111754691D01*
X150150081Y-111704291D01*
X150125674Y-111636729D01*
X150110313Y-111544965D01*
X150101982Y-111421955D01*
X150098662Y-111260659D01*
X150098235Y-111135928D01*
X150098235Y-110668628D01*
X150347254Y-110668628D01*
X150347254Y-111056245D01*
G37*
X150347254Y-111056245D02*
X150349608Y-111238879D01*
X150358207Y-111377600D01*
X150375360Y-111478147D01*
X150403374Y-111546254D01*
X150444557Y-111587659D01*
X150501217Y-111608097D01*
X150571372Y-111613318D01*
X150644848Y-111607468D01*
X150700657Y-111586093D01*
X150741109Y-111543458D01*
X150768509Y-111473825D01*
X150785167Y-111371460D01*
X150793389Y-111230624D01*
X150795490Y-111056245D01*
X150795490Y-110668628D01*
X151069411Y-110668628D01*
X151069411Y-111863922D01*
X150932451Y-111863922D01*
X150849884Y-111860576D01*
X150807368Y-111848826D01*
X150795490Y-111826520D01*
X150788336Y-111806654D01*
X150759865Y-111810857D01*
X150702476Y-111838971D01*
X150570945Y-111882342D01*
X150431438Y-111879270D01*
X150297765Y-111832174D01*
X150234108Y-111794971D01*
X150185553Y-111754691D01*
X150150081Y-111704291D01*
X150125674Y-111636729D01*
X150110313Y-111544965D01*
X150101982Y-111421955D01*
X150098662Y-111260659D01*
X150098235Y-111135928D01*
X150098235Y-110668628D01*
X150347254Y-110668628D01*
X150347254Y-111056245D01*
G36*
X149589547Y-110683364D02*
G01*
X149715502Y-110751959D01*
X149814047Y-110860245D01*
X149860478Y-110948315D01*
X149880412Y-111026101D01*
X149893328Y-111136993D01*
X149898863Y-111264738D01*
X149896654Y-111393084D01*
X149886337Y-111505779D01*
X149874286Y-111565969D01*
X149833634Y-111648311D01*
X149763230Y-111735770D01*
X149678382Y-111812251D01*
X149594397Y-111861655D01*
X149592349Y-111862439D01*
X149488134Y-111884027D01*
X149364627Y-111884562D01*
X149247261Y-111864908D01*
X149201942Y-111849155D01*
X149085220Y-111782966D01*
X149001624Y-111696246D01*
X148946701Y-111581438D01*
X148915995Y-111430982D01*
X148909047Y-111352173D01*
X148909933Y-111253145D01*
X149176862Y-111253145D01*
X149185854Y-111397645D01*
X149211736Y-111507760D01*
X149252868Y-111578116D01*
X149282172Y-111598235D01*
X149357251Y-111612265D01*
X149446494Y-111608111D01*
X149523650Y-111587922D01*
X149543883Y-111576815D01*
X149597265Y-111512123D01*
X149632500Y-111413119D01*
X149647498Y-111292632D01*
X149640172Y-111163494D01*
X149623799Y-111085775D01*
X149576790Y-110995771D01*
X149502582Y-110939509D01*
X149413209Y-110920057D01*
X149320707Y-110940481D01*
X149249653Y-110990437D01*
X149212312Y-111031655D01*
X149190518Y-111072281D01*
X149180130Y-111127264D01*
X149177006Y-111211549D01*
X149176862Y-111253145D01*
X148909933Y-111253145D01*
X148910930Y-111141874D01*
X148945180Y-110969423D01*
X149011802Y-110834814D01*
X149110799Y-110738040D01*
X149242175Y-110679094D01*
X149270385Y-110672259D01*
X149439926Y-110656213D01*
X149589547Y-110683364D01*
G37*
X149589547Y-110683364D02*
X149715502Y-110751959D01*
X149814047Y-110860245D01*
X149860478Y-110948315D01*
X149880412Y-111026101D01*
X149893328Y-111136993D01*
X149898863Y-111264738D01*
X149896654Y-111393084D01*
X149886337Y-111505779D01*
X149874286Y-111565969D01*
X149833634Y-111648311D01*
X149763230Y-111735770D01*
X149678382Y-111812251D01*
X149594397Y-111861655D01*
X149592349Y-111862439D01*
X149488134Y-111884027D01*
X149364627Y-111884562D01*
X149247261Y-111864908D01*
X149201942Y-111849155D01*
X149085220Y-111782966D01*
X149001624Y-111696246D01*
X148946701Y-111581438D01*
X148915995Y-111430982D01*
X148909047Y-111352173D01*
X148909933Y-111253145D01*
X149176862Y-111253145D01*
X149185854Y-111397645D01*
X149211736Y-111507760D01*
X149252868Y-111578116D01*
X149282172Y-111598235D01*
X149357251Y-111612265D01*
X149446494Y-111608111D01*
X149523650Y-111587922D01*
X149543883Y-111576815D01*
X149597265Y-111512123D01*
X149632500Y-111413119D01*
X149647498Y-111292632D01*
X149640172Y-111163494D01*
X149623799Y-111085775D01*
X149576790Y-110995771D01*
X149502582Y-110939509D01*
X149413209Y-110920057D01*
X149320707Y-110940481D01*
X149249653Y-110990437D01*
X149212312Y-111031655D01*
X149190518Y-111072281D01*
X149180130Y-111127264D01*
X149177006Y-111211549D01*
X149176862Y-111253145D01*
X148909933Y-111253145D01*
X148910930Y-111141874D01*
X148945180Y-110969423D01*
X149011802Y-110834814D01*
X149110799Y-110738040D01*
X149242175Y-110679094D01*
X149270385Y-110672259D01*
X149439926Y-110656213D01*
X149589547Y-110683364D01*
G36*
X148407759Y-110664345D02*
G01*
X148502059Y-110682229D01*
X148599890Y-110719633D01*
X148610343Y-110724402D01*
X148684531Y-110763412D01*
X148735910Y-110799664D01*
X148752517Y-110822887D01*
X148736702Y-110860761D01*
X148698288Y-110916644D01*
X148681237Y-110937505D01*
X148610969Y-111019618D01*
X148520379Y-110966168D01*
X148434164Y-110930561D01*
X148334549Y-110911529D01*
X148239019Y-110910326D01*
X148165061Y-110928210D01*
X148147312Y-110939373D01*
X148113512Y-110990553D01*
X148109404Y-111049509D01*
X148134696Y-111095567D01*
X148149656Y-111104499D01*
X148194486Y-111115592D01*
X148273286Y-111128630D01*
X148370426Y-111141088D01*
X148388346Y-111143042D01*
X148544365Y-111170030D01*
X148657523Y-111215873D01*
X148732569Y-111284803D01*
X148774253Y-111381054D01*
X148787238Y-111498617D01*
X148769299Y-111632254D01*
X148711050Y-111737195D01*
X148612255Y-111813630D01*
X148472682Y-111861748D01*
X148317745Y-111880732D01*
X148191398Y-111880504D01*
X148088913Y-111863262D01*
X148018921Y-111839457D01*
X147930483Y-111797978D01*
X147848754Y-111749842D01*
X147819705Y-111728655D01*
X147745000Y-111667676D01*
X147835098Y-111576508D01*
X147925196Y-111485339D01*
X148027632Y-111553128D01*
X148130374Y-111604042D01*
X148240087Y-111630673D01*
X148345551Y-111633483D01*
X148435546Y-111612935D01*
X148498854Y-111569493D01*
X148519296Y-111532838D01*
X148516229Y-111474053D01*
X148465434Y-111429099D01*
X148367048Y-111398057D01*
X148259256Y-111383710D01*
X148093365Y-111356337D01*
X147970124Y-111304693D01*
X147887886Y-111227266D01*
X147845001Y-111122544D01*
X147839060Y-110998387D01*
X147868406Y-110868702D01*
X147935309Y-110770677D01*
X148040371Y-110703866D01*
X148184190Y-110667820D01*
X148290738Y-110660754D01*
X148407759Y-110664345D01*
G37*
X148407759Y-110664345D02*
X148502059Y-110682229D01*
X148599890Y-110719633D01*
X148610343Y-110724402D01*
X148684531Y-110763412D01*
X148735910Y-110799664D01*
X148752517Y-110822887D01*
X148736702Y-110860761D01*
X148698288Y-110916644D01*
X148681237Y-110937505D01*
X148610969Y-111019618D01*
X148520379Y-110966168D01*
X148434164Y-110930561D01*
X148334549Y-110911529D01*
X148239019Y-110910326D01*
X148165061Y-110928210D01*
X148147312Y-110939373D01*
X148113512Y-110990553D01*
X148109404Y-111049509D01*
X148134696Y-111095567D01*
X148149656Y-111104499D01*
X148194486Y-111115592D01*
X148273286Y-111128630D01*
X148370426Y-111141088D01*
X148388346Y-111143042D01*
X148544365Y-111170030D01*
X148657523Y-111215873D01*
X148732569Y-111284803D01*
X148774253Y-111381054D01*
X148787238Y-111498617D01*
X148769299Y-111632254D01*
X148711050Y-111737195D01*
X148612255Y-111813630D01*
X148472682Y-111861748D01*
X148317745Y-111880732D01*
X148191398Y-111880504D01*
X148088913Y-111863262D01*
X148018921Y-111839457D01*
X147930483Y-111797978D01*
X147848754Y-111749842D01*
X147819705Y-111728655D01*
X147745000Y-111667676D01*
X147835098Y-111576508D01*
X147925196Y-111485339D01*
X148027632Y-111553128D01*
X148130374Y-111604042D01*
X148240087Y-111630673D01*
X148345551Y-111633483D01*
X148435546Y-111612935D01*
X148498854Y-111569493D01*
X148519296Y-111532838D01*
X148516229Y-111474053D01*
X148465434Y-111429099D01*
X148367048Y-111398057D01*
X148259256Y-111383710D01*
X148093365Y-111356337D01*
X147970124Y-111304693D01*
X147887886Y-111227266D01*
X147845001Y-111122544D01*
X147839060Y-110998387D01*
X147868406Y-110868702D01*
X147935309Y-110770677D01*
X148040371Y-110703866D01*
X148184190Y-110667820D01*
X148290738Y-110660754D01*
X148407759Y-110664345D01*
G36*
X145693204Y-110696354D02*
G01*
X145718019Y-110708037D01*
X145803906Y-110770951D01*
X145885121Y-110862769D01*
X145945764Y-110963868D01*
X145963012Y-111010349D01*
X145978749Y-111093376D01*
X145988133Y-111193713D01*
X145989272Y-111235147D01*
X145989411Y-111365882D01*
X145236953Y-111365882D01*
X145252993Y-111434363D01*
X145292363Y-111515355D01*
X145361194Y-111585351D01*
X145443081Y-111630441D01*
X145495263Y-111639804D01*
X145566029Y-111628441D01*
X145650460Y-111599943D01*
X145679142Y-111586831D01*
X145785209Y-111533858D01*
X145875728Y-111602901D01*
X145927961Y-111649597D01*
X145955753Y-111688140D01*
X145957160Y-111699452D01*
X145932332Y-111726868D01*
X145877917Y-111768532D01*
X145828528Y-111801037D01*
X145695252Y-111859468D01*
X145545839Y-111885915D01*
X145397751Y-111879039D01*
X145279705Y-111843096D01*
X145158018Y-111766101D01*
X145071540Y-111664728D01*
X145017441Y-111533570D01*
X144992891Y-111367224D01*
X144990714Y-111291108D01*
X144999427Y-111116685D01*
X145000497Y-111111611D01*
X145249827Y-111111611D01*
X145256694Y-111127968D01*
X145284917Y-111136988D01*
X145343127Y-111140854D01*
X145439958Y-111141749D01*
X145477243Y-111141765D01*
X145590683Y-111140413D01*
X145662622Y-111135505D01*
X145701313Y-111125760D01*
X145715005Y-111109899D01*
X145715490Y-111104805D01*
X145699863Y-111064326D01*
X145660753Y-111007621D01*
X145643939Y-110987766D01*
X145581519Y-110931611D01*
X145516453Y-110909532D01*
X145481397Y-110907686D01*
X145386558Y-110930766D01*
X145307027Y-110992759D01*
X145256577Y-111082802D01*
X145255683Y-111085735D01*
X145249827Y-111111611D01*
X145000497Y-111111611D01*
X145028399Y-110979343D01*
X145080590Y-110869461D01*
X145144421Y-110791461D01*
X145262433Y-110706882D01*
X145401158Y-110661686D01*
X145548710Y-110657600D01*
X145693204Y-110696354D01*
G37*
X145693204Y-110696354D02*
X145718019Y-110708037D01*
X145803906Y-110770951D01*
X145885121Y-110862769D01*
X145945764Y-110963868D01*
X145963012Y-111010349D01*
X145978749Y-111093376D01*
X145988133Y-111193713D01*
X145989272Y-111235147D01*
X145989411Y-111365882D01*
X145236953Y-111365882D01*
X145252993Y-111434363D01*
X145292363Y-111515355D01*
X145361194Y-111585351D01*
X145443081Y-111630441D01*
X145495263Y-111639804D01*
X145566029Y-111628441D01*
X145650460Y-111599943D01*
X145679142Y-111586831D01*
X145785209Y-111533858D01*
X145875728Y-111602901D01*
X145927961Y-111649597D01*
X145955753Y-111688140D01*
X145957160Y-111699452D01*
X145932332Y-111726868D01*
X145877917Y-111768532D01*
X145828528Y-111801037D01*
X145695252Y-111859468D01*
X145545839Y-111885915D01*
X145397751Y-111879039D01*
X145279705Y-111843096D01*
X145158018Y-111766101D01*
X145071540Y-111664728D01*
X145017441Y-111533570D01*
X144992891Y-111367224D01*
X144990714Y-111291108D01*
X144999427Y-111116685D01*
X145000497Y-111111611D01*
X145249827Y-111111611D01*
X145256694Y-111127968D01*
X145284917Y-111136988D01*
X145343127Y-111140854D01*
X145439958Y-111141749D01*
X145477243Y-111141765D01*
X145590683Y-111140413D01*
X145662622Y-111135505D01*
X145701313Y-111125760D01*
X145715005Y-111109899D01*
X145715490Y-111104805D01*
X145699863Y-111064326D01*
X145660753Y-111007621D01*
X145643939Y-110987766D01*
X145581519Y-110931611D01*
X145516453Y-110909532D01*
X145481397Y-110907686D01*
X145386558Y-110930766D01*
X145307027Y-110992759D01*
X145256577Y-111082802D01*
X145255683Y-111085735D01*
X145249827Y-111111611D01*
X145000497Y-111111611D01*
X145028399Y-110979343D01*
X145080590Y-110869461D01*
X145144421Y-110791461D01*
X145262433Y-110706882D01*
X145401158Y-110661686D01*
X145548710Y-110657600D01*
X145693204Y-110696354D01*
G36*
X143353247Y-110681568D02*
G01*
X143483522Y-110739163D01*
X143582419Y-110835334D01*
X143650082Y-110970229D01*
X143686655Y-111143996D01*
X143689276Y-111171126D01*
X143691330Y-111362408D01*
X143664699Y-111530073D01*
X143611001Y-111665967D01*
X143582247Y-111709681D01*
X143482091Y-111802198D01*
X143354537Y-111862119D01*
X143211837Y-111886985D01*
X143066240Y-111874339D01*
X142955562Y-111835391D01*
X142860384Y-111769755D01*
X142782594Y-111683699D01*
X142781249Y-111681685D01*
X142749657Y-111628570D01*
X142729127Y-111575160D01*
X142716695Y-111507754D01*
X142709397Y-111412653D01*
X142706182Y-111334666D01*
X142704844Y-111263944D01*
X142953814Y-111263944D01*
X142956247Y-111334348D01*
X142965080Y-111428068D01*
X142980664Y-111488214D01*
X143008766Y-111531006D01*
X143035086Y-111556002D01*
X143128392Y-111608338D01*
X143226020Y-111615333D01*
X143316942Y-111577676D01*
X143362402Y-111535479D01*
X143395162Y-111492956D01*
X143414323Y-111452267D01*
X143422733Y-111399314D01*
X143423237Y-111319997D01*
X143420645Y-111246950D01*
X143415071Y-111142601D01*
X143406234Y-111074920D01*
X143390307Y-111030774D01*
X143363462Y-110997031D01*
X143342189Y-110977746D01*
X143253206Y-110927086D01*
X143157211Y-110924560D01*
X143076719Y-110954567D01*
X143008053Y-111017231D01*
X142967144Y-111120168D01*
X142953814Y-111263944D01*
X142704844Y-111263944D01*
X142703246Y-111179582D01*
X142708260Y-111063600D01*
X142723283Y-110976367D01*
X142750376Y-110907530D01*
X142791600Y-110846737D01*
X142806885Y-110828686D01*
X142902454Y-110738746D01*
X143004961Y-110686211D01*
X143130321Y-110664201D01*
X143191450Y-110662402D01*
X143353247Y-110681568D01*
G37*
X143353247Y-110681568D02*
X143483522Y-110739163D01*
X143582419Y-110835334D01*
X143650082Y-110970229D01*
X143686655Y-111143996D01*
X143689276Y-111171126D01*
X143691330Y-111362408D01*
X143664699Y-111530073D01*
X143611001Y-111665967D01*
X143582247Y-111709681D01*
X143482091Y-111802198D01*
X143354537Y-111862119D01*
X143211837Y-111886985D01*
X143066240Y-111874339D01*
X142955562Y-111835391D01*
X142860384Y-111769755D01*
X142782594Y-111683699D01*
X142781249Y-111681685D01*
X142749657Y-111628570D01*
X142729127Y-111575160D01*
X142716695Y-111507754D01*
X142709397Y-111412653D01*
X142706182Y-111334666D01*
X142704844Y-111263944D01*
X142953814Y-111263944D01*
X142956247Y-111334348D01*
X142965080Y-111428068D01*
X142980664Y-111488214D01*
X143008766Y-111531006D01*
X143035086Y-111556002D01*
X143128392Y-111608338D01*
X143226020Y-111615333D01*
X143316942Y-111577676D01*
X143362402Y-111535479D01*
X143395162Y-111492956D01*
X143414323Y-111452267D01*
X143422733Y-111399314D01*
X143423237Y-111319997D01*
X143420645Y-111246950D01*
X143415071Y-111142601D01*
X143406234Y-111074920D01*
X143390307Y-111030774D01*
X143363462Y-110997031D01*
X143342189Y-110977746D01*
X143253206Y-110927086D01*
X143157211Y-110924560D01*
X143076719Y-110954567D01*
X143008053Y-111017231D01*
X142967144Y-111120168D01*
X142953814Y-111263944D01*
X142704844Y-111263944D01*
X142703246Y-111179582D01*
X142708260Y-111063600D01*
X142723283Y-110976367D01*
X142750376Y-110907530D01*
X142791600Y-110846737D01*
X142806885Y-110828686D01*
X142902454Y-110738746D01*
X143004961Y-110686211D01*
X143130321Y-110664201D01*
X143191450Y-110662402D01*
X143353247Y-110681568D01*
G36*
X152405307Y-112542784D02*
G01*
X152524337Y-112573731D01*
X152624021Y-112637600D01*
X152672288Y-112685313D01*
X152751408Y-112798106D01*
X152796752Y-112928950D01*
X152812330Y-113089792D01*
X152812410Y-113102794D01*
X152812549Y-113233530D01*
X152060091Y-113233530D01*
X152076130Y-113302010D01*
X152105091Y-113364031D01*
X152155778Y-113428654D01*
X152166379Y-113438971D01*
X152257494Y-113494805D01*
X152361400Y-113504275D01*
X152481000Y-113467540D01*
X152501274Y-113457647D01*
X152563456Y-113427574D01*
X152605106Y-113410440D01*
X152612373Y-113408855D01*
X152637740Y-113424242D01*
X152686120Y-113461887D01*
X152710679Y-113482459D01*
X152761570Y-113529714D01*
X152778281Y-113560917D01*
X152766683Y-113589620D01*
X152760483Y-113597468D01*
X152718493Y-113631819D01*
X152649206Y-113673565D01*
X152600882Y-113697935D01*
X152463711Y-113740873D01*
X152311847Y-113754786D01*
X152168024Y-113738300D01*
X152127745Y-113726496D01*
X152003078Y-113659689D01*
X151910671Y-113556892D01*
X151849990Y-113417105D01*
X151820498Y-113239330D01*
X151817260Y-113146373D01*
X151826714Y-113011033D01*
X152065490Y-113011033D01*
X152088584Y-113021038D01*
X152150662Y-113028888D01*
X152240914Y-113033521D01*
X152302058Y-113034314D01*
X152412040Y-113033549D01*
X152481457Y-113029970D01*
X152519538Y-113021649D01*
X152535515Y-113006657D01*
X152538627Y-112984903D01*
X152517278Y-112917892D01*
X152463529Y-112851664D01*
X152392822Y-112800832D01*
X152322089Y-112780038D01*
X152226016Y-112798484D01*
X152142849Y-112851811D01*
X152085186Y-112928677D01*
X152065490Y-113011033D01*
X151826714Y-113011033D01*
X151831028Y-112949291D01*
X151873520Y-112792271D01*
X151945635Y-112674069D01*
X152048273Y-112593440D01*
X152182332Y-112549139D01*
X152254957Y-112540607D01*
X152405307Y-112542784D01*
G37*
X152405307Y-112542784D02*
X152524337Y-112573731D01*
X152624021Y-112637600D01*
X152672288Y-112685313D01*
X152751408Y-112798106D01*
X152796752Y-112928950D01*
X152812330Y-113089792D01*
X152812410Y-113102794D01*
X152812549Y-113233530D01*
X152060091Y-113233530D01*
X152076130Y-113302010D01*
X152105091Y-113364031D01*
X152155778Y-113428654D01*
X152166379Y-113438971D01*
X152257494Y-113494805D01*
X152361400Y-113504275D01*
X152481000Y-113467540D01*
X152501274Y-113457647D01*
X152563456Y-113427574D01*
X152605106Y-113410440D01*
X152612373Y-113408855D01*
X152637740Y-113424242D01*
X152686120Y-113461887D01*
X152710679Y-113482459D01*
X152761570Y-113529714D01*
X152778281Y-113560917D01*
X152766683Y-113589620D01*
X152760483Y-113597468D01*
X152718493Y-113631819D01*
X152649206Y-113673565D01*
X152600882Y-113697935D01*
X152463711Y-113740873D01*
X152311847Y-113754786D01*
X152168024Y-113738300D01*
X152127745Y-113726496D01*
X152003078Y-113659689D01*
X151910671Y-113556892D01*
X151849990Y-113417105D01*
X151820498Y-113239330D01*
X151817260Y-113146373D01*
X151826714Y-113011033D01*
X152065490Y-113011033D01*
X152088584Y-113021038D01*
X152150662Y-113028888D01*
X152240914Y-113033521D01*
X152302058Y-113034314D01*
X152412040Y-113033549D01*
X152481457Y-113029970D01*
X152519538Y-113021649D01*
X152535515Y-113006657D01*
X152538627Y-112984903D01*
X152517278Y-112917892D01*
X152463529Y-112851664D01*
X152392822Y-112800832D01*
X152322089Y-112780038D01*
X152226016Y-112798484D01*
X152142849Y-112851811D01*
X152085186Y-112928677D01*
X152065490Y-113011033D01*
X151826714Y-113011033D01*
X151831028Y-112949291D01*
X151873520Y-112792271D01*
X151945635Y-112674069D01*
X152048273Y-112593440D01*
X152182332Y-112549139D01*
X152254957Y-112540607D01*
X152405307Y-112542784D01*
G36*
X151618446Y-112535883D02*
G01*
X151714177Y-112554755D01*
X151768677Y-112582699D01*
X151826008Y-112629123D01*
X151744441Y-112732111D01*
X151694150Y-112794479D01*
X151660001Y-112824907D01*
X151626063Y-112829555D01*
X151576406Y-112814586D01*
X151553096Y-112806117D01*
X151458063Y-112793622D01*
X151371032Y-112820406D01*
X151307138Y-112880915D01*
X151296759Y-112900208D01*
X151285456Y-112951314D01*
X151276732Y-113045500D01*
X151270997Y-113176089D01*
X151268660Y-113336405D01*
X151268627Y-113359211D01*
X151268627Y-113756471D01*
X150994705Y-113756471D01*
X150994705Y-112536275D01*
X151131666Y-112536275D01*
X151210638Y-112538337D01*
X151251779Y-112547513D01*
X151266992Y-112568290D01*
X151268627Y-112587886D01*
X151268627Y-112639497D01*
X151334240Y-112587886D01*
X151409475Y-112552675D01*
X151510544Y-112535265D01*
X151618446Y-112535883D01*
G37*
X151618446Y-112535883D02*
X151714177Y-112554755D01*
X151768677Y-112582699D01*
X151826008Y-112629123D01*
X151744441Y-112732111D01*
X151694150Y-112794479D01*
X151660001Y-112824907D01*
X151626063Y-112829555D01*
X151576406Y-112814586D01*
X151553096Y-112806117D01*
X151458063Y-112793622D01*
X151371032Y-112820406D01*
X151307138Y-112880915D01*
X151296759Y-112900208D01*
X151285456Y-112951314D01*
X151276732Y-113045500D01*
X151270997Y-113176089D01*
X151268660Y-113336405D01*
X151268627Y-113359211D01*
X151268627Y-113756471D01*
X150994705Y-113756471D01*
X150994705Y-112536275D01*
X151131666Y-112536275D01*
X151210638Y-112538337D01*
X151251779Y-112547513D01*
X151266992Y-112568290D01*
X151268627Y-112587886D01*
X151268627Y-112639497D01*
X151334240Y-112587886D01*
X151409475Y-112552675D01*
X151510544Y-112535265D01*
X151618446Y-112535883D01*
G36*
X150436459Y-112543669D02*
G01*
X150541420Y-112569163D01*
X150571761Y-112582669D01*
X150630573Y-112618046D01*
X150675709Y-112657890D01*
X150709106Y-112709120D01*
X150732701Y-112778654D01*
X150748433Y-112873409D01*
X150758239Y-113000305D01*
X150764057Y-113166258D01*
X150766266Y-113277108D01*
X150774396Y-113756471D01*
X150635531Y-113756471D01*
X150551287Y-113752938D01*
X150507884Y-113740866D01*
X150496666Y-113720594D01*
X150490744Y-113698674D01*
X150464266Y-113702865D01*
X150428186Y-113720441D01*
X150337862Y-113747382D01*
X150221777Y-113754642D01*
X150099680Y-113742767D01*
X149991321Y-113712305D01*
X149981602Y-113708077D01*
X149882568Y-113638505D01*
X149817281Y-113541789D01*
X149787240Y-113428738D01*
X149789535Y-113388122D01*
X150034633Y-113388122D01*
X150056229Y-113442782D01*
X150120259Y-113481952D01*
X150223565Y-113502974D01*
X150278774Y-113505766D01*
X150370782Y-113498620D01*
X150431941Y-113470848D01*
X150446862Y-113457647D01*
X150487287Y-113385829D01*
X150496666Y-113320686D01*
X150496666Y-113233530D01*
X150375269Y-113233530D01*
X150234153Y-113240722D01*
X150135173Y-113263345D01*
X150072633Y-113302964D01*
X150058631Y-113320628D01*
X150034633Y-113388122D01*
X149789535Y-113388122D01*
X149793941Y-113310157D01*
X149838880Y-113196855D01*
X149900196Y-113120285D01*
X149937332Y-113087181D01*
X149973687Y-113065425D01*
X150020990Y-113052161D01*
X150090973Y-113044528D01*
X150195364Y-113039670D01*
X150236770Y-113038273D01*
X150496666Y-113029780D01*
X150496285Y-112951116D01*
X150486219Y-112868428D01*
X150449829Y-112818431D01*
X150376311Y-112786489D01*
X150374339Y-112785920D01*
X150270105Y-112773361D01*
X150168108Y-112789766D01*
X150092305Y-112829657D01*
X150061890Y-112849354D01*
X150029132Y-112846629D01*
X149978721Y-112818091D01*
X149949119Y-112797950D01*
X149891218Y-112754919D01*
X149855352Y-112722662D01*
X149849597Y-112713427D01*
X149873295Y-112665636D01*
X149943313Y-112608562D01*
X149973725Y-112589305D01*
X150061155Y-112556140D01*
X150178983Y-112537350D01*
X150309866Y-112533129D01*
X150436459Y-112543669D01*
G37*
X150436459Y-112543669D02*
X150541420Y-112569163D01*
X150571761Y-112582669D01*
X150630573Y-112618046D01*
X150675709Y-112657890D01*
X150709106Y-112709120D01*
X150732701Y-112778654D01*
X150748433Y-112873409D01*
X150758239Y-113000305D01*
X150764057Y-113166258D01*
X150766266Y-113277108D01*
X150774396Y-113756471D01*
X150635531Y-113756471D01*
X150551287Y-113752938D01*
X150507884Y-113740866D01*
X150496666Y-113720594D01*
X150490744Y-113698674D01*
X150464266Y-113702865D01*
X150428186Y-113720441D01*
X150337862Y-113747382D01*
X150221777Y-113754642D01*
X150099680Y-113742767D01*
X149991321Y-113712305D01*
X149981602Y-113708077D01*
X149882568Y-113638505D01*
X149817281Y-113541789D01*
X149787240Y-113428738D01*
X149789535Y-113388122D01*
X150034633Y-113388122D01*
X150056229Y-113442782D01*
X150120259Y-113481952D01*
X150223565Y-113502974D01*
X150278774Y-113505766D01*
X150370782Y-113498620D01*
X150431941Y-113470848D01*
X150446862Y-113457647D01*
X150487287Y-113385829D01*
X150496666Y-113320686D01*
X150496666Y-113233530D01*
X150375269Y-113233530D01*
X150234153Y-113240722D01*
X150135173Y-113263345D01*
X150072633Y-113302964D01*
X150058631Y-113320628D01*
X150034633Y-113388122D01*
X149789535Y-113388122D01*
X149793941Y-113310157D01*
X149838880Y-113196855D01*
X149900196Y-113120285D01*
X149937332Y-113087181D01*
X149973687Y-113065425D01*
X150020990Y-113052161D01*
X150090973Y-113044528D01*
X150195364Y-113039670D01*
X150236770Y-113038273D01*
X150496666Y-113029780D01*
X150496285Y-112951116D01*
X150486219Y-112868428D01*
X150449829Y-112818431D01*
X150376311Y-112786489D01*
X150374339Y-112785920D01*
X150270105Y-112773361D01*
X150168108Y-112789766D01*
X150092305Y-112829657D01*
X150061890Y-112849354D01*
X150029132Y-112846629D01*
X149978721Y-112818091D01*
X149949119Y-112797950D01*
X149891218Y-112754919D01*
X149855352Y-112722662D01*
X149849597Y-112713427D01*
X149873295Y-112665636D01*
X149943313Y-112608562D01*
X149973725Y-112589305D01*
X150061155Y-112556140D01*
X150178983Y-112537350D01*
X150309866Y-112533129D01*
X150436459Y-112543669D01*
G36*
X148937528Y-112541332D02*
G01*
X149036014Y-112548726D01*
X149164776Y-112934706D01*
X149293537Y-113320686D01*
X149333911Y-113183726D01*
X149358207Y-113099083D01*
X149390167Y-112984697D01*
X149424679Y-112858963D01*
X149442928Y-112791520D01*
X149511571Y-112536275D01*
X149794773Y-112536275D01*
X149710122Y-112803971D01*
X149668435Y-112935638D01*
X149618074Y-113094458D01*
X149565481Y-113260128D01*
X149518530Y-113407843D01*
X149411589Y-113744020D01*
X149180661Y-113759044D01*
X149118050Y-113552316D01*
X149079438Y-113423896D01*
X149037300Y-113282322D01*
X149000472Y-113157285D01*
X148999018Y-113152309D01*
X148971511Y-113067586D01*
X148947242Y-113009778D01*
X148930243Y-112987918D01*
X148926750Y-112990446D01*
X148914490Y-113024336D01*
X148891195Y-113096930D01*
X148859700Y-113199101D01*
X148822842Y-113321720D01*
X148802899Y-113389167D01*
X148694895Y-113756471D01*
X148465679Y-113756471D01*
X148282439Y-113177500D01*
X148230963Y-113015091D01*
X148184070Y-112867602D01*
X148143977Y-112741960D01*
X148112897Y-112645095D01*
X148093045Y-112583934D01*
X148087011Y-112566065D01*
X148091788Y-112547768D01*
X148129297Y-112539755D01*
X148207355Y-112540557D01*
X148219574Y-112541163D01*
X148364326Y-112548726D01*
X148459130Y-112897353D01*
X148493977Y-113024497D01*
X148525117Y-113136265D01*
X148549809Y-113222953D01*
X148565312Y-113274856D01*
X148568176Y-113283318D01*
X148580046Y-113273587D01*
X148603983Y-113223172D01*
X148637239Y-113138935D01*
X148677064Y-113027741D01*
X148710730Y-112927297D01*
X148839041Y-112533939D01*
X148937528Y-112541332D01*
G37*
X148937528Y-112541332D02*
X149036014Y-112548726D01*
X149164776Y-112934706D01*
X149293537Y-113320686D01*
X149333911Y-113183726D01*
X149358207Y-113099083D01*
X149390167Y-112984697D01*
X149424679Y-112858963D01*
X149442928Y-112791520D01*
X149511571Y-112536275D01*
X149794773Y-112536275D01*
X149710122Y-112803971D01*
X149668435Y-112935638D01*
X149618074Y-113094458D01*
X149565481Y-113260128D01*
X149518530Y-113407843D01*
X149411589Y-113744020D01*
X149180661Y-113759044D01*
X149118050Y-113552316D01*
X149079438Y-113423896D01*
X149037300Y-113282322D01*
X149000472Y-113157285D01*
X148999018Y-113152309D01*
X148971511Y-113067586D01*
X148947242Y-113009778D01*
X148930243Y-112987918D01*
X148926750Y-112990446D01*
X148914490Y-113024336D01*
X148891195Y-113096930D01*
X148859700Y-113199101D01*
X148822842Y-113321720D01*
X148802899Y-113389167D01*
X148694895Y-113756471D01*
X148465679Y-113756471D01*
X148282439Y-113177500D01*
X148230963Y-113015091D01*
X148184070Y-112867602D01*
X148143977Y-112741960D01*
X148112897Y-112645095D01*
X148093045Y-112583934D01*
X148087011Y-112566065D01*
X148091788Y-112547768D01*
X148129297Y-112539755D01*
X148207355Y-112540557D01*
X148219574Y-112541163D01*
X148364326Y-112548726D01*
X148459130Y-112897353D01*
X148493977Y-113024497D01*
X148525117Y-113136265D01*
X148549809Y-113222953D01*
X148565312Y-113274856D01*
X148568176Y-113283318D01*
X148580046Y-113273587D01*
X148603983Y-113223172D01*
X148637239Y-113138935D01*
X148677064Y-113027741D01*
X148710730Y-112927297D01*
X148839041Y-112533939D01*
X148937528Y-112541332D01*
G36*
X147981568Y-113756471D02*
G01*
X147844607Y-113756471D01*
X147765111Y-113754140D01*
X147723708Y-113744488D01*
X147708801Y-113723525D01*
X147707647Y-113709351D01*
X147705133Y-113680927D01*
X147689280Y-113675475D01*
X147647621Y-113692998D01*
X147615224Y-113709351D01*
X147490849Y-113748103D01*
X147355646Y-113750346D01*
X147245726Y-113721444D01*
X147143366Y-113651619D01*
X147065340Y-113548555D01*
X147022614Y-113426989D01*
X147021526Y-113420192D01*
X147015178Y-113346032D01*
X147012021Y-113239570D01*
X147012275Y-113159052D01*
X147284289Y-113159052D01*
X147290590Y-113266070D01*
X147304925Y-113354278D01*
X147324331Y-113404090D01*
X147397746Y-113472162D01*
X147484914Y-113496564D01*
X147574804Y-113476831D01*
X147651617Y-113417968D01*
X147680708Y-113378379D01*
X147697717Y-113331138D01*
X147705684Y-113262181D01*
X147707647Y-113158607D01*
X147704134Y-113056039D01*
X147694857Y-112965921D01*
X147681706Y-112905613D01*
X147679514Y-112900208D01*
X147626478Y-112835940D01*
X147549067Y-112800656D01*
X147462454Y-112794959D01*
X147381807Y-112819453D01*
X147322297Y-112874742D01*
X147316124Y-112885743D01*
X147296801Y-112952827D01*
X147286274Y-113049284D01*
X147284289Y-113159052D01*
X147012275Y-113159052D01*
X147012404Y-113118225D01*
X147014194Y-113052918D01*
X147026373Y-112891355D01*
X147051685Y-112770053D01*
X147093793Y-112680379D01*
X147156359Y-112613699D01*
X147217100Y-112574557D01*
X147301964Y-112547040D01*
X147407515Y-112537603D01*
X147515598Y-112545290D01*
X147608058Y-112569146D01*
X147656910Y-112597685D01*
X147707647Y-112643601D01*
X147707647Y-112063137D01*
X147981568Y-112063137D01*
X147981568Y-113756471D01*
G37*
X147981568Y-113756471D02*
X147844607Y-113756471D01*
X147765111Y-113754140D01*
X147723708Y-113744488D01*
X147708801Y-113723525D01*
X147707647Y-113709351D01*
X147705133Y-113680927D01*
X147689280Y-113675475D01*
X147647621Y-113692998D01*
X147615224Y-113709351D01*
X147490849Y-113748103D01*
X147355646Y-113750346D01*
X147245726Y-113721444D01*
X147143366Y-113651619D01*
X147065340Y-113548555D01*
X147022614Y-113426989D01*
X147021526Y-113420192D01*
X147015178Y-113346032D01*
X147012021Y-113239570D01*
X147012275Y-113159052D01*
X147284289Y-113159052D01*
X147290590Y-113266070D01*
X147304925Y-113354278D01*
X147324331Y-113404090D01*
X147397746Y-113472162D01*
X147484914Y-113496564D01*
X147574804Y-113476831D01*
X147651617Y-113417968D01*
X147680708Y-113378379D01*
X147697717Y-113331138D01*
X147705684Y-113262181D01*
X147707647Y-113158607D01*
X147704134Y-113056039D01*
X147694857Y-112965921D01*
X147681706Y-112905613D01*
X147679514Y-112900208D01*
X147626478Y-112835940D01*
X147549067Y-112800656D01*
X147462454Y-112794959D01*
X147381807Y-112819453D01*
X147322297Y-112874742D01*
X147316124Y-112885743D01*
X147296801Y-112952827D01*
X147286274Y-113049284D01*
X147284289Y-113159052D01*
X147012275Y-113159052D01*
X147012404Y-113118225D01*
X147014194Y-113052918D01*
X147026373Y-112891355D01*
X147051685Y-112770053D01*
X147093793Y-112680379D01*
X147156359Y-112613699D01*
X147217100Y-112574557D01*
X147301964Y-112547040D01*
X147407515Y-112537603D01*
X147515598Y-112545290D01*
X147608058Y-112569146D01*
X147656910Y-112597685D01*
X147707647Y-112643601D01*
X147707647Y-112063137D01*
X147981568Y-112063137D01*
X147981568Y-113756471D01*
G36*
X146412764Y-112538921D02*
G01*
X146450030Y-112550091D01*
X146462043Y-112574633D01*
X146462549Y-112585712D01*
X146464704Y-112616572D01*
X146479551Y-112621417D01*
X146519657Y-112600260D01*
X146543480Y-112585806D01*
X146618638Y-112554850D01*
X146708406Y-112539544D01*
X146802529Y-112538367D01*
X146890754Y-112549799D01*
X146962826Y-112572320D01*
X147008492Y-112604409D01*
X147017498Y-112644545D01*
X147012953Y-112655415D01*
X146979821Y-112700534D01*
X146928445Y-112756026D01*
X146919152Y-112764996D01*
X146870182Y-112806245D01*
X146827931Y-112819572D01*
X146768841Y-112810271D01*
X146745169Y-112804090D01*
X146671504Y-112789246D01*
X146619710Y-112795921D01*
X146575969Y-112819465D01*
X146535902Y-112851061D01*
X146506392Y-112890798D01*
X146485884Y-112946252D01*
X146472824Y-113025003D01*
X146465656Y-113134629D01*
X146462824Y-113282706D01*
X146462549Y-113372111D01*
X146462549Y-113756471D01*
X146213529Y-113756471D01*
X146213529Y-112536275D01*
X146338039Y-112536275D01*
X146412764Y-112538921D01*
G37*
X146412764Y-112538921D02*
X146450030Y-112550091D01*
X146462043Y-112574633D01*
X146462549Y-112585712D01*
X146464704Y-112616572D01*
X146479551Y-112621417D01*
X146519657Y-112600260D01*
X146543480Y-112585806D01*
X146618638Y-112554850D01*
X146708406Y-112539544D01*
X146802529Y-112538367D01*
X146890754Y-112549799D01*
X146962826Y-112572320D01*
X147008492Y-112604409D01*
X147017498Y-112644545D01*
X147012953Y-112655415D01*
X146979821Y-112700534D01*
X146928445Y-112756026D01*
X146919152Y-112764996D01*
X146870182Y-112806245D01*
X146827931Y-112819572D01*
X146768841Y-112810271D01*
X146745169Y-112804090D01*
X146671504Y-112789246D01*
X146619710Y-112795921D01*
X146575969Y-112819465D01*
X146535902Y-112851061D01*
X146506392Y-112890798D01*
X146485884Y-112946252D01*
X146472824Y-113025003D01*
X146465656Y-113134629D01*
X146462824Y-113282706D01*
X146462549Y-113372111D01*
X146462549Y-113756471D01*
X146213529Y-113756471D01*
X146213529Y-112536275D01*
X146338039Y-112536275D01*
X146412764Y-112538921D01*
G36*
X145638720Y-112545922D02*
G01*
X145755870Y-112577180D01*
X145845051Y-112633837D01*
X145907984Y-112708045D01*
X145927548Y-112739716D01*
X145941992Y-112772891D01*
X145952089Y-112815329D01*
X145958615Y-112874788D01*
X145962342Y-112959029D01*
X145964046Y-113075810D01*
X145964500Y-113232890D01*
X145964509Y-113274565D01*
X145964509Y-113756471D01*
X145844980Y-113756471D01*
X145768739Y-113751131D01*
X145712366Y-113737604D01*
X145698242Y-113729262D01*
X145659630Y-113714864D01*
X145620192Y-113729262D01*
X145555262Y-113747237D01*
X145460945Y-113754472D01*
X145356407Y-113751333D01*
X145260811Y-113738186D01*
X145205000Y-113721318D01*
X145096998Y-113651986D01*
X145029503Y-113555772D01*
X144999159Y-113427844D01*
X144998877Y-113424559D01*
X145001540Y-113367808D01*
X145242353Y-113367808D01*
X145263405Y-113432358D01*
X145297697Y-113468686D01*
X145366532Y-113496162D01*
X145457390Y-113507129D01*
X145550042Y-113501731D01*
X145624256Y-113480110D01*
X145645049Y-113466239D01*
X145681381Y-113402143D01*
X145690588Y-113329278D01*
X145690588Y-113233530D01*
X145552827Y-113233530D01*
X145421953Y-113243605D01*
X145322741Y-113272148D01*
X145261023Y-113316639D01*
X145242353Y-113367808D01*
X145001540Y-113367808D01*
X145005436Y-113284790D01*
X145051534Y-113174282D01*
X145138200Y-113090712D01*
X145150179Y-113083110D01*
X145201655Y-113058357D01*
X145265368Y-113043368D01*
X145354435Y-113036082D01*
X145460245Y-113034407D01*
X145690588Y-113034314D01*
X145690588Y-112937755D01*
X145680817Y-112862836D01*
X145655884Y-112812644D01*
X145652965Y-112809972D01*
X145597481Y-112788015D01*
X145513727Y-112779505D01*
X145421167Y-112783687D01*
X145339270Y-112799809D01*
X145290673Y-112823990D01*
X145264341Y-112843359D01*
X145236535Y-112847057D01*
X145198161Y-112831188D01*
X145140125Y-112791855D01*
X145053331Y-112725164D01*
X145045365Y-112718916D01*
X145049447Y-112695800D01*
X145083501Y-112657352D01*
X145135260Y-112614627D01*
X145192455Y-112578679D01*
X145210425Y-112570191D01*
X145275972Y-112553252D01*
X145372020Y-112541170D01*
X145479329Y-112536323D01*
X145484347Y-112536313D01*
X145638720Y-112545922D01*
G37*
X145638720Y-112545922D02*
X145755870Y-112577180D01*
X145845051Y-112633837D01*
X145907984Y-112708045D01*
X145927548Y-112739716D01*
X145941992Y-112772891D01*
X145952089Y-112815329D01*
X145958615Y-112874788D01*
X145962342Y-112959029D01*
X145964046Y-113075810D01*
X145964500Y-113232890D01*
X145964509Y-113274565D01*
X145964509Y-113756471D01*
X145844980Y-113756471D01*
X145768739Y-113751131D01*
X145712366Y-113737604D01*
X145698242Y-113729262D01*
X145659630Y-113714864D01*
X145620192Y-113729262D01*
X145555262Y-113747237D01*
X145460945Y-113754472D01*
X145356407Y-113751333D01*
X145260811Y-113738186D01*
X145205000Y-113721318D01*
X145096998Y-113651986D01*
X145029503Y-113555772D01*
X144999159Y-113427844D01*
X144998877Y-113424559D01*
X145001540Y-113367808D01*
X145242353Y-113367808D01*
X145263405Y-113432358D01*
X145297697Y-113468686D01*
X145366532Y-113496162D01*
X145457390Y-113507129D01*
X145550042Y-113501731D01*
X145624256Y-113480110D01*
X145645049Y-113466239D01*
X145681381Y-113402143D01*
X145690588Y-113329278D01*
X145690588Y-113233530D01*
X145552827Y-113233530D01*
X145421953Y-113243605D01*
X145322741Y-113272148D01*
X145261023Y-113316639D01*
X145242353Y-113367808D01*
X145001540Y-113367808D01*
X145005436Y-113284790D01*
X145051534Y-113174282D01*
X145138200Y-113090712D01*
X145150179Y-113083110D01*
X145201655Y-113058357D01*
X145265368Y-113043368D01*
X145354435Y-113036082D01*
X145460245Y-113034407D01*
X145690588Y-113034314D01*
X145690588Y-112937755D01*
X145680817Y-112862836D01*
X145655884Y-112812644D01*
X145652965Y-112809972D01*
X145597481Y-112788015D01*
X145513727Y-112779505D01*
X145421167Y-112783687D01*
X145339270Y-112799809D01*
X145290673Y-112823990D01*
X145264341Y-112843359D01*
X145236535Y-112847057D01*
X145198161Y-112831188D01*
X145140125Y-112791855D01*
X145053331Y-112725164D01*
X145045365Y-112718916D01*
X145049447Y-112695800D01*
X145083501Y-112657352D01*
X145135260Y-112614627D01*
X145192455Y-112578679D01*
X145210425Y-112570191D01*
X145275972Y-112553252D01*
X145372020Y-112541170D01*
X145479329Y-112536323D01*
X145484347Y-112536313D01*
X145638720Y-112545922D01*
G36*
X144599909Y-110689560D02*
G01*
X144652412Y-110715499D01*
X144717158Y-110760700D01*
X144764347Y-110809991D01*
X144796665Y-110871885D01*
X144816797Y-110954896D01*
X144827430Y-111067538D01*
X144831247Y-111218324D01*
X144831470Y-111283149D01*
X144830818Y-111425221D01*
X144828112Y-111526757D01*
X144822224Y-111597015D01*
X144812027Y-111645256D01*
X144796394Y-111680738D01*
X144780128Y-111704943D01*
X144676295Y-111807929D01*
X144554021Y-111869874D01*
X144422114Y-111888506D01*
X144289384Y-111861549D01*
X144247333Y-111842486D01*
X144146666Y-111790015D01*
X144146666Y-112612259D01*
X144220135Y-112574267D01*
X144316941Y-112544872D01*
X144435928Y-112537342D01*
X144554745Y-112551245D01*
X144644473Y-112582476D01*
X144718899Y-112641954D01*
X144782490Y-112727066D01*
X144787271Y-112735805D01*
X144807437Y-112776966D01*
X144822165Y-112818454D01*
X144832303Y-112868713D01*
X144838699Y-112936184D01*
X144842201Y-113029309D01*
X144843658Y-113156531D01*
X144843921Y-113299701D01*
X144843921Y-113756471D01*
X144570000Y-113756471D01*
X144570000Y-112914231D01*
X144493383Y-112849763D01*
X144413793Y-112798194D01*
X144338422Y-112788818D01*
X144262633Y-112812947D01*
X144222241Y-112836574D01*
X144192179Y-112870227D01*
X144170797Y-112921087D01*
X144156450Y-112996334D01*
X144147490Y-113103146D01*
X144142270Y-113248704D01*
X144140431Y-113345588D01*
X144134215Y-113744020D01*
X144003480Y-113751547D01*
X143872745Y-113759073D01*
X143872745Y-111286582D01*
X144146666Y-111286582D01*
X144153650Y-111424423D01*
X144177182Y-111520107D01*
X144221135Y-111579641D01*
X144289382Y-111609029D01*
X144358333Y-111614902D01*
X144436386Y-111608154D01*
X144488189Y-111581594D01*
X144520583Y-111546499D01*
X144546084Y-111508752D01*
X144561265Y-111466700D01*
X144568019Y-111407779D01*
X144568241Y-111319428D01*
X144565968Y-111245448D01*
X144560749Y-111134000D01*
X144552979Y-111060833D01*
X144539895Y-111014422D01*
X144518732Y-110983244D01*
X144498760Y-110965223D01*
X144415314Y-110925925D01*
X144316551Y-110919579D01*
X144259841Y-110933116D01*
X144203692Y-110981233D01*
X144166499Y-111074833D01*
X144148472Y-111213254D01*
X144146666Y-111286582D01*
X143872745Y-111286582D01*
X143872745Y-110668628D01*
X144009705Y-110668628D01*
X144091935Y-110671879D01*
X144134360Y-110683426D01*
X144146661Y-110705952D01*
X144146666Y-110706620D01*
X144152374Y-110728681D01*
X144177547Y-110726176D01*
X144227598Y-110701935D01*
X144344219Y-110664851D01*
X144475429Y-110660953D01*
X144599909Y-110689560D01*
G37*
X144599909Y-110689560D02*
X144652412Y-110715499D01*
X144717158Y-110760700D01*
X144764347Y-110809991D01*
X144796665Y-110871885D01*
X144816797Y-110954896D01*
X144827430Y-111067538D01*
X144831247Y-111218324D01*
X144831470Y-111283149D01*
X144830818Y-111425221D01*
X144828112Y-111526757D01*
X144822224Y-111597015D01*
X144812027Y-111645256D01*
X144796394Y-111680738D01*
X144780128Y-111704943D01*
X144676295Y-111807929D01*
X144554021Y-111869874D01*
X144422114Y-111888506D01*
X144289384Y-111861549D01*
X144247333Y-111842486D01*
X144146666Y-111790015D01*
X144146666Y-112612259D01*
X144220135Y-112574267D01*
X144316941Y-112544872D01*
X144435928Y-112537342D01*
X144554745Y-112551245D01*
X144644473Y-112582476D01*
X144718899Y-112641954D01*
X144782490Y-112727066D01*
X144787271Y-112735805D01*
X144807437Y-112776966D01*
X144822165Y-112818454D01*
X144832303Y-112868713D01*
X144838699Y-112936184D01*
X144842201Y-113029309D01*
X144843658Y-113156531D01*
X144843921Y-113299701D01*
X144843921Y-113756471D01*
X144570000Y-113756471D01*
X144570000Y-112914231D01*
X144493383Y-112849763D01*
X144413793Y-112798194D01*
X144338422Y-112788818D01*
X144262633Y-112812947D01*
X144222241Y-112836574D01*
X144192179Y-112870227D01*
X144170797Y-112921087D01*
X144156450Y-112996334D01*
X144147490Y-113103146D01*
X144142270Y-113248704D01*
X144140431Y-113345588D01*
X144134215Y-113744020D01*
X144003480Y-113751547D01*
X143872745Y-113759073D01*
X143872745Y-111286582D01*
X144146666Y-111286582D01*
X144153650Y-111424423D01*
X144177182Y-111520107D01*
X144221135Y-111579641D01*
X144289382Y-111609029D01*
X144358333Y-111614902D01*
X144436386Y-111608154D01*
X144488189Y-111581594D01*
X144520583Y-111546499D01*
X144546084Y-111508752D01*
X144561265Y-111466700D01*
X144568019Y-111407779D01*
X144568241Y-111319428D01*
X144565968Y-111245448D01*
X144560749Y-111134000D01*
X144552979Y-111060833D01*
X144539895Y-111014422D01*
X144518732Y-110983244D01*
X144498760Y-110965223D01*
X144415314Y-110925925D01*
X144316551Y-110919579D01*
X144259841Y-110933116D01*
X144203692Y-110981233D01*
X144166499Y-111074833D01*
X144148472Y-111213254D01*
X144146666Y-111286582D01*
X143872745Y-111286582D01*
X143872745Y-110668628D01*
X144009705Y-110668628D01*
X144091935Y-110671879D01*
X144134360Y-110683426D01*
X144146661Y-110705952D01*
X144146666Y-110706620D01*
X144152374Y-110728681D01*
X144177547Y-110726176D01*
X144227598Y-110701935D01*
X144344219Y-110664851D01*
X144475429Y-110660953D01*
X144599909Y-110689560D01*
%TO.C,R5*%
D10*
X118532380Y-106866666D02*
X118056190Y-107200000D01*
X118532380Y-107438095D02*
X117532380Y-107438095D01*
X117532380Y-107057142D01*
X117580000Y-106961904D01*
X117627619Y-106914285D01*
X117722857Y-106866666D01*
X117865714Y-106866666D01*
X117960952Y-106914285D01*
X118008571Y-106961904D01*
X118056190Y-107057142D01*
X118056190Y-107438095D01*
X117532380Y-105961904D02*
X117532380Y-106438095D01*
X118008571Y-106485714D01*
X117960952Y-106438095D01*
X117913333Y-106342857D01*
X117913333Y-106104761D01*
X117960952Y-106009523D01*
X118008571Y-105961904D01*
X118103809Y-105914285D01*
X118341904Y-105914285D01*
X118437142Y-105961904D01*
X118484761Y-106009523D01*
X118532380Y-106104761D01*
X118532380Y-106342857D01*
X118484761Y-106438095D01*
X118437142Y-106485714D01*
%TO.C,J5*%
X172696666Y-97352380D02*
X172696666Y-98066666D01*
X172649047Y-98209523D01*
X172553809Y-98304761D01*
X172410952Y-98352380D01*
X172315714Y-98352380D01*
X173649047Y-97352380D02*
X173172857Y-97352380D01*
X173125238Y-97828571D01*
X173172857Y-97780952D01*
X173268095Y-97733333D01*
X173506190Y-97733333D01*
X173601428Y-97780952D01*
X173649047Y-97828571D01*
X173696666Y-97923809D01*
X173696666Y-98161904D01*
X173649047Y-98257142D01*
X173601428Y-98304761D01*
X173506190Y-98352380D01*
X173268095Y-98352380D01*
X173172857Y-98304761D01*
X173125238Y-98257142D01*
%TO.C,C1*%
X144807142Y-78966666D02*
X144854761Y-79014285D01*
X144902380Y-79157142D01*
X144902380Y-79252380D01*
X144854761Y-79395238D01*
X144759523Y-79490476D01*
X144664285Y-79538095D01*
X144473809Y-79585714D01*
X144330952Y-79585714D01*
X144140476Y-79538095D01*
X144045238Y-79490476D01*
X143950000Y-79395238D01*
X143902380Y-79252380D01*
X143902380Y-79157142D01*
X143950000Y-79014285D01*
X143997619Y-78966666D01*
X144902380Y-78014285D02*
X144902380Y-78585714D01*
X144902380Y-78300000D02*
X143902380Y-78300000D01*
X144045238Y-78395238D01*
X144140476Y-78490476D01*
X144188095Y-78585714D01*
%TO.C,C6*%
X133007142Y-90866666D02*
X133054761Y-90914285D01*
X133102380Y-91057142D01*
X133102380Y-91152380D01*
X133054761Y-91295238D01*
X132959523Y-91390476D01*
X132864285Y-91438095D01*
X132673809Y-91485714D01*
X132530952Y-91485714D01*
X132340476Y-91438095D01*
X132245238Y-91390476D01*
X132150000Y-91295238D01*
X132102380Y-91152380D01*
X132102380Y-91057142D01*
X132150000Y-90914285D01*
X132197619Y-90866666D01*
X132102380Y-90009523D02*
X132102380Y-90200000D01*
X132150000Y-90295238D01*
X132197619Y-90342857D01*
X132340476Y-90438095D01*
X132530952Y-90485714D01*
X132911904Y-90485714D01*
X133007142Y-90438095D01*
X133054761Y-90390476D01*
X133102380Y-90295238D01*
X133102380Y-90104761D01*
X133054761Y-90009523D01*
X133007142Y-89961904D01*
X132911904Y-89914285D01*
X132673809Y-89914285D01*
X132578571Y-89961904D01*
X132530952Y-90009523D01*
X132483333Y-90104761D01*
X132483333Y-90295238D01*
X132530952Y-90390476D01*
X132578571Y-90438095D01*
X132673809Y-90485714D01*
%TO.C,C8*%
X151233333Y-96607142D02*
X151185714Y-96654761D01*
X151042857Y-96702380D01*
X150947619Y-96702380D01*
X150804761Y-96654761D01*
X150709523Y-96559523D01*
X150661904Y-96464285D01*
X150614285Y-96273809D01*
X150614285Y-96130952D01*
X150661904Y-95940476D01*
X150709523Y-95845238D01*
X150804761Y-95750000D01*
X150947619Y-95702380D01*
X151042857Y-95702380D01*
X151185714Y-95750000D01*
X151233333Y-95797619D01*
X151804761Y-96130952D02*
X151709523Y-96083333D01*
X151661904Y-96035714D01*
X151614285Y-95940476D01*
X151614285Y-95892857D01*
X151661904Y-95797619D01*
X151709523Y-95750000D01*
X151804761Y-95702380D01*
X151995238Y-95702380D01*
X152090476Y-95750000D01*
X152138095Y-95797619D01*
X152185714Y-95892857D01*
X152185714Y-95940476D01*
X152138095Y-96035714D01*
X152090476Y-96083333D01*
X151995238Y-96130952D01*
X151804761Y-96130952D01*
X151709523Y-96178571D01*
X151661904Y-96226190D01*
X151614285Y-96321428D01*
X151614285Y-96511904D01*
X151661904Y-96607142D01*
X151709523Y-96654761D01*
X151804761Y-96702380D01*
X151995238Y-96702380D01*
X152090476Y-96654761D01*
X152138095Y-96607142D01*
X152185714Y-96511904D01*
X152185714Y-96321428D01*
X152138095Y-96226190D01*
X152090476Y-96178571D01*
X151995238Y-96130952D01*
%TO.C,D1*%
X123561904Y-108672380D02*
X123561904Y-107672380D01*
X123800000Y-107672380D01*
X123942857Y-107720000D01*
X124038095Y-107815238D01*
X124085714Y-107910476D01*
X124133333Y-108100952D01*
X124133333Y-108243809D01*
X124085714Y-108434285D01*
X124038095Y-108529523D01*
X123942857Y-108624761D01*
X123800000Y-108672380D01*
X123561904Y-108672380D01*
X125085714Y-108672380D02*
X124514285Y-108672380D01*
X124800000Y-108672380D02*
X124800000Y-107672380D01*
X124704761Y-107815238D01*
X124609523Y-107910476D01*
X124514285Y-107958095D01*
%TO.C,FB1*%
X136266666Y-97728571D02*
X135933333Y-97728571D01*
X135933333Y-98252380D02*
X135933333Y-97252380D01*
X136409523Y-97252380D01*
X137123809Y-97728571D02*
X137266666Y-97776190D01*
X137314285Y-97823809D01*
X137361904Y-97919047D01*
X137361904Y-98061904D01*
X137314285Y-98157142D01*
X137266666Y-98204761D01*
X137171428Y-98252380D01*
X136790476Y-98252380D01*
X136790476Y-97252380D01*
X137123809Y-97252380D01*
X137219047Y-97300000D01*
X137266666Y-97347619D01*
X137314285Y-97442857D01*
X137314285Y-97538095D01*
X137266666Y-97633333D01*
X137219047Y-97680952D01*
X137123809Y-97728571D01*
X136790476Y-97728571D01*
X138314285Y-98252380D02*
X137742857Y-98252380D01*
X138028571Y-98252380D02*
X138028571Y-97252380D01*
X137933333Y-97395238D01*
X137838095Y-97490476D01*
X137742857Y-97538095D01*
%TO.C,R1*%
X129833333Y-73632380D02*
X129500000Y-73156190D01*
X129261904Y-73632380D02*
X129261904Y-72632380D01*
X129642857Y-72632380D01*
X129738095Y-72680000D01*
X129785714Y-72727619D01*
X129833333Y-72822857D01*
X129833333Y-72965714D01*
X129785714Y-73060952D01*
X129738095Y-73108571D01*
X129642857Y-73156190D01*
X129261904Y-73156190D01*
X130785714Y-73632380D02*
X130214285Y-73632380D01*
X130500000Y-73632380D02*
X130500000Y-72632380D01*
X130404761Y-72775238D01*
X130309523Y-72870476D01*
X130214285Y-72918095D01*
%TO.C,R2*%
X137933333Y-88032380D02*
X137600000Y-87556190D01*
X137361904Y-88032380D02*
X137361904Y-87032380D01*
X137742857Y-87032380D01*
X137838095Y-87080000D01*
X137885714Y-87127619D01*
X137933333Y-87222857D01*
X137933333Y-87365714D01*
X137885714Y-87460952D01*
X137838095Y-87508571D01*
X137742857Y-87556190D01*
X137361904Y-87556190D01*
X138314285Y-87127619D02*
X138361904Y-87080000D01*
X138457142Y-87032380D01*
X138695238Y-87032380D01*
X138790476Y-87080000D01*
X138838095Y-87127619D01*
X138885714Y-87222857D01*
X138885714Y-87318095D01*
X138838095Y-87460952D01*
X138266666Y-88032380D01*
X138885714Y-88032380D01*
%TO.C,R4*%
X165933333Y-108852380D02*
X165600000Y-108376190D01*
X165361904Y-108852380D02*
X165361904Y-107852380D01*
X165742857Y-107852380D01*
X165838095Y-107900000D01*
X165885714Y-107947619D01*
X165933333Y-108042857D01*
X165933333Y-108185714D01*
X165885714Y-108280952D01*
X165838095Y-108328571D01*
X165742857Y-108376190D01*
X165361904Y-108376190D01*
X166790476Y-108185714D02*
X166790476Y-108852380D01*
X166552380Y-107804761D02*
X166314285Y-108519047D01*
X166933333Y-108519047D01*
%TO.C,SW1*%
X120704761Y-75333333D02*
X120752380Y-75190476D01*
X120752380Y-74952380D01*
X120704761Y-74857142D01*
X120657142Y-74809523D01*
X120561904Y-74761904D01*
X120466666Y-74761904D01*
X120371428Y-74809523D01*
X120323809Y-74857142D01*
X120276190Y-74952380D01*
X120228571Y-75142857D01*
X120180952Y-75238095D01*
X120133333Y-75285714D01*
X120038095Y-75333333D01*
X119942857Y-75333333D01*
X119847619Y-75285714D01*
X119800000Y-75238095D01*
X119752380Y-75142857D01*
X119752380Y-74904761D01*
X119800000Y-74761904D01*
X119752380Y-74428571D02*
X120752380Y-74190476D01*
X120038095Y-74000000D01*
X120752380Y-73809523D01*
X119752380Y-73571428D01*
X120752380Y-72666666D02*
X120752380Y-73238095D01*
X120752380Y-72952380D02*
X119752380Y-72952380D01*
X119895238Y-73047619D01*
X119990476Y-73142857D01*
X120038095Y-73238095D01*
%TO.C,U1*%
X148888095Y-78377380D02*
X148888095Y-79186904D01*
X148935714Y-79282142D01*
X148983333Y-79329761D01*
X149078571Y-79377380D01*
X149269047Y-79377380D01*
X149364285Y-79329761D01*
X149411904Y-79282142D01*
X149459523Y-79186904D01*
X149459523Y-78377380D01*
X150459523Y-79377380D02*
X149888095Y-79377380D01*
X150173809Y-79377380D02*
X150173809Y-78377380D01*
X150078571Y-78520238D01*
X149983333Y-78615476D01*
X149888095Y-78663095D01*
%TO.C,Y1*%
X132226190Y-86176190D02*
X132702380Y-86176190D01*
X131702380Y-86509523D02*
X132226190Y-86176190D01*
X131702380Y-85842857D01*
X132702380Y-84985714D02*
X132702380Y-85557142D01*
X132702380Y-85271428D02*
X131702380Y-85271428D01*
X131845238Y-85366666D01*
X131940476Y-85461904D01*
X131988095Y-85557142D01*
%TO.C,J1*%
X175466666Y-111422380D02*
X175466666Y-112136666D01*
X175419047Y-112279523D01*
X175323809Y-112374761D01*
X175180952Y-112422380D01*
X175085714Y-112422380D01*
X176466666Y-112422380D02*
X175895238Y-112422380D01*
X176180952Y-112422380D02*
X176180952Y-111422380D01*
X176085714Y-111565238D01*
X175990476Y-111660476D01*
X175895238Y-111708095D01*
%TO.C,U2*%
X131238095Y-97952380D02*
X131238095Y-98761904D01*
X131285714Y-98857142D01*
X131333333Y-98904761D01*
X131428571Y-98952380D01*
X131619047Y-98952380D01*
X131714285Y-98904761D01*
X131761904Y-98857142D01*
X131809523Y-98761904D01*
X131809523Y-97952380D01*
X132238095Y-98047619D02*
X132285714Y-98000000D01*
X132380952Y-97952380D01*
X132619047Y-97952380D01*
X132714285Y-98000000D01*
X132761904Y-98047619D01*
X132809523Y-98142857D01*
X132809523Y-98238095D01*
X132761904Y-98380952D01*
X132190476Y-98952380D01*
X132809523Y-98952380D01*
%TO.C,J3*%
X167566666Y-110252380D02*
X167566666Y-110966666D01*
X167519047Y-111109523D01*
X167423809Y-111204761D01*
X167280952Y-111252380D01*
X167185714Y-111252380D01*
X167947619Y-110252380D02*
X168566666Y-110252380D01*
X168233333Y-110633333D01*
X168376190Y-110633333D01*
X168471428Y-110680952D01*
X168519047Y-110728571D01*
X168566666Y-110823809D01*
X168566666Y-111061904D01*
X168519047Y-111157142D01*
X168471428Y-111204761D01*
X168376190Y-111252380D01*
X168090476Y-111252380D01*
X167995238Y-111204761D01*
X167947619Y-111157142D01*
%TO.C,C2*%
X147293333Y-97867142D02*
X147245714Y-97914761D01*
X147102857Y-97962380D01*
X147007619Y-97962380D01*
X146864761Y-97914761D01*
X146769523Y-97819523D01*
X146721904Y-97724285D01*
X146674285Y-97533809D01*
X146674285Y-97390952D01*
X146721904Y-97200476D01*
X146769523Y-97105238D01*
X146864761Y-97010000D01*
X147007619Y-96962380D01*
X147102857Y-96962380D01*
X147245714Y-97010000D01*
X147293333Y-97057619D01*
X147674285Y-97057619D02*
X147721904Y-97010000D01*
X147817142Y-96962380D01*
X148055238Y-96962380D01*
X148150476Y-97010000D01*
X148198095Y-97057619D01*
X148245714Y-97152857D01*
X148245714Y-97248095D01*
X148198095Y-97390952D01*
X147626666Y-97962380D01*
X148245714Y-97962380D01*
%TO.C,C3*%
X155943333Y-97887142D02*
X155895714Y-97934761D01*
X155752857Y-97982380D01*
X155657619Y-97982380D01*
X155514761Y-97934761D01*
X155419523Y-97839523D01*
X155371904Y-97744285D01*
X155324285Y-97553809D01*
X155324285Y-97410952D01*
X155371904Y-97220476D01*
X155419523Y-97125238D01*
X155514761Y-97030000D01*
X155657619Y-96982380D01*
X155752857Y-96982380D01*
X155895714Y-97030000D01*
X155943333Y-97077619D01*
X156276666Y-96982380D02*
X156895714Y-96982380D01*
X156562380Y-97363333D01*
X156705238Y-97363333D01*
X156800476Y-97410952D01*
X156848095Y-97458571D01*
X156895714Y-97553809D01*
X156895714Y-97791904D01*
X156848095Y-97887142D01*
X156800476Y-97934761D01*
X156705238Y-97982380D01*
X156419523Y-97982380D01*
X156324285Y-97934761D01*
X156276666Y-97887142D01*
%TO.C,C4*%
X160407142Y-81266666D02*
X160454761Y-81314285D01*
X160502380Y-81457142D01*
X160502380Y-81552380D01*
X160454761Y-81695238D01*
X160359523Y-81790476D01*
X160264285Y-81838095D01*
X160073809Y-81885714D01*
X159930952Y-81885714D01*
X159740476Y-81838095D01*
X159645238Y-81790476D01*
X159550000Y-81695238D01*
X159502380Y-81552380D01*
X159502380Y-81457142D01*
X159550000Y-81314285D01*
X159597619Y-81266666D01*
X159835714Y-80409523D02*
X160502380Y-80409523D01*
X159454761Y-80647619D02*
X160169047Y-80885714D01*
X160169047Y-80266666D01*
%TO.C,C5*%
X137933333Y-94207142D02*
X137885714Y-94254761D01*
X137742857Y-94302380D01*
X137647619Y-94302380D01*
X137504761Y-94254761D01*
X137409523Y-94159523D01*
X137361904Y-94064285D01*
X137314285Y-93873809D01*
X137314285Y-93730952D01*
X137361904Y-93540476D01*
X137409523Y-93445238D01*
X137504761Y-93350000D01*
X137647619Y-93302380D01*
X137742857Y-93302380D01*
X137885714Y-93350000D01*
X137933333Y-93397619D01*
X138838095Y-93302380D02*
X138361904Y-93302380D01*
X138314285Y-93778571D01*
X138361904Y-93730952D01*
X138457142Y-93683333D01*
X138695238Y-93683333D01*
X138790476Y-93730952D01*
X138838095Y-93778571D01*
X138885714Y-93873809D01*
X138885714Y-94111904D01*
X138838095Y-94207142D01*
X138790476Y-94254761D01*
X138695238Y-94302380D01*
X138457142Y-94302380D01*
X138361904Y-94254761D01*
X138314285Y-94207142D01*
%TO.C,C7*%
X122733333Y-65007142D02*
X122685714Y-65054761D01*
X122542857Y-65102380D01*
X122447619Y-65102380D01*
X122304761Y-65054761D01*
X122209523Y-64959523D01*
X122161904Y-64864285D01*
X122114285Y-64673809D01*
X122114285Y-64530952D01*
X122161904Y-64340476D01*
X122209523Y-64245238D01*
X122304761Y-64150000D01*
X122447619Y-64102380D01*
X122542857Y-64102380D01*
X122685714Y-64150000D01*
X122733333Y-64197619D01*
X123066666Y-64102380D02*
X123733333Y-64102380D01*
X123304761Y-65102380D01*
%TO.C,C11*%
X124057142Y-97907142D02*
X124009523Y-97954761D01*
X123866666Y-98002380D01*
X123771428Y-98002380D01*
X123628571Y-97954761D01*
X123533333Y-97859523D01*
X123485714Y-97764285D01*
X123438095Y-97573809D01*
X123438095Y-97430952D01*
X123485714Y-97240476D01*
X123533333Y-97145238D01*
X123628571Y-97050000D01*
X123771428Y-97002380D01*
X123866666Y-97002380D01*
X124009523Y-97050000D01*
X124057142Y-97097619D01*
X125009523Y-98002380D02*
X124438095Y-98002380D01*
X124723809Y-98002380D02*
X124723809Y-97002380D01*
X124628571Y-97145238D01*
X124533333Y-97240476D01*
X124438095Y-97288095D01*
X125961904Y-98002380D02*
X125390476Y-98002380D01*
X125676190Y-98002380D02*
X125676190Y-97002380D01*
X125580952Y-97145238D01*
X125485714Y-97240476D01*
X125390476Y-97288095D01*
%TO.C,C12*%
X128957142Y-110307142D02*
X128909523Y-110354761D01*
X128766666Y-110402380D01*
X128671428Y-110402380D01*
X128528571Y-110354761D01*
X128433333Y-110259523D01*
X128385714Y-110164285D01*
X128338095Y-109973809D01*
X128338095Y-109830952D01*
X128385714Y-109640476D01*
X128433333Y-109545238D01*
X128528571Y-109450000D01*
X128671428Y-109402380D01*
X128766666Y-109402380D01*
X128909523Y-109450000D01*
X128957142Y-109497619D01*
X129909523Y-110402380D02*
X129338095Y-110402380D01*
X129623809Y-110402380D02*
X129623809Y-109402380D01*
X129528571Y-109545238D01*
X129433333Y-109640476D01*
X129338095Y-109688095D01*
X130290476Y-109497619D02*
X130338095Y-109450000D01*
X130433333Y-109402380D01*
X130671428Y-109402380D01*
X130766666Y-109450000D01*
X130814285Y-109497619D01*
X130861904Y-109592857D01*
X130861904Y-109688095D01*
X130814285Y-109830952D01*
X130242857Y-110402380D01*
X130861904Y-110402380D01*
%TO.C,C13*%
X123757142Y-101907142D02*
X123709523Y-101954761D01*
X123566666Y-102002380D01*
X123471428Y-102002380D01*
X123328571Y-101954761D01*
X123233333Y-101859523D01*
X123185714Y-101764285D01*
X123138095Y-101573809D01*
X123138095Y-101430952D01*
X123185714Y-101240476D01*
X123233333Y-101145238D01*
X123328571Y-101050000D01*
X123471428Y-101002380D01*
X123566666Y-101002380D01*
X123709523Y-101050000D01*
X123757142Y-101097619D01*
X124709523Y-102002380D02*
X124138095Y-102002380D01*
X124423809Y-102002380D02*
X124423809Y-101002380D01*
X124328571Y-101145238D01*
X124233333Y-101240476D01*
X124138095Y-101288095D01*
X125042857Y-101002380D02*
X125661904Y-101002380D01*
X125328571Y-101383333D01*
X125471428Y-101383333D01*
X125566666Y-101430952D01*
X125614285Y-101478571D01*
X125661904Y-101573809D01*
X125661904Y-101811904D01*
X125614285Y-101907142D01*
X125566666Y-101954761D01*
X125471428Y-102002380D01*
X125185714Y-102002380D01*
X125090476Y-101954761D01*
X125042857Y-101907142D01*
%TO.C,R3*%
X165933333Y-102732380D02*
X165600000Y-102256190D01*
X165361904Y-102732380D02*
X165361904Y-101732380D01*
X165742857Y-101732380D01*
X165838095Y-101780000D01*
X165885714Y-101827619D01*
X165933333Y-101922857D01*
X165933333Y-102065714D01*
X165885714Y-102160952D01*
X165838095Y-102208571D01*
X165742857Y-102256190D01*
X165361904Y-102256190D01*
X166266666Y-101732380D02*
X166885714Y-101732380D01*
X166552380Y-102113333D01*
X166695238Y-102113333D01*
X166790476Y-102160952D01*
X166838095Y-102208571D01*
X166885714Y-102303809D01*
X166885714Y-102541904D01*
X166838095Y-102637142D01*
X166790476Y-102684761D01*
X166695238Y-102732380D01*
X166409523Y-102732380D01*
X166314285Y-102684761D01*
X166266666Y-102637142D01*
%TO.C,C9*%
X123233333Y-84807142D02*
X123185714Y-84854761D01*
X123042857Y-84902380D01*
X122947619Y-84902380D01*
X122804761Y-84854761D01*
X122709523Y-84759523D01*
X122661904Y-84664285D01*
X122614285Y-84473809D01*
X122614285Y-84330952D01*
X122661904Y-84140476D01*
X122709523Y-84045238D01*
X122804761Y-83950000D01*
X122947619Y-83902380D01*
X123042857Y-83902380D01*
X123185714Y-83950000D01*
X123233333Y-83997619D01*
X123709523Y-84902380D02*
X123900000Y-84902380D01*
X123995238Y-84854761D01*
X124042857Y-84807142D01*
X124138095Y-84664285D01*
X124185714Y-84473809D01*
X124185714Y-84092857D01*
X124138095Y-83997619D01*
X124090476Y-83950000D01*
X123995238Y-83902380D01*
X123804761Y-83902380D01*
X123709523Y-83950000D01*
X123661904Y-83997619D01*
X123614285Y-84092857D01*
X123614285Y-84330952D01*
X123661904Y-84426190D01*
X123709523Y-84473809D01*
X123804761Y-84521428D01*
X123995238Y-84521428D01*
X124090476Y-84473809D01*
X124138095Y-84426190D01*
X124185714Y-84330952D01*
%TO.C,C10*%
X122757142Y-91107142D02*
X122709523Y-91154761D01*
X122566666Y-91202380D01*
X122471428Y-91202380D01*
X122328571Y-91154761D01*
X122233333Y-91059523D01*
X122185714Y-90964285D01*
X122138095Y-90773809D01*
X122138095Y-90630952D01*
X122185714Y-90440476D01*
X122233333Y-90345238D01*
X122328571Y-90250000D01*
X122471428Y-90202380D01*
X122566666Y-90202380D01*
X122709523Y-90250000D01*
X122757142Y-90297619D01*
X123709523Y-91202380D02*
X123138095Y-91202380D01*
X123423809Y-91202380D02*
X123423809Y-90202380D01*
X123328571Y-90345238D01*
X123233333Y-90440476D01*
X123138095Y-90488095D01*
X124328571Y-90202380D02*
X124423809Y-90202380D01*
X124519047Y-90250000D01*
X124566666Y-90297619D01*
X124614285Y-90392857D01*
X124661904Y-90583333D01*
X124661904Y-90821428D01*
X124614285Y-91011904D01*
X124566666Y-91107142D01*
X124519047Y-91154761D01*
X124423809Y-91202380D01*
X124328571Y-91202380D01*
X124233333Y-91154761D01*
X124185714Y-91107142D01*
X124138095Y-91011904D01*
X124090476Y-90821428D01*
X124090476Y-90583333D01*
X124138095Y-90392857D01*
X124185714Y-90297619D01*
X124233333Y-90250000D01*
X124328571Y-90202380D01*
%TD*%
M02*
