%TF.GenerationSoftware,KiCad,Pcbnew,5.1.9+dfsg1-1+deb11u1*%
%TF.CreationDate,2025-11-03T12:09:50+01:00*%
%TF.ProjectId,STM32F4XX,53544d33-3246-4345-9858-2e6b69636164,0.4*%
%TF.SameCoordinates,Original*%
%TF.FileFunction,Paste,Top*%
%TF.FilePolarity,Positive*%
%FSLAX46Y46*%
G04 Gerber Fmt 4.6, Leading zero omitted, Abs format (unit mm)*
G04 Created by KiCad (PCBNEW 5.1.9+dfsg1-1+deb11u1) date 2025-11-03 12:09:50*
%MOMM*%
%LPD*%
G01*
G04 APERTURE LIST*
%ADD10R,1.000000X0.520000*%
%ADD11R,1.000000X0.270000*%
%ADD12R,2.000000X1.000000*%
%ADD13R,1.020000X4.100000*%
%ADD14R,1.700000X1.500000*%
%ADD15R,3.800000X2.000000*%
%ADD16R,1.500000X2.000000*%
%ADD17C,0.100000*%
G04 APERTURE END LIST*
D10*
%TO.C,J3*%
X168800000Y-74600000D03*
X168800000Y-68400000D03*
X168800000Y-73850000D03*
X168800000Y-69150000D03*
D11*
X168800000Y-73250000D03*
X168800000Y-69750000D03*
X168800000Y-72750000D03*
X168800000Y-72250000D03*
X168800000Y-71750000D03*
X168800000Y-71250000D03*
X168800000Y-70750000D03*
X168800000Y-70250000D03*
D12*
X173000000Y-72900000D03*
X173000000Y-70100000D03*
%TD*%
%TO.C,C1*%
G36*
G01*
X136392012Y-66822112D02*
X136727888Y-67157988D01*
G75*
G02*
X136727888Y-67493864I-167938J-167938D01*
G01*
X136303624Y-67918128D01*
G75*
G02*
X135967748Y-67918128I-167938J167938D01*
G01*
X135631872Y-67582252D01*
G75*
G02*
X135631872Y-67246376I167938J167938D01*
G01*
X136056136Y-66822112D01*
G75*
G02*
X136392012Y-66822112I167938J-167938D01*
G01*
G37*
G36*
G01*
X135172252Y-68041872D02*
X135508128Y-68377748D01*
G75*
G02*
X135508128Y-68713624I-167938J-167938D01*
G01*
X135083864Y-69137888D01*
G75*
G02*
X134747988Y-69137888I-167938J167938D01*
G01*
X134412112Y-68802012D01*
G75*
G02*
X134412112Y-68466136I167938J167938D01*
G01*
X134836376Y-68041872D01*
G75*
G02*
X135172252Y-68041872I167938J-167938D01*
G01*
G37*
%TD*%
%TO.C,C2*%
G36*
G01*
X139642252Y-63581872D02*
X139978128Y-63917748D01*
G75*
G02*
X139978128Y-64253624I-167938J-167938D01*
G01*
X139553864Y-64677888D01*
G75*
G02*
X139217988Y-64677888I-167938J167938D01*
G01*
X138882112Y-64342012D01*
G75*
G02*
X138882112Y-64006136I167938J167938D01*
G01*
X139306376Y-63581872D01*
G75*
G02*
X139642252Y-63581872I167938J-167938D01*
G01*
G37*
G36*
G01*
X140862012Y-62362112D02*
X141197888Y-62697988D01*
G75*
G02*
X141197888Y-63033864I-167938J-167938D01*
G01*
X140773624Y-63458128D01*
G75*
G02*
X140437748Y-63458128I-167938J167938D01*
G01*
X140101872Y-63122252D01*
G75*
G02*
X140101872Y-62786376I167938J167938D01*
G01*
X140526136Y-62362112D01*
G75*
G02*
X140862012Y-62362112I167938J-167938D01*
G01*
G37*
%TD*%
%TO.C,C3*%
G36*
G01*
X153547888Y-68792012D02*
X153212012Y-69127888D01*
G75*
G02*
X152876136Y-69127888I-167938J167938D01*
G01*
X152451872Y-68703624D01*
G75*
G02*
X152451872Y-68367748I167938J167938D01*
G01*
X152787748Y-68031872D01*
G75*
G02*
X153123624Y-68031872I167938J-167938D01*
G01*
X153547888Y-68456136D01*
G75*
G02*
X153547888Y-68792012I-167938J-167938D01*
G01*
G37*
G36*
G01*
X152328128Y-67572252D02*
X151992252Y-67908128D01*
G75*
G02*
X151656376Y-67908128I-167938J167938D01*
G01*
X151232112Y-67483864D01*
G75*
G02*
X151232112Y-67147988I167938J167938D01*
G01*
X151567988Y-66812112D01*
G75*
G02*
X151903864Y-66812112I167938J-167938D01*
G01*
X152328128Y-67236376D01*
G75*
G02*
X152328128Y-67572252I-167938J-167938D01*
G01*
G37*
%TD*%
%TO.C,C4*%
G36*
G01*
X148087748Y-80458128D02*
X147751872Y-80122252D01*
G75*
G02*
X147751872Y-79786376I167938J167938D01*
G01*
X148176136Y-79362112D01*
G75*
G02*
X148512012Y-79362112I167938J-167938D01*
G01*
X148847888Y-79697988D01*
G75*
G02*
X148847888Y-80033864I-167938J-167938D01*
G01*
X148423624Y-80458128D01*
G75*
G02*
X148087748Y-80458128I-167938J167938D01*
G01*
G37*
G36*
G01*
X146867988Y-81677888D02*
X146532112Y-81342012D01*
G75*
G02*
X146532112Y-81006136I167938J167938D01*
G01*
X146956376Y-80581872D01*
G75*
G02*
X147292252Y-80581872I167938J-167938D01*
G01*
X147628128Y-80917748D01*
G75*
G02*
X147628128Y-81253624I-167938J-167938D01*
G01*
X147203864Y-81677888D01*
G75*
G02*
X146867988Y-81677888I-167938J167938D01*
G01*
G37*
%TD*%
%TO.C,C5*%
G36*
G01*
X130162500Y-75075000D02*
X130637500Y-75075000D01*
G75*
G02*
X130875000Y-75312500I0J-237500D01*
G01*
X130875000Y-75912500D01*
G75*
G02*
X130637500Y-76150000I-237500J0D01*
G01*
X130162500Y-76150000D01*
G75*
G02*
X129925000Y-75912500I0J237500D01*
G01*
X129925000Y-75312500D01*
G75*
G02*
X130162500Y-75075000I237500J0D01*
G01*
G37*
G36*
G01*
X130162500Y-73350000D02*
X130637500Y-73350000D01*
G75*
G02*
X130875000Y-73587500I0J-237500D01*
G01*
X130875000Y-74187500D01*
G75*
G02*
X130637500Y-74425000I-237500J0D01*
G01*
X130162500Y-74425000D01*
G75*
G02*
X129925000Y-74187500I0J237500D01*
G01*
X129925000Y-73587500D01*
G75*
G02*
X130162500Y-73350000I237500J0D01*
G01*
G37*
%TD*%
%TO.C,C6*%
G36*
G01*
X132185000Y-72375000D02*
X134035000Y-72375000D01*
G75*
G02*
X134285000Y-72625000I0J-250000D01*
G01*
X134285000Y-73625000D01*
G75*
G02*
X134035000Y-73875000I-250000J0D01*
G01*
X132185000Y-73875000D01*
G75*
G02*
X131935000Y-73625000I0J250000D01*
G01*
X131935000Y-72625000D01*
G75*
G02*
X132185000Y-72375000I250000J0D01*
G01*
G37*
G36*
G01*
X132185000Y-75625000D02*
X134035000Y-75625000D01*
G75*
G02*
X134285000Y-75875000I0J-250000D01*
G01*
X134285000Y-76875000D01*
G75*
G02*
X134035000Y-77125000I-250000J0D01*
G01*
X132185000Y-77125000D01*
G75*
G02*
X131935000Y-76875000I0J250000D01*
G01*
X131935000Y-75875000D01*
G75*
G02*
X132185000Y-75625000I250000J0D01*
G01*
G37*
%TD*%
%TO.C,C7*%
G36*
G01*
X122870000Y-75332500D02*
X122870000Y-75807500D01*
G75*
G02*
X122632500Y-76045000I-237500J0D01*
G01*
X122032500Y-76045000D01*
G75*
G02*
X121795000Y-75807500I0J237500D01*
G01*
X121795000Y-75332500D01*
G75*
G02*
X122032500Y-75095000I237500J0D01*
G01*
X122632500Y-75095000D01*
G75*
G02*
X122870000Y-75332500I0J-237500D01*
G01*
G37*
G36*
G01*
X121145000Y-75332500D02*
X121145000Y-75807500D01*
G75*
G02*
X120907500Y-76045000I-237500J0D01*
G01*
X120307500Y-76045000D01*
G75*
G02*
X120070000Y-75807500I0J237500D01*
G01*
X120070000Y-75332500D01*
G75*
G02*
X120307500Y-75095000I237500J0D01*
G01*
X120907500Y-75095000D01*
G75*
G02*
X121145000Y-75332500I0J-237500D01*
G01*
G37*
%TD*%
%TO.C,C8*%
G36*
G01*
X137883173Y-62375076D02*
X138554924Y-63046827D01*
G75*
G02*
X138554924Y-63400381I-176777J-176777D01*
G01*
X138077627Y-63877678D01*
G75*
G02*
X137724073Y-63877678I-176777J176777D01*
G01*
X137052322Y-63205927D01*
G75*
G02*
X137052322Y-62852373I176777J176777D01*
G01*
X137529619Y-62375076D01*
G75*
G02*
X137883173Y-62375076I176777J-176777D01*
G01*
G37*
G36*
G01*
X136415927Y-63842322D02*
X137087678Y-64514073D01*
G75*
G02*
X137087678Y-64867627I-176777J-176777D01*
G01*
X136610381Y-65344924D01*
G75*
G02*
X136256827Y-65344924I-176777J176777D01*
G01*
X135585076Y-64673173D01*
G75*
G02*
X135585076Y-64319619I176777J176777D01*
G01*
X136062373Y-63842322D01*
G75*
G02*
X136415927Y-63842322I176777J-176777D01*
G01*
G37*
%TD*%
%TO.C,C9*%
G36*
G01*
X146220000Y-71787500D02*
X146220000Y-71312500D01*
G75*
G02*
X146457500Y-71075000I237500J0D01*
G01*
X147057500Y-71075000D01*
G75*
G02*
X147295000Y-71312500I0J-237500D01*
G01*
X147295000Y-71787500D01*
G75*
G02*
X147057500Y-72025000I-237500J0D01*
G01*
X146457500Y-72025000D01*
G75*
G02*
X146220000Y-71787500I0J237500D01*
G01*
G37*
G36*
G01*
X147945000Y-71787500D02*
X147945000Y-71312500D01*
G75*
G02*
X148182500Y-71075000I237500J0D01*
G01*
X148782500Y-71075000D01*
G75*
G02*
X149020000Y-71312500I0J-237500D01*
G01*
X149020000Y-71787500D01*
G75*
G02*
X148782500Y-72025000I-237500J0D01*
G01*
X148182500Y-72025000D01*
G75*
G02*
X147945000Y-71787500I0J237500D01*
G01*
G37*
%TD*%
%TO.C,C10*%
G36*
G01*
X144285000Y-68247500D02*
X144285000Y-67772500D01*
G75*
G02*
X144522500Y-67535000I237500J0D01*
G01*
X145122500Y-67535000D01*
G75*
G02*
X145360000Y-67772500I0J-237500D01*
G01*
X145360000Y-68247500D01*
G75*
G02*
X145122500Y-68485000I-237500J0D01*
G01*
X144522500Y-68485000D01*
G75*
G02*
X144285000Y-68247500I0J237500D01*
G01*
G37*
G36*
G01*
X142560000Y-68247500D02*
X142560000Y-67772500D01*
G75*
G02*
X142797500Y-67535000I237500J0D01*
G01*
X143397500Y-67535000D01*
G75*
G02*
X143635000Y-67772500I0J-237500D01*
G01*
X143635000Y-68247500D01*
G75*
G02*
X143397500Y-68485000I-237500J0D01*
G01*
X142797500Y-68485000D01*
G75*
G02*
X142560000Y-68247500I0J237500D01*
G01*
G37*
%TD*%
%TO.C,C11*%
G36*
G01*
X167370000Y-65427500D02*
X167370000Y-64952500D01*
G75*
G02*
X167607500Y-64715000I237500J0D01*
G01*
X168207500Y-64715000D01*
G75*
G02*
X168445000Y-64952500I0J-237500D01*
G01*
X168445000Y-65427500D01*
G75*
G02*
X168207500Y-65665000I-237500J0D01*
G01*
X167607500Y-65665000D01*
G75*
G02*
X167370000Y-65427500I0J237500D01*
G01*
G37*
G36*
G01*
X169095000Y-65427500D02*
X169095000Y-64952500D01*
G75*
G02*
X169332500Y-64715000I237500J0D01*
G01*
X169932500Y-64715000D01*
G75*
G02*
X170170000Y-64952500I0J-237500D01*
G01*
X170170000Y-65427500D01*
G75*
G02*
X169932500Y-65665000I-237500J0D01*
G01*
X169332500Y-65665000D01*
G75*
G02*
X169095000Y-65427500I0J237500D01*
G01*
G37*
%TD*%
%TO.C,C12*%
G36*
G01*
X162250000Y-77337500D02*
X162250000Y-76862500D01*
G75*
G02*
X162487500Y-76625000I237500J0D01*
G01*
X163087500Y-76625000D01*
G75*
G02*
X163325000Y-76862500I0J-237500D01*
G01*
X163325000Y-77337500D01*
G75*
G02*
X163087500Y-77575000I-237500J0D01*
G01*
X162487500Y-77575000D01*
G75*
G02*
X162250000Y-77337500I0J237500D01*
G01*
G37*
G36*
G01*
X163975000Y-77337500D02*
X163975000Y-76862500D01*
G75*
G02*
X164212500Y-76625000I237500J0D01*
G01*
X164812500Y-76625000D01*
G75*
G02*
X165050000Y-76862500I0J-237500D01*
G01*
X165050000Y-77337500D01*
G75*
G02*
X164812500Y-77575000I-237500J0D01*
G01*
X164212500Y-77575000D01*
G75*
G02*
X163975000Y-77337500I0J237500D01*
G01*
G37*
%TD*%
%TO.C,C13*%
G36*
G01*
X158405000Y-66647500D02*
X158405000Y-66172500D01*
G75*
G02*
X158642500Y-65935000I237500J0D01*
G01*
X159242500Y-65935000D01*
G75*
G02*
X159480000Y-66172500I0J-237500D01*
G01*
X159480000Y-66647500D01*
G75*
G02*
X159242500Y-66885000I-237500J0D01*
G01*
X158642500Y-66885000D01*
G75*
G02*
X158405000Y-66647500I0J237500D01*
G01*
G37*
G36*
G01*
X156680000Y-66647500D02*
X156680000Y-66172500D01*
G75*
G02*
X156917500Y-65935000I237500J0D01*
G01*
X157517500Y-65935000D01*
G75*
G02*
X157755000Y-66172500I0J-237500D01*
G01*
X157755000Y-66647500D01*
G75*
G02*
X157517500Y-66885000I-237500J0D01*
G01*
X156917500Y-66885000D01*
G75*
G02*
X156680000Y-66647500I0J237500D01*
G01*
G37*
%TD*%
%TO.C,C14*%
G36*
G01*
X159075000Y-69855000D02*
X159075000Y-68005000D01*
G75*
G02*
X159325000Y-67755000I250000J0D01*
G01*
X160325000Y-67755000D01*
G75*
G02*
X160575000Y-68005000I0J-250000D01*
G01*
X160575000Y-69855000D01*
G75*
G02*
X160325000Y-70105000I-250000J0D01*
G01*
X159325000Y-70105000D01*
G75*
G02*
X159075000Y-69855000I0J250000D01*
G01*
G37*
G36*
G01*
X155825000Y-69855000D02*
X155825000Y-68005000D01*
G75*
G02*
X156075000Y-67755000I250000J0D01*
G01*
X157075000Y-67755000D01*
G75*
G02*
X157325000Y-68005000I0J-250000D01*
G01*
X157325000Y-69855000D01*
G75*
G02*
X157075000Y-70105000I-250000J0D01*
G01*
X156075000Y-70105000D01*
G75*
G02*
X155825000Y-69855000I0J250000D01*
G01*
G37*
%TD*%
D13*
%TO.C,J5*%
X146390000Y-52790000D03*
X146390000Y-59190000D03*
X143850000Y-52790000D03*
X143850000Y-59190000D03*
X141310000Y-52790000D03*
X141310000Y-59190000D03*
X138770000Y-52790000D03*
X138770000Y-59190000D03*
X136230000Y-52790000D03*
X136230000Y-59190000D03*
%TD*%
%TO.C,L1*%
G36*
G01*
X127879999Y-73200000D02*
X128780001Y-73200000D01*
G75*
G02*
X129030000Y-73449999I0J-249999D01*
G01*
X129030000Y-74100001D01*
G75*
G02*
X128780001Y-74350000I-249999J0D01*
G01*
X127879999Y-74350000D01*
G75*
G02*
X127630000Y-74100001I0J249999D01*
G01*
X127630000Y-73449999D01*
G75*
G02*
X127879999Y-73200000I249999J0D01*
G01*
G37*
G36*
G01*
X127879999Y-75250000D02*
X128780001Y-75250000D01*
G75*
G02*
X129030000Y-75499999I0J-249999D01*
G01*
X129030000Y-76150001D01*
G75*
G02*
X128780001Y-76400000I-249999J0D01*
G01*
X127879999Y-76400000D01*
G75*
G02*
X127630000Y-76150001I0J249999D01*
G01*
X127630000Y-75499999D01*
G75*
G02*
X127879999Y-75250000I249999J0D01*
G01*
G37*
%TD*%
%TO.C,LD1*%
G36*
G01*
X115890000Y-60665000D02*
X115890000Y-59415000D01*
G75*
G02*
X116140000Y-59165000I250000J0D01*
G01*
X117065000Y-59165000D01*
G75*
G02*
X117315000Y-59415000I0J-250000D01*
G01*
X117315000Y-60665000D01*
G75*
G02*
X117065000Y-60915000I-250000J0D01*
G01*
X116140000Y-60915000D01*
G75*
G02*
X115890000Y-60665000I0J250000D01*
G01*
G37*
G36*
G01*
X118865000Y-60665000D02*
X118865000Y-59415000D01*
G75*
G02*
X119115000Y-59165000I250000J0D01*
G01*
X120040000Y-59165000D01*
G75*
G02*
X120290000Y-59415000I0J-250000D01*
G01*
X120290000Y-60665000D01*
G75*
G02*
X120040000Y-60915000I-250000J0D01*
G01*
X119115000Y-60915000D01*
G75*
G02*
X118865000Y-60665000I0J250000D01*
G01*
G37*
%TD*%
%TO.C,R1*%
G36*
G01*
X124625000Y-72782500D02*
X124625000Y-73257500D01*
G75*
G02*
X124387500Y-73495000I-237500J0D01*
G01*
X123887500Y-73495000D01*
G75*
G02*
X123650000Y-73257500I0J237500D01*
G01*
X123650000Y-72782500D01*
G75*
G02*
X123887500Y-72545000I237500J0D01*
G01*
X124387500Y-72545000D01*
G75*
G02*
X124625000Y-72782500I0J-237500D01*
G01*
G37*
G36*
G01*
X126450000Y-72782500D02*
X126450000Y-73257500D01*
G75*
G02*
X126212500Y-73495000I-237500J0D01*
G01*
X125712500Y-73495000D01*
G75*
G02*
X125475000Y-73257500I0J237500D01*
G01*
X125475000Y-72782500D01*
G75*
G02*
X125712500Y-72545000I237500J0D01*
G01*
X126212500Y-72545000D01*
G75*
G02*
X126450000Y-72782500I0J-237500D01*
G01*
G37*
%TD*%
%TO.C,R2*%
G36*
G01*
X131700000Y-78577500D02*
X131700000Y-78102500D01*
G75*
G02*
X131937500Y-77865000I237500J0D01*
G01*
X132437500Y-77865000D01*
G75*
G02*
X132675000Y-78102500I0J-237500D01*
G01*
X132675000Y-78577500D01*
G75*
G02*
X132437500Y-78815000I-237500J0D01*
G01*
X131937500Y-78815000D01*
G75*
G02*
X131700000Y-78577500I0J237500D01*
G01*
G37*
G36*
G01*
X133525000Y-78577500D02*
X133525000Y-78102500D01*
G75*
G02*
X133762500Y-77865000I237500J0D01*
G01*
X134262500Y-77865000D01*
G75*
G02*
X134500000Y-78102500I0J-237500D01*
G01*
X134500000Y-78577500D01*
G75*
G02*
X134262500Y-78815000I-237500J0D01*
G01*
X133762500Y-78815000D01*
G75*
G02*
X133525000Y-78577500I0J237500D01*
G01*
G37*
%TD*%
%TO.C,R4*%
G36*
G01*
X162100000Y-71137500D02*
X162100000Y-70662500D01*
G75*
G02*
X162337500Y-70425000I237500J0D01*
G01*
X162837500Y-70425000D01*
G75*
G02*
X163075000Y-70662500I0J-237500D01*
G01*
X163075000Y-71137500D01*
G75*
G02*
X162837500Y-71375000I-237500J0D01*
G01*
X162337500Y-71375000D01*
G75*
G02*
X162100000Y-71137500I0J237500D01*
G01*
G37*
G36*
G01*
X163925000Y-71137500D02*
X163925000Y-70662500D01*
G75*
G02*
X164162500Y-70425000I237500J0D01*
G01*
X164662500Y-70425000D01*
G75*
G02*
X164900000Y-70662500I0J-237500D01*
G01*
X164900000Y-71137500D01*
G75*
G02*
X164662500Y-71375000I-237500J0D01*
G01*
X164162500Y-71375000D01*
G75*
G02*
X163925000Y-71137500I0J237500D01*
G01*
G37*
%TD*%
%TO.C,R5*%
G36*
G01*
X163925000Y-72737500D02*
X163925000Y-72262500D01*
G75*
G02*
X164162500Y-72025000I237500J0D01*
G01*
X164662500Y-72025000D01*
G75*
G02*
X164900000Y-72262500I0J-237500D01*
G01*
X164900000Y-72737500D01*
G75*
G02*
X164662500Y-72975000I-237500J0D01*
G01*
X164162500Y-72975000D01*
G75*
G02*
X163925000Y-72737500I0J237500D01*
G01*
G37*
G36*
G01*
X162100000Y-72737500D02*
X162100000Y-72262500D01*
G75*
G02*
X162337500Y-72025000I237500J0D01*
G01*
X162837500Y-72025000D01*
G75*
G02*
X163075000Y-72262500I0J-237500D01*
G01*
X163075000Y-72737500D01*
G75*
G02*
X162837500Y-72975000I-237500J0D01*
G01*
X162337500Y-72975000D01*
G75*
G02*
X162100000Y-72737500I0J237500D01*
G01*
G37*
%TD*%
%TO.C,R7*%
G36*
G01*
X116710000Y-62567500D02*
X116710000Y-62092500D01*
G75*
G02*
X116947500Y-61855000I237500J0D01*
G01*
X117447500Y-61855000D01*
G75*
G02*
X117685000Y-62092500I0J-237500D01*
G01*
X117685000Y-62567500D01*
G75*
G02*
X117447500Y-62805000I-237500J0D01*
G01*
X116947500Y-62805000D01*
G75*
G02*
X116710000Y-62567500I0J237500D01*
G01*
G37*
G36*
G01*
X118535000Y-62567500D02*
X118535000Y-62092500D01*
G75*
G02*
X118772500Y-61855000I237500J0D01*
G01*
X119272500Y-61855000D01*
G75*
G02*
X119510000Y-62092500I0J-237500D01*
G01*
X119510000Y-62567500D01*
G75*
G02*
X119272500Y-62805000I-237500J0D01*
G01*
X118772500Y-62805000D01*
G75*
G02*
X118535000Y-62567500I0J237500D01*
G01*
G37*
%TD*%
D14*
%TO.C,SW1*%
X118530000Y-78600000D03*
X125030000Y-78600000D03*
%TD*%
D15*
%TO.C,U2*%
X157630000Y-72190000D03*
D16*
X157630000Y-78490000D03*
X159930000Y-78490000D03*
X155330000Y-78490000D03*
%TD*%
D17*
%TO.C,Y1*%
G36*
X148083301Y-76969087D02*
G01*
X146669087Y-78383301D01*
X143487107Y-75201321D01*
X144901321Y-73787107D01*
X148083301Y-76969087D01*
G37*
G36*
X142072893Y-70958679D02*
G01*
X140658679Y-72372893D01*
X137476699Y-69190913D01*
X138890913Y-67776699D01*
X142072893Y-70958679D01*
G37*
%TD*%
%TO.C,LD2*%
G36*
G01*
X114090000Y-84240001D02*
X114090000Y-83339999D01*
G75*
G02*
X114339999Y-83090000I249999J0D01*
G01*
X114990001Y-83090000D01*
G75*
G02*
X115240000Y-83339999I0J-249999D01*
G01*
X115240000Y-84240001D01*
G75*
G02*
X114990001Y-84490000I-249999J0D01*
G01*
X114339999Y-84490000D01*
G75*
G02*
X114090000Y-84240001I0J249999D01*
G01*
G37*
G36*
G01*
X116140000Y-84240001D02*
X116140000Y-83339999D01*
G75*
G02*
X116389999Y-83090000I249999J0D01*
G01*
X117040001Y-83090000D01*
G75*
G02*
X117290000Y-83339999I0J-249999D01*
G01*
X117290000Y-84240001D01*
G75*
G02*
X117040001Y-84490000I-249999J0D01*
G01*
X116389999Y-84490000D01*
G75*
G02*
X116140000Y-84240001I0J249999D01*
G01*
G37*
%TD*%
%TO.C,R8*%
G36*
G01*
X114360000Y-86097500D02*
X114360000Y-85622500D01*
G75*
G02*
X114597500Y-85385000I237500J0D01*
G01*
X115097500Y-85385000D01*
G75*
G02*
X115335000Y-85622500I0J-237500D01*
G01*
X115335000Y-86097500D01*
G75*
G02*
X115097500Y-86335000I-237500J0D01*
G01*
X114597500Y-86335000D01*
G75*
G02*
X114360000Y-86097500I0J237500D01*
G01*
G37*
G36*
G01*
X116185000Y-86097500D02*
X116185000Y-85622500D01*
G75*
G02*
X116422500Y-85385000I237500J0D01*
G01*
X116922500Y-85385000D01*
G75*
G02*
X117160000Y-85622500I0J-237500D01*
G01*
X117160000Y-86097500D01*
G75*
G02*
X116922500Y-86335000I-237500J0D01*
G01*
X116422500Y-86335000D01*
G75*
G02*
X116185000Y-86097500I0J237500D01*
G01*
G37*
%TD*%
%TO.C,R9*%
G36*
G01*
X120357500Y-87030000D02*
X119882500Y-87030000D01*
G75*
G02*
X119645000Y-86792500I0J237500D01*
G01*
X119645000Y-86292500D01*
G75*
G02*
X119882500Y-86055000I237500J0D01*
G01*
X120357500Y-86055000D01*
G75*
G02*
X120595000Y-86292500I0J-237500D01*
G01*
X120595000Y-86792500D01*
G75*
G02*
X120357500Y-87030000I-237500J0D01*
G01*
G37*
G36*
G01*
X120357500Y-85205000D02*
X119882500Y-85205000D01*
G75*
G02*
X119645000Y-84967500I0J237500D01*
G01*
X119645000Y-84467500D01*
G75*
G02*
X119882500Y-84230000I237500J0D01*
G01*
X120357500Y-84230000D01*
G75*
G02*
X120595000Y-84467500I0J-237500D01*
G01*
X120595000Y-84967500D01*
G75*
G02*
X120357500Y-85205000I-237500J0D01*
G01*
G37*
%TD*%
M02*
