%TF.GenerationSoftware,KiCad,Pcbnew,5.1.9+dfsg1-1*%
%TF.CreationDate,2022-02-08T20:36:35+01:00*%
%TF.ProjectId,STM32F4XX,53544d33-3246-4345-9858-2e6b69636164,2.0*%
%TF.SameCoordinates,Original*%
%TF.FileFunction,Legend,Bot*%
%TF.FilePolarity,Positive*%
%FSLAX46Y46*%
G04 Gerber Fmt 4.6, Leading zero omitted, Abs format (unit mm)*
G04 Created by KiCad (PCBNEW 5.1.9+dfsg1-1) date 2022-02-08 20:36:35*
%MOMM*%
%LPD*%
G01*
G04 APERTURE LIST*
%ADD10C,0.150000*%
%ADD11C,0.120000*%
G04 APERTURE END LIST*
D10*
X171119047Y-115452380D02*
X171119047Y-114452380D01*
X170690476Y-115452380D02*
X170690476Y-114928571D01*
X170738095Y-114833333D01*
X170833333Y-114785714D01*
X170976190Y-114785714D01*
X171071428Y-114833333D01*
X171119047Y-114880952D01*
X170357142Y-114785714D02*
X169976190Y-114785714D01*
X170214285Y-114452380D02*
X170214285Y-115309523D01*
X170166666Y-115404761D01*
X170071428Y-115452380D01*
X169976190Y-115452380D01*
X169785714Y-114785714D02*
X169404761Y-114785714D01*
X169642857Y-114452380D02*
X169642857Y-115309523D01*
X169595238Y-115404761D01*
X169500000Y-115452380D01*
X169404761Y-115452380D01*
X169071428Y-114785714D02*
X169071428Y-115785714D01*
X169071428Y-114833333D02*
X168976190Y-114785714D01*
X168785714Y-114785714D01*
X168690476Y-114833333D01*
X168642857Y-114880952D01*
X168595238Y-114976190D01*
X168595238Y-115261904D01*
X168642857Y-115357142D01*
X168690476Y-115404761D01*
X168785714Y-115452380D01*
X168976190Y-115452380D01*
X169071428Y-115404761D01*
X168214285Y-115404761D02*
X168119047Y-115452380D01*
X167928571Y-115452380D01*
X167833333Y-115404761D01*
X167785714Y-115309523D01*
X167785714Y-115261904D01*
X167833333Y-115166666D01*
X167928571Y-115119047D01*
X168071428Y-115119047D01*
X168166666Y-115071428D01*
X168214285Y-114976190D01*
X168214285Y-114928571D01*
X168166666Y-114833333D01*
X168071428Y-114785714D01*
X167928571Y-114785714D01*
X167833333Y-114833333D01*
X167357142Y-115357142D02*
X167309523Y-115404761D01*
X167357142Y-115452380D01*
X167404761Y-115404761D01*
X167357142Y-115357142D01*
X167357142Y-115452380D01*
X167357142Y-114833333D02*
X167309523Y-114880952D01*
X167357142Y-114928571D01*
X167404761Y-114880952D01*
X167357142Y-114833333D01*
X167357142Y-114928571D01*
X166166666Y-114404761D02*
X167023809Y-115690476D01*
X165119047Y-114404761D02*
X165976190Y-115690476D01*
X164357142Y-114785714D02*
X164357142Y-115595238D01*
X164404761Y-115690476D01*
X164452380Y-115738095D01*
X164547619Y-115785714D01*
X164690476Y-115785714D01*
X164785714Y-115738095D01*
X164357142Y-115404761D02*
X164452380Y-115452380D01*
X164642857Y-115452380D01*
X164738095Y-115404761D01*
X164785714Y-115357142D01*
X164833333Y-115261904D01*
X164833333Y-114976190D01*
X164785714Y-114880952D01*
X164738095Y-114833333D01*
X164642857Y-114785714D01*
X164452380Y-114785714D01*
X164357142Y-114833333D01*
X163880952Y-115452380D02*
X163880952Y-114785714D01*
X163880952Y-114452380D02*
X163928571Y-114500000D01*
X163880952Y-114547619D01*
X163833333Y-114500000D01*
X163880952Y-114452380D01*
X163880952Y-114547619D01*
X163547619Y-114785714D02*
X163166666Y-114785714D01*
X163404761Y-114452380D02*
X163404761Y-115309523D01*
X163357142Y-115404761D01*
X163261904Y-115452380D01*
X163166666Y-115452380D01*
X162833333Y-115452380D02*
X162833333Y-114452380D01*
X162404761Y-115452380D02*
X162404761Y-114928571D01*
X162452380Y-114833333D01*
X162547619Y-114785714D01*
X162690476Y-114785714D01*
X162785714Y-114833333D01*
X162833333Y-114880952D01*
X161500000Y-114785714D02*
X161500000Y-115452380D01*
X161928571Y-114785714D02*
X161928571Y-115309523D01*
X161880952Y-115404761D01*
X161785714Y-115452380D01*
X161642857Y-115452380D01*
X161547619Y-115404761D01*
X161500000Y-115357142D01*
X161023809Y-115452380D02*
X161023809Y-114452380D01*
X161023809Y-114833333D02*
X160928571Y-114785714D01*
X160738095Y-114785714D01*
X160642857Y-114833333D01*
X160595238Y-114880952D01*
X160547619Y-114976190D01*
X160547619Y-115261904D01*
X160595238Y-115357142D01*
X160642857Y-115404761D01*
X160738095Y-115452380D01*
X160928571Y-115452380D01*
X161023809Y-115404761D01*
X160119047Y-115357142D02*
X160071428Y-115404761D01*
X160119047Y-115452380D01*
X160166666Y-115404761D01*
X160119047Y-115357142D01*
X160119047Y-115452380D01*
X159214285Y-115404761D02*
X159309523Y-115452380D01*
X159500000Y-115452380D01*
X159595238Y-115404761D01*
X159642857Y-115357142D01*
X159690476Y-115261904D01*
X159690476Y-114976190D01*
X159642857Y-114880952D01*
X159595238Y-114833333D01*
X159500000Y-114785714D01*
X159309523Y-114785714D01*
X159214285Y-114833333D01*
X158642857Y-115452380D02*
X158738095Y-115404761D01*
X158785714Y-115357142D01*
X158833333Y-115261904D01*
X158833333Y-114976190D01*
X158785714Y-114880952D01*
X158738095Y-114833333D01*
X158642857Y-114785714D01*
X158500000Y-114785714D01*
X158404761Y-114833333D01*
X158357142Y-114880952D01*
X158309523Y-114976190D01*
X158309523Y-115261904D01*
X158357142Y-115357142D01*
X158404761Y-115404761D01*
X158500000Y-115452380D01*
X158642857Y-115452380D01*
X157880952Y-115452380D02*
X157880952Y-114785714D01*
X157880952Y-114880952D02*
X157833333Y-114833333D01*
X157738095Y-114785714D01*
X157595238Y-114785714D01*
X157500000Y-114833333D01*
X157452380Y-114928571D01*
X157452380Y-115452380D01*
X157452380Y-114928571D02*
X157404761Y-114833333D01*
X157309523Y-114785714D01*
X157166666Y-114785714D01*
X157071428Y-114833333D01*
X157023809Y-114928571D01*
X157023809Y-115452380D01*
X155833333Y-114404761D02*
X156690476Y-115690476D01*
X155071428Y-114785714D02*
X155071428Y-115595238D01*
X155119047Y-115690476D01*
X155166666Y-115738095D01*
X155261904Y-115785714D01*
X155404761Y-115785714D01*
X155500000Y-115738095D01*
X155071428Y-115404761D02*
X155166666Y-115452380D01*
X155357142Y-115452380D01*
X155452380Y-115404761D01*
X155500000Y-115357142D01*
X155547619Y-115261904D01*
X155547619Y-114976190D01*
X155500000Y-114880952D01*
X155452380Y-114833333D01*
X155357142Y-114785714D01*
X155166666Y-114785714D01*
X155071428Y-114833333D01*
X154595238Y-115452380D02*
X154595238Y-114785714D01*
X154595238Y-114452380D02*
X154642857Y-114500000D01*
X154595238Y-114547619D01*
X154547619Y-114500000D01*
X154595238Y-114452380D01*
X154595238Y-114547619D01*
X153690476Y-115452380D02*
X153690476Y-114928571D01*
X153738095Y-114833333D01*
X153833333Y-114785714D01*
X154023809Y-114785714D01*
X154119047Y-114833333D01*
X153690476Y-115404761D02*
X153785714Y-115452380D01*
X154023809Y-115452380D01*
X154119047Y-115404761D01*
X154166666Y-115309523D01*
X154166666Y-115214285D01*
X154119047Y-115119047D01*
X154023809Y-115071428D01*
X153785714Y-115071428D01*
X153690476Y-115023809D01*
X153214285Y-114785714D02*
X153214285Y-115452380D01*
X153214285Y-114880952D02*
X153166666Y-114833333D01*
X153071428Y-114785714D01*
X152928571Y-114785714D01*
X152833333Y-114833333D01*
X152785714Y-114928571D01*
X152785714Y-115452380D01*
X152166666Y-115452380D02*
X152261904Y-115404761D01*
X152309523Y-115309523D01*
X152309523Y-114452380D01*
X151357142Y-114785714D02*
X151357142Y-115452380D01*
X151785714Y-114785714D02*
X151785714Y-115309523D01*
X151738095Y-115404761D01*
X151642857Y-115452380D01*
X151500000Y-115452380D01*
X151404761Y-115404761D01*
X151357142Y-115357142D01*
X150452380Y-115404761D02*
X150547619Y-115452380D01*
X150738095Y-115452380D01*
X150833333Y-115404761D01*
X150880952Y-115357142D01*
X150928571Y-115261904D01*
X150928571Y-114976190D01*
X150880952Y-114880952D01*
X150833333Y-114833333D01*
X150738095Y-114785714D01*
X150547619Y-114785714D01*
X150452380Y-114833333D01*
X149595238Y-115452380D02*
X149595238Y-114928571D01*
X149642857Y-114833333D01*
X149738095Y-114785714D01*
X149928571Y-114785714D01*
X150023809Y-114833333D01*
X149595238Y-115404761D02*
X149690476Y-115452380D01*
X149928571Y-115452380D01*
X150023809Y-115404761D01*
X150071428Y-115309523D01*
X150071428Y-115214285D01*
X150023809Y-115119047D01*
X149928571Y-115071428D01*
X149690476Y-115071428D01*
X149595238Y-115023809D01*
X149119047Y-115452380D02*
X149119047Y-114785714D01*
X149119047Y-114976190D02*
X149071428Y-114880952D01*
X149023809Y-114833333D01*
X148928571Y-114785714D01*
X148833333Y-114785714D01*
X148119047Y-115404761D02*
X148214285Y-115452380D01*
X148404761Y-115452380D01*
X148500000Y-115404761D01*
X148547619Y-115309523D01*
X148547619Y-114928571D01*
X148500000Y-114833333D01*
X148404761Y-114785714D01*
X148214285Y-114785714D01*
X148119047Y-114833333D01*
X148071428Y-114928571D01*
X148071428Y-115023809D01*
X148547619Y-115119047D01*
X147642857Y-114785714D02*
X147642857Y-115452380D01*
X147642857Y-114880952D02*
X147595238Y-114833333D01*
X147500000Y-114785714D01*
X147357142Y-114785714D01*
X147261904Y-114833333D01*
X147214285Y-114928571D01*
X147214285Y-115452380D01*
X146833333Y-114785714D02*
X146309523Y-114785714D01*
X146833333Y-115452380D01*
X146309523Y-115452380D01*
X145928571Y-115452380D02*
X145928571Y-114785714D01*
X145928571Y-114452380D02*
X145976190Y-114500000D01*
X145928571Y-114547619D01*
X145880952Y-114500000D01*
X145928571Y-114452380D01*
X145928571Y-114547619D01*
X144738095Y-114404761D02*
X145595238Y-115690476D01*
X144452380Y-115404761D02*
X144309523Y-115452380D01*
X144071428Y-115452380D01*
X143976190Y-115404761D01*
X143928571Y-115357142D01*
X143880952Y-115261904D01*
X143880952Y-115166666D01*
X143928571Y-115071428D01*
X143976190Y-115023809D01*
X144071428Y-114976190D01*
X144261904Y-114928571D01*
X144357142Y-114880952D01*
X144404761Y-114833333D01*
X144452380Y-114738095D01*
X144452380Y-114642857D01*
X144404761Y-114547619D01*
X144357142Y-114500000D01*
X144261904Y-114452380D01*
X144023809Y-114452380D01*
X143880952Y-114500000D01*
X143595238Y-114452380D02*
X143023809Y-114452380D01*
X143309523Y-115452380D02*
X143309523Y-114452380D01*
X142690476Y-115452380D02*
X142690476Y-114452380D01*
X142357142Y-115166666D01*
X142023809Y-114452380D01*
X142023809Y-115452380D01*
X141642857Y-114452380D02*
X141023809Y-114452380D01*
X141357142Y-114833333D01*
X141214285Y-114833333D01*
X141119047Y-114880952D01*
X141071428Y-114928571D01*
X141023809Y-115023809D01*
X141023809Y-115261904D01*
X141071428Y-115357142D01*
X141119047Y-115404761D01*
X141214285Y-115452380D01*
X141500000Y-115452380D01*
X141595238Y-115404761D01*
X141642857Y-115357142D01*
X140642857Y-114547619D02*
X140595238Y-114500000D01*
X140500000Y-114452380D01*
X140261904Y-114452380D01*
X140166666Y-114500000D01*
X140119047Y-114547619D01*
X140071428Y-114642857D01*
X140071428Y-114738095D01*
X140119047Y-114880952D01*
X140690476Y-115452380D01*
X140071428Y-115452380D01*
X139309523Y-114928571D02*
X139642857Y-114928571D01*
X139642857Y-115452380D02*
X139642857Y-114452380D01*
X139166666Y-114452380D01*
X138357142Y-114785714D02*
X138357142Y-115452380D01*
X138595238Y-114404761D02*
X138833333Y-115119047D01*
X138214285Y-115119047D01*
X137928571Y-114452380D02*
X137261904Y-115452380D01*
X137261904Y-114452380D02*
X137928571Y-115452380D01*
X136976190Y-114452380D02*
X136309523Y-115452380D01*
X136309523Y-114452380D02*
X136976190Y-115452380D01*
X135214285Y-114404761D02*
X136071428Y-115690476D01*
X134928571Y-115404761D02*
X134785714Y-115452380D01*
X134547619Y-115452380D01*
X134452380Y-115404761D01*
X134404761Y-115357142D01*
X134357142Y-115261904D01*
X134357142Y-115166666D01*
X134404761Y-115071428D01*
X134452380Y-115023809D01*
X134547619Y-114976190D01*
X134738095Y-114928571D01*
X134833333Y-114880952D01*
X134880952Y-114833333D01*
X134928571Y-114738095D01*
X134928571Y-114642857D01*
X134880952Y-114547619D01*
X134833333Y-114500000D01*
X134738095Y-114452380D01*
X134500000Y-114452380D01*
X134357142Y-114500000D01*
X134071428Y-114452380D02*
X133500000Y-114452380D01*
X133785714Y-115452380D02*
X133785714Y-114452380D01*
X133166666Y-115452380D02*
X133166666Y-114452380D01*
X132833333Y-115166666D01*
X132500000Y-114452380D01*
X132500000Y-115452380D01*
X132119047Y-114452380D02*
X131500000Y-114452380D01*
X131833333Y-114833333D01*
X131690476Y-114833333D01*
X131595238Y-114880952D01*
X131547619Y-114928571D01*
X131500000Y-115023809D01*
X131500000Y-115261904D01*
X131547619Y-115357142D01*
X131595238Y-115404761D01*
X131690476Y-115452380D01*
X131976190Y-115452380D01*
X132071428Y-115404761D01*
X132119047Y-115357142D01*
X131119047Y-114547619D02*
X131071428Y-114500000D01*
X130976190Y-114452380D01*
X130738095Y-114452380D01*
X130642857Y-114500000D01*
X130595238Y-114547619D01*
X130547619Y-114642857D01*
X130547619Y-114738095D01*
X130595238Y-114880952D01*
X131166666Y-115452380D01*
X130547619Y-115452380D01*
X129785714Y-114928571D02*
X130119047Y-114928571D01*
X130119047Y-115452380D02*
X130119047Y-114452380D01*
X129642857Y-114452380D01*
X128833333Y-114785714D02*
X128833333Y-115452380D01*
X129071428Y-114404761D02*
X129309523Y-115119047D01*
X128690476Y-115119047D01*
X128119047Y-114452380D02*
X128023809Y-114452380D01*
X127928571Y-114500000D01*
X127880952Y-114547619D01*
X127833333Y-114642857D01*
X127785714Y-114833333D01*
X127785714Y-115071428D01*
X127833333Y-115261904D01*
X127880952Y-115357142D01*
X127928571Y-115404761D01*
X128023809Y-115452380D01*
X128119047Y-115452380D01*
X128214285Y-115404761D01*
X128261904Y-115357142D01*
X128309523Y-115261904D01*
X128357142Y-115071428D01*
X128357142Y-114833333D01*
X128309523Y-114642857D01*
X128261904Y-114547619D01*
X128214285Y-114500000D01*
X128119047Y-114452380D01*
X126833333Y-115452380D02*
X127404761Y-115452380D01*
X127119047Y-115452380D02*
X127119047Y-114452380D01*
X127214285Y-114595238D01*
X127309523Y-114690476D01*
X127404761Y-114738095D01*
X118452380Y-66666666D02*
X117785714Y-66666666D01*
X117452380Y-66666666D02*
X117500000Y-66619047D01*
X117547619Y-66666666D01*
X117500000Y-66714285D01*
X117452380Y-66666666D01*
X117547619Y-66666666D01*
X117785714Y-67142857D02*
X118452380Y-67142857D01*
X117880952Y-67142857D02*
X117833333Y-67190476D01*
X117785714Y-67285714D01*
X117785714Y-67428571D01*
X117833333Y-67523809D01*
X117928571Y-67571428D01*
X118452380Y-67571428D01*
X118452380Y-68809523D02*
X117785714Y-68809523D01*
X117880952Y-68809523D02*
X117833333Y-68857142D01*
X117785714Y-68952380D01*
X117785714Y-69095238D01*
X117833333Y-69190476D01*
X117928571Y-69238095D01*
X118452380Y-69238095D01*
X117928571Y-69238095D02*
X117833333Y-69285714D01*
X117785714Y-69380952D01*
X117785714Y-69523809D01*
X117833333Y-69619047D01*
X117928571Y-69666666D01*
X118452380Y-69666666D01*
X118404761Y-70523809D02*
X118452380Y-70428571D01*
X118452380Y-70238095D01*
X118404761Y-70142857D01*
X118309523Y-70095238D01*
X117928571Y-70095238D01*
X117833333Y-70142857D01*
X117785714Y-70238095D01*
X117785714Y-70428571D01*
X117833333Y-70523809D01*
X117928571Y-70571428D01*
X118023809Y-70571428D01*
X118119047Y-70095238D01*
X118452380Y-71000000D02*
X117785714Y-71000000D01*
X117880952Y-71000000D02*
X117833333Y-71047619D01*
X117785714Y-71142857D01*
X117785714Y-71285714D01*
X117833333Y-71380952D01*
X117928571Y-71428571D01*
X118452380Y-71428571D01*
X117928571Y-71428571D02*
X117833333Y-71476190D01*
X117785714Y-71571428D01*
X117785714Y-71714285D01*
X117833333Y-71809523D01*
X117928571Y-71857142D01*
X118452380Y-71857142D01*
X118452380Y-72476190D02*
X118404761Y-72380952D01*
X118357142Y-72333333D01*
X118261904Y-72285714D01*
X117976190Y-72285714D01*
X117880952Y-72333333D01*
X117833333Y-72380952D01*
X117785714Y-72476190D01*
X117785714Y-72619047D01*
X117833333Y-72714285D01*
X117880952Y-72761904D01*
X117976190Y-72809523D01*
X118261904Y-72809523D01*
X118357142Y-72761904D01*
X118404761Y-72714285D01*
X118452380Y-72619047D01*
X118452380Y-72476190D01*
X118452380Y-73238095D02*
X117785714Y-73238095D01*
X117976190Y-73238095D02*
X117880952Y-73285714D01*
X117833333Y-73333333D01*
X117785714Y-73428571D01*
X117785714Y-73523809D01*
X118452380Y-73857142D02*
X117785714Y-73857142D01*
X117452380Y-73857142D02*
X117500000Y-73809523D01*
X117547619Y-73857142D01*
X117500000Y-73904761D01*
X117452380Y-73857142D01*
X117547619Y-73857142D01*
X118452380Y-74761904D02*
X117928571Y-74761904D01*
X117833333Y-74714285D01*
X117785714Y-74619047D01*
X117785714Y-74428571D01*
X117833333Y-74333333D01*
X118404761Y-74761904D02*
X118452380Y-74666666D01*
X118452380Y-74428571D01*
X118404761Y-74333333D01*
X118309523Y-74285714D01*
X118214285Y-74285714D01*
X118119047Y-74333333D01*
X118071428Y-74428571D01*
X118071428Y-74666666D01*
X118023809Y-74761904D01*
X118452380Y-75238095D02*
X117785714Y-75238095D01*
X117880952Y-75238095D02*
X117833333Y-75285714D01*
X117785714Y-75380952D01*
X117785714Y-75523809D01*
X117833333Y-75619047D01*
X117928571Y-75666666D01*
X118452380Y-75666666D01*
X117928571Y-75666666D02*
X117833333Y-75714285D01*
X117785714Y-75809523D01*
X117785714Y-75952380D01*
X117833333Y-76047619D01*
X117928571Y-76095238D01*
X118452380Y-76095238D01*
X118166666Y-77285714D02*
X118166666Y-77761904D01*
X118452380Y-77190476D02*
X117452380Y-77523809D01*
X118452380Y-77857142D01*
X118357142Y-78190476D02*
X118404761Y-78238095D01*
X118452380Y-78190476D01*
X118404761Y-78142857D01*
X118357142Y-78190476D01*
X118452380Y-78190476D01*
X118404761Y-78619047D02*
X118452380Y-78761904D01*
X118452380Y-79000000D01*
X118404761Y-79095238D01*
X118357142Y-79142857D01*
X118261904Y-79190476D01*
X118166666Y-79190476D01*
X118071428Y-79142857D01*
X118023809Y-79095238D01*
X117976190Y-79000000D01*
X117928571Y-78809523D01*
X117880952Y-78714285D01*
X117833333Y-78666666D01*
X117738095Y-78619047D01*
X117642857Y-78619047D01*
X117547619Y-78666666D01*
X117500000Y-78714285D01*
X117452380Y-78809523D01*
X117452380Y-79047619D01*
X117500000Y-79190476D01*
X118357142Y-79619047D02*
X118404761Y-79666666D01*
X118452380Y-79619047D01*
X118404761Y-79571428D01*
X118357142Y-79619047D01*
X118452380Y-79619047D01*
X118071428Y-80857142D02*
X118071428Y-81619047D01*
X117500000Y-83380952D02*
X117452380Y-83285714D01*
X117452380Y-83142857D01*
X117500000Y-83000000D01*
X117595238Y-82904761D01*
X117690476Y-82857142D01*
X117880952Y-82809523D01*
X118023809Y-82809523D01*
X118214285Y-82857142D01*
X118309523Y-82904761D01*
X118404761Y-83000000D01*
X118452380Y-83142857D01*
X118452380Y-83238095D01*
X118404761Y-83380952D01*
X118357142Y-83428571D01*
X118023809Y-83428571D01*
X118023809Y-83238095D01*
X118357142Y-83857142D02*
X118404761Y-83904761D01*
X118452380Y-83857142D01*
X118404761Y-83809523D01*
X118357142Y-83857142D01*
X118452380Y-83857142D01*
X118452380Y-84333333D02*
X117452380Y-84333333D01*
X117452380Y-84571428D01*
X117500000Y-84714285D01*
X117595238Y-84809523D01*
X117690476Y-84857142D01*
X117880952Y-84904761D01*
X118023809Y-84904761D01*
X118214285Y-84857142D01*
X118309523Y-84809523D01*
X118404761Y-84714285D01*
X118452380Y-84571428D01*
X118452380Y-84333333D01*
X118357142Y-85333333D02*
X118404761Y-85380952D01*
X118452380Y-85333333D01*
X118404761Y-85285714D01*
X118357142Y-85333333D01*
X118452380Y-85333333D01*
D11*
%TO.C,J2*%
X167830000Y-122830000D02*
X167830000Y-121500000D01*
X166500000Y-122830000D02*
X167830000Y-122830000D01*
X167830000Y-120230000D02*
X167830000Y-117630000D01*
X165230000Y-120230000D02*
X167830000Y-120230000D01*
X165230000Y-122830000D02*
X165230000Y-120230000D01*
X167830000Y-117630000D02*
X127070000Y-117630000D01*
X165230000Y-122830000D02*
X127070000Y-122830000D01*
X127070000Y-122830000D02*
X127070000Y-117630000D01*
%TO.C,J4*%
X168830000Y-62290000D02*
X168830000Y-60960000D01*
X167500000Y-62290000D02*
X168830000Y-62290000D01*
X168830000Y-59690000D02*
X168830000Y-57090000D01*
X166230000Y-59690000D02*
X168830000Y-59690000D01*
X166230000Y-62290000D02*
X166230000Y-59690000D01*
X168830000Y-57090000D02*
X128070000Y-57090000D01*
X166230000Y-62290000D02*
X128070000Y-62290000D01*
X128070000Y-62290000D02*
X128070000Y-57090000D01*
%TD*%
M02*
