%TF.GenerationSoftware,KiCad,Pcbnew,5.1.9+dfsg1-1+deb11u1*%
%TF.CreationDate,2025-11-03T12:09:50+01:00*%
%TF.ProjectId,STM32F4XX,53544d33-3246-4345-9858-2e6b69636164,0.4*%
%TF.SameCoordinates,Original*%
%TF.FileFunction,Copper,L1,Top*%
%TF.FilePolarity,Positive*%
%FSLAX46Y46*%
G04 Gerber Fmt 4.6, Leading zero omitted, Abs format (unit mm)*
G04 Created by KiCad (PCBNEW 5.1.9+dfsg1-1+deb11u1) date 2025-11-03 12:09:50*
%MOMM*%
%LPD*%
G01*
G04 APERTURE LIST*
%TA.AperFunction,SMDPad,CuDef*%
%ADD10R,1.000000X0.520000*%
%TD*%
%TA.AperFunction,SMDPad,CuDef*%
%ADD11R,1.000000X0.270000*%
%TD*%
%TA.AperFunction,SMDPad,CuDef*%
%ADD12R,2.000000X1.000000*%
%TD*%
%TA.AperFunction,ComponentPad*%
%ADD13O,2.316000X1.158000*%
%TD*%
%TA.AperFunction,ComponentPad*%
%ADD14O,2.400000X1.200000*%
%TD*%
%TA.AperFunction,ComponentPad*%
%ADD15O,1.700000X1.700000*%
%TD*%
%TA.AperFunction,ComponentPad*%
%ADD16R,1.700000X1.700000*%
%TD*%
%TA.AperFunction,ComponentPad*%
%ADD17C,5.600000*%
%TD*%
%TA.AperFunction,SMDPad,CuDef*%
%ADD18R,1.020000X4.100000*%
%TD*%
%TA.AperFunction,SMDPad,CuDef*%
%ADD19R,1.700000X1.500000*%
%TD*%
%TA.AperFunction,SMDPad,CuDef*%
%ADD20R,3.800000X2.000000*%
%TD*%
%TA.AperFunction,SMDPad,CuDef*%
%ADD21R,1.500000X2.000000*%
%TD*%
%TA.AperFunction,SMDPad,CuDef*%
%ADD22C,0.100000*%
%TD*%
%TA.AperFunction,ViaPad*%
%ADD23C,0.800000*%
%TD*%
%TA.AperFunction,Conductor*%
%ADD24C,0.250000*%
%TD*%
%TA.AperFunction,Conductor*%
%ADD25C,0.500000*%
%TD*%
%TA.AperFunction,Conductor*%
%ADD26C,0.254000*%
%TD*%
%TA.AperFunction,Conductor*%
%ADD27C,0.100000*%
%TD*%
G04 APERTURE END LIST*
D10*
%TO.P,J3,1*%
%TO.N,GND*%
X168800000Y-74600000D03*
%TO.P,J3,12*%
X168800000Y-68400000D03*
%TO.P,J3,2*%
%TO.N,VCC*%
X168800000Y-73850000D03*
%TO.P,J3,11*%
X168800000Y-69150000D03*
D11*
%TO.P,J3,3*%
%TO.N,Net-(J3-Pad3)*%
X168800000Y-73250000D03*
%TO.P,J3,10*%
%TO.N,Net-(J3-Pad10)*%
X168800000Y-69750000D03*
%TO.P,J3,4*%
%TO.N,Net-(J3-Pad4)*%
X168800000Y-72750000D03*
%TO.P,J3,5*%
%TO.N,/DM*%
X168800000Y-72250000D03*
%TO.P,J3,6*%
%TO.N,/DP*%
X168800000Y-71750000D03*
%TO.P,J3,7*%
X168800000Y-71250000D03*
%TO.P,J3,8*%
%TO.N,/DM*%
X168800000Y-70750000D03*
%TO.P,J3,9*%
%TO.N,Net-(J3-Pad9)*%
X168800000Y-70250000D03*
D12*
%TO.P,J3,S1*%
%TO.N,Net-(C11-Pad2)*%
X173000000Y-72900000D03*
%TO.P,J3,S2*%
X173000000Y-70100000D03*
D13*
%TO.P,J3,S3*%
X169175000Y-75820000D03*
%TO.P,J3,S4*%
X169175000Y-67180000D03*
D14*
%TO.P,J3,S5*%
X173000000Y-75820000D03*
%TO.P,J3,S6*%
X173000000Y-67180000D03*
%TD*%
D15*
%TO.P,J1,3*%
%TO.N,A2*%
X170680000Y-86930000D03*
%TO.P,J1,2*%
%TO.N,A3*%
X170680000Y-84390000D03*
D16*
%TO.P,J1,1*%
%TO.N,GND*%
X170680000Y-81850000D03*
%TD*%
D17*
%TO.P,H2,1*%
%TO.N,GND*%
X116000000Y-54000000D03*
%TD*%
%TO.P,H1,1*%
%TO.N,GND*%
X171000000Y-54000000D03*
%TD*%
%TO.P,H3,1*%
%TO.N,GND*%
X116000000Y-95000000D03*
%TD*%
%TO.P,C1,1*%
%TO.N,+3V3*%
%TA.AperFunction,SMDPad,CuDef*%
G36*
G01*
X136392012Y-66822112D02*
X136727888Y-67157988D01*
G75*
G02*
X136727888Y-67493864I-167938J-167938D01*
G01*
X136303624Y-67918128D01*
G75*
G02*
X135967748Y-67918128I-167938J167938D01*
G01*
X135631872Y-67582252D01*
G75*
G02*
X135631872Y-67246376I167938J167938D01*
G01*
X136056136Y-66822112D01*
G75*
G02*
X136392012Y-66822112I167938J-167938D01*
G01*
G37*
%TD.AperFunction*%
%TO.P,C1,2*%
%TO.N,GND*%
%TA.AperFunction,SMDPad,CuDef*%
G36*
G01*
X135172252Y-68041872D02*
X135508128Y-68377748D01*
G75*
G02*
X135508128Y-68713624I-167938J-167938D01*
G01*
X135083864Y-69137888D01*
G75*
G02*
X134747988Y-69137888I-167938J167938D01*
G01*
X134412112Y-68802012D01*
G75*
G02*
X134412112Y-68466136I167938J167938D01*
G01*
X134836376Y-68041872D01*
G75*
G02*
X135172252Y-68041872I167938J-167938D01*
G01*
G37*
%TD.AperFunction*%
%TD*%
%TO.P,C2,2*%
%TO.N,GND*%
%TA.AperFunction,SMDPad,CuDef*%
G36*
G01*
X139642252Y-63581872D02*
X139978128Y-63917748D01*
G75*
G02*
X139978128Y-64253624I-167938J-167938D01*
G01*
X139553864Y-64677888D01*
G75*
G02*
X139217988Y-64677888I-167938J167938D01*
G01*
X138882112Y-64342012D01*
G75*
G02*
X138882112Y-64006136I167938J167938D01*
G01*
X139306376Y-63581872D01*
G75*
G02*
X139642252Y-63581872I167938J-167938D01*
G01*
G37*
%TD.AperFunction*%
%TO.P,C2,1*%
%TO.N,+3V3*%
%TA.AperFunction,SMDPad,CuDef*%
G36*
G01*
X140862012Y-62362112D02*
X141197888Y-62697988D01*
G75*
G02*
X141197888Y-63033864I-167938J-167938D01*
G01*
X140773624Y-63458128D01*
G75*
G02*
X140437748Y-63458128I-167938J167938D01*
G01*
X140101872Y-63122252D01*
G75*
G02*
X140101872Y-62786376I167938J167938D01*
G01*
X140526136Y-62362112D01*
G75*
G02*
X140862012Y-62362112I167938J-167938D01*
G01*
G37*
%TD.AperFunction*%
%TD*%
%TO.P,C3,1*%
%TO.N,+3V3*%
%TA.AperFunction,SMDPad,CuDef*%
G36*
G01*
X153547888Y-68792012D02*
X153212012Y-69127888D01*
G75*
G02*
X152876136Y-69127888I-167938J167938D01*
G01*
X152451872Y-68703624D01*
G75*
G02*
X152451872Y-68367748I167938J167938D01*
G01*
X152787748Y-68031872D01*
G75*
G02*
X153123624Y-68031872I167938J-167938D01*
G01*
X153547888Y-68456136D01*
G75*
G02*
X153547888Y-68792012I-167938J-167938D01*
G01*
G37*
%TD.AperFunction*%
%TO.P,C3,2*%
%TO.N,GND*%
%TA.AperFunction,SMDPad,CuDef*%
G36*
G01*
X152328128Y-67572252D02*
X151992252Y-67908128D01*
G75*
G02*
X151656376Y-67908128I-167938J167938D01*
G01*
X151232112Y-67483864D01*
G75*
G02*
X151232112Y-67147988I167938J167938D01*
G01*
X151567988Y-66812112D01*
G75*
G02*
X151903864Y-66812112I167938J-167938D01*
G01*
X152328128Y-67236376D01*
G75*
G02*
X152328128Y-67572252I-167938J-167938D01*
G01*
G37*
%TD.AperFunction*%
%TD*%
%TO.P,C4,2*%
%TO.N,GND*%
%TA.AperFunction,SMDPad,CuDef*%
G36*
G01*
X148087748Y-80458128D02*
X147751872Y-80122252D01*
G75*
G02*
X147751872Y-79786376I167938J167938D01*
G01*
X148176136Y-79362112D01*
G75*
G02*
X148512012Y-79362112I167938J-167938D01*
G01*
X148847888Y-79697988D01*
G75*
G02*
X148847888Y-80033864I-167938J-167938D01*
G01*
X148423624Y-80458128D01*
G75*
G02*
X148087748Y-80458128I-167938J167938D01*
G01*
G37*
%TD.AperFunction*%
%TO.P,C4,1*%
%TO.N,+3V3*%
%TA.AperFunction,SMDPad,CuDef*%
G36*
G01*
X146867988Y-81677888D02*
X146532112Y-81342012D01*
G75*
G02*
X146532112Y-81006136I167938J167938D01*
G01*
X146956376Y-80581872D01*
G75*
G02*
X147292252Y-80581872I167938J-167938D01*
G01*
X147628128Y-80917748D01*
G75*
G02*
X147628128Y-81253624I-167938J-167938D01*
G01*
X147203864Y-81677888D01*
G75*
G02*
X146867988Y-81677888I-167938J167938D01*
G01*
G37*
%TD.AperFunction*%
%TD*%
%TO.P,C5,2*%
%TO.N,/VSSA*%
%TA.AperFunction,SMDPad,CuDef*%
G36*
G01*
X130162500Y-75075000D02*
X130637500Y-75075000D01*
G75*
G02*
X130875000Y-75312500I0J-237500D01*
G01*
X130875000Y-75912500D01*
G75*
G02*
X130637500Y-76150000I-237500J0D01*
G01*
X130162500Y-76150000D01*
G75*
G02*
X129925000Y-75912500I0J237500D01*
G01*
X129925000Y-75312500D01*
G75*
G02*
X130162500Y-75075000I237500J0D01*
G01*
G37*
%TD.AperFunction*%
%TO.P,C5,1*%
%TO.N,/ANALOG_VDD*%
%TA.AperFunction,SMDPad,CuDef*%
G36*
G01*
X130162500Y-73350000D02*
X130637500Y-73350000D01*
G75*
G02*
X130875000Y-73587500I0J-237500D01*
G01*
X130875000Y-74187500D01*
G75*
G02*
X130637500Y-74425000I-237500J0D01*
G01*
X130162500Y-74425000D01*
G75*
G02*
X129925000Y-74187500I0J237500D01*
G01*
X129925000Y-73587500D01*
G75*
G02*
X130162500Y-73350000I237500J0D01*
G01*
G37*
%TD.AperFunction*%
%TD*%
%TO.P,C6,1*%
%TO.N,/ANALOG_VDD*%
%TA.AperFunction,SMDPad,CuDef*%
G36*
G01*
X132185000Y-72375000D02*
X134035000Y-72375000D01*
G75*
G02*
X134285000Y-72625000I0J-250000D01*
G01*
X134285000Y-73625000D01*
G75*
G02*
X134035000Y-73875000I-250000J0D01*
G01*
X132185000Y-73875000D01*
G75*
G02*
X131935000Y-73625000I0J250000D01*
G01*
X131935000Y-72625000D01*
G75*
G02*
X132185000Y-72375000I250000J0D01*
G01*
G37*
%TD.AperFunction*%
%TO.P,C6,2*%
%TO.N,/VSSA*%
%TA.AperFunction,SMDPad,CuDef*%
G36*
G01*
X132185000Y-75625000D02*
X134035000Y-75625000D01*
G75*
G02*
X134285000Y-75875000I0J-250000D01*
G01*
X134285000Y-76875000D01*
G75*
G02*
X134035000Y-77125000I-250000J0D01*
G01*
X132185000Y-77125000D01*
G75*
G02*
X131935000Y-76875000I0J250000D01*
G01*
X131935000Y-75875000D01*
G75*
G02*
X132185000Y-75625000I250000J0D01*
G01*
G37*
%TD.AperFunction*%
%TD*%
%TO.P,C7,1*%
%TO.N,Net-(C7-Pad1)*%
%TA.AperFunction,SMDPad,CuDef*%
G36*
G01*
X122870000Y-75332500D02*
X122870000Y-75807500D01*
G75*
G02*
X122632500Y-76045000I-237500J0D01*
G01*
X122032500Y-76045000D01*
G75*
G02*
X121795000Y-75807500I0J237500D01*
G01*
X121795000Y-75332500D01*
G75*
G02*
X122032500Y-75095000I237500J0D01*
G01*
X122632500Y-75095000D01*
G75*
G02*
X122870000Y-75332500I0J-237500D01*
G01*
G37*
%TD.AperFunction*%
%TO.P,C7,2*%
%TO.N,GND*%
%TA.AperFunction,SMDPad,CuDef*%
G36*
G01*
X121145000Y-75332500D02*
X121145000Y-75807500D01*
G75*
G02*
X120907500Y-76045000I-237500J0D01*
G01*
X120307500Y-76045000D01*
G75*
G02*
X120070000Y-75807500I0J237500D01*
G01*
X120070000Y-75332500D01*
G75*
G02*
X120307500Y-75095000I237500J0D01*
G01*
X120907500Y-75095000D01*
G75*
G02*
X121145000Y-75332500I0J-237500D01*
G01*
G37*
%TD.AperFunction*%
%TD*%
%TO.P,C8,1*%
%TO.N,Net-(C8-Pad1)*%
%TA.AperFunction,SMDPad,CuDef*%
G36*
G01*
X137883173Y-62375076D02*
X138554924Y-63046827D01*
G75*
G02*
X138554924Y-63400381I-176777J-176777D01*
G01*
X138077627Y-63877678D01*
G75*
G02*
X137724073Y-63877678I-176777J176777D01*
G01*
X137052322Y-63205927D01*
G75*
G02*
X137052322Y-62852373I176777J176777D01*
G01*
X137529619Y-62375076D01*
G75*
G02*
X137883173Y-62375076I176777J-176777D01*
G01*
G37*
%TD.AperFunction*%
%TO.P,C8,2*%
%TO.N,GND*%
%TA.AperFunction,SMDPad,CuDef*%
G36*
G01*
X136415927Y-63842322D02*
X137087678Y-64514073D01*
G75*
G02*
X137087678Y-64867627I-176777J-176777D01*
G01*
X136610381Y-65344924D01*
G75*
G02*
X136256827Y-65344924I-176777J176777D01*
G01*
X135585076Y-64673173D01*
G75*
G02*
X135585076Y-64319619I176777J176777D01*
G01*
X136062373Y-63842322D01*
G75*
G02*
X136415927Y-63842322I176777J-176777D01*
G01*
G37*
%TD.AperFunction*%
%TD*%
%TO.P,C9,1*%
%TO.N,Net-(C9-Pad1)*%
%TA.AperFunction,SMDPad,CuDef*%
G36*
G01*
X146220000Y-71787500D02*
X146220000Y-71312500D01*
G75*
G02*
X146457500Y-71075000I237500J0D01*
G01*
X147057500Y-71075000D01*
G75*
G02*
X147295000Y-71312500I0J-237500D01*
G01*
X147295000Y-71787500D01*
G75*
G02*
X147057500Y-72025000I-237500J0D01*
G01*
X146457500Y-72025000D01*
G75*
G02*
X146220000Y-71787500I0J237500D01*
G01*
G37*
%TD.AperFunction*%
%TO.P,C9,2*%
%TO.N,GND*%
%TA.AperFunction,SMDPad,CuDef*%
G36*
G01*
X147945000Y-71787500D02*
X147945000Y-71312500D01*
G75*
G02*
X148182500Y-71075000I237500J0D01*
G01*
X148782500Y-71075000D01*
G75*
G02*
X149020000Y-71312500I0J-237500D01*
G01*
X149020000Y-71787500D01*
G75*
G02*
X148782500Y-72025000I-237500J0D01*
G01*
X148182500Y-72025000D01*
G75*
G02*
X147945000Y-71787500I0J237500D01*
G01*
G37*
%TD.AperFunction*%
%TD*%
%TO.P,C10,2*%
%TO.N,GND*%
%TA.AperFunction,SMDPad,CuDef*%
G36*
G01*
X144285000Y-68247500D02*
X144285000Y-67772500D01*
G75*
G02*
X144522500Y-67535000I237500J0D01*
G01*
X145122500Y-67535000D01*
G75*
G02*
X145360000Y-67772500I0J-237500D01*
G01*
X145360000Y-68247500D01*
G75*
G02*
X145122500Y-68485000I-237500J0D01*
G01*
X144522500Y-68485000D01*
G75*
G02*
X144285000Y-68247500I0J237500D01*
G01*
G37*
%TD.AperFunction*%
%TO.P,C10,1*%
%TO.N,Net-(C10-Pad1)*%
%TA.AperFunction,SMDPad,CuDef*%
G36*
G01*
X142560000Y-68247500D02*
X142560000Y-67772500D01*
G75*
G02*
X142797500Y-67535000I237500J0D01*
G01*
X143397500Y-67535000D01*
G75*
G02*
X143635000Y-67772500I0J-237500D01*
G01*
X143635000Y-68247500D01*
G75*
G02*
X143397500Y-68485000I-237500J0D01*
G01*
X142797500Y-68485000D01*
G75*
G02*
X142560000Y-68247500I0J237500D01*
G01*
G37*
%TD.AperFunction*%
%TD*%
%TO.P,C11,1*%
%TO.N,GND*%
%TA.AperFunction,SMDPad,CuDef*%
G36*
G01*
X167370000Y-65427500D02*
X167370000Y-64952500D01*
G75*
G02*
X167607500Y-64715000I237500J0D01*
G01*
X168207500Y-64715000D01*
G75*
G02*
X168445000Y-64952500I0J-237500D01*
G01*
X168445000Y-65427500D01*
G75*
G02*
X168207500Y-65665000I-237500J0D01*
G01*
X167607500Y-65665000D01*
G75*
G02*
X167370000Y-65427500I0J237500D01*
G01*
G37*
%TD.AperFunction*%
%TO.P,C11,2*%
%TO.N,Net-(C11-Pad2)*%
%TA.AperFunction,SMDPad,CuDef*%
G36*
G01*
X169095000Y-65427500D02*
X169095000Y-64952500D01*
G75*
G02*
X169332500Y-64715000I237500J0D01*
G01*
X169932500Y-64715000D01*
G75*
G02*
X170170000Y-64952500I0J-237500D01*
G01*
X170170000Y-65427500D01*
G75*
G02*
X169932500Y-65665000I-237500J0D01*
G01*
X169332500Y-65665000D01*
G75*
G02*
X169095000Y-65427500I0J237500D01*
G01*
G37*
%TD.AperFunction*%
%TD*%
%TO.P,C12,1*%
%TO.N,VCC*%
%TA.AperFunction,SMDPad,CuDef*%
G36*
G01*
X162250000Y-77337500D02*
X162250000Y-76862500D01*
G75*
G02*
X162487500Y-76625000I237500J0D01*
G01*
X163087500Y-76625000D01*
G75*
G02*
X163325000Y-76862500I0J-237500D01*
G01*
X163325000Y-77337500D01*
G75*
G02*
X163087500Y-77575000I-237500J0D01*
G01*
X162487500Y-77575000D01*
G75*
G02*
X162250000Y-77337500I0J237500D01*
G01*
G37*
%TD.AperFunction*%
%TO.P,C12,2*%
%TO.N,GND*%
%TA.AperFunction,SMDPad,CuDef*%
G36*
G01*
X163975000Y-77337500D02*
X163975000Y-76862500D01*
G75*
G02*
X164212500Y-76625000I237500J0D01*
G01*
X164812500Y-76625000D01*
G75*
G02*
X165050000Y-76862500I0J-237500D01*
G01*
X165050000Y-77337500D01*
G75*
G02*
X164812500Y-77575000I-237500J0D01*
G01*
X164212500Y-77575000D01*
G75*
G02*
X163975000Y-77337500I0J237500D01*
G01*
G37*
%TD.AperFunction*%
%TD*%
%TO.P,C13,2*%
%TO.N,GND*%
%TA.AperFunction,SMDPad,CuDef*%
G36*
G01*
X158405000Y-66647500D02*
X158405000Y-66172500D01*
G75*
G02*
X158642500Y-65935000I237500J0D01*
G01*
X159242500Y-65935000D01*
G75*
G02*
X159480000Y-66172500I0J-237500D01*
G01*
X159480000Y-66647500D01*
G75*
G02*
X159242500Y-66885000I-237500J0D01*
G01*
X158642500Y-66885000D01*
G75*
G02*
X158405000Y-66647500I0J237500D01*
G01*
G37*
%TD.AperFunction*%
%TO.P,C13,1*%
%TO.N,+3V3*%
%TA.AperFunction,SMDPad,CuDef*%
G36*
G01*
X156680000Y-66647500D02*
X156680000Y-66172500D01*
G75*
G02*
X156917500Y-65935000I237500J0D01*
G01*
X157517500Y-65935000D01*
G75*
G02*
X157755000Y-66172500I0J-237500D01*
G01*
X157755000Y-66647500D01*
G75*
G02*
X157517500Y-66885000I-237500J0D01*
G01*
X156917500Y-66885000D01*
G75*
G02*
X156680000Y-66647500I0J237500D01*
G01*
G37*
%TD.AperFunction*%
%TD*%
%TO.P,C14,2*%
%TO.N,GND*%
%TA.AperFunction,SMDPad,CuDef*%
G36*
G01*
X159075000Y-69855000D02*
X159075000Y-68005000D01*
G75*
G02*
X159325000Y-67755000I250000J0D01*
G01*
X160325000Y-67755000D01*
G75*
G02*
X160575000Y-68005000I0J-250000D01*
G01*
X160575000Y-69855000D01*
G75*
G02*
X160325000Y-70105000I-250000J0D01*
G01*
X159325000Y-70105000D01*
G75*
G02*
X159075000Y-69855000I0J250000D01*
G01*
G37*
%TD.AperFunction*%
%TO.P,C14,1*%
%TO.N,+3V3*%
%TA.AperFunction,SMDPad,CuDef*%
G36*
G01*
X155825000Y-69855000D02*
X155825000Y-68005000D01*
G75*
G02*
X156075000Y-67755000I250000J0D01*
G01*
X157075000Y-67755000D01*
G75*
G02*
X157325000Y-68005000I0J-250000D01*
G01*
X157325000Y-69855000D01*
G75*
G02*
X157075000Y-70105000I-250000J0D01*
G01*
X156075000Y-70105000D01*
G75*
G02*
X155825000Y-69855000I0J250000D01*
G01*
G37*
%TD.AperFunction*%
%TD*%
D18*
%TO.P,J5,1*%
%TO.N,Net-(J5-Pad1)*%
X146390000Y-52790000D03*
%TO.P,J5,2*%
%TO.N,A14*%
X146390000Y-59190000D03*
%TO.P,J5,3*%
%TO.N,Net-(J5-Pad3)*%
X143850000Y-52790000D03*
%TO.P,J5,4*%
%TO.N,A13*%
X143850000Y-59190000D03*
%TO.P,J5,5*%
%TO.N,GND*%
X141310000Y-52790000D03*
%TO.P,J5,6*%
X141310000Y-59190000D03*
%TO.P,J5,7*%
%TO.N,Net-(J5-Pad7)*%
X138770000Y-52790000D03*
%TO.P,J5,8*%
%TO.N,+3V3*%
X138770000Y-59190000D03*
%TO.P,J5,9*%
%TO.N,Net-(J5-Pad9)*%
X136230000Y-52790000D03*
%TO.P,J5,10*%
%TO.N,Net-(J5-Pad10)*%
X136230000Y-59190000D03*
%TD*%
%TO.P,L1,1*%
%TO.N,+3V3*%
%TA.AperFunction,SMDPad,CuDef*%
G36*
G01*
X127879999Y-73200000D02*
X128780001Y-73200000D01*
G75*
G02*
X129030000Y-73449999I0J-249999D01*
G01*
X129030000Y-74100001D01*
G75*
G02*
X128780001Y-74350000I-249999J0D01*
G01*
X127879999Y-74350000D01*
G75*
G02*
X127630000Y-74100001I0J249999D01*
G01*
X127630000Y-73449999D01*
G75*
G02*
X127879999Y-73200000I249999J0D01*
G01*
G37*
%TD.AperFunction*%
%TO.P,L1,2*%
%TO.N,/ANALOG_VDD*%
%TA.AperFunction,SMDPad,CuDef*%
G36*
G01*
X127879999Y-75250000D02*
X128780001Y-75250000D01*
G75*
G02*
X129030000Y-75499999I0J-249999D01*
G01*
X129030000Y-76150001D01*
G75*
G02*
X128780001Y-76400000I-249999J0D01*
G01*
X127879999Y-76400000D01*
G75*
G02*
X127630000Y-76150001I0J249999D01*
G01*
X127630000Y-75499999D01*
G75*
G02*
X127879999Y-75250000I249999J0D01*
G01*
G37*
%TD.AperFunction*%
%TD*%
%TO.P,LD1,1*%
%TO.N,Net-(LD1-Pad1)*%
%TA.AperFunction,SMDPad,CuDef*%
G36*
G01*
X115890000Y-60665000D02*
X115890000Y-59415000D01*
G75*
G02*
X116140000Y-59165000I250000J0D01*
G01*
X117065000Y-59165000D01*
G75*
G02*
X117315000Y-59415000I0J-250000D01*
G01*
X117315000Y-60665000D01*
G75*
G02*
X117065000Y-60915000I-250000J0D01*
G01*
X116140000Y-60915000D01*
G75*
G02*
X115890000Y-60665000I0J250000D01*
G01*
G37*
%TD.AperFunction*%
%TO.P,LD1,2*%
%TO.N,+3V3*%
%TA.AperFunction,SMDPad,CuDef*%
G36*
G01*
X118865000Y-60665000D02*
X118865000Y-59415000D01*
G75*
G02*
X119115000Y-59165000I250000J0D01*
G01*
X120040000Y-59165000D01*
G75*
G02*
X120290000Y-59415000I0J-250000D01*
G01*
X120290000Y-60665000D01*
G75*
G02*
X120040000Y-60915000I-250000J0D01*
G01*
X119115000Y-60915000D01*
G75*
G02*
X118865000Y-60665000I0J250000D01*
G01*
G37*
%TD.AperFunction*%
%TD*%
%TO.P,R1,2*%
%TO.N,Net-(C7-Pad1)*%
%TA.AperFunction,SMDPad,CuDef*%
G36*
G01*
X124625000Y-72782500D02*
X124625000Y-73257500D01*
G75*
G02*
X124387500Y-73495000I-237500J0D01*
G01*
X123887500Y-73495000D01*
G75*
G02*
X123650000Y-73257500I0J237500D01*
G01*
X123650000Y-72782500D01*
G75*
G02*
X123887500Y-72545000I237500J0D01*
G01*
X124387500Y-72545000D01*
G75*
G02*
X124625000Y-72782500I0J-237500D01*
G01*
G37*
%TD.AperFunction*%
%TO.P,R1,1*%
%TO.N,+3V3*%
%TA.AperFunction,SMDPad,CuDef*%
G36*
G01*
X126450000Y-72782500D02*
X126450000Y-73257500D01*
G75*
G02*
X126212500Y-73495000I-237500J0D01*
G01*
X125712500Y-73495000D01*
G75*
G02*
X125475000Y-73257500I0J237500D01*
G01*
X125475000Y-72782500D01*
G75*
G02*
X125712500Y-72545000I237500J0D01*
G01*
X126212500Y-72545000D01*
G75*
G02*
X126450000Y-72782500I0J-237500D01*
G01*
G37*
%TD.AperFunction*%
%TD*%
%TO.P,R2,1*%
%TO.N,GND*%
%TA.AperFunction,SMDPad,CuDef*%
G36*
G01*
X131700000Y-78577500D02*
X131700000Y-78102500D01*
G75*
G02*
X131937500Y-77865000I237500J0D01*
G01*
X132437500Y-77865000D01*
G75*
G02*
X132675000Y-78102500I0J-237500D01*
G01*
X132675000Y-78577500D01*
G75*
G02*
X132437500Y-78815000I-237500J0D01*
G01*
X131937500Y-78815000D01*
G75*
G02*
X131700000Y-78577500I0J237500D01*
G01*
G37*
%TD.AperFunction*%
%TO.P,R2,2*%
%TO.N,/VSSA*%
%TA.AperFunction,SMDPad,CuDef*%
G36*
G01*
X133525000Y-78577500D02*
X133525000Y-78102500D01*
G75*
G02*
X133762500Y-77865000I237500J0D01*
G01*
X134262500Y-77865000D01*
G75*
G02*
X134500000Y-78102500I0J-237500D01*
G01*
X134500000Y-78577500D01*
G75*
G02*
X134262500Y-78815000I-237500J0D01*
G01*
X133762500Y-78815000D01*
G75*
G02*
X133525000Y-78577500I0J237500D01*
G01*
G37*
%TD.AperFunction*%
%TD*%
%TO.P,R4,1*%
%TO.N,A12*%
%TA.AperFunction,SMDPad,CuDef*%
G36*
G01*
X162100000Y-71137500D02*
X162100000Y-70662500D01*
G75*
G02*
X162337500Y-70425000I237500J0D01*
G01*
X162837500Y-70425000D01*
G75*
G02*
X163075000Y-70662500I0J-237500D01*
G01*
X163075000Y-71137500D01*
G75*
G02*
X162837500Y-71375000I-237500J0D01*
G01*
X162337500Y-71375000D01*
G75*
G02*
X162100000Y-71137500I0J237500D01*
G01*
G37*
%TD.AperFunction*%
%TO.P,R4,2*%
%TO.N,/DP*%
%TA.AperFunction,SMDPad,CuDef*%
G36*
G01*
X163925000Y-71137500D02*
X163925000Y-70662500D01*
G75*
G02*
X164162500Y-70425000I237500J0D01*
G01*
X164662500Y-70425000D01*
G75*
G02*
X164900000Y-70662500I0J-237500D01*
G01*
X164900000Y-71137500D01*
G75*
G02*
X164662500Y-71375000I-237500J0D01*
G01*
X164162500Y-71375000D01*
G75*
G02*
X163925000Y-71137500I0J237500D01*
G01*
G37*
%TD.AperFunction*%
%TD*%
%TO.P,R5,2*%
%TO.N,/DM*%
%TA.AperFunction,SMDPad,CuDef*%
G36*
G01*
X163925000Y-72737500D02*
X163925000Y-72262500D01*
G75*
G02*
X164162500Y-72025000I237500J0D01*
G01*
X164662500Y-72025000D01*
G75*
G02*
X164900000Y-72262500I0J-237500D01*
G01*
X164900000Y-72737500D01*
G75*
G02*
X164662500Y-72975000I-237500J0D01*
G01*
X164162500Y-72975000D01*
G75*
G02*
X163925000Y-72737500I0J237500D01*
G01*
G37*
%TD.AperFunction*%
%TO.P,R5,1*%
%TO.N,A11*%
%TA.AperFunction,SMDPad,CuDef*%
G36*
G01*
X162100000Y-72737500D02*
X162100000Y-72262500D01*
G75*
G02*
X162337500Y-72025000I237500J0D01*
G01*
X162837500Y-72025000D01*
G75*
G02*
X163075000Y-72262500I0J-237500D01*
G01*
X163075000Y-72737500D01*
G75*
G02*
X162837500Y-72975000I-237500J0D01*
G01*
X162337500Y-72975000D01*
G75*
G02*
X162100000Y-72737500I0J237500D01*
G01*
G37*
%TD.AperFunction*%
%TD*%
%TO.P,R7,1*%
%TO.N,Net-(LD1-Pad1)*%
%TA.AperFunction,SMDPad,CuDef*%
G36*
G01*
X116710000Y-62567500D02*
X116710000Y-62092500D01*
G75*
G02*
X116947500Y-61855000I237500J0D01*
G01*
X117447500Y-61855000D01*
G75*
G02*
X117685000Y-62092500I0J-237500D01*
G01*
X117685000Y-62567500D01*
G75*
G02*
X117447500Y-62805000I-237500J0D01*
G01*
X116947500Y-62805000D01*
G75*
G02*
X116710000Y-62567500I0J237500D01*
G01*
G37*
%TD.AperFunction*%
%TO.P,R7,2*%
%TO.N,GND*%
%TA.AperFunction,SMDPad,CuDef*%
G36*
G01*
X118535000Y-62567500D02*
X118535000Y-62092500D01*
G75*
G02*
X118772500Y-61855000I237500J0D01*
G01*
X119272500Y-61855000D01*
G75*
G02*
X119510000Y-62092500I0J-237500D01*
G01*
X119510000Y-62567500D01*
G75*
G02*
X119272500Y-62805000I-237500J0D01*
G01*
X118772500Y-62805000D01*
G75*
G02*
X118535000Y-62567500I0J237500D01*
G01*
G37*
%TD.AperFunction*%
%TD*%
D19*
%TO.P,SW1,1*%
%TO.N,GND*%
X118530000Y-78600000D03*
%TO.P,SW1,2*%
%TO.N,Net-(C7-Pad1)*%
X125030000Y-78600000D03*
%TD*%
D20*
%TO.P,U2,2*%
%TO.N,+3V3*%
X157630000Y-72190000D03*
D21*
X157630000Y-78490000D03*
%TO.P,U2,3*%
%TO.N,VCC*%
X159930000Y-78490000D03*
%TO.P,U2,1*%
%TO.N,GND*%
X155330000Y-78490000D03*
%TD*%
%TA.AperFunction,SMDPad,CuDef*%
D22*
%TO.P,Y1,1*%
%TO.N,Net-(C9-Pad1)*%
G36*
X148083301Y-76969087D02*
G01*
X146669087Y-78383301D01*
X143487107Y-75201321D01*
X144901321Y-73787107D01*
X148083301Y-76969087D01*
G37*
%TD.AperFunction*%
%TA.AperFunction,SMDPad,CuDef*%
%TO.P,Y1,2*%
%TO.N,Net-(C10-Pad1)*%
G36*
X142072893Y-70958679D02*
G01*
X140658679Y-72372893D01*
X137476699Y-69190913D01*
X138890913Y-67776699D01*
X142072893Y-70958679D01*
G37*
%TD.AperFunction*%
%TD*%
D17*
%TO.P,H4,1*%
%TO.N,GND*%
X171000000Y-95000000D03*
%TD*%
D16*
%TO.P,JP1,1*%
%TO.N,GND*%
X115410000Y-76450000D03*
D15*
%TO.P,JP1,2*%
%TO.N,C1*%
X115410000Y-78990000D03*
%TD*%
%TO.P,LD2,1*%
%TO.N,Net-(LD2-Pad1)*%
%TA.AperFunction,SMDPad,CuDef*%
G36*
G01*
X114090000Y-84240001D02*
X114090000Y-83339999D01*
G75*
G02*
X114339999Y-83090000I249999J0D01*
G01*
X114990001Y-83090000D01*
G75*
G02*
X115240000Y-83339999I0J-249999D01*
G01*
X115240000Y-84240001D01*
G75*
G02*
X114990001Y-84490000I-249999J0D01*
G01*
X114339999Y-84490000D01*
G75*
G02*
X114090000Y-84240001I0J249999D01*
G01*
G37*
%TD.AperFunction*%
%TO.P,LD2,2*%
%TO.N,Net-(LD2-Pad2)*%
%TA.AperFunction,SMDPad,CuDef*%
G36*
G01*
X116140000Y-84240001D02*
X116140000Y-83339999D01*
G75*
G02*
X116389999Y-83090000I249999J0D01*
G01*
X117040001Y-83090000D01*
G75*
G02*
X117290000Y-83339999I0J-249999D01*
G01*
X117290000Y-84240001D01*
G75*
G02*
X117040001Y-84490000I-249999J0D01*
G01*
X116389999Y-84490000D01*
G75*
G02*
X116140000Y-84240001I0J249999D01*
G01*
G37*
%TD.AperFunction*%
%TD*%
%TO.P,R8,1*%
%TO.N,Net-(LD2-Pad1)*%
%TA.AperFunction,SMDPad,CuDef*%
G36*
G01*
X114360000Y-86097500D02*
X114360000Y-85622500D01*
G75*
G02*
X114597500Y-85385000I237500J0D01*
G01*
X115097500Y-85385000D01*
G75*
G02*
X115335000Y-85622500I0J-237500D01*
G01*
X115335000Y-86097500D01*
G75*
G02*
X115097500Y-86335000I-237500J0D01*
G01*
X114597500Y-86335000D01*
G75*
G02*
X114360000Y-86097500I0J237500D01*
G01*
G37*
%TD.AperFunction*%
%TO.P,R8,2*%
%TO.N,GND*%
%TA.AperFunction,SMDPad,CuDef*%
G36*
G01*
X116185000Y-86097500D02*
X116185000Y-85622500D01*
G75*
G02*
X116422500Y-85385000I237500J0D01*
G01*
X116922500Y-85385000D01*
G75*
G02*
X117160000Y-85622500I0J-237500D01*
G01*
X117160000Y-86097500D01*
G75*
G02*
X116922500Y-86335000I-237500J0D01*
G01*
X116422500Y-86335000D01*
G75*
G02*
X116185000Y-86097500I0J237500D01*
G01*
G37*
%TD.AperFunction*%
%TD*%
%TO.P,R9,1*%
%TO.N,A0*%
%TA.AperFunction,SMDPad,CuDef*%
G36*
G01*
X120357500Y-87030000D02*
X119882500Y-87030000D01*
G75*
G02*
X119645000Y-86792500I0J237500D01*
G01*
X119645000Y-86292500D01*
G75*
G02*
X119882500Y-86055000I237500J0D01*
G01*
X120357500Y-86055000D01*
G75*
G02*
X120595000Y-86292500I0J-237500D01*
G01*
X120595000Y-86792500D01*
G75*
G02*
X120357500Y-87030000I-237500J0D01*
G01*
G37*
%TD.AperFunction*%
%TO.P,R9,2*%
%TO.N,Net-(LD2-Pad2)*%
%TA.AperFunction,SMDPad,CuDef*%
G36*
G01*
X120357500Y-85205000D02*
X119882500Y-85205000D01*
G75*
G02*
X119645000Y-84967500I0J237500D01*
G01*
X119645000Y-84467500D01*
G75*
G02*
X119882500Y-84230000I237500J0D01*
G01*
X120357500Y-84230000D01*
G75*
G02*
X120595000Y-84467500I0J-237500D01*
G01*
X120595000Y-84967500D01*
G75*
G02*
X120357500Y-85205000I-237500J0D01*
G01*
G37*
%TD.AperFunction*%
%TD*%
D23*
%TO.N,GND*%
X141821500Y-55929500D03*
X165250000Y-57500000D03*
X130599100Y-77820000D03*
X153367000Y-67147200D03*
X141250000Y-79865000D03*
X148100000Y-82200000D03*
X161475000Y-69600000D03*
X143110000Y-66500000D03*
X155330000Y-76500000D03*
X134140000Y-67850000D03*
X165000000Y-75500000D03*
X165000000Y-66000000D03*
X144750000Y-70250000D03*
X145012800Y-66963836D03*
X145066203Y-82066203D03*
X143750000Y-79750000D03*
X143750000Y-76500000D03*
X125250000Y-56000000D03*
X146000000Y-74000000D03*
X144000000Y-71750000D03*
X127750000Y-64000000D03*
X149113764Y-71038554D03*
X161080000Y-66230000D03*
X160340000Y-64210000D03*
X160680000Y-62480000D03*
X117950000Y-85860000D03*
X121670000Y-78050000D03*
X139170000Y-62070000D03*
%TO.N,+3V3*%
X160760000Y-51310000D03*
X155684800Y-93977900D03*
X154050000Y-67878200D03*
X146720000Y-82602400D03*
X121050000Y-62810000D03*
X141660000Y-62700000D03*
X128310000Y-72390000D03*
X135380000Y-66660000D03*
X140250000Y-56000000D03*
X132820000Y-53550000D03*
X127900000Y-55990000D03*
X133300000Y-65030000D03*
X157650000Y-80870000D03*
X157770000Y-83290000D03*
X145080000Y-83650000D03*
X168610000Y-62190000D03*
X158080000Y-60780000D03*
X127740000Y-92770000D03*
X127770000Y-96570000D03*
X129460000Y-83310000D03*
X132510000Y-92950000D03*
X132490000Y-87380000D03*
X150100000Y-61070000D03*
X150260000Y-56280000D03*
X155870000Y-62240000D03*
X165410000Y-61070000D03*
X160810000Y-54500000D03*
X160790000Y-56340000D03*
X163310000Y-51030000D03*
X167000000Y-54000000D03*
X168500000Y-57000000D03*
X142710000Y-82070000D03*
X126850000Y-86110000D03*
%TO.N,/ANALOG_VDD*%
X138785000Y-72215000D03*
%TO.N,/VSSA*%
X140427238Y-73289344D03*
%TO.N,Net-(C7-Pad1)*%
X142281000Y-74061200D03*
%TO.N,Net-(C8-Pad1)*%
X138000000Y-65000000D03*
%TO.N,Net-(C9-Pad1)*%
X143860000Y-74240000D03*
%TO.N,Net-(C10-Pad1)*%
X141920000Y-72340000D03*
%TO.N,VCC*%
X124651800Y-81392400D03*
X162250000Y-80750000D03*
X154510000Y-87830000D03*
X163769010Y-66919700D03*
%TO.N,A14*%
X151882000Y-75681500D03*
X153531900Y-84878500D03*
%TO.N,A13*%
X154416100Y-65008822D03*
%TO.N,A12*%
X163044000Y-69353800D03*
%TO.N,A11*%
X156980460Y-63374860D03*
%TO.N,A10*%
X157235016Y-56349988D03*
X154626510Y-63558810D03*
%TO.N,A3*%
X132840000Y-59283200D03*
X165446041Y-55743959D03*
X171120000Y-76670000D03*
%TO.N,A0*%
X125230000Y-95630000D03*
%TO.N,C11*%
X143974300Y-73214400D03*
X143003200Y-94552300D03*
%TO.N,C2*%
X128971300Y-85982900D03*
X129364400Y-93000000D03*
%TO.N,C1*%
X124320000Y-84790000D03*
X127760000Y-90430000D03*
%TO.N,B0*%
X139734100Y-65632900D03*
X142464500Y-61216100D03*
%TO.N,B1*%
X143375900Y-69321300D03*
X143595600Y-63062100D03*
%TO.N,B2*%
X146232200Y-69137100D03*
X143202900Y-61948300D03*
%TO.N,B4*%
X149822400Y-77794300D03*
X143144400Y-90147400D03*
%TO.N,B7*%
X147890400Y-78216700D03*
X139378300Y-92753100D03*
%TO.N,D2*%
X147804600Y-73781800D03*
X148761600Y-84105900D03*
%TO.N,Net-(J3-Pad3)*%
X164193000Y-73662900D03*
%TO.N,Net-(J3-Pad9)*%
X164909000Y-69541900D03*
%TD*%
D24*
%TO.N,GND*%
X134140000Y-67850000D02*
X134220000Y-67850000D01*
X134220000Y-67850000D02*
X134960000Y-68589900D01*
X119022000Y-62330000D02*
X118090000Y-61397500D01*
X118090000Y-61397500D02*
X118090000Y-56090000D01*
X118090000Y-56090000D02*
X116000000Y-54000000D01*
X148300000Y-80678400D02*
X148299900Y-80678300D01*
X148299900Y-80678300D02*
X148299900Y-79910100D01*
X148300000Y-80678400D02*
X148300000Y-82000100D01*
X148300000Y-82000100D02*
X148100000Y-82200000D01*
X148300000Y-79910100D02*
X148300000Y-80678400D01*
X141821500Y-55929500D02*
X141310000Y-55418000D01*
X141310000Y-55418000D02*
X141310000Y-52790000D01*
X141821500Y-55929500D02*
X141310000Y-56441000D01*
X141310000Y-56441000D02*
X141310000Y-59190000D01*
X132187500Y-78340000D02*
X131667500Y-77820000D01*
X131667500Y-77820000D02*
X130599100Y-77820000D01*
X144822000Y-68010000D02*
X144822500Y-68010000D01*
X144822000Y-68010000D02*
X144620000Y-68010000D01*
X144620000Y-68010000D02*
X143110000Y-66500000D01*
X136644500Y-64901800D02*
X136336400Y-64593700D01*
X136336400Y-64593700D02*
X136336400Y-64593600D01*
D25*
X136644500Y-64901800D02*
X136336000Y-64593600D01*
X136336000Y-64593600D02*
X135976000Y-64593600D01*
X135976000Y-64593600D02*
X134140000Y-66430000D01*
X134140000Y-66430000D02*
X134140000Y-67850000D01*
X158942500Y-66410000D02*
X159250000Y-66410000D01*
X159250000Y-66410000D02*
X159825000Y-66985000D01*
X159825000Y-66985000D02*
X159825000Y-68930000D01*
X158942000Y-66410000D02*
X158942500Y-66410000D01*
D24*
X148482000Y-71550000D02*
X148482500Y-71550000D01*
D25*
X120607500Y-75570000D02*
X119360000Y-75570000D01*
X119360000Y-75570000D02*
X118530000Y-76400000D01*
X118530000Y-76400000D02*
X118530000Y-78600000D01*
X120608000Y-75570000D02*
X120607500Y-75570000D01*
X167908000Y-65190000D02*
X167907500Y-65190000D01*
D24*
X151780000Y-67360100D02*
X151780100Y-67360100D01*
X151780100Y-67360100D02*
X153154000Y-67360100D01*
X153154000Y-67360100D02*
X153367000Y-67147200D01*
D25*
X159825000Y-68930000D02*
X160805000Y-68930000D01*
X160805000Y-68930000D02*
X161475000Y-69600000D01*
X164512500Y-77100000D02*
X169940000Y-77100000D01*
X169940000Y-77100000D02*
X170680000Y-77840000D01*
X170680000Y-77840000D02*
X170680000Y-81850000D01*
X164512500Y-77100000D02*
X164512000Y-77100000D01*
X164512000Y-77100000D02*
X164512000Y-75987500D01*
X164512000Y-75987500D02*
X165000000Y-75500000D01*
X155330000Y-78490000D02*
X155330000Y-76500000D01*
D24*
X145012800Y-67819700D02*
X144822500Y-68010000D01*
X145012800Y-66963836D02*
X145012800Y-67819700D01*
X143750000Y-79750000D02*
X143750000Y-76500000D01*
X144000000Y-72000000D02*
X144000000Y-71750000D01*
X146000000Y-74000000D02*
X144000000Y-72000000D01*
D25*
X139430020Y-64129880D02*
X139430120Y-64129880D01*
X139343198Y-66500000D02*
X143110000Y-66500000D01*
X138884099Y-66040901D02*
X139343198Y-66500000D01*
X138884099Y-64675901D02*
X138884099Y-66040901D01*
X139430120Y-64129880D02*
X138884099Y-64675901D01*
X164512500Y-81487500D02*
X164512500Y-77100000D01*
X163750000Y-82250000D02*
X164512500Y-81487500D01*
X155330000Y-81580000D02*
X156000000Y-82250000D01*
X156000000Y-82250000D02*
X163750000Y-82250000D01*
X155330000Y-78490000D02*
X155330000Y-81580000D01*
X135640000Y-63897300D02*
X136644500Y-64901800D01*
X135640000Y-62930000D02*
X135640000Y-63897300D01*
X136718157Y-61851843D02*
X135640000Y-62930000D01*
X138951843Y-61851843D02*
X136718157Y-61851843D01*
X139430120Y-64129880D02*
X139430120Y-62330120D01*
X127750000Y-67240000D02*
X127750000Y-64000000D01*
X128360000Y-67850000D02*
X127750000Y-67240000D01*
X134140000Y-67850000D02*
X128360000Y-67850000D01*
D24*
X145867401Y-83327401D02*
X145066203Y-82526203D01*
X147538284Y-83327401D02*
X145867401Y-83327401D01*
X145066203Y-82526203D02*
X145066203Y-82066203D01*
X148100000Y-82765685D02*
X147538284Y-83327401D01*
X148100000Y-82200000D02*
X148100000Y-82765685D01*
D25*
X165250000Y-56750000D02*
X165250000Y-57500000D01*
X163890000Y-55390000D02*
X165250000Y-56750000D01*
X142361000Y-55390000D02*
X163890000Y-55390000D01*
X141821500Y-55929500D02*
X142361000Y-55390000D01*
D24*
X144750000Y-70250000D02*
X148325210Y-70250000D01*
X148602318Y-71550000D02*
X149113764Y-71038554D01*
X148482500Y-71550000D02*
X148602318Y-71550000D01*
X148325210Y-70250000D02*
X149113764Y-71038554D01*
D25*
X166870000Y-59120000D02*
X165250000Y-57500000D01*
X166870000Y-62800000D02*
X166870000Y-59120000D01*
X167590000Y-62800000D02*
X166870000Y-62800000D01*
X167760000Y-62970000D02*
X167590000Y-62800000D01*
X167760000Y-65042500D02*
X167760000Y-62970000D01*
X167907500Y-65190000D02*
X167760000Y-65042500D01*
X166480000Y-66000000D02*
X166870000Y-65610000D01*
X166870000Y-65610000D02*
X166870000Y-62800000D01*
X165000000Y-66000000D02*
X166480000Y-66000000D01*
D24*
X161475000Y-69600000D02*
X161475000Y-66625000D01*
X161475000Y-66625000D02*
X161080000Y-66230000D01*
X161080000Y-64950000D02*
X160340000Y-64210000D01*
X161080000Y-66230000D02*
X161080000Y-64950000D01*
D25*
X171000000Y-54000000D02*
X169000000Y-54000000D01*
X168750000Y-54000000D02*
X171000000Y-54000000D01*
X165250000Y-57500000D02*
X168750000Y-54000000D01*
X115410000Y-76670000D02*
X115410000Y-76450000D01*
D24*
X116672500Y-85860000D02*
X117950000Y-85860000D01*
D25*
X116730000Y-76450000D02*
X115410000Y-76450000D01*
X116990000Y-76710000D02*
X116730000Y-76450000D01*
X117210000Y-78600000D02*
X116990000Y-78380000D01*
X116990000Y-78380000D02*
X116990000Y-76710000D01*
X118530000Y-78600000D02*
X117210000Y-78600000D01*
X118530000Y-78600000D02*
X121120000Y-78600000D01*
X121120000Y-78600000D02*
X121670000Y-78050000D01*
X139170000Y-62070000D02*
X138951843Y-61851843D01*
X139430120Y-62330120D02*
X139170000Y-62070000D01*
D24*
X167900000Y-68400000D02*
X168800000Y-68400000D01*
X165850000Y-68400000D02*
X167900000Y-68400000D01*
X165000000Y-67550000D02*
X165850000Y-68400000D01*
X165000000Y-66000000D02*
X165000000Y-67550000D01*
X167900000Y-74600000D02*
X168800000Y-74600000D01*
X165900000Y-74600000D02*
X167900000Y-74600000D01*
X165000000Y-75500000D02*
X165900000Y-74600000D01*
D25*
%TO.N,+3V3*%
X157218000Y-66410000D02*
X157217500Y-66410000D01*
D24*
X153000000Y-68579900D02*
X153702000Y-67878200D01*
X153702000Y-67878200D02*
X154050000Y-67878200D01*
X147080000Y-81129900D02*
X146720000Y-81489600D01*
X146720000Y-81489600D02*
X146720000Y-82602400D01*
X119578000Y-60040000D02*
X120840000Y-60040000D01*
X120840000Y-60040000D02*
X121050000Y-60250000D01*
X121050000Y-60250000D02*
X121050000Y-62810000D01*
D25*
X128310000Y-72390000D02*
X126592000Y-72390000D01*
X126592000Y-72390000D02*
X125962000Y-73020000D01*
D24*
X141660000Y-62700000D02*
X140860000Y-62700000D01*
X140860000Y-62700000D02*
X140650000Y-62910100D01*
D25*
X128330000Y-73775000D02*
X128330000Y-72410000D01*
X128330000Y-72410000D02*
X128310000Y-72390000D01*
X157630000Y-72190000D02*
X157630000Y-71740000D01*
X157630000Y-71740000D02*
X156575000Y-70685000D01*
X156575000Y-70685000D02*
X156575000Y-68930000D01*
X157630000Y-72190000D02*
X157630000Y-78490000D01*
D24*
X135380000Y-66660000D02*
X135470000Y-66660000D01*
X135470000Y-66660000D02*
X136180000Y-67370100D01*
D25*
X138770000Y-59190000D02*
X138770000Y-56480000D01*
X139250000Y-56000000D02*
X140250000Y-56000000D01*
X138770000Y-56480000D02*
X139250000Y-56000000D01*
X140140000Y-56110000D02*
X140250000Y-56000000D01*
X140140000Y-62400240D02*
X140140000Y-56110000D01*
X140649880Y-62910120D02*
X140140000Y-62400240D01*
X155518200Y-66410000D02*
X154050000Y-67878200D01*
X157217500Y-66410000D02*
X155518200Y-66410000D01*
X157217500Y-66410000D02*
X157217500Y-67112500D01*
X157217500Y-67112500D02*
X156980000Y-67350000D01*
X156980000Y-67350000D02*
X156590000Y-67350000D01*
X156575000Y-67365000D02*
X156575000Y-68930000D01*
X156590000Y-67350000D02*
X156575000Y-67365000D01*
X157630000Y-80850000D02*
X157650000Y-80870000D01*
X157630000Y-78490000D02*
X157630000Y-80850000D01*
X140950000Y-87780000D02*
X145080000Y-83650000D01*
X140950000Y-90230000D02*
X140950000Y-87780000D01*
X141717401Y-90997401D02*
X140950000Y-90230000D01*
X150062599Y-90997401D02*
X141717401Y-90997401D01*
X157770000Y-83290000D02*
X150062599Y-90997401D01*
D24*
X150260000Y-56630000D02*
X150260000Y-56280000D01*
X155870000Y-62240000D02*
X150260000Y-56630000D01*
X161870000Y-60780000D02*
X162980000Y-60780000D01*
X163270000Y-61070000D02*
X162980000Y-60780000D01*
X165410000Y-61070000D02*
X163270000Y-61070000D01*
X160760000Y-54450000D02*
X160810000Y-54500000D01*
X160760000Y-51310000D02*
X160760000Y-54450000D01*
X160790000Y-56340000D02*
X160790000Y-60730000D01*
X160790000Y-60730000D02*
X160840000Y-60780000D01*
X160840000Y-60780000D02*
X161870000Y-60780000D01*
X158080000Y-60780000D02*
X160840000Y-60780000D01*
D25*
X164030000Y-51030000D02*
X167000000Y-54000000D01*
X163310000Y-51030000D02*
X164030000Y-51030000D01*
X132490000Y-86340000D02*
X129460000Y-83310000D01*
X132490000Y-87380000D02*
X132490000Y-86340000D01*
X137400000Y-87380000D02*
X142710000Y-82070000D01*
X132490000Y-87380000D02*
X137400000Y-87380000D01*
%TO.N,/ANALOG_VDD*%
X130400000Y-73887500D02*
X130268000Y-73887500D01*
X130268000Y-73887500D02*
X128330000Y-75825000D01*
X133110000Y-73125000D02*
X130675000Y-73125000D01*
X130675000Y-73125000D02*
X130400000Y-73400000D01*
X130400000Y-73400000D02*
X130400000Y-73887500D01*
D24*
X137875000Y-73125000D02*
X138785000Y-72215000D01*
X133110000Y-73125000D02*
X137875000Y-73125000D01*
%TO.N,/VSSA*%
X134012000Y-78340000D02*
X134012500Y-78340000D01*
D25*
X134012000Y-78340000D02*
X134012000Y-78122500D01*
X134012000Y-78122500D02*
X133110000Y-77220000D01*
X133110000Y-77220000D02*
X133110000Y-76375000D01*
X130400000Y-75612500D02*
X130400000Y-75720000D01*
X130400000Y-75720000D02*
X131055000Y-76375000D01*
X131055000Y-76375000D02*
X133110000Y-76375000D01*
D24*
X140427238Y-77782762D02*
X140427238Y-73289344D01*
X139870000Y-78340000D02*
X140427238Y-77782762D01*
X134012500Y-78340000D02*
X139870000Y-78340000D01*
%TO.N,Net-(C7-Pad1)*%
X122332500Y-75570000D02*
X123830000Y-75570000D01*
X123830000Y-75570000D02*
X125030000Y-76770000D01*
X125030000Y-76770000D02*
X125030000Y-78600000D01*
X124137500Y-73020000D02*
X122700000Y-73020000D01*
X122700000Y-73020000D02*
X122332000Y-73387500D01*
X122332000Y-73387500D02*
X122332000Y-75570000D01*
X122332000Y-75570000D02*
X122332500Y-75570000D01*
X124138000Y-73020000D02*
X124137500Y-73020000D01*
X125030000Y-78600000D02*
X125570000Y-79140000D01*
X125570000Y-79140000D02*
X141810000Y-79140000D01*
X141810000Y-79140000D02*
X142281000Y-78668800D01*
X142281000Y-78668800D02*
X142281000Y-74061200D01*
%TO.N,Net-(C8-Pad1)*%
X137803800Y-63126600D02*
X137804000Y-63126400D01*
X137803600Y-63126400D02*
X137803800Y-63126600D01*
X137803800Y-63126600D02*
X137803800Y-64803800D01*
X137803800Y-64803800D02*
X138000000Y-65000000D01*
%TO.N,Net-(C9-Pad1)*%
X145785000Y-76085200D02*
X145705000Y-76085200D01*
X145705000Y-76085200D02*
X143860000Y-74240000D01*
X146758000Y-71550000D02*
X146758000Y-75112900D01*
X146758000Y-75112900D02*
X145785000Y-76085200D01*
X145785200Y-76085200D02*
X145785000Y-76085200D01*
X146757500Y-71550000D02*
X146758000Y-71550000D01*
%TO.N,Net-(C10-Pad1)*%
X139775000Y-70074800D02*
X141840000Y-68010000D01*
X141840000Y-68010000D02*
X143097500Y-68010000D01*
X141920000Y-72340000D02*
X141920000Y-72220000D01*
X141920000Y-72220000D02*
X139775000Y-70074800D01*
X139774800Y-70074800D02*
X139775000Y-70074800D01*
X143097500Y-68010000D02*
X143098000Y-68010000D01*
%TO.N,VCC*%
X124651800Y-81392400D02*
X125408800Y-81392400D01*
X125408800Y-81392400D02*
X137502500Y-93486100D01*
X137502500Y-93486100D02*
X145952300Y-93486100D01*
X162780000Y-77005000D02*
X162787500Y-77012500D01*
X162787500Y-77012500D02*
X162787500Y-77100000D01*
D25*
X162780000Y-77005000D02*
X162780000Y-77860000D01*
X162780000Y-77860000D02*
X162150000Y-78490000D01*
X162150000Y-80650000D02*
X162250000Y-80750000D01*
X162150000Y-78490000D02*
X162150000Y-80650000D01*
X159930000Y-78490000D02*
X159930000Y-80180000D01*
X160500000Y-80750000D02*
X162250000Y-80750000D01*
X159930000Y-80180000D02*
X160500000Y-80750000D01*
D24*
X145952300Y-93486100D02*
X154733900Y-93486100D01*
X154733900Y-93486100D02*
X155710000Y-92510000D01*
X155710000Y-92510000D02*
X155710000Y-88460000D01*
X155080000Y-87830000D02*
X154510000Y-87830000D01*
X155710000Y-88460000D02*
X155080000Y-87830000D01*
D25*
X168350000Y-69150000D02*
X168800000Y-69150000D01*
X165720000Y-69150000D02*
X168350000Y-69150000D01*
X163769010Y-67199010D02*
X165720000Y-69150000D01*
X163769010Y-66919700D02*
X163769010Y-67199010D01*
X168350000Y-73850000D02*
X168800000Y-73850000D01*
X165690000Y-73850000D02*
X168350000Y-73850000D01*
X165020000Y-74520000D02*
X165690000Y-73850000D01*
X164410000Y-74520000D02*
X165020000Y-74520000D01*
X162780000Y-76150000D02*
X164410000Y-74520000D01*
X162780000Y-77005000D02*
X162780000Y-76150000D01*
D24*
%TO.N,A14*%
X151882000Y-75681500D02*
X153531900Y-77331400D01*
X153531900Y-77331400D02*
X153531900Y-84878500D01*
X151882000Y-73724900D02*
X151882000Y-75681500D01*
X150650600Y-72493500D02*
X151882000Y-73724900D01*
X150650600Y-68120600D02*
X150650600Y-72493500D01*
X146390000Y-63860000D02*
X150650600Y-68120600D01*
X146390000Y-59190000D02*
X146390000Y-63860000D01*
%TO.N,A13*%
X153407500Y-63159700D02*
X153407500Y-64000222D01*
X143926900Y-56813100D02*
X147060900Y-56813100D01*
X153407500Y-64000222D02*
X154416100Y-65008822D01*
X147060900Y-56813100D02*
X153407500Y-63159700D01*
X143850000Y-56890000D02*
X143926900Y-56813100D01*
X143850000Y-59190000D02*
X143850000Y-56890000D01*
%TO.N,A12*%
X162587500Y-70900000D02*
X163044000Y-70443500D01*
X163044000Y-70443500D02*
X163044000Y-69353800D01*
%TO.N,A11*%
X161354860Y-63374860D02*
X156980460Y-63374860D01*
X162249800Y-64269800D02*
X161354860Y-63374860D01*
X162249800Y-69902800D02*
X162249800Y-64269800D01*
X161740600Y-70412000D02*
X162249800Y-69902800D01*
X161740600Y-71653100D02*
X161740600Y-70412000D01*
X162587500Y-72500000D02*
X161740600Y-71653100D01*
%TO.N,A10*%
X155771190Y-63558810D02*
X154626510Y-63558810D01*
X157235016Y-62094984D02*
X155771190Y-63558810D01*
X157235016Y-56349988D02*
X157235016Y-62094984D01*
%TO.N,A3*%
X135337400Y-50640900D02*
X135337400Y-58992600D01*
X135337400Y-58992600D02*
X135046800Y-59283200D01*
X161023100Y-50413100D02*
X135565200Y-50413100D01*
X135046800Y-59283200D02*
X132840000Y-59283200D01*
X162350000Y-51740000D02*
X161023100Y-50413100D01*
X162350000Y-52647918D02*
X162350000Y-51740000D01*
X135565200Y-50413100D02*
X135337400Y-50640900D01*
X165446041Y-55743959D02*
X162350000Y-52647918D01*
X171855001Y-83214999D02*
X171855001Y-77355001D01*
X170680000Y-84390000D02*
X171855001Y-83214999D01*
X171170000Y-76670000D02*
X171120000Y-76670000D01*
X171855001Y-77355001D02*
X171170000Y-76670000D01*
%TO.N,A0*%
X125300000Y-98210000D02*
X125300000Y-95700000D01*
X124980000Y-98530000D02*
X125300000Y-98210000D01*
X120700000Y-98530000D02*
X124980000Y-98530000D01*
X125300000Y-95700000D02*
X125230000Y-95630000D01*
X120120000Y-97950000D02*
X120700000Y-98530000D01*
X120120000Y-86542500D02*
X120120000Y-97950000D01*
%TO.N,C11*%
X143007900Y-73980600D02*
X143774100Y-73214400D01*
X141501400Y-80654500D02*
X143007900Y-79148000D01*
X143007900Y-79148000D02*
X143007900Y-73980600D01*
X124297500Y-80654500D02*
X141501400Y-80654500D01*
X123320000Y-81632000D02*
X124297500Y-80654500D01*
X143774100Y-73214400D02*
X143974300Y-73214400D01*
X123320000Y-93470000D02*
X123320000Y-81632000D01*
X124402300Y-94552300D02*
X123320000Y-93470000D01*
X143003200Y-94552300D02*
X124402300Y-94552300D01*
%TO.N,C2*%
X129364400Y-93000000D02*
X128971300Y-92606900D01*
X128971300Y-92606900D02*
X128971300Y-85982900D01*
%TO.N,C1*%
X127760000Y-88230000D02*
X127760000Y-90430000D01*
X124320000Y-84790000D02*
X127760000Y-88230000D01*
%TO.N,B0*%
X142464500Y-61216100D02*
X142464500Y-62978900D01*
X142464500Y-62978900D02*
X139810500Y-65632900D01*
X139810500Y-65632900D02*
X139734100Y-65632900D01*
%TO.N,B1*%
X143595600Y-63062100D02*
X145737800Y-65204300D01*
X145737800Y-65204300D02*
X145737800Y-68466000D01*
X145737800Y-68466000D02*
X144882500Y-69321300D01*
X144882500Y-69321300D02*
X143375900Y-69321300D01*
%TO.N,B2*%
X143202900Y-61948300D02*
X143573400Y-61948300D01*
X143573400Y-61948300D02*
X146232200Y-64607100D01*
X146232200Y-64607100D02*
X146232200Y-69137100D01*
%TO.N,B4*%
X143144400Y-90147400D02*
X143790300Y-90147400D01*
X143790300Y-90147400D02*
X149822400Y-84115300D01*
X149822400Y-84115300D02*
X149822400Y-77794300D01*
%TO.N,B7*%
X139378300Y-92753100D02*
X139378300Y-86728800D01*
X139378300Y-86728800D02*
X147890400Y-78216700D01*
%TO.N,D2*%
X147804600Y-73781800D02*
X148617400Y-74594600D01*
X148617400Y-74594600D02*
X148617400Y-77862000D01*
X148617400Y-77862000D02*
X149258500Y-78503100D01*
X149258500Y-78503100D02*
X149258500Y-83609000D01*
X149258500Y-83609000D02*
X148761600Y-84105900D01*
%TO.N,Net-(J3-Pad3)*%
X168250000Y-73250000D02*
X168800000Y-73250000D01*
X165190000Y-73250000D02*
X168250000Y-73250000D01*
X164777000Y-73662900D02*
X165190000Y-73250000D01*
X164193000Y-73662900D02*
X164777000Y-73662900D01*
D25*
%TO.N,Net-(C11-Pad2)*%
X169632000Y-65190000D02*
X169632500Y-65190000D01*
D24*
X169175000Y-75820000D02*
X173000000Y-75820000D01*
D25*
X173000000Y-66000000D02*
X173000000Y-67180000D01*
X172850000Y-65850000D02*
X173000000Y-66000000D01*
X171725000Y-65850000D02*
X172850000Y-65850000D01*
X171065000Y-65190000D02*
X171725000Y-65850000D01*
X169632500Y-65190000D02*
X171065000Y-65190000D01*
X173000000Y-67180000D02*
X173000000Y-70100000D01*
X173000000Y-70100000D02*
X173000000Y-72900000D01*
X173000000Y-72900000D02*
X173000000Y-75820000D01*
D24*
X169175000Y-67180000D02*
X173000000Y-67180000D01*
%TO.N,/DM*%
X164412500Y-72500000D02*
X165200000Y-72500000D01*
X165200000Y-72500000D02*
X165450000Y-72250000D01*
X165450000Y-72250000D02*
X166600000Y-72250000D01*
X164412000Y-72500000D02*
X164412500Y-72500000D01*
X168650000Y-72250000D02*
X167900000Y-72250000D01*
X166600000Y-72250000D02*
X167900000Y-72250000D01*
X169520002Y-70750000D02*
X168800000Y-70750000D01*
X169625001Y-70854999D02*
X169520002Y-70750000D01*
X169625001Y-72174999D02*
X169625001Y-70854999D01*
X169550000Y-72250000D02*
X169625001Y-72174999D01*
X168800000Y-72250000D02*
X169550000Y-72250000D01*
%TO.N,/DP*%
X164412000Y-70900000D02*
X164412500Y-70900000D01*
X167900000Y-71250000D02*
X168800000Y-71250000D01*
X165550000Y-71250000D02*
X167900000Y-71250000D01*
X165200000Y-70900000D02*
X165550000Y-71250000D01*
X164412500Y-70900000D02*
X165200000Y-70900000D01*
X168800000Y-71250000D02*
X168800000Y-71750000D01*
%TO.N,Net-(J3-Pad9)*%
X168250000Y-70250000D02*
X168800000Y-70250000D01*
X165617000Y-70250000D02*
X168250000Y-70250000D01*
X164909000Y-69541900D02*
X165617000Y-70250000D01*
%TO.N,Net-(LD1-Pad1)*%
X117198000Y-61913700D02*
X117197500Y-61914200D01*
X117197500Y-61914200D02*
X117197500Y-62330000D01*
X117198000Y-61913700D02*
X117198000Y-62330000D01*
X116602000Y-60471200D02*
X116602000Y-60902500D01*
X116602000Y-60902500D02*
X117198000Y-61497500D01*
X117198000Y-61497500D02*
X117198000Y-61913700D01*
X116602000Y-60471200D02*
X116602500Y-60470700D01*
X116602500Y-60470700D02*
X116602500Y-60040000D01*
X116602000Y-60040000D02*
X116602000Y-60471200D01*
%TO.N,Net-(LD2-Pad1)*%
X114665000Y-85677500D02*
X114847500Y-85860000D01*
X114665000Y-83790000D02*
X114665000Y-85677500D01*
%TO.N,Net-(LD2-Pad2)*%
X116715000Y-83790000D02*
X117970000Y-83790000D01*
X118897500Y-84717500D02*
X120120000Y-84717500D01*
X117970000Y-83790000D02*
X118897500Y-84717500D01*
%TD*%
D26*
%TO.N,+3V3*%
X134577400Y-50603568D02*
X134577400Y-50603578D01*
X134573724Y-50640900D01*
X134577400Y-50678222D01*
X134577401Y-58523200D01*
X133543711Y-58523200D01*
X133499774Y-58479263D01*
X133330256Y-58365995D01*
X133141898Y-58287974D01*
X132941939Y-58248200D01*
X132738061Y-58248200D01*
X132538102Y-58287974D01*
X132349744Y-58365995D01*
X132180226Y-58479263D01*
X132036063Y-58623426D01*
X131922795Y-58792944D01*
X131844774Y-58981302D01*
X131805000Y-59181261D01*
X131805000Y-59385139D01*
X131844774Y-59585098D01*
X131922795Y-59773456D01*
X132036063Y-59942974D01*
X132180226Y-60087137D01*
X132349744Y-60200405D01*
X132538102Y-60278426D01*
X132738061Y-60318200D01*
X132941939Y-60318200D01*
X133141898Y-60278426D01*
X133330256Y-60200405D01*
X133499774Y-60087137D01*
X133543711Y-60043200D01*
X135009478Y-60043200D01*
X135046800Y-60046876D01*
X135081928Y-60043416D01*
X135081928Y-61240000D01*
X135094188Y-61364482D01*
X135130498Y-61484180D01*
X135189463Y-61594494D01*
X135268815Y-61691185D01*
X135365506Y-61770537D01*
X135475820Y-61829502D01*
X135485871Y-61832551D01*
X135044956Y-62273466D01*
X135011183Y-62301183D01*
X134900589Y-62435942D01*
X134818411Y-62589688D01*
X134791659Y-62677876D01*
X134769102Y-62752237D01*
X134767805Y-62756511D01*
X134755000Y-62886524D01*
X134755000Y-62886531D01*
X134750719Y-62930000D01*
X134755000Y-62973470D01*
X134755001Y-63853822D01*
X134750719Y-63897300D01*
X134767805Y-64070790D01*
X134818412Y-64237613D01*
X134886688Y-64365350D01*
X134879468Y-64438655D01*
X133544915Y-65773500D01*
X133511183Y-65801183D01*
X133483440Y-65834988D01*
X133483403Y-65835025D01*
X133456831Y-65867411D01*
X133400589Y-65935942D01*
X133400565Y-65935986D01*
X133400536Y-65936022D01*
X133363174Y-66005941D01*
X133318411Y-66089688D01*
X133318397Y-66089736D01*
X133318375Y-66089776D01*
X133295349Y-66165712D01*
X133267805Y-66256511D01*
X133267800Y-66256562D01*
X133267787Y-66256605D01*
X133260376Y-66331939D01*
X133255000Y-66386524D01*
X133255000Y-66386581D01*
X133250719Y-66430096D01*
X133255000Y-66473517D01*
X133255000Y-66965000D01*
X128726579Y-66965000D01*
X128635000Y-66873422D01*
X128635000Y-64538454D01*
X128667205Y-64490256D01*
X128745226Y-64301898D01*
X128785000Y-64101939D01*
X128785000Y-63898061D01*
X128745226Y-63698102D01*
X128667205Y-63509744D01*
X128553937Y-63340226D01*
X128409774Y-63196063D01*
X128240256Y-63082795D01*
X128051898Y-63004774D01*
X127851939Y-62965000D01*
X127648061Y-62965000D01*
X127448102Y-63004774D01*
X127259744Y-63082795D01*
X127090226Y-63196063D01*
X126946063Y-63340226D01*
X126832795Y-63509744D01*
X126754774Y-63698102D01*
X126715000Y-63898061D01*
X126715000Y-64101939D01*
X126754774Y-64301898D01*
X126832795Y-64490256D01*
X126865001Y-64538456D01*
X126865000Y-67196531D01*
X126860719Y-67240000D01*
X126865000Y-67283469D01*
X126865000Y-67283476D01*
X126871657Y-67351062D01*
X126877805Y-67413490D01*
X126883618Y-67432653D01*
X126928411Y-67580312D01*
X127010589Y-67734058D01*
X127121183Y-67868817D01*
X127154956Y-67896534D01*
X127703470Y-68445049D01*
X127731183Y-68478817D01*
X127764951Y-68506530D01*
X127764953Y-68506532D01*
X127822381Y-68553662D01*
X127865941Y-68589411D01*
X128019687Y-68671589D01*
X128186510Y-68722195D01*
X128316523Y-68735000D01*
X128316533Y-68735000D01*
X128359999Y-68739281D01*
X128403465Y-68735000D01*
X133601546Y-68735000D01*
X133649744Y-68767205D01*
X133720476Y-68796503D01*
X133721302Y-68804890D01*
X133771127Y-68969141D01*
X133852038Y-69120516D01*
X133960927Y-69253197D01*
X134296803Y-69589073D01*
X134429484Y-69697962D01*
X134580859Y-69778873D01*
X134745110Y-69828698D01*
X134915926Y-69845522D01*
X135086742Y-69828698D01*
X135250993Y-69778873D01*
X135402368Y-69697962D01*
X135535049Y-69589073D01*
X135959313Y-69164809D01*
X136068202Y-69032128D01*
X136149113Y-68880753D01*
X136198498Y-68717951D01*
X136260167Y-68711877D01*
X136379865Y-68675568D01*
X136490180Y-68616604D01*
X136586871Y-68537251D01*
X136762713Y-68357064D01*
X136762713Y-68132558D01*
X136179880Y-67549725D01*
X136165738Y-67563868D01*
X135986133Y-67384263D01*
X136000275Y-67370120D01*
X136359485Y-67370120D01*
X136942318Y-67952953D01*
X137166824Y-67952953D01*
X137347011Y-67777111D01*
X137426364Y-67680420D01*
X137485328Y-67570105D01*
X137521637Y-67450407D01*
X137533898Y-67325926D01*
X137521637Y-67201445D01*
X137485328Y-67081746D01*
X137426364Y-66971432D01*
X137347011Y-66874741D01*
X137211018Y-66743093D01*
X136986512Y-66743093D01*
X136359485Y-67370120D01*
X136000275Y-67370120D01*
X135417442Y-66787287D01*
X135192936Y-66787287D01*
X135025000Y-66951173D01*
X135025000Y-66796522D01*
X135926243Y-65895083D01*
X135940218Y-65906552D01*
X136093754Y-65988619D01*
X136194090Y-66019055D01*
X136099593Y-66028363D01*
X135979895Y-66064672D01*
X135869580Y-66123636D01*
X135772889Y-66202989D01*
X135597047Y-66383176D01*
X135597047Y-66607682D01*
X136179880Y-67190515D01*
X136806907Y-66563488D01*
X136806907Y-66338982D01*
X136675259Y-66202989D01*
X136578568Y-66123636D01*
X136468254Y-66064672D01*
X136438725Y-66055715D01*
X136606858Y-66039155D01*
X136773454Y-65988619D01*
X136926990Y-65906552D01*
X137061566Y-65796109D01*
X137196982Y-65660693D01*
X137340226Y-65803937D01*
X137509744Y-65917205D01*
X137698102Y-65995226D01*
X137898061Y-66035000D01*
X137995399Y-66035000D01*
X137994818Y-66040901D01*
X138011904Y-66214391D01*
X138062511Y-66381214D01*
X138144689Y-66534960D01*
X138227567Y-66635947D01*
X138227570Y-66635950D01*
X138255283Y-66669718D01*
X138289051Y-66697431D01*
X138686664Y-67095044D01*
X138714381Y-67128817D01*
X138748063Y-67156459D01*
X138646733Y-67187197D01*
X138536419Y-67246162D01*
X138439728Y-67325514D01*
X137025514Y-68739728D01*
X136946162Y-68836419D01*
X136887197Y-68946733D01*
X136850887Y-69066431D01*
X136838627Y-69190913D01*
X136850887Y-69315395D01*
X136887197Y-69435093D01*
X136946162Y-69545407D01*
X137025514Y-69642098D01*
X138583266Y-71199850D01*
X138483102Y-71219774D01*
X138294744Y-71297795D01*
X138125226Y-71411063D01*
X137981063Y-71555226D01*
X137867795Y-71724744D01*
X137789774Y-71913102D01*
X137750000Y-72113061D01*
X137750000Y-72175199D01*
X137560199Y-72365000D01*
X134879694Y-72365000D01*
X134855472Y-72285150D01*
X134773405Y-72131614D01*
X134662962Y-71997038D01*
X134528386Y-71886595D01*
X134374850Y-71804528D01*
X134208254Y-71753992D01*
X134035000Y-71736928D01*
X132185000Y-71736928D01*
X132011746Y-71753992D01*
X131845150Y-71804528D01*
X131691614Y-71886595D01*
X131557038Y-71997038D01*
X131446595Y-72131614D01*
X131388661Y-72240000D01*
X130718469Y-72240000D01*
X130675000Y-72235719D01*
X130631531Y-72240000D01*
X130631523Y-72240000D01*
X130501510Y-72252805D01*
X130334687Y-72303411D01*
X130180941Y-72385589D01*
X130046183Y-72496183D01*
X130018466Y-72529956D01*
X129804956Y-72743466D01*
X129771183Y-72771183D01*
X129716416Y-72837916D01*
X129676058Y-72859488D01*
X129600956Y-72921123D01*
X129560537Y-72845506D01*
X129481185Y-72748815D01*
X129384494Y-72669463D01*
X129274180Y-72610498D01*
X129154482Y-72574188D01*
X129030000Y-72561928D01*
X128615750Y-72565000D01*
X128457000Y-72723750D01*
X128457000Y-73648000D01*
X128477000Y-73648000D01*
X128477000Y-73902000D01*
X128457000Y-73902000D01*
X128457000Y-73922000D01*
X128203000Y-73922000D01*
X128203000Y-73902000D01*
X128183000Y-73902000D01*
X128183000Y-73648000D01*
X128203000Y-73648000D01*
X128203000Y-72723750D01*
X128044250Y-72565000D01*
X127630000Y-72561928D01*
X127505518Y-72574188D01*
X127385820Y-72610498D01*
X127275506Y-72669463D01*
X127178815Y-72748815D01*
X127099463Y-72845506D01*
X127074078Y-72892998D01*
X126926252Y-72892998D01*
X127085000Y-72734250D01*
X127088072Y-72545000D01*
X127075812Y-72420518D01*
X127039502Y-72300820D01*
X126980537Y-72190506D01*
X126901185Y-72093815D01*
X126804494Y-72014463D01*
X126694180Y-71955498D01*
X126574482Y-71919188D01*
X126450000Y-71906928D01*
X126248250Y-71910000D01*
X126089500Y-72068750D01*
X126089500Y-72893000D01*
X126109500Y-72893000D01*
X126109500Y-73147000D01*
X126089500Y-73147000D01*
X126089500Y-73971250D01*
X126248250Y-74130000D01*
X126450000Y-74133072D01*
X126574482Y-74120812D01*
X126694180Y-74084502D01*
X126804494Y-74025537D01*
X126901185Y-73946185D01*
X126980537Y-73849494D01*
X126995000Y-73822436D01*
X126995000Y-73902002D01*
X127153748Y-73902002D01*
X126995000Y-74060750D01*
X126991928Y-74350000D01*
X127004188Y-74474482D01*
X127040498Y-74594180D01*
X127099463Y-74704494D01*
X127178815Y-74801185D01*
X127258594Y-74866658D01*
X127252038Y-74872038D01*
X127141595Y-75006613D01*
X127059528Y-75160149D01*
X127008992Y-75326745D01*
X126991928Y-75499999D01*
X126991928Y-76150001D01*
X127008992Y-76323255D01*
X127059528Y-76489851D01*
X127141595Y-76643387D01*
X127252038Y-76777962D01*
X127386613Y-76888405D01*
X127540149Y-76970472D01*
X127706745Y-77021008D01*
X127879999Y-77038072D01*
X128780001Y-77038072D01*
X128953255Y-77021008D01*
X129119851Y-76970472D01*
X129273387Y-76888405D01*
X129407962Y-76777962D01*
X129518405Y-76643387D01*
X129567543Y-76551456D01*
X129676058Y-76640512D01*
X129827433Y-76721423D01*
X129991684Y-76771248D01*
X130162500Y-76788072D01*
X130216493Y-76788072D01*
X130266085Y-76837663D01*
X130108844Y-76902795D01*
X129939326Y-77016063D01*
X129795163Y-77160226D01*
X129681895Y-77329744D01*
X129603874Y-77518102D01*
X129564100Y-77718061D01*
X129564100Y-77921939D01*
X129603874Y-78121898D01*
X129681895Y-78310256D01*
X129728496Y-78380000D01*
X126518072Y-78380000D01*
X126518072Y-77850000D01*
X126505812Y-77725518D01*
X126469502Y-77605820D01*
X126410537Y-77495506D01*
X126331185Y-77398815D01*
X126234494Y-77319463D01*
X126124180Y-77260498D01*
X126004482Y-77224188D01*
X125880000Y-77211928D01*
X125790000Y-77211928D01*
X125790000Y-76807322D01*
X125793676Y-76769999D01*
X125790000Y-76732676D01*
X125790000Y-76732667D01*
X125779003Y-76621014D01*
X125735546Y-76477753D01*
X125664974Y-76345724D01*
X125570001Y-76229999D01*
X125541004Y-76206202D01*
X124393804Y-75059003D01*
X124370001Y-75029999D01*
X124254276Y-74935026D01*
X124122247Y-74864454D01*
X123978986Y-74820997D01*
X123867333Y-74810000D01*
X123867322Y-74810000D01*
X123830000Y-74806324D01*
X123792678Y-74810000D01*
X123330920Y-74810000D01*
X123251623Y-74713377D01*
X123118942Y-74604488D01*
X123092000Y-74590087D01*
X123092000Y-73780000D01*
X123189080Y-73780000D01*
X123268377Y-73876623D01*
X123401058Y-73985512D01*
X123552433Y-74066423D01*
X123716684Y-74116248D01*
X123887500Y-74133072D01*
X124387500Y-74133072D01*
X124558316Y-74116248D01*
X124722567Y-74066423D01*
X124873942Y-73985512D01*
X124982783Y-73896188D01*
X125023815Y-73946185D01*
X125120506Y-74025537D01*
X125230820Y-74084502D01*
X125350518Y-74120812D01*
X125475000Y-74133072D01*
X125676750Y-74130000D01*
X125835500Y-73971250D01*
X125835500Y-73147000D01*
X125815500Y-73147000D01*
X125815500Y-72893000D01*
X125835500Y-72893000D01*
X125835500Y-72068750D01*
X125676750Y-71910000D01*
X125475000Y-71906928D01*
X125350518Y-71919188D01*
X125230820Y-71955498D01*
X125120506Y-72014463D01*
X125023815Y-72093815D01*
X124982783Y-72143812D01*
X124873942Y-72054488D01*
X124722567Y-71973577D01*
X124558316Y-71923752D01*
X124387500Y-71906928D01*
X123887500Y-71906928D01*
X123716684Y-71923752D01*
X123552433Y-71973577D01*
X123401058Y-72054488D01*
X123268377Y-72163377D01*
X123189080Y-72260000D01*
X122737584Y-72260000D01*
X122700519Y-72256324D01*
X122662935Y-72260000D01*
X122662667Y-72260000D01*
X122624358Y-72263773D01*
X122551523Y-72270897D01*
X122551279Y-72270971D01*
X122551014Y-72270997D01*
X122478533Y-72292983D01*
X122408233Y-72314256D01*
X122408005Y-72314377D01*
X122407753Y-72314454D01*
X122341349Y-72349948D01*
X122276156Y-72384738D01*
X122275956Y-72384902D01*
X122275724Y-72385026D01*
X122217461Y-72432841D01*
X122189381Y-72455854D01*
X122189202Y-72456033D01*
X122159999Y-72479999D01*
X122136361Y-72508802D01*
X121821201Y-72823533D01*
X121791999Y-72847499D01*
X121744533Y-72905337D01*
X121697315Y-72962793D01*
X121697192Y-72963023D01*
X121697026Y-72963225D01*
X121661826Y-73029079D01*
X121626653Y-73094774D01*
X121626577Y-73095024D01*
X121626454Y-73095254D01*
X121604734Y-73166857D01*
X121583099Y-73238005D01*
X121583073Y-73238263D01*
X121582997Y-73238515D01*
X121575688Y-73312727D01*
X121568324Y-73386981D01*
X121572000Y-73424565D01*
X121572001Y-74590622D01*
X121546058Y-74604488D01*
X121470000Y-74666907D01*
X121393942Y-74604488D01*
X121242567Y-74523577D01*
X121078316Y-74473752D01*
X120907500Y-74456928D01*
X120307500Y-74456928D01*
X120136684Y-74473752D01*
X119972433Y-74523577D01*
X119821058Y-74604488D01*
X119722954Y-74685000D01*
X119403465Y-74685000D01*
X119359999Y-74680719D01*
X119316533Y-74685000D01*
X119316523Y-74685000D01*
X119186510Y-74697805D01*
X119019687Y-74748411D01*
X118865941Y-74830589D01*
X118850620Y-74843163D01*
X118764953Y-74913468D01*
X118764951Y-74913470D01*
X118731183Y-74941183D01*
X118703470Y-74974951D01*
X117934956Y-75743466D01*
X117901183Y-75771183D01*
X117790589Y-75905942D01*
X117708411Y-76059688D01*
X117679471Y-76155089D01*
X117618817Y-76081183D01*
X117585044Y-76053466D01*
X117386534Y-75854956D01*
X117358817Y-75821183D01*
X117224059Y-75710589D01*
X117070313Y-75628411D01*
X116903490Y-75577805D01*
X116895812Y-75577049D01*
X116885812Y-75475518D01*
X116849502Y-75355820D01*
X116790537Y-75245506D01*
X116711185Y-75148815D01*
X116614494Y-75069463D01*
X116504180Y-75010498D01*
X116384482Y-74974188D01*
X116260000Y-74961928D01*
X114560000Y-74961928D01*
X114435518Y-74974188D01*
X114315820Y-75010498D01*
X114205506Y-75069463D01*
X114108815Y-75148815D01*
X114029463Y-75245506D01*
X113970498Y-75355820D01*
X113934188Y-75475518D01*
X113921928Y-75600000D01*
X113921928Y-77300000D01*
X113934188Y-77424482D01*
X113970498Y-77544180D01*
X114029463Y-77654494D01*
X114108815Y-77751185D01*
X114205506Y-77830537D01*
X114315820Y-77889502D01*
X114388380Y-77911513D01*
X114256525Y-78043368D01*
X114094010Y-78286589D01*
X113982068Y-78556842D01*
X113925000Y-78843740D01*
X113925000Y-79136260D01*
X113982068Y-79423158D01*
X114094010Y-79693411D01*
X114256525Y-79936632D01*
X114463368Y-80143475D01*
X114706589Y-80305990D01*
X114976842Y-80417932D01*
X115263740Y-80475000D01*
X115556260Y-80475000D01*
X115843158Y-80417932D01*
X116113411Y-80305990D01*
X116356632Y-80143475D01*
X116563475Y-79936632D01*
X116725990Y-79693411D01*
X116837932Y-79423158D01*
X116841266Y-79406398D01*
X116869687Y-79421589D01*
X116997682Y-79460416D01*
X117036509Y-79472195D01*
X117051306Y-79473652D01*
X117054134Y-79473931D01*
X117054188Y-79474482D01*
X117090498Y-79594180D01*
X117149463Y-79704494D01*
X117228815Y-79801185D01*
X117325506Y-79880537D01*
X117435820Y-79939502D01*
X117555518Y-79975812D01*
X117680000Y-79988072D01*
X119380000Y-79988072D01*
X119504482Y-79975812D01*
X119624180Y-79939502D01*
X119734494Y-79880537D01*
X119831185Y-79801185D01*
X119910537Y-79704494D01*
X119969502Y-79594180D01*
X120002621Y-79485000D01*
X121076531Y-79485000D01*
X121120000Y-79489281D01*
X121163469Y-79485000D01*
X121163477Y-79485000D01*
X121293490Y-79472195D01*
X121460313Y-79421589D01*
X121614059Y-79339411D01*
X121748817Y-79228817D01*
X121776534Y-79195044D01*
X121915043Y-79056535D01*
X121971898Y-79045226D01*
X122160256Y-78967205D01*
X122329774Y-78853937D01*
X122473937Y-78709774D01*
X122587205Y-78540256D01*
X122665226Y-78351898D01*
X122705000Y-78151939D01*
X122705000Y-77948061D01*
X122665226Y-77748102D01*
X122587205Y-77559744D01*
X122473937Y-77390226D01*
X122329774Y-77246063D01*
X122160256Y-77132795D01*
X121971898Y-77054774D01*
X121771939Y-77015000D01*
X121568061Y-77015000D01*
X121368102Y-77054774D01*
X121179744Y-77132795D01*
X121010226Y-77246063D01*
X120866063Y-77390226D01*
X120752795Y-77559744D01*
X120688485Y-77715000D01*
X120002621Y-77715000D01*
X119969502Y-77605820D01*
X119910537Y-77495506D01*
X119831185Y-77398815D01*
X119734494Y-77319463D01*
X119624180Y-77260498D01*
X119504482Y-77224188D01*
X119415000Y-77215375D01*
X119415000Y-76766578D01*
X119724945Y-76456634D01*
X119821058Y-76535512D01*
X119972433Y-76616423D01*
X120136684Y-76666248D01*
X120307500Y-76683072D01*
X120907500Y-76683072D01*
X121078316Y-76666248D01*
X121242567Y-76616423D01*
X121393942Y-76535512D01*
X121470000Y-76473093D01*
X121546058Y-76535512D01*
X121697433Y-76616423D01*
X121861684Y-76666248D01*
X122032500Y-76683072D01*
X122632500Y-76683072D01*
X122803316Y-76666248D01*
X122967567Y-76616423D01*
X123118942Y-76535512D01*
X123251623Y-76426623D01*
X123330920Y-76330000D01*
X123515199Y-76330000D01*
X124270000Y-77084802D01*
X124270000Y-77211928D01*
X124180000Y-77211928D01*
X124055518Y-77224188D01*
X123935820Y-77260498D01*
X123825506Y-77319463D01*
X123728815Y-77398815D01*
X123649463Y-77495506D01*
X123590498Y-77605820D01*
X123554188Y-77725518D01*
X123541928Y-77850000D01*
X123541928Y-79350000D01*
X123554188Y-79474482D01*
X123590498Y-79594180D01*
X123649463Y-79704494D01*
X123728815Y-79801185D01*
X123825506Y-79880537D01*
X123935820Y-79939502D01*
X123991396Y-79956361D01*
X123873224Y-80019526D01*
X123757499Y-80114499D01*
X123733701Y-80143497D01*
X122808998Y-81068201D01*
X122780000Y-81091999D01*
X122756202Y-81120997D01*
X122756201Y-81120998D01*
X122685026Y-81207724D01*
X122614454Y-81339754D01*
X122585207Y-81436173D01*
X122570998Y-81483014D01*
X122565456Y-81539282D01*
X122556324Y-81632000D01*
X122560001Y-81669332D01*
X122560000Y-93432678D01*
X122556324Y-93470000D01*
X122560000Y-93507322D01*
X122560000Y-93507332D01*
X122570997Y-93618985D01*
X122610243Y-93748363D01*
X122614454Y-93762246D01*
X122685026Y-93894276D01*
X122703844Y-93917205D01*
X122779999Y-94010001D01*
X122809002Y-94033804D01*
X123838501Y-95063303D01*
X123862299Y-95092301D01*
X123978024Y-95187274D01*
X124110053Y-95257846D01*
X124246705Y-95299298D01*
X124234774Y-95328102D01*
X124195000Y-95528061D01*
X124195000Y-95731939D01*
X124234774Y-95931898D01*
X124312795Y-96120256D01*
X124426063Y-96289774D01*
X124540001Y-96403712D01*
X124540000Y-97770000D01*
X121014802Y-97770000D01*
X120880000Y-97635199D01*
X120880000Y-87490920D01*
X120976623Y-87411623D01*
X121085512Y-87278942D01*
X121166423Y-87127567D01*
X121216248Y-86963316D01*
X121233072Y-86792500D01*
X121233072Y-86292500D01*
X121216248Y-86121684D01*
X121166423Y-85957433D01*
X121085512Y-85806058D01*
X120976623Y-85673377D01*
X120923768Y-85630000D01*
X120976623Y-85586623D01*
X121085512Y-85453942D01*
X121166423Y-85302567D01*
X121216248Y-85138316D01*
X121233072Y-84967500D01*
X121233072Y-84467500D01*
X121216248Y-84296684D01*
X121166423Y-84132433D01*
X121085512Y-83981058D01*
X120976623Y-83848377D01*
X120843942Y-83739488D01*
X120692567Y-83658577D01*
X120528316Y-83608752D01*
X120357500Y-83591928D01*
X119882500Y-83591928D01*
X119711684Y-83608752D01*
X119547433Y-83658577D01*
X119396058Y-83739488D01*
X119263377Y-83848377D01*
X119191167Y-83936365D01*
X118533803Y-83279002D01*
X118510001Y-83249999D01*
X118394276Y-83155026D01*
X118262247Y-83084454D01*
X118118986Y-83040997D01*
X118007333Y-83030000D01*
X118007322Y-83030000D01*
X117970000Y-83026324D01*
X117932678Y-83030000D01*
X117869527Y-83030000D01*
X117860472Y-83000149D01*
X117778405Y-82846613D01*
X117667962Y-82712038D01*
X117533387Y-82601595D01*
X117379851Y-82519528D01*
X117213255Y-82468992D01*
X117040001Y-82451928D01*
X116389999Y-82451928D01*
X116216745Y-82468992D01*
X116050149Y-82519528D01*
X115896613Y-82601595D01*
X115762038Y-82712038D01*
X115690000Y-82799816D01*
X115617962Y-82712038D01*
X115483387Y-82601595D01*
X115329851Y-82519528D01*
X115163255Y-82468992D01*
X114990001Y-82451928D01*
X114339999Y-82451928D01*
X114166745Y-82468992D01*
X114000149Y-82519528D01*
X113846613Y-82601595D01*
X113712038Y-82712038D01*
X113601595Y-82846613D01*
X113519528Y-83000149D01*
X113468992Y-83166745D01*
X113451928Y-83339999D01*
X113451928Y-84240001D01*
X113468992Y-84413255D01*
X113519528Y-84579851D01*
X113601595Y-84733387D01*
X113712038Y-84867962D01*
X113846613Y-84978405D01*
X113905001Y-85009614D01*
X113905001Y-85092786D01*
X113869488Y-85136058D01*
X113788577Y-85287433D01*
X113738752Y-85451684D01*
X113721928Y-85622500D01*
X113721928Y-86097500D01*
X113738752Y-86268316D01*
X113788577Y-86432567D01*
X113869488Y-86583942D01*
X113978377Y-86716623D01*
X114111058Y-86825512D01*
X114262433Y-86906423D01*
X114426684Y-86956248D01*
X114597500Y-86973072D01*
X115097500Y-86973072D01*
X115268316Y-86956248D01*
X115432567Y-86906423D01*
X115583942Y-86825512D01*
X115716623Y-86716623D01*
X115760000Y-86663768D01*
X115803377Y-86716623D01*
X115936058Y-86825512D01*
X116087433Y-86906423D01*
X116251684Y-86956248D01*
X116422500Y-86973072D01*
X116922500Y-86973072D01*
X117093316Y-86956248D01*
X117257567Y-86906423D01*
X117408942Y-86825512D01*
X117465100Y-86779424D01*
X117648102Y-86855226D01*
X117848061Y-86895000D01*
X118051939Y-86895000D01*
X118251898Y-86855226D01*
X118440256Y-86777205D01*
X118609774Y-86663937D01*
X118753937Y-86519774D01*
X118867205Y-86350256D01*
X118945226Y-86161898D01*
X118985000Y-85961939D01*
X118985000Y-85758061D01*
X118945226Y-85558102D01*
X118912740Y-85479675D01*
X118934822Y-85477500D01*
X119173822Y-85477500D01*
X119263377Y-85586623D01*
X119316232Y-85630000D01*
X119263377Y-85673377D01*
X119154488Y-85806058D01*
X119073577Y-85957433D01*
X119023752Y-86121684D01*
X119006928Y-86292500D01*
X119006928Y-86792500D01*
X119023752Y-86963316D01*
X119073577Y-87127567D01*
X119154488Y-87278942D01*
X119263377Y-87411623D01*
X119360000Y-87490920D01*
X119360001Y-94284638D01*
X119302994Y-93998048D01*
X119044057Y-93372918D01*
X118668138Y-92810315D01*
X118189685Y-92331862D01*
X117627082Y-91955943D01*
X117001952Y-91697006D01*
X116338318Y-91565000D01*
X115661682Y-91565000D01*
X114998048Y-91697006D01*
X114372918Y-91955943D01*
X113810315Y-92331862D01*
X113331862Y-92810315D01*
X112955943Y-93372918D01*
X112697006Y-93998048D01*
X112565000Y-94661682D01*
X112565000Y-95338318D01*
X112697006Y-96001952D01*
X112955943Y-96627082D01*
X113331862Y-97189685D01*
X113810315Y-97668138D01*
X114372918Y-98044057D01*
X114998048Y-98302994D01*
X115661682Y-98435000D01*
X116338318Y-98435000D01*
X117001952Y-98302994D01*
X117627082Y-98044057D01*
X118189685Y-97668138D01*
X118668138Y-97189685D01*
X119044057Y-96627082D01*
X119302994Y-96001952D01*
X119360001Y-95715362D01*
X119360001Y-97912668D01*
X119356324Y-97950000D01*
X119360001Y-97987333D01*
X119370998Y-98098986D01*
X119371294Y-98099961D01*
X119414454Y-98242246D01*
X119485026Y-98374276D01*
X119537653Y-98438402D01*
X115032167Y-98439989D01*
X114526683Y-98390426D01*
X114071395Y-98252967D01*
X113651478Y-98029693D01*
X113282924Y-97729107D01*
X112979772Y-97362659D01*
X112753572Y-96944312D01*
X112612936Y-96489991D01*
X112559981Y-95986151D01*
X112500952Y-53661682D01*
X112565000Y-53661682D01*
X112565000Y-54338318D01*
X112697006Y-55001952D01*
X112955943Y-55627082D01*
X113331862Y-56189685D01*
X113810315Y-56668138D01*
X114372918Y-57044057D01*
X114998048Y-57302994D01*
X115661682Y-57435000D01*
X116338318Y-57435000D01*
X117001952Y-57302994D01*
X117330001Y-57167112D01*
X117330001Y-58571823D01*
X117238254Y-58543992D01*
X117065000Y-58526928D01*
X116140000Y-58526928D01*
X115966746Y-58543992D01*
X115800150Y-58594528D01*
X115646614Y-58676595D01*
X115512038Y-58787038D01*
X115401595Y-58921614D01*
X115319528Y-59075150D01*
X115268992Y-59241746D01*
X115251928Y-59415000D01*
X115251928Y-60665000D01*
X115268992Y-60838254D01*
X115319528Y-61004850D01*
X115401595Y-61158386D01*
X115512038Y-61292962D01*
X115646614Y-61403405D01*
X115800150Y-61485472D01*
X115966746Y-61536008D01*
X116140000Y-61553072D01*
X116177960Y-61553072D01*
X116224688Y-61599722D01*
X116219488Y-61606058D01*
X116138577Y-61757433D01*
X116088752Y-61921684D01*
X116071928Y-62092500D01*
X116071928Y-62567500D01*
X116088752Y-62738316D01*
X116138577Y-62902567D01*
X116219488Y-63053942D01*
X116328377Y-63186623D01*
X116461058Y-63295512D01*
X116612433Y-63376423D01*
X116776684Y-63426248D01*
X116947500Y-63443072D01*
X117447500Y-63443072D01*
X117618316Y-63426248D01*
X117782567Y-63376423D01*
X117933942Y-63295512D01*
X118066623Y-63186623D01*
X118110000Y-63133768D01*
X118153377Y-63186623D01*
X118286058Y-63295512D01*
X118437433Y-63376423D01*
X118601684Y-63426248D01*
X118772500Y-63443072D01*
X119272500Y-63443072D01*
X119443316Y-63426248D01*
X119607567Y-63376423D01*
X119758942Y-63295512D01*
X119891623Y-63186623D01*
X120000512Y-63053942D01*
X120081423Y-62902567D01*
X120131248Y-62738316D01*
X120148072Y-62567500D01*
X120148072Y-62092500D01*
X120131248Y-61921684D01*
X120081423Y-61757433D01*
X120000512Y-61606058D01*
X119955048Y-61550661D01*
X120290000Y-61553072D01*
X120414482Y-61540812D01*
X120534180Y-61504502D01*
X120644494Y-61445537D01*
X120741185Y-61366185D01*
X120820537Y-61269494D01*
X120879502Y-61159180D01*
X120915812Y-61039482D01*
X120928072Y-60915000D01*
X120925000Y-60325750D01*
X120766250Y-60167000D01*
X119704500Y-60167000D01*
X119704500Y-60187000D01*
X119450500Y-60187000D01*
X119450500Y-60167000D01*
X119430500Y-60167000D01*
X119430500Y-59913000D01*
X119450500Y-59913000D01*
X119450500Y-58688750D01*
X119704500Y-58688750D01*
X119704500Y-59913000D01*
X120766250Y-59913000D01*
X120925000Y-59754250D01*
X120928072Y-59165000D01*
X120915812Y-59040518D01*
X120879502Y-58920820D01*
X120820537Y-58810506D01*
X120741185Y-58713815D01*
X120644494Y-58634463D01*
X120534180Y-58575498D01*
X120414482Y-58539188D01*
X120290000Y-58526928D01*
X119863250Y-58530000D01*
X119704500Y-58688750D01*
X119450500Y-58688750D01*
X119291750Y-58530000D01*
X118865000Y-58526928D01*
X118850000Y-58528405D01*
X118850000Y-56127322D01*
X118853676Y-56089999D01*
X118850000Y-56052676D01*
X118850000Y-56052667D01*
X118839003Y-55941014D01*
X118837533Y-55936167D01*
X118862994Y-55898061D01*
X124215000Y-55898061D01*
X124215000Y-56101939D01*
X124254774Y-56301898D01*
X124332795Y-56490256D01*
X124446063Y-56659774D01*
X124590226Y-56803937D01*
X124759744Y-56917205D01*
X124948102Y-56995226D01*
X125148061Y-57035000D01*
X125351939Y-57035000D01*
X125551898Y-56995226D01*
X125740256Y-56917205D01*
X125909774Y-56803937D01*
X126053937Y-56659774D01*
X126167205Y-56490256D01*
X126245226Y-56301898D01*
X126285000Y-56101939D01*
X126285000Y-55898061D01*
X126245226Y-55698102D01*
X126167205Y-55509744D01*
X126053937Y-55340226D01*
X125909774Y-55196063D01*
X125740256Y-55082795D01*
X125551898Y-55004774D01*
X125351939Y-54965000D01*
X125148061Y-54965000D01*
X124948102Y-55004774D01*
X124759744Y-55082795D01*
X124590226Y-55196063D01*
X124446063Y-55340226D01*
X124332795Y-55509744D01*
X124254774Y-55698102D01*
X124215000Y-55898061D01*
X118862994Y-55898061D01*
X119044057Y-55627082D01*
X119302994Y-55001952D01*
X119435000Y-54338318D01*
X119435000Y-53661682D01*
X119302994Y-52998048D01*
X119044057Y-52372918D01*
X118668138Y-51810315D01*
X118189685Y-51331862D01*
X117627082Y-50955943D01*
X117001952Y-50697006D01*
X116338318Y-50565000D01*
X115661682Y-50565000D01*
X114998048Y-50697006D01*
X114372918Y-50955943D01*
X113810315Y-51331862D01*
X113331862Y-51810315D01*
X112955943Y-52372918D01*
X112697006Y-52998048D01*
X112565000Y-53661682D01*
X112500952Y-53661682D01*
X112500045Y-53011821D01*
X112549574Y-52506684D01*
X112687035Y-52051392D01*
X112910308Y-51631477D01*
X113210893Y-51262924D01*
X113577338Y-50959773D01*
X113995690Y-50733571D01*
X114450008Y-50592936D01*
X114953674Y-50540000D01*
X134583661Y-50540000D01*
X134577400Y-50603568D01*
%TA.AperFunction,Conductor*%
D27*
G36*
X134577400Y-50603568D02*
G01*
X134577400Y-50603578D01*
X134573724Y-50640900D01*
X134577400Y-50678222D01*
X134577401Y-58523200D01*
X133543711Y-58523200D01*
X133499774Y-58479263D01*
X133330256Y-58365995D01*
X133141898Y-58287974D01*
X132941939Y-58248200D01*
X132738061Y-58248200D01*
X132538102Y-58287974D01*
X132349744Y-58365995D01*
X132180226Y-58479263D01*
X132036063Y-58623426D01*
X131922795Y-58792944D01*
X131844774Y-58981302D01*
X131805000Y-59181261D01*
X131805000Y-59385139D01*
X131844774Y-59585098D01*
X131922795Y-59773456D01*
X132036063Y-59942974D01*
X132180226Y-60087137D01*
X132349744Y-60200405D01*
X132538102Y-60278426D01*
X132738061Y-60318200D01*
X132941939Y-60318200D01*
X133141898Y-60278426D01*
X133330256Y-60200405D01*
X133499774Y-60087137D01*
X133543711Y-60043200D01*
X135009478Y-60043200D01*
X135046800Y-60046876D01*
X135081928Y-60043416D01*
X135081928Y-61240000D01*
X135094188Y-61364482D01*
X135130498Y-61484180D01*
X135189463Y-61594494D01*
X135268815Y-61691185D01*
X135365506Y-61770537D01*
X135475820Y-61829502D01*
X135485871Y-61832551D01*
X135044956Y-62273466D01*
X135011183Y-62301183D01*
X134900589Y-62435942D01*
X134818411Y-62589688D01*
X134791659Y-62677876D01*
X134769102Y-62752237D01*
X134767805Y-62756511D01*
X134755000Y-62886524D01*
X134755000Y-62886531D01*
X134750719Y-62930000D01*
X134755000Y-62973470D01*
X134755001Y-63853822D01*
X134750719Y-63897300D01*
X134767805Y-64070790D01*
X134818412Y-64237613D01*
X134886688Y-64365350D01*
X134879468Y-64438655D01*
X133544915Y-65773500D01*
X133511183Y-65801183D01*
X133483440Y-65834988D01*
X133483403Y-65835025D01*
X133456831Y-65867411D01*
X133400589Y-65935942D01*
X133400565Y-65935986D01*
X133400536Y-65936022D01*
X133363174Y-66005941D01*
X133318411Y-66089688D01*
X133318397Y-66089736D01*
X133318375Y-66089776D01*
X133295349Y-66165712D01*
X133267805Y-66256511D01*
X133267800Y-66256562D01*
X133267787Y-66256605D01*
X133260376Y-66331939D01*
X133255000Y-66386524D01*
X133255000Y-66386581D01*
X133250719Y-66430096D01*
X133255000Y-66473517D01*
X133255000Y-66965000D01*
X128726579Y-66965000D01*
X128635000Y-66873422D01*
X128635000Y-64538454D01*
X128667205Y-64490256D01*
X128745226Y-64301898D01*
X128785000Y-64101939D01*
X128785000Y-63898061D01*
X128745226Y-63698102D01*
X128667205Y-63509744D01*
X128553937Y-63340226D01*
X128409774Y-63196063D01*
X128240256Y-63082795D01*
X128051898Y-63004774D01*
X127851939Y-62965000D01*
X127648061Y-62965000D01*
X127448102Y-63004774D01*
X127259744Y-63082795D01*
X127090226Y-63196063D01*
X126946063Y-63340226D01*
X126832795Y-63509744D01*
X126754774Y-63698102D01*
X126715000Y-63898061D01*
X126715000Y-64101939D01*
X126754774Y-64301898D01*
X126832795Y-64490256D01*
X126865001Y-64538456D01*
X126865000Y-67196531D01*
X126860719Y-67240000D01*
X126865000Y-67283469D01*
X126865000Y-67283476D01*
X126871657Y-67351062D01*
X126877805Y-67413490D01*
X126883618Y-67432653D01*
X126928411Y-67580312D01*
X127010589Y-67734058D01*
X127121183Y-67868817D01*
X127154956Y-67896534D01*
X127703470Y-68445049D01*
X127731183Y-68478817D01*
X127764951Y-68506530D01*
X127764953Y-68506532D01*
X127822381Y-68553662D01*
X127865941Y-68589411D01*
X128019687Y-68671589D01*
X128186510Y-68722195D01*
X128316523Y-68735000D01*
X128316533Y-68735000D01*
X128359999Y-68739281D01*
X128403465Y-68735000D01*
X133601546Y-68735000D01*
X133649744Y-68767205D01*
X133720476Y-68796503D01*
X133721302Y-68804890D01*
X133771127Y-68969141D01*
X133852038Y-69120516D01*
X133960927Y-69253197D01*
X134296803Y-69589073D01*
X134429484Y-69697962D01*
X134580859Y-69778873D01*
X134745110Y-69828698D01*
X134915926Y-69845522D01*
X135086742Y-69828698D01*
X135250993Y-69778873D01*
X135402368Y-69697962D01*
X135535049Y-69589073D01*
X135959313Y-69164809D01*
X136068202Y-69032128D01*
X136149113Y-68880753D01*
X136198498Y-68717951D01*
X136260167Y-68711877D01*
X136379865Y-68675568D01*
X136490180Y-68616604D01*
X136586871Y-68537251D01*
X136762713Y-68357064D01*
X136762713Y-68132558D01*
X136179880Y-67549725D01*
X136165738Y-67563868D01*
X135986133Y-67384263D01*
X136000275Y-67370120D01*
X136359485Y-67370120D01*
X136942318Y-67952953D01*
X137166824Y-67952953D01*
X137347011Y-67777111D01*
X137426364Y-67680420D01*
X137485328Y-67570105D01*
X137521637Y-67450407D01*
X137533898Y-67325926D01*
X137521637Y-67201445D01*
X137485328Y-67081746D01*
X137426364Y-66971432D01*
X137347011Y-66874741D01*
X137211018Y-66743093D01*
X136986512Y-66743093D01*
X136359485Y-67370120D01*
X136000275Y-67370120D01*
X135417442Y-66787287D01*
X135192936Y-66787287D01*
X135025000Y-66951173D01*
X135025000Y-66796522D01*
X135926243Y-65895083D01*
X135940218Y-65906552D01*
X136093754Y-65988619D01*
X136194090Y-66019055D01*
X136099593Y-66028363D01*
X135979895Y-66064672D01*
X135869580Y-66123636D01*
X135772889Y-66202989D01*
X135597047Y-66383176D01*
X135597047Y-66607682D01*
X136179880Y-67190515D01*
X136806907Y-66563488D01*
X136806907Y-66338982D01*
X136675259Y-66202989D01*
X136578568Y-66123636D01*
X136468254Y-66064672D01*
X136438725Y-66055715D01*
X136606858Y-66039155D01*
X136773454Y-65988619D01*
X136926990Y-65906552D01*
X137061566Y-65796109D01*
X137196982Y-65660693D01*
X137340226Y-65803937D01*
X137509744Y-65917205D01*
X137698102Y-65995226D01*
X137898061Y-66035000D01*
X137995399Y-66035000D01*
X137994818Y-66040901D01*
X138011904Y-66214391D01*
X138062511Y-66381214D01*
X138144689Y-66534960D01*
X138227567Y-66635947D01*
X138227570Y-66635950D01*
X138255283Y-66669718D01*
X138289051Y-66697431D01*
X138686664Y-67095044D01*
X138714381Y-67128817D01*
X138748063Y-67156459D01*
X138646733Y-67187197D01*
X138536419Y-67246162D01*
X138439728Y-67325514D01*
X137025514Y-68739728D01*
X136946162Y-68836419D01*
X136887197Y-68946733D01*
X136850887Y-69066431D01*
X136838627Y-69190913D01*
X136850887Y-69315395D01*
X136887197Y-69435093D01*
X136946162Y-69545407D01*
X137025514Y-69642098D01*
X138583266Y-71199850D01*
X138483102Y-71219774D01*
X138294744Y-71297795D01*
X138125226Y-71411063D01*
X137981063Y-71555226D01*
X137867795Y-71724744D01*
X137789774Y-71913102D01*
X137750000Y-72113061D01*
X137750000Y-72175199D01*
X137560199Y-72365000D01*
X134879694Y-72365000D01*
X134855472Y-72285150D01*
X134773405Y-72131614D01*
X134662962Y-71997038D01*
X134528386Y-71886595D01*
X134374850Y-71804528D01*
X134208254Y-71753992D01*
X134035000Y-71736928D01*
X132185000Y-71736928D01*
X132011746Y-71753992D01*
X131845150Y-71804528D01*
X131691614Y-71886595D01*
X131557038Y-71997038D01*
X131446595Y-72131614D01*
X131388661Y-72240000D01*
X130718469Y-72240000D01*
X130675000Y-72235719D01*
X130631531Y-72240000D01*
X130631523Y-72240000D01*
X130501510Y-72252805D01*
X130334687Y-72303411D01*
X130180941Y-72385589D01*
X130046183Y-72496183D01*
X130018466Y-72529956D01*
X129804956Y-72743466D01*
X129771183Y-72771183D01*
X129716416Y-72837916D01*
X129676058Y-72859488D01*
X129600956Y-72921123D01*
X129560537Y-72845506D01*
X129481185Y-72748815D01*
X129384494Y-72669463D01*
X129274180Y-72610498D01*
X129154482Y-72574188D01*
X129030000Y-72561928D01*
X128615750Y-72565000D01*
X128457000Y-72723750D01*
X128457000Y-73648000D01*
X128477000Y-73648000D01*
X128477000Y-73902000D01*
X128457000Y-73902000D01*
X128457000Y-73922000D01*
X128203000Y-73922000D01*
X128203000Y-73902000D01*
X128183000Y-73902000D01*
X128183000Y-73648000D01*
X128203000Y-73648000D01*
X128203000Y-72723750D01*
X128044250Y-72565000D01*
X127630000Y-72561928D01*
X127505518Y-72574188D01*
X127385820Y-72610498D01*
X127275506Y-72669463D01*
X127178815Y-72748815D01*
X127099463Y-72845506D01*
X127074078Y-72892998D01*
X126926252Y-72892998D01*
X127085000Y-72734250D01*
X127088072Y-72545000D01*
X127075812Y-72420518D01*
X127039502Y-72300820D01*
X126980537Y-72190506D01*
X126901185Y-72093815D01*
X126804494Y-72014463D01*
X126694180Y-71955498D01*
X126574482Y-71919188D01*
X126450000Y-71906928D01*
X126248250Y-71910000D01*
X126089500Y-72068750D01*
X126089500Y-72893000D01*
X126109500Y-72893000D01*
X126109500Y-73147000D01*
X126089500Y-73147000D01*
X126089500Y-73971250D01*
X126248250Y-74130000D01*
X126450000Y-74133072D01*
X126574482Y-74120812D01*
X126694180Y-74084502D01*
X126804494Y-74025537D01*
X126901185Y-73946185D01*
X126980537Y-73849494D01*
X126995000Y-73822436D01*
X126995000Y-73902002D01*
X127153748Y-73902002D01*
X126995000Y-74060750D01*
X126991928Y-74350000D01*
X127004188Y-74474482D01*
X127040498Y-74594180D01*
X127099463Y-74704494D01*
X127178815Y-74801185D01*
X127258594Y-74866658D01*
X127252038Y-74872038D01*
X127141595Y-75006613D01*
X127059528Y-75160149D01*
X127008992Y-75326745D01*
X126991928Y-75499999D01*
X126991928Y-76150001D01*
X127008992Y-76323255D01*
X127059528Y-76489851D01*
X127141595Y-76643387D01*
X127252038Y-76777962D01*
X127386613Y-76888405D01*
X127540149Y-76970472D01*
X127706745Y-77021008D01*
X127879999Y-77038072D01*
X128780001Y-77038072D01*
X128953255Y-77021008D01*
X129119851Y-76970472D01*
X129273387Y-76888405D01*
X129407962Y-76777962D01*
X129518405Y-76643387D01*
X129567543Y-76551456D01*
X129676058Y-76640512D01*
X129827433Y-76721423D01*
X129991684Y-76771248D01*
X130162500Y-76788072D01*
X130216493Y-76788072D01*
X130266085Y-76837663D01*
X130108844Y-76902795D01*
X129939326Y-77016063D01*
X129795163Y-77160226D01*
X129681895Y-77329744D01*
X129603874Y-77518102D01*
X129564100Y-77718061D01*
X129564100Y-77921939D01*
X129603874Y-78121898D01*
X129681895Y-78310256D01*
X129728496Y-78380000D01*
X126518072Y-78380000D01*
X126518072Y-77850000D01*
X126505812Y-77725518D01*
X126469502Y-77605820D01*
X126410537Y-77495506D01*
X126331185Y-77398815D01*
X126234494Y-77319463D01*
X126124180Y-77260498D01*
X126004482Y-77224188D01*
X125880000Y-77211928D01*
X125790000Y-77211928D01*
X125790000Y-76807322D01*
X125793676Y-76769999D01*
X125790000Y-76732676D01*
X125790000Y-76732667D01*
X125779003Y-76621014D01*
X125735546Y-76477753D01*
X125664974Y-76345724D01*
X125570001Y-76229999D01*
X125541004Y-76206202D01*
X124393804Y-75059003D01*
X124370001Y-75029999D01*
X124254276Y-74935026D01*
X124122247Y-74864454D01*
X123978986Y-74820997D01*
X123867333Y-74810000D01*
X123867322Y-74810000D01*
X123830000Y-74806324D01*
X123792678Y-74810000D01*
X123330920Y-74810000D01*
X123251623Y-74713377D01*
X123118942Y-74604488D01*
X123092000Y-74590087D01*
X123092000Y-73780000D01*
X123189080Y-73780000D01*
X123268377Y-73876623D01*
X123401058Y-73985512D01*
X123552433Y-74066423D01*
X123716684Y-74116248D01*
X123887500Y-74133072D01*
X124387500Y-74133072D01*
X124558316Y-74116248D01*
X124722567Y-74066423D01*
X124873942Y-73985512D01*
X124982783Y-73896188D01*
X125023815Y-73946185D01*
X125120506Y-74025537D01*
X125230820Y-74084502D01*
X125350518Y-74120812D01*
X125475000Y-74133072D01*
X125676750Y-74130000D01*
X125835500Y-73971250D01*
X125835500Y-73147000D01*
X125815500Y-73147000D01*
X125815500Y-72893000D01*
X125835500Y-72893000D01*
X125835500Y-72068750D01*
X125676750Y-71910000D01*
X125475000Y-71906928D01*
X125350518Y-71919188D01*
X125230820Y-71955498D01*
X125120506Y-72014463D01*
X125023815Y-72093815D01*
X124982783Y-72143812D01*
X124873942Y-72054488D01*
X124722567Y-71973577D01*
X124558316Y-71923752D01*
X124387500Y-71906928D01*
X123887500Y-71906928D01*
X123716684Y-71923752D01*
X123552433Y-71973577D01*
X123401058Y-72054488D01*
X123268377Y-72163377D01*
X123189080Y-72260000D01*
X122737584Y-72260000D01*
X122700519Y-72256324D01*
X122662935Y-72260000D01*
X122662667Y-72260000D01*
X122624358Y-72263773D01*
X122551523Y-72270897D01*
X122551279Y-72270971D01*
X122551014Y-72270997D01*
X122478533Y-72292983D01*
X122408233Y-72314256D01*
X122408005Y-72314377D01*
X122407753Y-72314454D01*
X122341349Y-72349948D01*
X122276156Y-72384738D01*
X122275956Y-72384902D01*
X122275724Y-72385026D01*
X122217461Y-72432841D01*
X122189381Y-72455854D01*
X122189202Y-72456033D01*
X122159999Y-72479999D01*
X122136361Y-72508802D01*
X121821201Y-72823533D01*
X121791999Y-72847499D01*
X121744533Y-72905337D01*
X121697315Y-72962793D01*
X121697192Y-72963023D01*
X121697026Y-72963225D01*
X121661826Y-73029079D01*
X121626653Y-73094774D01*
X121626577Y-73095024D01*
X121626454Y-73095254D01*
X121604734Y-73166857D01*
X121583099Y-73238005D01*
X121583073Y-73238263D01*
X121582997Y-73238515D01*
X121575688Y-73312727D01*
X121568324Y-73386981D01*
X121572000Y-73424565D01*
X121572001Y-74590622D01*
X121546058Y-74604488D01*
X121470000Y-74666907D01*
X121393942Y-74604488D01*
X121242567Y-74523577D01*
X121078316Y-74473752D01*
X120907500Y-74456928D01*
X120307500Y-74456928D01*
X120136684Y-74473752D01*
X119972433Y-74523577D01*
X119821058Y-74604488D01*
X119722954Y-74685000D01*
X119403465Y-74685000D01*
X119359999Y-74680719D01*
X119316533Y-74685000D01*
X119316523Y-74685000D01*
X119186510Y-74697805D01*
X119019687Y-74748411D01*
X118865941Y-74830589D01*
X118850620Y-74843163D01*
X118764953Y-74913468D01*
X118764951Y-74913470D01*
X118731183Y-74941183D01*
X118703470Y-74974951D01*
X117934956Y-75743466D01*
X117901183Y-75771183D01*
X117790589Y-75905942D01*
X117708411Y-76059688D01*
X117679471Y-76155089D01*
X117618817Y-76081183D01*
X117585044Y-76053466D01*
X117386534Y-75854956D01*
X117358817Y-75821183D01*
X117224059Y-75710589D01*
X117070313Y-75628411D01*
X116903490Y-75577805D01*
X116895812Y-75577049D01*
X116885812Y-75475518D01*
X116849502Y-75355820D01*
X116790537Y-75245506D01*
X116711185Y-75148815D01*
X116614494Y-75069463D01*
X116504180Y-75010498D01*
X116384482Y-74974188D01*
X116260000Y-74961928D01*
X114560000Y-74961928D01*
X114435518Y-74974188D01*
X114315820Y-75010498D01*
X114205506Y-75069463D01*
X114108815Y-75148815D01*
X114029463Y-75245506D01*
X113970498Y-75355820D01*
X113934188Y-75475518D01*
X113921928Y-75600000D01*
X113921928Y-77300000D01*
X113934188Y-77424482D01*
X113970498Y-77544180D01*
X114029463Y-77654494D01*
X114108815Y-77751185D01*
X114205506Y-77830537D01*
X114315820Y-77889502D01*
X114388380Y-77911513D01*
X114256525Y-78043368D01*
X114094010Y-78286589D01*
X113982068Y-78556842D01*
X113925000Y-78843740D01*
X113925000Y-79136260D01*
X113982068Y-79423158D01*
X114094010Y-79693411D01*
X114256525Y-79936632D01*
X114463368Y-80143475D01*
X114706589Y-80305990D01*
X114976842Y-80417932D01*
X115263740Y-80475000D01*
X115556260Y-80475000D01*
X115843158Y-80417932D01*
X116113411Y-80305990D01*
X116356632Y-80143475D01*
X116563475Y-79936632D01*
X116725990Y-79693411D01*
X116837932Y-79423158D01*
X116841266Y-79406398D01*
X116869687Y-79421589D01*
X116997682Y-79460416D01*
X117036509Y-79472195D01*
X117051306Y-79473652D01*
X117054134Y-79473931D01*
X117054188Y-79474482D01*
X117090498Y-79594180D01*
X117149463Y-79704494D01*
X117228815Y-79801185D01*
X117325506Y-79880537D01*
X117435820Y-79939502D01*
X117555518Y-79975812D01*
X117680000Y-79988072D01*
X119380000Y-79988072D01*
X119504482Y-79975812D01*
X119624180Y-79939502D01*
X119734494Y-79880537D01*
X119831185Y-79801185D01*
X119910537Y-79704494D01*
X119969502Y-79594180D01*
X120002621Y-79485000D01*
X121076531Y-79485000D01*
X121120000Y-79489281D01*
X121163469Y-79485000D01*
X121163477Y-79485000D01*
X121293490Y-79472195D01*
X121460313Y-79421589D01*
X121614059Y-79339411D01*
X121748817Y-79228817D01*
X121776534Y-79195044D01*
X121915043Y-79056535D01*
X121971898Y-79045226D01*
X122160256Y-78967205D01*
X122329774Y-78853937D01*
X122473937Y-78709774D01*
X122587205Y-78540256D01*
X122665226Y-78351898D01*
X122705000Y-78151939D01*
X122705000Y-77948061D01*
X122665226Y-77748102D01*
X122587205Y-77559744D01*
X122473937Y-77390226D01*
X122329774Y-77246063D01*
X122160256Y-77132795D01*
X121971898Y-77054774D01*
X121771939Y-77015000D01*
X121568061Y-77015000D01*
X121368102Y-77054774D01*
X121179744Y-77132795D01*
X121010226Y-77246063D01*
X120866063Y-77390226D01*
X120752795Y-77559744D01*
X120688485Y-77715000D01*
X120002621Y-77715000D01*
X119969502Y-77605820D01*
X119910537Y-77495506D01*
X119831185Y-77398815D01*
X119734494Y-77319463D01*
X119624180Y-77260498D01*
X119504482Y-77224188D01*
X119415000Y-77215375D01*
X119415000Y-76766578D01*
X119724945Y-76456634D01*
X119821058Y-76535512D01*
X119972433Y-76616423D01*
X120136684Y-76666248D01*
X120307500Y-76683072D01*
X120907500Y-76683072D01*
X121078316Y-76666248D01*
X121242567Y-76616423D01*
X121393942Y-76535512D01*
X121470000Y-76473093D01*
X121546058Y-76535512D01*
X121697433Y-76616423D01*
X121861684Y-76666248D01*
X122032500Y-76683072D01*
X122632500Y-76683072D01*
X122803316Y-76666248D01*
X122967567Y-76616423D01*
X123118942Y-76535512D01*
X123251623Y-76426623D01*
X123330920Y-76330000D01*
X123515199Y-76330000D01*
X124270000Y-77084802D01*
X124270000Y-77211928D01*
X124180000Y-77211928D01*
X124055518Y-77224188D01*
X123935820Y-77260498D01*
X123825506Y-77319463D01*
X123728815Y-77398815D01*
X123649463Y-77495506D01*
X123590498Y-77605820D01*
X123554188Y-77725518D01*
X123541928Y-77850000D01*
X123541928Y-79350000D01*
X123554188Y-79474482D01*
X123590498Y-79594180D01*
X123649463Y-79704494D01*
X123728815Y-79801185D01*
X123825506Y-79880537D01*
X123935820Y-79939502D01*
X123991396Y-79956361D01*
X123873224Y-80019526D01*
X123757499Y-80114499D01*
X123733701Y-80143497D01*
X122808998Y-81068201D01*
X122780000Y-81091999D01*
X122756202Y-81120997D01*
X122756201Y-81120998D01*
X122685026Y-81207724D01*
X122614454Y-81339754D01*
X122585207Y-81436173D01*
X122570998Y-81483014D01*
X122565456Y-81539282D01*
X122556324Y-81632000D01*
X122560001Y-81669332D01*
X122560000Y-93432678D01*
X122556324Y-93470000D01*
X122560000Y-93507322D01*
X122560000Y-93507332D01*
X122570997Y-93618985D01*
X122610243Y-93748363D01*
X122614454Y-93762246D01*
X122685026Y-93894276D01*
X122703844Y-93917205D01*
X122779999Y-94010001D01*
X122809002Y-94033804D01*
X123838501Y-95063303D01*
X123862299Y-95092301D01*
X123978024Y-95187274D01*
X124110053Y-95257846D01*
X124246705Y-95299298D01*
X124234774Y-95328102D01*
X124195000Y-95528061D01*
X124195000Y-95731939D01*
X124234774Y-95931898D01*
X124312795Y-96120256D01*
X124426063Y-96289774D01*
X124540001Y-96403712D01*
X124540000Y-97770000D01*
X121014802Y-97770000D01*
X120880000Y-97635199D01*
X120880000Y-87490920D01*
X120976623Y-87411623D01*
X121085512Y-87278942D01*
X121166423Y-87127567D01*
X121216248Y-86963316D01*
X121233072Y-86792500D01*
X121233072Y-86292500D01*
X121216248Y-86121684D01*
X121166423Y-85957433D01*
X121085512Y-85806058D01*
X120976623Y-85673377D01*
X120923768Y-85630000D01*
X120976623Y-85586623D01*
X121085512Y-85453942D01*
X121166423Y-85302567D01*
X121216248Y-85138316D01*
X121233072Y-84967500D01*
X121233072Y-84467500D01*
X121216248Y-84296684D01*
X121166423Y-84132433D01*
X121085512Y-83981058D01*
X120976623Y-83848377D01*
X120843942Y-83739488D01*
X120692567Y-83658577D01*
X120528316Y-83608752D01*
X120357500Y-83591928D01*
X119882500Y-83591928D01*
X119711684Y-83608752D01*
X119547433Y-83658577D01*
X119396058Y-83739488D01*
X119263377Y-83848377D01*
X119191167Y-83936365D01*
X118533803Y-83279002D01*
X118510001Y-83249999D01*
X118394276Y-83155026D01*
X118262247Y-83084454D01*
X118118986Y-83040997D01*
X118007333Y-83030000D01*
X118007322Y-83030000D01*
X117970000Y-83026324D01*
X117932678Y-83030000D01*
X117869527Y-83030000D01*
X117860472Y-83000149D01*
X117778405Y-82846613D01*
X117667962Y-82712038D01*
X117533387Y-82601595D01*
X117379851Y-82519528D01*
X117213255Y-82468992D01*
X117040001Y-82451928D01*
X116389999Y-82451928D01*
X116216745Y-82468992D01*
X116050149Y-82519528D01*
X115896613Y-82601595D01*
X115762038Y-82712038D01*
X115690000Y-82799816D01*
X115617962Y-82712038D01*
X115483387Y-82601595D01*
X115329851Y-82519528D01*
X115163255Y-82468992D01*
X114990001Y-82451928D01*
X114339999Y-82451928D01*
X114166745Y-82468992D01*
X114000149Y-82519528D01*
X113846613Y-82601595D01*
X113712038Y-82712038D01*
X113601595Y-82846613D01*
X113519528Y-83000149D01*
X113468992Y-83166745D01*
X113451928Y-83339999D01*
X113451928Y-84240001D01*
X113468992Y-84413255D01*
X113519528Y-84579851D01*
X113601595Y-84733387D01*
X113712038Y-84867962D01*
X113846613Y-84978405D01*
X113905001Y-85009614D01*
X113905001Y-85092786D01*
X113869488Y-85136058D01*
X113788577Y-85287433D01*
X113738752Y-85451684D01*
X113721928Y-85622500D01*
X113721928Y-86097500D01*
X113738752Y-86268316D01*
X113788577Y-86432567D01*
X113869488Y-86583942D01*
X113978377Y-86716623D01*
X114111058Y-86825512D01*
X114262433Y-86906423D01*
X114426684Y-86956248D01*
X114597500Y-86973072D01*
X115097500Y-86973072D01*
X115268316Y-86956248D01*
X115432567Y-86906423D01*
X115583942Y-86825512D01*
X115716623Y-86716623D01*
X115760000Y-86663768D01*
X115803377Y-86716623D01*
X115936058Y-86825512D01*
X116087433Y-86906423D01*
X116251684Y-86956248D01*
X116422500Y-86973072D01*
X116922500Y-86973072D01*
X117093316Y-86956248D01*
X117257567Y-86906423D01*
X117408942Y-86825512D01*
X117465100Y-86779424D01*
X117648102Y-86855226D01*
X117848061Y-86895000D01*
X118051939Y-86895000D01*
X118251898Y-86855226D01*
X118440256Y-86777205D01*
X118609774Y-86663937D01*
X118753937Y-86519774D01*
X118867205Y-86350256D01*
X118945226Y-86161898D01*
X118985000Y-85961939D01*
X118985000Y-85758061D01*
X118945226Y-85558102D01*
X118912740Y-85479675D01*
X118934822Y-85477500D01*
X119173822Y-85477500D01*
X119263377Y-85586623D01*
X119316232Y-85630000D01*
X119263377Y-85673377D01*
X119154488Y-85806058D01*
X119073577Y-85957433D01*
X119023752Y-86121684D01*
X119006928Y-86292500D01*
X119006928Y-86792500D01*
X119023752Y-86963316D01*
X119073577Y-87127567D01*
X119154488Y-87278942D01*
X119263377Y-87411623D01*
X119360000Y-87490920D01*
X119360001Y-94284638D01*
X119302994Y-93998048D01*
X119044057Y-93372918D01*
X118668138Y-92810315D01*
X118189685Y-92331862D01*
X117627082Y-91955943D01*
X117001952Y-91697006D01*
X116338318Y-91565000D01*
X115661682Y-91565000D01*
X114998048Y-91697006D01*
X114372918Y-91955943D01*
X113810315Y-92331862D01*
X113331862Y-92810315D01*
X112955943Y-93372918D01*
X112697006Y-93998048D01*
X112565000Y-94661682D01*
X112565000Y-95338318D01*
X112697006Y-96001952D01*
X112955943Y-96627082D01*
X113331862Y-97189685D01*
X113810315Y-97668138D01*
X114372918Y-98044057D01*
X114998048Y-98302994D01*
X115661682Y-98435000D01*
X116338318Y-98435000D01*
X117001952Y-98302994D01*
X117627082Y-98044057D01*
X118189685Y-97668138D01*
X118668138Y-97189685D01*
X119044057Y-96627082D01*
X119302994Y-96001952D01*
X119360001Y-95715362D01*
X119360001Y-97912668D01*
X119356324Y-97950000D01*
X119360001Y-97987333D01*
X119370998Y-98098986D01*
X119371294Y-98099961D01*
X119414454Y-98242246D01*
X119485026Y-98374276D01*
X119537653Y-98438402D01*
X115032167Y-98439989D01*
X114526683Y-98390426D01*
X114071395Y-98252967D01*
X113651478Y-98029693D01*
X113282924Y-97729107D01*
X112979772Y-97362659D01*
X112753572Y-96944312D01*
X112612936Y-96489991D01*
X112559981Y-95986151D01*
X112500952Y-53661682D01*
X112565000Y-53661682D01*
X112565000Y-54338318D01*
X112697006Y-55001952D01*
X112955943Y-55627082D01*
X113331862Y-56189685D01*
X113810315Y-56668138D01*
X114372918Y-57044057D01*
X114998048Y-57302994D01*
X115661682Y-57435000D01*
X116338318Y-57435000D01*
X117001952Y-57302994D01*
X117330001Y-57167112D01*
X117330001Y-58571823D01*
X117238254Y-58543992D01*
X117065000Y-58526928D01*
X116140000Y-58526928D01*
X115966746Y-58543992D01*
X115800150Y-58594528D01*
X115646614Y-58676595D01*
X115512038Y-58787038D01*
X115401595Y-58921614D01*
X115319528Y-59075150D01*
X115268992Y-59241746D01*
X115251928Y-59415000D01*
X115251928Y-60665000D01*
X115268992Y-60838254D01*
X115319528Y-61004850D01*
X115401595Y-61158386D01*
X115512038Y-61292962D01*
X115646614Y-61403405D01*
X115800150Y-61485472D01*
X115966746Y-61536008D01*
X116140000Y-61553072D01*
X116177960Y-61553072D01*
X116224688Y-61599722D01*
X116219488Y-61606058D01*
X116138577Y-61757433D01*
X116088752Y-61921684D01*
X116071928Y-62092500D01*
X116071928Y-62567500D01*
X116088752Y-62738316D01*
X116138577Y-62902567D01*
X116219488Y-63053942D01*
X116328377Y-63186623D01*
X116461058Y-63295512D01*
X116612433Y-63376423D01*
X116776684Y-63426248D01*
X116947500Y-63443072D01*
X117447500Y-63443072D01*
X117618316Y-63426248D01*
X117782567Y-63376423D01*
X117933942Y-63295512D01*
X118066623Y-63186623D01*
X118110000Y-63133768D01*
X118153377Y-63186623D01*
X118286058Y-63295512D01*
X118437433Y-63376423D01*
X118601684Y-63426248D01*
X118772500Y-63443072D01*
X119272500Y-63443072D01*
X119443316Y-63426248D01*
X119607567Y-63376423D01*
X119758942Y-63295512D01*
X119891623Y-63186623D01*
X120000512Y-63053942D01*
X120081423Y-62902567D01*
X120131248Y-62738316D01*
X120148072Y-62567500D01*
X120148072Y-62092500D01*
X120131248Y-61921684D01*
X120081423Y-61757433D01*
X120000512Y-61606058D01*
X119955048Y-61550661D01*
X120290000Y-61553072D01*
X120414482Y-61540812D01*
X120534180Y-61504502D01*
X120644494Y-61445537D01*
X120741185Y-61366185D01*
X120820537Y-61269494D01*
X120879502Y-61159180D01*
X120915812Y-61039482D01*
X120928072Y-60915000D01*
X120925000Y-60325750D01*
X120766250Y-60167000D01*
X119704500Y-60167000D01*
X119704500Y-60187000D01*
X119450500Y-60187000D01*
X119450500Y-60167000D01*
X119430500Y-60167000D01*
X119430500Y-59913000D01*
X119450500Y-59913000D01*
X119450500Y-58688750D01*
X119704500Y-58688750D01*
X119704500Y-59913000D01*
X120766250Y-59913000D01*
X120925000Y-59754250D01*
X120928072Y-59165000D01*
X120915812Y-59040518D01*
X120879502Y-58920820D01*
X120820537Y-58810506D01*
X120741185Y-58713815D01*
X120644494Y-58634463D01*
X120534180Y-58575498D01*
X120414482Y-58539188D01*
X120290000Y-58526928D01*
X119863250Y-58530000D01*
X119704500Y-58688750D01*
X119450500Y-58688750D01*
X119291750Y-58530000D01*
X118865000Y-58526928D01*
X118850000Y-58528405D01*
X118850000Y-56127322D01*
X118853676Y-56089999D01*
X118850000Y-56052676D01*
X118850000Y-56052667D01*
X118839003Y-55941014D01*
X118837533Y-55936167D01*
X118862994Y-55898061D01*
X124215000Y-55898061D01*
X124215000Y-56101939D01*
X124254774Y-56301898D01*
X124332795Y-56490256D01*
X124446063Y-56659774D01*
X124590226Y-56803937D01*
X124759744Y-56917205D01*
X124948102Y-56995226D01*
X125148061Y-57035000D01*
X125351939Y-57035000D01*
X125551898Y-56995226D01*
X125740256Y-56917205D01*
X125909774Y-56803937D01*
X126053937Y-56659774D01*
X126167205Y-56490256D01*
X126245226Y-56301898D01*
X126285000Y-56101939D01*
X126285000Y-55898061D01*
X126245226Y-55698102D01*
X126167205Y-55509744D01*
X126053937Y-55340226D01*
X125909774Y-55196063D01*
X125740256Y-55082795D01*
X125551898Y-55004774D01*
X125351939Y-54965000D01*
X125148061Y-54965000D01*
X124948102Y-55004774D01*
X124759744Y-55082795D01*
X124590226Y-55196063D01*
X124446063Y-55340226D01*
X124332795Y-55509744D01*
X124254774Y-55698102D01*
X124215000Y-55898061D01*
X118862994Y-55898061D01*
X119044057Y-55627082D01*
X119302994Y-55001952D01*
X119435000Y-54338318D01*
X119435000Y-53661682D01*
X119302994Y-52998048D01*
X119044057Y-52372918D01*
X118668138Y-51810315D01*
X118189685Y-51331862D01*
X117627082Y-50955943D01*
X117001952Y-50697006D01*
X116338318Y-50565000D01*
X115661682Y-50565000D01*
X114998048Y-50697006D01*
X114372918Y-50955943D01*
X113810315Y-51331862D01*
X113331862Y-51810315D01*
X112955943Y-52372918D01*
X112697006Y-52998048D01*
X112565000Y-53661682D01*
X112500952Y-53661682D01*
X112500045Y-53011821D01*
X112549574Y-52506684D01*
X112687035Y-52051392D01*
X112910308Y-51631477D01*
X113210893Y-51262924D01*
X113577338Y-50959773D01*
X113995690Y-50733571D01*
X114450008Y-50592936D01*
X114953674Y-50540000D01*
X134583661Y-50540000D01*
X134577400Y-50603568D01*
G37*
%TD.AperFunction*%
D26*
X149890601Y-72456168D02*
X149886924Y-72493500D01*
X149890601Y-72530833D01*
X149901598Y-72642486D01*
X149907843Y-72663072D01*
X149945054Y-72785746D01*
X150015626Y-72917776D01*
X150082287Y-72999002D01*
X150110600Y-73033501D01*
X150139598Y-73057299D01*
X151122000Y-74039702D01*
X151122001Y-74977788D01*
X151078063Y-75021726D01*
X150964795Y-75191244D01*
X150886774Y-75379602D01*
X150847000Y-75579561D01*
X150847000Y-75783439D01*
X150886774Y-75983398D01*
X150964795Y-76171756D01*
X151078063Y-76341274D01*
X151222226Y-76485437D01*
X151391744Y-76598705D01*
X151580102Y-76676726D01*
X151780061Y-76716500D01*
X151842199Y-76716500D01*
X152771900Y-77646202D01*
X152771901Y-84174788D01*
X152727963Y-84218726D01*
X152614695Y-84388244D01*
X152536674Y-84576602D01*
X152496900Y-84776561D01*
X152496900Y-84980439D01*
X152536674Y-85180398D01*
X152614695Y-85368756D01*
X152727963Y-85538274D01*
X152872126Y-85682437D01*
X153041644Y-85795705D01*
X153230002Y-85873726D01*
X153429961Y-85913500D01*
X153633839Y-85913500D01*
X153833798Y-85873726D01*
X154022156Y-85795705D01*
X154191674Y-85682437D01*
X154335837Y-85538274D01*
X154449105Y-85368756D01*
X154527126Y-85180398D01*
X154566900Y-84980439D01*
X154566900Y-84776561D01*
X154527126Y-84576602D01*
X154449105Y-84388244D01*
X154335837Y-84218726D01*
X154291900Y-84174789D01*
X154291900Y-80056026D01*
X154335820Y-80079502D01*
X154445001Y-80112622D01*
X154445001Y-81536521D01*
X154440719Y-81580000D01*
X154457805Y-81753490D01*
X154508412Y-81920313D01*
X154590590Y-82074059D01*
X154673468Y-82175046D01*
X154673471Y-82175049D01*
X154701184Y-82208817D01*
X154734951Y-82236529D01*
X155343470Y-82845049D01*
X155371183Y-82878817D01*
X155404951Y-82906530D01*
X155404953Y-82906532D01*
X155450827Y-82944180D01*
X155505941Y-82989411D01*
X155659687Y-83071589D01*
X155826510Y-83122195D01*
X155956523Y-83135000D01*
X155956533Y-83135000D01*
X155999999Y-83139281D01*
X156043466Y-83135000D01*
X163706531Y-83135000D01*
X163750000Y-83139281D01*
X163793469Y-83135000D01*
X163793477Y-83135000D01*
X163923490Y-83122195D01*
X164090313Y-83071589D01*
X164244059Y-82989411D01*
X164378817Y-82878817D01*
X164406534Y-82845044D01*
X165107550Y-82144029D01*
X165141317Y-82116317D01*
X165193959Y-82052174D01*
X165251911Y-81981559D01*
X165291360Y-81907754D01*
X165334089Y-81827813D01*
X165384695Y-81660990D01*
X165397500Y-81530977D01*
X165397500Y-81530969D01*
X165401781Y-81487500D01*
X165397500Y-81444031D01*
X165397500Y-77985000D01*
X169573422Y-77985000D01*
X169795000Y-78206579D01*
X169795001Y-80365375D01*
X169705518Y-80374188D01*
X169585820Y-80410498D01*
X169475506Y-80469463D01*
X169378815Y-80548815D01*
X169299463Y-80645506D01*
X169240498Y-80755820D01*
X169204188Y-80875518D01*
X169191928Y-81000000D01*
X169191928Y-82700000D01*
X169204188Y-82824482D01*
X169240498Y-82944180D01*
X169299463Y-83054494D01*
X169378815Y-83151185D01*
X169475506Y-83230537D01*
X169585820Y-83289502D01*
X169658380Y-83311513D01*
X169526525Y-83443368D01*
X169364010Y-83686589D01*
X169252068Y-83956842D01*
X169195000Y-84243740D01*
X169195000Y-84536260D01*
X169252068Y-84823158D01*
X169364010Y-85093411D01*
X169526525Y-85336632D01*
X169733368Y-85543475D01*
X169907760Y-85660000D01*
X169733368Y-85776525D01*
X169526525Y-85983368D01*
X169364010Y-86226589D01*
X169252068Y-86496842D01*
X169195000Y-86783740D01*
X169195000Y-87076260D01*
X169252068Y-87363158D01*
X169364010Y-87633411D01*
X169526525Y-87876632D01*
X169733368Y-88083475D01*
X169976589Y-88245990D01*
X170246842Y-88357932D01*
X170533740Y-88415000D01*
X170826260Y-88415000D01*
X171113158Y-88357932D01*
X171383411Y-88245990D01*
X171626632Y-88083475D01*
X171833475Y-87876632D01*
X171995990Y-87633411D01*
X172107932Y-87363158D01*
X172165000Y-87076260D01*
X172165000Y-86783740D01*
X172107932Y-86496842D01*
X171995990Y-86226589D01*
X171833475Y-85983368D01*
X171626632Y-85776525D01*
X171452240Y-85660000D01*
X171626632Y-85543475D01*
X171833475Y-85336632D01*
X171995990Y-85093411D01*
X172107932Y-84823158D01*
X172165000Y-84536260D01*
X172165000Y-84243740D01*
X172121210Y-84023592D01*
X172366005Y-83778797D01*
X172395002Y-83755000D01*
X172489975Y-83639275D01*
X172560547Y-83507246D01*
X172604004Y-83363985D01*
X172615001Y-83252332D01*
X172615001Y-83252323D01*
X172618677Y-83215000D01*
X172615001Y-83177677D01*
X172615001Y-77392326D01*
X172618677Y-77355001D01*
X172615001Y-77317676D01*
X172615001Y-77317668D01*
X172604004Y-77206015D01*
X172560547Y-77062754D01*
X172556402Y-77055000D01*
X173660665Y-77055000D01*
X173842102Y-77037130D01*
X174074901Y-76966511D01*
X174200000Y-76899644D01*
X174200000Y-93749398D01*
X174044057Y-93372918D01*
X173668138Y-92810315D01*
X173189685Y-92331862D01*
X172627082Y-91955943D01*
X172001952Y-91697006D01*
X171338318Y-91565000D01*
X170661682Y-91565000D01*
X169998048Y-91697006D01*
X169372918Y-91955943D01*
X168810315Y-92331862D01*
X168331862Y-92810315D01*
X167955943Y-93372918D01*
X167697006Y-93998048D01*
X167565000Y-94661682D01*
X167565000Y-95338318D01*
X167697006Y-96001952D01*
X167955943Y-96627082D01*
X168331862Y-97189685D01*
X168810315Y-97668138D01*
X169372918Y-98044057D01*
X169998048Y-98302994D01*
X170588350Y-98420413D01*
X126025606Y-98436115D01*
X126049003Y-98358986D01*
X126060000Y-98247333D01*
X126060000Y-98247324D01*
X126063676Y-98210001D01*
X126060000Y-98172678D01*
X126060000Y-96250768D01*
X126147205Y-96120256D01*
X126225226Y-95931898D01*
X126265000Y-95731939D01*
X126265000Y-95528061D01*
X126225226Y-95328102D01*
X126218681Y-95312300D01*
X142299489Y-95312300D01*
X142343426Y-95356237D01*
X142512944Y-95469505D01*
X142701302Y-95547526D01*
X142901261Y-95587300D01*
X143105139Y-95587300D01*
X143305098Y-95547526D01*
X143493456Y-95469505D01*
X143662974Y-95356237D01*
X143807137Y-95212074D01*
X143920405Y-95042556D01*
X143998426Y-94854198D01*
X144038200Y-94654239D01*
X144038200Y-94450361D01*
X143998426Y-94250402D01*
X143996644Y-94246100D01*
X154696578Y-94246100D01*
X154733900Y-94249776D01*
X154771222Y-94246100D01*
X154771233Y-94246100D01*
X154882886Y-94235103D01*
X155026147Y-94191646D01*
X155158176Y-94121074D01*
X155273901Y-94026101D01*
X155297704Y-93997098D01*
X156221004Y-93073798D01*
X156250001Y-93050001D01*
X156344974Y-92934276D01*
X156415546Y-92802247D01*
X156459003Y-92658986D01*
X156470000Y-92547333D01*
X156470000Y-92547323D01*
X156473676Y-92510000D01*
X156470000Y-92472677D01*
X156470000Y-88497333D01*
X156473677Y-88460000D01*
X156459003Y-88311014D01*
X156415546Y-88167753D01*
X156344974Y-88035724D01*
X156273799Y-87948997D01*
X156250001Y-87919999D01*
X156221002Y-87896200D01*
X155643803Y-87319002D01*
X155620001Y-87289999D01*
X155504276Y-87195026D01*
X155372247Y-87124454D01*
X155228986Y-87080997D01*
X155224241Y-87080530D01*
X155169774Y-87026063D01*
X155000256Y-86912795D01*
X154811898Y-86834774D01*
X154611939Y-86795000D01*
X154408061Y-86795000D01*
X154208102Y-86834774D01*
X154019744Y-86912795D01*
X153850226Y-87026063D01*
X153706063Y-87170226D01*
X153592795Y-87339744D01*
X153514774Y-87528102D01*
X153475000Y-87728061D01*
X153475000Y-87931939D01*
X153514774Y-88131898D01*
X153592795Y-88320256D01*
X153706063Y-88489774D01*
X153850226Y-88633937D01*
X154019744Y-88747205D01*
X154208102Y-88825226D01*
X154408061Y-88865000D01*
X154611939Y-88865000D01*
X154811898Y-88825226D01*
X154945206Y-88770008D01*
X154950001Y-88774803D01*
X154950000Y-92195198D01*
X154419099Y-92726100D01*
X140413300Y-92726100D01*
X140413300Y-92651161D01*
X140373526Y-92451202D01*
X140295505Y-92262844D01*
X140182237Y-92093326D01*
X140138300Y-92049389D01*
X140138300Y-87043601D01*
X144359095Y-82822806D01*
X144367454Y-82831165D01*
X144431229Y-82950479D01*
X144463179Y-82989410D01*
X144526202Y-83066204D01*
X144555205Y-83090006D01*
X145303602Y-83838403D01*
X145327400Y-83867402D01*
X145356398Y-83891200D01*
X145443124Y-83962375D01*
X145535879Y-84011954D01*
X145575154Y-84032947D01*
X145718415Y-84076404D01*
X145830068Y-84087401D01*
X145830077Y-84087401D01*
X145867400Y-84091077D01*
X145904723Y-84087401D01*
X147500962Y-84087401D01*
X147538284Y-84091077D01*
X147575606Y-84087401D01*
X147575617Y-84087401D01*
X147687270Y-84076404D01*
X147726600Y-84064474D01*
X147726600Y-84207839D01*
X147766374Y-84407798D01*
X147844395Y-84596156D01*
X147957663Y-84765674D01*
X148027444Y-84835455D01*
X143633276Y-89229623D01*
X143446298Y-89152174D01*
X143246339Y-89112400D01*
X143042461Y-89112400D01*
X142842502Y-89152174D01*
X142654144Y-89230195D01*
X142484626Y-89343463D01*
X142340463Y-89487626D01*
X142227195Y-89657144D01*
X142149174Y-89845502D01*
X142109400Y-90045461D01*
X142109400Y-90249339D01*
X142149174Y-90449298D01*
X142227195Y-90637656D01*
X142340463Y-90807174D01*
X142484626Y-90951337D01*
X142654144Y-91064605D01*
X142842502Y-91142626D01*
X143042461Y-91182400D01*
X143246339Y-91182400D01*
X143446298Y-91142626D01*
X143634656Y-91064605D01*
X143804174Y-90951337D01*
X143850348Y-90905163D01*
X143939286Y-90896403D01*
X144082547Y-90852946D01*
X144214576Y-90782374D01*
X144330301Y-90687401D01*
X144354104Y-90658397D01*
X150333404Y-84679098D01*
X150362401Y-84655301D01*
X150457374Y-84539576D01*
X150527946Y-84407547D01*
X150571403Y-84264286D01*
X150582400Y-84152633D01*
X150582400Y-84152625D01*
X150586076Y-84115300D01*
X150582400Y-84077975D01*
X150582400Y-78498011D01*
X150626337Y-78454074D01*
X150739605Y-78284556D01*
X150817626Y-78096198D01*
X150857400Y-77896239D01*
X150857400Y-77692361D01*
X150817626Y-77492402D01*
X150739605Y-77304044D01*
X150626337Y-77134526D01*
X150482174Y-76990363D01*
X150312656Y-76877095D01*
X150124298Y-76799074D01*
X149924339Y-76759300D01*
X149720461Y-76759300D01*
X149520502Y-76799074D01*
X149377400Y-76858349D01*
X149377400Y-74631925D01*
X149381076Y-74594600D01*
X149377400Y-74557275D01*
X149377400Y-74557267D01*
X149366403Y-74445614D01*
X149322946Y-74302353D01*
X149252374Y-74170324D01*
X149157401Y-74054599D01*
X149128404Y-74030802D01*
X148839600Y-73741998D01*
X148839600Y-73679861D01*
X148799826Y-73479902D01*
X148721805Y-73291544D01*
X148608537Y-73122026D01*
X148464374Y-72977863D01*
X148294856Y-72864595D01*
X148106498Y-72786574D01*
X147906539Y-72746800D01*
X147702661Y-72746800D01*
X147518000Y-72783531D01*
X147518000Y-72529378D01*
X147543942Y-72515512D01*
X147620000Y-72453093D01*
X147696058Y-72515512D01*
X147847433Y-72596423D01*
X148011684Y-72646248D01*
X148182500Y-72663072D01*
X148782500Y-72663072D01*
X148953316Y-72646248D01*
X149117567Y-72596423D01*
X149268942Y-72515512D01*
X149401623Y-72406623D01*
X149510512Y-72273942D01*
X149591423Y-72122567D01*
X149641248Y-71958316D01*
X149644140Y-71928952D01*
X149773538Y-71842491D01*
X149890601Y-71725428D01*
X149890601Y-72456168D01*
%TA.AperFunction,Conductor*%
D27*
G36*
X149890601Y-72456168D02*
G01*
X149886924Y-72493500D01*
X149890601Y-72530833D01*
X149901598Y-72642486D01*
X149907843Y-72663072D01*
X149945054Y-72785746D01*
X150015626Y-72917776D01*
X150082287Y-72999002D01*
X150110600Y-73033501D01*
X150139598Y-73057299D01*
X151122000Y-74039702D01*
X151122001Y-74977788D01*
X151078063Y-75021726D01*
X150964795Y-75191244D01*
X150886774Y-75379602D01*
X150847000Y-75579561D01*
X150847000Y-75783439D01*
X150886774Y-75983398D01*
X150964795Y-76171756D01*
X151078063Y-76341274D01*
X151222226Y-76485437D01*
X151391744Y-76598705D01*
X151580102Y-76676726D01*
X151780061Y-76716500D01*
X151842199Y-76716500D01*
X152771900Y-77646202D01*
X152771901Y-84174788D01*
X152727963Y-84218726D01*
X152614695Y-84388244D01*
X152536674Y-84576602D01*
X152496900Y-84776561D01*
X152496900Y-84980439D01*
X152536674Y-85180398D01*
X152614695Y-85368756D01*
X152727963Y-85538274D01*
X152872126Y-85682437D01*
X153041644Y-85795705D01*
X153230002Y-85873726D01*
X153429961Y-85913500D01*
X153633839Y-85913500D01*
X153833798Y-85873726D01*
X154022156Y-85795705D01*
X154191674Y-85682437D01*
X154335837Y-85538274D01*
X154449105Y-85368756D01*
X154527126Y-85180398D01*
X154566900Y-84980439D01*
X154566900Y-84776561D01*
X154527126Y-84576602D01*
X154449105Y-84388244D01*
X154335837Y-84218726D01*
X154291900Y-84174789D01*
X154291900Y-80056026D01*
X154335820Y-80079502D01*
X154445001Y-80112622D01*
X154445001Y-81536521D01*
X154440719Y-81580000D01*
X154457805Y-81753490D01*
X154508412Y-81920313D01*
X154590590Y-82074059D01*
X154673468Y-82175046D01*
X154673471Y-82175049D01*
X154701184Y-82208817D01*
X154734951Y-82236529D01*
X155343470Y-82845049D01*
X155371183Y-82878817D01*
X155404951Y-82906530D01*
X155404953Y-82906532D01*
X155450827Y-82944180D01*
X155505941Y-82989411D01*
X155659687Y-83071589D01*
X155826510Y-83122195D01*
X155956523Y-83135000D01*
X155956533Y-83135000D01*
X155999999Y-83139281D01*
X156043466Y-83135000D01*
X163706531Y-83135000D01*
X163750000Y-83139281D01*
X163793469Y-83135000D01*
X163793477Y-83135000D01*
X163923490Y-83122195D01*
X164090313Y-83071589D01*
X164244059Y-82989411D01*
X164378817Y-82878817D01*
X164406534Y-82845044D01*
X165107550Y-82144029D01*
X165141317Y-82116317D01*
X165193959Y-82052174D01*
X165251911Y-81981559D01*
X165291360Y-81907754D01*
X165334089Y-81827813D01*
X165384695Y-81660990D01*
X165397500Y-81530977D01*
X165397500Y-81530969D01*
X165401781Y-81487500D01*
X165397500Y-81444031D01*
X165397500Y-77985000D01*
X169573422Y-77985000D01*
X169795000Y-78206579D01*
X169795001Y-80365375D01*
X169705518Y-80374188D01*
X169585820Y-80410498D01*
X169475506Y-80469463D01*
X169378815Y-80548815D01*
X169299463Y-80645506D01*
X169240498Y-80755820D01*
X169204188Y-80875518D01*
X169191928Y-81000000D01*
X169191928Y-82700000D01*
X169204188Y-82824482D01*
X169240498Y-82944180D01*
X169299463Y-83054494D01*
X169378815Y-83151185D01*
X169475506Y-83230537D01*
X169585820Y-83289502D01*
X169658380Y-83311513D01*
X169526525Y-83443368D01*
X169364010Y-83686589D01*
X169252068Y-83956842D01*
X169195000Y-84243740D01*
X169195000Y-84536260D01*
X169252068Y-84823158D01*
X169364010Y-85093411D01*
X169526525Y-85336632D01*
X169733368Y-85543475D01*
X169907760Y-85660000D01*
X169733368Y-85776525D01*
X169526525Y-85983368D01*
X169364010Y-86226589D01*
X169252068Y-86496842D01*
X169195000Y-86783740D01*
X169195000Y-87076260D01*
X169252068Y-87363158D01*
X169364010Y-87633411D01*
X169526525Y-87876632D01*
X169733368Y-88083475D01*
X169976589Y-88245990D01*
X170246842Y-88357932D01*
X170533740Y-88415000D01*
X170826260Y-88415000D01*
X171113158Y-88357932D01*
X171383411Y-88245990D01*
X171626632Y-88083475D01*
X171833475Y-87876632D01*
X171995990Y-87633411D01*
X172107932Y-87363158D01*
X172165000Y-87076260D01*
X172165000Y-86783740D01*
X172107932Y-86496842D01*
X171995990Y-86226589D01*
X171833475Y-85983368D01*
X171626632Y-85776525D01*
X171452240Y-85660000D01*
X171626632Y-85543475D01*
X171833475Y-85336632D01*
X171995990Y-85093411D01*
X172107932Y-84823158D01*
X172165000Y-84536260D01*
X172165000Y-84243740D01*
X172121210Y-84023592D01*
X172366005Y-83778797D01*
X172395002Y-83755000D01*
X172489975Y-83639275D01*
X172560547Y-83507246D01*
X172604004Y-83363985D01*
X172615001Y-83252332D01*
X172615001Y-83252323D01*
X172618677Y-83215000D01*
X172615001Y-83177677D01*
X172615001Y-77392326D01*
X172618677Y-77355001D01*
X172615001Y-77317676D01*
X172615001Y-77317668D01*
X172604004Y-77206015D01*
X172560547Y-77062754D01*
X172556402Y-77055000D01*
X173660665Y-77055000D01*
X173842102Y-77037130D01*
X174074901Y-76966511D01*
X174200000Y-76899644D01*
X174200000Y-93749398D01*
X174044057Y-93372918D01*
X173668138Y-92810315D01*
X173189685Y-92331862D01*
X172627082Y-91955943D01*
X172001952Y-91697006D01*
X171338318Y-91565000D01*
X170661682Y-91565000D01*
X169998048Y-91697006D01*
X169372918Y-91955943D01*
X168810315Y-92331862D01*
X168331862Y-92810315D01*
X167955943Y-93372918D01*
X167697006Y-93998048D01*
X167565000Y-94661682D01*
X167565000Y-95338318D01*
X167697006Y-96001952D01*
X167955943Y-96627082D01*
X168331862Y-97189685D01*
X168810315Y-97668138D01*
X169372918Y-98044057D01*
X169998048Y-98302994D01*
X170588350Y-98420413D01*
X126025606Y-98436115D01*
X126049003Y-98358986D01*
X126060000Y-98247333D01*
X126060000Y-98247324D01*
X126063676Y-98210001D01*
X126060000Y-98172678D01*
X126060000Y-96250768D01*
X126147205Y-96120256D01*
X126225226Y-95931898D01*
X126265000Y-95731939D01*
X126265000Y-95528061D01*
X126225226Y-95328102D01*
X126218681Y-95312300D01*
X142299489Y-95312300D01*
X142343426Y-95356237D01*
X142512944Y-95469505D01*
X142701302Y-95547526D01*
X142901261Y-95587300D01*
X143105139Y-95587300D01*
X143305098Y-95547526D01*
X143493456Y-95469505D01*
X143662974Y-95356237D01*
X143807137Y-95212074D01*
X143920405Y-95042556D01*
X143998426Y-94854198D01*
X144038200Y-94654239D01*
X144038200Y-94450361D01*
X143998426Y-94250402D01*
X143996644Y-94246100D01*
X154696578Y-94246100D01*
X154733900Y-94249776D01*
X154771222Y-94246100D01*
X154771233Y-94246100D01*
X154882886Y-94235103D01*
X155026147Y-94191646D01*
X155158176Y-94121074D01*
X155273901Y-94026101D01*
X155297704Y-93997098D01*
X156221004Y-93073798D01*
X156250001Y-93050001D01*
X156344974Y-92934276D01*
X156415546Y-92802247D01*
X156459003Y-92658986D01*
X156470000Y-92547333D01*
X156470000Y-92547323D01*
X156473676Y-92510000D01*
X156470000Y-92472677D01*
X156470000Y-88497333D01*
X156473677Y-88460000D01*
X156459003Y-88311014D01*
X156415546Y-88167753D01*
X156344974Y-88035724D01*
X156273799Y-87948997D01*
X156250001Y-87919999D01*
X156221002Y-87896200D01*
X155643803Y-87319002D01*
X155620001Y-87289999D01*
X155504276Y-87195026D01*
X155372247Y-87124454D01*
X155228986Y-87080997D01*
X155224241Y-87080530D01*
X155169774Y-87026063D01*
X155000256Y-86912795D01*
X154811898Y-86834774D01*
X154611939Y-86795000D01*
X154408061Y-86795000D01*
X154208102Y-86834774D01*
X154019744Y-86912795D01*
X153850226Y-87026063D01*
X153706063Y-87170226D01*
X153592795Y-87339744D01*
X153514774Y-87528102D01*
X153475000Y-87728061D01*
X153475000Y-87931939D01*
X153514774Y-88131898D01*
X153592795Y-88320256D01*
X153706063Y-88489774D01*
X153850226Y-88633937D01*
X154019744Y-88747205D01*
X154208102Y-88825226D01*
X154408061Y-88865000D01*
X154611939Y-88865000D01*
X154811898Y-88825226D01*
X154945206Y-88770008D01*
X154950001Y-88774803D01*
X154950000Y-92195198D01*
X154419099Y-92726100D01*
X140413300Y-92726100D01*
X140413300Y-92651161D01*
X140373526Y-92451202D01*
X140295505Y-92262844D01*
X140182237Y-92093326D01*
X140138300Y-92049389D01*
X140138300Y-87043601D01*
X144359095Y-82822806D01*
X144367454Y-82831165D01*
X144431229Y-82950479D01*
X144463179Y-82989410D01*
X144526202Y-83066204D01*
X144555205Y-83090006D01*
X145303602Y-83838403D01*
X145327400Y-83867402D01*
X145356398Y-83891200D01*
X145443124Y-83962375D01*
X145535879Y-84011954D01*
X145575154Y-84032947D01*
X145718415Y-84076404D01*
X145830068Y-84087401D01*
X145830077Y-84087401D01*
X145867400Y-84091077D01*
X145904723Y-84087401D01*
X147500962Y-84087401D01*
X147538284Y-84091077D01*
X147575606Y-84087401D01*
X147575617Y-84087401D01*
X147687270Y-84076404D01*
X147726600Y-84064474D01*
X147726600Y-84207839D01*
X147766374Y-84407798D01*
X147844395Y-84596156D01*
X147957663Y-84765674D01*
X148027444Y-84835455D01*
X143633276Y-89229623D01*
X143446298Y-89152174D01*
X143246339Y-89112400D01*
X143042461Y-89112400D01*
X142842502Y-89152174D01*
X142654144Y-89230195D01*
X142484626Y-89343463D01*
X142340463Y-89487626D01*
X142227195Y-89657144D01*
X142149174Y-89845502D01*
X142109400Y-90045461D01*
X142109400Y-90249339D01*
X142149174Y-90449298D01*
X142227195Y-90637656D01*
X142340463Y-90807174D01*
X142484626Y-90951337D01*
X142654144Y-91064605D01*
X142842502Y-91142626D01*
X143042461Y-91182400D01*
X143246339Y-91182400D01*
X143446298Y-91142626D01*
X143634656Y-91064605D01*
X143804174Y-90951337D01*
X143850348Y-90905163D01*
X143939286Y-90896403D01*
X144082547Y-90852946D01*
X144214576Y-90782374D01*
X144330301Y-90687401D01*
X144354104Y-90658397D01*
X150333404Y-84679098D01*
X150362401Y-84655301D01*
X150457374Y-84539576D01*
X150527946Y-84407547D01*
X150571403Y-84264286D01*
X150582400Y-84152633D01*
X150582400Y-84152625D01*
X150586076Y-84115300D01*
X150582400Y-84077975D01*
X150582400Y-78498011D01*
X150626337Y-78454074D01*
X150739605Y-78284556D01*
X150817626Y-78096198D01*
X150857400Y-77896239D01*
X150857400Y-77692361D01*
X150817626Y-77492402D01*
X150739605Y-77304044D01*
X150626337Y-77134526D01*
X150482174Y-76990363D01*
X150312656Y-76877095D01*
X150124298Y-76799074D01*
X149924339Y-76759300D01*
X149720461Y-76759300D01*
X149520502Y-76799074D01*
X149377400Y-76858349D01*
X149377400Y-74631925D01*
X149381076Y-74594600D01*
X149377400Y-74557275D01*
X149377400Y-74557267D01*
X149366403Y-74445614D01*
X149322946Y-74302353D01*
X149252374Y-74170324D01*
X149157401Y-74054599D01*
X149128404Y-74030802D01*
X148839600Y-73741998D01*
X148839600Y-73679861D01*
X148799826Y-73479902D01*
X148721805Y-73291544D01*
X148608537Y-73122026D01*
X148464374Y-72977863D01*
X148294856Y-72864595D01*
X148106498Y-72786574D01*
X147906539Y-72746800D01*
X147702661Y-72746800D01*
X147518000Y-72783531D01*
X147518000Y-72529378D01*
X147543942Y-72515512D01*
X147620000Y-72453093D01*
X147696058Y-72515512D01*
X147847433Y-72596423D01*
X148011684Y-72646248D01*
X148182500Y-72663072D01*
X148782500Y-72663072D01*
X148953316Y-72646248D01*
X149117567Y-72596423D01*
X149268942Y-72515512D01*
X149401623Y-72406623D01*
X149510512Y-72273942D01*
X149591423Y-72122567D01*
X149641248Y-71958316D01*
X149644140Y-71928952D01*
X149773538Y-71842491D01*
X149890601Y-71725428D01*
X149890601Y-72456168D01*
G37*
%TD.AperFunction*%
D26*
X124218061Y-85825000D02*
X124280199Y-85825000D01*
X127000000Y-88544802D01*
X127000001Y-89726288D01*
X126956063Y-89770226D01*
X126842795Y-89939744D01*
X126764774Y-90128102D01*
X126725000Y-90328061D01*
X126725000Y-90531939D01*
X126764774Y-90731898D01*
X126842795Y-90920256D01*
X126956063Y-91089774D01*
X127100226Y-91233937D01*
X127269744Y-91347205D01*
X127458102Y-91425226D01*
X127658061Y-91465000D01*
X127861939Y-91465000D01*
X128061898Y-91425226D01*
X128211300Y-91363341D01*
X128211300Y-92569577D01*
X128207624Y-92606900D01*
X128211300Y-92644222D01*
X128211300Y-92644232D01*
X128222297Y-92755885D01*
X128251188Y-92851126D01*
X128265754Y-92899146D01*
X128329400Y-93018218D01*
X128329400Y-93101939D01*
X128369174Y-93301898D01*
X128447195Y-93490256D01*
X128560463Y-93659774D01*
X128692989Y-93792300D01*
X124717102Y-93792300D01*
X124080000Y-93155199D01*
X124080000Y-85797538D01*
X124218061Y-85825000D01*
%TA.AperFunction,Conductor*%
D27*
G36*
X124218061Y-85825000D02*
G01*
X124280199Y-85825000D01*
X127000000Y-88544802D01*
X127000001Y-89726288D01*
X126956063Y-89770226D01*
X126842795Y-89939744D01*
X126764774Y-90128102D01*
X126725000Y-90328061D01*
X126725000Y-90531939D01*
X126764774Y-90731898D01*
X126842795Y-90920256D01*
X126956063Y-91089774D01*
X127100226Y-91233937D01*
X127269744Y-91347205D01*
X127458102Y-91425226D01*
X127658061Y-91465000D01*
X127861939Y-91465000D01*
X128061898Y-91425226D01*
X128211300Y-91363341D01*
X128211300Y-92569577D01*
X128207624Y-92606900D01*
X128211300Y-92644222D01*
X128211300Y-92644232D01*
X128222297Y-92755885D01*
X128251188Y-92851126D01*
X128265754Y-92899146D01*
X128329400Y-93018218D01*
X128329400Y-93101939D01*
X128369174Y-93301898D01*
X128447195Y-93490256D01*
X128560463Y-93659774D01*
X128692989Y-93792300D01*
X124717102Y-93792300D01*
X124080000Y-93155199D01*
X124080000Y-85797538D01*
X124218061Y-85825000D01*
G37*
%TD.AperFunction*%
D26*
X136733898Y-93792300D02*
X130035811Y-93792300D01*
X130168337Y-93659774D01*
X130281605Y-93490256D01*
X130359626Y-93301898D01*
X130399400Y-93101939D01*
X130399400Y-92898061D01*
X130359626Y-92698102D01*
X130281605Y-92509744D01*
X130168337Y-92340226D01*
X130024174Y-92196063D01*
X129854656Y-92082795D01*
X129731300Y-92031699D01*
X129731300Y-86789701D01*
X136733898Y-93792300D01*
%TA.AperFunction,Conductor*%
D27*
G36*
X136733898Y-93792300D02*
G01*
X130035811Y-93792300D01*
X130168337Y-93659774D01*
X130281605Y-93490256D01*
X130359626Y-93301898D01*
X130399400Y-93101939D01*
X130399400Y-92898061D01*
X130359626Y-92698102D01*
X130281605Y-92509744D01*
X130168337Y-92340226D01*
X130024174Y-92196063D01*
X129854656Y-92082795D01*
X129731300Y-92031699D01*
X129731300Y-86789701D01*
X136733898Y-93792300D01*
G37*
%TD.AperFunction*%
D26*
X146207857Y-78824441D02*
X138867298Y-86165001D01*
X138838300Y-86188799D01*
X138814502Y-86217797D01*
X138814501Y-86217798D01*
X138743326Y-86304524D01*
X138672754Y-86436554D01*
X138651941Y-86505168D01*
X138629298Y-86579814D01*
X138626423Y-86609002D01*
X138614624Y-86728800D01*
X138618301Y-86766132D01*
X138618300Y-92049389D01*
X138574363Y-92093326D01*
X138461095Y-92262844D01*
X138383074Y-92451202D01*
X138343300Y-92651161D01*
X138343300Y-92726100D01*
X137817302Y-92726100D01*
X126505701Y-81414500D01*
X141464078Y-81414500D01*
X141501400Y-81418176D01*
X141538722Y-81414500D01*
X141538733Y-81414500D01*
X141650386Y-81403503D01*
X141793647Y-81360046D01*
X141925676Y-81289474D01*
X142041401Y-81194501D01*
X142065204Y-81165497D01*
X142895941Y-80334761D01*
X142946063Y-80409774D01*
X143090226Y-80553937D01*
X143259744Y-80667205D01*
X143448102Y-80745226D01*
X143648061Y-80785000D01*
X143851939Y-80785000D01*
X144051898Y-80745226D01*
X144240256Y-80667205D01*
X144409774Y-80553937D01*
X144553937Y-80409774D01*
X144667205Y-80240256D01*
X144745226Y-80051898D01*
X144785000Y-79851939D01*
X144785000Y-79648061D01*
X144745226Y-79448102D01*
X144667205Y-79259744D01*
X144553937Y-79090226D01*
X144510000Y-79046289D01*
X144510000Y-77203711D01*
X144548564Y-77165148D01*
X146207857Y-78824441D01*
%TA.AperFunction,Conductor*%
D27*
G36*
X146207857Y-78824441D02*
G01*
X138867298Y-86165001D01*
X138838300Y-86188799D01*
X138814502Y-86217797D01*
X138814501Y-86217798D01*
X138743326Y-86304524D01*
X138672754Y-86436554D01*
X138651941Y-86505168D01*
X138629298Y-86579814D01*
X138626423Y-86609002D01*
X138614624Y-86728800D01*
X138618301Y-86766132D01*
X138618300Y-92049389D01*
X138574363Y-92093326D01*
X138461095Y-92262844D01*
X138383074Y-92451202D01*
X138343300Y-92651161D01*
X138343300Y-92726100D01*
X137817302Y-92726100D01*
X126505701Y-81414500D01*
X141464078Y-81414500D01*
X141501400Y-81418176D01*
X141538722Y-81414500D01*
X141538733Y-81414500D01*
X141650386Y-81403503D01*
X141793647Y-81360046D01*
X141925676Y-81289474D01*
X142041401Y-81194501D01*
X142065204Y-81165497D01*
X142895941Y-80334761D01*
X142946063Y-80409774D01*
X143090226Y-80553937D01*
X143259744Y-80667205D01*
X143448102Y-80745226D01*
X143648061Y-80785000D01*
X143851939Y-80785000D01*
X144051898Y-80745226D01*
X144240256Y-80667205D01*
X144409774Y-80553937D01*
X144553937Y-80409774D01*
X144667205Y-80240256D01*
X144745226Y-80051898D01*
X144785000Y-79851939D01*
X144785000Y-79648061D01*
X144745226Y-79448102D01*
X144667205Y-79259744D01*
X144553937Y-79090226D01*
X144510000Y-79046289D01*
X144510000Y-77203711D01*
X144548564Y-77165148D01*
X146207857Y-78824441D01*
G37*
%TD.AperFunction*%
D26*
X124161544Y-82309605D02*
X124349902Y-82387626D01*
X124549861Y-82427400D01*
X124753739Y-82427400D01*
X124953698Y-82387626D01*
X125142056Y-82309605D01*
X125207485Y-82265887D01*
X128216044Y-85274445D01*
X128167363Y-85323126D01*
X128054095Y-85492644D01*
X127976074Y-85681002D01*
X127936300Y-85880961D01*
X127936300Y-86084839D01*
X127976074Y-86284798D01*
X128054095Y-86473156D01*
X128167363Y-86642674D01*
X128211301Y-86686612D01*
X128211301Y-87606499D01*
X125355000Y-84750199D01*
X125355000Y-84688061D01*
X125315226Y-84488102D01*
X125237205Y-84299744D01*
X125123937Y-84130226D01*
X124979774Y-83986063D01*
X124810256Y-83872795D01*
X124621898Y-83794774D01*
X124421939Y-83755000D01*
X124218061Y-83755000D01*
X124080000Y-83782462D01*
X124080000Y-82255119D01*
X124161544Y-82309605D01*
%TA.AperFunction,Conductor*%
D27*
G36*
X124161544Y-82309605D02*
G01*
X124349902Y-82387626D01*
X124549861Y-82427400D01*
X124753739Y-82427400D01*
X124953698Y-82387626D01*
X125142056Y-82309605D01*
X125207485Y-82265887D01*
X128216044Y-85274445D01*
X128167363Y-85323126D01*
X128054095Y-85492644D01*
X127976074Y-85681002D01*
X127936300Y-85880961D01*
X127936300Y-86084839D01*
X127976074Y-86284798D01*
X128054095Y-86473156D01*
X128167363Y-86642674D01*
X128211301Y-86686612D01*
X128211301Y-87606499D01*
X125355000Y-84750199D01*
X125355000Y-84688061D01*
X125315226Y-84488102D01*
X125237205Y-84299744D01*
X125123937Y-84130226D01*
X124979774Y-83986063D01*
X124810256Y-83872795D01*
X124621898Y-83794774D01*
X124421939Y-83755000D01*
X124218061Y-83755000D01*
X124080000Y-83782462D01*
X124080000Y-82255119D01*
X124161544Y-82309605D01*
G37*
%TD.AperFunction*%
D26*
X147273868Y-81115738D02*
X147259725Y-81129880D01*
X147273868Y-81144023D01*
X147094263Y-81323628D01*
X147080120Y-81309485D01*
X146453093Y-81936512D01*
X146453093Y-82161018D01*
X146584741Y-82297011D01*
X146681432Y-82376364D01*
X146791746Y-82435328D01*
X146911445Y-82471637D01*
X147035926Y-82483898D01*
X147099939Y-82477593D01*
X147104774Y-82501898D01*
X147131906Y-82567401D01*
X146182203Y-82567401D01*
X146038429Y-82423627D01*
X146061429Y-82368101D01*
X146101203Y-82168142D01*
X146101203Y-81964264D01*
X146061429Y-81764305D01*
X146058365Y-81756907D01*
X146273488Y-81756907D01*
X146900515Y-81129880D01*
X146886373Y-81115738D01*
X147065978Y-80936133D01*
X147080120Y-80950275D01*
X147094263Y-80936133D01*
X147273868Y-81115738D01*
%TA.AperFunction,Conductor*%
D27*
G36*
X147273868Y-81115738D02*
G01*
X147259725Y-81129880D01*
X147273868Y-81144023D01*
X147094263Y-81323628D01*
X147080120Y-81309485D01*
X146453093Y-81936512D01*
X146453093Y-82161018D01*
X146584741Y-82297011D01*
X146681432Y-82376364D01*
X146791746Y-82435328D01*
X146911445Y-82471637D01*
X147035926Y-82483898D01*
X147099939Y-82477593D01*
X147104774Y-82501898D01*
X147131906Y-82567401D01*
X146182203Y-82567401D01*
X146038429Y-82423627D01*
X146061429Y-82368101D01*
X146101203Y-82168142D01*
X146101203Y-81964264D01*
X146061429Y-81764305D01*
X146058365Y-81756907D01*
X146273488Y-81756907D01*
X146900515Y-81129880D01*
X146886373Y-81115738D01*
X147065978Y-80936133D01*
X147080120Y-80950275D01*
X147094263Y-80936133D01*
X147273868Y-81115738D01*
G37*
%TD.AperFunction*%
D26*
X152647500Y-63474502D02*
X152647500Y-63962900D01*
X152643824Y-64000222D01*
X152647500Y-64037544D01*
X152647500Y-64037555D01*
X152658498Y-64149208D01*
X152666041Y-64174074D01*
X152701954Y-64292468D01*
X152772526Y-64424498D01*
X152843701Y-64511224D01*
X152867500Y-64540223D01*
X152896498Y-64564021D01*
X153381100Y-65048624D01*
X153381100Y-65110761D01*
X153420874Y-65310720D01*
X153498895Y-65499078D01*
X153612163Y-65668596D01*
X153756326Y-65812759D01*
X153925844Y-65926027D01*
X154114202Y-66004048D01*
X154314161Y-66043822D01*
X154518039Y-66043822D01*
X154717998Y-66004048D01*
X154884693Y-65935000D01*
X156041928Y-65935000D01*
X156045000Y-66124250D01*
X156203750Y-66283000D01*
X157090500Y-66283000D01*
X157090500Y-65458750D01*
X156931750Y-65300000D01*
X156680000Y-65296928D01*
X156555518Y-65309188D01*
X156435820Y-65345498D01*
X156325506Y-65404463D01*
X156228815Y-65483815D01*
X156149463Y-65580506D01*
X156090498Y-65690820D01*
X156054188Y-65810518D01*
X156041928Y-65935000D01*
X154884693Y-65935000D01*
X154906356Y-65926027D01*
X155075874Y-65812759D01*
X155220037Y-65668596D01*
X155333305Y-65499078D01*
X155411326Y-65310720D01*
X155451100Y-65110761D01*
X155451100Y-64906883D01*
X155411326Y-64706924D01*
X155333305Y-64518566D01*
X155246813Y-64389121D01*
X155286284Y-64362747D01*
X155330221Y-64318810D01*
X155733868Y-64318810D01*
X155771190Y-64322486D01*
X155808512Y-64318810D01*
X155808523Y-64318810D01*
X155920176Y-64307813D01*
X156063437Y-64264356D01*
X156195466Y-64193784D01*
X156272474Y-64130585D01*
X156320686Y-64178797D01*
X156490204Y-64292065D01*
X156678562Y-64370086D01*
X156878521Y-64409860D01*
X157082399Y-64409860D01*
X157282358Y-64370086D01*
X157470716Y-64292065D01*
X157640234Y-64178797D01*
X157684171Y-64134860D01*
X159305000Y-64134860D01*
X159305000Y-64311939D01*
X159344774Y-64511898D01*
X159422795Y-64700256D01*
X159536063Y-64869774D01*
X159680226Y-65013937D01*
X159849744Y-65127205D01*
X160038102Y-65205226D01*
X160238061Y-65245000D01*
X160300198Y-65245000D01*
X160320001Y-65264802D01*
X160320001Y-65526288D01*
X160276063Y-65570226D01*
X160162795Y-65739744D01*
X160084774Y-65928102D01*
X160082458Y-65939743D01*
X160051423Y-65837433D01*
X159970512Y-65686058D01*
X159861623Y-65553377D01*
X159728942Y-65444488D01*
X159577567Y-65363577D01*
X159413316Y-65313752D01*
X159242500Y-65296928D01*
X158642500Y-65296928D01*
X158471684Y-65313752D01*
X158307433Y-65363577D01*
X158157394Y-65443774D01*
X158109494Y-65404463D01*
X157999180Y-65345498D01*
X157879482Y-65309188D01*
X157755000Y-65296928D01*
X157503250Y-65300000D01*
X157344500Y-65458750D01*
X157344500Y-66283000D01*
X157364500Y-66283000D01*
X157364500Y-66537000D01*
X157344500Y-66537000D01*
X157344500Y-66557000D01*
X157090500Y-66557000D01*
X157090500Y-66537000D01*
X156203750Y-66537000D01*
X156045000Y-66695750D01*
X156041928Y-66885000D01*
X156054188Y-67009482D01*
X156087308Y-67118664D01*
X155825000Y-67116928D01*
X155700518Y-67129188D01*
X155580820Y-67165498D01*
X155470506Y-67224463D01*
X155373815Y-67303815D01*
X155294463Y-67400506D01*
X155235498Y-67510820D01*
X155199188Y-67630518D01*
X155186928Y-67755000D01*
X155190000Y-68644250D01*
X155348750Y-68803000D01*
X156448000Y-68803000D01*
X156448000Y-68783000D01*
X156702000Y-68783000D01*
X156702000Y-68803000D01*
X157801250Y-68803000D01*
X157960000Y-68644250D01*
X157963072Y-67755000D01*
X157950812Y-67630518D01*
X157914502Y-67510820D01*
X157909612Y-67501672D01*
X157999180Y-67474502D01*
X158109494Y-67415537D01*
X158157394Y-67376226D01*
X158307433Y-67456423D01*
X158471684Y-67506248D01*
X158583573Y-67517268D01*
X158504528Y-67665150D01*
X158453992Y-67831746D01*
X158436928Y-68005000D01*
X158436928Y-69855000D01*
X158453992Y-70028254D01*
X158504528Y-70194850D01*
X158586595Y-70348386D01*
X158697038Y-70482962D01*
X158782806Y-70553350D01*
X157915750Y-70555000D01*
X157757002Y-70713748D01*
X157757002Y-70571928D01*
X157776185Y-70556185D01*
X157855537Y-70459494D01*
X157914502Y-70349180D01*
X157950812Y-70229482D01*
X157963072Y-70105000D01*
X157960000Y-69215750D01*
X157801250Y-69057000D01*
X156702000Y-69057000D01*
X156702000Y-69077000D01*
X156448000Y-69077000D01*
X156448000Y-69057000D01*
X155348750Y-69057000D01*
X155190000Y-69215750D01*
X155186928Y-70105000D01*
X155199188Y-70229482D01*
X155235498Y-70349180D01*
X155294463Y-70459494D01*
X155373815Y-70556185D01*
X155450691Y-70619275D01*
X155375506Y-70659463D01*
X155278815Y-70738815D01*
X155199463Y-70835506D01*
X155140498Y-70945820D01*
X155104188Y-71065518D01*
X155091928Y-71190000D01*
X155095000Y-71904250D01*
X155253750Y-72063000D01*
X157503000Y-72063000D01*
X157503000Y-72043000D01*
X157757000Y-72043000D01*
X157757000Y-72063000D01*
X160006250Y-72063000D01*
X160165000Y-71904250D01*
X160168072Y-71190000D01*
X160155812Y-71065518D01*
X160119502Y-70945820D01*
X160060537Y-70835506D01*
X159984679Y-70743072D01*
X160325000Y-70743072D01*
X160498254Y-70726008D01*
X160664850Y-70675472D01*
X160818386Y-70593405D01*
X160944226Y-70490132D01*
X160980601Y-70514437D01*
X160980600Y-71615777D01*
X160976924Y-71653100D01*
X160980600Y-71690422D01*
X160980600Y-71690432D01*
X160991597Y-71802085D01*
X161020991Y-71898986D01*
X161035054Y-71945346D01*
X161105626Y-72077376D01*
X161134912Y-72113061D01*
X161200599Y-72193101D01*
X161229602Y-72216903D01*
X161461928Y-72449230D01*
X161461928Y-72737500D01*
X161478752Y-72908316D01*
X161528577Y-73072567D01*
X161609488Y-73223942D01*
X161718377Y-73356623D01*
X161851058Y-73465512D01*
X162002433Y-73546423D01*
X162166684Y-73596248D01*
X162337500Y-73613072D01*
X162837500Y-73613072D01*
X163008316Y-73596248D01*
X163160142Y-73550192D01*
X163158000Y-73560961D01*
X163158000Y-73764839D01*
X163197774Y-73964798D01*
X163275795Y-74153156D01*
X163375719Y-74302703D01*
X162184951Y-75493471D01*
X162151184Y-75521183D01*
X162123471Y-75554951D01*
X162123468Y-75554954D01*
X162040590Y-75655941D01*
X161958412Y-75809687D01*
X161907805Y-75976510D01*
X161902042Y-76035026D01*
X161895000Y-76106523D01*
X161895000Y-76106531D01*
X161890719Y-76150000D01*
X161895000Y-76193469D01*
X161895000Y-76221528D01*
X161868377Y-76243377D01*
X161759488Y-76376058D01*
X161678577Y-76527433D01*
X161628752Y-76691684D01*
X161611928Y-76862500D01*
X161611928Y-77337500D01*
X161628752Y-77508316D01*
X161678577Y-77672567D01*
X161691562Y-77696860D01*
X161554956Y-77833466D01*
X161521183Y-77861183D01*
X161410589Y-77995942D01*
X161328411Y-78149688D01*
X161318072Y-78183771D01*
X161318072Y-77490000D01*
X161305812Y-77365518D01*
X161269502Y-77245820D01*
X161210537Y-77135506D01*
X161131185Y-77038815D01*
X161034494Y-76959463D01*
X160924180Y-76900498D01*
X160804482Y-76864188D01*
X160680000Y-76851928D01*
X159180000Y-76851928D01*
X159055518Y-76864188D01*
X158935820Y-76900498D01*
X158825506Y-76959463D01*
X158780000Y-76996809D01*
X158734494Y-76959463D01*
X158624180Y-76900498D01*
X158504482Y-76864188D01*
X158380000Y-76851928D01*
X157915750Y-76855000D01*
X157757000Y-77013750D01*
X157757000Y-78363000D01*
X157777000Y-78363000D01*
X157777000Y-78617000D01*
X157757000Y-78617000D01*
X157757000Y-79966250D01*
X157915750Y-80125000D01*
X158380000Y-80128072D01*
X158504482Y-80115812D01*
X158624180Y-80079502D01*
X158734494Y-80020537D01*
X158780000Y-79983191D01*
X158825506Y-80020537D01*
X158935820Y-80079502D01*
X159045001Y-80112622D01*
X159045001Y-80136521D01*
X159040719Y-80180000D01*
X159057805Y-80353490D01*
X159108412Y-80520313D01*
X159190590Y-80674059D01*
X159273468Y-80775046D01*
X159273471Y-80775049D01*
X159301184Y-80808817D01*
X159334952Y-80836530D01*
X159843466Y-81345044D01*
X159859844Y-81365000D01*
X156366579Y-81365000D01*
X156215000Y-81213422D01*
X156215000Y-80112621D01*
X156324180Y-80079502D01*
X156434494Y-80020537D01*
X156480000Y-79983191D01*
X156525506Y-80020537D01*
X156635820Y-80079502D01*
X156755518Y-80115812D01*
X156880000Y-80128072D01*
X157344250Y-80125000D01*
X157503000Y-79966250D01*
X157503000Y-78617000D01*
X157483000Y-78617000D01*
X157483000Y-78363000D01*
X157503000Y-78363000D01*
X157503000Y-77013750D01*
X157344250Y-76855000D01*
X156880000Y-76851928D01*
X156755518Y-76864188D01*
X156635820Y-76900498D01*
X156525506Y-76959463D01*
X156480000Y-76996809D01*
X156434494Y-76959463D01*
X156324180Y-76900498D01*
X156288826Y-76889774D01*
X156325226Y-76801898D01*
X156365000Y-76601939D01*
X156365000Y-76398061D01*
X156325226Y-76198102D01*
X156247205Y-76009744D01*
X156133937Y-75840226D01*
X155989774Y-75696063D01*
X155820256Y-75582795D01*
X155631898Y-75504774D01*
X155431939Y-75465000D01*
X155228061Y-75465000D01*
X155028102Y-75504774D01*
X154839744Y-75582795D01*
X154670226Y-75696063D01*
X154526063Y-75840226D01*
X154412795Y-76009744D01*
X154334774Y-76198102D01*
X154295000Y-76398061D01*
X154295000Y-76601939D01*
X154334774Y-76801898D01*
X154371174Y-76889774D01*
X154335820Y-76900498D01*
X154225506Y-76959463D01*
X154204198Y-76976950D01*
X154166874Y-76907123D01*
X154095699Y-76820397D01*
X154071901Y-76791399D01*
X154042904Y-76767602D01*
X152917000Y-75641699D01*
X152917000Y-75579561D01*
X152877226Y-75379602D01*
X152799205Y-75191244D01*
X152685937Y-75021726D01*
X152642000Y-74977789D01*
X152642000Y-73762233D01*
X152645677Y-73724900D01*
X152631003Y-73575914D01*
X152587546Y-73432653D01*
X152516974Y-73300624D01*
X152445799Y-73213897D01*
X152426188Y-73190000D01*
X155091928Y-73190000D01*
X155104188Y-73314482D01*
X155140498Y-73434180D01*
X155199463Y-73544494D01*
X155278815Y-73641185D01*
X155375506Y-73720537D01*
X155485820Y-73779502D01*
X155605518Y-73815812D01*
X155730000Y-73828072D01*
X157344250Y-73825000D01*
X157503000Y-73666250D01*
X157503000Y-72317000D01*
X157757000Y-72317000D01*
X157757000Y-73666250D01*
X157915750Y-73825000D01*
X159530000Y-73828072D01*
X159654482Y-73815812D01*
X159774180Y-73779502D01*
X159884494Y-73720537D01*
X159981185Y-73641185D01*
X160060537Y-73544494D01*
X160119502Y-73434180D01*
X160155812Y-73314482D01*
X160168072Y-73190000D01*
X160165000Y-72475750D01*
X160006250Y-72317000D01*
X157757000Y-72317000D01*
X157503000Y-72317000D01*
X155253750Y-72317000D01*
X155095000Y-72475750D01*
X155091928Y-73190000D01*
X152426188Y-73190000D01*
X152422001Y-73184899D01*
X152393004Y-73161102D01*
X151410600Y-72178699D01*
X151410600Y-69342318D01*
X152417047Y-69342318D01*
X152417047Y-69566824D01*
X152592889Y-69747011D01*
X152689580Y-69826364D01*
X152799895Y-69885328D01*
X152919593Y-69921637D01*
X153044074Y-69933898D01*
X153168555Y-69921637D01*
X153288254Y-69885328D01*
X153398568Y-69826364D01*
X153495259Y-69747011D01*
X153626907Y-69611018D01*
X153626907Y-69386512D01*
X152999880Y-68759485D01*
X152417047Y-69342318D01*
X151410600Y-69342318D01*
X151410600Y-68507076D01*
X151489247Y-68549113D01*
X151652049Y-68598498D01*
X151658123Y-68660167D01*
X151694432Y-68779865D01*
X151753396Y-68890180D01*
X151832749Y-68986871D01*
X152012936Y-69162713D01*
X152237442Y-69162713D01*
X152820275Y-68579880D01*
X152806133Y-68565738D01*
X152985738Y-68386133D01*
X152999880Y-68400275D01*
X153014023Y-68386133D01*
X153193628Y-68565738D01*
X153179485Y-68579880D01*
X153806512Y-69206907D01*
X154031018Y-69206907D01*
X154167011Y-69075259D01*
X154246364Y-68978568D01*
X154305328Y-68868254D01*
X154341637Y-68748555D01*
X154353898Y-68624074D01*
X154341637Y-68499593D01*
X154305328Y-68379895D01*
X154246364Y-68269580D01*
X154167011Y-68172889D01*
X153986824Y-67997047D01*
X153958065Y-67997047D01*
X154026774Y-67951137D01*
X154170937Y-67806974D01*
X154284205Y-67637456D01*
X154362226Y-67449098D01*
X154402000Y-67249139D01*
X154402000Y-67045261D01*
X154362226Y-66845302D01*
X154284205Y-66656944D01*
X154170937Y-66487426D01*
X154026774Y-66343263D01*
X153857256Y-66229995D01*
X153668898Y-66151974D01*
X153468939Y-66112200D01*
X153265061Y-66112200D01*
X153065102Y-66151974D01*
X152876744Y-66229995D01*
X152707226Y-66343263D01*
X152563063Y-66487426D01*
X152530413Y-66536291D01*
X152355049Y-66360927D01*
X152222368Y-66252038D01*
X152070993Y-66171127D01*
X151906742Y-66121302D01*
X151735926Y-66104478D01*
X151565110Y-66121302D01*
X151400859Y-66171127D01*
X151249484Y-66252038D01*
X151116803Y-66360927D01*
X150780927Y-66696803D01*
X150672038Y-66829484D01*
X150591127Y-66980859D01*
X150589855Y-66985053D01*
X147150000Y-63545199D01*
X147150000Y-61826391D01*
X147254494Y-61770537D01*
X147351185Y-61691185D01*
X147430537Y-61594494D01*
X147489502Y-61484180D01*
X147525812Y-61364482D01*
X147538072Y-61240000D01*
X147538072Y-58365073D01*
X152647500Y-63474502D01*
%TA.AperFunction,Conductor*%
D27*
G36*
X152647500Y-63474502D02*
G01*
X152647500Y-63962900D01*
X152643824Y-64000222D01*
X152647500Y-64037544D01*
X152647500Y-64037555D01*
X152658498Y-64149208D01*
X152666041Y-64174074D01*
X152701954Y-64292468D01*
X152772526Y-64424498D01*
X152843701Y-64511224D01*
X152867500Y-64540223D01*
X152896498Y-64564021D01*
X153381100Y-65048624D01*
X153381100Y-65110761D01*
X153420874Y-65310720D01*
X153498895Y-65499078D01*
X153612163Y-65668596D01*
X153756326Y-65812759D01*
X153925844Y-65926027D01*
X154114202Y-66004048D01*
X154314161Y-66043822D01*
X154518039Y-66043822D01*
X154717998Y-66004048D01*
X154884693Y-65935000D01*
X156041928Y-65935000D01*
X156045000Y-66124250D01*
X156203750Y-66283000D01*
X157090500Y-66283000D01*
X157090500Y-65458750D01*
X156931750Y-65300000D01*
X156680000Y-65296928D01*
X156555518Y-65309188D01*
X156435820Y-65345498D01*
X156325506Y-65404463D01*
X156228815Y-65483815D01*
X156149463Y-65580506D01*
X156090498Y-65690820D01*
X156054188Y-65810518D01*
X156041928Y-65935000D01*
X154884693Y-65935000D01*
X154906356Y-65926027D01*
X155075874Y-65812759D01*
X155220037Y-65668596D01*
X155333305Y-65499078D01*
X155411326Y-65310720D01*
X155451100Y-65110761D01*
X155451100Y-64906883D01*
X155411326Y-64706924D01*
X155333305Y-64518566D01*
X155246813Y-64389121D01*
X155286284Y-64362747D01*
X155330221Y-64318810D01*
X155733868Y-64318810D01*
X155771190Y-64322486D01*
X155808512Y-64318810D01*
X155808523Y-64318810D01*
X155920176Y-64307813D01*
X156063437Y-64264356D01*
X156195466Y-64193784D01*
X156272474Y-64130585D01*
X156320686Y-64178797D01*
X156490204Y-64292065D01*
X156678562Y-64370086D01*
X156878521Y-64409860D01*
X157082399Y-64409860D01*
X157282358Y-64370086D01*
X157470716Y-64292065D01*
X157640234Y-64178797D01*
X157684171Y-64134860D01*
X159305000Y-64134860D01*
X159305000Y-64311939D01*
X159344774Y-64511898D01*
X159422795Y-64700256D01*
X159536063Y-64869774D01*
X159680226Y-65013937D01*
X159849744Y-65127205D01*
X160038102Y-65205226D01*
X160238061Y-65245000D01*
X160300198Y-65245000D01*
X160320001Y-65264802D01*
X160320001Y-65526288D01*
X160276063Y-65570226D01*
X160162795Y-65739744D01*
X160084774Y-65928102D01*
X160082458Y-65939743D01*
X160051423Y-65837433D01*
X159970512Y-65686058D01*
X159861623Y-65553377D01*
X159728942Y-65444488D01*
X159577567Y-65363577D01*
X159413316Y-65313752D01*
X159242500Y-65296928D01*
X158642500Y-65296928D01*
X158471684Y-65313752D01*
X158307433Y-65363577D01*
X158157394Y-65443774D01*
X158109494Y-65404463D01*
X157999180Y-65345498D01*
X157879482Y-65309188D01*
X157755000Y-65296928D01*
X157503250Y-65300000D01*
X157344500Y-65458750D01*
X157344500Y-66283000D01*
X157364500Y-66283000D01*
X157364500Y-66537000D01*
X157344500Y-66537000D01*
X157344500Y-66557000D01*
X157090500Y-66557000D01*
X157090500Y-66537000D01*
X156203750Y-66537000D01*
X156045000Y-66695750D01*
X156041928Y-66885000D01*
X156054188Y-67009482D01*
X156087308Y-67118664D01*
X155825000Y-67116928D01*
X155700518Y-67129188D01*
X155580820Y-67165498D01*
X155470506Y-67224463D01*
X155373815Y-67303815D01*
X155294463Y-67400506D01*
X155235498Y-67510820D01*
X155199188Y-67630518D01*
X155186928Y-67755000D01*
X155190000Y-68644250D01*
X155348750Y-68803000D01*
X156448000Y-68803000D01*
X156448000Y-68783000D01*
X156702000Y-68783000D01*
X156702000Y-68803000D01*
X157801250Y-68803000D01*
X157960000Y-68644250D01*
X157963072Y-67755000D01*
X157950812Y-67630518D01*
X157914502Y-67510820D01*
X157909612Y-67501672D01*
X157999180Y-67474502D01*
X158109494Y-67415537D01*
X158157394Y-67376226D01*
X158307433Y-67456423D01*
X158471684Y-67506248D01*
X158583573Y-67517268D01*
X158504528Y-67665150D01*
X158453992Y-67831746D01*
X158436928Y-68005000D01*
X158436928Y-69855000D01*
X158453992Y-70028254D01*
X158504528Y-70194850D01*
X158586595Y-70348386D01*
X158697038Y-70482962D01*
X158782806Y-70553350D01*
X157915750Y-70555000D01*
X157757002Y-70713748D01*
X157757002Y-70571928D01*
X157776185Y-70556185D01*
X157855537Y-70459494D01*
X157914502Y-70349180D01*
X157950812Y-70229482D01*
X157963072Y-70105000D01*
X157960000Y-69215750D01*
X157801250Y-69057000D01*
X156702000Y-69057000D01*
X156702000Y-69077000D01*
X156448000Y-69077000D01*
X156448000Y-69057000D01*
X155348750Y-69057000D01*
X155190000Y-69215750D01*
X155186928Y-70105000D01*
X155199188Y-70229482D01*
X155235498Y-70349180D01*
X155294463Y-70459494D01*
X155373815Y-70556185D01*
X155450691Y-70619275D01*
X155375506Y-70659463D01*
X155278815Y-70738815D01*
X155199463Y-70835506D01*
X155140498Y-70945820D01*
X155104188Y-71065518D01*
X155091928Y-71190000D01*
X155095000Y-71904250D01*
X155253750Y-72063000D01*
X157503000Y-72063000D01*
X157503000Y-72043000D01*
X157757000Y-72043000D01*
X157757000Y-72063000D01*
X160006250Y-72063000D01*
X160165000Y-71904250D01*
X160168072Y-71190000D01*
X160155812Y-71065518D01*
X160119502Y-70945820D01*
X160060537Y-70835506D01*
X159984679Y-70743072D01*
X160325000Y-70743072D01*
X160498254Y-70726008D01*
X160664850Y-70675472D01*
X160818386Y-70593405D01*
X160944226Y-70490132D01*
X160980601Y-70514437D01*
X160980600Y-71615777D01*
X160976924Y-71653100D01*
X160980600Y-71690422D01*
X160980600Y-71690432D01*
X160991597Y-71802085D01*
X161020991Y-71898986D01*
X161035054Y-71945346D01*
X161105626Y-72077376D01*
X161134912Y-72113061D01*
X161200599Y-72193101D01*
X161229602Y-72216903D01*
X161461928Y-72449230D01*
X161461928Y-72737500D01*
X161478752Y-72908316D01*
X161528577Y-73072567D01*
X161609488Y-73223942D01*
X161718377Y-73356623D01*
X161851058Y-73465512D01*
X162002433Y-73546423D01*
X162166684Y-73596248D01*
X162337500Y-73613072D01*
X162837500Y-73613072D01*
X163008316Y-73596248D01*
X163160142Y-73550192D01*
X163158000Y-73560961D01*
X163158000Y-73764839D01*
X163197774Y-73964798D01*
X163275795Y-74153156D01*
X163375719Y-74302703D01*
X162184951Y-75493471D01*
X162151184Y-75521183D01*
X162123471Y-75554951D01*
X162123468Y-75554954D01*
X162040590Y-75655941D01*
X161958412Y-75809687D01*
X161907805Y-75976510D01*
X161902042Y-76035026D01*
X161895000Y-76106523D01*
X161895000Y-76106531D01*
X161890719Y-76150000D01*
X161895000Y-76193469D01*
X161895000Y-76221528D01*
X161868377Y-76243377D01*
X161759488Y-76376058D01*
X161678577Y-76527433D01*
X161628752Y-76691684D01*
X161611928Y-76862500D01*
X161611928Y-77337500D01*
X161628752Y-77508316D01*
X161678577Y-77672567D01*
X161691562Y-77696860D01*
X161554956Y-77833466D01*
X161521183Y-77861183D01*
X161410589Y-77995942D01*
X161328411Y-78149688D01*
X161318072Y-78183771D01*
X161318072Y-77490000D01*
X161305812Y-77365518D01*
X161269502Y-77245820D01*
X161210537Y-77135506D01*
X161131185Y-77038815D01*
X161034494Y-76959463D01*
X160924180Y-76900498D01*
X160804482Y-76864188D01*
X160680000Y-76851928D01*
X159180000Y-76851928D01*
X159055518Y-76864188D01*
X158935820Y-76900498D01*
X158825506Y-76959463D01*
X158780000Y-76996809D01*
X158734494Y-76959463D01*
X158624180Y-76900498D01*
X158504482Y-76864188D01*
X158380000Y-76851928D01*
X157915750Y-76855000D01*
X157757000Y-77013750D01*
X157757000Y-78363000D01*
X157777000Y-78363000D01*
X157777000Y-78617000D01*
X157757000Y-78617000D01*
X157757000Y-79966250D01*
X157915750Y-80125000D01*
X158380000Y-80128072D01*
X158504482Y-80115812D01*
X158624180Y-80079502D01*
X158734494Y-80020537D01*
X158780000Y-79983191D01*
X158825506Y-80020537D01*
X158935820Y-80079502D01*
X159045001Y-80112622D01*
X159045001Y-80136521D01*
X159040719Y-80180000D01*
X159057805Y-80353490D01*
X159108412Y-80520313D01*
X159190590Y-80674059D01*
X159273468Y-80775046D01*
X159273471Y-80775049D01*
X159301184Y-80808817D01*
X159334952Y-80836530D01*
X159843466Y-81345044D01*
X159859844Y-81365000D01*
X156366579Y-81365000D01*
X156215000Y-81213422D01*
X156215000Y-80112621D01*
X156324180Y-80079502D01*
X156434494Y-80020537D01*
X156480000Y-79983191D01*
X156525506Y-80020537D01*
X156635820Y-80079502D01*
X156755518Y-80115812D01*
X156880000Y-80128072D01*
X157344250Y-80125000D01*
X157503000Y-79966250D01*
X157503000Y-78617000D01*
X157483000Y-78617000D01*
X157483000Y-78363000D01*
X157503000Y-78363000D01*
X157503000Y-77013750D01*
X157344250Y-76855000D01*
X156880000Y-76851928D01*
X156755518Y-76864188D01*
X156635820Y-76900498D01*
X156525506Y-76959463D01*
X156480000Y-76996809D01*
X156434494Y-76959463D01*
X156324180Y-76900498D01*
X156288826Y-76889774D01*
X156325226Y-76801898D01*
X156365000Y-76601939D01*
X156365000Y-76398061D01*
X156325226Y-76198102D01*
X156247205Y-76009744D01*
X156133937Y-75840226D01*
X155989774Y-75696063D01*
X155820256Y-75582795D01*
X155631898Y-75504774D01*
X155431939Y-75465000D01*
X155228061Y-75465000D01*
X155028102Y-75504774D01*
X154839744Y-75582795D01*
X154670226Y-75696063D01*
X154526063Y-75840226D01*
X154412795Y-76009744D01*
X154334774Y-76198102D01*
X154295000Y-76398061D01*
X154295000Y-76601939D01*
X154334774Y-76801898D01*
X154371174Y-76889774D01*
X154335820Y-76900498D01*
X154225506Y-76959463D01*
X154204198Y-76976950D01*
X154166874Y-76907123D01*
X154095699Y-76820397D01*
X154071901Y-76791399D01*
X154042904Y-76767602D01*
X152917000Y-75641699D01*
X152917000Y-75579561D01*
X152877226Y-75379602D01*
X152799205Y-75191244D01*
X152685937Y-75021726D01*
X152642000Y-74977789D01*
X152642000Y-73762233D01*
X152645677Y-73724900D01*
X152631003Y-73575914D01*
X152587546Y-73432653D01*
X152516974Y-73300624D01*
X152445799Y-73213897D01*
X152426188Y-73190000D01*
X155091928Y-73190000D01*
X155104188Y-73314482D01*
X155140498Y-73434180D01*
X155199463Y-73544494D01*
X155278815Y-73641185D01*
X155375506Y-73720537D01*
X155485820Y-73779502D01*
X155605518Y-73815812D01*
X155730000Y-73828072D01*
X157344250Y-73825000D01*
X157503000Y-73666250D01*
X157503000Y-72317000D01*
X157757000Y-72317000D01*
X157757000Y-73666250D01*
X157915750Y-73825000D01*
X159530000Y-73828072D01*
X159654482Y-73815812D01*
X159774180Y-73779502D01*
X159884494Y-73720537D01*
X159981185Y-73641185D01*
X160060537Y-73544494D01*
X160119502Y-73434180D01*
X160155812Y-73314482D01*
X160168072Y-73190000D01*
X160165000Y-72475750D01*
X160006250Y-72317000D01*
X157757000Y-72317000D01*
X157503000Y-72317000D01*
X155253750Y-72317000D01*
X155095000Y-72475750D01*
X155091928Y-73190000D01*
X152426188Y-73190000D01*
X152422001Y-73184899D01*
X152393004Y-73161102D01*
X151410600Y-72178699D01*
X151410600Y-69342318D01*
X152417047Y-69342318D01*
X152417047Y-69566824D01*
X152592889Y-69747011D01*
X152689580Y-69826364D01*
X152799895Y-69885328D01*
X152919593Y-69921637D01*
X153044074Y-69933898D01*
X153168555Y-69921637D01*
X153288254Y-69885328D01*
X153398568Y-69826364D01*
X153495259Y-69747011D01*
X153626907Y-69611018D01*
X153626907Y-69386512D01*
X152999880Y-68759485D01*
X152417047Y-69342318D01*
X151410600Y-69342318D01*
X151410600Y-68507076D01*
X151489247Y-68549113D01*
X151652049Y-68598498D01*
X151658123Y-68660167D01*
X151694432Y-68779865D01*
X151753396Y-68890180D01*
X151832749Y-68986871D01*
X152012936Y-69162713D01*
X152237442Y-69162713D01*
X152820275Y-68579880D01*
X152806133Y-68565738D01*
X152985738Y-68386133D01*
X152999880Y-68400275D01*
X153014023Y-68386133D01*
X153193628Y-68565738D01*
X153179485Y-68579880D01*
X153806512Y-69206907D01*
X154031018Y-69206907D01*
X154167011Y-69075259D01*
X154246364Y-68978568D01*
X154305328Y-68868254D01*
X154341637Y-68748555D01*
X154353898Y-68624074D01*
X154341637Y-68499593D01*
X154305328Y-68379895D01*
X154246364Y-68269580D01*
X154167011Y-68172889D01*
X153986824Y-67997047D01*
X153958065Y-67997047D01*
X154026774Y-67951137D01*
X154170937Y-67806974D01*
X154284205Y-67637456D01*
X154362226Y-67449098D01*
X154402000Y-67249139D01*
X154402000Y-67045261D01*
X154362226Y-66845302D01*
X154284205Y-66656944D01*
X154170937Y-66487426D01*
X154026774Y-66343263D01*
X153857256Y-66229995D01*
X153668898Y-66151974D01*
X153468939Y-66112200D01*
X153265061Y-66112200D01*
X153065102Y-66151974D01*
X152876744Y-66229995D01*
X152707226Y-66343263D01*
X152563063Y-66487426D01*
X152530413Y-66536291D01*
X152355049Y-66360927D01*
X152222368Y-66252038D01*
X152070993Y-66171127D01*
X151906742Y-66121302D01*
X151735926Y-66104478D01*
X151565110Y-66121302D01*
X151400859Y-66171127D01*
X151249484Y-66252038D01*
X151116803Y-66360927D01*
X150780927Y-66696803D01*
X150672038Y-66829484D01*
X150591127Y-66980859D01*
X150589855Y-66985053D01*
X147150000Y-63545199D01*
X147150000Y-61826391D01*
X147254494Y-61770537D01*
X147351185Y-61691185D01*
X147430537Y-61594494D01*
X147489502Y-61484180D01*
X147525812Y-61364482D01*
X147538072Y-61240000D01*
X147538072Y-58365073D01*
X152647500Y-63474502D01*
G37*
%TD.AperFunction*%
D26*
X164310936Y-57062515D02*
X164254774Y-57198102D01*
X164215000Y-57398061D01*
X164215000Y-57601939D01*
X164254774Y-57801898D01*
X164332795Y-57990256D01*
X164446063Y-58159774D01*
X164590226Y-58303937D01*
X164759744Y-58417205D01*
X164948102Y-58495226D01*
X165004957Y-58506535D01*
X165985001Y-59486580D01*
X165985000Y-62756523D01*
X165980718Y-62800000D01*
X165985001Y-62843486D01*
X165985000Y-65115000D01*
X165538454Y-65115000D01*
X165490256Y-65082795D01*
X165301898Y-65004774D01*
X165101939Y-64965000D01*
X164898061Y-64965000D01*
X164698102Y-65004774D01*
X164509744Y-65082795D01*
X164340226Y-65196063D01*
X164196063Y-65340226D01*
X164082795Y-65509744D01*
X164004774Y-65698102D01*
X163965000Y-65898061D01*
X163965000Y-65903408D01*
X163870949Y-65884700D01*
X163667071Y-65884700D01*
X163467112Y-65924474D01*
X163278754Y-66002495D01*
X163109236Y-66115763D01*
X163009800Y-66215199D01*
X163009800Y-64307122D01*
X163013476Y-64269799D01*
X163009800Y-64232476D01*
X163009800Y-64232467D01*
X162998803Y-64120814D01*
X162955346Y-63977553D01*
X162884774Y-63845524D01*
X162789801Y-63729799D01*
X162760803Y-63706001D01*
X161918663Y-62863862D01*
X161894861Y-62834859D01*
X161779136Y-62739886D01*
X161692766Y-62693719D01*
X161715000Y-62581939D01*
X161715000Y-62378061D01*
X161675226Y-62178102D01*
X161597205Y-61989744D01*
X161483937Y-61820226D01*
X161339774Y-61676063D01*
X161170256Y-61562795D01*
X160981898Y-61484774D01*
X160781939Y-61445000D01*
X160578061Y-61445000D01*
X160378102Y-61484774D01*
X160189744Y-61562795D01*
X160020226Y-61676063D01*
X159876063Y-61820226D01*
X159762795Y-61989744D01*
X159684774Y-62178102D01*
X159645000Y-62378061D01*
X159645000Y-62581939D01*
X159651548Y-62614860D01*
X157791533Y-62614860D01*
X157869990Y-62519260D01*
X157940562Y-62387231D01*
X157984019Y-62243970D01*
X157995016Y-62132317D01*
X157998693Y-62094984D01*
X157995016Y-62057651D01*
X157995016Y-57053699D01*
X158038953Y-57009762D01*
X158152221Y-56840244D01*
X158230242Y-56651886D01*
X158270016Y-56451927D01*
X158270016Y-56275000D01*
X163523422Y-56275000D01*
X164310936Y-57062515D01*
%TA.AperFunction,Conductor*%
D27*
G36*
X164310936Y-57062515D02*
G01*
X164254774Y-57198102D01*
X164215000Y-57398061D01*
X164215000Y-57601939D01*
X164254774Y-57801898D01*
X164332795Y-57990256D01*
X164446063Y-58159774D01*
X164590226Y-58303937D01*
X164759744Y-58417205D01*
X164948102Y-58495226D01*
X165004957Y-58506535D01*
X165985001Y-59486580D01*
X165985000Y-62756523D01*
X165980718Y-62800000D01*
X165985001Y-62843486D01*
X165985000Y-65115000D01*
X165538454Y-65115000D01*
X165490256Y-65082795D01*
X165301898Y-65004774D01*
X165101939Y-64965000D01*
X164898061Y-64965000D01*
X164698102Y-65004774D01*
X164509744Y-65082795D01*
X164340226Y-65196063D01*
X164196063Y-65340226D01*
X164082795Y-65509744D01*
X164004774Y-65698102D01*
X163965000Y-65898061D01*
X163965000Y-65903408D01*
X163870949Y-65884700D01*
X163667071Y-65884700D01*
X163467112Y-65924474D01*
X163278754Y-66002495D01*
X163109236Y-66115763D01*
X163009800Y-66215199D01*
X163009800Y-64307122D01*
X163013476Y-64269799D01*
X163009800Y-64232476D01*
X163009800Y-64232467D01*
X162998803Y-64120814D01*
X162955346Y-63977553D01*
X162884774Y-63845524D01*
X162789801Y-63729799D01*
X162760803Y-63706001D01*
X161918663Y-62863862D01*
X161894861Y-62834859D01*
X161779136Y-62739886D01*
X161692766Y-62693719D01*
X161715000Y-62581939D01*
X161715000Y-62378061D01*
X161675226Y-62178102D01*
X161597205Y-61989744D01*
X161483937Y-61820226D01*
X161339774Y-61676063D01*
X161170256Y-61562795D01*
X160981898Y-61484774D01*
X160781939Y-61445000D01*
X160578061Y-61445000D01*
X160378102Y-61484774D01*
X160189744Y-61562795D01*
X160020226Y-61676063D01*
X159876063Y-61820226D01*
X159762795Y-61989744D01*
X159684774Y-62178102D01*
X159645000Y-62378061D01*
X159645000Y-62581939D01*
X159651548Y-62614860D01*
X157791533Y-62614860D01*
X157869990Y-62519260D01*
X157940562Y-62387231D01*
X157984019Y-62243970D01*
X157995016Y-62132317D01*
X157998693Y-62094984D01*
X157995016Y-62057651D01*
X157995016Y-57053699D01*
X158038953Y-57009762D01*
X158152221Y-56840244D01*
X158230242Y-56651886D01*
X158270016Y-56451927D01*
X158270016Y-56275000D01*
X163523422Y-56275000D01*
X164310936Y-57062515D01*
G37*
%TD.AperFunction*%
D26*
X174200001Y-66100356D02*
X174074901Y-66033489D01*
X173886964Y-65976479D01*
X173885000Y-65956533D01*
X173885000Y-65956523D01*
X173872195Y-65826510D01*
X173821589Y-65659687D01*
X173739411Y-65505941D01*
X173628817Y-65371183D01*
X173595045Y-65343467D01*
X173506534Y-65254956D01*
X173478817Y-65221183D01*
X173344059Y-65110589D01*
X173190313Y-65028411D01*
X173023490Y-64977805D01*
X172893477Y-64965000D01*
X172893469Y-64965000D01*
X172850000Y-64960719D01*
X172806531Y-64965000D01*
X172091579Y-64965000D01*
X171721532Y-64594954D01*
X171693817Y-64561183D01*
X171559059Y-64450589D01*
X171405313Y-64368411D01*
X171238490Y-64317805D01*
X171108477Y-64305000D01*
X171108469Y-64305000D01*
X171065000Y-64300719D01*
X171021531Y-64305000D01*
X170517046Y-64305000D01*
X170418942Y-64224488D01*
X170267567Y-64143577D01*
X170103316Y-64093752D01*
X169932500Y-64076928D01*
X169332500Y-64076928D01*
X169161684Y-64093752D01*
X168997433Y-64143577D01*
X168846058Y-64224488D01*
X168770000Y-64286907D01*
X168693942Y-64224488D01*
X168645000Y-64198328D01*
X168645000Y-63013465D01*
X168649281Y-62969999D01*
X168645000Y-62926533D01*
X168645000Y-62926523D01*
X168632195Y-62796510D01*
X168581589Y-62629687D01*
X168499411Y-62475941D01*
X168388817Y-62341183D01*
X168355044Y-62313466D01*
X168246534Y-62204956D01*
X168218817Y-62171183D01*
X168084059Y-62060589D01*
X167930313Y-61978411D01*
X167763490Y-61927805D01*
X167755000Y-61926969D01*
X167755000Y-59163469D01*
X167759281Y-59120000D01*
X167755000Y-59076531D01*
X167755000Y-59076523D01*
X167742195Y-58946510D01*
X167727405Y-58897753D01*
X167726843Y-58895903D01*
X167691589Y-58779687D01*
X167609411Y-58625941D01*
X167568013Y-58575498D01*
X167526532Y-58524953D01*
X167526530Y-58524951D01*
X167498817Y-58491183D01*
X167465049Y-58463470D01*
X166501578Y-57500000D01*
X168123592Y-55877987D01*
X168331862Y-56189685D01*
X168810315Y-56668138D01*
X169372918Y-57044057D01*
X169998048Y-57302994D01*
X170661682Y-57435000D01*
X171338318Y-57435000D01*
X172001952Y-57302994D01*
X172627082Y-57044057D01*
X173189685Y-56668138D01*
X173668138Y-56189685D01*
X174044057Y-55627082D01*
X174200001Y-55250600D01*
X174200001Y-66100356D01*
%TA.AperFunction,Conductor*%
D27*
G36*
X174200001Y-66100356D02*
G01*
X174074901Y-66033489D01*
X173886964Y-65976479D01*
X173885000Y-65956533D01*
X173885000Y-65956523D01*
X173872195Y-65826510D01*
X173821589Y-65659687D01*
X173739411Y-65505941D01*
X173628817Y-65371183D01*
X173595045Y-65343467D01*
X173506534Y-65254956D01*
X173478817Y-65221183D01*
X173344059Y-65110589D01*
X173190313Y-65028411D01*
X173023490Y-64977805D01*
X172893477Y-64965000D01*
X172893469Y-64965000D01*
X172850000Y-64960719D01*
X172806531Y-64965000D01*
X172091579Y-64965000D01*
X171721532Y-64594954D01*
X171693817Y-64561183D01*
X171559059Y-64450589D01*
X171405313Y-64368411D01*
X171238490Y-64317805D01*
X171108477Y-64305000D01*
X171108469Y-64305000D01*
X171065000Y-64300719D01*
X171021531Y-64305000D01*
X170517046Y-64305000D01*
X170418942Y-64224488D01*
X170267567Y-64143577D01*
X170103316Y-64093752D01*
X169932500Y-64076928D01*
X169332500Y-64076928D01*
X169161684Y-64093752D01*
X168997433Y-64143577D01*
X168846058Y-64224488D01*
X168770000Y-64286907D01*
X168693942Y-64224488D01*
X168645000Y-64198328D01*
X168645000Y-63013465D01*
X168649281Y-62969999D01*
X168645000Y-62926533D01*
X168645000Y-62926523D01*
X168632195Y-62796510D01*
X168581589Y-62629687D01*
X168499411Y-62475941D01*
X168388817Y-62341183D01*
X168355044Y-62313466D01*
X168246534Y-62204956D01*
X168218817Y-62171183D01*
X168084059Y-62060589D01*
X167930313Y-61978411D01*
X167763490Y-61927805D01*
X167755000Y-61926969D01*
X167755000Y-59163469D01*
X167759281Y-59120000D01*
X167755000Y-59076531D01*
X167755000Y-59076523D01*
X167742195Y-58946510D01*
X167727405Y-58897753D01*
X167726843Y-58895903D01*
X167691589Y-58779687D01*
X167609411Y-58625941D01*
X167568013Y-58575498D01*
X167526532Y-58524953D01*
X167526530Y-58524951D01*
X167498817Y-58491183D01*
X167465049Y-58463470D01*
X166501578Y-57500000D01*
X168123592Y-55877987D01*
X168331862Y-56189685D01*
X168810315Y-56668138D01*
X169372918Y-57044057D01*
X169998048Y-57302994D01*
X170661682Y-57435000D01*
X171338318Y-57435000D01*
X172001952Y-57302994D01*
X172627082Y-57044057D01*
X173189685Y-56668138D01*
X173668138Y-56189685D01*
X174044057Y-55627082D01*
X174200001Y-55250600D01*
X174200001Y-66100356D01*
G37*
%TD.AperFunction*%
D26*
X141704500Y-61919811D02*
X141704501Y-62305825D01*
X141681018Y-62283093D01*
X141456512Y-62283093D01*
X140829485Y-62910120D01*
X140843628Y-62924263D01*
X140664023Y-63103868D01*
X140649880Y-63089725D01*
X140635738Y-63103868D01*
X140456133Y-62924263D01*
X140470275Y-62910120D01*
X140456133Y-62895978D01*
X140635738Y-62716373D01*
X140649880Y-62730515D01*
X141276907Y-62103488D01*
X141276907Y-61878982D01*
X141276026Y-61878072D01*
X141662761Y-61878072D01*
X141704500Y-61919811D01*
%TA.AperFunction,Conductor*%
D27*
G36*
X141704500Y-61919811D02*
G01*
X141704501Y-62305825D01*
X141681018Y-62283093D01*
X141456512Y-62283093D01*
X140829485Y-62910120D01*
X140843628Y-62924263D01*
X140664023Y-63103868D01*
X140649880Y-63089725D01*
X140635738Y-63103868D01*
X140456133Y-62924263D01*
X140470275Y-62910120D01*
X140456133Y-62895978D01*
X140635738Y-62716373D01*
X140649880Y-62730515D01*
X141276907Y-62103488D01*
X141276907Y-61878982D01*
X141276026Y-61878072D01*
X141662761Y-61878072D01*
X141704500Y-61919811D01*
G37*
%TD.AperFunction*%
D26*
X156200016Y-56451927D02*
X156239790Y-56651886D01*
X156317811Y-56840244D01*
X156431079Y-57009762D01*
X156475016Y-57053699D01*
X156475017Y-61780181D01*
X155456389Y-62798810D01*
X155330221Y-62798810D01*
X155286284Y-62754873D01*
X155116766Y-62641605D01*
X154928408Y-62563584D01*
X154728449Y-62523810D01*
X154524571Y-62523810D01*
X154324612Y-62563584D01*
X154136254Y-62641605D01*
X154025960Y-62715301D01*
X153947501Y-62619699D01*
X153918504Y-62595902D01*
X147624704Y-56302103D01*
X147602461Y-56275000D01*
X156200016Y-56275000D01*
X156200016Y-56451927D01*
%TA.AperFunction,Conductor*%
D27*
G36*
X156200016Y-56451927D02*
G01*
X156239790Y-56651886D01*
X156317811Y-56840244D01*
X156431079Y-57009762D01*
X156475016Y-57053699D01*
X156475017Y-61780181D01*
X155456389Y-62798810D01*
X155330221Y-62798810D01*
X155286284Y-62754873D01*
X155116766Y-62641605D01*
X154928408Y-62563584D01*
X154728449Y-62523810D01*
X154524571Y-62523810D01*
X154324612Y-62563584D01*
X154136254Y-62641605D01*
X154025960Y-62715301D01*
X153947501Y-62619699D01*
X153918504Y-62595902D01*
X147624704Y-56302103D01*
X147602461Y-56275000D01*
X156200016Y-56275000D01*
X156200016Y-56451927D01*
G37*
%TD.AperFunction*%
D26*
X137621928Y-54840000D02*
X137634188Y-54964482D01*
X137670498Y-55084180D01*
X137729463Y-55194494D01*
X137808815Y-55291185D01*
X137905506Y-55370537D01*
X138015820Y-55429502D01*
X138135518Y-55465812D01*
X138260000Y-55478072D01*
X139280000Y-55478072D01*
X139404482Y-55465812D01*
X139524180Y-55429502D01*
X139634494Y-55370537D01*
X139731185Y-55291185D01*
X139810537Y-55194494D01*
X139869502Y-55084180D01*
X139905812Y-54964482D01*
X139918072Y-54840000D01*
X139918072Y-51173100D01*
X140161928Y-51173100D01*
X140161928Y-54840000D01*
X140174188Y-54964482D01*
X140210498Y-55084180D01*
X140269463Y-55194494D01*
X140348815Y-55291185D01*
X140445506Y-55370537D01*
X140546992Y-55424783D01*
X140550000Y-55455322D01*
X140550000Y-55455332D01*
X140560997Y-55566985D01*
X140598918Y-55691997D01*
X140604454Y-55710246D01*
X140675026Y-55842276D01*
X140704184Y-55877805D01*
X140746609Y-55929500D01*
X140737161Y-55941013D01*
X140675026Y-56016724D01*
X140628916Y-56102990D01*
X140604454Y-56148754D01*
X140560997Y-56292015D01*
X140550000Y-56403668D01*
X140550000Y-56403678D01*
X140546324Y-56441000D01*
X140550000Y-56478323D01*
X140550000Y-56553609D01*
X140445506Y-56609463D01*
X140348815Y-56688815D01*
X140269463Y-56785506D01*
X140210498Y-56895820D01*
X140174188Y-57015518D01*
X140161928Y-57140000D01*
X140161928Y-61240000D01*
X140174188Y-61364482D01*
X140210498Y-61484180D01*
X140269463Y-61594494D01*
X140331589Y-61670194D01*
X140242889Y-61742989D01*
X140174226Y-61813349D01*
X140165226Y-61768102D01*
X140087205Y-61579744D01*
X139973937Y-61410226D01*
X139907819Y-61344108D01*
X139918072Y-61240000D01*
X139915000Y-59475750D01*
X139756250Y-59317000D01*
X138897000Y-59317000D01*
X138897000Y-59337000D01*
X138643000Y-59337000D01*
X138643000Y-59317000D01*
X137783750Y-59317000D01*
X137625000Y-59475750D01*
X137622404Y-60966843D01*
X137378072Y-60966843D01*
X137378072Y-57140000D01*
X137621928Y-57140000D01*
X137625000Y-58904250D01*
X137783750Y-59063000D01*
X138643000Y-59063000D01*
X138643000Y-56663750D01*
X138897000Y-56663750D01*
X138897000Y-59063000D01*
X139756250Y-59063000D01*
X139915000Y-58904250D01*
X139918072Y-57140000D01*
X139905812Y-57015518D01*
X139869502Y-56895820D01*
X139810537Y-56785506D01*
X139731185Y-56688815D01*
X139634494Y-56609463D01*
X139524180Y-56550498D01*
X139404482Y-56514188D01*
X139280000Y-56501928D01*
X139055750Y-56505000D01*
X138897000Y-56663750D01*
X138643000Y-56663750D01*
X138484250Y-56505000D01*
X138260000Y-56501928D01*
X138135518Y-56514188D01*
X138015820Y-56550498D01*
X137905506Y-56609463D01*
X137808815Y-56688815D01*
X137729463Y-56785506D01*
X137670498Y-56895820D01*
X137634188Y-57015518D01*
X137621928Y-57140000D01*
X137378072Y-57140000D01*
X137365812Y-57015518D01*
X137329502Y-56895820D01*
X137270537Y-56785506D01*
X137191185Y-56688815D01*
X137094494Y-56609463D01*
X136984180Y-56550498D01*
X136864482Y-56514188D01*
X136740000Y-56501928D01*
X136097400Y-56501928D01*
X136097400Y-55478072D01*
X136740000Y-55478072D01*
X136864482Y-55465812D01*
X136984180Y-55429502D01*
X137094494Y-55370537D01*
X137191185Y-55291185D01*
X137270537Y-55194494D01*
X137329502Y-55084180D01*
X137365812Y-54964482D01*
X137378072Y-54840000D01*
X137378072Y-51173100D01*
X137621928Y-51173100D01*
X137621928Y-54840000D01*
%TA.AperFunction,Conductor*%
D27*
G36*
X137621928Y-54840000D02*
G01*
X137634188Y-54964482D01*
X137670498Y-55084180D01*
X137729463Y-55194494D01*
X137808815Y-55291185D01*
X137905506Y-55370537D01*
X138015820Y-55429502D01*
X138135518Y-55465812D01*
X138260000Y-55478072D01*
X139280000Y-55478072D01*
X139404482Y-55465812D01*
X139524180Y-55429502D01*
X139634494Y-55370537D01*
X139731185Y-55291185D01*
X139810537Y-55194494D01*
X139869502Y-55084180D01*
X139905812Y-54964482D01*
X139918072Y-54840000D01*
X139918072Y-51173100D01*
X140161928Y-51173100D01*
X140161928Y-54840000D01*
X140174188Y-54964482D01*
X140210498Y-55084180D01*
X140269463Y-55194494D01*
X140348815Y-55291185D01*
X140445506Y-55370537D01*
X140546992Y-55424783D01*
X140550000Y-55455322D01*
X140550000Y-55455332D01*
X140560997Y-55566985D01*
X140598918Y-55691997D01*
X140604454Y-55710246D01*
X140675026Y-55842276D01*
X140704184Y-55877805D01*
X140746609Y-55929500D01*
X140737161Y-55941013D01*
X140675026Y-56016724D01*
X140628916Y-56102990D01*
X140604454Y-56148754D01*
X140560997Y-56292015D01*
X140550000Y-56403668D01*
X140550000Y-56403678D01*
X140546324Y-56441000D01*
X140550000Y-56478323D01*
X140550000Y-56553609D01*
X140445506Y-56609463D01*
X140348815Y-56688815D01*
X140269463Y-56785506D01*
X140210498Y-56895820D01*
X140174188Y-57015518D01*
X140161928Y-57140000D01*
X140161928Y-61240000D01*
X140174188Y-61364482D01*
X140210498Y-61484180D01*
X140269463Y-61594494D01*
X140331589Y-61670194D01*
X140242889Y-61742989D01*
X140174226Y-61813349D01*
X140165226Y-61768102D01*
X140087205Y-61579744D01*
X139973937Y-61410226D01*
X139907819Y-61344108D01*
X139918072Y-61240000D01*
X139915000Y-59475750D01*
X139756250Y-59317000D01*
X138897000Y-59317000D01*
X138897000Y-59337000D01*
X138643000Y-59337000D01*
X138643000Y-59317000D01*
X137783750Y-59317000D01*
X137625000Y-59475750D01*
X137622404Y-60966843D01*
X137378072Y-60966843D01*
X137378072Y-57140000D01*
X137621928Y-57140000D01*
X137625000Y-58904250D01*
X137783750Y-59063000D01*
X138643000Y-59063000D01*
X138643000Y-56663750D01*
X138897000Y-56663750D01*
X138897000Y-59063000D01*
X139756250Y-59063000D01*
X139915000Y-58904250D01*
X139918072Y-57140000D01*
X139905812Y-57015518D01*
X139869502Y-56895820D01*
X139810537Y-56785506D01*
X139731185Y-56688815D01*
X139634494Y-56609463D01*
X139524180Y-56550498D01*
X139404482Y-56514188D01*
X139280000Y-56501928D01*
X139055750Y-56505000D01*
X138897000Y-56663750D01*
X138643000Y-56663750D01*
X138484250Y-56505000D01*
X138260000Y-56501928D01*
X138135518Y-56514188D01*
X138015820Y-56550498D01*
X137905506Y-56609463D01*
X137808815Y-56688815D01*
X137729463Y-56785506D01*
X137670498Y-56895820D01*
X137634188Y-57015518D01*
X137621928Y-57140000D01*
X137378072Y-57140000D01*
X137365812Y-57015518D01*
X137329502Y-56895820D01*
X137270537Y-56785506D01*
X137191185Y-56688815D01*
X137094494Y-56609463D01*
X136984180Y-56550498D01*
X136864482Y-56514188D01*
X136740000Y-56501928D01*
X136097400Y-56501928D01*
X136097400Y-55478072D01*
X136740000Y-55478072D01*
X136864482Y-55465812D01*
X136984180Y-55429502D01*
X137094494Y-55370537D01*
X137191185Y-55291185D01*
X137270537Y-55194494D01*
X137329502Y-55084180D01*
X137365812Y-54964482D01*
X137378072Y-54840000D01*
X137378072Y-51173100D01*
X137621928Y-51173100D01*
X137621928Y-54840000D01*
G37*
%TD.AperFunction*%
D26*
X172233316Y-50589574D02*
X172688608Y-50727035D01*
X173108523Y-50950308D01*
X173477076Y-51250893D01*
X173780227Y-51617338D01*
X174006429Y-52035690D01*
X174147064Y-52490008D01*
X174165596Y-52666341D01*
X174044057Y-52372918D01*
X173668138Y-51810315D01*
X173189685Y-51331862D01*
X172627082Y-50955943D01*
X172001952Y-50697006D01*
X171338318Y-50565000D01*
X170661682Y-50565000D01*
X169998048Y-50697006D01*
X169372918Y-50955943D01*
X168810315Y-51331862D01*
X168331862Y-51810315D01*
X167955943Y-52372918D01*
X167697006Y-52998048D01*
X167565000Y-53661682D01*
X167565000Y-53933421D01*
X166315771Y-55182651D01*
X166249978Y-55084185D01*
X166105815Y-54940022D01*
X165936297Y-54826754D01*
X165747939Y-54748733D01*
X165547980Y-54708959D01*
X165485843Y-54708959D01*
X163110000Y-52333117D01*
X163110000Y-51777323D01*
X163113676Y-51740000D01*
X163110000Y-51702677D01*
X163110000Y-51702667D01*
X163099003Y-51591014D01*
X163055546Y-51447753D01*
X163049895Y-51437181D01*
X162984974Y-51315723D01*
X162913799Y-51228997D01*
X162890001Y-51199999D01*
X162861003Y-51176201D01*
X162224802Y-50540000D01*
X171727721Y-50540000D01*
X172233316Y-50589574D01*
%TA.AperFunction,Conductor*%
D27*
G36*
X172233316Y-50589574D02*
G01*
X172688608Y-50727035D01*
X173108523Y-50950308D01*
X173477076Y-51250893D01*
X173780227Y-51617338D01*
X174006429Y-52035690D01*
X174147064Y-52490008D01*
X174165596Y-52666341D01*
X174044057Y-52372918D01*
X173668138Y-51810315D01*
X173189685Y-51331862D01*
X172627082Y-50955943D01*
X172001952Y-50697006D01*
X171338318Y-50565000D01*
X170661682Y-50565000D01*
X169998048Y-50697006D01*
X169372918Y-50955943D01*
X168810315Y-51331862D01*
X168331862Y-51810315D01*
X167955943Y-52372918D01*
X167697006Y-52998048D01*
X167565000Y-53661682D01*
X167565000Y-53933421D01*
X166315771Y-55182651D01*
X166249978Y-55084185D01*
X166105815Y-54940022D01*
X165936297Y-54826754D01*
X165747939Y-54748733D01*
X165547980Y-54708959D01*
X165485843Y-54708959D01*
X163110000Y-52333117D01*
X163110000Y-51777323D01*
X163113676Y-51740000D01*
X163110000Y-51702677D01*
X163110000Y-51702667D01*
X163099003Y-51591014D01*
X163055546Y-51447753D01*
X163049895Y-51437181D01*
X162984974Y-51315723D01*
X162913799Y-51228997D01*
X162890001Y-51199999D01*
X162861003Y-51176201D01*
X162224802Y-50540000D01*
X171727721Y-50540000D01*
X172233316Y-50589574D01*
G37*
%TD.AperFunction*%
D26*
X161590000Y-52054802D02*
X161590000Y-52610596D01*
X161586324Y-52647918D01*
X161590000Y-52685240D01*
X161590000Y-52685250D01*
X161600997Y-52796903D01*
X161628149Y-52886413D01*
X161644454Y-52940164D01*
X161715026Y-53072194D01*
X161746437Y-53110468D01*
X161809999Y-53187919D01*
X161839003Y-53211722D01*
X163132281Y-54505000D01*
X147538072Y-54505000D01*
X147538072Y-51173100D01*
X160708299Y-51173100D01*
X161590000Y-52054802D01*
%TA.AperFunction,Conductor*%
D27*
G36*
X161590000Y-52054802D02*
G01*
X161590000Y-52610596D01*
X161586324Y-52647918D01*
X161590000Y-52685240D01*
X161590000Y-52685250D01*
X161600997Y-52796903D01*
X161628149Y-52886413D01*
X161644454Y-52940164D01*
X161715026Y-53072194D01*
X161746437Y-53110468D01*
X161809999Y-53187919D01*
X161839003Y-53211722D01*
X163132281Y-54505000D01*
X147538072Y-54505000D01*
X147538072Y-51173100D01*
X160708299Y-51173100D01*
X161590000Y-52054802D01*
G37*
%TD.AperFunction*%
%TD*%
M02*
