%TF.GenerationSoftware,KiCad,Pcbnew,5.1.9+dfsg1-1+deb11u1*%
%TF.CreationDate,2025-11-03T12:09:50+01:00*%
%TF.ProjectId,STM32F4XX,53544d33-3246-4345-9858-2e6b69636164,0.4*%
%TF.SameCoordinates,Original*%
%TF.FileFunction,Soldermask,Top*%
%TF.FilePolarity,Negative*%
%FSLAX46Y46*%
G04 Gerber Fmt 4.6, Leading zero omitted, Abs format (unit mm)*
G04 Created by KiCad (PCBNEW 5.1.9+dfsg1-1+deb11u1) date 2025-11-03 12:09:50*
%MOMM*%
%LPD*%
G01*
G04 APERTURE LIST*
%ADD10C,0.800000*%
%ADD11C,0.830000*%
%ADD12O,2.520000X1.362000*%
%ADD13O,2.604000X1.404000*%
%ADD14O,1.900000X1.900000*%
%ADD15C,5.800000*%
%ADD16C,1.000000*%
G04 APERTURE END LIST*
%TO.C,J3*%
G36*
G01*
X169300000Y-74962000D02*
X168300000Y-74962000D01*
G75*
G02*
X168198000Y-74860000I0J102000D01*
G01*
X168198000Y-74340000D01*
G75*
G02*
X168300000Y-74238000I102000J0D01*
G01*
X169300000Y-74238000D01*
G75*
G02*
X169402000Y-74340000I0J-102000D01*
G01*
X169402000Y-74860000D01*
G75*
G02*
X169300000Y-74962000I-102000J0D01*
G01*
G37*
G36*
G01*
X169300000Y-68762000D02*
X168300000Y-68762000D01*
G75*
G02*
X168198000Y-68660000I0J102000D01*
G01*
X168198000Y-68140000D01*
G75*
G02*
X168300000Y-68038000I102000J0D01*
G01*
X169300000Y-68038000D01*
G75*
G02*
X169402000Y-68140000I0J-102000D01*
G01*
X169402000Y-68660000D01*
G75*
G02*
X169300000Y-68762000I-102000J0D01*
G01*
G37*
G36*
G01*
X169300000Y-74212000D02*
X168300000Y-74212000D01*
G75*
G02*
X168198000Y-74110000I0J102000D01*
G01*
X168198000Y-73590000D01*
G75*
G02*
X168300000Y-73488000I102000J0D01*
G01*
X169300000Y-73488000D01*
G75*
G02*
X169402000Y-73590000I0J-102000D01*
G01*
X169402000Y-74110000D01*
G75*
G02*
X169300000Y-74212000I-102000J0D01*
G01*
G37*
G36*
G01*
X169300000Y-69512000D02*
X168300000Y-69512000D01*
G75*
G02*
X168198000Y-69410000I0J102000D01*
G01*
X168198000Y-68890000D01*
G75*
G02*
X168300000Y-68788000I102000J0D01*
G01*
X169300000Y-68788000D01*
G75*
G02*
X169402000Y-68890000I0J-102000D01*
G01*
X169402000Y-69410000D01*
G75*
G02*
X169300000Y-69512000I-102000J0D01*
G01*
G37*
G36*
G01*
X169300000Y-73487000D02*
X168300000Y-73487000D01*
G75*
G02*
X168198000Y-73385000I0J102000D01*
G01*
X168198000Y-73115000D01*
G75*
G02*
X168300000Y-73013000I102000J0D01*
G01*
X169300000Y-73013000D01*
G75*
G02*
X169402000Y-73115000I0J-102000D01*
G01*
X169402000Y-73385000D01*
G75*
G02*
X169300000Y-73487000I-102000J0D01*
G01*
G37*
G36*
G01*
X169300000Y-69987000D02*
X168300000Y-69987000D01*
G75*
G02*
X168198000Y-69885000I0J102000D01*
G01*
X168198000Y-69615000D01*
G75*
G02*
X168300000Y-69513000I102000J0D01*
G01*
X169300000Y-69513000D01*
G75*
G02*
X169402000Y-69615000I0J-102000D01*
G01*
X169402000Y-69885000D01*
G75*
G02*
X169300000Y-69987000I-102000J0D01*
G01*
G37*
G36*
G01*
X169300000Y-72987000D02*
X168300000Y-72987000D01*
G75*
G02*
X168198000Y-72885000I0J102000D01*
G01*
X168198000Y-72615000D01*
G75*
G02*
X168300000Y-72513000I102000J0D01*
G01*
X169300000Y-72513000D01*
G75*
G02*
X169402000Y-72615000I0J-102000D01*
G01*
X169402000Y-72885000D01*
G75*
G02*
X169300000Y-72987000I-102000J0D01*
G01*
G37*
G36*
G01*
X169300000Y-72487000D02*
X168300000Y-72487000D01*
G75*
G02*
X168198000Y-72385000I0J102000D01*
G01*
X168198000Y-72115000D01*
G75*
G02*
X168300000Y-72013000I102000J0D01*
G01*
X169300000Y-72013000D01*
G75*
G02*
X169402000Y-72115000I0J-102000D01*
G01*
X169402000Y-72385000D01*
G75*
G02*
X169300000Y-72487000I-102000J0D01*
G01*
G37*
G36*
G01*
X169300000Y-71987000D02*
X168300000Y-71987000D01*
G75*
G02*
X168198000Y-71885000I0J102000D01*
G01*
X168198000Y-71615000D01*
G75*
G02*
X168300000Y-71513000I102000J0D01*
G01*
X169300000Y-71513000D01*
G75*
G02*
X169402000Y-71615000I0J-102000D01*
G01*
X169402000Y-71885000D01*
G75*
G02*
X169300000Y-71987000I-102000J0D01*
G01*
G37*
G36*
G01*
X169300000Y-71487000D02*
X168300000Y-71487000D01*
G75*
G02*
X168198000Y-71385000I0J102000D01*
G01*
X168198000Y-71115000D01*
G75*
G02*
X168300000Y-71013000I102000J0D01*
G01*
X169300000Y-71013000D01*
G75*
G02*
X169402000Y-71115000I0J-102000D01*
G01*
X169402000Y-71385000D01*
G75*
G02*
X169300000Y-71487000I-102000J0D01*
G01*
G37*
G36*
G01*
X169300000Y-70987000D02*
X168300000Y-70987000D01*
G75*
G02*
X168198000Y-70885000I0J102000D01*
G01*
X168198000Y-70615000D01*
G75*
G02*
X168300000Y-70513000I102000J0D01*
G01*
X169300000Y-70513000D01*
G75*
G02*
X169402000Y-70615000I0J-102000D01*
G01*
X169402000Y-70885000D01*
G75*
G02*
X169300000Y-70987000I-102000J0D01*
G01*
G37*
G36*
G01*
X169300000Y-70487000D02*
X168300000Y-70487000D01*
G75*
G02*
X168198000Y-70385000I0J102000D01*
G01*
X168198000Y-70115000D01*
G75*
G02*
X168300000Y-70013000I102000J0D01*
G01*
X169300000Y-70013000D01*
G75*
G02*
X169402000Y-70115000I0J-102000D01*
G01*
X169402000Y-70385000D01*
G75*
G02*
X169300000Y-70487000I-102000J0D01*
G01*
G37*
D10*
X169900000Y-68500000D03*
D11*
X169900000Y-68500000D03*
G36*
G01*
X174000000Y-73502000D02*
X172000000Y-73502000D01*
G75*
G02*
X171898000Y-73400000I0J102000D01*
G01*
X171898000Y-72400000D01*
G75*
G02*
X172000000Y-72298000I102000J0D01*
G01*
X174000000Y-72298000D01*
G75*
G02*
X174102000Y-72400000I0J-102000D01*
G01*
X174102000Y-73400000D01*
G75*
G02*
X174000000Y-73502000I-102000J0D01*
G01*
G37*
G36*
G01*
X174000000Y-70702000D02*
X172000000Y-70702000D01*
G75*
G02*
X171898000Y-70600000I0J102000D01*
G01*
X171898000Y-69600000D01*
G75*
G02*
X172000000Y-69498000I102000J0D01*
G01*
X174000000Y-69498000D01*
G75*
G02*
X174102000Y-69600000I0J-102000D01*
G01*
X174102000Y-70600000D01*
G75*
G02*
X174000000Y-70702000I-102000J0D01*
G01*
G37*
X169900000Y-74500000D03*
D12*
X169175000Y-75820000D03*
X169175000Y-67180000D03*
D13*
X173000000Y-75820000D03*
X173000000Y-67180000D03*
%TD*%
D14*
%TO.C,J1*%
X170680000Y-86930000D03*
X170680000Y-84390000D03*
G36*
G01*
X169730000Y-82700000D02*
X169730000Y-81000000D01*
G75*
G02*
X169830000Y-80900000I100000J0D01*
G01*
X171530000Y-80900000D01*
G75*
G02*
X171630000Y-81000000I0J-100000D01*
G01*
X171630000Y-82700000D01*
G75*
G02*
X171530000Y-82800000I-100000J0D01*
G01*
X169830000Y-82800000D01*
G75*
G02*
X169730000Y-82700000I0J100000D01*
G01*
G37*
%TD*%
D15*
%TO.C,H2*%
X116000000Y-54000000D03*
%TD*%
%TO.C,H1*%
X171000000Y-54000000D03*
%TD*%
%TO.C,H3*%
X116000000Y-95000000D03*
%TD*%
%TO.C,C1*%
G36*
G01*
X136427367Y-66716046D02*
X136833954Y-67122633D01*
G75*
G02*
X136833954Y-67529219I-203293J-203293D01*
G01*
X136338979Y-68024194D01*
G75*
G02*
X135932393Y-68024194I-203293J203293D01*
G01*
X135525806Y-67617607D01*
G75*
G02*
X135525806Y-67211021I203293J203293D01*
G01*
X136020781Y-66716046D01*
G75*
G02*
X136427367Y-66716046I203293J-203293D01*
G01*
G37*
G36*
G01*
X135207607Y-67935806D02*
X135614194Y-68342393D01*
G75*
G02*
X135614194Y-68748979I-203293J-203293D01*
G01*
X135119219Y-69243954D01*
G75*
G02*
X134712633Y-69243954I-203293J203293D01*
G01*
X134306046Y-68837367D01*
G75*
G02*
X134306046Y-68430781I203293J203293D01*
G01*
X134801021Y-67935806D01*
G75*
G02*
X135207607Y-67935806I203293J-203293D01*
G01*
G37*
%TD*%
%TO.C,C2*%
G36*
G01*
X139677607Y-63475806D02*
X140084194Y-63882393D01*
G75*
G02*
X140084194Y-64288979I-203293J-203293D01*
G01*
X139589219Y-64783954D01*
G75*
G02*
X139182633Y-64783954I-203293J203293D01*
G01*
X138776046Y-64377367D01*
G75*
G02*
X138776046Y-63970781I203293J203293D01*
G01*
X139271021Y-63475806D01*
G75*
G02*
X139677607Y-63475806I203293J-203293D01*
G01*
G37*
G36*
G01*
X140897367Y-62256046D02*
X141303954Y-62662633D01*
G75*
G02*
X141303954Y-63069219I-203293J-203293D01*
G01*
X140808979Y-63564194D01*
G75*
G02*
X140402393Y-63564194I-203293J203293D01*
G01*
X139995806Y-63157607D01*
G75*
G02*
X139995806Y-62751021I203293J203293D01*
G01*
X140490781Y-62256046D01*
G75*
G02*
X140897367Y-62256046I203293J-203293D01*
G01*
G37*
%TD*%
%TO.C,C3*%
G36*
G01*
X153653954Y-68827367D02*
X153247367Y-69233954D01*
G75*
G02*
X152840781Y-69233954I-203293J203293D01*
G01*
X152345806Y-68738979D01*
G75*
G02*
X152345806Y-68332393I203293J203293D01*
G01*
X152752393Y-67925806D01*
G75*
G02*
X153158979Y-67925806I203293J-203293D01*
G01*
X153653954Y-68420781D01*
G75*
G02*
X153653954Y-68827367I-203293J-203293D01*
G01*
G37*
G36*
G01*
X152434194Y-67607607D02*
X152027607Y-68014194D01*
G75*
G02*
X151621021Y-68014194I-203293J203293D01*
G01*
X151126046Y-67519219D01*
G75*
G02*
X151126046Y-67112633I203293J203293D01*
G01*
X151532633Y-66706046D01*
G75*
G02*
X151939219Y-66706046I203293J-203293D01*
G01*
X152434194Y-67201021D01*
G75*
G02*
X152434194Y-67607607I-203293J-203293D01*
G01*
G37*
%TD*%
%TO.C,C4*%
G36*
G01*
X148052393Y-80564194D02*
X147645806Y-80157607D01*
G75*
G02*
X147645806Y-79751021I203293J203293D01*
G01*
X148140781Y-79256046D01*
G75*
G02*
X148547367Y-79256046I203293J-203293D01*
G01*
X148953954Y-79662633D01*
G75*
G02*
X148953954Y-80069219I-203293J-203293D01*
G01*
X148458979Y-80564194D01*
G75*
G02*
X148052393Y-80564194I-203293J203293D01*
G01*
G37*
G36*
G01*
X146832633Y-81783954D02*
X146426046Y-81377367D01*
G75*
G02*
X146426046Y-80970781I203293J203293D01*
G01*
X146921021Y-80475806D01*
G75*
G02*
X147327607Y-80475806I203293J-203293D01*
G01*
X147734194Y-80882393D01*
G75*
G02*
X147734194Y-81288979I-203293J-203293D01*
G01*
X147239219Y-81783954D01*
G75*
G02*
X146832633Y-81783954I-203293J203293D01*
G01*
G37*
%TD*%
%TO.C,C5*%
G36*
G01*
X130112500Y-74975000D02*
X130687500Y-74975000D01*
G75*
G02*
X130975000Y-75262500I0J-287500D01*
G01*
X130975000Y-75962500D01*
G75*
G02*
X130687500Y-76250000I-287500J0D01*
G01*
X130112500Y-76250000D01*
G75*
G02*
X129825000Y-75962500I0J287500D01*
G01*
X129825000Y-75262500D01*
G75*
G02*
X130112500Y-74975000I287500J0D01*
G01*
G37*
G36*
G01*
X130112500Y-73250000D02*
X130687500Y-73250000D01*
G75*
G02*
X130975000Y-73537500I0J-287500D01*
G01*
X130975000Y-74237500D01*
G75*
G02*
X130687500Y-74525000I-287500J0D01*
G01*
X130112500Y-74525000D01*
G75*
G02*
X129825000Y-74237500I0J287500D01*
G01*
X129825000Y-73537500D01*
G75*
G02*
X130112500Y-73250000I287500J0D01*
G01*
G37*
%TD*%
%TO.C,C6*%
G36*
G01*
X132118333Y-72275000D02*
X134101667Y-72275000D01*
G75*
G02*
X134385000Y-72558333I0J-283333D01*
G01*
X134385000Y-73691667D01*
G75*
G02*
X134101667Y-73975000I-283333J0D01*
G01*
X132118333Y-73975000D01*
G75*
G02*
X131835000Y-73691667I0J283333D01*
G01*
X131835000Y-72558333D01*
G75*
G02*
X132118333Y-72275000I283333J0D01*
G01*
G37*
G36*
G01*
X132118333Y-75525000D02*
X134101667Y-75525000D01*
G75*
G02*
X134385000Y-75808333I0J-283333D01*
G01*
X134385000Y-76941667D01*
G75*
G02*
X134101667Y-77225000I-283333J0D01*
G01*
X132118333Y-77225000D01*
G75*
G02*
X131835000Y-76941667I0J283333D01*
G01*
X131835000Y-75808333D01*
G75*
G02*
X132118333Y-75525000I283333J0D01*
G01*
G37*
%TD*%
%TO.C,C7*%
G36*
G01*
X122970000Y-75282500D02*
X122970000Y-75857500D01*
G75*
G02*
X122682500Y-76145000I-287500J0D01*
G01*
X121982500Y-76145000D01*
G75*
G02*
X121695000Y-75857500I0J287500D01*
G01*
X121695000Y-75282500D01*
G75*
G02*
X121982500Y-74995000I287500J0D01*
G01*
X122682500Y-74995000D01*
G75*
G02*
X122970000Y-75282500I0J-287500D01*
G01*
G37*
G36*
G01*
X121245000Y-75282500D02*
X121245000Y-75857500D01*
G75*
G02*
X120957500Y-76145000I-287500J0D01*
G01*
X120257500Y-76145000D01*
G75*
G02*
X119970000Y-75857500I0J287500D01*
G01*
X119970000Y-75282500D01*
G75*
G02*
X120257500Y-74995000I287500J0D01*
G01*
X120957500Y-74995000D01*
G75*
G02*
X121245000Y-75282500I0J-287500D01*
G01*
G37*
%TD*%
%TO.C,C8*%
G36*
G01*
X137913262Y-62263744D02*
X138666256Y-63016738D01*
G75*
G02*
X138666256Y-63430470I-206866J-206866D01*
G01*
X138107716Y-63989010D01*
G75*
G02*
X137693984Y-63989010I-206866J206866D01*
G01*
X136940990Y-63236016D01*
G75*
G02*
X136940990Y-62822284I206866J206866D01*
G01*
X137499530Y-62263744D01*
G75*
G02*
X137913262Y-62263744I206866J-206866D01*
G01*
G37*
G36*
G01*
X136446016Y-63730990D02*
X137199010Y-64483984D01*
G75*
G02*
X137199010Y-64897716I-206866J-206866D01*
G01*
X136640470Y-65456256D01*
G75*
G02*
X136226738Y-65456256I-206866J206866D01*
G01*
X135473744Y-64703262D01*
G75*
G02*
X135473744Y-64289530I206866J206866D01*
G01*
X136032284Y-63730990D01*
G75*
G02*
X136446016Y-63730990I206866J-206866D01*
G01*
G37*
%TD*%
%TO.C,C9*%
G36*
G01*
X146120000Y-71837500D02*
X146120000Y-71262500D01*
G75*
G02*
X146407500Y-70975000I287500J0D01*
G01*
X147107500Y-70975000D01*
G75*
G02*
X147395000Y-71262500I0J-287500D01*
G01*
X147395000Y-71837500D01*
G75*
G02*
X147107500Y-72125000I-287500J0D01*
G01*
X146407500Y-72125000D01*
G75*
G02*
X146120000Y-71837500I0J287500D01*
G01*
G37*
G36*
G01*
X147845000Y-71837500D02*
X147845000Y-71262500D01*
G75*
G02*
X148132500Y-70975000I287500J0D01*
G01*
X148832500Y-70975000D01*
G75*
G02*
X149120000Y-71262500I0J-287500D01*
G01*
X149120000Y-71837500D01*
G75*
G02*
X148832500Y-72125000I-287500J0D01*
G01*
X148132500Y-72125000D01*
G75*
G02*
X147845000Y-71837500I0J287500D01*
G01*
G37*
%TD*%
%TO.C,C10*%
G36*
G01*
X144185000Y-68297500D02*
X144185000Y-67722500D01*
G75*
G02*
X144472500Y-67435000I287500J0D01*
G01*
X145172500Y-67435000D01*
G75*
G02*
X145460000Y-67722500I0J-287500D01*
G01*
X145460000Y-68297500D01*
G75*
G02*
X145172500Y-68585000I-287500J0D01*
G01*
X144472500Y-68585000D01*
G75*
G02*
X144185000Y-68297500I0J287500D01*
G01*
G37*
G36*
G01*
X142460000Y-68297500D02*
X142460000Y-67722500D01*
G75*
G02*
X142747500Y-67435000I287500J0D01*
G01*
X143447500Y-67435000D01*
G75*
G02*
X143735000Y-67722500I0J-287500D01*
G01*
X143735000Y-68297500D01*
G75*
G02*
X143447500Y-68585000I-287500J0D01*
G01*
X142747500Y-68585000D01*
G75*
G02*
X142460000Y-68297500I0J287500D01*
G01*
G37*
%TD*%
%TO.C,C11*%
G36*
G01*
X167270000Y-65477500D02*
X167270000Y-64902500D01*
G75*
G02*
X167557500Y-64615000I287500J0D01*
G01*
X168257500Y-64615000D01*
G75*
G02*
X168545000Y-64902500I0J-287500D01*
G01*
X168545000Y-65477500D01*
G75*
G02*
X168257500Y-65765000I-287500J0D01*
G01*
X167557500Y-65765000D01*
G75*
G02*
X167270000Y-65477500I0J287500D01*
G01*
G37*
G36*
G01*
X168995000Y-65477500D02*
X168995000Y-64902500D01*
G75*
G02*
X169282500Y-64615000I287500J0D01*
G01*
X169982500Y-64615000D01*
G75*
G02*
X170270000Y-64902500I0J-287500D01*
G01*
X170270000Y-65477500D01*
G75*
G02*
X169982500Y-65765000I-287500J0D01*
G01*
X169282500Y-65765000D01*
G75*
G02*
X168995000Y-65477500I0J287500D01*
G01*
G37*
%TD*%
%TO.C,C12*%
G36*
G01*
X162150000Y-77387500D02*
X162150000Y-76812500D01*
G75*
G02*
X162437500Y-76525000I287500J0D01*
G01*
X163137500Y-76525000D01*
G75*
G02*
X163425000Y-76812500I0J-287500D01*
G01*
X163425000Y-77387500D01*
G75*
G02*
X163137500Y-77675000I-287500J0D01*
G01*
X162437500Y-77675000D01*
G75*
G02*
X162150000Y-77387500I0J287500D01*
G01*
G37*
G36*
G01*
X163875000Y-77387500D02*
X163875000Y-76812500D01*
G75*
G02*
X164162500Y-76525000I287500J0D01*
G01*
X164862500Y-76525000D01*
G75*
G02*
X165150000Y-76812500I0J-287500D01*
G01*
X165150000Y-77387500D01*
G75*
G02*
X164862500Y-77675000I-287500J0D01*
G01*
X164162500Y-77675000D01*
G75*
G02*
X163875000Y-77387500I0J287500D01*
G01*
G37*
%TD*%
%TO.C,C13*%
G36*
G01*
X158305000Y-66697500D02*
X158305000Y-66122500D01*
G75*
G02*
X158592500Y-65835000I287500J0D01*
G01*
X159292500Y-65835000D01*
G75*
G02*
X159580000Y-66122500I0J-287500D01*
G01*
X159580000Y-66697500D01*
G75*
G02*
X159292500Y-66985000I-287500J0D01*
G01*
X158592500Y-66985000D01*
G75*
G02*
X158305000Y-66697500I0J287500D01*
G01*
G37*
G36*
G01*
X156580000Y-66697500D02*
X156580000Y-66122500D01*
G75*
G02*
X156867500Y-65835000I287500J0D01*
G01*
X157567500Y-65835000D01*
G75*
G02*
X157855000Y-66122500I0J-287500D01*
G01*
X157855000Y-66697500D01*
G75*
G02*
X157567500Y-66985000I-287500J0D01*
G01*
X156867500Y-66985000D01*
G75*
G02*
X156580000Y-66697500I0J287500D01*
G01*
G37*
%TD*%
%TO.C,C14*%
G36*
G01*
X158975000Y-69921667D02*
X158975000Y-67938333D01*
G75*
G02*
X159258333Y-67655000I283333J0D01*
G01*
X160391667Y-67655000D01*
G75*
G02*
X160675000Y-67938333I0J-283333D01*
G01*
X160675000Y-69921667D01*
G75*
G02*
X160391667Y-70205000I-283333J0D01*
G01*
X159258333Y-70205000D01*
G75*
G02*
X158975000Y-69921667I0J283333D01*
G01*
G37*
G36*
G01*
X155725000Y-69921667D02*
X155725000Y-67938333D01*
G75*
G02*
X156008333Y-67655000I283333J0D01*
G01*
X157141667Y-67655000D01*
G75*
G02*
X157425000Y-67938333I0J-283333D01*
G01*
X157425000Y-69921667D01*
G75*
G02*
X157141667Y-70205000I-283333J0D01*
G01*
X156008333Y-70205000D01*
G75*
G02*
X155725000Y-69921667I0J283333D01*
G01*
G37*
%TD*%
%TO.C,J5*%
G36*
G01*
X145780000Y-54840001D02*
X145780000Y-50739999D01*
G75*
G02*
X145879999Y-50640000I99999J0D01*
G01*
X146900001Y-50640000D01*
G75*
G02*
X147000000Y-50739999I0J-99999D01*
G01*
X147000000Y-54840001D01*
G75*
G02*
X146900001Y-54940000I-99999J0D01*
G01*
X145879999Y-54940000D01*
G75*
G02*
X145780000Y-54840001I0J99999D01*
G01*
G37*
G36*
G01*
X145780000Y-61240001D02*
X145780000Y-57139999D01*
G75*
G02*
X145879999Y-57040000I99999J0D01*
G01*
X146900001Y-57040000D01*
G75*
G02*
X147000000Y-57139999I0J-99999D01*
G01*
X147000000Y-61240001D01*
G75*
G02*
X146900001Y-61340000I-99999J0D01*
G01*
X145879999Y-61340000D01*
G75*
G02*
X145780000Y-61240001I0J99999D01*
G01*
G37*
G36*
G01*
X143240000Y-54840001D02*
X143240000Y-50739999D01*
G75*
G02*
X143339999Y-50640000I99999J0D01*
G01*
X144360001Y-50640000D01*
G75*
G02*
X144460000Y-50739999I0J-99999D01*
G01*
X144460000Y-54840001D01*
G75*
G02*
X144360001Y-54940000I-99999J0D01*
G01*
X143339999Y-54940000D01*
G75*
G02*
X143240000Y-54840001I0J99999D01*
G01*
G37*
G36*
G01*
X143240000Y-61240001D02*
X143240000Y-57139999D01*
G75*
G02*
X143339999Y-57040000I99999J0D01*
G01*
X144360001Y-57040000D01*
G75*
G02*
X144460000Y-57139999I0J-99999D01*
G01*
X144460000Y-61240001D01*
G75*
G02*
X144360001Y-61340000I-99999J0D01*
G01*
X143339999Y-61340000D01*
G75*
G02*
X143240000Y-61240001I0J99999D01*
G01*
G37*
G36*
G01*
X140700000Y-54840001D02*
X140700000Y-50739999D01*
G75*
G02*
X140799999Y-50640000I99999J0D01*
G01*
X141820001Y-50640000D01*
G75*
G02*
X141920000Y-50739999I0J-99999D01*
G01*
X141920000Y-54840001D01*
G75*
G02*
X141820001Y-54940000I-99999J0D01*
G01*
X140799999Y-54940000D01*
G75*
G02*
X140700000Y-54840001I0J99999D01*
G01*
G37*
G36*
G01*
X140700000Y-61240001D02*
X140700000Y-57139999D01*
G75*
G02*
X140799999Y-57040000I99999J0D01*
G01*
X141820001Y-57040000D01*
G75*
G02*
X141920000Y-57139999I0J-99999D01*
G01*
X141920000Y-61240001D01*
G75*
G02*
X141820001Y-61340000I-99999J0D01*
G01*
X140799999Y-61340000D01*
G75*
G02*
X140700000Y-61240001I0J99999D01*
G01*
G37*
G36*
G01*
X138160000Y-54840001D02*
X138160000Y-50739999D01*
G75*
G02*
X138259999Y-50640000I99999J0D01*
G01*
X139280001Y-50640000D01*
G75*
G02*
X139380000Y-50739999I0J-99999D01*
G01*
X139380000Y-54840001D01*
G75*
G02*
X139280001Y-54940000I-99999J0D01*
G01*
X138259999Y-54940000D01*
G75*
G02*
X138160000Y-54840001I0J99999D01*
G01*
G37*
G36*
G01*
X138160000Y-61240001D02*
X138160000Y-57139999D01*
G75*
G02*
X138259999Y-57040000I99999J0D01*
G01*
X139280001Y-57040000D01*
G75*
G02*
X139380000Y-57139999I0J-99999D01*
G01*
X139380000Y-61240001D01*
G75*
G02*
X139280001Y-61340000I-99999J0D01*
G01*
X138259999Y-61340000D01*
G75*
G02*
X138160000Y-61240001I0J99999D01*
G01*
G37*
G36*
G01*
X135620000Y-54840001D02*
X135620000Y-50739999D01*
G75*
G02*
X135719999Y-50640000I99999J0D01*
G01*
X136740001Y-50640000D01*
G75*
G02*
X136840000Y-50739999I0J-99999D01*
G01*
X136840000Y-54840001D01*
G75*
G02*
X136740001Y-54940000I-99999J0D01*
G01*
X135719999Y-54940000D01*
G75*
G02*
X135620000Y-54840001I0J99999D01*
G01*
G37*
G36*
G01*
X135620000Y-61240001D02*
X135620000Y-57139999D01*
G75*
G02*
X135719999Y-57040000I99999J0D01*
G01*
X136740001Y-57040000D01*
G75*
G02*
X136840000Y-57139999I0J-99999D01*
G01*
X136840000Y-61240001D01*
G75*
G02*
X136740001Y-61340000I-99999J0D01*
G01*
X135719999Y-61340000D01*
G75*
G02*
X135620000Y-61240001I0J99999D01*
G01*
G37*
%TD*%
%TO.C,L1*%
G36*
G01*
X127823477Y-73100000D02*
X128836523Y-73100000D01*
G75*
G02*
X129130000Y-73393477I0J-293477D01*
G01*
X129130000Y-74156523D01*
G75*
G02*
X128836523Y-74450000I-293477J0D01*
G01*
X127823477Y-74450000D01*
G75*
G02*
X127530000Y-74156523I0J293477D01*
G01*
X127530000Y-73393477D01*
G75*
G02*
X127823477Y-73100000I293477J0D01*
G01*
G37*
G36*
G01*
X127823477Y-75150000D02*
X128836523Y-75150000D01*
G75*
G02*
X129130000Y-75443477I0J-293477D01*
G01*
X129130000Y-76206523D01*
G75*
G02*
X128836523Y-76500000I-293477J0D01*
G01*
X127823477Y-76500000D01*
G75*
G02*
X127530000Y-76206523I0J293477D01*
G01*
X127530000Y-75443477D01*
G75*
G02*
X127823477Y-75150000I293477J0D01*
G01*
G37*
%TD*%
%TO.C,LD1*%
G36*
G01*
X115790000Y-60729913D02*
X115790000Y-59350087D01*
G75*
G02*
X116075087Y-59065000I285087J0D01*
G01*
X117129913Y-59065000D01*
G75*
G02*
X117415000Y-59350087I0J-285087D01*
G01*
X117415000Y-60729913D01*
G75*
G02*
X117129913Y-61015000I-285087J0D01*
G01*
X116075087Y-61015000D01*
G75*
G02*
X115790000Y-60729913I0J285087D01*
G01*
G37*
G36*
G01*
X118765000Y-60729913D02*
X118765000Y-59350087D01*
G75*
G02*
X119050087Y-59065000I285087J0D01*
G01*
X120104913Y-59065000D01*
G75*
G02*
X120390000Y-59350087I0J-285087D01*
G01*
X120390000Y-60729913D01*
G75*
G02*
X120104913Y-61015000I-285087J0D01*
G01*
X119050087Y-61015000D01*
G75*
G02*
X118765000Y-60729913I0J285087D01*
G01*
G37*
%TD*%
%TO.C,R1*%
G36*
G01*
X124725000Y-72732500D02*
X124725000Y-73307500D01*
G75*
G02*
X124437500Y-73595000I-287500J0D01*
G01*
X123837500Y-73595000D01*
G75*
G02*
X123550000Y-73307500I0J287500D01*
G01*
X123550000Y-72732500D01*
G75*
G02*
X123837500Y-72445000I287500J0D01*
G01*
X124437500Y-72445000D01*
G75*
G02*
X124725000Y-72732500I0J-287500D01*
G01*
G37*
G36*
G01*
X126550000Y-72732500D02*
X126550000Y-73307500D01*
G75*
G02*
X126262500Y-73595000I-287500J0D01*
G01*
X125662500Y-73595000D01*
G75*
G02*
X125375000Y-73307500I0J287500D01*
G01*
X125375000Y-72732500D01*
G75*
G02*
X125662500Y-72445000I287500J0D01*
G01*
X126262500Y-72445000D01*
G75*
G02*
X126550000Y-72732500I0J-287500D01*
G01*
G37*
%TD*%
%TO.C,R2*%
G36*
G01*
X131600000Y-78627500D02*
X131600000Y-78052500D01*
G75*
G02*
X131887500Y-77765000I287500J0D01*
G01*
X132487500Y-77765000D01*
G75*
G02*
X132775000Y-78052500I0J-287500D01*
G01*
X132775000Y-78627500D01*
G75*
G02*
X132487500Y-78915000I-287500J0D01*
G01*
X131887500Y-78915000D01*
G75*
G02*
X131600000Y-78627500I0J287500D01*
G01*
G37*
G36*
G01*
X133425000Y-78627500D02*
X133425000Y-78052500D01*
G75*
G02*
X133712500Y-77765000I287500J0D01*
G01*
X134312500Y-77765000D01*
G75*
G02*
X134600000Y-78052500I0J-287500D01*
G01*
X134600000Y-78627500D01*
G75*
G02*
X134312500Y-78915000I-287500J0D01*
G01*
X133712500Y-78915000D01*
G75*
G02*
X133425000Y-78627500I0J287500D01*
G01*
G37*
%TD*%
%TO.C,R4*%
G36*
G01*
X162000000Y-71187500D02*
X162000000Y-70612500D01*
G75*
G02*
X162287500Y-70325000I287500J0D01*
G01*
X162887500Y-70325000D01*
G75*
G02*
X163175000Y-70612500I0J-287500D01*
G01*
X163175000Y-71187500D01*
G75*
G02*
X162887500Y-71475000I-287500J0D01*
G01*
X162287500Y-71475000D01*
G75*
G02*
X162000000Y-71187500I0J287500D01*
G01*
G37*
G36*
G01*
X163825000Y-71187500D02*
X163825000Y-70612500D01*
G75*
G02*
X164112500Y-70325000I287500J0D01*
G01*
X164712500Y-70325000D01*
G75*
G02*
X165000000Y-70612500I0J-287500D01*
G01*
X165000000Y-71187500D01*
G75*
G02*
X164712500Y-71475000I-287500J0D01*
G01*
X164112500Y-71475000D01*
G75*
G02*
X163825000Y-71187500I0J287500D01*
G01*
G37*
%TD*%
%TO.C,R5*%
G36*
G01*
X163825000Y-72787500D02*
X163825000Y-72212500D01*
G75*
G02*
X164112500Y-71925000I287500J0D01*
G01*
X164712500Y-71925000D01*
G75*
G02*
X165000000Y-72212500I0J-287500D01*
G01*
X165000000Y-72787500D01*
G75*
G02*
X164712500Y-73075000I-287500J0D01*
G01*
X164112500Y-73075000D01*
G75*
G02*
X163825000Y-72787500I0J287500D01*
G01*
G37*
G36*
G01*
X162000000Y-72787500D02*
X162000000Y-72212500D01*
G75*
G02*
X162287500Y-71925000I287500J0D01*
G01*
X162887500Y-71925000D01*
G75*
G02*
X163175000Y-72212500I0J-287500D01*
G01*
X163175000Y-72787500D01*
G75*
G02*
X162887500Y-73075000I-287500J0D01*
G01*
X162287500Y-73075000D01*
G75*
G02*
X162000000Y-72787500I0J287500D01*
G01*
G37*
%TD*%
%TO.C,R7*%
G36*
G01*
X116610000Y-62617500D02*
X116610000Y-62042500D01*
G75*
G02*
X116897500Y-61755000I287500J0D01*
G01*
X117497500Y-61755000D01*
G75*
G02*
X117785000Y-62042500I0J-287500D01*
G01*
X117785000Y-62617500D01*
G75*
G02*
X117497500Y-62905000I-287500J0D01*
G01*
X116897500Y-62905000D01*
G75*
G02*
X116610000Y-62617500I0J287500D01*
G01*
G37*
G36*
G01*
X118435000Y-62617500D02*
X118435000Y-62042500D01*
G75*
G02*
X118722500Y-61755000I287500J0D01*
G01*
X119322500Y-61755000D01*
G75*
G02*
X119610000Y-62042500I0J-287500D01*
G01*
X119610000Y-62617500D01*
G75*
G02*
X119322500Y-62905000I-287500J0D01*
G01*
X118722500Y-62905000D01*
G75*
G02*
X118435000Y-62617500I0J287500D01*
G01*
G37*
%TD*%
%TO.C,SW1*%
G36*
G01*
X117580000Y-79350000D02*
X117580000Y-77850000D01*
G75*
G02*
X117680000Y-77750000I100000J0D01*
G01*
X119380000Y-77750000D01*
G75*
G02*
X119480000Y-77850000I0J-100000D01*
G01*
X119480000Y-79350000D01*
G75*
G02*
X119380000Y-79450000I-100000J0D01*
G01*
X117680000Y-79450000D01*
G75*
G02*
X117580000Y-79350000I0J100000D01*
G01*
G37*
G36*
G01*
X124080000Y-79350000D02*
X124080000Y-77850000D01*
G75*
G02*
X124180000Y-77750000I100000J0D01*
G01*
X125880000Y-77750000D01*
G75*
G02*
X125980000Y-77850000I0J-100000D01*
G01*
X125980000Y-79350000D01*
G75*
G02*
X125880000Y-79450000I-100000J0D01*
G01*
X124180000Y-79450000D01*
G75*
G02*
X124080000Y-79350000I0J100000D01*
G01*
G37*
%TD*%
%TO.C,U2*%
G36*
G01*
X159530000Y-73290000D02*
X155730000Y-73290000D01*
G75*
G02*
X155630000Y-73190000I0J100000D01*
G01*
X155630000Y-71190000D01*
G75*
G02*
X155730000Y-71090000I100000J0D01*
G01*
X159530000Y-71090000D01*
G75*
G02*
X159630000Y-71190000I0J-100000D01*
G01*
X159630000Y-73190000D01*
G75*
G02*
X159530000Y-73290000I-100000J0D01*
G01*
G37*
G36*
G01*
X158380000Y-79590000D02*
X156880000Y-79590000D01*
G75*
G02*
X156780000Y-79490000I0J100000D01*
G01*
X156780000Y-77490000D01*
G75*
G02*
X156880000Y-77390000I100000J0D01*
G01*
X158380000Y-77390000D01*
G75*
G02*
X158480000Y-77490000I0J-100000D01*
G01*
X158480000Y-79490000D01*
G75*
G02*
X158380000Y-79590000I-100000J0D01*
G01*
G37*
G36*
G01*
X160680000Y-79590000D02*
X159180000Y-79590000D01*
G75*
G02*
X159080000Y-79490000I0J100000D01*
G01*
X159080000Y-77490000D01*
G75*
G02*
X159180000Y-77390000I100000J0D01*
G01*
X160680000Y-77390000D01*
G75*
G02*
X160780000Y-77490000I0J-100000D01*
G01*
X160780000Y-79490000D01*
G75*
G02*
X160680000Y-79590000I-100000J0D01*
G01*
G37*
G36*
G01*
X156080000Y-79590000D02*
X154580000Y-79590000D01*
G75*
G02*
X154480000Y-79490000I0J100000D01*
G01*
X154480000Y-77490000D01*
G75*
G02*
X154580000Y-77390000I100000J0D01*
G01*
X156080000Y-77390000D01*
G75*
G02*
X156180000Y-77490000I0J-100000D01*
G01*
X156180000Y-79490000D01*
G75*
G02*
X156080000Y-79590000I-100000J0D01*
G01*
G37*
%TD*%
%TO.C,Y1*%
G36*
G01*
X148154012Y-77039798D02*
X146739798Y-78454012D01*
G75*
G02*
X146598376Y-78454012I-70711J70711D01*
G01*
X143416396Y-75272032D01*
G75*
G02*
X143416396Y-75130610I70711J70711D01*
G01*
X144830610Y-73716396D01*
G75*
G02*
X144972032Y-73716396I70711J-70711D01*
G01*
X148154012Y-76898376D01*
G75*
G02*
X148154012Y-77039798I-70711J-70711D01*
G01*
G37*
G36*
G01*
X142143604Y-71029390D02*
X140729390Y-72443604D01*
G75*
G02*
X140587968Y-72443604I-70711J70711D01*
G01*
X137405988Y-69261624D01*
G75*
G02*
X137405988Y-69120202I70711J70711D01*
G01*
X138820202Y-67705988D01*
G75*
G02*
X138961624Y-67705988I70711J-70711D01*
G01*
X142143604Y-70887968D01*
G75*
G02*
X142143604Y-71029390I-70711J-70711D01*
G01*
G37*
%TD*%
%TO.C,H4*%
X171000000Y-95000000D03*
%TD*%
%TO.C,JP1*%
G36*
G01*
X114460000Y-77300000D02*
X114460000Y-75600000D01*
G75*
G02*
X114560000Y-75500000I100000J0D01*
G01*
X116260000Y-75500000D01*
G75*
G02*
X116360000Y-75600000I0J-100000D01*
G01*
X116360000Y-77300000D01*
G75*
G02*
X116260000Y-77400000I-100000J0D01*
G01*
X114560000Y-77400000D01*
G75*
G02*
X114460000Y-77300000I0J100000D01*
G01*
G37*
D14*
X115410000Y-78990000D03*
%TD*%
%TO.C,LD2*%
G36*
G01*
X113990000Y-84296523D02*
X113990000Y-83283477D01*
G75*
G02*
X114283477Y-82990000I293477J0D01*
G01*
X115046523Y-82990000D01*
G75*
G02*
X115340000Y-83283477I0J-293477D01*
G01*
X115340000Y-84296523D01*
G75*
G02*
X115046523Y-84590000I-293477J0D01*
G01*
X114283477Y-84590000D01*
G75*
G02*
X113990000Y-84296523I0J293477D01*
G01*
G37*
G36*
G01*
X116040000Y-84296523D02*
X116040000Y-83283477D01*
G75*
G02*
X116333477Y-82990000I293477J0D01*
G01*
X117096523Y-82990000D01*
G75*
G02*
X117390000Y-83283477I0J-293477D01*
G01*
X117390000Y-84296523D01*
G75*
G02*
X117096523Y-84590000I-293477J0D01*
G01*
X116333477Y-84590000D01*
G75*
G02*
X116040000Y-84296523I0J293477D01*
G01*
G37*
%TD*%
%TO.C,R8*%
G36*
G01*
X114260000Y-86147500D02*
X114260000Y-85572500D01*
G75*
G02*
X114547500Y-85285000I287500J0D01*
G01*
X115147500Y-85285000D01*
G75*
G02*
X115435000Y-85572500I0J-287500D01*
G01*
X115435000Y-86147500D01*
G75*
G02*
X115147500Y-86435000I-287500J0D01*
G01*
X114547500Y-86435000D01*
G75*
G02*
X114260000Y-86147500I0J287500D01*
G01*
G37*
G36*
G01*
X116085000Y-86147500D02*
X116085000Y-85572500D01*
G75*
G02*
X116372500Y-85285000I287500J0D01*
G01*
X116972500Y-85285000D01*
G75*
G02*
X117260000Y-85572500I0J-287500D01*
G01*
X117260000Y-86147500D01*
G75*
G02*
X116972500Y-86435000I-287500J0D01*
G01*
X116372500Y-86435000D01*
G75*
G02*
X116085000Y-86147500I0J287500D01*
G01*
G37*
%TD*%
%TO.C,R9*%
G36*
G01*
X120407500Y-87130000D02*
X119832500Y-87130000D01*
G75*
G02*
X119545000Y-86842500I0J287500D01*
G01*
X119545000Y-86242500D01*
G75*
G02*
X119832500Y-85955000I287500J0D01*
G01*
X120407500Y-85955000D01*
G75*
G02*
X120695000Y-86242500I0J-287500D01*
G01*
X120695000Y-86842500D01*
G75*
G02*
X120407500Y-87130000I-287500J0D01*
G01*
G37*
G36*
G01*
X120407500Y-85305000D02*
X119832500Y-85305000D01*
G75*
G02*
X119545000Y-85017500I0J287500D01*
G01*
X119545000Y-84417500D01*
G75*
G02*
X119832500Y-84130000I287500J0D01*
G01*
X120407500Y-84130000D01*
G75*
G02*
X120695000Y-84417500I0J-287500D01*
G01*
X120695000Y-85017500D01*
G75*
G02*
X120407500Y-85305000I-287500J0D01*
G01*
G37*
%TD*%
D16*
X141821500Y-55929500D03*
X165250000Y-57500000D03*
X130599100Y-77820000D03*
X153367000Y-67147200D03*
X141250000Y-79865000D03*
X148100000Y-82200000D03*
X161475000Y-69600000D03*
X143110000Y-66500000D03*
X155330000Y-76500000D03*
X134140000Y-67850000D03*
X165000000Y-75500000D03*
X165000000Y-66000000D03*
X144750000Y-70250000D03*
X145012800Y-66963836D03*
X145066203Y-82066203D03*
X143750000Y-79750000D03*
X143750000Y-76500000D03*
X125250000Y-56000000D03*
X146000000Y-74000000D03*
X144000000Y-71750000D03*
X127750000Y-64000000D03*
X149113764Y-71038554D03*
X161080000Y-66230000D03*
X160340000Y-64210000D03*
X160680000Y-62480000D03*
X117950000Y-85860000D03*
X121670000Y-78050000D03*
X139170000Y-62070000D03*
X160760000Y-51310000D03*
X155684800Y-93977900D03*
X154050000Y-67878200D03*
X146720000Y-82602400D03*
X121050000Y-62810000D03*
X141660000Y-62700000D03*
X128310000Y-72390000D03*
X135380000Y-66660000D03*
X140250000Y-56000000D03*
X132820000Y-53550000D03*
X127900000Y-55990000D03*
X133300000Y-65030000D03*
X157650000Y-80870000D03*
X157770000Y-83290000D03*
X145080000Y-83650000D03*
X168610000Y-62190000D03*
X158080000Y-60780000D03*
X127740000Y-92770000D03*
X127770000Y-96570000D03*
X129460000Y-83310000D03*
X132510000Y-92950000D03*
X132490000Y-87380000D03*
X150100000Y-61070000D03*
X150260000Y-56280000D03*
X155870000Y-62240000D03*
X165410000Y-61070000D03*
X160810000Y-54500000D03*
X160790000Y-56340000D03*
X163310000Y-51030000D03*
X167000000Y-54000000D03*
X168500000Y-57000000D03*
X142710000Y-82070000D03*
X126850000Y-86110000D03*
X138785000Y-72215000D03*
X140427238Y-73289344D03*
X142281000Y-74061200D03*
X138000000Y-65000000D03*
X143860000Y-74240000D03*
X141920000Y-72340000D03*
X124651800Y-81392400D03*
X162250000Y-80750000D03*
X154510000Y-87830000D03*
X163769010Y-66919700D03*
X151882000Y-75681500D03*
X153531900Y-84878500D03*
X154416100Y-65008822D03*
X163044000Y-69353800D03*
X156980460Y-63374860D03*
X157235016Y-56349988D03*
X154626510Y-63558810D03*
X132840000Y-59283200D03*
X165446041Y-55743959D03*
X171120000Y-76670000D03*
X125230000Y-95630000D03*
X143974300Y-73214400D03*
X143003200Y-94552300D03*
X128971300Y-85982900D03*
X129364400Y-93000000D03*
X124320000Y-84790000D03*
X127760000Y-90430000D03*
X139734100Y-65632900D03*
X142464500Y-61216100D03*
X143375900Y-69321300D03*
X143595600Y-63062100D03*
X146232200Y-69137100D03*
X143202900Y-61948300D03*
X149822400Y-77794300D03*
X143144400Y-90147400D03*
X147890400Y-78216700D03*
X139378300Y-92753100D03*
X147804600Y-73781800D03*
X148761600Y-84105900D03*
X164193000Y-73662900D03*
X164909000Y-69541900D03*
M02*
