M48
; DRILL file {KiCad 5.1.9+dfsg1-1+deb11u1} date Wed Feb 15 23:18:49 2023
; FORMAT={-:-/ absolute / metric / decimal}
; #@! TF.CreationDate,2023-02-15T23:18:49+01:00
; #@! TF.GenerationSoftware,Kicad,Pcbnew,5.1.9+dfsg1-1+deb11u1
; #@! TF.FileFunction,Plated,1,2,PTH
FMAT,2
METRIC
T1C0.400
T2C1.000
T3C3.200
%
G90
G05
T1
X141.454Y-81.939
X142.2Y-83.83
X142.456Y-81.916
X142.574Y-87.326
X142.587Y-86.229
X142.702Y-106.784
X142.901Y-78.585
X143.44Y-74.417
X144.581Y-80.635
X145.663Y-77.327
X145.679Y-97.103
X145.93Y-79.26
X146.676Y-82.508
X146.9Y-90.62
X147.4Y-76.351
X147.81Y-72.857
X148.14Y-93.993
X149.101Y-82.026
X149.267Y-73.883
X149.387Y-87.313
X149.4Y-88.368
X150.15Y-89.121
X150.353Y-83.464
X150.4Y-93.38
X151.026Y-72.848
X151.06Y-84.172
X151.476Y-71.847
X151.637Y-89.665
X151.709Y-93.383
X152.263Y-87.674
X153.939Y-88.733
X154.242Y-97.103
X154.343Y-80.738
X155.325Y-90.829
X155.461Y-94.39
X156.704Y-89.539
X156.711Y-88.424
X157.704Y-89.575
X165.55Y-98.65
X169.95Y-123.6
X170.55Y-116.05
X173.211Y-120.211
T2
X128.4Y-118.96
X128.4Y-121.5
X129.4Y-58.42
X129.4Y-60.96
X130.94Y-118.96
X130.94Y-121.5
X131.94Y-58.42
X131.94Y-60.96
X133.48Y-118.96
X133.48Y-121.5
X134.48Y-58.42
X134.48Y-60.96
X136.02Y-118.96
X136.02Y-121.5
X137.02Y-58.42
X137.02Y-60.96
X138.56Y-118.96
X138.56Y-121.5
X139.56Y-58.42
X139.56Y-60.96
X141.1Y-118.96
X141.1Y-121.5
X142.1Y-58.42
X142.1Y-60.96
X143.64Y-118.96
X143.64Y-121.5
X144.64Y-58.42
X144.64Y-60.96
X146.18Y-118.96
X146.18Y-121.5
X147.18Y-58.42
X147.18Y-60.96
X148.72Y-118.96
X148.72Y-121.5
X149.72Y-58.42
X149.72Y-60.96
X151.26Y-118.96
X151.26Y-121.5
X152.26Y-58.42
X152.26Y-60.96
X153.8Y-118.96
X153.8Y-121.5
X154.8Y-58.42
X154.8Y-60.96
X156.34Y-118.96
X156.34Y-121.5
X157.34Y-58.42
X157.34Y-60.96
X158.88Y-118.96
X158.88Y-121.5
X159.88Y-58.42
X159.88Y-60.96
X161.42Y-118.96
X161.42Y-121.5
X162.42Y-58.42
X162.42Y-60.96
X163.96Y-118.96
X163.96Y-121.5
X164.96Y-58.42
X164.96Y-60.96
X166.5Y-118.96
X166.5Y-121.5
X167.5Y-58.42
X167.5Y-60.96
X171.76Y-81.64
X171.76Y-84.18
X171.76Y-86.72
X171.76Y-89.26
X171.76Y-91.8
X174.3Y-81.64
X174.3Y-84.18
X174.3Y-86.72
X174.3Y-89.26
X174.3Y-91.8
X175.8Y-114.3
X175.8Y-116.84
X175.8Y-119.38
T3
X120.5Y-59.5
X120.5Y-121.0
X174.0Y-59.5
T0
M30
