%TF.GenerationSoftware,KiCad,Pcbnew,5.1.9+dfsg1-1+deb11u1*%
%TF.CreationDate,2025-11-03T12:09:50+01:00*%
%TF.ProjectId,STM32F4XX,53544d33-3246-4345-9858-2e6b69636164,0.4*%
%TF.SameCoordinates,Original*%
%TF.FileFunction,Soldermask,Bot*%
%TF.FilePolarity,Negative*%
%FSLAX46Y46*%
G04 Gerber Fmt 4.6, Leading zero omitted, Abs format (unit mm)*
G04 Created by KiCad (PCBNEW 5.1.9+dfsg1-1+deb11u1) date 2025-11-03 12:09:50*
%MOMM*%
%LPD*%
G01*
G04 APERTURE LIST*
%ADD10C,0.800000*%
%ADD11C,0.830000*%
%ADD12O,2.520000X1.362000*%
%ADD13O,2.604000X1.404000*%
%ADD14O,1.900000X1.900000*%
%ADD15C,5.800000*%
%ADD16C,1.000000*%
G04 APERTURE END LIST*
D10*
%TO.C,J3*%
X169900000Y-68500000D03*
D11*
X169900000Y-68500000D03*
X169900000Y-74500000D03*
D12*
X169175000Y-75820000D03*
X169175000Y-67180000D03*
D13*
X173000000Y-75820000D03*
X173000000Y-67180000D03*
%TD*%
%TO.C,U1*%
G36*
G01*
X145514735Y-79171587D02*
X144454075Y-78110927D01*
G75*
G02*
X144454075Y-77934151I88388J88388D01*
G01*
X144630851Y-77757375D01*
G75*
G02*
X144807627Y-77757375I88388J-88388D01*
G01*
X145868287Y-78818035D01*
G75*
G02*
X145868287Y-78994811I-88388J-88388D01*
G01*
X145691511Y-79171587D01*
G75*
G02*
X145514735Y-79171587I-88388J88388D01*
G01*
G37*
G36*
G01*
X145868288Y-78818034D02*
X144807628Y-77757374D01*
G75*
G02*
X144807628Y-77580598I88388J88388D01*
G01*
X144984404Y-77403822D01*
G75*
G02*
X145161180Y-77403822I88388J-88388D01*
G01*
X146221840Y-78464482D01*
G75*
G02*
X146221840Y-78641258I-88388J-88388D01*
G01*
X146045064Y-78818034D01*
G75*
G02*
X145868288Y-78818034I-88388J88388D01*
G01*
G37*
G36*
G01*
X146221841Y-78464481D02*
X145161181Y-77403821D01*
G75*
G02*
X145161181Y-77227045I88388J88388D01*
G01*
X145337957Y-77050269D01*
G75*
G02*
X145514733Y-77050269I88388J-88388D01*
G01*
X146575393Y-78110929D01*
G75*
G02*
X146575393Y-78287705I-88388J-88388D01*
G01*
X146398617Y-78464481D01*
G75*
G02*
X146221841Y-78464481I-88388J88388D01*
G01*
G37*
G36*
G01*
X146575395Y-78110927D02*
X145514735Y-77050267D01*
G75*
G02*
X145514735Y-76873491I88388J88388D01*
G01*
X145691511Y-76696715D01*
G75*
G02*
X145868287Y-76696715I88388J-88388D01*
G01*
X146928947Y-77757375D01*
G75*
G02*
X146928947Y-77934151I-88388J-88388D01*
G01*
X146752171Y-78110927D01*
G75*
G02*
X146575395Y-78110927I-88388J88388D01*
G01*
G37*
G36*
G01*
X146928948Y-77757374D02*
X145868288Y-76696714D01*
G75*
G02*
X145868288Y-76519938I88388J88388D01*
G01*
X146045064Y-76343162D01*
G75*
G02*
X146221840Y-76343162I88388J-88388D01*
G01*
X147282500Y-77403822D01*
G75*
G02*
X147282500Y-77580598I-88388J-88388D01*
G01*
X147105724Y-77757374D01*
G75*
G02*
X146928948Y-77757374I-88388J88388D01*
G01*
G37*
G36*
G01*
X147282502Y-77403820D02*
X146221842Y-76343160D01*
G75*
G02*
X146221842Y-76166384I88388J88388D01*
G01*
X146398618Y-75989608D01*
G75*
G02*
X146575394Y-75989608I88388J-88388D01*
G01*
X147636054Y-77050268D01*
G75*
G02*
X147636054Y-77227044I-88388J-88388D01*
G01*
X147459278Y-77403820D01*
G75*
G02*
X147282502Y-77403820I-88388J88388D01*
G01*
G37*
G36*
G01*
X147636055Y-77050267D02*
X146575395Y-75989607D01*
G75*
G02*
X146575395Y-75812831I88388J88388D01*
G01*
X146752171Y-75636055D01*
G75*
G02*
X146928947Y-75636055I88388J-88388D01*
G01*
X147989607Y-76696715D01*
G75*
G02*
X147989607Y-76873491I-88388J-88388D01*
G01*
X147812831Y-77050267D01*
G75*
G02*
X147636055Y-77050267I-88388J88388D01*
G01*
G37*
G36*
G01*
X147989608Y-76696714D02*
X146928948Y-75636054D01*
G75*
G02*
X146928948Y-75459278I88388J88388D01*
G01*
X147105724Y-75282502D01*
G75*
G02*
X147282500Y-75282502I88388J-88388D01*
G01*
X148343160Y-76343162D01*
G75*
G02*
X148343160Y-76519938I-88388J-88388D01*
G01*
X148166384Y-76696714D01*
G75*
G02*
X147989608Y-76696714I-88388J88388D01*
G01*
G37*
G36*
G01*
X148343162Y-76343160D02*
X147282502Y-75282500D01*
G75*
G02*
X147282502Y-75105724I88388J88388D01*
G01*
X147459278Y-74928948D01*
G75*
G02*
X147636054Y-74928948I88388J-88388D01*
G01*
X148696714Y-75989608D01*
G75*
G02*
X148696714Y-76166384I-88388J-88388D01*
G01*
X148519938Y-76343160D01*
G75*
G02*
X148343162Y-76343160I-88388J88388D01*
G01*
G37*
G36*
G01*
X148696715Y-75989607D02*
X147636055Y-74928947D01*
G75*
G02*
X147636055Y-74752171I88388J88388D01*
G01*
X147812831Y-74575395D01*
G75*
G02*
X147989607Y-74575395I88388J-88388D01*
G01*
X149050267Y-75636055D01*
G75*
G02*
X149050267Y-75812831I-88388J-88388D01*
G01*
X148873491Y-75989607D01*
G75*
G02*
X148696715Y-75989607I-88388J88388D01*
G01*
G37*
G36*
G01*
X149050268Y-75636054D02*
X147989608Y-74575394D01*
G75*
G02*
X147989608Y-74398618I88388J88388D01*
G01*
X148166384Y-74221842D01*
G75*
G02*
X148343160Y-74221842I88388J-88388D01*
G01*
X149403820Y-75282502D01*
G75*
G02*
X149403820Y-75459278I-88388J-88388D01*
G01*
X149227044Y-75636054D01*
G75*
G02*
X149050268Y-75636054I-88388J88388D01*
G01*
G37*
G36*
G01*
X149403822Y-75282500D02*
X148343162Y-74221840D01*
G75*
G02*
X148343162Y-74045064I88388J88388D01*
G01*
X148519938Y-73868288D01*
G75*
G02*
X148696714Y-73868288I88388J-88388D01*
G01*
X149757374Y-74928948D01*
G75*
G02*
X149757374Y-75105724I-88388J-88388D01*
G01*
X149580598Y-75282500D01*
G75*
G02*
X149403822Y-75282500I-88388J88388D01*
G01*
G37*
G36*
G01*
X149757375Y-74928947D02*
X148696715Y-73868287D01*
G75*
G02*
X148696715Y-73691511I88388J88388D01*
G01*
X148873491Y-73514735D01*
G75*
G02*
X149050267Y-73514735I88388J-88388D01*
G01*
X150110927Y-74575395D01*
G75*
G02*
X150110927Y-74752171I-88388J-88388D01*
G01*
X149934151Y-74928947D01*
G75*
G02*
X149757375Y-74928947I-88388J88388D01*
G01*
G37*
G36*
G01*
X150110929Y-74575393D02*
X149050269Y-73514733D01*
G75*
G02*
X149050269Y-73337957I88388J88388D01*
G01*
X149227045Y-73161181D01*
G75*
G02*
X149403821Y-73161181I88388J-88388D01*
G01*
X150464481Y-74221841D01*
G75*
G02*
X150464481Y-74398617I-88388J-88388D01*
G01*
X150287705Y-74575393D01*
G75*
G02*
X150110929Y-74575393I-88388J88388D01*
G01*
G37*
G36*
G01*
X150464482Y-74221840D02*
X149403822Y-73161180D01*
G75*
G02*
X149403822Y-72984404I88388J88388D01*
G01*
X149580598Y-72807628D01*
G75*
G02*
X149757374Y-72807628I88388J-88388D01*
G01*
X150818034Y-73868288D01*
G75*
G02*
X150818034Y-74045064I-88388J-88388D01*
G01*
X150641258Y-74221840D01*
G75*
G02*
X150464482Y-74221840I-88388J88388D01*
G01*
G37*
G36*
G01*
X150818035Y-73868287D02*
X149757375Y-72807627D01*
G75*
G02*
X149757375Y-72630851I88388J88388D01*
G01*
X149934151Y-72454075D01*
G75*
G02*
X150110927Y-72454075I88388J-88388D01*
G01*
X151171587Y-73514735D01*
G75*
G02*
X151171587Y-73691511I-88388J-88388D01*
G01*
X150994811Y-73868287D01*
G75*
G02*
X150818035Y-73868287I-88388J88388D01*
G01*
G37*
G36*
G01*
X149934151Y-71145925D02*
X149757375Y-70969149D01*
G75*
G02*
X149757375Y-70792373I88388J88388D01*
G01*
X150818035Y-69731713D01*
G75*
G02*
X150994811Y-69731713I88388J-88388D01*
G01*
X151171587Y-69908489D01*
G75*
G02*
X151171587Y-70085265I-88388J-88388D01*
G01*
X150110927Y-71145925D01*
G75*
G02*
X149934151Y-71145925I-88388J88388D01*
G01*
G37*
G36*
G01*
X149580598Y-70792372D02*
X149403822Y-70615596D01*
G75*
G02*
X149403822Y-70438820I88388J88388D01*
G01*
X150464482Y-69378160D01*
G75*
G02*
X150641258Y-69378160I88388J-88388D01*
G01*
X150818034Y-69554936D01*
G75*
G02*
X150818034Y-69731712I-88388J-88388D01*
G01*
X149757374Y-70792372D01*
G75*
G02*
X149580598Y-70792372I-88388J88388D01*
G01*
G37*
G36*
G01*
X149227045Y-70438819D02*
X149050269Y-70262043D01*
G75*
G02*
X149050269Y-70085267I88388J88388D01*
G01*
X150110929Y-69024607D01*
G75*
G02*
X150287705Y-69024607I88388J-88388D01*
G01*
X150464481Y-69201383D01*
G75*
G02*
X150464481Y-69378159I-88388J-88388D01*
G01*
X149403821Y-70438819D01*
G75*
G02*
X149227045Y-70438819I-88388J88388D01*
G01*
G37*
G36*
G01*
X148873491Y-70085265D02*
X148696715Y-69908489D01*
G75*
G02*
X148696715Y-69731713I88388J88388D01*
G01*
X149757375Y-68671053D01*
G75*
G02*
X149934151Y-68671053I88388J-88388D01*
G01*
X150110927Y-68847829D01*
G75*
G02*
X150110927Y-69024605I-88388J-88388D01*
G01*
X149050267Y-70085265D01*
G75*
G02*
X148873491Y-70085265I-88388J88388D01*
G01*
G37*
G36*
G01*
X148519938Y-69731712D02*
X148343162Y-69554936D01*
G75*
G02*
X148343162Y-69378160I88388J88388D01*
G01*
X149403822Y-68317500D01*
G75*
G02*
X149580598Y-68317500I88388J-88388D01*
G01*
X149757374Y-68494276D01*
G75*
G02*
X149757374Y-68671052I-88388J-88388D01*
G01*
X148696714Y-69731712D01*
G75*
G02*
X148519938Y-69731712I-88388J88388D01*
G01*
G37*
G36*
G01*
X148166384Y-69378158D02*
X147989608Y-69201382D01*
G75*
G02*
X147989608Y-69024606I88388J88388D01*
G01*
X149050268Y-67963946D01*
G75*
G02*
X149227044Y-67963946I88388J-88388D01*
G01*
X149403820Y-68140722D01*
G75*
G02*
X149403820Y-68317498I-88388J-88388D01*
G01*
X148343160Y-69378158D01*
G75*
G02*
X148166384Y-69378158I-88388J88388D01*
G01*
G37*
G36*
G01*
X147812831Y-69024605D02*
X147636055Y-68847829D01*
G75*
G02*
X147636055Y-68671053I88388J88388D01*
G01*
X148696715Y-67610393D01*
G75*
G02*
X148873491Y-67610393I88388J-88388D01*
G01*
X149050267Y-67787169D01*
G75*
G02*
X149050267Y-67963945I-88388J-88388D01*
G01*
X147989607Y-69024605D01*
G75*
G02*
X147812831Y-69024605I-88388J88388D01*
G01*
G37*
G36*
G01*
X147459278Y-68671052D02*
X147282502Y-68494276D01*
G75*
G02*
X147282502Y-68317500I88388J88388D01*
G01*
X148343162Y-67256840D01*
G75*
G02*
X148519938Y-67256840I88388J-88388D01*
G01*
X148696714Y-67433616D01*
G75*
G02*
X148696714Y-67610392I-88388J-88388D01*
G01*
X147636054Y-68671052D01*
G75*
G02*
X147459278Y-68671052I-88388J88388D01*
G01*
G37*
G36*
G01*
X147105724Y-68317498D02*
X146928948Y-68140722D01*
G75*
G02*
X146928948Y-67963946I88388J88388D01*
G01*
X147989608Y-66903286D01*
G75*
G02*
X148166384Y-66903286I88388J-88388D01*
G01*
X148343160Y-67080062D01*
G75*
G02*
X148343160Y-67256838I-88388J-88388D01*
G01*
X147282500Y-68317498D01*
G75*
G02*
X147105724Y-68317498I-88388J88388D01*
G01*
G37*
G36*
G01*
X146752171Y-67963945D02*
X146575395Y-67787169D01*
G75*
G02*
X146575395Y-67610393I88388J88388D01*
G01*
X147636055Y-66549733D01*
G75*
G02*
X147812831Y-66549733I88388J-88388D01*
G01*
X147989607Y-66726509D01*
G75*
G02*
X147989607Y-66903285I-88388J-88388D01*
G01*
X146928947Y-67963945D01*
G75*
G02*
X146752171Y-67963945I-88388J88388D01*
G01*
G37*
G36*
G01*
X146398618Y-67610392D02*
X146221842Y-67433616D01*
G75*
G02*
X146221842Y-67256840I88388J88388D01*
G01*
X147282502Y-66196180D01*
G75*
G02*
X147459278Y-66196180I88388J-88388D01*
G01*
X147636054Y-66372956D01*
G75*
G02*
X147636054Y-66549732I-88388J-88388D01*
G01*
X146575394Y-67610392D01*
G75*
G02*
X146398618Y-67610392I-88388J88388D01*
G01*
G37*
G36*
G01*
X146045064Y-67256838D02*
X145868288Y-67080062D01*
G75*
G02*
X145868288Y-66903286I88388J88388D01*
G01*
X146928948Y-65842626D01*
G75*
G02*
X147105724Y-65842626I88388J-88388D01*
G01*
X147282500Y-66019402D01*
G75*
G02*
X147282500Y-66196178I-88388J-88388D01*
G01*
X146221840Y-67256838D01*
G75*
G02*
X146045064Y-67256838I-88388J88388D01*
G01*
G37*
G36*
G01*
X145691511Y-66903285D02*
X145514735Y-66726509D01*
G75*
G02*
X145514735Y-66549733I88388J88388D01*
G01*
X146575395Y-65489073D01*
G75*
G02*
X146752171Y-65489073I88388J-88388D01*
G01*
X146928947Y-65665849D01*
G75*
G02*
X146928947Y-65842625I-88388J-88388D01*
G01*
X145868287Y-66903285D01*
G75*
G02*
X145691511Y-66903285I-88388J88388D01*
G01*
G37*
G36*
G01*
X145337957Y-66549731D02*
X145161181Y-66372955D01*
G75*
G02*
X145161181Y-66196179I88388J88388D01*
G01*
X146221841Y-65135519D01*
G75*
G02*
X146398617Y-65135519I88388J-88388D01*
G01*
X146575393Y-65312295D01*
G75*
G02*
X146575393Y-65489071I-88388J-88388D01*
G01*
X145514733Y-66549731D01*
G75*
G02*
X145337957Y-66549731I-88388J88388D01*
G01*
G37*
G36*
G01*
X144984404Y-66196178D02*
X144807628Y-66019402D01*
G75*
G02*
X144807628Y-65842626I88388J88388D01*
G01*
X145868288Y-64781966D01*
G75*
G02*
X146045064Y-64781966I88388J-88388D01*
G01*
X146221840Y-64958742D01*
G75*
G02*
X146221840Y-65135518I-88388J-88388D01*
G01*
X145161180Y-66196178D01*
G75*
G02*
X144984404Y-66196178I-88388J88388D01*
G01*
G37*
G36*
G01*
X144630851Y-65842625D02*
X144454075Y-65665849D01*
G75*
G02*
X144454075Y-65489073I88388J88388D01*
G01*
X145514735Y-64428413D01*
G75*
G02*
X145691511Y-64428413I88388J-88388D01*
G01*
X145868287Y-64605189D01*
G75*
G02*
X145868287Y-64781965I-88388J-88388D01*
G01*
X144807627Y-65842625D01*
G75*
G02*
X144630851Y-65842625I-88388J88388D01*
G01*
G37*
G36*
G01*
X142792373Y-65842625D02*
X141731713Y-64781965D01*
G75*
G02*
X141731713Y-64605189I88388J88388D01*
G01*
X141908489Y-64428413D01*
G75*
G02*
X142085265Y-64428413I88388J-88388D01*
G01*
X143145925Y-65489073D01*
G75*
G02*
X143145925Y-65665849I-88388J-88388D01*
G01*
X142969149Y-65842625D01*
G75*
G02*
X142792373Y-65842625I-88388J88388D01*
G01*
G37*
G36*
G01*
X142438820Y-66196178D02*
X141378160Y-65135518D01*
G75*
G02*
X141378160Y-64958742I88388J88388D01*
G01*
X141554936Y-64781966D01*
G75*
G02*
X141731712Y-64781966I88388J-88388D01*
G01*
X142792372Y-65842626D01*
G75*
G02*
X142792372Y-66019402I-88388J-88388D01*
G01*
X142615596Y-66196178D01*
G75*
G02*
X142438820Y-66196178I-88388J88388D01*
G01*
G37*
G36*
G01*
X142085267Y-66549731D02*
X141024607Y-65489071D01*
G75*
G02*
X141024607Y-65312295I88388J88388D01*
G01*
X141201383Y-65135519D01*
G75*
G02*
X141378159Y-65135519I88388J-88388D01*
G01*
X142438819Y-66196179D01*
G75*
G02*
X142438819Y-66372955I-88388J-88388D01*
G01*
X142262043Y-66549731D01*
G75*
G02*
X142085267Y-66549731I-88388J88388D01*
G01*
G37*
G36*
G01*
X141731713Y-66903285D02*
X140671053Y-65842625D01*
G75*
G02*
X140671053Y-65665849I88388J88388D01*
G01*
X140847829Y-65489073D01*
G75*
G02*
X141024605Y-65489073I88388J-88388D01*
G01*
X142085265Y-66549733D01*
G75*
G02*
X142085265Y-66726509I-88388J-88388D01*
G01*
X141908489Y-66903285D01*
G75*
G02*
X141731713Y-66903285I-88388J88388D01*
G01*
G37*
G36*
G01*
X141378160Y-67256838D02*
X140317500Y-66196178D01*
G75*
G02*
X140317500Y-66019402I88388J88388D01*
G01*
X140494276Y-65842626D01*
G75*
G02*
X140671052Y-65842626I88388J-88388D01*
G01*
X141731712Y-66903286D01*
G75*
G02*
X141731712Y-67080062I-88388J-88388D01*
G01*
X141554936Y-67256838D01*
G75*
G02*
X141378160Y-67256838I-88388J88388D01*
G01*
G37*
G36*
G01*
X141024606Y-67610392D02*
X139963946Y-66549732D01*
G75*
G02*
X139963946Y-66372956I88388J88388D01*
G01*
X140140722Y-66196180D01*
G75*
G02*
X140317498Y-66196180I88388J-88388D01*
G01*
X141378158Y-67256840D01*
G75*
G02*
X141378158Y-67433616I-88388J-88388D01*
G01*
X141201382Y-67610392D01*
G75*
G02*
X141024606Y-67610392I-88388J88388D01*
G01*
G37*
G36*
G01*
X140671053Y-67963945D02*
X139610393Y-66903285D01*
G75*
G02*
X139610393Y-66726509I88388J88388D01*
G01*
X139787169Y-66549733D01*
G75*
G02*
X139963945Y-66549733I88388J-88388D01*
G01*
X141024605Y-67610393D01*
G75*
G02*
X141024605Y-67787169I-88388J-88388D01*
G01*
X140847829Y-67963945D01*
G75*
G02*
X140671053Y-67963945I-88388J88388D01*
G01*
G37*
G36*
G01*
X140317500Y-68317498D02*
X139256840Y-67256838D01*
G75*
G02*
X139256840Y-67080062I88388J88388D01*
G01*
X139433616Y-66903286D01*
G75*
G02*
X139610392Y-66903286I88388J-88388D01*
G01*
X140671052Y-67963946D01*
G75*
G02*
X140671052Y-68140722I-88388J-88388D01*
G01*
X140494276Y-68317498D01*
G75*
G02*
X140317500Y-68317498I-88388J88388D01*
G01*
G37*
G36*
G01*
X139963946Y-68671052D02*
X138903286Y-67610392D01*
G75*
G02*
X138903286Y-67433616I88388J88388D01*
G01*
X139080062Y-67256840D01*
G75*
G02*
X139256838Y-67256840I88388J-88388D01*
G01*
X140317498Y-68317500D01*
G75*
G02*
X140317498Y-68494276I-88388J-88388D01*
G01*
X140140722Y-68671052D01*
G75*
G02*
X139963946Y-68671052I-88388J88388D01*
G01*
G37*
G36*
G01*
X139610393Y-69024605D02*
X138549733Y-67963945D01*
G75*
G02*
X138549733Y-67787169I88388J88388D01*
G01*
X138726509Y-67610393D01*
G75*
G02*
X138903285Y-67610393I88388J-88388D01*
G01*
X139963945Y-68671053D01*
G75*
G02*
X139963945Y-68847829I-88388J-88388D01*
G01*
X139787169Y-69024605D01*
G75*
G02*
X139610393Y-69024605I-88388J88388D01*
G01*
G37*
G36*
G01*
X139256840Y-69378158D02*
X138196180Y-68317498D01*
G75*
G02*
X138196180Y-68140722I88388J88388D01*
G01*
X138372956Y-67963946D01*
G75*
G02*
X138549732Y-67963946I88388J-88388D01*
G01*
X139610392Y-69024606D01*
G75*
G02*
X139610392Y-69201382I-88388J-88388D01*
G01*
X139433616Y-69378158D01*
G75*
G02*
X139256840Y-69378158I-88388J88388D01*
G01*
G37*
G36*
G01*
X138903286Y-69731712D02*
X137842626Y-68671052D01*
G75*
G02*
X137842626Y-68494276I88388J88388D01*
G01*
X138019402Y-68317500D01*
G75*
G02*
X138196178Y-68317500I88388J-88388D01*
G01*
X139256838Y-69378160D01*
G75*
G02*
X139256838Y-69554936I-88388J-88388D01*
G01*
X139080062Y-69731712D01*
G75*
G02*
X138903286Y-69731712I-88388J88388D01*
G01*
G37*
G36*
G01*
X138549733Y-70085265D02*
X137489073Y-69024605D01*
G75*
G02*
X137489073Y-68847829I88388J88388D01*
G01*
X137665849Y-68671053D01*
G75*
G02*
X137842625Y-68671053I88388J-88388D01*
G01*
X138903285Y-69731713D01*
G75*
G02*
X138903285Y-69908489I-88388J-88388D01*
G01*
X138726509Y-70085265D01*
G75*
G02*
X138549733Y-70085265I-88388J88388D01*
G01*
G37*
G36*
G01*
X138196179Y-70438819D02*
X137135519Y-69378159D01*
G75*
G02*
X137135519Y-69201383I88388J88388D01*
G01*
X137312295Y-69024607D01*
G75*
G02*
X137489071Y-69024607I88388J-88388D01*
G01*
X138549731Y-70085267D01*
G75*
G02*
X138549731Y-70262043I-88388J-88388D01*
G01*
X138372955Y-70438819D01*
G75*
G02*
X138196179Y-70438819I-88388J88388D01*
G01*
G37*
G36*
G01*
X137842626Y-70792372D02*
X136781966Y-69731712D01*
G75*
G02*
X136781966Y-69554936I88388J88388D01*
G01*
X136958742Y-69378160D01*
G75*
G02*
X137135518Y-69378160I88388J-88388D01*
G01*
X138196178Y-70438820D01*
G75*
G02*
X138196178Y-70615596I-88388J-88388D01*
G01*
X138019402Y-70792372D01*
G75*
G02*
X137842626Y-70792372I-88388J88388D01*
G01*
G37*
G36*
G01*
X137489073Y-71145925D02*
X136428413Y-70085265D01*
G75*
G02*
X136428413Y-69908489I88388J88388D01*
G01*
X136605189Y-69731713D01*
G75*
G02*
X136781965Y-69731713I88388J-88388D01*
G01*
X137842625Y-70792373D01*
G75*
G02*
X137842625Y-70969149I-88388J-88388D01*
G01*
X137665849Y-71145925D01*
G75*
G02*
X137489073Y-71145925I-88388J88388D01*
G01*
G37*
G36*
G01*
X136605189Y-73868287D02*
X136428413Y-73691511D01*
G75*
G02*
X136428413Y-73514735I88388J88388D01*
G01*
X137489073Y-72454075D01*
G75*
G02*
X137665849Y-72454075I88388J-88388D01*
G01*
X137842625Y-72630851D01*
G75*
G02*
X137842625Y-72807627I-88388J-88388D01*
G01*
X136781965Y-73868287D01*
G75*
G02*
X136605189Y-73868287I-88388J88388D01*
G01*
G37*
G36*
G01*
X136958742Y-74221840D02*
X136781966Y-74045064D01*
G75*
G02*
X136781966Y-73868288I88388J88388D01*
G01*
X137842626Y-72807628D01*
G75*
G02*
X138019402Y-72807628I88388J-88388D01*
G01*
X138196178Y-72984404D01*
G75*
G02*
X138196178Y-73161180I-88388J-88388D01*
G01*
X137135518Y-74221840D01*
G75*
G02*
X136958742Y-74221840I-88388J88388D01*
G01*
G37*
G36*
G01*
X137312295Y-74575393D02*
X137135519Y-74398617D01*
G75*
G02*
X137135519Y-74221841I88388J88388D01*
G01*
X138196179Y-73161181D01*
G75*
G02*
X138372955Y-73161181I88388J-88388D01*
G01*
X138549731Y-73337957D01*
G75*
G02*
X138549731Y-73514733I-88388J-88388D01*
G01*
X137489071Y-74575393D01*
G75*
G02*
X137312295Y-74575393I-88388J88388D01*
G01*
G37*
G36*
G01*
X137665849Y-74928947D02*
X137489073Y-74752171D01*
G75*
G02*
X137489073Y-74575395I88388J88388D01*
G01*
X138549733Y-73514735D01*
G75*
G02*
X138726509Y-73514735I88388J-88388D01*
G01*
X138903285Y-73691511D01*
G75*
G02*
X138903285Y-73868287I-88388J-88388D01*
G01*
X137842625Y-74928947D01*
G75*
G02*
X137665849Y-74928947I-88388J88388D01*
G01*
G37*
G36*
G01*
X138019402Y-75282500D02*
X137842626Y-75105724D01*
G75*
G02*
X137842626Y-74928948I88388J88388D01*
G01*
X138903286Y-73868288D01*
G75*
G02*
X139080062Y-73868288I88388J-88388D01*
G01*
X139256838Y-74045064D01*
G75*
G02*
X139256838Y-74221840I-88388J-88388D01*
G01*
X138196178Y-75282500D01*
G75*
G02*
X138019402Y-75282500I-88388J88388D01*
G01*
G37*
G36*
G01*
X138372956Y-75636054D02*
X138196180Y-75459278D01*
G75*
G02*
X138196180Y-75282502I88388J88388D01*
G01*
X139256840Y-74221842D01*
G75*
G02*
X139433616Y-74221842I88388J-88388D01*
G01*
X139610392Y-74398618D01*
G75*
G02*
X139610392Y-74575394I-88388J-88388D01*
G01*
X138549732Y-75636054D01*
G75*
G02*
X138372956Y-75636054I-88388J88388D01*
G01*
G37*
G36*
G01*
X138726509Y-75989607D02*
X138549733Y-75812831D01*
G75*
G02*
X138549733Y-75636055I88388J88388D01*
G01*
X139610393Y-74575395D01*
G75*
G02*
X139787169Y-74575395I88388J-88388D01*
G01*
X139963945Y-74752171D01*
G75*
G02*
X139963945Y-74928947I-88388J-88388D01*
G01*
X138903285Y-75989607D01*
G75*
G02*
X138726509Y-75989607I-88388J88388D01*
G01*
G37*
G36*
G01*
X139080062Y-76343160D02*
X138903286Y-76166384D01*
G75*
G02*
X138903286Y-75989608I88388J88388D01*
G01*
X139963946Y-74928948D01*
G75*
G02*
X140140722Y-74928948I88388J-88388D01*
G01*
X140317498Y-75105724D01*
G75*
G02*
X140317498Y-75282500I-88388J-88388D01*
G01*
X139256838Y-76343160D01*
G75*
G02*
X139080062Y-76343160I-88388J88388D01*
G01*
G37*
G36*
G01*
X139433616Y-76696714D02*
X139256840Y-76519938D01*
G75*
G02*
X139256840Y-76343162I88388J88388D01*
G01*
X140317500Y-75282502D01*
G75*
G02*
X140494276Y-75282502I88388J-88388D01*
G01*
X140671052Y-75459278D01*
G75*
G02*
X140671052Y-75636054I-88388J-88388D01*
G01*
X139610392Y-76696714D01*
G75*
G02*
X139433616Y-76696714I-88388J88388D01*
G01*
G37*
G36*
G01*
X139787169Y-77050267D02*
X139610393Y-76873491D01*
G75*
G02*
X139610393Y-76696715I88388J88388D01*
G01*
X140671053Y-75636055D01*
G75*
G02*
X140847829Y-75636055I88388J-88388D01*
G01*
X141024605Y-75812831D01*
G75*
G02*
X141024605Y-75989607I-88388J-88388D01*
G01*
X139963945Y-77050267D01*
G75*
G02*
X139787169Y-77050267I-88388J88388D01*
G01*
G37*
G36*
G01*
X140140722Y-77403820D02*
X139963946Y-77227044D01*
G75*
G02*
X139963946Y-77050268I88388J88388D01*
G01*
X141024606Y-75989608D01*
G75*
G02*
X141201382Y-75989608I88388J-88388D01*
G01*
X141378158Y-76166384D01*
G75*
G02*
X141378158Y-76343160I-88388J-88388D01*
G01*
X140317498Y-77403820D01*
G75*
G02*
X140140722Y-77403820I-88388J88388D01*
G01*
G37*
G36*
G01*
X140494276Y-77757374D02*
X140317500Y-77580598D01*
G75*
G02*
X140317500Y-77403822I88388J88388D01*
G01*
X141378160Y-76343162D01*
G75*
G02*
X141554936Y-76343162I88388J-88388D01*
G01*
X141731712Y-76519938D01*
G75*
G02*
X141731712Y-76696714I-88388J-88388D01*
G01*
X140671052Y-77757374D01*
G75*
G02*
X140494276Y-77757374I-88388J88388D01*
G01*
G37*
G36*
G01*
X140847829Y-78110927D02*
X140671053Y-77934151D01*
G75*
G02*
X140671053Y-77757375I88388J88388D01*
G01*
X141731713Y-76696715D01*
G75*
G02*
X141908489Y-76696715I88388J-88388D01*
G01*
X142085265Y-76873491D01*
G75*
G02*
X142085265Y-77050267I-88388J-88388D01*
G01*
X141024605Y-78110927D01*
G75*
G02*
X140847829Y-78110927I-88388J88388D01*
G01*
G37*
G36*
G01*
X141201383Y-78464481D02*
X141024607Y-78287705D01*
G75*
G02*
X141024607Y-78110929I88388J88388D01*
G01*
X142085267Y-77050269D01*
G75*
G02*
X142262043Y-77050269I88388J-88388D01*
G01*
X142438819Y-77227045D01*
G75*
G02*
X142438819Y-77403821I-88388J-88388D01*
G01*
X141378159Y-78464481D01*
G75*
G02*
X141201383Y-78464481I-88388J88388D01*
G01*
G37*
G36*
G01*
X141554936Y-78818034D02*
X141378160Y-78641258D01*
G75*
G02*
X141378160Y-78464482I88388J88388D01*
G01*
X142438820Y-77403822D01*
G75*
G02*
X142615596Y-77403822I88388J-88388D01*
G01*
X142792372Y-77580598D01*
G75*
G02*
X142792372Y-77757374I-88388J-88388D01*
G01*
X141731712Y-78818034D01*
G75*
G02*
X141554936Y-78818034I-88388J88388D01*
G01*
G37*
G36*
G01*
X141908489Y-79171587D02*
X141731713Y-78994811D01*
G75*
G02*
X141731713Y-78818035I88388J88388D01*
G01*
X142792373Y-77757375D01*
G75*
G02*
X142969149Y-77757375I88388J-88388D01*
G01*
X143145925Y-77934151D01*
G75*
G02*
X143145925Y-78110927I-88388J-88388D01*
G01*
X142085265Y-79171587D01*
G75*
G02*
X141908489Y-79171587I-88388J88388D01*
G01*
G37*
%TD*%
D14*
%TO.C,J1*%
X170680000Y-86930000D03*
X170680000Y-84390000D03*
G36*
G01*
X169730000Y-82700000D02*
X169730000Y-81000000D01*
G75*
G02*
X169830000Y-80900000I100000J0D01*
G01*
X171530000Y-80900000D01*
G75*
G02*
X171630000Y-81000000I0J-100000D01*
G01*
X171630000Y-82700000D01*
G75*
G02*
X171530000Y-82800000I-100000J0D01*
G01*
X169830000Y-82800000D01*
G75*
G02*
X169730000Y-82700000I0J100000D01*
G01*
G37*
%TD*%
D15*
%TO.C,H2*%
X116000000Y-54000000D03*
%TD*%
%TO.C,H1*%
X171000000Y-54000000D03*
%TD*%
%TO.C,H3*%
X116000000Y-95000000D03*
%TD*%
%TO.C,R3*%
G36*
G01*
X162000000Y-72787500D02*
X162000000Y-72212500D01*
G75*
G02*
X162287500Y-71925000I287500J0D01*
G01*
X162887500Y-71925000D01*
G75*
G02*
X163175000Y-72212500I0J-287500D01*
G01*
X163175000Y-72787500D01*
G75*
G02*
X162887500Y-73075000I-287500J0D01*
G01*
X162287500Y-73075000D01*
G75*
G02*
X162000000Y-72787500I0J287500D01*
G01*
G37*
G36*
G01*
X163825000Y-72787500D02*
X163825000Y-72212500D01*
G75*
G02*
X164112500Y-71925000I287500J0D01*
G01*
X164712500Y-71925000D01*
G75*
G02*
X165000000Y-72212500I0J-287500D01*
G01*
X165000000Y-72787500D01*
G75*
G02*
X164712500Y-73075000I-287500J0D01*
G01*
X164112500Y-73075000D01*
G75*
G02*
X163825000Y-72787500I0J287500D01*
G01*
G37*
%TD*%
%TO.C,R6*%
G36*
G01*
X163175000Y-70612500D02*
X163175000Y-71187500D01*
G75*
G02*
X162887500Y-71475000I-287500J0D01*
G01*
X162287500Y-71475000D01*
G75*
G02*
X162000000Y-71187500I0J287500D01*
G01*
X162000000Y-70612500D01*
G75*
G02*
X162287500Y-70325000I287500J0D01*
G01*
X162887500Y-70325000D01*
G75*
G02*
X163175000Y-70612500I0J-287500D01*
G01*
G37*
G36*
G01*
X165000000Y-70612500D02*
X165000000Y-71187500D01*
G75*
G02*
X164712500Y-71475000I-287500J0D01*
G01*
X164112500Y-71475000D01*
G75*
G02*
X163825000Y-71187500I0J287500D01*
G01*
X163825000Y-70612500D01*
G75*
G02*
X164112500Y-70325000I287500J0D01*
G01*
X164712500Y-70325000D01*
G75*
G02*
X165000000Y-70612500I0J-287500D01*
G01*
G37*
%TD*%
%TO.C,J2*%
G36*
G01*
X162550000Y-97200000D02*
X161550000Y-97200000D01*
G75*
G02*
X161450000Y-97100000I0J100000D01*
G01*
X161450000Y-93950000D01*
G75*
G02*
X161550000Y-93850000I100000J0D01*
G01*
X162550000Y-93850000D01*
G75*
G02*
X162650000Y-93950000I0J-100000D01*
G01*
X162650000Y-97100000D01*
G75*
G02*
X162550000Y-97200000I-100000J0D01*
G01*
G37*
G36*
G01*
X162550000Y-92150000D02*
X161550000Y-92150000D01*
G75*
G02*
X161450000Y-92050000I0J100000D01*
G01*
X161450000Y-88900000D01*
G75*
G02*
X161550000Y-88800000I100000J0D01*
G01*
X162550000Y-88800000D01*
G75*
G02*
X162650000Y-88900000I0J-100000D01*
G01*
X162650000Y-92050000D01*
G75*
G02*
X162550000Y-92150000I-100000J0D01*
G01*
G37*
G36*
G01*
X160010000Y-97200000D02*
X159010000Y-97200000D01*
G75*
G02*
X158910000Y-97100000I0J100000D01*
G01*
X158910000Y-93950000D01*
G75*
G02*
X159010000Y-93850000I100000J0D01*
G01*
X160010000Y-93850000D01*
G75*
G02*
X160110000Y-93950000I0J-100000D01*
G01*
X160110000Y-97100000D01*
G75*
G02*
X160010000Y-97200000I-100000J0D01*
G01*
G37*
G36*
G01*
X160010000Y-92150000D02*
X159010000Y-92150000D01*
G75*
G02*
X158910000Y-92050000I0J100000D01*
G01*
X158910000Y-88900000D01*
G75*
G02*
X159010000Y-88800000I100000J0D01*
G01*
X160010000Y-88800000D01*
G75*
G02*
X160110000Y-88900000I0J-100000D01*
G01*
X160110000Y-92050000D01*
G75*
G02*
X160010000Y-92150000I-100000J0D01*
G01*
G37*
G36*
G01*
X157470000Y-97200000D02*
X156470000Y-97200000D01*
G75*
G02*
X156370000Y-97100000I0J100000D01*
G01*
X156370000Y-93950000D01*
G75*
G02*
X156470000Y-93850000I100000J0D01*
G01*
X157470000Y-93850000D01*
G75*
G02*
X157570000Y-93950000I0J-100000D01*
G01*
X157570000Y-97100000D01*
G75*
G02*
X157470000Y-97200000I-100000J0D01*
G01*
G37*
G36*
G01*
X157470000Y-92150000D02*
X156470000Y-92150000D01*
G75*
G02*
X156370000Y-92050000I0J100000D01*
G01*
X156370000Y-88900000D01*
G75*
G02*
X156470000Y-88800000I100000J0D01*
G01*
X157470000Y-88800000D01*
G75*
G02*
X157570000Y-88900000I0J-100000D01*
G01*
X157570000Y-92050000D01*
G75*
G02*
X157470000Y-92150000I-100000J0D01*
G01*
G37*
G36*
G01*
X154930000Y-97200000D02*
X153930000Y-97200000D01*
G75*
G02*
X153830000Y-97100000I0J100000D01*
G01*
X153830000Y-93950000D01*
G75*
G02*
X153930000Y-93850000I100000J0D01*
G01*
X154930000Y-93850000D01*
G75*
G02*
X155030000Y-93950000I0J-100000D01*
G01*
X155030000Y-97100000D01*
G75*
G02*
X154930000Y-97200000I-100000J0D01*
G01*
G37*
G36*
G01*
X154930000Y-92150000D02*
X153930000Y-92150000D01*
G75*
G02*
X153830000Y-92050000I0J100000D01*
G01*
X153830000Y-88900000D01*
G75*
G02*
X153930000Y-88800000I100000J0D01*
G01*
X154930000Y-88800000D01*
G75*
G02*
X155030000Y-88900000I0J-100000D01*
G01*
X155030000Y-92050000D01*
G75*
G02*
X154930000Y-92150000I-100000J0D01*
G01*
G37*
G36*
G01*
X152390000Y-97200000D02*
X151390000Y-97200000D01*
G75*
G02*
X151290000Y-97100000I0J100000D01*
G01*
X151290000Y-93950000D01*
G75*
G02*
X151390000Y-93850000I100000J0D01*
G01*
X152390000Y-93850000D01*
G75*
G02*
X152490000Y-93950000I0J-100000D01*
G01*
X152490000Y-97100000D01*
G75*
G02*
X152390000Y-97200000I-100000J0D01*
G01*
G37*
G36*
G01*
X152390000Y-92150000D02*
X151390000Y-92150000D01*
G75*
G02*
X151290000Y-92050000I0J100000D01*
G01*
X151290000Y-88900000D01*
G75*
G02*
X151390000Y-88800000I100000J0D01*
G01*
X152390000Y-88800000D01*
G75*
G02*
X152490000Y-88900000I0J-100000D01*
G01*
X152490000Y-92050000D01*
G75*
G02*
X152390000Y-92150000I-100000J0D01*
G01*
G37*
G36*
G01*
X149850000Y-97200000D02*
X148850000Y-97200000D01*
G75*
G02*
X148750000Y-97100000I0J100000D01*
G01*
X148750000Y-93950000D01*
G75*
G02*
X148850000Y-93850000I100000J0D01*
G01*
X149850000Y-93850000D01*
G75*
G02*
X149950000Y-93950000I0J-100000D01*
G01*
X149950000Y-97100000D01*
G75*
G02*
X149850000Y-97200000I-100000J0D01*
G01*
G37*
G36*
G01*
X149850000Y-92150000D02*
X148850000Y-92150000D01*
G75*
G02*
X148750000Y-92050000I0J100000D01*
G01*
X148750000Y-88900000D01*
G75*
G02*
X148850000Y-88800000I100000J0D01*
G01*
X149850000Y-88800000D01*
G75*
G02*
X149950000Y-88900000I0J-100000D01*
G01*
X149950000Y-92050000D01*
G75*
G02*
X149850000Y-92150000I-100000J0D01*
G01*
G37*
G36*
G01*
X147310000Y-97200000D02*
X146310000Y-97200000D01*
G75*
G02*
X146210000Y-97100000I0J100000D01*
G01*
X146210000Y-93950000D01*
G75*
G02*
X146310000Y-93850000I100000J0D01*
G01*
X147310000Y-93850000D01*
G75*
G02*
X147410000Y-93950000I0J-100000D01*
G01*
X147410000Y-97100000D01*
G75*
G02*
X147310000Y-97200000I-100000J0D01*
G01*
G37*
G36*
G01*
X147310000Y-92150000D02*
X146310000Y-92150000D01*
G75*
G02*
X146210000Y-92050000I0J100000D01*
G01*
X146210000Y-88900000D01*
G75*
G02*
X146310000Y-88800000I100000J0D01*
G01*
X147310000Y-88800000D01*
G75*
G02*
X147410000Y-88900000I0J-100000D01*
G01*
X147410000Y-92050000D01*
G75*
G02*
X147310000Y-92150000I-100000J0D01*
G01*
G37*
G36*
G01*
X144770000Y-97200000D02*
X143770000Y-97200000D01*
G75*
G02*
X143670000Y-97100000I0J100000D01*
G01*
X143670000Y-93950000D01*
G75*
G02*
X143770000Y-93850000I100000J0D01*
G01*
X144770000Y-93850000D01*
G75*
G02*
X144870000Y-93950000I0J-100000D01*
G01*
X144870000Y-97100000D01*
G75*
G02*
X144770000Y-97200000I-100000J0D01*
G01*
G37*
G36*
G01*
X144770000Y-92150000D02*
X143770000Y-92150000D01*
G75*
G02*
X143670000Y-92050000I0J100000D01*
G01*
X143670000Y-88900000D01*
G75*
G02*
X143770000Y-88800000I100000J0D01*
G01*
X144770000Y-88800000D01*
G75*
G02*
X144870000Y-88900000I0J-100000D01*
G01*
X144870000Y-92050000D01*
G75*
G02*
X144770000Y-92150000I-100000J0D01*
G01*
G37*
G36*
G01*
X142230000Y-97200000D02*
X141230000Y-97200000D01*
G75*
G02*
X141130000Y-97100000I0J100000D01*
G01*
X141130000Y-93950000D01*
G75*
G02*
X141230000Y-93850000I100000J0D01*
G01*
X142230000Y-93850000D01*
G75*
G02*
X142330000Y-93950000I0J-100000D01*
G01*
X142330000Y-97100000D01*
G75*
G02*
X142230000Y-97200000I-100000J0D01*
G01*
G37*
G36*
G01*
X142230000Y-92150000D02*
X141230000Y-92150000D01*
G75*
G02*
X141130000Y-92050000I0J100000D01*
G01*
X141130000Y-88900000D01*
G75*
G02*
X141230000Y-88800000I100000J0D01*
G01*
X142230000Y-88800000D01*
G75*
G02*
X142330000Y-88900000I0J-100000D01*
G01*
X142330000Y-92050000D01*
G75*
G02*
X142230000Y-92150000I-100000J0D01*
G01*
G37*
G36*
G01*
X139690000Y-97200000D02*
X138690000Y-97200000D01*
G75*
G02*
X138590000Y-97100000I0J100000D01*
G01*
X138590000Y-93950000D01*
G75*
G02*
X138690000Y-93850000I100000J0D01*
G01*
X139690000Y-93850000D01*
G75*
G02*
X139790000Y-93950000I0J-100000D01*
G01*
X139790000Y-97100000D01*
G75*
G02*
X139690000Y-97200000I-100000J0D01*
G01*
G37*
G36*
G01*
X139690000Y-92150000D02*
X138690000Y-92150000D01*
G75*
G02*
X138590000Y-92050000I0J100000D01*
G01*
X138590000Y-88900000D01*
G75*
G02*
X138690000Y-88800000I100000J0D01*
G01*
X139690000Y-88800000D01*
G75*
G02*
X139790000Y-88900000I0J-100000D01*
G01*
X139790000Y-92050000D01*
G75*
G02*
X139690000Y-92150000I-100000J0D01*
G01*
G37*
G36*
G01*
X137150000Y-97200000D02*
X136150000Y-97200000D01*
G75*
G02*
X136050000Y-97100000I0J100000D01*
G01*
X136050000Y-93950000D01*
G75*
G02*
X136150000Y-93850000I100000J0D01*
G01*
X137150000Y-93850000D01*
G75*
G02*
X137250000Y-93950000I0J-100000D01*
G01*
X137250000Y-97100000D01*
G75*
G02*
X137150000Y-97200000I-100000J0D01*
G01*
G37*
G36*
G01*
X137150000Y-92150000D02*
X136150000Y-92150000D01*
G75*
G02*
X136050000Y-92050000I0J100000D01*
G01*
X136050000Y-88900000D01*
G75*
G02*
X136150000Y-88800000I100000J0D01*
G01*
X137150000Y-88800000D01*
G75*
G02*
X137250000Y-88900000I0J-100000D01*
G01*
X137250000Y-92050000D01*
G75*
G02*
X137150000Y-92150000I-100000J0D01*
G01*
G37*
G36*
G01*
X134610000Y-97200000D02*
X133610000Y-97200000D01*
G75*
G02*
X133510000Y-97100000I0J100000D01*
G01*
X133510000Y-93950000D01*
G75*
G02*
X133610000Y-93850000I100000J0D01*
G01*
X134610000Y-93850000D01*
G75*
G02*
X134710000Y-93950000I0J-100000D01*
G01*
X134710000Y-97100000D01*
G75*
G02*
X134610000Y-97200000I-100000J0D01*
G01*
G37*
G36*
G01*
X134610000Y-92150000D02*
X133610000Y-92150000D01*
G75*
G02*
X133510000Y-92050000I0J100000D01*
G01*
X133510000Y-88900000D01*
G75*
G02*
X133610000Y-88800000I100000J0D01*
G01*
X134610000Y-88800000D01*
G75*
G02*
X134710000Y-88900000I0J-100000D01*
G01*
X134710000Y-92050000D01*
G75*
G02*
X134610000Y-92150000I-100000J0D01*
G01*
G37*
G36*
G01*
X132070000Y-97200000D02*
X131070000Y-97200000D01*
G75*
G02*
X130970000Y-97100000I0J100000D01*
G01*
X130970000Y-93950000D01*
G75*
G02*
X131070000Y-93850000I100000J0D01*
G01*
X132070000Y-93850000D01*
G75*
G02*
X132170000Y-93950000I0J-100000D01*
G01*
X132170000Y-97100000D01*
G75*
G02*
X132070000Y-97200000I-100000J0D01*
G01*
G37*
G36*
G01*
X132070000Y-92150000D02*
X131070000Y-92150000D01*
G75*
G02*
X130970000Y-92050000I0J100000D01*
G01*
X130970000Y-88900000D01*
G75*
G02*
X131070000Y-88800000I100000J0D01*
G01*
X132070000Y-88800000D01*
G75*
G02*
X132170000Y-88900000I0J-100000D01*
G01*
X132170000Y-92050000D01*
G75*
G02*
X132070000Y-92150000I-100000J0D01*
G01*
G37*
G36*
G01*
X129530000Y-97200000D02*
X128530000Y-97200000D01*
G75*
G02*
X128430000Y-97100000I0J100000D01*
G01*
X128430000Y-93950000D01*
G75*
G02*
X128530000Y-93850000I100000J0D01*
G01*
X129530000Y-93850000D01*
G75*
G02*
X129630000Y-93950000I0J-100000D01*
G01*
X129630000Y-97100000D01*
G75*
G02*
X129530000Y-97200000I-100000J0D01*
G01*
G37*
G36*
G01*
X129530000Y-92150000D02*
X128530000Y-92150000D01*
G75*
G02*
X128430000Y-92050000I0J100000D01*
G01*
X128430000Y-88900000D01*
G75*
G02*
X128530000Y-88800000I100000J0D01*
G01*
X129530000Y-88800000D01*
G75*
G02*
X129630000Y-88900000I0J-100000D01*
G01*
X129630000Y-92050000D01*
G75*
G02*
X129530000Y-92150000I-100000J0D01*
G01*
G37*
G36*
G01*
X126990000Y-97200000D02*
X125990000Y-97200000D01*
G75*
G02*
X125890000Y-97100000I0J100000D01*
G01*
X125890000Y-93950000D01*
G75*
G02*
X125990000Y-93850000I100000J0D01*
G01*
X126990000Y-93850000D01*
G75*
G02*
X127090000Y-93950000I0J-100000D01*
G01*
X127090000Y-97100000D01*
G75*
G02*
X126990000Y-97200000I-100000J0D01*
G01*
G37*
G36*
G01*
X126990000Y-92150000D02*
X125990000Y-92150000D01*
G75*
G02*
X125890000Y-92050000I0J100000D01*
G01*
X125890000Y-88900000D01*
G75*
G02*
X125990000Y-88800000I100000J0D01*
G01*
X126990000Y-88800000D01*
G75*
G02*
X127090000Y-88900000I0J-100000D01*
G01*
X127090000Y-92050000D01*
G75*
G02*
X126990000Y-92150000I-100000J0D01*
G01*
G37*
G36*
G01*
X124450000Y-97200000D02*
X123450000Y-97200000D01*
G75*
G02*
X123350000Y-97100000I0J100000D01*
G01*
X123350000Y-93950000D01*
G75*
G02*
X123450000Y-93850000I100000J0D01*
G01*
X124450000Y-93850000D01*
G75*
G02*
X124550000Y-93950000I0J-100000D01*
G01*
X124550000Y-97100000D01*
G75*
G02*
X124450000Y-97200000I-100000J0D01*
G01*
G37*
G36*
G01*
X124450000Y-92150000D02*
X123450000Y-92150000D01*
G75*
G02*
X123350000Y-92050000I0J100000D01*
G01*
X123350000Y-88900000D01*
G75*
G02*
X123450000Y-88800000I100000J0D01*
G01*
X124450000Y-88800000D01*
G75*
G02*
X124550000Y-88900000I0J-100000D01*
G01*
X124550000Y-92050000D01*
G75*
G02*
X124450000Y-92150000I-100000J0D01*
G01*
G37*
%TD*%
%TO.C,J4*%
G36*
G01*
X124450000Y-55150000D02*
X123450000Y-55150000D01*
G75*
G02*
X123350000Y-55050000I0J100000D01*
G01*
X123350000Y-51900000D01*
G75*
G02*
X123450000Y-51800000I100000J0D01*
G01*
X124450000Y-51800000D01*
G75*
G02*
X124550000Y-51900000I0J-100000D01*
G01*
X124550000Y-55050000D01*
G75*
G02*
X124450000Y-55150000I-100000J0D01*
G01*
G37*
G36*
G01*
X124450000Y-60200000D02*
X123450000Y-60200000D01*
G75*
G02*
X123350000Y-60100000I0J100000D01*
G01*
X123350000Y-56950000D01*
G75*
G02*
X123450000Y-56850000I100000J0D01*
G01*
X124450000Y-56850000D01*
G75*
G02*
X124550000Y-56950000I0J-100000D01*
G01*
X124550000Y-60100000D01*
G75*
G02*
X124450000Y-60200000I-100000J0D01*
G01*
G37*
G36*
G01*
X126990000Y-55150000D02*
X125990000Y-55150000D01*
G75*
G02*
X125890000Y-55050000I0J100000D01*
G01*
X125890000Y-51900000D01*
G75*
G02*
X125990000Y-51800000I100000J0D01*
G01*
X126990000Y-51800000D01*
G75*
G02*
X127090000Y-51900000I0J-100000D01*
G01*
X127090000Y-55050000D01*
G75*
G02*
X126990000Y-55150000I-100000J0D01*
G01*
G37*
G36*
G01*
X126990000Y-60200000D02*
X125990000Y-60200000D01*
G75*
G02*
X125890000Y-60100000I0J100000D01*
G01*
X125890000Y-56950000D01*
G75*
G02*
X125990000Y-56850000I100000J0D01*
G01*
X126990000Y-56850000D01*
G75*
G02*
X127090000Y-56950000I0J-100000D01*
G01*
X127090000Y-60100000D01*
G75*
G02*
X126990000Y-60200000I-100000J0D01*
G01*
G37*
G36*
G01*
X129530000Y-55150000D02*
X128530000Y-55150000D01*
G75*
G02*
X128430000Y-55050000I0J100000D01*
G01*
X128430000Y-51900000D01*
G75*
G02*
X128530000Y-51800000I100000J0D01*
G01*
X129530000Y-51800000D01*
G75*
G02*
X129630000Y-51900000I0J-100000D01*
G01*
X129630000Y-55050000D01*
G75*
G02*
X129530000Y-55150000I-100000J0D01*
G01*
G37*
G36*
G01*
X129530000Y-60200000D02*
X128530000Y-60200000D01*
G75*
G02*
X128430000Y-60100000I0J100000D01*
G01*
X128430000Y-56950000D01*
G75*
G02*
X128530000Y-56850000I100000J0D01*
G01*
X129530000Y-56850000D01*
G75*
G02*
X129630000Y-56950000I0J-100000D01*
G01*
X129630000Y-60100000D01*
G75*
G02*
X129530000Y-60200000I-100000J0D01*
G01*
G37*
G36*
G01*
X132070000Y-55150000D02*
X131070000Y-55150000D01*
G75*
G02*
X130970000Y-55050000I0J100000D01*
G01*
X130970000Y-51900000D01*
G75*
G02*
X131070000Y-51800000I100000J0D01*
G01*
X132070000Y-51800000D01*
G75*
G02*
X132170000Y-51900000I0J-100000D01*
G01*
X132170000Y-55050000D01*
G75*
G02*
X132070000Y-55150000I-100000J0D01*
G01*
G37*
G36*
G01*
X132070000Y-60200000D02*
X131070000Y-60200000D01*
G75*
G02*
X130970000Y-60100000I0J100000D01*
G01*
X130970000Y-56950000D01*
G75*
G02*
X131070000Y-56850000I100000J0D01*
G01*
X132070000Y-56850000D01*
G75*
G02*
X132170000Y-56950000I0J-100000D01*
G01*
X132170000Y-60100000D01*
G75*
G02*
X132070000Y-60200000I-100000J0D01*
G01*
G37*
G36*
G01*
X134610000Y-55150000D02*
X133610000Y-55150000D01*
G75*
G02*
X133510000Y-55050000I0J100000D01*
G01*
X133510000Y-51900000D01*
G75*
G02*
X133610000Y-51800000I100000J0D01*
G01*
X134610000Y-51800000D01*
G75*
G02*
X134710000Y-51900000I0J-100000D01*
G01*
X134710000Y-55050000D01*
G75*
G02*
X134610000Y-55150000I-100000J0D01*
G01*
G37*
G36*
G01*
X134610000Y-60200000D02*
X133610000Y-60200000D01*
G75*
G02*
X133510000Y-60100000I0J100000D01*
G01*
X133510000Y-56950000D01*
G75*
G02*
X133610000Y-56850000I100000J0D01*
G01*
X134610000Y-56850000D01*
G75*
G02*
X134710000Y-56950000I0J-100000D01*
G01*
X134710000Y-60100000D01*
G75*
G02*
X134610000Y-60200000I-100000J0D01*
G01*
G37*
G36*
G01*
X137150000Y-55150000D02*
X136150000Y-55150000D01*
G75*
G02*
X136050000Y-55050000I0J100000D01*
G01*
X136050000Y-51900000D01*
G75*
G02*
X136150000Y-51800000I100000J0D01*
G01*
X137150000Y-51800000D01*
G75*
G02*
X137250000Y-51900000I0J-100000D01*
G01*
X137250000Y-55050000D01*
G75*
G02*
X137150000Y-55150000I-100000J0D01*
G01*
G37*
G36*
G01*
X137150000Y-60200000D02*
X136150000Y-60200000D01*
G75*
G02*
X136050000Y-60100000I0J100000D01*
G01*
X136050000Y-56950000D01*
G75*
G02*
X136150000Y-56850000I100000J0D01*
G01*
X137150000Y-56850000D01*
G75*
G02*
X137250000Y-56950000I0J-100000D01*
G01*
X137250000Y-60100000D01*
G75*
G02*
X137150000Y-60200000I-100000J0D01*
G01*
G37*
G36*
G01*
X139690000Y-55150000D02*
X138690000Y-55150000D01*
G75*
G02*
X138590000Y-55050000I0J100000D01*
G01*
X138590000Y-51900000D01*
G75*
G02*
X138690000Y-51800000I100000J0D01*
G01*
X139690000Y-51800000D01*
G75*
G02*
X139790000Y-51900000I0J-100000D01*
G01*
X139790000Y-55050000D01*
G75*
G02*
X139690000Y-55150000I-100000J0D01*
G01*
G37*
G36*
G01*
X139690000Y-60200000D02*
X138690000Y-60200000D01*
G75*
G02*
X138590000Y-60100000I0J100000D01*
G01*
X138590000Y-56950000D01*
G75*
G02*
X138690000Y-56850000I100000J0D01*
G01*
X139690000Y-56850000D01*
G75*
G02*
X139790000Y-56950000I0J-100000D01*
G01*
X139790000Y-60100000D01*
G75*
G02*
X139690000Y-60200000I-100000J0D01*
G01*
G37*
G36*
G01*
X142230000Y-55150000D02*
X141230000Y-55150000D01*
G75*
G02*
X141130000Y-55050000I0J100000D01*
G01*
X141130000Y-51900000D01*
G75*
G02*
X141230000Y-51800000I100000J0D01*
G01*
X142230000Y-51800000D01*
G75*
G02*
X142330000Y-51900000I0J-100000D01*
G01*
X142330000Y-55050000D01*
G75*
G02*
X142230000Y-55150000I-100000J0D01*
G01*
G37*
G36*
G01*
X142230000Y-60200000D02*
X141230000Y-60200000D01*
G75*
G02*
X141130000Y-60100000I0J100000D01*
G01*
X141130000Y-56950000D01*
G75*
G02*
X141230000Y-56850000I100000J0D01*
G01*
X142230000Y-56850000D01*
G75*
G02*
X142330000Y-56950000I0J-100000D01*
G01*
X142330000Y-60100000D01*
G75*
G02*
X142230000Y-60200000I-100000J0D01*
G01*
G37*
G36*
G01*
X144770000Y-55150000D02*
X143770000Y-55150000D01*
G75*
G02*
X143670000Y-55050000I0J100000D01*
G01*
X143670000Y-51900000D01*
G75*
G02*
X143770000Y-51800000I100000J0D01*
G01*
X144770000Y-51800000D01*
G75*
G02*
X144870000Y-51900000I0J-100000D01*
G01*
X144870000Y-55050000D01*
G75*
G02*
X144770000Y-55150000I-100000J0D01*
G01*
G37*
G36*
G01*
X144770000Y-60200000D02*
X143770000Y-60200000D01*
G75*
G02*
X143670000Y-60100000I0J100000D01*
G01*
X143670000Y-56950000D01*
G75*
G02*
X143770000Y-56850000I100000J0D01*
G01*
X144770000Y-56850000D01*
G75*
G02*
X144870000Y-56950000I0J-100000D01*
G01*
X144870000Y-60100000D01*
G75*
G02*
X144770000Y-60200000I-100000J0D01*
G01*
G37*
G36*
G01*
X147310000Y-55150000D02*
X146310000Y-55150000D01*
G75*
G02*
X146210000Y-55050000I0J100000D01*
G01*
X146210000Y-51900000D01*
G75*
G02*
X146310000Y-51800000I100000J0D01*
G01*
X147310000Y-51800000D01*
G75*
G02*
X147410000Y-51900000I0J-100000D01*
G01*
X147410000Y-55050000D01*
G75*
G02*
X147310000Y-55150000I-100000J0D01*
G01*
G37*
G36*
G01*
X147310000Y-60200000D02*
X146310000Y-60200000D01*
G75*
G02*
X146210000Y-60100000I0J100000D01*
G01*
X146210000Y-56950000D01*
G75*
G02*
X146310000Y-56850000I100000J0D01*
G01*
X147310000Y-56850000D01*
G75*
G02*
X147410000Y-56950000I0J-100000D01*
G01*
X147410000Y-60100000D01*
G75*
G02*
X147310000Y-60200000I-100000J0D01*
G01*
G37*
G36*
G01*
X149850000Y-55150000D02*
X148850000Y-55150000D01*
G75*
G02*
X148750000Y-55050000I0J100000D01*
G01*
X148750000Y-51900000D01*
G75*
G02*
X148850000Y-51800000I100000J0D01*
G01*
X149850000Y-51800000D01*
G75*
G02*
X149950000Y-51900000I0J-100000D01*
G01*
X149950000Y-55050000D01*
G75*
G02*
X149850000Y-55150000I-100000J0D01*
G01*
G37*
G36*
G01*
X149850000Y-60200000D02*
X148850000Y-60200000D01*
G75*
G02*
X148750000Y-60100000I0J100000D01*
G01*
X148750000Y-56950000D01*
G75*
G02*
X148850000Y-56850000I100000J0D01*
G01*
X149850000Y-56850000D01*
G75*
G02*
X149950000Y-56950000I0J-100000D01*
G01*
X149950000Y-60100000D01*
G75*
G02*
X149850000Y-60200000I-100000J0D01*
G01*
G37*
G36*
G01*
X152390000Y-55150000D02*
X151390000Y-55150000D01*
G75*
G02*
X151290000Y-55050000I0J100000D01*
G01*
X151290000Y-51900000D01*
G75*
G02*
X151390000Y-51800000I100000J0D01*
G01*
X152390000Y-51800000D01*
G75*
G02*
X152490000Y-51900000I0J-100000D01*
G01*
X152490000Y-55050000D01*
G75*
G02*
X152390000Y-55150000I-100000J0D01*
G01*
G37*
G36*
G01*
X152390000Y-60200000D02*
X151390000Y-60200000D01*
G75*
G02*
X151290000Y-60100000I0J100000D01*
G01*
X151290000Y-56950000D01*
G75*
G02*
X151390000Y-56850000I100000J0D01*
G01*
X152390000Y-56850000D01*
G75*
G02*
X152490000Y-56950000I0J-100000D01*
G01*
X152490000Y-60100000D01*
G75*
G02*
X152390000Y-60200000I-100000J0D01*
G01*
G37*
G36*
G01*
X154930000Y-55150000D02*
X153930000Y-55150000D01*
G75*
G02*
X153830000Y-55050000I0J100000D01*
G01*
X153830000Y-51900000D01*
G75*
G02*
X153930000Y-51800000I100000J0D01*
G01*
X154930000Y-51800000D01*
G75*
G02*
X155030000Y-51900000I0J-100000D01*
G01*
X155030000Y-55050000D01*
G75*
G02*
X154930000Y-55150000I-100000J0D01*
G01*
G37*
G36*
G01*
X154930000Y-60200000D02*
X153930000Y-60200000D01*
G75*
G02*
X153830000Y-60100000I0J100000D01*
G01*
X153830000Y-56950000D01*
G75*
G02*
X153930000Y-56850000I100000J0D01*
G01*
X154930000Y-56850000D01*
G75*
G02*
X155030000Y-56950000I0J-100000D01*
G01*
X155030000Y-60100000D01*
G75*
G02*
X154930000Y-60200000I-100000J0D01*
G01*
G37*
G36*
G01*
X157470000Y-55150000D02*
X156470000Y-55150000D01*
G75*
G02*
X156370000Y-55050000I0J100000D01*
G01*
X156370000Y-51900000D01*
G75*
G02*
X156470000Y-51800000I100000J0D01*
G01*
X157470000Y-51800000D01*
G75*
G02*
X157570000Y-51900000I0J-100000D01*
G01*
X157570000Y-55050000D01*
G75*
G02*
X157470000Y-55150000I-100000J0D01*
G01*
G37*
G36*
G01*
X157470000Y-60200000D02*
X156470000Y-60200000D01*
G75*
G02*
X156370000Y-60100000I0J100000D01*
G01*
X156370000Y-56950000D01*
G75*
G02*
X156470000Y-56850000I100000J0D01*
G01*
X157470000Y-56850000D01*
G75*
G02*
X157570000Y-56950000I0J-100000D01*
G01*
X157570000Y-60100000D01*
G75*
G02*
X157470000Y-60200000I-100000J0D01*
G01*
G37*
G36*
G01*
X160010000Y-55150000D02*
X159010000Y-55150000D01*
G75*
G02*
X158910000Y-55050000I0J100000D01*
G01*
X158910000Y-51900000D01*
G75*
G02*
X159010000Y-51800000I100000J0D01*
G01*
X160010000Y-51800000D01*
G75*
G02*
X160110000Y-51900000I0J-100000D01*
G01*
X160110000Y-55050000D01*
G75*
G02*
X160010000Y-55150000I-100000J0D01*
G01*
G37*
G36*
G01*
X160010000Y-60200000D02*
X159010000Y-60200000D01*
G75*
G02*
X158910000Y-60100000I0J100000D01*
G01*
X158910000Y-56950000D01*
G75*
G02*
X159010000Y-56850000I100000J0D01*
G01*
X160010000Y-56850000D01*
G75*
G02*
X160110000Y-56950000I0J-100000D01*
G01*
X160110000Y-60100000D01*
G75*
G02*
X160010000Y-60200000I-100000J0D01*
G01*
G37*
G36*
G01*
X162550000Y-55150000D02*
X161550000Y-55150000D01*
G75*
G02*
X161450000Y-55050000I0J100000D01*
G01*
X161450000Y-51900000D01*
G75*
G02*
X161550000Y-51800000I100000J0D01*
G01*
X162550000Y-51800000D01*
G75*
G02*
X162650000Y-51900000I0J-100000D01*
G01*
X162650000Y-55050000D01*
G75*
G02*
X162550000Y-55150000I-100000J0D01*
G01*
G37*
G36*
G01*
X162550000Y-60200000D02*
X161550000Y-60200000D01*
G75*
G02*
X161450000Y-60100000I0J100000D01*
G01*
X161450000Y-56950000D01*
G75*
G02*
X161550000Y-56850000I100000J0D01*
G01*
X162550000Y-56850000D01*
G75*
G02*
X162650000Y-56950000I0J-100000D01*
G01*
X162650000Y-60100000D01*
G75*
G02*
X162550000Y-60200000I-100000J0D01*
G01*
G37*
%TD*%
%TO.C,H4*%
X171000000Y-95000000D03*
%TD*%
%TO.C,JP1*%
G36*
G01*
X114460000Y-77300000D02*
X114460000Y-75600000D01*
G75*
G02*
X114560000Y-75500000I100000J0D01*
G01*
X116260000Y-75500000D01*
G75*
G02*
X116360000Y-75600000I0J-100000D01*
G01*
X116360000Y-77300000D01*
G75*
G02*
X116260000Y-77400000I-100000J0D01*
G01*
X114560000Y-77400000D01*
G75*
G02*
X114460000Y-77300000I0J100000D01*
G01*
G37*
D14*
X115410000Y-78990000D03*
%TD*%
D16*
X141821500Y-55929500D03*
X165250000Y-57500000D03*
X130599100Y-77820000D03*
X153367000Y-67147200D03*
X141250000Y-79865000D03*
X148100000Y-82200000D03*
X161475000Y-69600000D03*
X143110000Y-66500000D03*
X155330000Y-76500000D03*
X134140000Y-67850000D03*
X165000000Y-75500000D03*
X165000000Y-66000000D03*
X144750000Y-70250000D03*
X145012800Y-66963836D03*
X145066203Y-82066203D03*
X143750000Y-79750000D03*
X143750000Y-76500000D03*
X125250000Y-56000000D03*
X146000000Y-74000000D03*
X144000000Y-71750000D03*
X127750000Y-64000000D03*
X149113764Y-71038554D03*
X161080000Y-66230000D03*
X160340000Y-64210000D03*
X160680000Y-62480000D03*
X117950000Y-85860000D03*
X121670000Y-78050000D03*
X139170000Y-62070000D03*
X160760000Y-51310000D03*
X155684800Y-93977900D03*
X154050000Y-67878200D03*
X146720000Y-82602400D03*
X121050000Y-62810000D03*
X141660000Y-62700000D03*
X128310000Y-72390000D03*
X135380000Y-66660000D03*
X140250000Y-56000000D03*
X132820000Y-53550000D03*
X127900000Y-55990000D03*
X133300000Y-65030000D03*
X157650000Y-80870000D03*
X157770000Y-83290000D03*
X145080000Y-83650000D03*
X168610000Y-62190000D03*
X158080000Y-60780000D03*
X127740000Y-92770000D03*
X127770000Y-96570000D03*
X129460000Y-83310000D03*
X132510000Y-92950000D03*
X132490000Y-87380000D03*
X150100000Y-61070000D03*
X150260000Y-56280000D03*
X155870000Y-62240000D03*
X165410000Y-61070000D03*
X160810000Y-54500000D03*
X160790000Y-56340000D03*
X163310000Y-51030000D03*
X167000000Y-54000000D03*
X168500000Y-57000000D03*
X142710000Y-82070000D03*
X126850000Y-86110000D03*
X138785000Y-72215000D03*
X140427238Y-73289344D03*
X142281000Y-74061200D03*
X138000000Y-65000000D03*
X143860000Y-74240000D03*
X141920000Y-72340000D03*
X124651800Y-81392400D03*
X162250000Y-80750000D03*
X154510000Y-87830000D03*
X163769010Y-66919700D03*
X151882000Y-75681500D03*
X153531900Y-84878500D03*
X154416100Y-65008822D03*
X163044000Y-69353800D03*
X156980460Y-63374860D03*
X157235016Y-56349988D03*
X154626510Y-63558810D03*
X132840000Y-59283200D03*
X165446041Y-55743959D03*
X171120000Y-76670000D03*
X125230000Y-95630000D03*
X143974300Y-73214400D03*
X143003200Y-94552300D03*
X128971300Y-85982900D03*
X129364400Y-93000000D03*
X124320000Y-84790000D03*
X127760000Y-90430000D03*
X139734100Y-65632900D03*
X142464500Y-61216100D03*
X143375900Y-69321300D03*
X143595600Y-63062100D03*
X146232200Y-69137100D03*
X143202900Y-61948300D03*
X149822400Y-77794300D03*
X143144400Y-90147400D03*
X147890400Y-78216700D03*
X139378300Y-92753100D03*
X147804600Y-73781800D03*
X148761600Y-84105900D03*
X164193000Y-73662900D03*
X164909000Y-69541900D03*
M02*
