%TF.GenerationSoftware,KiCad,Pcbnew,5.1.9+dfsg1-1+deb11u1*%
%TF.CreationDate,2025-11-03T12:09:50+01:00*%
%TF.ProjectId,STM32F4XX,53544d33-3246-4345-9858-2e6b69636164,0.4*%
%TF.SameCoordinates,Original*%
%TF.FileFunction,Legend,Bot*%
%TF.FilePolarity,Positive*%
%FSLAX46Y46*%
G04 Gerber Fmt 4.6, Leading zero omitted, Abs format (unit mm)*
G04 Created by KiCad (PCBNEW 5.1.9+dfsg1-1+deb11u1) date 2025-11-03 12:09:50*
%MOMM*%
%LPD*%
G01*
G04 APERTURE LIST*
%ADD10C,0.120000*%
%ADD11C,0.150000*%
%ADD12C,0.010000*%
G04 APERTURE END LIST*
D10*
X163970828Y-59490000D02*
G75*
G03*
X163970828Y-59490000I-60828J0D01*
G01*
X163990828Y-96470000D02*
G75*
G03*
X163990828Y-96470000I-60828J0D01*
G01*
D11*
X113452380Y-60666666D02*
X112785714Y-60666666D01*
X112452380Y-60666666D02*
X112500000Y-60619047D01*
X112547619Y-60666666D01*
X112500000Y-60714285D01*
X112452380Y-60666666D01*
X112547619Y-60666666D01*
X112785714Y-61142857D02*
X113452380Y-61142857D01*
X112880952Y-61142857D02*
X112833333Y-61190476D01*
X112785714Y-61285714D01*
X112785714Y-61428571D01*
X112833333Y-61523809D01*
X112928571Y-61571428D01*
X113452380Y-61571428D01*
X113452380Y-62809523D02*
X112785714Y-62809523D01*
X112880952Y-62809523D02*
X112833333Y-62857142D01*
X112785714Y-62952380D01*
X112785714Y-63095238D01*
X112833333Y-63190476D01*
X112928571Y-63238095D01*
X113452380Y-63238095D01*
X112928571Y-63238095D02*
X112833333Y-63285714D01*
X112785714Y-63380952D01*
X112785714Y-63523809D01*
X112833333Y-63619047D01*
X112928571Y-63666666D01*
X113452380Y-63666666D01*
X113404761Y-64523809D02*
X113452380Y-64428571D01*
X113452380Y-64238095D01*
X113404761Y-64142857D01*
X113309523Y-64095238D01*
X112928571Y-64095238D01*
X112833333Y-64142857D01*
X112785714Y-64238095D01*
X112785714Y-64428571D01*
X112833333Y-64523809D01*
X112928571Y-64571428D01*
X113023809Y-64571428D01*
X113119047Y-64095238D01*
X113452380Y-65000000D02*
X112785714Y-65000000D01*
X112880952Y-65000000D02*
X112833333Y-65047619D01*
X112785714Y-65142857D01*
X112785714Y-65285714D01*
X112833333Y-65380952D01*
X112928571Y-65428571D01*
X113452380Y-65428571D01*
X112928571Y-65428571D02*
X112833333Y-65476190D01*
X112785714Y-65571428D01*
X112785714Y-65714285D01*
X112833333Y-65809523D01*
X112928571Y-65857142D01*
X113452380Y-65857142D01*
X113452380Y-66476190D02*
X113404761Y-66380952D01*
X113357142Y-66333333D01*
X113261904Y-66285714D01*
X112976190Y-66285714D01*
X112880952Y-66333333D01*
X112833333Y-66380952D01*
X112785714Y-66476190D01*
X112785714Y-66619047D01*
X112833333Y-66714285D01*
X112880952Y-66761904D01*
X112976190Y-66809523D01*
X113261904Y-66809523D01*
X113357142Y-66761904D01*
X113404761Y-66714285D01*
X113452380Y-66619047D01*
X113452380Y-66476190D01*
X113452380Y-67238095D02*
X112785714Y-67238095D01*
X112976190Y-67238095D02*
X112880952Y-67285714D01*
X112833333Y-67333333D01*
X112785714Y-67428571D01*
X112785714Y-67523809D01*
X113452380Y-67857142D02*
X112785714Y-67857142D01*
X112452380Y-67857142D02*
X112500000Y-67809523D01*
X112547619Y-67857142D01*
X112500000Y-67904761D01*
X112452380Y-67857142D01*
X112547619Y-67857142D01*
X113452380Y-68761904D02*
X112928571Y-68761904D01*
X112833333Y-68714285D01*
X112785714Y-68619047D01*
X112785714Y-68428571D01*
X112833333Y-68333333D01*
X113404761Y-68761904D02*
X113452380Y-68666666D01*
X113452380Y-68428571D01*
X113404761Y-68333333D01*
X113309523Y-68285714D01*
X113214285Y-68285714D01*
X113119047Y-68333333D01*
X113071428Y-68428571D01*
X113071428Y-68666666D01*
X113023809Y-68761904D01*
X113452380Y-69238095D02*
X112785714Y-69238095D01*
X112880952Y-69238095D02*
X112833333Y-69285714D01*
X112785714Y-69380952D01*
X112785714Y-69523809D01*
X112833333Y-69619047D01*
X112928571Y-69666666D01*
X113452380Y-69666666D01*
X112928571Y-69666666D02*
X112833333Y-69714285D01*
X112785714Y-69809523D01*
X112785714Y-69952380D01*
X112833333Y-70047619D01*
X112928571Y-70095238D01*
X113452380Y-70095238D01*
X113166666Y-71285714D02*
X113166666Y-71761904D01*
X113452380Y-71190476D02*
X112452380Y-71523809D01*
X113452380Y-71857142D01*
X113357142Y-72190476D02*
X113404761Y-72238095D01*
X113452380Y-72190476D01*
X113404761Y-72142857D01*
X113357142Y-72190476D01*
X113452380Y-72190476D01*
X113404761Y-72619047D02*
X113452380Y-72761904D01*
X113452380Y-73000000D01*
X113404761Y-73095238D01*
X113357142Y-73142857D01*
X113261904Y-73190476D01*
X113166666Y-73190476D01*
X113071428Y-73142857D01*
X113023809Y-73095238D01*
X112976190Y-73000000D01*
X112928571Y-72809523D01*
X112880952Y-72714285D01*
X112833333Y-72666666D01*
X112738095Y-72619047D01*
X112642857Y-72619047D01*
X112547619Y-72666666D01*
X112500000Y-72714285D01*
X112452380Y-72809523D01*
X112452380Y-73047619D01*
X112500000Y-73190476D01*
X113357142Y-73619047D02*
X113404761Y-73666666D01*
X113452380Y-73619047D01*
X113404761Y-73571428D01*
X113357142Y-73619047D01*
X113452380Y-73619047D01*
X113071428Y-74857142D02*
X113071428Y-75619047D01*
X112500000Y-77380952D02*
X112452380Y-77285714D01*
X112452380Y-77142857D01*
X112500000Y-77000000D01*
X112595238Y-76904761D01*
X112690476Y-76857142D01*
X112880952Y-76809523D01*
X113023809Y-76809523D01*
X113214285Y-76857142D01*
X113309523Y-76904761D01*
X113404761Y-77000000D01*
X113452380Y-77142857D01*
X113452380Y-77238095D01*
X113404761Y-77380952D01*
X113357142Y-77428571D01*
X113023809Y-77428571D01*
X113023809Y-77238095D01*
X113357142Y-77857142D02*
X113404761Y-77904761D01*
X113452380Y-77857142D01*
X113404761Y-77809523D01*
X113357142Y-77857142D01*
X113452380Y-77857142D01*
X113452380Y-78333333D02*
X112452380Y-78333333D01*
X112452380Y-78571428D01*
X112500000Y-78714285D01*
X112595238Y-78809523D01*
X112690476Y-78857142D01*
X112880952Y-78904761D01*
X113023809Y-78904761D01*
X113214285Y-78857142D01*
X113309523Y-78809523D01*
X113404761Y-78714285D01*
X113452380Y-78571428D01*
X113452380Y-78333333D01*
X113357142Y-79333333D02*
X113404761Y-79380952D01*
X113452380Y-79333333D01*
X113404761Y-79285714D01*
X113357142Y-79333333D01*
X113452380Y-79333333D01*
D10*
%TO.C,U1*%
X143128249Y-78354880D02*
X142180725Y-79302403D01*
X143800000Y-79026631D02*
X143128249Y-78354880D01*
X144471751Y-78354880D02*
X143800000Y-79026631D01*
X151026631Y-71800000D02*
X150354880Y-71128249D01*
X150354880Y-72471751D02*
X151026631Y-71800000D01*
X136573369Y-71800000D02*
X137245120Y-72471751D01*
X137245120Y-71128249D02*
X136573369Y-71800000D01*
X143800000Y-64573369D02*
X144471751Y-65245120D01*
X143128249Y-65245120D02*
X143800000Y-64573369D01*
D12*
%TO.C,LOGO2*%
G36*
X132709663Y-84635258D02*
G01*
X132670181Y-84635659D01*
X132554492Y-84638451D01*
X132457603Y-84646742D01*
X132376211Y-84661424D01*
X132307015Y-84683385D01*
X132246712Y-84713514D01*
X132192000Y-84752702D01*
X132172459Y-84769724D01*
X132140042Y-84809555D01*
X132110812Y-84863605D01*
X132088283Y-84923515D01*
X132075971Y-84980931D01*
X132074692Y-85002148D01*
X132082709Y-85060961D01*
X132104191Y-85125205D01*
X132135291Y-85186013D01*
X132172158Y-85234522D01*
X132178146Y-85240374D01*
X132228871Y-85281513D01*
X132284417Y-85313627D01*
X132347988Y-85337557D01*
X132422786Y-85354145D01*
X132512014Y-85364233D01*
X132618874Y-85368661D01*
X132667820Y-85369037D01*
X132730054Y-85368737D01*
X132773820Y-85367484D01*
X132803223Y-85364746D01*
X132822371Y-85359993D01*
X132835369Y-85352693D01*
X132842337Y-85346459D01*
X132848918Y-85338886D01*
X132854080Y-85329116D01*
X132857995Y-85314532D01*
X132860835Y-85292518D01*
X132862772Y-85260456D01*
X132863976Y-85215728D01*
X132864620Y-85155718D01*
X132864875Y-85077809D01*
X132864914Y-85002148D01*
X132865162Y-84901233D01*
X132865109Y-84820619D01*
X132864149Y-84782014D01*
X132718159Y-84782014D01*
X132718159Y-85222281D01*
X132625026Y-85222196D01*
X132568985Y-85220588D01*
X132510291Y-85216448D01*
X132461320Y-85210656D01*
X132459830Y-85210418D01*
X132380684Y-85191282D01*
X132319294Y-85161479D01*
X132272597Y-85119070D01*
X132242927Y-85073153D01*
X132224645Y-85022218D01*
X132226063Y-84974392D01*
X132247280Y-84923125D01*
X132288781Y-84870091D01*
X132346290Y-84830792D01*
X132421042Y-84804523D01*
X132471000Y-84795227D01*
X132527708Y-84788699D01*
X132587811Y-84783974D01*
X132638931Y-84782009D01*
X132641959Y-84782000D01*
X132718159Y-84782014D01*
X132864149Y-84782014D01*
X132863552Y-84758043D01*
X132859290Y-84711247D01*
X132851122Y-84677970D01*
X132837848Y-84655951D01*
X132818266Y-84642931D01*
X132791175Y-84636649D01*
X132755374Y-84634845D01*
X132709663Y-84635258D01*
G37*
X132709663Y-84635258D02*
X132670181Y-84635659D01*
X132554492Y-84638451D01*
X132457603Y-84646742D01*
X132376211Y-84661424D01*
X132307015Y-84683385D01*
X132246712Y-84713514D01*
X132192000Y-84752702D01*
X132172459Y-84769724D01*
X132140042Y-84809555D01*
X132110812Y-84863605D01*
X132088283Y-84923515D01*
X132075971Y-84980931D01*
X132074692Y-85002148D01*
X132082709Y-85060961D01*
X132104191Y-85125205D01*
X132135291Y-85186013D01*
X132172158Y-85234522D01*
X132178146Y-85240374D01*
X132228871Y-85281513D01*
X132284417Y-85313627D01*
X132347988Y-85337557D01*
X132422786Y-85354145D01*
X132512014Y-85364233D01*
X132618874Y-85368661D01*
X132667820Y-85369037D01*
X132730054Y-85368737D01*
X132773820Y-85367484D01*
X132803223Y-85364746D01*
X132822371Y-85359993D01*
X132835369Y-85352693D01*
X132842337Y-85346459D01*
X132848918Y-85338886D01*
X132854080Y-85329116D01*
X132857995Y-85314532D01*
X132860835Y-85292518D01*
X132862772Y-85260456D01*
X132863976Y-85215728D01*
X132864620Y-85155718D01*
X132864875Y-85077809D01*
X132864914Y-85002148D01*
X132865162Y-84901233D01*
X132865109Y-84820619D01*
X132864149Y-84782014D01*
X132718159Y-84782014D01*
X132718159Y-85222281D01*
X132625026Y-85222196D01*
X132568985Y-85220588D01*
X132510291Y-85216448D01*
X132461320Y-85210656D01*
X132459830Y-85210418D01*
X132380684Y-85191282D01*
X132319294Y-85161479D01*
X132272597Y-85119070D01*
X132242927Y-85073153D01*
X132224645Y-85022218D01*
X132226063Y-84974392D01*
X132247280Y-84923125D01*
X132288781Y-84870091D01*
X132346290Y-84830792D01*
X132421042Y-84804523D01*
X132471000Y-84795227D01*
X132527708Y-84788699D01*
X132587811Y-84783974D01*
X132638931Y-84782009D01*
X132641959Y-84782000D01*
X132718159Y-84782014D01*
X132864149Y-84782014D01*
X132863552Y-84758043D01*
X132859290Y-84711247D01*
X132851122Y-84677970D01*
X132837848Y-84655951D01*
X132818266Y-84642931D01*
X132791175Y-84636649D01*
X132755374Y-84634845D01*
X132709663Y-84635258D01*
G36*
X131301086Y-84635338D02*
G01*
X131231678Y-84635710D01*
X131179289Y-84636577D01*
X131141139Y-84638138D01*
X131114451Y-84640595D01*
X131096445Y-84644149D01*
X131084341Y-84649002D01*
X131075361Y-84655353D01*
X131072110Y-84658276D01*
X131052335Y-84689334D01*
X131048774Y-84725020D01*
X131061783Y-84756702D01*
X131067798Y-84763105D01*
X131077527Y-84769313D01*
X131093193Y-84774102D01*
X131117700Y-84777706D01*
X131153953Y-84780356D01*
X131204857Y-84782287D01*
X131273318Y-84783731D01*
X131335909Y-84784610D01*
X131583626Y-84787659D01*
X131587011Y-84852570D01*
X131590397Y-84917481D01*
X131422250Y-84917481D01*
X131349251Y-84918111D01*
X131295809Y-84920745D01*
X131258920Y-84926501D01*
X131235580Y-84936496D01*
X131222786Y-84951848D01*
X131217534Y-84973674D01*
X131216737Y-84993930D01*
X131219215Y-85018784D01*
X131228569Y-85037098D01*
X131247675Y-85049829D01*
X131279410Y-85057933D01*
X131326651Y-85062368D01*
X131392275Y-85064091D01*
X131428093Y-85064237D01*
X131589270Y-85064237D01*
X131589270Y-85222281D01*
X131340914Y-85222281D01*
X131259505Y-85222394D01*
X131197634Y-85222904D01*
X131152260Y-85224062D01*
X131120346Y-85226122D01*
X131098851Y-85229338D01*
X131084735Y-85233964D01*
X131074960Y-85240251D01*
X131069981Y-85244859D01*
X131052902Y-85271752D01*
X131047403Y-85295659D01*
X131055255Y-85324859D01*
X131069981Y-85346459D01*
X131077838Y-85353258D01*
X131087980Y-85358538D01*
X131103136Y-85362490D01*
X131126033Y-85365305D01*
X131159401Y-85367174D01*
X131205967Y-85368290D01*
X131268459Y-85368843D01*
X131349606Y-85369025D01*
X131391714Y-85369037D01*
X131481890Y-85368957D01*
X131552216Y-85368590D01*
X131605421Y-85367744D01*
X131644232Y-85366228D01*
X131671379Y-85363851D01*
X131689590Y-85360421D01*
X131701592Y-85355746D01*
X131710114Y-85349636D01*
X131713448Y-85346459D01*
X131720047Y-85338862D01*
X131725219Y-85329062D01*
X131729138Y-85314431D01*
X131731976Y-85292344D01*
X131733907Y-85260174D01*
X131735104Y-85215295D01*
X131735740Y-85155081D01*
X131735989Y-85076905D01*
X131736026Y-85004115D01*
X131735992Y-84910899D01*
X131735757Y-84837623D01*
X131735122Y-84781650D01*
X131733886Y-84740343D01*
X131731848Y-84711064D01*
X131728809Y-84691176D01*
X131724569Y-84678042D01*
X131718927Y-84669024D01*
X131711683Y-84661485D01*
X131709898Y-84659804D01*
X131701237Y-84652364D01*
X131691174Y-84646601D01*
X131676917Y-84642304D01*
X131655675Y-84639256D01*
X131624656Y-84637243D01*
X131581069Y-84636052D01*
X131522123Y-84635467D01*
X131445026Y-84635275D01*
X131390293Y-84635259D01*
X131301086Y-84635338D01*
G37*
X131301086Y-84635338D02*
X131231678Y-84635710D01*
X131179289Y-84636577D01*
X131141139Y-84638138D01*
X131114451Y-84640595D01*
X131096445Y-84644149D01*
X131084341Y-84649002D01*
X131075361Y-84655353D01*
X131072110Y-84658276D01*
X131052335Y-84689334D01*
X131048774Y-84725020D01*
X131061783Y-84756702D01*
X131067798Y-84763105D01*
X131077527Y-84769313D01*
X131093193Y-84774102D01*
X131117700Y-84777706D01*
X131153953Y-84780356D01*
X131204857Y-84782287D01*
X131273318Y-84783731D01*
X131335909Y-84784610D01*
X131583626Y-84787659D01*
X131587011Y-84852570D01*
X131590397Y-84917481D01*
X131422250Y-84917481D01*
X131349251Y-84918111D01*
X131295809Y-84920745D01*
X131258920Y-84926501D01*
X131235580Y-84936496D01*
X131222786Y-84951848D01*
X131217534Y-84973674D01*
X131216737Y-84993930D01*
X131219215Y-85018784D01*
X131228569Y-85037098D01*
X131247675Y-85049829D01*
X131279410Y-85057933D01*
X131326651Y-85062368D01*
X131392275Y-85064091D01*
X131428093Y-85064237D01*
X131589270Y-85064237D01*
X131589270Y-85222281D01*
X131340914Y-85222281D01*
X131259505Y-85222394D01*
X131197634Y-85222904D01*
X131152260Y-85224062D01*
X131120346Y-85226122D01*
X131098851Y-85229338D01*
X131084735Y-85233964D01*
X131074960Y-85240251D01*
X131069981Y-85244859D01*
X131052902Y-85271752D01*
X131047403Y-85295659D01*
X131055255Y-85324859D01*
X131069981Y-85346459D01*
X131077838Y-85353258D01*
X131087980Y-85358538D01*
X131103136Y-85362490D01*
X131126033Y-85365305D01*
X131159401Y-85367174D01*
X131205967Y-85368290D01*
X131268459Y-85368843D01*
X131349606Y-85369025D01*
X131391714Y-85369037D01*
X131481890Y-85368957D01*
X131552216Y-85368590D01*
X131605421Y-85367744D01*
X131644232Y-85366228D01*
X131671379Y-85363851D01*
X131689590Y-85360421D01*
X131701592Y-85355746D01*
X131710114Y-85349636D01*
X131713448Y-85346459D01*
X131720047Y-85338862D01*
X131725219Y-85329062D01*
X131729138Y-85314431D01*
X131731976Y-85292344D01*
X131733907Y-85260174D01*
X131735104Y-85215295D01*
X131735740Y-85155081D01*
X131735989Y-85076905D01*
X131736026Y-85004115D01*
X131735992Y-84910899D01*
X131735757Y-84837623D01*
X131735122Y-84781650D01*
X131733886Y-84740343D01*
X131731848Y-84711064D01*
X131728809Y-84691176D01*
X131724569Y-84678042D01*
X131718927Y-84669024D01*
X131711683Y-84661485D01*
X131709898Y-84659804D01*
X131701237Y-84652364D01*
X131691174Y-84646601D01*
X131676917Y-84642304D01*
X131655675Y-84639256D01*
X131624656Y-84637243D01*
X131581069Y-84636052D01*
X131522123Y-84635467D01*
X131445026Y-84635275D01*
X131390293Y-84635259D01*
X131301086Y-84635338D01*
G36*
X130279995Y-84636543D02*
G01*
X130205180Y-84641773D01*
X130135598Y-84649942D01*
X130075294Y-84660742D01*
X130028312Y-84673865D01*
X129998698Y-84689005D01*
X129994152Y-84693461D01*
X129978346Y-84728042D01*
X129983139Y-84763543D01*
X130007656Y-84793917D01*
X130008826Y-84794788D01*
X130023246Y-84804146D01*
X130038300Y-84809068D01*
X130059297Y-84809665D01*
X130091549Y-84806053D01*
X130140365Y-84798346D01*
X130144292Y-84797697D01*
X130217031Y-84788761D01*
X130295509Y-84784353D01*
X130374219Y-84784311D01*
X130447653Y-84788471D01*
X130510303Y-84796671D01*
X130556662Y-84808749D01*
X130559708Y-84809963D01*
X130593340Y-84828807D01*
X130605156Y-84847877D01*
X130595906Y-84866631D01*
X130566339Y-84884529D01*
X130517203Y-84901029D01*
X130449249Y-84915588D01*
X130403937Y-84922598D01*
X130309748Y-84936081D01*
X130234836Y-84948406D01*
X130176009Y-84960641D01*
X130130077Y-84973853D01*
X130093847Y-84989109D01*
X130064130Y-85007477D01*
X130037734Y-85030023D01*
X130016522Y-85052163D01*
X129991357Y-85083011D01*
X129978973Y-85109537D01*
X129975100Y-85142218D01*
X129974959Y-85154187D01*
X129977868Y-85193904D01*
X129989494Y-85223451D01*
X130009615Y-85249678D01*
X130050508Y-85289768D01*
X130096109Y-85320341D01*
X130149805Y-85342395D01*
X130214984Y-85356927D01*
X130295036Y-85364933D01*
X130393349Y-85367410D01*
X130409581Y-85367369D01*
X130475141Y-85366010D01*
X130540158Y-85362922D01*
X130597544Y-85358548D01*
X130640214Y-85353332D01*
X130643664Y-85352733D01*
X130686088Y-85342683D01*
X130722072Y-85329988D01*
X130742442Y-85318382D01*
X130761399Y-85287764D01*
X130762719Y-85252110D01*
X130746377Y-85220336D01*
X130742721Y-85216743D01*
X130727607Y-85206068D01*
X130708707Y-85201468D01*
X130679454Y-85202251D01*
X130643943Y-85206319D01*
X130604262Y-85209954D01*
X130548637Y-85213020D01*
X130483698Y-85215245D01*
X130416077Y-85216356D01*
X130398292Y-85216429D01*
X130330420Y-85216156D01*
X130280746Y-85214838D01*
X130244902Y-85212019D01*
X130218516Y-85207242D01*
X130197218Y-85200049D01*
X130184418Y-85194059D01*
X130156292Y-85177425D01*
X130138360Y-85162360D01*
X130135739Y-85158089D01*
X130141268Y-85140455D01*
X130167552Y-85123384D01*
X130212770Y-85107650D01*
X130275100Y-85094030D01*
X130293463Y-85090996D01*
X130389382Y-85075930D01*
X130465933Y-85063338D01*
X130526072Y-85052303D01*
X130572752Y-85041912D01*
X130608929Y-85031248D01*
X130637557Y-85019397D01*
X130661590Y-85005443D01*
X130683984Y-84988473D01*
X130707694Y-84967570D01*
X130715672Y-84960241D01*
X130743645Y-84932891D01*
X130758452Y-84911221D01*
X130764244Y-84886424D01*
X130765181Y-84855175D01*
X130754867Y-84793897D01*
X130724044Y-84741832D01*
X130672887Y-84699150D01*
X130601575Y-84666017D01*
X130550692Y-84651156D01*
X130495392Y-84641558D01*
X130429145Y-84636128D01*
X130355998Y-84634559D01*
X130279995Y-84636543D01*
G37*
X130279995Y-84636543D02*
X130205180Y-84641773D01*
X130135598Y-84649942D01*
X130075294Y-84660742D01*
X130028312Y-84673865D01*
X129998698Y-84689005D01*
X129994152Y-84693461D01*
X129978346Y-84728042D01*
X129983139Y-84763543D01*
X130007656Y-84793917D01*
X130008826Y-84794788D01*
X130023246Y-84804146D01*
X130038300Y-84809068D01*
X130059297Y-84809665D01*
X130091549Y-84806053D01*
X130140365Y-84798346D01*
X130144292Y-84797697D01*
X130217031Y-84788761D01*
X130295509Y-84784353D01*
X130374219Y-84784311D01*
X130447653Y-84788471D01*
X130510303Y-84796671D01*
X130556662Y-84808749D01*
X130559708Y-84809963D01*
X130593340Y-84828807D01*
X130605156Y-84847877D01*
X130595906Y-84866631D01*
X130566339Y-84884529D01*
X130517203Y-84901029D01*
X130449249Y-84915588D01*
X130403937Y-84922598D01*
X130309748Y-84936081D01*
X130234836Y-84948406D01*
X130176009Y-84960641D01*
X130130077Y-84973853D01*
X130093847Y-84989109D01*
X130064130Y-85007477D01*
X130037734Y-85030023D01*
X130016522Y-85052163D01*
X129991357Y-85083011D01*
X129978973Y-85109537D01*
X129975100Y-85142218D01*
X129974959Y-85154187D01*
X129977868Y-85193904D01*
X129989494Y-85223451D01*
X130009615Y-85249678D01*
X130050508Y-85289768D01*
X130096109Y-85320341D01*
X130149805Y-85342395D01*
X130214984Y-85356927D01*
X130295036Y-85364933D01*
X130393349Y-85367410D01*
X130409581Y-85367369D01*
X130475141Y-85366010D01*
X130540158Y-85362922D01*
X130597544Y-85358548D01*
X130640214Y-85353332D01*
X130643664Y-85352733D01*
X130686088Y-85342683D01*
X130722072Y-85329988D01*
X130742442Y-85318382D01*
X130761399Y-85287764D01*
X130762719Y-85252110D01*
X130746377Y-85220336D01*
X130742721Y-85216743D01*
X130727607Y-85206068D01*
X130708707Y-85201468D01*
X130679454Y-85202251D01*
X130643943Y-85206319D01*
X130604262Y-85209954D01*
X130548637Y-85213020D01*
X130483698Y-85215245D01*
X130416077Y-85216356D01*
X130398292Y-85216429D01*
X130330420Y-85216156D01*
X130280746Y-85214838D01*
X130244902Y-85212019D01*
X130218516Y-85207242D01*
X130197218Y-85200049D01*
X130184418Y-85194059D01*
X130156292Y-85177425D01*
X130138360Y-85162360D01*
X130135739Y-85158089D01*
X130141268Y-85140455D01*
X130167552Y-85123384D01*
X130212770Y-85107650D01*
X130275100Y-85094030D01*
X130293463Y-85090996D01*
X130389382Y-85075930D01*
X130465933Y-85063338D01*
X130526072Y-85052303D01*
X130572752Y-85041912D01*
X130608929Y-85031248D01*
X130637557Y-85019397D01*
X130661590Y-85005443D01*
X130683984Y-84988473D01*
X130707694Y-84967570D01*
X130715672Y-84960241D01*
X130743645Y-84932891D01*
X130758452Y-84911221D01*
X130764244Y-84886424D01*
X130765181Y-84855175D01*
X130754867Y-84793897D01*
X130724044Y-84741832D01*
X130672887Y-84699150D01*
X130601575Y-84666017D01*
X130550692Y-84651156D01*
X130495392Y-84641558D01*
X130429145Y-84636128D01*
X130355998Y-84634559D01*
X130279995Y-84636543D01*
G36*
X129512114Y-84657837D02*
G01*
X129505534Y-84665410D01*
X129500371Y-84675179D01*
X129496456Y-84689763D01*
X129493616Y-84711777D01*
X129491679Y-84743840D01*
X129490475Y-84788567D01*
X129489831Y-84848577D01*
X129489576Y-84926486D01*
X129489537Y-85002148D01*
X129489606Y-85095994D01*
X129489930Y-85169881D01*
X129490678Y-85226424D01*
X129492024Y-85268241D01*
X129494138Y-85297949D01*
X129497192Y-85318165D01*
X129501358Y-85331506D01*
X129506808Y-85340590D01*
X129512114Y-85346459D01*
X129545118Y-85366139D01*
X129580283Y-85364373D01*
X129611747Y-85342909D01*
X129618976Y-85334529D01*
X129624626Y-85324806D01*
X129628891Y-85311053D01*
X129631965Y-85290581D01*
X129634044Y-85260704D01*
X129635322Y-85218733D01*
X129635993Y-85161981D01*
X129636251Y-85087759D01*
X129636292Y-85003729D01*
X129636292Y-84690677D01*
X129608583Y-84662968D01*
X129574429Y-84639655D01*
X129541298Y-84638815D01*
X129512114Y-84657837D01*
G37*
X129512114Y-84657837D02*
X129505534Y-84665410D01*
X129500371Y-84675179D01*
X129496456Y-84689763D01*
X129493616Y-84711777D01*
X129491679Y-84743840D01*
X129490475Y-84788567D01*
X129489831Y-84848577D01*
X129489576Y-84926486D01*
X129489537Y-85002148D01*
X129489606Y-85095994D01*
X129489930Y-85169881D01*
X129490678Y-85226424D01*
X129492024Y-85268241D01*
X129494138Y-85297949D01*
X129497192Y-85318165D01*
X129501358Y-85331506D01*
X129506808Y-85340590D01*
X129512114Y-85346459D01*
X129545118Y-85366139D01*
X129580283Y-85364373D01*
X129611747Y-85342909D01*
X129618976Y-85334529D01*
X129624626Y-85324806D01*
X129628891Y-85311053D01*
X129631965Y-85290581D01*
X129634044Y-85260704D01*
X129635322Y-85218733D01*
X129635993Y-85161981D01*
X129636251Y-85087759D01*
X129636292Y-85003729D01*
X129636292Y-84690677D01*
X129608583Y-84662968D01*
X129574429Y-84639655D01*
X129541298Y-84638815D01*
X129512114Y-84657837D01*
G36*
X128538373Y-84640791D02*
G01*
X128469857Y-84652287D01*
X128417235Y-84670159D01*
X128383000Y-84693691D01*
X128373671Y-84707116D01*
X128364185Y-84738340D01*
X128370569Y-84766587D01*
X128390722Y-84793374D01*
X128422037Y-84805905D01*
X128467475Y-84804888D01*
X128502618Y-84798098D01*
X128580711Y-84785163D01*
X128660518Y-84783934D01*
X128749847Y-84794433D01*
X128774521Y-84798882D01*
X128857583Y-84822300D01*
X128922565Y-84857137D01*
X128968753Y-84902796D01*
X128995437Y-84958686D01*
X129000955Y-84987580D01*
X128997343Y-85046204D01*
X128974021Y-85098071D01*
X128933116Y-85142170D01*
X128876751Y-85177491D01*
X128807052Y-85203021D01*
X128726144Y-85217751D01*
X128636152Y-85220670D01*
X128539202Y-85210767D01*
X128533728Y-85209833D01*
X128495167Y-85202651D01*
X128473786Y-85195713D01*
X128464519Y-85185419D01*
X128462298Y-85168168D01*
X128462248Y-85159033D01*
X128462248Y-85120681D01*
X128530723Y-85120681D01*
X128591192Y-85116539D01*
X128632457Y-85103339D01*
X128656467Y-85079922D01*
X128665169Y-85045128D01*
X128665275Y-85040586D01*
X128660184Y-85010846D01*
X128642725Y-84989611D01*
X128610231Y-84975558D01*
X128560035Y-84967365D01*
X128511415Y-84964353D01*
X128440748Y-84962625D01*
X128389490Y-84965262D01*
X128354531Y-84974992D01*
X128332762Y-84994545D01*
X128321072Y-85026648D01*
X128316352Y-85074030D01*
X128315492Y-85136263D01*
X128316901Y-85205727D01*
X128321140Y-85252978D01*
X128328228Y-85278204D01*
X128329603Y-85280180D01*
X128368520Y-85311700D01*
X128425578Y-85336662D01*
X128497161Y-85354532D01*
X128579650Y-85364778D01*
X128669431Y-85366865D01*
X128762884Y-85360260D01*
X128817848Y-85352148D01*
X128904058Y-85327746D01*
X128984184Y-85287854D01*
X129051269Y-85236079D01*
X129061465Y-85225731D01*
X129094594Y-85182227D01*
X129124486Y-85128310D01*
X129147649Y-85071784D01*
X129160590Y-85020451D01*
X129162150Y-85000736D01*
X129155510Y-84959611D01*
X129137860Y-84908444D01*
X129112589Y-84854586D01*
X129083081Y-84805387D01*
X129057011Y-84772526D01*
X128996057Y-84723644D01*
X128917261Y-84684737D01*
X128823449Y-84656686D01*
X128717442Y-84640371D01*
X128620292Y-84636384D01*
X128538373Y-84640791D01*
G37*
X128538373Y-84640791D02*
X128469857Y-84652287D01*
X128417235Y-84670159D01*
X128383000Y-84693691D01*
X128373671Y-84707116D01*
X128364185Y-84738340D01*
X128370569Y-84766587D01*
X128390722Y-84793374D01*
X128422037Y-84805905D01*
X128467475Y-84804888D01*
X128502618Y-84798098D01*
X128580711Y-84785163D01*
X128660518Y-84783934D01*
X128749847Y-84794433D01*
X128774521Y-84798882D01*
X128857583Y-84822300D01*
X128922565Y-84857137D01*
X128968753Y-84902796D01*
X128995437Y-84958686D01*
X129000955Y-84987580D01*
X128997343Y-85046204D01*
X128974021Y-85098071D01*
X128933116Y-85142170D01*
X128876751Y-85177491D01*
X128807052Y-85203021D01*
X128726144Y-85217751D01*
X128636152Y-85220670D01*
X128539202Y-85210767D01*
X128533728Y-85209833D01*
X128495167Y-85202651D01*
X128473786Y-85195713D01*
X128464519Y-85185419D01*
X128462298Y-85168168D01*
X128462248Y-85159033D01*
X128462248Y-85120681D01*
X128530723Y-85120681D01*
X128591192Y-85116539D01*
X128632457Y-85103339D01*
X128656467Y-85079922D01*
X128665169Y-85045128D01*
X128665275Y-85040586D01*
X128660184Y-85010846D01*
X128642725Y-84989611D01*
X128610231Y-84975558D01*
X128560035Y-84967365D01*
X128511415Y-84964353D01*
X128440748Y-84962625D01*
X128389490Y-84965262D01*
X128354531Y-84974992D01*
X128332762Y-84994545D01*
X128321072Y-85026648D01*
X128316352Y-85074030D01*
X128315492Y-85136263D01*
X128316901Y-85205727D01*
X128321140Y-85252978D01*
X128328228Y-85278204D01*
X128329603Y-85280180D01*
X128368520Y-85311700D01*
X128425578Y-85336662D01*
X128497161Y-85354532D01*
X128579650Y-85364778D01*
X128669431Y-85366865D01*
X128762884Y-85360260D01*
X128817848Y-85352148D01*
X128904058Y-85327746D01*
X128984184Y-85287854D01*
X129051269Y-85236079D01*
X129061465Y-85225731D01*
X129094594Y-85182227D01*
X129124486Y-85128310D01*
X129147649Y-85071784D01*
X129160590Y-85020451D01*
X129162150Y-85000736D01*
X129155510Y-84959611D01*
X129137860Y-84908444D01*
X129112589Y-84854586D01*
X129083081Y-84805387D01*
X129057011Y-84772526D01*
X128996057Y-84723644D01*
X128917261Y-84684737D01*
X128823449Y-84656686D01*
X128717442Y-84640371D01*
X128620292Y-84636384D01*
X128538373Y-84640791D01*
G36*
X127888406Y-84639640D02*
G01*
X127864840Y-84653465D01*
X127834027Y-84676073D01*
X127794370Y-84708530D01*
X127744272Y-84751900D01*
X127682135Y-84807250D01*
X127606364Y-84875643D01*
X127519626Y-84954276D01*
X127339003Y-85118070D01*
X127333359Y-84898221D01*
X127331321Y-84822543D01*
X127329355Y-84766186D01*
X127327026Y-84725898D01*
X127323898Y-84698427D01*
X127319537Y-84680521D01*
X127313508Y-84668929D01*
X127305376Y-84660400D01*
X127301064Y-84656815D01*
X127266533Y-84637862D01*
X127233675Y-84640633D01*
X127207610Y-84656825D01*
X127180959Y-84678391D01*
X127177644Y-84993343D01*
X127176727Y-85085971D01*
X127176260Y-85158736D01*
X127176405Y-85214353D01*
X127177324Y-85255534D01*
X127179179Y-85284995D01*
X127182131Y-85305447D01*
X127186342Y-85319605D01*
X127191974Y-85330183D01*
X127198219Y-85338666D01*
X127211731Y-85354399D01*
X127225175Y-85364828D01*
X127240416Y-85368831D01*
X127259318Y-85365286D01*
X127283747Y-85353071D01*
X127315565Y-85331063D01*
X127356640Y-85298141D01*
X127408834Y-85253183D01*
X127474014Y-85195067D01*
X127547848Y-85128291D01*
X127813137Y-84887650D01*
X127818781Y-85106781D01*
X127820823Y-85182320D01*
X127822794Y-85238546D01*
X127825131Y-85278716D01*
X127828273Y-85306088D01*
X127832656Y-85323920D01*
X127838716Y-85335471D01*
X127846892Y-85343999D01*
X127851076Y-85347474D01*
X127888057Y-85366564D01*
X127923000Y-85363685D01*
X127953428Y-85339292D01*
X127960389Y-85329478D01*
X127965815Y-85318018D01*
X127969895Y-85302160D01*
X127972821Y-85279155D01*
X127974784Y-85246254D01*
X127975975Y-85200708D01*
X127976584Y-85139765D01*
X127976803Y-85060678D01*
X127976826Y-85002148D01*
X127976752Y-84910599D01*
X127976405Y-84838879D01*
X127975593Y-84784237D01*
X127974125Y-84743924D01*
X127971811Y-84715190D01*
X127968459Y-84695285D01*
X127963880Y-84681460D01*
X127957881Y-84670964D01*
X127953428Y-84665003D01*
X127942142Y-84650883D01*
X127931593Y-84640221D01*
X127920185Y-84634084D01*
X127906322Y-84633535D01*
X127888406Y-84639640D01*
G37*
X127888406Y-84639640D02*
X127864840Y-84653465D01*
X127834027Y-84676073D01*
X127794370Y-84708530D01*
X127744272Y-84751900D01*
X127682135Y-84807250D01*
X127606364Y-84875643D01*
X127519626Y-84954276D01*
X127339003Y-85118070D01*
X127333359Y-84898221D01*
X127331321Y-84822543D01*
X127329355Y-84766186D01*
X127327026Y-84725898D01*
X127323898Y-84698427D01*
X127319537Y-84680521D01*
X127313508Y-84668929D01*
X127305376Y-84660400D01*
X127301064Y-84656815D01*
X127266533Y-84637862D01*
X127233675Y-84640633D01*
X127207610Y-84656825D01*
X127180959Y-84678391D01*
X127177644Y-84993343D01*
X127176727Y-85085971D01*
X127176260Y-85158736D01*
X127176405Y-85214353D01*
X127177324Y-85255534D01*
X127179179Y-85284995D01*
X127182131Y-85305447D01*
X127186342Y-85319605D01*
X127191974Y-85330183D01*
X127198219Y-85338666D01*
X127211731Y-85354399D01*
X127225175Y-85364828D01*
X127240416Y-85368831D01*
X127259318Y-85365286D01*
X127283747Y-85353071D01*
X127315565Y-85331063D01*
X127356640Y-85298141D01*
X127408834Y-85253183D01*
X127474014Y-85195067D01*
X127547848Y-85128291D01*
X127813137Y-84887650D01*
X127818781Y-85106781D01*
X127820823Y-85182320D01*
X127822794Y-85238546D01*
X127825131Y-85278716D01*
X127828273Y-85306088D01*
X127832656Y-85323920D01*
X127838716Y-85335471D01*
X127846892Y-85343999D01*
X127851076Y-85347474D01*
X127888057Y-85366564D01*
X127923000Y-85363685D01*
X127953428Y-85339292D01*
X127960389Y-85329478D01*
X127965815Y-85318018D01*
X127969895Y-85302160D01*
X127972821Y-85279155D01*
X127974784Y-85246254D01*
X127975975Y-85200708D01*
X127976584Y-85139765D01*
X127976803Y-85060678D01*
X127976826Y-85002148D01*
X127976752Y-84910599D01*
X127976405Y-84838879D01*
X127975593Y-84784237D01*
X127974125Y-84743924D01*
X127971811Y-84715190D01*
X127968459Y-84695285D01*
X127963880Y-84681460D01*
X127957881Y-84670964D01*
X127953428Y-84665003D01*
X127942142Y-84650883D01*
X127931593Y-84640221D01*
X127920185Y-84634084D01*
X127906322Y-84633535D01*
X127888406Y-84639640D01*
G36*
X126357949Y-84635452D02*
G01*
X126281591Y-84636366D01*
X126223075Y-84638503D01*
X126180037Y-84642367D01*
X126150109Y-84648459D01*
X126130924Y-84657282D01*
X126120116Y-84669338D01*
X126115319Y-84685131D01*
X126114165Y-84705162D01*
X126114159Y-84707527D01*
X126115161Y-84730184D01*
X126119896Y-84747695D01*
X126130959Y-84760766D01*
X126150944Y-84770105D01*
X126182446Y-84776419D01*
X126228060Y-84780414D01*
X126290379Y-84782798D01*
X126371999Y-84784278D01*
X126397015Y-84784606D01*
X126639092Y-84787659D01*
X126642478Y-84852570D01*
X126645863Y-84917481D01*
X126477716Y-84917481D01*
X126412026Y-84917723D01*
X126365120Y-84918748D01*
X126333209Y-84921003D01*
X126312501Y-84924934D01*
X126299208Y-84930990D01*
X126289537Y-84939616D01*
X126289475Y-84939685D01*
X126271936Y-84973304D01*
X126272570Y-85009640D01*
X126290978Y-85040615D01*
X126294621Y-85043799D01*
X126307551Y-85052004D01*
X126325268Y-85057713D01*
X126351722Y-85061354D01*
X126390860Y-85063359D01*
X126446630Y-85064156D01*
X126482298Y-85064237D01*
X126644737Y-85064237D01*
X126644737Y-85222281D01*
X126398131Y-85222281D01*
X126316712Y-85222423D01*
X126254882Y-85223006D01*
X126209655Y-85224260D01*
X126178044Y-85226419D01*
X126157061Y-85229715D01*
X126143719Y-85234381D01*
X126135031Y-85240649D01*
X126132842Y-85242925D01*
X126116678Y-85274472D01*
X126115495Y-85310360D01*
X126128756Y-85341477D01*
X126139249Y-85351463D01*
X126150163Y-85356961D01*
X126167075Y-85361214D01*
X126192659Y-85364372D01*
X126229591Y-85366584D01*
X126280546Y-85367998D01*
X126348198Y-85368764D01*
X126435223Y-85369030D01*
X126454898Y-85369037D01*
X126543381Y-85368979D01*
X126612065Y-85368659D01*
X126663728Y-85367859D01*
X126701147Y-85366359D01*
X126727102Y-85363941D01*
X126744370Y-85360386D01*
X126755730Y-85355474D01*
X126763960Y-85348987D01*
X126768475Y-85344330D01*
X126775271Y-85336081D01*
X126780580Y-85325861D01*
X126784586Y-85310992D01*
X126787471Y-85288794D01*
X126789418Y-85256585D01*
X126790611Y-85211688D01*
X126791231Y-85151420D01*
X126791463Y-85073103D01*
X126791492Y-85007186D01*
X126791421Y-84914820D01*
X126791084Y-84842309D01*
X126790294Y-84786929D01*
X126788866Y-84745957D01*
X126786613Y-84716670D01*
X126783349Y-84696345D01*
X126778888Y-84682258D01*
X126773044Y-84671687D01*
X126768095Y-84665003D01*
X126744698Y-84635259D01*
X126454518Y-84635259D01*
X126357949Y-84635452D01*
G37*
X126357949Y-84635452D02*
X126281591Y-84636366D01*
X126223075Y-84638503D01*
X126180037Y-84642367D01*
X126150109Y-84648459D01*
X126130924Y-84657282D01*
X126120116Y-84669338D01*
X126115319Y-84685131D01*
X126114165Y-84705162D01*
X126114159Y-84707527D01*
X126115161Y-84730184D01*
X126119896Y-84747695D01*
X126130959Y-84760766D01*
X126150944Y-84770105D01*
X126182446Y-84776419D01*
X126228060Y-84780414D01*
X126290379Y-84782798D01*
X126371999Y-84784278D01*
X126397015Y-84784606D01*
X126639092Y-84787659D01*
X126642478Y-84852570D01*
X126645863Y-84917481D01*
X126477716Y-84917481D01*
X126412026Y-84917723D01*
X126365120Y-84918748D01*
X126333209Y-84921003D01*
X126312501Y-84924934D01*
X126299208Y-84930990D01*
X126289537Y-84939616D01*
X126289475Y-84939685D01*
X126271936Y-84973304D01*
X126272570Y-85009640D01*
X126290978Y-85040615D01*
X126294621Y-85043799D01*
X126307551Y-85052004D01*
X126325268Y-85057713D01*
X126351722Y-85061354D01*
X126390860Y-85063359D01*
X126446630Y-85064156D01*
X126482298Y-85064237D01*
X126644737Y-85064237D01*
X126644737Y-85222281D01*
X126398131Y-85222281D01*
X126316712Y-85222423D01*
X126254882Y-85223006D01*
X126209655Y-85224260D01*
X126178044Y-85226419D01*
X126157061Y-85229715D01*
X126143719Y-85234381D01*
X126135031Y-85240649D01*
X126132842Y-85242925D01*
X126116678Y-85274472D01*
X126115495Y-85310360D01*
X126128756Y-85341477D01*
X126139249Y-85351463D01*
X126150163Y-85356961D01*
X126167075Y-85361214D01*
X126192659Y-85364372D01*
X126229591Y-85366584D01*
X126280546Y-85367998D01*
X126348198Y-85368764D01*
X126435223Y-85369030D01*
X126454898Y-85369037D01*
X126543381Y-85368979D01*
X126612065Y-85368659D01*
X126663728Y-85367859D01*
X126701147Y-85366359D01*
X126727102Y-85363941D01*
X126744370Y-85360386D01*
X126755730Y-85355474D01*
X126763960Y-85348987D01*
X126768475Y-85344330D01*
X126775271Y-85336081D01*
X126780580Y-85325861D01*
X126784586Y-85310992D01*
X126787471Y-85288794D01*
X126789418Y-85256585D01*
X126790611Y-85211688D01*
X126791231Y-85151420D01*
X126791463Y-85073103D01*
X126791492Y-85007186D01*
X126791421Y-84914820D01*
X126791084Y-84842309D01*
X126790294Y-84786929D01*
X126788866Y-84745957D01*
X126786613Y-84716670D01*
X126783349Y-84696345D01*
X126778888Y-84682258D01*
X126773044Y-84671687D01*
X126768095Y-84665003D01*
X126744698Y-84635259D01*
X126454518Y-84635259D01*
X126357949Y-84635452D01*
G36*
X125569983Y-84635467D02*
G01*
X125441004Y-84639828D01*
X125331301Y-84653053D01*
X125239066Y-84675933D01*
X125162490Y-84709262D01*
X125099765Y-84753830D01*
X125049080Y-84810428D01*
X125008629Y-84879850D01*
X125007833Y-84881543D01*
X124983691Y-84943675D01*
X124975089Y-84998701D01*
X124982061Y-85054079D01*
X125004638Y-85117265D01*
X125008920Y-85126881D01*
X125038120Y-85183158D01*
X125070936Y-85226643D01*
X125113290Y-85263609D01*
X125171102Y-85300327D01*
X125174461Y-85302244D01*
X125224788Y-85326419D01*
X125281671Y-85344474D01*
X125348765Y-85357031D01*
X125429727Y-85364714D01*
X125528210Y-85368145D01*
X125563006Y-85368443D01*
X125728698Y-85369037D01*
X125752095Y-85339292D01*
X125759035Y-85329511D01*
X125764450Y-85318089D01*
X125768527Y-85302287D01*
X125771455Y-85279367D01*
X125773425Y-85246588D01*
X125774067Y-85222281D01*
X125617448Y-85222281D01*
X125523566Y-85222281D01*
X125468628Y-85220675D01*
X125412232Y-85216447D01*
X125365947Y-85210484D01*
X125363153Y-85209982D01*
X125280944Y-85187928D01*
X125217178Y-85154792D01*
X125169840Y-85109039D01*
X125136910Y-85049131D01*
X125131184Y-85033253D01*
X125125571Y-85008525D01*
X125128001Y-84984094D01*
X125139825Y-84951592D01*
X125146952Y-84935626D01*
X125170292Y-84893198D01*
X125198412Y-84863432D01*
X125229352Y-84842703D01*
X125291326Y-84815729D01*
X125370641Y-84796190D01*
X125463039Y-84784938D01*
X125529959Y-84782462D01*
X125617448Y-84782014D01*
X125617448Y-85222281D01*
X125774067Y-85222281D01*
X125774624Y-85201213D01*
X125775242Y-85140503D01*
X125775467Y-85061718D01*
X125775492Y-85000112D01*
X125775492Y-84690677D01*
X125747783Y-84662968D01*
X125735486Y-84651736D01*
X125722189Y-84644045D01*
X125703620Y-84639232D01*
X125675506Y-84636638D01*
X125633575Y-84635602D01*
X125573555Y-84635462D01*
X125569983Y-84635467D01*
G37*
X125569983Y-84635467D02*
X125441004Y-84639828D01*
X125331301Y-84653053D01*
X125239066Y-84675933D01*
X125162490Y-84709262D01*
X125099765Y-84753830D01*
X125049080Y-84810428D01*
X125008629Y-84879850D01*
X125007833Y-84881543D01*
X124983691Y-84943675D01*
X124975089Y-84998701D01*
X124982061Y-85054079D01*
X125004638Y-85117265D01*
X125008920Y-85126881D01*
X125038120Y-85183158D01*
X125070936Y-85226643D01*
X125113290Y-85263609D01*
X125171102Y-85300327D01*
X125174461Y-85302244D01*
X125224788Y-85326419D01*
X125281671Y-85344474D01*
X125348765Y-85357031D01*
X125429727Y-85364714D01*
X125528210Y-85368145D01*
X125563006Y-85368443D01*
X125728698Y-85369037D01*
X125752095Y-85339292D01*
X125759035Y-85329511D01*
X125764450Y-85318089D01*
X125768527Y-85302287D01*
X125771455Y-85279367D01*
X125773425Y-85246588D01*
X125774067Y-85222281D01*
X125617448Y-85222281D01*
X125523566Y-85222281D01*
X125468628Y-85220675D01*
X125412232Y-85216447D01*
X125365947Y-85210484D01*
X125363153Y-85209982D01*
X125280944Y-85187928D01*
X125217178Y-85154792D01*
X125169840Y-85109039D01*
X125136910Y-85049131D01*
X125131184Y-85033253D01*
X125125571Y-85008525D01*
X125128001Y-84984094D01*
X125139825Y-84951592D01*
X125146952Y-84935626D01*
X125170292Y-84893198D01*
X125198412Y-84863432D01*
X125229352Y-84842703D01*
X125291326Y-84815729D01*
X125370641Y-84796190D01*
X125463039Y-84784938D01*
X125529959Y-84782462D01*
X125617448Y-84782014D01*
X125617448Y-85222281D01*
X125774067Y-85222281D01*
X125774624Y-85201213D01*
X125775242Y-85140503D01*
X125775467Y-85061718D01*
X125775492Y-85000112D01*
X125775492Y-84690677D01*
X125747783Y-84662968D01*
X125735486Y-84651736D01*
X125722189Y-84644045D01*
X125703620Y-84639232D01*
X125675506Y-84636638D01*
X125633575Y-84635602D01*
X125573555Y-84635462D01*
X125569983Y-84635467D01*
G36*
X122843627Y-84637226D02*
G01*
X122824037Y-84644227D01*
X122823282Y-84644569D01*
X122796679Y-84664870D01*
X122782022Y-84685753D01*
X122779154Y-84695544D01*
X122779296Y-84708553D01*
X122783331Y-84727087D01*
X122792146Y-84753449D01*
X122806623Y-84789944D01*
X122827647Y-84838879D01*
X122856104Y-84902557D01*
X122892877Y-84983285D01*
X122913117Y-85027408D01*
X122949667Y-85106177D01*
X122983977Y-85178615D01*
X123014740Y-85242072D01*
X123040644Y-85293900D01*
X123060382Y-85331451D01*
X123072642Y-85352076D01*
X123075068Y-85354925D01*
X123106109Y-85367494D01*
X123141171Y-85365811D01*
X123169292Y-85350524D01*
X123170438Y-85349281D01*
X123181624Y-85332346D01*
X123200388Y-85299362D01*
X123224417Y-85254572D01*
X123251395Y-85202224D01*
X123261091Y-85182934D01*
X123334278Y-85036342D01*
X123414052Y-85195585D01*
X123442525Y-85250607D01*
X123468942Y-85298324D01*
X123491144Y-85335085D01*
X123506973Y-85357236D01*
X123512338Y-85361933D01*
X123554035Y-85368294D01*
X123588443Y-85354925D01*
X123598564Y-85340638D01*
X123616078Y-85308884D01*
X123639557Y-85262789D01*
X123667572Y-85205477D01*
X123698693Y-85140072D01*
X123731493Y-85069699D01*
X123764542Y-84997483D01*
X123796411Y-84926547D01*
X123825673Y-84860017D01*
X123850897Y-84801018D01*
X123870656Y-84752673D01*
X123883520Y-84718107D01*
X123888061Y-84700445D01*
X123888015Y-84699805D01*
X123876966Y-84677580D01*
X123854882Y-84654945D01*
X123853582Y-84653960D01*
X123826439Y-84638617D01*
X123801334Y-84638766D01*
X123791924Y-84641658D01*
X123780458Y-84647910D01*
X123768282Y-84660206D01*
X123753935Y-84681100D01*
X123735956Y-84713141D01*
X123712885Y-84758880D01*
X123683262Y-84820869D01*
X123656547Y-84878090D01*
X123625812Y-84944418D01*
X123598271Y-85004066D01*
X123575354Y-85053917D01*
X123558494Y-85090856D01*
X123549119Y-85111765D01*
X123547752Y-85115037D01*
X123541603Y-85109689D01*
X123527470Y-85087301D01*
X123507235Y-85051138D01*
X123482777Y-85004469D01*
X123473044Y-84985214D01*
X123440075Y-84920196D01*
X123414649Y-84872846D01*
X123394680Y-84840411D01*
X123378082Y-84820138D01*
X123362768Y-84809274D01*
X123346652Y-84805067D01*
X123336149Y-84804592D01*
X123317622Y-84806234D01*
X123301388Y-84813023D01*
X123285257Y-84827758D01*
X123267041Y-84853236D01*
X123244553Y-84892253D01*
X123215603Y-84947606D01*
X123199630Y-84979095D01*
X123173722Y-85029279D01*
X123151125Y-85070896D01*
X123133834Y-85100434D01*
X123123842Y-85114381D01*
X123122483Y-85114962D01*
X123116031Y-85103985D01*
X123101584Y-85075482D01*
X123080589Y-85032436D01*
X123054495Y-84977830D01*
X123024746Y-84914646D01*
X123010112Y-84883263D01*
X122972042Y-84802270D01*
X122941387Y-84739948D01*
X122916555Y-84694263D01*
X122895955Y-84663181D01*
X122877994Y-84644670D01*
X122861082Y-84636696D01*
X122843627Y-84637226D01*
G37*
X122843627Y-84637226D02*
X122824037Y-84644227D01*
X122823282Y-84644569D01*
X122796679Y-84664870D01*
X122782022Y-84685753D01*
X122779154Y-84695544D01*
X122779296Y-84708553D01*
X122783331Y-84727087D01*
X122792146Y-84753449D01*
X122806623Y-84789944D01*
X122827647Y-84838879D01*
X122856104Y-84902557D01*
X122892877Y-84983285D01*
X122913117Y-85027408D01*
X122949667Y-85106177D01*
X122983977Y-85178615D01*
X123014740Y-85242072D01*
X123040644Y-85293900D01*
X123060382Y-85331451D01*
X123072642Y-85352076D01*
X123075068Y-85354925D01*
X123106109Y-85367494D01*
X123141171Y-85365811D01*
X123169292Y-85350524D01*
X123170438Y-85349281D01*
X123181624Y-85332346D01*
X123200388Y-85299362D01*
X123224417Y-85254572D01*
X123251395Y-85202224D01*
X123261091Y-85182934D01*
X123334278Y-85036342D01*
X123414052Y-85195585D01*
X123442525Y-85250607D01*
X123468942Y-85298324D01*
X123491144Y-85335085D01*
X123506973Y-85357236D01*
X123512338Y-85361933D01*
X123554035Y-85368294D01*
X123588443Y-85354925D01*
X123598564Y-85340638D01*
X123616078Y-85308884D01*
X123639557Y-85262789D01*
X123667572Y-85205477D01*
X123698693Y-85140072D01*
X123731493Y-85069699D01*
X123764542Y-84997483D01*
X123796411Y-84926547D01*
X123825673Y-84860017D01*
X123850897Y-84801018D01*
X123870656Y-84752673D01*
X123883520Y-84718107D01*
X123888061Y-84700445D01*
X123888015Y-84699805D01*
X123876966Y-84677580D01*
X123854882Y-84654945D01*
X123853582Y-84653960D01*
X123826439Y-84638617D01*
X123801334Y-84638766D01*
X123791924Y-84641658D01*
X123780458Y-84647910D01*
X123768282Y-84660206D01*
X123753935Y-84681100D01*
X123735956Y-84713141D01*
X123712885Y-84758880D01*
X123683262Y-84820869D01*
X123656547Y-84878090D01*
X123625812Y-84944418D01*
X123598271Y-85004066D01*
X123575354Y-85053917D01*
X123558494Y-85090856D01*
X123549119Y-85111765D01*
X123547752Y-85115037D01*
X123541603Y-85109689D01*
X123527470Y-85087301D01*
X123507235Y-85051138D01*
X123482777Y-85004469D01*
X123473044Y-84985214D01*
X123440075Y-84920196D01*
X123414649Y-84872846D01*
X123394680Y-84840411D01*
X123378082Y-84820138D01*
X123362768Y-84809274D01*
X123346652Y-84805067D01*
X123336149Y-84804592D01*
X123317622Y-84806234D01*
X123301388Y-84813023D01*
X123285257Y-84827758D01*
X123267041Y-84853236D01*
X123244553Y-84892253D01*
X123215603Y-84947606D01*
X123199630Y-84979095D01*
X123173722Y-85029279D01*
X123151125Y-85070896D01*
X123133834Y-85100434D01*
X123123842Y-85114381D01*
X123122483Y-85114962D01*
X123116031Y-85103985D01*
X123101584Y-85075482D01*
X123080589Y-85032436D01*
X123054495Y-84977830D01*
X123024746Y-84914646D01*
X123010112Y-84883263D01*
X122972042Y-84802270D01*
X122941387Y-84739948D01*
X122916555Y-84694263D01*
X122895955Y-84663181D01*
X122877994Y-84644670D01*
X122861082Y-84636696D01*
X122843627Y-84637226D01*
G36*
X122399678Y-84642069D02*
G01*
X122375965Y-84656839D01*
X122349314Y-84678419D01*
X122349314Y-84999965D01*
X122349399Y-85094022D01*
X122349763Y-85168124D01*
X122350568Y-85224896D01*
X122351979Y-85266960D01*
X122354159Y-85296940D01*
X122357271Y-85317459D01*
X122361478Y-85331141D01*
X122366944Y-85340608D01*
X122370820Y-85345274D01*
X122402258Y-85365767D01*
X122438059Y-85364931D01*
X122469419Y-85347456D01*
X122496070Y-85325876D01*
X122496070Y-84678419D01*
X122469419Y-84656839D01*
X122443698Y-84641141D01*
X122422692Y-84635259D01*
X122399678Y-84642069D01*
G37*
X122399678Y-84642069D02*
X122375965Y-84656839D01*
X122349314Y-84678419D01*
X122349314Y-84999965D01*
X122349399Y-85094022D01*
X122349763Y-85168124D01*
X122350568Y-85224896D01*
X122351979Y-85266960D01*
X122354159Y-85296940D01*
X122357271Y-85317459D01*
X122361478Y-85331141D01*
X122366944Y-85340608D01*
X122370820Y-85345274D01*
X122402258Y-85365767D01*
X122438059Y-85364931D01*
X122469419Y-85347456D01*
X122496070Y-85325876D01*
X122496070Y-84678419D01*
X122469419Y-84656839D01*
X122443698Y-84641141D01*
X122422692Y-84635259D01*
X122399678Y-84642069D01*
G36*
X121625227Y-84635355D02*
G01*
X121546520Y-84635734D01*
X121485429Y-84636525D01*
X121439475Y-84637862D01*
X121406178Y-84639875D01*
X121383056Y-84642698D01*
X121367630Y-84646461D01*
X121357421Y-84651297D01*
X121352479Y-84655014D01*
X121326835Y-84687550D01*
X121323733Y-84721330D01*
X121339581Y-84752018D01*
X121349944Y-84764281D01*
X121361096Y-84772642D01*
X121377257Y-84777849D01*
X121402650Y-84780649D01*
X121441494Y-84781788D01*
X121498012Y-84782013D01*
X121509112Y-84782014D01*
X121655048Y-84782014D01*
X121655048Y-85052948D01*
X121655144Y-85138346D01*
X121655581Y-85204056D01*
X121656580Y-85252966D01*
X121658364Y-85287965D01*
X121661155Y-85311941D01*
X121665175Y-85327785D01*
X121670647Y-85338383D01*
X121677626Y-85346459D01*
X121710558Y-85366304D01*
X121744938Y-85364740D01*
X121776116Y-85342098D01*
X121778406Y-85339292D01*
X121785863Y-85328684D01*
X121791545Y-85316273D01*
X121795691Y-85299042D01*
X121798542Y-85273976D01*
X121800338Y-85238059D01*
X121801320Y-85188275D01*
X121801728Y-85121609D01*
X121801803Y-85045781D01*
X121801803Y-84782014D01*
X121941165Y-84782014D01*
X122000970Y-84781610D01*
X122042374Y-84780032D01*
X122069544Y-84776739D01*
X122086646Y-84771184D01*
X122097849Y-84762823D01*
X122099209Y-84761370D01*
X122115567Y-84728131D01*
X122114120Y-84690554D01*
X122095314Y-84657837D01*
X122088042Y-84651490D01*
X122078665Y-84646458D01*
X122064683Y-84642588D01*
X122043596Y-84639729D01*
X122012903Y-84637727D01*
X121970103Y-84636431D01*
X121912697Y-84635690D01*
X121838182Y-84635350D01*
X121744059Y-84635260D01*
X121724032Y-84635259D01*
X121625227Y-84635355D01*
G37*
X121625227Y-84635355D02*
X121546520Y-84635734D01*
X121485429Y-84636525D01*
X121439475Y-84637862D01*
X121406178Y-84639875D01*
X121383056Y-84642698D01*
X121367630Y-84646461D01*
X121357421Y-84651297D01*
X121352479Y-84655014D01*
X121326835Y-84687550D01*
X121323733Y-84721330D01*
X121339581Y-84752018D01*
X121349944Y-84764281D01*
X121361096Y-84772642D01*
X121377257Y-84777849D01*
X121402650Y-84780649D01*
X121441494Y-84781788D01*
X121498012Y-84782013D01*
X121509112Y-84782014D01*
X121655048Y-84782014D01*
X121655048Y-85052948D01*
X121655144Y-85138346D01*
X121655581Y-85204056D01*
X121656580Y-85252966D01*
X121658364Y-85287965D01*
X121661155Y-85311941D01*
X121665175Y-85327785D01*
X121670647Y-85338383D01*
X121677626Y-85346459D01*
X121710558Y-85366304D01*
X121744938Y-85364740D01*
X121776116Y-85342098D01*
X121778406Y-85339292D01*
X121785863Y-85328684D01*
X121791545Y-85316273D01*
X121795691Y-85299042D01*
X121798542Y-85273976D01*
X121800338Y-85238059D01*
X121801320Y-85188275D01*
X121801728Y-85121609D01*
X121801803Y-85045781D01*
X121801803Y-84782014D01*
X121941165Y-84782014D01*
X122000970Y-84781610D01*
X122042374Y-84780032D01*
X122069544Y-84776739D01*
X122086646Y-84771184D01*
X122097849Y-84762823D01*
X122099209Y-84761370D01*
X122115567Y-84728131D01*
X122114120Y-84690554D01*
X122095314Y-84657837D01*
X122088042Y-84651490D01*
X122078665Y-84646458D01*
X122064683Y-84642588D01*
X122043596Y-84639729D01*
X122012903Y-84637727D01*
X121970103Y-84636431D01*
X121912697Y-84635690D01*
X121838182Y-84635350D01*
X121744059Y-84635260D01*
X121724032Y-84635259D01*
X121625227Y-84635355D01*
G36*
X120359469Y-84640725D02*
G01*
X120328090Y-84662968D01*
X120300381Y-84690677D01*
X120300381Y-85000112D01*
X120300454Y-85091991D01*
X120300797Y-85164032D01*
X120301600Y-85218972D01*
X120303051Y-85259552D01*
X120305340Y-85288509D01*
X120308656Y-85308583D01*
X120313187Y-85322513D01*
X120319123Y-85333037D01*
X120323778Y-85339292D01*
X120354509Y-85363865D01*
X120389796Y-85366533D01*
X120422047Y-85351463D01*
X120432704Y-85342566D01*
X120439828Y-85330749D01*
X120444125Y-85311718D01*
X120446301Y-85281184D01*
X120447064Y-85234854D01*
X120447137Y-85199063D01*
X120447137Y-85064237D01*
X120943848Y-85064237D01*
X120943848Y-85186892D01*
X120944361Y-85242979D01*
X120946416Y-85281525D01*
X120950784Y-85307553D01*
X120958236Y-85326089D01*
X120967245Y-85339292D01*
X120998148Y-85363796D01*
X121033096Y-85366698D01*
X121066554Y-85349281D01*
X121075688Y-85340151D01*
X121082140Y-85328047D01*
X121086395Y-85309193D01*
X121088940Y-85279812D01*
X121090263Y-85236129D01*
X121090849Y-85174367D01*
X121090917Y-85160192D01*
X121091401Y-85043823D01*
X121091651Y-84947919D01*
X121091569Y-84870369D01*
X121091061Y-84809061D01*
X121090030Y-84761882D01*
X121088379Y-84726722D01*
X121086013Y-84701468D01*
X121082835Y-84684009D01*
X121078748Y-84672233D01*
X121073658Y-84664027D01*
X121068026Y-84657837D01*
X121036164Y-84638036D01*
X121002935Y-84640725D01*
X120971557Y-84662968D01*
X120958859Y-84677318D01*
X120950766Y-84693170D01*
X120946250Y-84715746D01*
X120944286Y-84750270D01*
X120943848Y-84801968D01*
X120943848Y-84917481D01*
X120447137Y-84917481D01*
X120447137Y-84798948D01*
X120446630Y-84744340D01*
X120444594Y-84707467D01*
X120440257Y-84683499D01*
X120432845Y-84667607D01*
X120424559Y-84657837D01*
X120392698Y-84638036D01*
X120359469Y-84640725D01*
G37*
X120359469Y-84640725D02*
X120328090Y-84662968D01*
X120300381Y-84690677D01*
X120300381Y-85000112D01*
X120300454Y-85091991D01*
X120300797Y-85164032D01*
X120301600Y-85218972D01*
X120303051Y-85259552D01*
X120305340Y-85288509D01*
X120308656Y-85308583D01*
X120313187Y-85322513D01*
X120319123Y-85333037D01*
X120323778Y-85339292D01*
X120354509Y-85363865D01*
X120389796Y-85366533D01*
X120422047Y-85351463D01*
X120432704Y-85342566D01*
X120439828Y-85330749D01*
X120444125Y-85311718D01*
X120446301Y-85281184D01*
X120447064Y-85234854D01*
X120447137Y-85199063D01*
X120447137Y-85064237D01*
X120943848Y-85064237D01*
X120943848Y-85186892D01*
X120944361Y-85242979D01*
X120946416Y-85281525D01*
X120950784Y-85307553D01*
X120958236Y-85326089D01*
X120967245Y-85339292D01*
X120998148Y-85363796D01*
X121033096Y-85366698D01*
X121066554Y-85349281D01*
X121075688Y-85340151D01*
X121082140Y-85328047D01*
X121086395Y-85309193D01*
X121088940Y-85279812D01*
X121090263Y-85236129D01*
X121090849Y-85174367D01*
X121090917Y-85160192D01*
X121091401Y-85043823D01*
X121091651Y-84947919D01*
X121091569Y-84870369D01*
X121091061Y-84809061D01*
X121090030Y-84761882D01*
X121088379Y-84726722D01*
X121086013Y-84701468D01*
X121082835Y-84684009D01*
X121078748Y-84672233D01*
X121073658Y-84664027D01*
X121068026Y-84657837D01*
X121036164Y-84638036D01*
X121002935Y-84640725D01*
X120971557Y-84662968D01*
X120958859Y-84677318D01*
X120950766Y-84693170D01*
X120946250Y-84715746D01*
X120944286Y-84750270D01*
X120943848Y-84801968D01*
X120943848Y-84917481D01*
X120447137Y-84917481D01*
X120447137Y-84798948D01*
X120446630Y-84744340D01*
X120444594Y-84707467D01*
X120440257Y-84683499D01*
X120432845Y-84667607D01*
X120424559Y-84657837D01*
X120392698Y-84638036D01*
X120359469Y-84640725D01*
G36*
X129326079Y-78036490D02*
G01*
X129222973Y-78072238D01*
X129126978Y-78128507D01*
X129041247Y-78205288D01*
X128968930Y-78302573D01*
X128936445Y-78363892D01*
X128908332Y-78449660D01*
X128894705Y-78548677D01*
X128896214Y-78650471D01*
X128912969Y-78742714D01*
X128958763Y-78855432D01*
X129025168Y-78953207D01*
X129108809Y-79034115D01*
X129206312Y-79096232D01*
X129314300Y-79137634D01*
X129429399Y-79156397D01*
X129548234Y-79150598D01*
X129606811Y-79138206D01*
X129720972Y-79093797D01*
X129822365Y-79026033D01*
X129908545Y-78937001D01*
X129977066Y-78828791D01*
X129982864Y-78816973D01*
X130002904Y-78772628D01*
X130015487Y-78735280D01*
X130022319Y-78695880D01*
X130025105Y-78645381D01*
X130025568Y-78590433D01*
X130024803Y-78524415D01*
X130021352Y-78476689D01*
X130013477Y-78438103D01*
X129999443Y-78399506D01*
X129982120Y-78361426D01*
X129917505Y-78253328D01*
X129837934Y-78165803D01*
X129746560Y-78098841D01*
X129646536Y-78052436D01*
X129541012Y-78026581D01*
X129433142Y-78021268D01*
X129326079Y-78036490D01*
G37*
X129326079Y-78036490D02*
X129222973Y-78072238D01*
X129126978Y-78128507D01*
X129041247Y-78205288D01*
X128968930Y-78302573D01*
X128936445Y-78363892D01*
X128908332Y-78449660D01*
X128894705Y-78548677D01*
X128896214Y-78650471D01*
X128912969Y-78742714D01*
X128958763Y-78855432D01*
X129025168Y-78953207D01*
X129108809Y-79034115D01*
X129206312Y-79096232D01*
X129314300Y-79137634D01*
X129429399Y-79156397D01*
X129548234Y-79150598D01*
X129606811Y-79138206D01*
X129720972Y-79093797D01*
X129822365Y-79026033D01*
X129908545Y-78937001D01*
X129977066Y-78828791D01*
X129982864Y-78816973D01*
X130002904Y-78772628D01*
X130015487Y-78735280D01*
X130022319Y-78695880D01*
X130025105Y-78645381D01*
X130025568Y-78590433D01*
X130024803Y-78524415D01*
X130021352Y-78476689D01*
X130013477Y-78438103D01*
X129999443Y-78399506D01*
X129982120Y-78361426D01*
X129917505Y-78253328D01*
X129837934Y-78165803D01*
X129746560Y-78098841D01*
X129646536Y-78052436D01*
X129541012Y-78026581D01*
X129433142Y-78021268D01*
X129326079Y-78036490D01*
G36*
X119757730Y-78956825D02*
G01*
X119640959Y-78957304D01*
X119601271Y-78957545D01*
X119055514Y-78961135D01*
X119048649Y-81054919D01*
X119047742Y-81338842D01*
X119046938Y-81596640D01*
X119046185Y-81829646D01*
X119045431Y-82039194D01*
X119044625Y-82226618D01*
X119043715Y-82393250D01*
X119042649Y-82540425D01*
X119041376Y-82669477D01*
X119039844Y-82781739D01*
X119038002Y-82878544D01*
X119035797Y-82961226D01*
X119033178Y-83031119D01*
X119030094Y-83089557D01*
X119026492Y-83137872D01*
X119022322Y-83177400D01*
X119017531Y-83209473D01*
X119012069Y-83235424D01*
X119005882Y-83256589D01*
X118998920Y-83274299D01*
X118991131Y-83289889D01*
X118982463Y-83304693D01*
X118972865Y-83320044D01*
X118962285Y-83337276D01*
X118960116Y-83340946D01*
X118923732Y-83403031D01*
X119449569Y-83399434D01*
X119975406Y-83395838D01*
X119982271Y-83280331D01*
X119986008Y-83224899D01*
X119989903Y-83192851D01*
X119995189Y-83180135D01*
X120003097Y-83182696D01*
X120009730Y-83190024D01*
X120038626Y-83216714D01*
X120085721Y-83251021D01*
X120144380Y-83288846D01*
X120207969Y-83326090D01*
X120269851Y-83358653D01*
X120317366Y-83380077D01*
X120428684Y-83415283D01*
X120556404Y-83440222D01*
X120691099Y-83453941D01*
X120823337Y-83455486D01*
X120943692Y-83443906D01*
X120945674Y-83443574D01*
X121110359Y-83402250D01*
X121264521Y-83336412D01*
X121406672Y-83247474D01*
X121535325Y-83136852D01*
X121648993Y-83005961D01*
X121746190Y-82856216D01*
X121825428Y-82689033D01*
X121868570Y-82565190D01*
X121897021Y-82461581D01*
X121918120Y-82361252D01*
X121932512Y-82258109D01*
X121940842Y-82146057D01*
X121943755Y-82019001D01*
X121942465Y-81915252D01*
X120929350Y-81915252D01*
X120924556Y-82089222D01*
X120909432Y-82238895D01*
X120883515Y-82365597D01*
X120846337Y-82470658D01*
X120797435Y-82555406D01*
X120736342Y-82621169D01*
X120665823Y-82667659D01*
X120629129Y-82685014D01*
X120597304Y-82695419D01*
X120561823Y-82700179D01*
X120514159Y-82700601D01*
X120462811Y-82698748D01*
X120361831Y-82689841D01*
X120281965Y-82672398D01*
X120256865Y-82663661D01*
X120199552Y-82637857D01*
X120139103Y-82605453D01*
X120112703Y-82589233D01*
X120044054Y-82544205D01*
X120044054Y-81116982D01*
X120119568Y-81071718D01*
X120224879Y-81020572D01*
X120332475Y-80990324D01*
X120438419Y-80980795D01*
X120538776Y-80991807D01*
X120629613Y-81023181D01*
X120706993Y-81074740D01*
X120731961Y-81099488D01*
X120792144Y-81180577D01*
X120840855Y-81278734D01*
X120878501Y-81395643D01*
X120905488Y-81532985D01*
X120922225Y-81692444D01*
X120929117Y-81875700D01*
X120929350Y-81915252D01*
X121942465Y-81915252D01*
X121941927Y-81872067D01*
X121930353Y-81646053D01*
X121907080Y-81442192D01*
X121871496Y-81257513D01*
X121822987Y-81089048D01*
X121760940Y-80933826D01*
X121738799Y-80887808D01*
X121649615Y-80737739D01*
X121541841Y-80604377D01*
X121418010Y-80489877D01*
X121280658Y-80396389D01*
X121132317Y-80326068D01*
X121043396Y-80297060D01*
X120956067Y-80279840D01*
X120850989Y-80269594D01*
X120736971Y-80266318D01*
X120622823Y-80270009D01*
X120517352Y-80280660D01*
X120432666Y-80297370D01*
X120331872Y-80330140D01*
X120234178Y-80372279D01*
X120148704Y-80419519D01*
X120103211Y-80451581D01*
X120071831Y-80475422D01*
X120049858Y-80489939D01*
X120044859Y-80492000D01*
X120043310Y-80478718D01*
X120041865Y-80440663D01*
X120040557Y-80380519D01*
X120039417Y-80300973D01*
X120038479Y-80204711D01*
X120037774Y-80094419D01*
X120037333Y-79972781D01*
X120037189Y-79848885D01*
X120037270Y-79690196D01*
X120037665Y-79556408D01*
X120038605Y-79444960D01*
X120040320Y-79353295D01*
X120043043Y-79278853D01*
X120047003Y-79219075D01*
X120052431Y-79171402D01*
X120059559Y-79133274D01*
X120068616Y-79102134D01*
X120079833Y-79075421D01*
X120093442Y-79050577D01*
X120109672Y-79025043D01*
X120111760Y-79021881D01*
X120132694Y-78988810D01*
X120145333Y-78966069D01*
X120147027Y-78961272D01*
X120133784Y-78959759D01*
X120095998Y-78958528D01*
X120036584Y-78957599D01*
X119958458Y-78956992D01*
X119864535Y-78956727D01*
X119757730Y-78956825D01*
G37*
X119757730Y-78956825D02*
X119640959Y-78957304D01*
X119601271Y-78957545D01*
X119055514Y-78961135D01*
X119048649Y-81054919D01*
X119047742Y-81338842D01*
X119046938Y-81596640D01*
X119046185Y-81829646D01*
X119045431Y-82039194D01*
X119044625Y-82226618D01*
X119043715Y-82393250D01*
X119042649Y-82540425D01*
X119041376Y-82669477D01*
X119039844Y-82781739D01*
X119038002Y-82878544D01*
X119035797Y-82961226D01*
X119033178Y-83031119D01*
X119030094Y-83089557D01*
X119026492Y-83137872D01*
X119022322Y-83177400D01*
X119017531Y-83209473D01*
X119012069Y-83235424D01*
X119005882Y-83256589D01*
X118998920Y-83274299D01*
X118991131Y-83289889D01*
X118982463Y-83304693D01*
X118972865Y-83320044D01*
X118962285Y-83337276D01*
X118960116Y-83340946D01*
X118923732Y-83403031D01*
X119449569Y-83399434D01*
X119975406Y-83395838D01*
X119982271Y-83280331D01*
X119986008Y-83224899D01*
X119989903Y-83192851D01*
X119995189Y-83180135D01*
X120003097Y-83182696D01*
X120009730Y-83190024D01*
X120038626Y-83216714D01*
X120085721Y-83251021D01*
X120144380Y-83288846D01*
X120207969Y-83326090D01*
X120269851Y-83358653D01*
X120317366Y-83380077D01*
X120428684Y-83415283D01*
X120556404Y-83440222D01*
X120691099Y-83453941D01*
X120823337Y-83455486D01*
X120943692Y-83443906D01*
X120945674Y-83443574D01*
X121110359Y-83402250D01*
X121264521Y-83336412D01*
X121406672Y-83247474D01*
X121535325Y-83136852D01*
X121648993Y-83005961D01*
X121746190Y-82856216D01*
X121825428Y-82689033D01*
X121868570Y-82565190D01*
X121897021Y-82461581D01*
X121918120Y-82361252D01*
X121932512Y-82258109D01*
X121940842Y-82146057D01*
X121943755Y-82019001D01*
X121942465Y-81915252D01*
X120929350Y-81915252D01*
X120924556Y-82089222D01*
X120909432Y-82238895D01*
X120883515Y-82365597D01*
X120846337Y-82470658D01*
X120797435Y-82555406D01*
X120736342Y-82621169D01*
X120665823Y-82667659D01*
X120629129Y-82685014D01*
X120597304Y-82695419D01*
X120561823Y-82700179D01*
X120514159Y-82700601D01*
X120462811Y-82698748D01*
X120361831Y-82689841D01*
X120281965Y-82672398D01*
X120256865Y-82663661D01*
X120199552Y-82637857D01*
X120139103Y-82605453D01*
X120112703Y-82589233D01*
X120044054Y-82544205D01*
X120044054Y-81116982D01*
X120119568Y-81071718D01*
X120224879Y-81020572D01*
X120332475Y-80990324D01*
X120438419Y-80980795D01*
X120538776Y-80991807D01*
X120629613Y-81023181D01*
X120706993Y-81074740D01*
X120731961Y-81099488D01*
X120792144Y-81180577D01*
X120840855Y-81278734D01*
X120878501Y-81395643D01*
X120905488Y-81532985D01*
X120922225Y-81692444D01*
X120929117Y-81875700D01*
X120929350Y-81915252D01*
X121942465Y-81915252D01*
X121941927Y-81872067D01*
X121930353Y-81646053D01*
X121907080Y-81442192D01*
X121871496Y-81257513D01*
X121822987Y-81089048D01*
X121760940Y-80933826D01*
X121738799Y-80887808D01*
X121649615Y-80737739D01*
X121541841Y-80604377D01*
X121418010Y-80489877D01*
X121280658Y-80396389D01*
X121132317Y-80326068D01*
X121043396Y-80297060D01*
X120956067Y-80279840D01*
X120850989Y-80269594D01*
X120736971Y-80266318D01*
X120622823Y-80270009D01*
X120517352Y-80280660D01*
X120432666Y-80297370D01*
X120331872Y-80330140D01*
X120234178Y-80372279D01*
X120148704Y-80419519D01*
X120103211Y-80451581D01*
X120071831Y-80475422D01*
X120049858Y-80489939D01*
X120044859Y-80492000D01*
X120043310Y-80478718D01*
X120041865Y-80440663D01*
X120040557Y-80380519D01*
X120039417Y-80300973D01*
X120038479Y-80204711D01*
X120037774Y-80094419D01*
X120037333Y-79972781D01*
X120037189Y-79848885D01*
X120037270Y-79690196D01*
X120037665Y-79556408D01*
X120038605Y-79444960D01*
X120040320Y-79353295D01*
X120043043Y-79278853D01*
X120047003Y-79219075D01*
X120052431Y-79171402D01*
X120059559Y-79133274D01*
X120068616Y-79102134D01*
X120079833Y-79075421D01*
X120093442Y-79050577D01*
X120109672Y-79025043D01*
X120111760Y-79021881D01*
X120132694Y-78988810D01*
X120145333Y-78966069D01*
X120147027Y-78961272D01*
X120133784Y-78959759D01*
X120095998Y-78958528D01*
X120036584Y-78957599D01*
X119958458Y-78956992D01*
X119864535Y-78956727D01*
X119757730Y-78956825D01*
G36*
X123432495Y-80264229D02*
G01*
X123364469Y-80269378D01*
X123169837Y-80295273D01*
X122997471Y-80336575D01*
X122846530Y-80393853D01*
X122716175Y-80467674D01*
X122605566Y-80558608D01*
X122513865Y-80667222D01*
X122440230Y-80794085D01*
X122386461Y-80931352D01*
X122372813Y-80975137D01*
X122360927Y-81016141D01*
X122350666Y-81056569D01*
X122341887Y-81098630D01*
X122334452Y-81144531D01*
X122328220Y-81196480D01*
X122323050Y-81256685D01*
X122318804Y-81327352D01*
X122315340Y-81410689D01*
X122312519Y-81508905D01*
X122310200Y-81624205D01*
X122308243Y-81758799D01*
X122306509Y-81914893D01*
X122304857Y-82094695D01*
X122303676Y-82235676D01*
X122295730Y-83203622D01*
X122244244Y-83296770D01*
X122219863Y-83341645D01*
X122201720Y-83376501D01*
X122193065Y-83395054D01*
X122192757Y-83396311D01*
X122205986Y-83397749D01*
X122243674Y-83399074D01*
X122302817Y-83400249D01*
X122380414Y-83401237D01*
X122473464Y-83401999D01*
X122578965Y-83402500D01*
X122693916Y-83402701D01*
X122707622Y-83402703D01*
X123222487Y-83402703D01*
X123222487Y-83286000D01*
X123223365Y-83233260D01*
X123225708Y-83192926D01*
X123229079Y-83171300D01*
X123230569Y-83169298D01*
X123244196Y-83177683D01*
X123272243Y-83199692D01*
X123308697Y-83230601D01*
X123309515Y-83231316D01*
X123376038Y-83280843D01*
X123460052Y-83330575D01*
X123552063Y-83375626D01*
X123642579Y-83411110D01*
X123682433Y-83423236D01*
X123761745Y-83438637D01*
X123859065Y-83448465D01*
X123965484Y-83452580D01*
X124072093Y-83450841D01*
X124169983Y-83443108D01*
X124238487Y-83431981D01*
X124406480Y-83382648D01*
X124557719Y-83312342D01*
X124691218Y-83221933D01*
X124805994Y-83112295D01*
X124901063Y-82984299D01*
X124975440Y-82838818D01*
X125007526Y-82750541D01*
X125027635Y-82664739D01*
X125040962Y-82561736D01*
X125047128Y-82451034D01*
X125046926Y-82434925D01*
X124118352Y-82434925D01*
X124110652Y-82517184D01*
X124085011Y-82585546D01*
X124037622Y-82648970D01*
X124019421Y-82667567D01*
X123954718Y-82717846D01*
X123879934Y-82750056D01*
X123790338Y-82765648D01*
X123695988Y-82766796D01*
X123606499Y-82759216D01*
X123537982Y-82744389D01*
X123508225Y-82733253D01*
X123454592Y-82702904D01*
X123397765Y-82660221D01*
X123345918Y-82612317D01*
X123307222Y-82566301D01*
X123296946Y-82549421D01*
X123288958Y-82525782D01*
X123283279Y-82488168D01*
X123279644Y-82432985D01*
X123277789Y-82356640D01*
X123277406Y-82283981D01*
X123277665Y-82199270D01*
X123278713Y-82138018D01*
X123280955Y-82096227D01*
X123284794Y-82069899D01*
X123290635Y-82055035D01*
X123298882Y-82047639D01*
X123301433Y-82046461D01*
X123323600Y-82042833D01*
X123367320Y-82039866D01*
X123426689Y-82037827D01*
X123495804Y-82036983D01*
X123510811Y-82036982D01*
X123603195Y-82038457D01*
X123674568Y-82042842D01*
X123731281Y-82050738D01*
X123778128Y-82062270D01*
X123894331Y-82106215D01*
X123985457Y-82160243D01*
X124052295Y-82225219D01*
X124095635Y-82302005D01*
X124116266Y-82391467D01*
X124118352Y-82434925D01*
X125046926Y-82434925D01*
X125045756Y-82342133D01*
X125036468Y-82244536D01*
X125029223Y-82205105D01*
X124982961Y-82058701D01*
X124912616Y-81923995D01*
X124819516Y-81802280D01*
X124704988Y-81694847D01*
X124570360Y-81602988D01*
X124416960Y-81527996D01*
X124286541Y-81482458D01*
X124199377Y-81458533D01*
X124116004Y-81439943D01*
X124031024Y-81426084D01*
X123939035Y-81416351D01*
X123834638Y-81410141D01*
X123712432Y-81406851D01*
X123601945Y-81405924D01*
X123274323Y-81405027D01*
X123280599Y-81306547D01*
X123298421Y-81199695D01*
X123336333Y-81107852D01*
X123392720Y-81033310D01*
X123465969Y-80978364D01*
X123530465Y-80951552D01*
X123622877Y-80934654D01*
X123732889Y-80932227D01*
X123855344Y-80943378D01*
X123985086Y-80967210D01*
X124116958Y-81002830D01*
X124245802Y-81049343D01*
X124339434Y-81091883D01*
X124384483Y-81113728D01*
X124418844Y-81128984D01*
X124436319Y-81134937D01*
X124437267Y-81134746D01*
X124443297Y-81121412D01*
X124458355Y-81086068D01*
X124481023Y-81032101D01*
X124509885Y-80962896D01*
X124543523Y-80881840D01*
X124577716Y-80799118D01*
X124714414Y-80467803D01*
X124617180Y-80451833D01*
X124575036Y-80443820D01*
X124511681Y-80430361D01*
X124432543Y-80412679D01*
X124343049Y-80391996D01*
X124248627Y-80369532D01*
X124211027Y-80360403D01*
X124048363Y-80322674D01*
X123905950Y-80294388D01*
X123778473Y-80274972D01*
X123660616Y-80263854D01*
X123547062Y-80260464D01*
X123432495Y-80264229D01*
G37*
X123432495Y-80264229D02*
X123364469Y-80269378D01*
X123169837Y-80295273D01*
X122997471Y-80336575D01*
X122846530Y-80393853D01*
X122716175Y-80467674D01*
X122605566Y-80558608D01*
X122513865Y-80667222D01*
X122440230Y-80794085D01*
X122386461Y-80931352D01*
X122372813Y-80975137D01*
X122360927Y-81016141D01*
X122350666Y-81056569D01*
X122341887Y-81098630D01*
X122334452Y-81144531D01*
X122328220Y-81196480D01*
X122323050Y-81256685D01*
X122318804Y-81327352D01*
X122315340Y-81410689D01*
X122312519Y-81508905D01*
X122310200Y-81624205D01*
X122308243Y-81758799D01*
X122306509Y-81914893D01*
X122304857Y-82094695D01*
X122303676Y-82235676D01*
X122295730Y-83203622D01*
X122244244Y-83296770D01*
X122219863Y-83341645D01*
X122201720Y-83376501D01*
X122193065Y-83395054D01*
X122192757Y-83396311D01*
X122205986Y-83397749D01*
X122243674Y-83399074D01*
X122302817Y-83400249D01*
X122380414Y-83401237D01*
X122473464Y-83401999D01*
X122578965Y-83402500D01*
X122693916Y-83402701D01*
X122707622Y-83402703D01*
X123222487Y-83402703D01*
X123222487Y-83286000D01*
X123223365Y-83233260D01*
X123225708Y-83192926D01*
X123229079Y-83171300D01*
X123230569Y-83169298D01*
X123244196Y-83177683D01*
X123272243Y-83199692D01*
X123308697Y-83230601D01*
X123309515Y-83231316D01*
X123376038Y-83280843D01*
X123460052Y-83330575D01*
X123552063Y-83375626D01*
X123642579Y-83411110D01*
X123682433Y-83423236D01*
X123761745Y-83438637D01*
X123859065Y-83448465D01*
X123965484Y-83452580D01*
X124072093Y-83450841D01*
X124169983Y-83443108D01*
X124238487Y-83431981D01*
X124406480Y-83382648D01*
X124557719Y-83312342D01*
X124691218Y-83221933D01*
X124805994Y-83112295D01*
X124901063Y-82984299D01*
X124975440Y-82838818D01*
X125007526Y-82750541D01*
X125027635Y-82664739D01*
X125040962Y-82561736D01*
X125047128Y-82451034D01*
X125046926Y-82434925D01*
X124118352Y-82434925D01*
X124110652Y-82517184D01*
X124085011Y-82585546D01*
X124037622Y-82648970D01*
X124019421Y-82667567D01*
X123954718Y-82717846D01*
X123879934Y-82750056D01*
X123790338Y-82765648D01*
X123695988Y-82766796D01*
X123606499Y-82759216D01*
X123537982Y-82744389D01*
X123508225Y-82733253D01*
X123454592Y-82702904D01*
X123397765Y-82660221D01*
X123345918Y-82612317D01*
X123307222Y-82566301D01*
X123296946Y-82549421D01*
X123288958Y-82525782D01*
X123283279Y-82488168D01*
X123279644Y-82432985D01*
X123277789Y-82356640D01*
X123277406Y-82283981D01*
X123277665Y-82199270D01*
X123278713Y-82138018D01*
X123280955Y-82096227D01*
X123284794Y-82069899D01*
X123290635Y-82055035D01*
X123298882Y-82047639D01*
X123301433Y-82046461D01*
X123323600Y-82042833D01*
X123367320Y-82039866D01*
X123426689Y-82037827D01*
X123495804Y-82036983D01*
X123510811Y-82036982D01*
X123603195Y-82038457D01*
X123674568Y-82042842D01*
X123731281Y-82050738D01*
X123778128Y-82062270D01*
X123894331Y-82106215D01*
X123985457Y-82160243D01*
X124052295Y-82225219D01*
X124095635Y-82302005D01*
X124116266Y-82391467D01*
X124118352Y-82434925D01*
X125046926Y-82434925D01*
X125045756Y-82342133D01*
X125036468Y-82244536D01*
X125029223Y-82205105D01*
X124982961Y-82058701D01*
X124912616Y-81923995D01*
X124819516Y-81802280D01*
X124704988Y-81694847D01*
X124570360Y-81602988D01*
X124416960Y-81527996D01*
X124286541Y-81482458D01*
X124199377Y-81458533D01*
X124116004Y-81439943D01*
X124031024Y-81426084D01*
X123939035Y-81416351D01*
X123834638Y-81410141D01*
X123712432Y-81406851D01*
X123601945Y-81405924D01*
X123274323Y-81405027D01*
X123280599Y-81306547D01*
X123298421Y-81199695D01*
X123336333Y-81107852D01*
X123392720Y-81033310D01*
X123465969Y-80978364D01*
X123530465Y-80951552D01*
X123622877Y-80934654D01*
X123732889Y-80932227D01*
X123855344Y-80943378D01*
X123985086Y-80967210D01*
X124116958Y-81002830D01*
X124245802Y-81049343D01*
X124339434Y-81091883D01*
X124384483Y-81113728D01*
X124418844Y-81128984D01*
X124436319Y-81134937D01*
X124437267Y-81134746D01*
X124443297Y-81121412D01*
X124458355Y-81086068D01*
X124481023Y-81032101D01*
X124509885Y-80962896D01*
X124543523Y-80881840D01*
X124577716Y-80799118D01*
X124714414Y-80467803D01*
X124617180Y-80451833D01*
X124575036Y-80443820D01*
X124511681Y-80430361D01*
X124432543Y-80412679D01*
X124343049Y-80391996D01*
X124248627Y-80369532D01*
X124211027Y-80360403D01*
X124048363Y-80322674D01*
X123905950Y-80294388D01*
X123778473Y-80274972D01*
X123660616Y-80263854D01*
X123547062Y-80260464D01*
X123432495Y-80264229D01*
G36*
X126160038Y-79160499D02*
G01*
X126011986Y-79176707D01*
X125868548Y-79205718D01*
X125723890Y-79249045D01*
X125572176Y-79308201D01*
X125407572Y-79384700D01*
X125377929Y-79399517D01*
X125309902Y-79433031D01*
X125245744Y-79463208D01*
X125191785Y-79487166D01*
X125154360Y-79502024D01*
X125148611Y-79503895D01*
X125093514Y-79520402D01*
X125340149Y-79879201D01*
X125400448Y-79966893D01*
X125455578Y-80047012D01*
X125503664Y-80116836D01*
X125542832Y-80173647D01*
X125571206Y-80214723D01*
X125586913Y-80237346D01*
X125589464Y-80240928D01*
X125599829Y-80233438D01*
X125625340Y-80210918D01*
X125661437Y-80177461D01*
X125681358Y-80158550D01*
X125794227Y-80068778D01*
X125920986Y-80000561D01*
X126030217Y-79963195D01*
X126095786Y-79951460D01*
X126177884Y-79944308D01*
X126266856Y-79941874D01*
X126353044Y-79944288D01*
X126426795Y-79951683D01*
X126456224Y-79957347D01*
X126588867Y-80002982D01*
X126708394Y-80072663D01*
X126814717Y-80166260D01*
X126907747Y-80283649D01*
X126987395Y-80424700D01*
X127053574Y-80589286D01*
X127106194Y-80777280D01*
X127137467Y-80938217D01*
X127145626Y-81009263D01*
X127151185Y-81101046D01*
X127154198Y-81206968D01*
X127154719Y-81320434D01*
X127152800Y-81434849D01*
X127148497Y-81543617D01*
X127141863Y-81640143D01*
X127132951Y-81717831D01*
X127131021Y-81729817D01*
X127088501Y-81922892D01*
X127030567Y-82093773D01*
X126956867Y-82243224D01*
X126867049Y-82372011D01*
X126803293Y-82441639D01*
X126688714Y-82536173D01*
X126563058Y-82606246D01*
X126428443Y-82651477D01*
X126286989Y-82671484D01*
X126140817Y-82665885D01*
X125992045Y-82634300D01*
X125904089Y-82603394D01*
X125782371Y-82541506D01*
X125656920Y-82452729D01*
X125586647Y-82392694D01*
X125547189Y-82357947D01*
X125516188Y-82332454D01*
X125498542Y-82320170D01*
X125496352Y-82319795D01*
X125488476Y-82332347D01*
X125468068Y-82365516D01*
X125436868Y-82416458D01*
X125396614Y-82482331D01*
X125349043Y-82560289D01*
X125295896Y-82647490D01*
X125266313Y-82696067D01*
X125040352Y-83067215D01*
X125322473Y-83206639D01*
X125424478Y-83256719D01*
X125507111Y-83296210D01*
X125575422Y-83327073D01*
X125634463Y-83351268D01*
X125689286Y-83370758D01*
X125744940Y-83387503D01*
X125806477Y-83403465D01*
X125865460Y-83417482D01*
X125917885Y-83428329D01*
X125972712Y-83436526D01*
X126035428Y-83442528D01*
X126111523Y-83446790D01*
X126206484Y-83449767D01*
X126270487Y-83451052D01*
X126361808Y-83451930D01*
X126449373Y-83451487D01*
X126527388Y-83449852D01*
X126590058Y-83447149D01*
X126631587Y-83443505D01*
X126634048Y-83443142D01*
X126849697Y-83396487D01*
X127052207Y-83325729D01*
X127241505Y-83230914D01*
X127417521Y-83112089D01*
X127580184Y-82969300D01*
X127729422Y-82802594D01*
X127837504Y-82654433D01*
X127952566Y-82460502D01*
X128045577Y-82255699D01*
X128116987Y-82038383D01*
X128167244Y-81806912D01*
X128196799Y-81559643D01*
X128206111Y-81308559D01*
X128198452Y-81065670D01*
X128174387Y-80841570D01*
X128133148Y-80632477D01*
X128073973Y-80434613D01*
X127996096Y-80244196D01*
X127986797Y-80224468D01*
X127884352Y-80040059D01*
X127758528Y-79864576D01*
X127612888Y-79701650D01*
X127450999Y-79554914D01*
X127276424Y-79428001D01*
X127113756Y-79334905D01*
X126949427Y-79261991D01*
X126784749Y-79209174D01*
X126613348Y-79175015D01*
X126428847Y-79158078D01*
X126318541Y-79155580D01*
X126160038Y-79160499D01*
G37*
X126160038Y-79160499D02*
X126011986Y-79176707D01*
X125868548Y-79205718D01*
X125723890Y-79249045D01*
X125572176Y-79308201D01*
X125407572Y-79384700D01*
X125377929Y-79399517D01*
X125309902Y-79433031D01*
X125245744Y-79463208D01*
X125191785Y-79487166D01*
X125154360Y-79502024D01*
X125148611Y-79503895D01*
X125093514Y-79520402D01*
X125340149Y-79879201D01*
X125400448Y-79966893D01*
X125455578Y-80047012D01*
X125503664Y-80116836D01*
X125542832Y-80173647D01*
X125571206Y-80214723D01*
X125586913Y-80237346D01*
X125589464Y-80240928D01*
X125599829Y-80233438D01*
X125625340Y-80210918D01*
X125661437Y-80177461D01*
X125681358Y-80158550D01*
X125794227Y-80068778D01*
X125920986Y-80000561D01*
X126030217Y-79963195D01*
X126095786Y-79951460D01*
X126177884Y-79944308D01*
X126266856Y-79941874D01*
X126353044Y-79944288D01*
X126426795Y-79951683D01*
X126456224Y-79957347D01*
X126588867Y-80002982D01*
X126708394Y-80072663D01*
X126814717Y-80166260D01*
X126907747Y-80283649D01*
X126987395Y-80424700D01*
X127053574Y-80589286D01*
X127106194Y-80777280D01*
X127137467Y-80938217D01*
X127145626Y-81009263D01*
X127151185Y-81101046D01*
X127154198Y-81206968D01*
X127154719Y-81320434D01*
X127152800Y-81434849D01*
X127148497Y-81543617D01*
X127141863Y-81640143D01*
X127132951Y-81717831D01*
X127131021Y-81729817D01*
X127088501Y-81922892D01*
X127030567Y-82093773D01*
X126956867Y-82243224D01*
X126867049Y-82372011D01*
X126803293Y-82441639D01*
X126688714Y-82536173D01*
X126563058Y-82606246D01*
X126428443Y-82651477D01*
X126286989Y-82671484D01*
X126140817Y-82665885D01*
X125992045Y-82634300D01*
X125904089Y-82603394D01*
X125782371Y-82541506D01*
X125656920Y-82452729D01*
X125586647Y-82392694D01*
X125547189Y-82357947D01*
X125516188Y-82332454D01*
X125498542Y-82320170D01*
X125496352Y-82319795D01*
X125488476Y-82332347D01*
X125468068Y-82365516D01*
X125436868Y-82416458D01*
X125396614Y-82482331D01*
X125349043Y-82560289D01*
X125295896Y-82647490D01*
X125266313Y-82696067D01*
X125040352Y-83067215D01*
X125322473Y-83206639D01*
X125424478Y-83256719D01*
X125507111Y-83296210D01*
X125575422Y-83327073D01*
X125634463Y-83351268D01*
X125689286Y-83370758D01*
X125744940Y-83387503D01*
X125806477Y-83403465D01*
X125865460Y-83417482D01*
X125917885Y-83428329D01*
X125972712Y-83436526D01*
X126035428Y-83442528D01*
X126111523Y-83446790D01*
X126206484Y-83449767D01*
X126270487Y-83451052D01*
X126361808Y-83451930D01*
X126449373Y-83451487D01*
X126527388Y-83449852D01*
X126590058Y-83447149D01*
X126631587Y-83443505D01*
X126634048Y-83443142D01*
X126849697Y-83396487D01*
X127052207Y-83325729D01*
X127241505Y-83230914D01*
X127417521Y-83112089D01*
X127580184Y-82969300D01*
X127729422Y-82802594D01*
X127837504Y-82654433D01*
X127952566Y-82460502D01*
X128045577Y-82255699D01*
X128116987Y-82038383D01*
X128167244Y-81806912D01*
X128196799Y-81559643D01*
X128206111Y-81308559D01*
X128198452Y-81065670D01*
X128174387Y-80841570D01*
X128133148Y-80632477D01*
X128073973Y-80434613D01*
X127996096Y-80244196D01*
X127986797Y-80224468D01*
X127884352Y-80040059D01*
X127758528Y-79864576D01*
X127612888Y-79701650D01*
X127450999Y-79554914D01*
X127276424Y-79428001D01*
X127113756Y-79334905D01*
X126949427Y-79261991D01*
X126784749Y-79209174D01*
X126613348Y-79175015D01*
X126428847Y-79158078D01*
X126318541Y-79155580D01*
X126160038Y-79160499D01*
G36*
X132555743Y-78473689D02*
G01*
X132291220Y-78473725D01*
X132168088Y-78473730D01*
X130197189Y-78473730D01*
X130197189Y-78589910D01*
X130184789Y-78731291D01*
X130147364Y-78861684D01*
X130084577Y-78981862D01*
X129996094Y-79092602D01*
X129966157Y-79122511D01*
X129858466Y-79207348D01*
X129739725Y-79269221D01*
X129613460Y-79308159D01*
X129483197Y-79324190D01*
X129352465Y-79317342D01*
X129224788Y-79287643D01*
X129103695Y-79235120D01*
X128992712Y-79159803D01*
X128942868Y-79114363D01*
X128849983Y-79002952D01*
X128781873Y-78880435D01*
X128739129Y-78748215D01*
X128722347Y-78607692D01*
X128722124Y-78593867D01*
X128721244Y-78473734D01*
X128668443Y-78473732D01*
X128621604Y-78480089D01*
X128578817Y-78495556D01*
X128575989Y-78497154D01*
X128566325Y-78502168D01*
X128557451Y-78506073D01*
X128549335Y-78510007D01*
X128541943Y-78515106D01*
X128535245Y-78522508D01*
X128529208Y-78533351D01*
X128523801Y-78548772D01*
X128518990Y-78569909D01*
X128514745Y-78597899D01*
X128511032Y-78633879D01*
X128507821Y-78678987D01*
X128505078Y-78734360D01*
X128502772Y-78801137D01*
X128500871Y-78880453D01*
X128499342Y-78973447D01*
X128498154Y-79081257D01*
X128497274Y-79205019D01*
X128496670Y-79345871D01*
X128496311Y-79504950D01*
X128496165Y-79683395D01*
X128496198Y-79882342D01*
X128496380Y-80102929D01*
X128496677Y-80346293D01*
X128497059Y-80613572D01*
X128497492Y-80905903D01*
X128497945Y-81224424D01*
X128497998Y-81263230D01*
X128498404Y-81583782D01*
X128498749Y-81878012D01*
X128499069Y-82147056D01*
X128499400Y-82392052D01*
X128499779Y-82614137D01*
X128500243Y-82814447D01*
X128500828Y-82994119D01*
X128501570Y-83154290D01*
X128502506Y-83296098D01*
X128503673Y-83420679D01*
X128505107Y-83529170D01*
X128506844Y-83622707D01*
X128508922Y-83702429D01*
X128511376Y-83769472D01*
X128514244Y-83824973D01*
X128517561Y-83870068D01*
X128521364Y-83905895D01*
X128525690Y-83933591D01*
X128530575Y-83954293D01*
X128536055Y-83969137D01*
X128542168Y-83979260D01*
X128548950Y-83985800D01*
X128556437Y-83989893D01*
X128564666Y-83992676D01*
X128573673Y-83995287D01*
X128583495Y-83998862D01*
X128585894Y-83999950D01*
X128593435Y-84002396D01*
X128606056Y-84004642D01*
X128624859Y-84006698D01*
X128650947Y-84008572D01*
X128685422Y-84010271D01*
X128729385Y-84011803D01*
X128783939Y-84013177D01*
X128850185Y-84014400D01*
X128929226Y-84015481D01*
X129022163Y-84016427D01*
X129130099Y-84017247D01*
X129254136Y-84017947D01*
X129395376Y-84018538D01*
X129554921Y-84019025D01*
X129733872Y-84019419D01*
X129933332Y-84019725D01*
X130154404Y-84019953D01*
X130398188Y-84020110D01*
X130665787Y-84020205D01*
X130958303Y-84020245D01*
X131276839Y-84020238D01*
X131380021Y-84020228D01*
X131705623Y-84020176D01*
X132004881Y-84020091D01*
X132278909Y-84019963D01*
X132528824Y-84019785D01*
X132755740Y-84019548D01*
X132960773Y-84019242D01*
X133145038Y-84018860D01*
X133309650Y-84018392D01*
X133455725Y-84017830D01*
X133584376Y-84017165D01*
X133696721Y-84016388D01*
X133793874Y-84015491D01*
X133876950Y-84014465D01*
X133947064Y-84013301D01*
X134005332Y-84011991D01*
X134052869Y-84010525D01*
X134090790Y-84008896D01*
X134120210Y-84007093D01*
X134142245Y-84005110D01*
X134158010Y-84002936D01*
X134168620Y-84000563D01*
X134174404Y-83998391D01*
X134184684Y-83994056D01*
X134194122Y-83990859D01*
X134202755Y-83987665D01*
X134210619Y-83983338D01*
X134217748Y-83976744D01*
X134224179Y-83966747D01*
X134229947Y-83952212D01*
X134235089Y-83932003D01*
X134239640Y-83904985D01*
X134243635Y-83870023D01*
X134247111Y-83825981D01*
X134250102Y-83771724D01*
X134252646Y-83706117D01*
X134254777Y-83628024D01*
X134256532Y-83536310D01*
X134257945Y-83429840D01*
X134258315Y-83388973D01*
X133891884Y-83388973D01*
X132596734Y-83388973D01*
X132621655Y-83351217D01*
X132646447Y-83312417D01*
X132667440Y-83275469D01*
X132684935Y-83237788D01*
X132699230Y-83196788D01*
X132710623Y-83149883D01*
X132719413Y-83094487D01*
X132725898Y-83028016D01*
X132730377Y-82947883D01*
X132733150Y-82851502D01*
X132734513Y-82736289D01*
X132734767Y-82599657D01*
X132734209Y-82439020D01*
X132733893Y-82379382D01*
X132730325Y-81740041D01*
X132325298Y-82291449D01*
X132210554Y-82447876D01*
X132111143Y-82584088D01*
X132025990Y-82701890D01*
X131954022Y-82803084D01*
X131894166Y-82889477D01*
X131845348Y-82962874D01*
X131806495Y-83025077D01*
X131776534Y-83077893D01*
X131754391Y-83123125D01*
X131738993Y-83162578D01*
X131729266Y-83198058D01*
X131724137Y-83231368D01*
X131722532Y-83264313D01*
X131723379Y-83298697D01*
X131723595Y-83303019D01*
X131728054Y-83389031D01*
X130308692Y-83388973D01*
X130414265Y-83282522D01*
X130442913Y-83253406D01*
X130470090Y-83225076D01*
X130496989Y-83195968D01*
X130524803Y-83164520D01*
X130554725Y-83129169D01*
X130587946Y-83088354D01*
X130625661Y-83040511D01*
X130669060Y-82984079D01*
X130719338Y-82917494D01*
X130777688Y-82839195D01*
X130845300Y-82747619D01*
X130923369Y-82641204D01*
X131013088Y-82518387D01*
X131115648Y-82377605D01*
X131232242Y-82217297D01*
X131327809Y-82085798D01*
X131447749Y-81920596D01*
X131552380Y-81776152D01*
X131642648Y-81651094D01*
X131719503Y-81544052D01*
X131783891Y-81453654D01*
X131836761Y-81378529D01*
X131879060Y-81317304D01*
X131911736Y-81268610D01*
X131935738Y-81231074D01*
X131952013Y-81203325D01*
X131961508Y-81183992D01*
X131965173Y-81171703D01*
X131964071Y-81165242D01*
X131950724Y-81148048D01*
X131921866Y-81111655D01*
X131879240Y-81058224D01*
X131824585Y-80989919D01*
X131759644Y-80908903D01*
X131686158Y-80817340D01*
X131605868Y-80717392D01*
X131520515Y-80611224D01*
X131431840Y-80500997D01*
X131341586Y-80388876D01*
X131291944Y-80327244D01*
X130059373Y-80327244D01*
X130008146Y-80419919D01*
X129956919Y-80512595D01*
X129956919Y-83203622D01*
X130008146Y-83296298D01*
X130059373Y-83388973D01*
X129453396Y-83388973D01*
X129308734Y-83388931D01*
X129189244Y-83388741D01*
X129092642Y-83388308D01*
X129016642Y-83387536D01*
X128958957Y-83386330D01*
X128917301Y-83384594D01*
X128889389Y-83382232D01*
X128872935Y-83379150D01*
X128865652Y-83375251D01*
X128865255Y-83370440D01*
X128869458Y-83364622D01*
X128869501Y-83364574D01*
X128886813Y-83339532D01*
X128909736Y-83298815D01*
X128929981Y-83258168D01*
X128968379Y-83176162D01*
X128976211Y-80327244D01*
X130059373Y-80327244D01*
X131291944Y-80327244D01*
X131251493Y-80277024D01*
X131163302Y-80167604D01*
X131078754Y-80062778D01*
X130999592Y-79964711D01*
X130927556Y-79875566D01*
X130864387Y-79797505D01*
X130811827Y-79732692D01*
X130771617Y-79683290D01*
X130748000Y-79654487D01*
X130656290Y-79546778D01*
X130568060Y-79449580D01*
X130486403Y-79366076D01*
X130414410Y-79299448D01*
X130363319Y-79258599D01*
X130302907Y-79215135D01*
X131692298Y-79215135D01*
X131691908Y-79296666D01*
X131695791Y-79356606D01*
X131710390Y-79412177D01*
X131732988Y-79464855D01*
X131747678Y-79494615D01*
X131763472Y-79524103D01*
X131781814Y-79555276D01*
X131804145Y-79590093D01*
X131831909Y-79630510D01*
X131866549Y-79678486D01*
X131909507Y-79735978D01*
X131962227Y-79804943D01*
X132026151Y-79887339D01*
X132102721Y-79985124D01*
X132193381Y-80100255D01*
X132299574Y-80234690D01*
X132311568Y-80249859D01*
X132730325Y-80779412D01*
X132734378Y-80192922D01*
X132735195Y-80017251D01*
X132735021Y-79868532D01*
X132733849Y-79746275D01*
X132731669Y-79649989D01*
X132728474Y-79579183D01*
X132724256Y-79533369D01*
X132722838Y-79524679D01*
X132700591Y-79433135D01*
X132671443Y-79350608D01*
X132638182Y-79284253D01*
X132618200Y-79256110D01*
X132583722Y-79215135D01*
X133237914Y-79215135D01*
X133393969Y-79215269D01*
X133524467Y-79215703D01*
X133631310Y-79216489D01*
X133716398Y-79217676D01*
X133781635Y-79219317D01*
X133828921Y-79221461D01*
X133860157Y-79224159D01*
X133877246Y-79227462D01*
X133882088Y-79231421D01*
X133881753Y-79232298D01*
X133867885Y-79253231D01*
X133844732Y-79286412D01*
X133832754Y-79303193D01*
X133820369Y-79319940D01*
X133809237Y-79334915D01*
X133799288Y-79349594D01*
X133790451Y-79365449D01*
X133782657Y-79383955D01*
X133775835Y-79406585D01*
X133769916Y-79434813D01*
X133764829Y-79470113D01*
X133760504Y-79513958D01*
X133756871Y-79567822D01*
X133753860Y-79633180D01*
X133751401Y-79711504D01*
X133749423Y-79804268D01*
X133747858Y-79912947D01*
X133746634Y-80039013D01*
X133745681Y-80183942D01*
X133744930Y-80349206D01*
X133744311Y-80536279D01*
X133743752Y-80746635D01*
X133743185Y-80981748D01*
X133742655Y-81197741D01*
X133742155Y-81438535D01*
X133741895Y-81668274D01*
X133741868Y-81885493D01*
X133742067Y-82088722D01*
X133742486Y-82276496D01*
X133743118Y-82447345D01*
X133743956Y-82599803D01*
X133744992Y-82732403D01*
X133746220Y-82843676D01*
X133747633Y-82932156D01*
X133749225Y-82996375D01*
X133750987Y-83034865D01*
X133751321Y-83038933D01*
X133763466Y-83132248D01*
X133782427Y-83207190D01*
X133811302Y-83272594D01*
X133853190Y-83337293D01*
X133858429Y-83344352D01*
X133891884Y-83388973D01*
X134258315Y-83388973D01*
X134259054Y-83307479D01*
X134259893Y-83168090D01*
X134260498Y-83010539D01*
X134260905Y-82833691D01*
X134261150Y-82636410D01*
X134261267Y-82417560D01*
X134261295Y-82176007D01*
X134261267Y-81910615D01*
X134261220Y-81620249D01*
X134261190Y-81303773D01*
X134261189Y-81240946D01*
X134261172Y-80921137D01*
X134261112Y-80627661D01*
X134261002Y-80359390D01*
X134260833Y-80115198D01*
X134260597Y-79893957D01*
X134260284Y-79694540D01*
X134259885Y-79515820D01*
X134259393Y-79356671D01*
X134258797Y-79215966D01*
X134258090Y-79092576D01*
X134257263Y-78985376D01*
X134256307Y-78893238D01*
X134255213Y-78815035D01*
X134253973Y-78749641D01*
X134252578Y-78695928D01*
X134251018Y-78652769D01*
X134249286Y-78619037D01*
X134247372Y-78593605D01*
X134245268Y-78575347D01*
X134242966Y-78563134D01*
X134240455Y-78555841D01*
X134240363Y-78555659D01*
X134235192Y-78544518D01*
X134230885Y-78534431D01*
X134226121Y-78525346D01*
X134219578Y-78517212D01*
X134209935Y-78509976D01*
X134195871Y-78503586D01*
X134176063Y-78497989D01*
X134149191Y-78493133D01*
X134113933Y-78488966D01*
X134068968Y-78485436D01*
X134012974Y-78482491D01*
X133944629Y-78480077D01*
X133862614Y-78478144D01*
X133765605Y-78476638D01*
X133652282Y-78475508D01*
X133521323Y-78474702D01*
X133371407Y-78474166D01*
X133201213Y-78473849D01*
X133009418Y-78473699D01*
X132794702Y-78473663D01*
X132555743Y-78473689D01*
G37*
X132555743Y-78473689D02*
X132291220Y-78473725D01*
X132168088Y-78473730D01*
X130197189Y-78473730D01*
X130197189Y-78589910D01*
X130184789Y-78731291D01*
X130147364Y-78861684D01*
X130084577Y-78981862D01*
X129996094Y-79092602D01*
X129966157Y-79122511D01*
X129858466Y-79207348D01*
X129739725Y-79269221D01*
X129613460Y-79308159D01*
X129483197Y-79324190D01*
X129352465Y-79317342D01*
X129224788Y-79287643D01*
X129103695Y-79235120D01*
X128992712Y-79159803D01*
X128942868Y-79114363D01*
X128849983Y-79002952D01*
X128781873Y-78880435D01*
X128739129Y-78748215D01*
X128722347Y-78607692D01*
X128722124Y-78593867D01*
X128721244Y-78473734D01*
X128668443Y-78473732D01*
X128621604Y-78480089D01*
X128578817Y-78495556D01*
X128575989Y-78497154D01*
X128566325Y-78502168D01*
X128557451Y-78506073D01*
X128549335Y-78510007D01*
X128541943Y-78515106D01*
X128535245Y-78522508D01*
X128529208Y-78533351D01*
X128523801Y-78548772D01*
X128518990Y-78569909D01*
X128514745Y-78597899D01*
X128511032Y-78633879D01*
X128507821Y-78678987D01*
X128505078Y-78734360D01*
X128502772Y-78801137D01*
X128500871Y-78880453D01*
X128499342Y-78973447D01*
X128498154Y-79081257D01*
X128497274Y-79205019D01*
X128496670Y-79345871D01*
X128496311Y-79504950D01*
X128496165Y-79683395D01*
X128496198Y-79882342D01*
X128496380Y-80102929D01*
X128496677Y-80346293D01*
X128497059Y-80613572D01*
X128497492Y-80905903D01*
X128497945Y-81224424D01*
X128497998Y-81263230D01*
X128498404Y-81583782D01*
X128498749Y-81878012D01*
X128499069Y-82147056D01*
X128499400Y-82392052D01*
X128499779Y-82614137D01*
X128500243Y-82814447D01*
X128500828Y-82994119D01*
X128501570Y-83154290D01*
X128502506Y-83296098D01*
X128503673Y-83420679D01*
X128505107Y-83529170D01*
X128506844Y-83622707D01*
X128508922Y-83702429D01*
X128511376Y-83769472D01*
X128514244Y-83824973D01*
X128517561Y-83870068D01*
X128521364Y-83905895D01*
X128525690Y-83933591D01*
X128530575Y-83954293D01*
X128536055Y-83969137D01*
X128542168Y-83979260D01*
X128548950Y-83985800D01*
X128556437Y-83989893D01*
X128564666Y-83992676D01*
X128573673Y-83995287D01*
X128583495Y-83998862D01*
X128585894Y-83999950D01*
X128593435Y-84002396D01*
X128606056Y-84004642D01*
X128624859Y-84006698D01*
X128650947Y-84008572D01*
X128685422Y-84010271D01*
X128729385Y-84011803D01*
X128783939Y-84013177D01*
X128850185Y-84014400D01*
X128929226Y-84015481D01*
X129022163Y-84016427D01*
X129130099Y-84017247D01*
X129254136Y-84017947D01*
X129395376Y-84018538D01*
X129554921Y-84019025D01*
X129733872Y-84019419D01*
X129933332Y-84019725D01*
X130154404Y-84019953D01*
X130398188Y-84020110D01*
X130665787Y-84020205D01*
X130958303Y-84020245D01*
X131276839Y-84020238D01*
X131380021Y-84020228D01*
X131705623Y-84020176D01*
X132004881Y-84020091D01*
X132278909Y-84019963D01*
X132528824Y-84019785D01*
X132755740Y-84019548D01*
X132960773Y-84019242D01*
X133145038Y-84018860D01*
X133309650Y-84018392D01*
X133455725Y-84017830D01*
X133584376Y-84017165D01*
X133696721Y-84016388D01*
X133793874Y-84015491D01*
X133876950Y-84014465D01*
X133947064Y-84013301D01*
X134005332Y-84011991D01*
X134052869Y-84010525D01*
X134090790Y-84008896D01*
X134120210Y-84007093D01*
X134142245Y-84005110D01*
X134158010Y-84002936D01*
X134168620Y-84000563D01*
X134174404Y-83998391D01*
X134184684Y-83994056D01*
X134194122Y-83990859D01*
X134202755Y-83987665D01*
X134210619Y-83983338D01*
X134217748Y-83976744D01*
X134224179Y-83966747D01*
X134229947Y-83952212D01*
X134235089Y-83932003D01*
X134239640Y-83904985D01*
X134243635Y-83870023D01*
X134247111Y-83825981D01*
X134250102Y-83771724D01*
X134252646Y-83706117D01*
X134254777Y-83628024D01*
X134256532Y-83536310D01*
X134257945Y-83429840D01*
X134258315Y-83388973D01*
X133891884Y-83388973D01*
X132596734Y-83388973D01*
X132621655Y-83351217D01*
X132646447Y-83312417D01*
X132667440Y-83275469D01*
X132684935Y-83237788D01*
X132699230Y-83196788D01*
X132710623Y-83149883D01*
X132719413Y-83094487D01*
X132725898Y-83028016D01*
X132730377Y-82947883D01*
X132733150Y-82851502D01*
X132734513Y-82736289D01*
X132734767Y-82599657D01*
X132734209Y-82439020D01*
X132733893Y-82379382D01*
X132730325Y-81740041D01*
X132325298Y-82291449D01*
X132210554Y-82447876D01*
X132111143Y-82584088D01*
X132025990Y-82701890D01*
X131954022Y-82803084D01*
X131894166Y-82889477D01*
X131845348Y-82962874D01*
X131806495Y-83025077D01*
X131776534Y-83077893D01*
X131754391Y-83123125D01*
X131738993Y-83162578D01*
X131729266Y-83198058D01*
X131724137Y-83231368D01*
X131722532Y-83264313D01*
X131723379Y-83298697D01*
X131723595Y-83303019D01*
X131728054Y-83389031D01*
X130308692Y-83388973D01*
X130414265Y-83282522D01*
X130442913Y-83253406D01*
X130470090Y-83225076D01*
X130496989Y-83195968D01*
X130524803Y-83164520D01*
X130554725Y-83129169D01*
X130587946Y-83088354D01*
X130625661Y-83040511D01*
X130669060Y-82984079D01*
X130719338Y-82917494D01*
X130777688Y-82839195D01*
X130845300Y-82747619D01*
X130923369Y-82641204D01*
X131013088Y-82518387D01*
X131115648Y-82377605D01*
X131232242Y-82217297D01*
X131327809Y-82085798D01*
X131447749Y-81920596D01*
X131552380Y-81776152D01*
X131642648Y-81651094D01*
X131719503Y-81544052D01*
X131783891Y-81453654D01*
X131836761Y-81378529D01*
X131879060Y-81317304D01*
X131911736Y-81268610D01*
X131935738Y-81231074D01*
X131952013Y-81203325D01*
X131961508Y-81183992D01*
X131965173Y-81171703D01*
X131964071Y-81165242D01*
X131950724Y-81148048D01*
X131921866Y-81111655D01*
X131879240Y-81058224D01*
X131824585Y-80989919D01*
X131759644Y-80908903D01*
X131686158Y-80817340D01*
X131605868Y-80717392D01*
X131520515Y-80611224D01*
X131431840Y-80500997D01*
X131341586Y-80388876D01*
X131291944Y-80327244D01*
X130059373Y-80327244D01*
X130008146Y-80419919D01*
X129956919Y-80512595D01*
X129956919Y-83203622D01*
X130008146Y-83296298D01*
X130059373Y-83388973D01*
X129453396Y-83388973D01*
X129308734Y-83388931D01*
X129189244Y-83388741D01*
X129092642Y-83388308D01*
X129016642Y-83387536D01*
X128958957Y-83386330D01*
X128917301Y-83384594D01*
X128889389Y-83382232D01*
X128872935Y-83379150D01*
X128865652Y-83375251D01*
X128865255Y-83370440D01*
X128869458Y-83364622D01*
X128869501Y-83364574D01*
X128886813Y-83339532D01*
X128909736Y-83298815D01*
X128929981Y-83258168D01*
X128968379Y-83176162D01*
X128976211Y-80327244D01*
X130059373Y-80327244D01*
X131291944Y-80327244D01*
X131251493Y-80277024D01*
X131163302Y-80167604D01*
X131078754Y-80062778D01*
X130999592Y-79964711D01*
X130927556Y-79875566D01*
X130864387Y-79797505D01*
X130811827Y-79732692D01*
X130771617Y-79683290D01*
X130748000Y-79654487D01*
X130656290Y-79546778D01*
X130568060Y-79449580D01*
X130486403Y-79366076D01*
X130414410Y-79299448D01*
X130363319Y-79258599D01*
X130302907Y-79215135D01*
X131692298Y-79215135D01*
X131691908Y-79296666D01*
X131695791Y-79356606D01*
X131710390Y-79412177D01*
X131732988Y-79464855D01*
X131747678Y-79494615D01*
X131763472Y-79524103D01*
X131781814Y-79555276D01*
X131804145Y-79590093D01*
X131831909Y-79630510D01*
X131866549Y-79678486D01*
X131909507Y-79735978D01*
X131962227Y-79804943D01*
X132026151Y-79887339D01*
X132102721Y-79985124D01*
X132193381Y-80100255D01*
X132299574Y-80234690D01*
X132311568Y-80249859D01*
X132730325Y-80779412D01*
X132734378Y-80192922D01*
X132735195Y-80017251D01*
X132735021Y-79868532D01*
X132733849Y-79746275D01*
X132731669Y-79649989D01*
X132728474Y-79579183D01*
X132724256Y-79533369D01*
X132722838Y-79524679D01*
X132700591Y-79433135D01*
X132671443Y-79350608D01*
X132638182Y-79284253D01*
X132618200Y-79256110D01*
X132583722Y-79215135D01*
X133237914Y-79215135D01*
X133393969Y-79215269D01*
X133524467Y-79215703D01*
X133631310Y-79216489D01*
X133716398Y-79217676D01*
X133781635Y-79219317D01*
X133828921Y-79221461D01*
X133860157Y-79224159D01*
X133877246Y-79227462D01*
X133882088Y-79231421D01*
X133881753Y-79232298D01*
X133867885Y-79253231D01*
X133844732Y-79286412D01*
X133832754Y-79303193D01*
X133820369Y-79319940D01*
X133809237Y-79334915D01*
X133799288Y-79349594D01*
X133790451Y-79365449D01*
X133782657Y-79383955D01*
X133775835Y-79406585D01*
X133769916Y-79434813D01*
X133764829Y-79470113D01*
X133760504Y-79513958D01*
X133756871Y-79567822D01*
X133753860Y-79633180D01*
X133751401Y-79711504D01*
X133749423Y-79804268D01*
X133747858Y-79912947D01*
X133746634Y-80039013D01*
X133745681Y-80183942D01*
X133744930Y-80349206D01*
X133744311Y-80536279D01*
X133743752Y-80746635D01*
X133743185Y-80981748D01*
X133742655Y-81197741D01*
X133742155Y-81438535D01*
X133741895Y-81668274D01*
X133741868Y-81885493D01*
X133742067Y-82088722D01*
X133742486Y-82276496D01*
X133743118Y-82447345D01*
X133743956Y-82599803D01*
X133744992Y-82732403D01*
X133746220Y-82843676D01*
X133747633Y-82932156D01*
X133749225Y-82996375D01*
X133750987Y-83034865D01*
X133751321Y-83038933D01*
X133763466Y-83132248D01*
X133782427Y-83207190D01*
X133811302Y-83272594D01*
X133853190Y-83337293D01*
X133858429Y-83344352D01*
X133891884Y-83388973D01*
X134258315Y-83388973D01*
X134259054Y-83307479D01*
X134259893Y-83168090D01*
X134260498Y-83010539D01*
X134260905Y-82833691D01*
X134261150Y-82636410D01*
X134261267Y-82417560D01*
X134261295Y-82176007D01*
X134261267Y-81910615D01*
X134261220Y-81620249D01*
X134261190Y-81303773D01*
X134261189Y-81240946D01*
X134261172Y-80921137D01*
X134261112Y-80627661D01*
X134261002Y-80359390D01*
X134260833Y-80115198D01*
X134260597Y-79893957D01*
X134260284Y-79694540D01*
X134259885Y-79515820D01*
X134259393Y-79356671D01*
X134258797Y-79215966D01*
X134258090Y-79092576D01*
X134257263Y-78985376D01*
X134256307Y-78893238D01*
X134255213Y-78815035D01*
X134253973Y-78749641D01*
X134252578Y-78695928D01*
X134251018Y-78652769D01*
X134249286Y-78619037D01*
X134247372Y-78593605D01*
X134245268Y-78575347D01*
X134242966Y-78563134D01*
X134240455Y-78555841D01*
X134240363Y-78555659D01*
X134235192Y-78544518D01*
X134230885Y-78534431D01*
X134226121Y-78525346D01*
X134219578Y-78517212D01*
X134209935Y-78509976D01*
X134195871Y-78503586D01*
X134176063Y-78497989D01*
X134149191Y-78493133D01*
X134113933Y-78488966D01*
X134068968Y-78485436D01*
X134012974Y-78482491D01*
X133944629Y-78480077D01*
X133862614Y-78478144D01*
X133765605Y-78476638D01*
X133652282Y-78475508D01*
X133521323Y-78474702D01*
X133371407Y-78474166D01*
X133201213Y-78473849D01*
X133009418Y-78473699D01*
X132794702Y-78473663D01*
X132555743Y-78473689D01*
D10*
%TO.C,R3*%
X163245276Y-73022500D02*
X163754724Y-73022500D01*
X163245276Y-71977500D02*
X163754724Y-71977500D01*
%TO.C,R6*%
X163754724Y-71422500D02*
X163245276Y-71422500D01*
X163754724Y-70377500D02*
X163245276Y-70377500D01*
%TO.C,J2*%
X125730000Y-90400000D02*
X124710000Y-90400000D01*
X125730000Y-95600000D02*
X124710000Y-95600000D01*
X128270000Y-90400000D02*
X127250000Y-90400000D01*
X128270000Y-95600000D02*
X127250000Y-95600000D01*
X130810000Y-90400000D02*
X129790000Y-90400000D01*
X130810000Y-95600000D02*
X129790000Y-95600000D01*
X133350000Y-90400000D02*
X132330000Y-90400000D01*
X133350000Y-95600000D02*
X132330000Y-95600000D01*
X135890000Y-90400000D02*
X134870000Y-90400000D01*
X135890000Y-95600000D02*
X134870000Y-95600000D01*
X138430000Y-90400000D02*
X137410000Y-90400000D01*
X138430000Y-95600000D02*
X137410000Y-95600000D01*
X140970000Y-90400000D02*
X139950000Y-90400000D01*
X140970000Y-95600000D02*
X139950000Y-95600000D01*
X143510000Y-90400000D02*
X142490000Y-90400000D01*
X143510000Y-95600000D02*
X142490000Y-95600000D01*
X146050000Y-90400000D02*
X145030000Y-90400000D01*
X146050000Y-95600000D02*
X145030000Y-95600000D01*
X148590000Y-90400000D02*
X147570000Y-90400000D01*
X148590000Y-95600000D02*
X147570000Y-95600000D01*
X151130000Y-90400000D02*
X150110000Y-90400000D01*
X151130000Y-95600000D02*
X150110000Y-95600000D01*
X153670000Y-90400000D02*
X152650000Y-90400000D01*
X153670000Y-95600000D02*
X152650000Y-95600000D01*
X156210000Y-90400000D02*
X155190000Y-90400000D01*
X156210000Y-95600000D02*
X155190000Y-95600000D01*
X158750000Y-90400000D02*
X157730000Y-90400000D01*
X158750000Y-95600000D02*
X157730000Y-95600000D01*
X161290000Y-90400000D02*
X160270000Y-90400000D01*
X161290000Y-95600000D02*
X160270000Y-95600000D01*
X123190000Y-90400000D02*
X122620000Y-90400000D01*
X123190000Y-95600000D02*
X122620000Y-95600000D01*
X163380000Y-90400000D02*
X162810000Y-90400000D01*
X163380000Y-95600000D02*
X162810000Y-95600000D01*
X162810000Y-97040000D02*
X162810000Y-95600000D01*
X122620000Y-95600000D02*
X122620000Y-90400000D01*
X163380000Y-95600000D02*
X163380000Y-90400000D01*
%TO.C,J4*%
X163380000Y-58600000D02*
X163380000Y-53400000D01*
X122620000Y-58600000D02*
X122620000Y-53400000D01*
X162810000Y-60040000D02*
X162810000Y-58600000D01*
X163380000Y-58600000D02*
X162810000Y-58600000D01*
X163380000Y-53400000D02*
X162810000Y-53400000D01*
X123190000Y-58600000D02*
X122620000Y-58600000D01*
X123190000Y-53400000D02*
X122620000Y-53400000D01*
X161290000Y-58600000D02*
X160270000Y-58600000D01*
X161290000Y-53400000D02*
X160270000Y-53400000D01*
X158750000Y-58600000D02*
X157730000Y-58600000D01*
X158750000Y-53400000D02*
X157730000Y-53400000D01*
X156210000Y-58600000D02*
X155190000Y-58600000D01*
X156210000Y-53400000D02*
X155190000Y-53400000D01*
X153670000Y-58600000D02*
X152650000Y-58600000D01*
X153670000Y-53400000D02*
X152650000Y-53400000D01*
X151130000Y-58600000D02*
X150110000Y-58600000D01*
X151130000Y-53400000D02*
X150110000Y-53400000D01*
X148590000Y-58600000D02*
X147570000Y-58600000D01*
X148590000Y-53400000D02*
X147570000Y-53400000D01*
X146050000Y-58600000D02*
X145030000Y-58600000D01*
X146050000Y-53400000D02*
X145030000Y-53400000D01*
X143510000Y-58600000D02*
X142490000Y-58600000D01*
X143510000Y-53400000D02*
X142490000Y-53400000D01*
X140970000Y-58600000D02*
X139950000Y-58600000D01*
X140970000Y-53400000D02*
X139950000Y-53400000D01*
X138430000Y-58600000D02*
X137410000Y-58600000D01*
X138430000Y-53400000D02*
X137410000Y-53400000D01*
X135890000Y-58600000D02*
X134870000Y-58600000D01*
X135890000Y-53400000D02*
X134870000Y-53400000D01*
X133350000Y-58600000D02*
X132330000Y-58600000D01*
X133350000Y-53400000D02*
X132330000Y-53400000D01*
X130810000Y-58600000D02*
X129790000Y-58600000D01*
X130810000Y-53400000D02*
X129790000Y-53400000D01*
X128270000Y-58600000D02*
X127250000Y-58600000D01*
X128270000Y-53400000D02*
X127250000Y-53400000D01*
X125730000Y-58600000D02*
X124710000Y-58600000D01*
X125730000Y-53400000D02*
X124710000Y-53400000D01*
%TO.C,U1*%
D11*
X149184112Y-76106616D02*
X149756532Y-76679036D01*
X149790204Y-76780051D01*
X149790204Y-76847395D01*
X149756532Y-76948410D01*
X149621845Y-77083097D01*
X149520830Y-77116769D01*
X149453486Y-77116769D01*
X149352471Y-77083097D01*
X148780051Y-76510677D01*
X148780051Y-77924891D02*
X149184112Y-77520830D01*
X148982082Y-77722860D02*
X148274975Y-77015754D01*
X148443334Y-77049425D01*
X148578021Y-77049425D01*
X148679036Y-77015754D01*
%TO.C,R3*%
X163666666Y-74382380D02*
X164000000Y-73906190D01*
X164238095Y-74382380D02*
X164238095Y-73382380D01*
X163857142Y-73382380D01*
X163761904Y-73430000D01*
X163714285Y-73477619D01*
X163666666Y-73572857D01*
X163666666Y-73715714D01*
X163714285Y-73810952D01*
X163761904Y-73858571D01*
X163857142Y-73906190D01*
X164238095Y-73906190D01*
X163333333Y-73382380D02*
X162714285Y-73382380D01*
X163047619Y-73763333D01*
X162904761Y-73763333D01*
X162809523Y-73810952D01*
X162761904Y-73858571D01*
X162714285Y-73953809D01*
X162714285Y-74191904D01*
X162761904Y-74287142D01*
X162809523Y-74334761D01*
X162904761Y-74382380D01*
X163190476Y-74382380D01*
X163285714Y-74334761D01*
X163333333Y-74287142D01*
%TO.C,R6*%
X163666666Y-69922380D02*
X164000000Y-69446190D01*
X164238095Y-69922380D02*
X164238095Y-68922380D01*
X163857142Y-68922380D01*
X163761904Y-68970000D01*
X163714285Y-69017619D01*
X163666666Y-69112857D01*
X163666666Y-69255714D01*
X163714285Y-69350952D01*
X163761904Y-69398571D01*
X163857142Y-69446190D01*
X164238095Y-69446190D01*
X162809523Y-68922380D02*
X163000000Y-68922380D01*
X163095238Y-68970000D01*
X163142857Y-69017619D01*
X163238095Y-69160476D01*
X163285714Y-69350952D01*
X163285714Y-69731904D01*
X163238095Y-69827142D01*
X163190476Y-69874761D01*
X163095238Y-69922380D01*
X162904761Y-69922380D01*
X162809523Y-69874761D01*
X162761904Y-69827142D01*
X162714285Y-69731904D01*
X162714285Y-69493809D01*
X162761904Y-69398571D01*
X162809523Y-69350952D01*
X162904761Y-69303333D01*
X163095238Y-69303333D01*
X163190476Y-69350952D01*
X163238095Y-69398571D01*
X163285714Y-69493809D01*
%TO.C,J2*%
X164713333Y-92452380D02*
X164713333Y-93166666D01*
X164760952Y-93309523D01*
X164856190Y-93404761D01*
X164999047Y-93452380D01*
X165094285Y-93452380D01*
X164284761Y-92547619D02*
X164237142Y-92500000D01*
X164141904Y-92452380D01*
X163903809Y-92452380D01*
X163808571Y-92500000D01*
X163760952Y-92547619D01*
X163713333Y-92642857D01*
X163713333Y-92738095D01*
X163760952Y-92880952D01*
X164332380Y-93452380D01*
X163713333Y-93452380D01*
%TO.C,J4*%
X164713333Y-55452380D02*
X164713333Y-56166666D01*
X164760952Y-56309523D01*
X164856190Y-56404761D01*
X164999047Y-56452380D01*
X165094285Y-56452380D01*
X163808571Y-55785714D02*
X163808571Y-56452380D01*
X164046666Y-55404761D02*
X164284761Y-56119047D01*
X163665714Y-56119047D01*
%TD*%
M02*
