%TF.GenerationSoftware,KiCad,Pcbnew,5.1.9+dfsg1-1+deb11u1*%
%TF.CreationDate,2025-11-03T12:09:50+01:00*%
%TF.ProjectId,STM32F4XX,53544d33-3246-4345-9858-2e6b69636164,0.4*%
%TF.SameCoordinates,Original*%
%TF.FileFunction,Copper,L2,Bot*%
%TF.FilePolarity,Positive*%
%FSLAX46Y46*%
G04 Gerber Fmt 4.6, Leading zero omitted, Abs format (unit mm)*
G04 Created by KiCad (PCBNEW 5.1.9+dfsg1-1+deb11u1) date 2025-11-03 12:09:50*
%MOMM*%
%LPD*%
G01*
G04 APERTURE LIST*
%TA.AperFunction,ComponentPad*%
%ADD10O,2.316000X1.158000*%
%TD*%
%TA.AperFunction,ComponentPad*%
%ADD11O,2.400000X1.200000*%
%TD*%
%TA.AperFunction,ComponentPad*%
%ADD12O,1.700000X1.700000*%
%TD*%
%TA.AperFunction,ComponentPad*%
%ADD13R,1.700000X1.700000*%
%TD*%
%TA.AperFunction,ComponentPad*%
%ADD14C,5.600000*%
%TD*%
%TA.AperFunction,SMDPad,CuDef*%
%ADD15R,1.000000X3.150000*%
%TD*%
%TA.AperFunction,ViaPad*%
%ADD16C,0.800000*%
%TD*%
%TA.AperFunction,Conductor*%
%ADD17C,0.250000*%
%TD*%
%TA.AperFunction,Conductor*%
%ADD18C,0.500000*%
%TD*%
%TA.AperFunction,Conductor*%
%ADD19C,0.254000*%
%TD*%
%TA.AperFunction,Conductor*%
%ADD20C,0.100000*%
%TD*%
G04 APERTURE END LIST*
D10*
%TO.P,J3,S3*%
%TO.N,Net-(C11-Pad2)*%
X169175000Y-75820000D03*
%TO.P,J3,S4*%
X169175000Y-67180000D03*
D11*
%TO.P,J3,S5*%
X173000000Y-75820000D03*
%TO.P,J3,S6*%
X173000000Y-67180000D03*
%TD*%
%TO.P,U1,64*%
%TO.N,+3V3*%
%TA.AperFunction,SMDPad,CuDef*%
G36*
G01*
X145550090Y-79065522D02*
X144560140Y-78075572D01*
G75*
G02*
X144560140Y-77969506I53033J53033D01*
G01*
X144666206Y-77863440D01*
G75*
G02*
X144772272Y-77863440I53033J-53033D01*
G01*
X145762222Y-78853390D01*
G75*
G02*
X145762222Y-78959456I-53033J-53033D01*
G01*
X145656156Y-79065522D01*
G75*
G02*
X145550090Y-79065522I-53033J53033D01*
G01*
G37*
%TD.AperFunction*%
%TO.P,U1,63*%
%TO.N,GND*%
%TA.AperFunction,SMDPad,CuDef*%
G36*
G01*
X145903643Y-78711969D02*
X144913693Y-77722019D01*
G75*
G02*
X144913693Y-77615953I53033J53033D01*
G01*
X145019759Y-77509887D01*
G75*
G02*
X145125825Y-77509887I53033J-53033D01*
G01*
X146115775Y-78499837D01*
G75*
G02*
X146115775Y-78605903I-53033J-53033D01*
G01*
X146009709Y-78711969D01*
G75*
G02*
X145903643Y-78711969I-53033J53033D01*
G01*
G37*
%TD.AperFunction*%
%TO.P,U1,62*%
%TO.N,B9*%
%TA.AperFunction,SMDPad,CuDef*%
G36*
G01*
X146257196Y-78358416D02*
X145267246Y-77368466D01*
G75*
G02*
X145267246Y-77262400I53033J53033D01*
G01*
X145373312Y-77156334D01*
G75*
G02*
X145479378Y-77156334I53033J-53033D01*
G01*
X146469328Y-78146284D01*
G75*
G02*
X146469328Y-78252350I-53033J-53033D01*
G01*
X146363262Y-78358416D01*
G75*
G02*
X146257196Y-78358416I-53033J53033D01*
G01*
G37*
%TD.AperFunction*%
%TO.P,U1,61*%
%TO.N,B8*%
%TA.AperFunction,SMDPad,CuDef*%
G36*
G01*
X146610750Y-78004862D02*
X145620800Y-77014912D01*
G75*
G02*
X145620800Y-76908846I53033J53033D01*
G01*
X145726866Y-76802780D01*
G75*
G02*
X145832932Y-76802780I53033J-53033D01*
G01*
X146822882Y-77792730D01*
G75*
G02*
X146822882Y-77898796I-53033J-53033D01*
G01*
X146716816Y-78004862D01*
G75*
G02*
X146610750Y-78004862I-53033J53033D01*
G01*
G37*
%TD.AperFunction*%
%TO.P,U1,60*%
%TO.N,GND*%
%TA.AperFunction,SMDPad,CuDef*%
G36*
G01*
X146964303Y-77651309D02*
X145974353Y-76661359D01*
G75*
G02*
X145974353Y-76555293I53033J53033D01*
G01*
X146080419Y-76449227D01*
G75*
G02*
X146186485Y-76449227I53033J-53033D01*
G01*
X147176435Y-77439177D01*
G75*
G02*
X147176435Y-77545243I-53033J-53033D01*
G01*
X147070369Y-77651309D01*
G75*
G02*
X146964303Y-77651309I-53033J53033D01*
G01*
G37*
%TD.AperFunction*%
%TO.P,U1,59*%
%TO.N,B7*%
%TA.AperFunction,SMDPad,CuDef*%
G36*
G01*
X147317857Y-77297755D02*
X146327907Y-76307805D01*
G75*
G02*
X146327907Y-76201739I53033J53033D01*
G01*
X146433973Y-76095673D01*
G75*
G02*
X146540039Y-76095673I53033J-53033D01*
G01*
X147529989Y-77085623D01*
G75*
G02*
X147529989Y-77191689I-53033J-53033D01*
G01*
X147423923Y-77297755D01*
G75*
G02*
X147317857Y-77297755I-53033J53033D01*
G01*
G37*
%TD.AperFunction*%
%TO.P,U1,58*%
%TO.N,B6*%
%TA.AperFunction,SMDPad,CuDef*%
G36*
G01*
X147671410Y-76944202D02*
X146681460Y-75954252D01*
G75*
G02*
X146681460Y-75848186I53033J53033D01*
G01*
X146787526Y-75742120D01*
G75*
G02*
X146893592Y-75742120I53033J-53033D01*
G01*
X147883542Y-76732070D01*
G75*
G02*
X147883542Y-76838136I-53033J-53033D01*
G01*
X147777476Y-76944202D01*
G75*
G02*
X147671410Y-76944202I-53033J53033D01*
G01*
G37*
%TD.AperFunction*%
%TO.P,U1,57*%
%TO.N,B5*%
%TA.AperFunction,SMDPad,CuDef*%
G36*
G01*
X148024963Y-76590649D02*
X147035013Y-75600699D01*
G75*
G02*
X147035013Y-75494633I53033J53033D01*
G01*
X147141079Y-75388567D01*
G75*
G02*
X147247145Y-75388567I53033J-53033D01*
G01*
X148237095Y-76378517D01*
G75*
G02*
X148237095Y-76484583I-53033J-53033D01*
G01*
X148131029Y-76590649D01*
G75*
G02*
X148024963Y-76590649I-53033J53033D01*
G01*
G37*
%TD.AperFunction*%
%TO.P,U1,56*%
%TO.N,B4*%
%TA.AperFunction,SMDPad,CuDef*%
G36*
G01*
X148378517Y-76237095D02*
X147388567Y-75247145D01*
G75*
G02*
X147388567Y-75141079I53033J53033D01*
G01*
X147494633Y-75035013D01*
G75*
G02*
X147600699Y-75035013I53033J-53033D01*
G01*
X148590649Y-76024963D01*
G75*
G02*
X148590649Y-76131029I-53033J-53033D01*
G01*
X148484583Y-76237095D01*
G75*
G02*
X148378517Y-76237095I-53033J53033D01*
G01*
G37*
%TD.AperFunction*%
%TO.P,U1,55*%
%TO.N,B3*%
%TA.AperFunction,SMDPad,CuDef*%
G36*
G01*
X148732070Y-75883542D02*
X147742120Y-74893592D01*
G75*
G02*
X147742120Y-74787526I53033J53033D01*
G01*
X147848186Y-74681460D01*
G75*
G02*
X147954252Y-74681460I53033J-53033D01*
G01*
X148944202Y-75671410D01*
G75*
G02*
X148944202Y-75777476I-53033J-53033D01*
G01*
X148838136Y-75883542D01*
G75*
G02*
X148732070Y-75883542I-53033J53033D01*
G01*
G37*
%TD.AperFunction*%
%TO.P,U1,54*%
%TO.N,D2*%
%TA.AperFunction,SMDPad,CuDef*%
G36*
G01*
X149085623Y-75529989D02*
X148095673Y-74540039D01*
G75*
G02*
X148095673Y-74433973I53033J53033D01*
G01*
X148201739Y-74327907D01*
G75*
G02*
X148307805Y-74327907I53033J-53033D01*
G01*
X149297755Y-75317857D01*
G75*
G02*
X149297755Y-75423923I-53033J-53033D01*
G01*
X149191689Y-75529989D01*
G75*
G02*
X149085623Y-75529989I-53033J53033D01*
G01*
G37*
%TD.AperFunction*%
%TO.P,U1,53*%
%TO.N,C12*%
%TA.AperFunction,SMDPad,CuDef*%
G36*
G01*
X149439177Y-75176435D02*
X148449227Y-74186485D01*
G75*
G02*
X148449227Y-74080419I53033J53033D01*
G01*
X148555293Y-73974353D01*
G75*
G02*
X148661359Y-73974353I53033J-53033D01*
G01*
X149651309Y-74964303D01*
G75*
G02*
X149651309Y-75070369I-53033J-53033D01*
G01*
X149545243Y-75176435D01*
G75*
G02*
X149439177Y-75176435I-53033J53033D01*
G01*
G37*
%TD.AperFunction*%
%TO.P,U1,52*%
%TO.N,C11*%
%TA.AperFunction,SMDPad,CuDef*%
G36*
G01*
X149792730Y-74822882D02*
X148802780Y-73832932D01*
G75*
G02*
X148802780Y-73726866I53033J53033D01*
G01*
X148908846Y-73620800D01*
G75*
G02*
X149014912Y-73620800I53033J-53033D01*
G01*
X150004862Y-74610750D01*
G75*
G02*
X150004862Y-74716816I-53033J-53033D01*
G01*
X149898796Y-74822882D01*
G75*
G02*
X149792730Y-74822882I-53033J53033D01*
G01*
G37*
%TD.AperFunction*%
%TO.P,U1,51*%
%TO.N,C10*%
%TA.AperFunction,SMDPad,CuDef*%
G36*
G01*
X150146284Y-74469328D02*
X149156334Y-73479378D01*
G75*
G02*
X149156334Y-73373312I53033J53033D01*
G01*
X149262400Y-73267246D01*
G75*
G02*
X149368466Y-73267246I53033J-53033D01*
G01*
X150358416Y-74257196D01*
G75*
G02*
X150358416Y-74363262I-53033J-53033D01*
G01*
X150252350Y-74469328D01*
G75*
G02*
X150146284Y-74469328I-53033J53033D01*
G01*
G37*
%TD.AperFunction*%
%TO.P,U1,50*%
%TO.N,A15*%
%TA.AperFunction,SMDPad,CuDef*%
G36*
G01*
X150499837Y-74115775D02*
X149509887Y-73125825D01*
G75*
G02*
X149509887Y-73019759I53033J53033D01*
G01*
X149615953Y-72913693D01*
G75*
G02*
X149722019Y-72913693I53033J-53033D01*
G01*
X150711969Y-73903643D01*
G75*
G02*
X150711969Y-74009709I-53033J-53033D01*
G01*
X150605903Y-74115775D01*
G75*
G02*
X150499837Y-74115775I-53033J53033D01*
G01*
G37*
%TD.AperFunction*%
%TO.P,U1,49*%
%TO.N,A14*%
%TA.AperFunction,SMDPad,CuDef*%
G36*
G01*
X150853390Y-73762222D02*
X149863440Y-72772272D01*
G75*
G02*
X149863440Y-72666206I53033J53033D01*
G01*
X149969506Y-72560140D01*
G75*
G02*
X150075572Y-72560140I53033J-53033D01*
G01*
X151065522Y-73550090D01*
G75*
G02*
X151065522Y-73656156I-53033J-53033D01*
G01*
X150959456Y-73762222D01*
G75*
G02*
X150853390Y-73762222I-53033J53033D01*
G01*
G37*
%TD.AperFunction*%
%TO.P,U1,48*%
%TO.N,+3V3*%
%TA.AperFunction,SMDPad,CuDef*%
G36*
G01*
X149969506Y-71039860D02*
X149863440Y-70933794D01*
G75*
G02*
X149863440Y-70827728I53033J53033D01*
G01*
X150853390Y-69837778D01*
G75*
G02*
X150959456Y-69837778I53033J-53033D01*
G01*
X151065522Y-69943844D01*
G75*
G02*
X151065522Y-70049910I-53033J-53033D01*
G01*
X150075572Y-71039860D01*
G75*
G02*
X149969506Y-71039860I-53033J53033D01*
G01*
G37*
%TD.AperFunction*%
%TO.P,U1,47*%
%TO.N,GND*%
%TA.AperFunction,SMDPad,CuDef*%
G36*
G01*
X149615953Y-70686307D02*
X149509887Y-70580241D01*
G75*
G02*
X149509887Y-70474175I53033J53033D01*
G01*
X150499837Y-69484225D01*
G75*
G02*
X150605903Y-69484225I53033J-53033D01*
G01*
X150711969Y-69590291D01*
G75*
G02*
X150711969Y-69696357I-53033J-53033D01*
G01*
X149722019Y-70686307D01*
G75*
G02*
X149615953Y-70686307I-53033J53033D01*
G01*
G37*
%TD.AperFunction*%
%TO.P,U1,46*%
%TO.N,A13*%
%TA.AperFunction,SMDPad,CuDef*%
G36*
G01*
X149262400Y-70332754D02*
X149156334Y-70226688D01*
G75*
G02*
X149156334Y-70120622I53033J53033D01*
G01*
X150146284Y-69130672D01*
G75*
G02*
X150252350Y-69130672I53033J-53033D01*
G01*
X150358416Y-69236738D01*
G75*
G02*
X150358416Y-69342804I-53033J-53033D01*
G01*
X149368466Y-70332754D01*
G75*
G02*
X149262400Y-70332754I-53033J53033D01*
G01*
G37*
%TD.AperFunction*%
%TO.P,U1,45*%
%TO.N,A12*%
%TA.AperFunction,SMDPad,CuDef*%
G36*
G01*
X148908846Y-69979200D02*
X148802780Y-69873134D01*
G75*
G02*
X148802780Y-69767068I53033J53033D01*
G01*
X149792730Y-68777118D01*
G75*
G02*
X149898796Y-68777118I53033J-53033D01*
G01*
X150004862Y-68883184D01*
G75*
G02*
X150004862Y-68989250I-53033J-53033D01*
G01*
X149014912Y-69979200D01*
G75*
G02*
X148908846Y-69979200I-53033J53033D01*
G01*
G37*
%TD.AperFunction*%
%TO.P,U1,44*%
%TO.N,A11*%
%TA.AperFunction,SMDPad,CuDef*%
G36*
G01*
X148555293Y-69625647D02*
X148449227Y-69519581D01*
G75*
G02*
X148449227Y-69413515I53033J53033D01*
G01*
X149439177Y-68423565D01*
G75*
G02*
X149545243Y-68423565I53033J-53033D01*
G01*
X149651309Y-68529631D01*
G75*
G02*
X149651309Y-68635697I-53033J-53033D01*
G01*
X148661359Y-69625647D01*
G75*
G02*
X148555293Y-69625647I-53033J53033D01*
G01*
G37*
%TD.AperFunction*%
%TO.P,U1,43*%
%TO.N,A10*%
%TA.AperFunction,SMDPad,CuDef*%
G36*
G01*
X148201739Y-69272093D02*
X148095673Y-69166027D01*
G75*
G02*
X148095673Y-69059961I53033J53033D01*
G01*
X149085623Y-68070011D01*
G75*
G02*
X149191689Y-68070011I53033J-53033D01*
G01*
X149297755Y-68176077D01*
G75*
G02*
X149297755Y-68282143I-53033J-53033D01*
G01*
X148307805Y-69272093D01*
G75*
G02*
X148201739Y-69272093I-53033J53033D01*
G01*
G37*
%TD.AperFunction*%
%TO.P,U1,42*%
%TO.N,A9*%
%TA.AperFunction,SMDPad,CuDef*%
G36*
G01*
X147848186Y-68918540D02*
X147742120Y-68812474D01*
G75*
G02*
X147742120Y-68706408I53033J53033D01*
G01*
X148732070Y-67716458D01*
G75*
G02*
X148838136Y-67716458I53033J-53033D01*
G01*
X148944202Y-67822524D01*
G75*
G02*
X148944202Y-67928590I-53033J-53033D01*
G01*
X147954252Y-68918540D01*
G75*
G02*
X147848186Y-68918540I-53033J53033D01*
G01*
G37*
%TD.AperFunction*%
%TO.P,U1,41*%
%TO.N,A8*%
%TA.AperFunction,SMDPad,CuDef*%
G36*
G01*
X147494633Y-68564987D02*
X147388567Y-68458921D01*
G75*
G02*
X147388567Y-68352855I53033J53033D01*
G01*
X148378517Y-67362905D01*
G75*
G02*
X148484583Y-67362905I53033J-53033D01*
G01*
X148590649Y-67468971D01*
G75*
G02*
X148590649Y-67575037I-53033J-53033D01*
G01*
X147600699Y-68564987D01*
G75*
G02*
X147494633Y-68564987I-53033J53033D01*
G01*
G37*
%TD.AperFunction*%
%TO.P,U1,40*%
%TO.N,C9*%
%TA.AperFunction,SMDPad,CuDef*%
G36*
G01*
X147141079Y-68211433D02*
X147035013Y-68105367D01*
G75*
G02*
X147035013Y-67999301I53033J53033D01*
G01*
X148024963Y-67009351D01*
G75*
G02*
X148131029Y-67009351I53033J-53033D01*
G01*
X148237095Y-67115417D01*
G75*
G02*
X148237095Y-67221483I-53033J-53033D01*
G01*
X147247145Y-68211433D01*
G75*
G02*
X147141079Y-68211433I-53033J53033D01*
G01*
G37*
%TD.AperFunction*%
%TO.P,U1,39*%
%TO.N,C8*%
%TA.AperFunction,SMDPad,CuDef*%
G36*
G01*
X146787526Y-67857880D02*
X146681460Y-67751814D01*
G75*
G02*
X146681460Y-67645748I53033J53033D01*
G01*
X147671410Y-66655798D01*
G75*
G02*
X147777476Y-66655798I53033J-53033D01*
G01*
X147883542Y-66761864D01*
G75*
G02*
X147883542Y-66867930I-53033J-53033D01*
G01*
X146893592Y-67857880D01*
G75*
G02*
X146787526Y-67857880I-53033J53033D01*
G01*
G37*
%TD.AperFunction*%
%TO.P,U1,38*%
%TO.N,C7*%
%TA.AperFunction,SMDPad,CuDef*%
G36*
G01*
X146433973Y-67504327D02*
X146327907Y-67398261D01*
G75*
G02*
X146327907Y-67292195I53033J53033D01*
G01*
X147317857Y-66302245D01*
G75*
G02*
X147423923Y-66302245I53033J-53033D01*
G01*
X147529989Y-66408311D01*
G75*
G02*
X147529989Y-66514377I-53033J-53033D01*
G01*
X146540039Y-67504327D01*
G75*
G02*
X146433973Y-67504327I-53033J53033D01*
G01*
G37*
%TD.AperFunction*%
%TO.P,U1,37*%
%TO.N,C6*%
%TA.AperFunction,SMDPad,CuDef*%
G36*
G01*
X146080419Y-67150773D02*
X145974353Y-67044707D01*
G75*
G02*
X145974353Y-66938641I53033J53033D01*
G01*
X146964303Y-65948691D01*
G75*
G02*
X147070369Y-65948691I53033J-53033D01*
G01*
X147176435Y-66054757D01*
G75*
G02*
X147176435Y-66160823I-53033J-53033D01*
G01*
X146186485Y-67150773D01*
G75*
G02*
X146080419Y-67150773I-53033J53033D01*
G01*
G37*
%TD.AperFunction*%
%TO.P,U1,36*%
%TO.N,B15*%
%TA.AperFunction,SMDPad,CuDef*%
G36*
G01*
X145726866Y-66797220D02*
X145620800Y-66691154D01*
G75*
G02*
X145620800Y-66585088I53033J53033D01*
G01*
X146610750Y-65595138D01*
G75*
G02*
X146716816Y-65595138I53033J-53033D01*
G01*
X146822882Y-65701204D01*
G75*
G02*
X146822882Y-65807270I-53033J-53033D01*
G01*
X145832932Y-66797220D01*
G75*
G02*
X145726866Y-66797220I-53033J53033D01*
G01*
G37*
%TD.AperFunction*%
%TO.P,U1,35*%
%TO.N,B14*%
%TA.AperFunction,SMDPad,CuDef*%
G36*
G01*
X145373312Y-66443666D02*
X145267246Y-66337600D01*
G75*
G02*
X145267246Y-66231534I53033J53033D01*
G01*
X146257196Y-65241584D01*
G75*
G02*
X146363262Y-65241584I53033J-53033D01*
G01*
X146469328Y-65347650D01*
G75*
G02*
X146469328Y-65453716I-53033J-53033D01*
G01*
X145479378Y-66443666D01*
G75*
G02*
X145373312Y-66443666I-53033J53033D01*
G01*
G37*
%TD.AperFunction*%
%TO.P,U1,34*%
%TO.N,B13*%
%TA.AperFunction,SMDPad,CuDef*%
G36*
G01*
X145019759Y-66090113D02*
X144913693Y-65984047D01*
G75*
G02*
X144913693Y-65877981I53033J53033D01*
G01*
X145903643Y-64888031D01*
G75*
G02*
X146009709Y-64888031I53033J-53033D01*
G01*
X146115775Y-64994097D01*
G75*
G02*
X146115775Y-65100163I-53033J-53033D01*
G01*
X145125825Y-66090113D01*
G75*
G02*
X145019759Y-66090113I-53033J53033D01*
G01*
G37*
%TD.AperFunction*%
%TO.P,U1,33*%
%TO.N,B12*%
%TA.AperFunction,SMDPad,CuDef*%
G36*
G01*
X144666206Y-65736560D02*
X144560140Y-65630494D01*
G75*
G02*
X144560140Y-65524428I53033J53033D01*
G01*
X145550090Y-64534478D01*
G75*
G02*
X145656156Y-64534478I53033J-53033D01*
G01*
X145762222Y-64640544D01*
G75*
G02*
X145762222Y-64746610I-53033J-53033D01*
G01*
X144772272Y-65736560D01*
G75*
G02*
X144666206Y-65736560I-53033J53033D01*
G01*
G37*
%TD.AperFunction*%
%TO.P,U1,32*%
%TO.N,+3V3*%
%TA.AperFunction,SMDPad,CuDef*%
G36*
G01*
X142827728Y-65736560D02*
X141837778Y-64746610D01*
G75*
G02*
X141837778Y-64640544I53033J53033D01*
G01*
X141943844Y-64534478D01*
G75*
G02*
X142049910Y-64534478I53033J-53033D01*
G01*
X143039860Y-65524428D01*
G75*
G02*
X143039860Y-65630494I-53033J-53033D01*
G01*
X142933794Y-65736560D01*
G75*
G02*
X142827728Y-65736560I-53033J53033D01*
G01*
G37*
%TD.AperFunction*%
%TO.P,U1,31*%
%TO.N,GND*%
%TA.AperFunction,SMDPad,CuDef*%
G36*
G01*
X142474175Y-66090113D02*
X141484225Y-65100163D01*
G75*
G02*
X141484225Y-64994097I53033J53033D01*
G01*
X141590291Y-64888031D01*
G75*
G02*
X141696357Y-64888031I53033J-53033D01*
G01*
X142686307Y-65877981D01*
G75*
G02*
X142686307Y-65984047I-53033J-53033D01*
G01*
X142580241Y-66090113D01*
G75*
G02*
X142474175Y-66090113I-53033J53033D01*
G01*
G37*
%TD.AperFunction*%
%TO.P,U1,30*%
%TO.N,Net-(C8-Pad1)*%
%TA.AperFunction,SMDPad,CuDef*%
G36*
G01*
X142120622Y-66443666D02*
X141130672Y-65453716D01*
G75*
G02*
X141130672Y-65347650I53033J53033D01*
G01*
X141236738Y-65241584D01*
G75*
G02*
X141342804Y-65241584I53033J-53033D01*
G01*
X142332754Y-66231534D01*
G75*
G02*
X142332754Y-66337600I-53033J-53033D01*
G01*
X142226688Y-66443666D01*
G75*
G02*
X142120622Y-66443666I-53033J53033D01*
G01*
G37*
%TD.AperFunction*%
%TO.P,U1,29*%
%TO.N,B10*%
%TA.AperFunction,SMDPad,CuDef*%
G36*
G01*
X141767068Y-66797220D02*
X140777118Y-65807270D01*
G75*
G02*
X140777118Y-65701204I53033J53033D01*
G01*
X140883184Y-65595138D01*
G75*
G02*
X140989250Y-65595138I53033J-53033D01*
G01*
X141979200Y-66585088D01*
G75*
G02*
X141979200Y-66691154I-53033J-53033D01*
G01*
X141873134Y-66797220D01*
G75*
G02*
X141767068Y-66797220I-53033J53033D01*
G01*
G37*
%TD.AperFunction*%
%TO.P,U1,28*%
%TO.N,B2*%
%TA.AperFunction,SMDPad,CuDef*%
G36*
G01*
X141413515Y-67150773D02*
X140423565Y-66160823D01*
G75*
G02*
X140423565Y-66054757I53033J53033D01*
G01*
X140529631Y-65948691D01*
G75*
G02*
X140635697Y-65948691I53033J-53033D01*
G01*
X141625647Y-66938641D01*
G75*
G02*
X141625647Y-67044707I-53033J-53033D01*
G01*
X141519581Y-67150773D01*
G75*
G02*
X141413515Y-67150773I-53033J53033D01*
G01*
G37*
%TD.AperFunction*%
%TO.P,U1,27*%
%TO.N,B1*%
%TA.AperFunction,SMDPad,CuDef*%
G36*
G01*
X141059961Y-67504327D02*
X140070011Y-66514377D01*
G75*
G02*
X140070011Y-66408311I53033J53033D01*
G01*
X140176077Y-66302245D01*
G75*
G02*
X140282143Y-66302245I53033J-53033D01*
G01*
X141272093Y-67292195D01*
G75*
G02*
X141272093Y-67398261I-53033J-53033D01*
G01*
X141166027Y-67504327D01*
G75*
G02*
X141059961Y-67504327I-53033J53033D01*
G01*
G37*
%TD.AperFunction*%
%TO.P,U1,26*%
%TO.N,B0*%
%TA.AperFunction,SMDPad,CuDef*%
G36*
G01*
X140706408Y-67857880D02*
X139716458Y-66867930D01*
G75*
G02*
X139716458Y-66761864I53033J53033D01*
G01*
X139822524Y-66655798D01*
G75*
G02*
X139928590Y-66655798I53033J-53033D01*
G01*
X140918540Y-67645748D01*
G75*
G02*
X140918540Y-67751814I-53033J-53033D01*
G01*
X140812474Y-67857880D01*
G75*
G02*
X140706408Y-67857880I-53033J53033D01*
G01*
G37*
%TD.AperFunction*%
%TO.P,U1,25*%
%TO.N,C5*%
%TA.AperFunction,SMDPad,CuDef*%
G36*
G01*
X140352855Y-68211433D02*
X139362905Y-67221483D01*
G75*
G02*
X139362905Y-67115417I53033J53033D01*
G01*
X139468971Y-67009351D01*
G75*
G02*
X139575037Y-67009351I53033J-53033D01*
G01*
X140564987Y-67999301D01*
G75*
G02*
X140564987Y-68105367I-53033J-53033D01*
G01*
X140458921Y-68211433D01*
G75*
G02*
X140352855Y-68211433I-53033J53033D01*
G01*
G37*
%TD.AperFunction*%
%TO.P,U1,24*%
%TO.N,C4*%
%TA.AperFunction,SMDPad,CuDef*%
G36*
G01*
X139999301Y-68564987D02*
X139009351Y-67575037D01*
G75*
G02*
X139009351Y-67468971I53033J53033D01*
G01*
X139115417Y-67362905D01*
G75*
G02*
X139221483Y-67362905I53033J-53033D01*
G01*
X140211433Y-68352855D01*
G75*
G02*
X140211433Y-68458921I-53033J-53033D01*
G01*
X140105367Y-68564987D01*
G75*
G02*
X139999301Y-68564987I-53033J53033D01*
G01*
G37*
%TD.AperFunction*%
%TO.P,U1,23*%
%TO.N,A7*%
%TA.AperFunction,SMDPad,CuDef*%
G36*
G01*
X139645748Y-68918540D02*
X138655798Y-67928590D01*
G75*
G02*
X138655798Y-67822524I53033J53033D01*
G01*
X138761864Y-67716458D01*
G75*
G02*
X138867930Y-67716458I53033J-53033D01*
G01*
X139857880Y-68706408D01*
G75*
G02*
X139857880Y-68812474I-53033J-53033D01*
G01*
X139751814Y-68918540D01*
G75*
G02*
X139645748Y-68918540I-53033J53033D01*
G01*
G37*
%TD.AperFunction*%
%TO.P,U1,22*%
%TO.N,A6*%
%TA.AperFunction,SMDPad,CuDef*%
G36*
G01*
X139292195Y-69272093D02*
X138302245Y-68282143D01*
G75*
G02*
X138302245Y-68176077I53033J53033D01*
G01*
X138408311Y-68070011D01*
G75*
G02*
X138514377Y-68070011I53033J-53033D01*
G01*
X139504327Y-69059961D01*
G75*
G02*
X139504327Y-69166027I-53033J-53033D01*
G01*
X139398261Y-69272093D01*
G75*
G02*
X139292195Y-69272093I-53033J53033D01*
G01*
G37*
%TD.AperFunction*%
%TO.P,U1,21*%
%TO.N,A5*%
%TA.AperFunction,SMDPad,CuDef*%
G36*
G01*
X138938641Y-69625647D02*
X137948691Y-68635697D01*
G75*
G02*
X137948691Y-68529631I53033J53033D01*
G01*
X138054757Y-68423565D01*
G75*
G02*
X138160823Y-68423565I53033J-53033D01*
G01*
X139150773Y-69413515D01*
G75*
G02*
X139150773Y-69519581I-53033J-53033D01*
G01*
X139044707Y-69625647D01*
G75*
G02*
X138938641Y-69625647I-53033J53033D01*
G01*
G37*
%TD.AperFunction*%
%TO.P,U1,20*%
%TO.N,A4*%
%TA.AperFunction,SMDPad,CuDef*%
G36*
G01*
X138585088Y-69979200D02*
X137595138Y-68989250D01*
G75*
G02*
X137595138Y-68883184I53033J53033D01*
G01*
X137701204Y-68777118D01*
G75*
G02*
X137807270Y-68777118I53033J-53033D01*
G01*
X138797220Y-69767068D01*
G75*
G02*
X138797220Y-69873134I-53033J-53033D01*
G01*
X138691154Y-69979200D01*
G75*
G02*
X138585088Y-69979200I-53033J53033D01*
G01*
G37*
%TD.AperFunction*%
%TO.P,U1,19*%
%TO.N,+3V3*%
%TA.AperFunction,SMDPad,CuDef*%
G36*
G01*
X138231534Y-70332754D02*
X137241584Y-69342804D01*
G75*
G02*
X137241584Y-69236738I53033J53033D01*
G01*
X137347650Y-69130672D01*
G75*
G02*
X137453716Y-69130672I53033J-53033D01*
G01*
X138443666Y-70120622D01*
G75*
G02*
X138443666Y-70226688I-53033J-53033D01*
G01*
X138337600Y-70332754D01*
G75*
G02*
X138231534Y-70332754I-53033J53033D01*
G01*
G37*
%TD.AperFunction*%
%TO.P,U1,18*%
%TO.N,GND*%
%TA.AperFunction,SMDPad,CuDef*%
G36*
G01*
X137877981Y-70686307D02*
X136888031Y-69696357D01*
G75*
G02*
X136888031Y-69590291I53033J53033D01*
G01*
X136994097Y-69484225D01*
G75*
G02*
X137100163Y-69484225I53033J-53033D01*
G01*
X138090113Y-70474175D01*
G75*
G02*
X138090113Y-70580241I-53033J-53033D01*
G01*
X137984047Y-70686307D01*
G75*
G02*
X137877981Y-70686307I-53033J53033D01*
G01*
G37*
%TD.AperFunction*%
%TO.P,U1,17*%
%TO.N,A3*%
%TA.AperFunction,SMDPad,CuDef*%
G36*
G01*
X137524428Y-71039860D02*
X136534478Y-70049910D01*
G75*
G02*
X136534478Y-69943844I53033J53033D01*
G01*
X136640544Y-69837778D01*
G75*
G02*
X136746610Y-69837778I53033J-53033D01*
G01*
X137736560Y-70827728D01*
G75*
G02*
X137736560Y-70933794I-53033J-53033D01*
G01*
X137630494Y-71039860D01*
G75*
G02*
X137524428Y-71039860I-53033J53033D01*
G01*
G37*
%TD.AperFunction*%
%TO.P,U1,16*%
%TO.N,A2*%
%TA.AperFunction,SMDPad,CuDef*%
G36*
G01*
X136640544Y-73762222D02*
X136534478Y-73656156D01*
G75*
G02*
X136534478Y-73550090I53033J53033D01*
G01*
X137524428Y-72560140D01*
G75*
G02*
X137630494Y-72560140I53033J-53033D01*
G01*
X137736560Y-72666206D01*
G75*
G02*
X137736560Y-72772272I-53033J-53033D01*
G01*
X136746610Y-73762222D01*
G75*
G02*
X136640544Y-73762222I-53033J53033D01*
G01*
G37*
%TD.AperFunction*%
%TO.P,U1,15*%
%TO.N,A1*%
%TA.AperFunction,SMDPad,CuDef*%
G36*
G01*
X136994097Y-74115775D02*
X136888031Y-74009709D01*
G75*
G02*
X136888031Y-73903643I53033J53033D01*
G01*
X137877981Y-72913693D01*
G75*
G02*
X137984047Y-72913693I53033J-53033D01*
G01*
X138090113Y-73019759D01*
G75*
G02*
X138090113Y-73125825I-53033J-53033D01*
G01*
X137100163Y-74115775D01*
G75*
G02*
X136994097Y-74115775I-53033J53033D01*
G01*
G37*
%TD.AperFunction*%
%TO.P,U1,14*%
%TO.N,A0*%
%TA.AperFunction,SMDPad,CuDef*%
G36*
G01*
X137347650Y-74469328D02*
X137241584Y-74363262D01*
G75*
G02*
X137241584Y-74257196I53033J53033D01*
G01*
X138231534Y-73267246D01*
G75*
G02*
X138337600Y-73267246I53033J-53033D01*
G01*
X138443666Y-73373312D01*
G75*
G02*
X138443666Y-73479378I-53033J-53033D01*
G01*
X137453716Y-74469328D01*
G75*
G02*
X137347650Y-74469328I-53033J53033D01*
G01*
G37*
%TD.AperFunction*%
%TO.P,U1,13*%
%TO.N,/ANALOG_VDD*%
%TA.AperFunction,SMDPad,CuDef*%
G36*
G01*
X137701204Y-74822882D02*
X137595138Y-74716816D01*
G75*
G02*
X137595138Y-74610750I53033J53033D01*
G01*
X138585088Y-73620800D01*
G75*
G02*
X138691154Y-73620800I53033J-53033D01*
G01*
X138797220Y-73726866D01*
G75*
G02*
X138797220Y-73832932I-53033J-53033D01*
G01*
X137807270Y-74822882D01*
G75*
G02*
X137701204Y-74822882I-53033J53033D01*
G01*
G37*
%TD.AperFunction*%
%TO.P,U1,12*%
%TO.N,/VSSA*%
%TA.AperFunction,SMDPad,CuDef*%
G36*
G01*
X138054757Y-75176435D02*
X137948691Y-75070369D01*
G75*
G02*
X137948691Y-74964303I53033J53033D01*
G01*
X138938641Y-73974353D01*
G75*
G02*
X139044707Y-73974353I53033J-53033D01*
G01*
X139150773Y-74080419D01*
G75*
G02*
X139150773Y-74186485I-53033J-53033D01*
G01*
X138160823Y-75176435D01*
G75*
G02*
X138054757Y-75176435I-53033J53033D01*
G01*
G37*
%TD.AperFunction*%
%TO.P,U1,11*%
%TO.N,C3*%
%TA.AperFunction,SMDPad,CuDef*%
G36*
G01*
X138408311Y-75529989D02*
X138302245Y-75423923D01*
G75*
G02*
X138302245Y-75317857I53033J53033D01*
G01*
X139292195Y-74327907D01*
G75*
G02*
X139398261Y-74327907I53033J-53033D01*
G01*
X139504327Y-74433973D01*
G75*
G02*
X139504327Y-74540039I-53033J-53033D01*
G01*
X138514377Y-75529989D01*
G75*
G02*
X138408311Y-75529989I-53033J53033D01*
G01*
G37*
%TD.AperFunction*%
%TO.P,U1,10*%
%TO.N,C2*%
%TA.AperFunction,SMDPad,CuDef*%
G36*
G01*
X138761864Y-75883542D02*
X138655798Y-75777476D01*
G75*
G02*
X138655798Y-75671410I53033J53033D01*
G01*
X139645748Y-74681460D01*
G75*
G02*
X139751814Y-74681460I53033J-53033D01*
G01*
X139857880Y-74787526D01*
G75*
G02*
X139857880Y-74893592I-53033J-53033D01*
G01*
X138867930Y-75883542D01*
G75*
G02*
X138761864Y-75883542I-53033J53033D01*
G01*
G37*
%TD.AperFunction*%
%TO.P,U1,9*%
%TO.N,C1*%
%TA.AperFunction,SMDPad,CuDef*%
G36*
G01*
X139115417Y-76237095D02*
X139009351Y-76131029D01*
G75*
G02*
X139009351Y-76024963I53033J53033D01*
G01*
X139999301Y-75035013D01*
G75*
G02*
X140105367Y-75035013I53033J-53033D01*
G01*
X140211433Y-75141079D01*
G75*
G02*
X140211433Y-75247145I-53033J-53033D01*
G01*
X139221483Y-76237095D01*
G75*
G02*
X139115417Y-76237095I-53033J53033D01*
G01*
G37*
%TD.AperFunction*%
%TO.P,U1,8*%
%TO.N,C0*%
%TA.AperFunction,SMDPad,CuDef*%
G36*
G01*
X139468971Y-76590649D02*
X139362905Y-76484583D01*
G75*
G02*
X139362905Y-76378517I53033J53033D01*
G01*
X140352855Y-75388567D01*
G75*
G02*
X140458921Y-75388567I53033J-53033D01*
G01*
X140564987Y-75494633D01*
G75*
G02*
X140564987Y-75600699I-53033J-53033D01*
G01*
X139575037Y-76590649D01*
G75*
G02*
X139468971Y-76590649I-53033J53033D01*
G01*
G37*
%TD.AperFunction*%
%TO.P,U1,7*%
%TO.N,Net-(C7-Pad1)*%
%TA.AperFunction,SMDPad,CuDef*%
G36*
G01*
X139822524Y-76944202D02*
X139716458Y-76838136D01*
G75*
G02*
X139716458Y-76732070I53033J53033D01*
G01*
X140706408Y-75742120D01*
G75*
G02*
X140812474Y-75742120I53033J-53033D01*
G01*
X140918540Y-75848186D01*
G75*
G02*
X140918540Y-75954252I-53033J-53033D01*
G01*
X139928590Y-76944202D01*
G75*
G02*
X139822524Y-76944202I-53033J53033D01*
G01*
G37*
%TD.AperFunction*%
%TO.P,U1,6*%
%TO.N,Net-(C10-Pad1)*%
%TA.AperFunction,SMDPad,CuDef*%
G36*
G01*
X140176077Y-77297755D02*
X140070011Y-77191689D01*
G75*
G02*
X140070011Y-77085623I53033J53033D01*
G01*
X141059961Y-76095673D01*
G75*
G02*
X141166027Y-76095673I53033J-53033D01*
G01*
X141272093Y-76201739D01*
G75*
G02*
X141272093Y-76307805I-53033J-53033D01*
G01*
X140282143Y-77297755D01*
G75*
G02*
X140176077Y-77297755I-53033J53033D01*
G01*
G37*
%TD.AperFunction*%
%TO.P,U1,5*%
%TO.N,Net-(C9-Pad1)*%
%TA.AperFunction,SMDPad,CuDef*%
G36*
G01*
X140529631Y-77651309D02*
X140423565Y-77545243D01*
G75*
G02*
X140423565Y-77439177I53033J53033D01*
G01*
X141413515Y-76449227D01*
G75*
G02*
X141519581Y-76449227I53033J-53033D01*
G01*
X141625647Y-76555293D01*
G75*
G02*
X141625647Y-76661359I-53033J-53033D01*
G01*
X140635697Y-77651309D01*
G75*
G02*
X140529631Y-77651309I-53033J53033D01*
G01*
G37*
%TD.AperFunction*%
%TO.P,U1,4*%
%TO.N,C15*%
%TA.AperFunction,SMDPad,CuDef*%
G36*
G01*
X140883184Y-78004862D02*
X140777118Y-77898796D01*
G75*
G02*
X140777118Y-77792730I53033J53033D01*
G01*
X141767068Y-76802780D01*
G75*
G02*
X141873134Y-76802780I53033J-53033D01*
G01*
X141979200Y-76908846D01*
G75*
G02*
X141979200Y-77014912I-53033J-53033D01*
G01*
X140989250Y-78004862D01*
G75*
G02*
X140883184Y-78004862I-53033J53033D01*
G01*
G37*
%TD.AperFunction*%
%TO.P,U1,3*%
%TO.N,C14*%
%TA.AperFunction,SMDPad,CuDef*%
G36*
G01*
X141236738Y-78358416D02*
X141130672Y-78252350D01*
G75*
G02*
X141130672Y-78146284I53033J53033D01*
G01*
X142120622Y-77156334D01*
G75*
G02*
X142226688Y-77156334I53033J-53033D01*
G01*
X142332754Y-77262400D01*
G75*
G02*
X142332754Y-77368466I-53033J-53033D01*
G01*
X141342804Y-78358416D01*
G75*
G02*
X141236738Y-78358416I-53033J53033D01*
G01*
G37*
%TD.AperFunction*%
%TO.P,U1,2*%
%TO.N,C13*%
%TA.AperFunction,SMDPad,CuDef*%
G36*
G01*
X141590291Y-78711969D02*
X141484225Y-78605903D01*
G75*
G02*
X141484225Y-78499837I53033J53033D01*
G01*
X142474175Y-77509887D01*
G75*
G02*
X142580241Y-77509887I53033J-53033D01*
G01*
X142686307Y-77615953D01*
G75*
G02*
X142686307Y-77722019I-53033J-53033D01*
G01*
X141696357Y-78711969D01*
G75*
G02*
X141590291Y-78711969I-53033J53033D01*
G01*
G37*
%TD.AperFunction*%
%TO.P,U1,1*%
%TO.N,GND*%
%TA.AperFunction,SMDPad,CuDef*%
G36*
G01*
X141943844Y-79065522D02*
X141837778Y-78959456D01*
G75*
G02*
X141837778Y-78853390I53033J53033D01*
G01*
X142827728Y-77863440D01*
G75*
G02*
X142933794Y-77863440I53033J-53033D01*
G01*
X143039860Y-77969506D01*
G75*
G02*
X143039860Y-78075572I-53033J-53033D01*
G01*
X142049910Y-79065522D01*
G75*
G02*
X141943844Y-79065522I-53033J53033D01*
G01*
G37*
%TD.AperFunction*%
%TD*%
D12*
%TO.P,J1,3*%
%TO.N,A2*%
X170680000Y-86930000D03*
%TO.P,J1,2*%
%TO.N,A3*%
X170680000Y-84390000D03*
D13*
%TO.P,J1,1*%
%TO.N,GND*%
X170680000Y-81850000D03*
%TD*%
D14*
%TO.P,H2,1*%
%TO.N,GND*%
X116000000Y-54000000D03*
%TD*%
%TO.P,H1,1*%
%TO.N,GND*%
X171000000Y-54000000D03*
%TD*%
%TO.P,H3,1*%
%TO.N,GND*%
X116000000Y-95000000D03*
%TD*%
%TO.P,R3,1*%
%TO.N,GND*%
%TA.AperFunction,SMDPad,CuDef*%
G36*
G01*
X162100000Y-72737500D02*
X162100000Y-72262500D01*
G75*
G02*
X162337500Y-72025000I237500J0D01*
G01*
X162837500Y-72025000D01*
G75*
G02*
X163075000Y-72262500I0J-237500D01*
G01*
X163075000Y-72737500D01*
G75*
G02*
X162837500Y-72975000I-237500J0D01*
G01*
X162337500Y-72975000D01*
G75*
G02*
X162100000Y-72737500I0J237500D01*
G01*
G37*
%TD.AperFunction*%
%TO.P,R3,2*%
%TO.N,Net-(J3-Pad3)*%
%TA.AperFunction,SMDPad,CuDef*%
G36*
G01*
X163925000Y-72737500D02*
X163925000Y-72262500D01*
G75*
G02*
X164162500Y-72025000I237500J0D01*
G01*
X164662500Y-72025000D01*
G75*
G02*
X164900000Y-72262500I0J-237500D01*
G01*
X164900000Y-72737500D01*
G75*
G02*
X164662500Y-72975000I-237500J0D01*
G01*
X164162500Y-72975000D01*
G75*
G02*
X163925000Y-72737500I0J237500D01*
G01*
G37*
%TD.AperFunction*%
%TD*%
%TO.P,R6,2*%
%TO.N,GND*%
%TA.AperFunction,SMDPad,CuDef*%
G36*
G01*
X163075000Y-70662500D02*
X163075000Y-71137500D01*
G75*
G02*
X162837500Y-71375000I-237500J0D01*
G01*
X162337500Y-71375000D01*
G75*
G02*
X162100000Y-71137500I0J237500D01*
G01*
X162100000Y-70662500D01*
G75*
G02*
X162337500Y-70425000I237500J0D01*
G01*
X162837500Y-70425000D01*
G75*
G02*
X163075000Y-70662500I0J-237500D01*
G01*
G37*
%TD.AperFunction*%
%TO.P,R6,1*%
%TO.N,Net-(J3-Pad9)*%
%TA.AperFunction,SMDPad,CuDef*%
G36*
G01*
X164900000Y-70662500D02*
X164900000Y-71137500D01*
G75*
G02*
X164662500Y-71375000I-237500J0D01*
G01*
X164162500Y-71375000D01*
G75*
G02*
X163925000Y-71137500I0J237500D01*
G01*
X163925000Y-70662500D01*
G75*
G02*
X164162500Y-70425000I237500J0D01*
G01*
X164662500Y-70425000D01*
G75*
G02*
X164900000Y-70662500I0J-237500D01*
G01*
G37*
%TD.AperFunction*%
%TD*%
D15*
%TO.P,J2,1*%
%TO.N,GND*%
X162050000Y-95525000D03*
%TO.P,J2,2*%
X162050000Y-90475000D03*
%TO.P,J2,3*%
X159510000Y-95525000D03*
%TO.P,J2,4*%
X159510000Y-90475000D03*
%TO.P,J2,5*%
%TO.N,+3V3*%
X156970000Y-95525000D03*
%TO.P,J2,6*%
%TO.N,VCC*%
X156970000Y-90475000D03*
%TO.P,J2,7*%
%TO.N,+3V3*%
X154430000Y-95525000D03*
%TO.P,J2,8*%
%TO.N,VCC*%
X154430000Y-90475000D03*
%TO.P,J2,9*%
%TO.N,A14*%
X151890000Y-95525000D03*
%TO.P,J2,10*%
%TO.N,Net-(J2-Pad10)*%
X151890000Y-90475000D03*
%TO.P,J2,11*%
%TO.N,C10*%
X149350000Y-95525000D03*
%TO.P,J2,12*%
%TO.N,A15*%
X149350000Y-90475000D03*
%TO.P,J2,13*%
%TO.N,C12*%
X146810000Y-95525000D03*
%TO.P,J2,14*%
%TO.N,C11*%
X146810000Y-90475000D03*
%TO.P,J2,15*%
%TO.N,B3*%
X144270000Y-95525000D03*
%TO.P,J2,16*%
%TO.N,D2*%
X144270000Y-90475000D03*
%TO.P,J2,17*%
%TO.N,B5*%
X141730000Y-95525000D03*
%TO.P,J2,18*%
%TO.N,B4*%
X141730000Y-90475000D03*
%TO.P,J2,19*%
%TO.N,B7*%
X139190000Y-95525000D03*
%TO.P,J2,20*%
%TO.N,B6*%
X139190000Y-90475000D03*
%TO.P,J2,21*%
%TO.N,B9*%
X136650000Y-95525000D03*
%TO.P,J2,22*%
%TO.N,B8*%
X136650000Y-90475000D03*
%TO.P,J2,23*%
%TO.N,C14*%
X134110000Y-95525000D03*
%TO.P,J2,24*%
%TO.N,C13*%
X134110000Y-90475000D03*
%TO.P,J2,25*%
%TO.N,C0*%
X131570000Y-95525000D03*
%TO.P,J2,26*%
%TO.N,C15*%
X131570000Y-90475000D03*
%TO.P,J2,27*%
%TO.N,C2*%
X129030000Y-95525000D03*
%TO.P,J2,28*%
%TO.N,C1*%
X129030000Y-90475000D03*
%TO.P,J2,29*%
%TO.N,A0*%
X126490000Y-95525000D03*
%TO.P,J2,30*%
%TO.N,C3*%
X126490000Y-90475000D03*
%TO.P,J2,31*%
%TO.N,A2*%
X123950000Y-95525000D03*
%TO.P,J2,32*%
%TO.N,A1*%
X123950000Y-90475000D03*
%TD*%
%TO.P,J4,32*%
%TO.N,GND*%
X123950000Y-53475000D03*
%TO.P,J4,31*%
X123950000Y-58525000D03*
%TO.P,J4,30*%
X126490000Y-53475000D03*
%TO.P,J4,29*%
X126490000Y-58525000D03*
%TO.P,J4,28*%
%TO.N,+3V3*%
X129030000Y-53475000D03*
%TO.P,J4,27*%
%TO.N,VCC*%
X129030000Y-58525000D03*
%TO.P,J4,26*%
%TO.N,+3V3*%
X131570000Y-53475000D03*
%TO.P,J4,25*%
%TO.N,A3*%
X131570000Y-58525000D03*
%TO.P,J4,24*%
%TO.N,A4*%
X134110000Y-53475000D03*
%TO.P,J4,23*%
%TO.N,A5*%
X134110000Y-58525000D03*
%TO.P,J4,22*%
%TO.N,A6*%
X136650000Y-53475000D03*
%TO.P,J4,21*%
%TO.N,A7*%
X136650000Y-58525000D03*
%TO.P,J4,20*%
%TO.N,C4*%
X139190000Y-53475000D03*
%TO.P,J4,19*%
%TO.N,C5*%
X139190000Y-58525000D03*
%TO.P,J4,18*%
%TO.N,B0*%
X141730000Y-53475000D03*
%TO.P,J4,17*%
%TO.N,B1*%
X141730000Y-58525000D03*
%TO.P,J4,16*%
%TO.N,B2*%
X144270000Y-53475000D03*
%TO.P,J4,15*%
%TO.N,B10*%
X144270000Y-58525000D03*
%TO.P,J4,14*%
%TO.N,B12*%
X146810000Y-53475000D03*
%TO.P,J4,13*%
%TO.N,B13*%
X146810000Y-58525000D03*
%TO.P,J4,12*%
%TO.N,B14*%
X149350000Y-53475000D03*
%TO.P,J4,11*%
%TO.N,B15*%
X149350000Y-58525000D03*
%TO.P,J4,10*%
%TO.N,C6*%
X151890000Y-53475000D03*
%TO.P,J4,9*%
%TO.N,C7*%
X151890000Y-58525000D03*
%TO.P,J4,8*%
%TO.N,C8*%
X154430000Y-53475000D03*
%TO.P,J4,7*%
%TO.N,C9*%
X154430000Y-58525000D03*
%TO.P,J4,6*%
%TO.N,A8*%
X156970000Y-53475000D03*
%TO.P,J4,5*%
%TO.N,A9*%
X156970000Y-58525000D03*
%TO.P,J4,4*%
%TO.N,A10*%
X159510000Y-53475000D03*
%TO.P,J4,3*%
%TO.N,A11*%
X159510000Y-58525000D03*
%TO.P,J4,2*%
%TO.N,A12*%
X162050000Y-53475000D03*
%TO.P,J4,1*%
%TO.N,A13*%
X162050000Y-58525000D03*
%TD*%
D14*
%TO.P,H4,1*%
%TO.N,GND*%
X171000000Y-95000000D03*
%TD*%
D13*
%TO.P,JP1,1*%
%TO.N,GND*%
X115410000Y-76450000D03*
D12*
%TO.P,JP1,2*%
%TO.N,C1*%
X115410000Y-78990000D03*
%TD*%
D16*
%TO.N,GND*%
X141821500Y-55929500D03*
X165250000Y-57500000D03*
X130599100Y-77820000D03*
X153367000Y-67147200D03*
X141250000Y-79865000D03*
X148100000Y-82200000D03*
X161475000Y-69600000D03*
X143110000Y-66500000D03*
X155330000Y-76500000D03*
X134140000Y-67850000D03*
X165000000Y-75500000D03*
X165000000Y-66000000D03*
X144750000Y-70250000D03*
X145012800Y-66963836D03*
X145066203Y-82066203D03*
X143750000Y-79750000D03*
X143750000Y-76500000D03*
X125250000Y-56000000D03*
X146000000Y-74000000D03*
X144000000Y-71750000D03*
X127750000Y-64000000D03*
X149113764Y-71038554D03*
X161080000Y-66230000D03*
X160340000Y-64210000D03*
X160680000Y-62480000D03*
X117950000Y-85860000D03*
X121670000Y-78050000D03*
X139170000Y-62070000D03*
%TO.N,+3V3*%
X160760000Y-51310000D03*
X155684800Y-93977900D03*
X154050000Y-67878200D03*
X146720000Y-82602400D03*
X121050000Y-62810000D03*
X141660000Y-62700000D03*
X128310000Y-72390000D03*
X135380000Y-66660000D03*
X140250000Y-56000000D03*
X132820000Y-53550000D03*
X127900000Y-55990000D03*
X133300000Y-65030000D03*
X157650000Y-80870000D03*
X157770000Y-83290000D03*
X145080000Y-83650000D03*
X168610000Y-62190000D03*
X158080000Y-60780000D03*
X127740000Y-92770000D03*
X127770000Y-96570000D03*
X129460000Y-83310000D03*
X132510000Y-92950000D03*
X132490000Y-87380000D03*
X150100000Y-61070000D03*
X150260000Y-56280000D03*
X155870000Y-62240000D03*
X165410000Y-61070000D03*
X160810000Y-54500000D03*
X160790000Y-56340000D03*
X163310000Y-51030000D03*
X167000000Y-54000000D03*
X168500000Y-57000000D03*
X142710000Y-82070000D03*
X126850000Y-86110000D03*
%TO.N,/ANALOG_VDD*%
X138785000Y-72215000D03*
%TO.N,/VSSA*%
X140427238Y-73289344D03*
%TO.N,Net-(C7-Pad1)*%
X142281000Y-74061200D03*
%TO.N,Net-(C8-Pad1)*%
X138000000Y-65000000D03*
%TO.N,Net-(C9-Pad1)*%
X143860000Y-74240000D03*
%TO.N,Net-(C10-Pad1)*%
X141920000Y-72340000D03*
%TO.N,VCC*%
X124651800Y-81392400D03*
X162250000Y-80750000D03*
X154510000Y-87830000D03*
X163769010Y-66919700D03*
%TO.N,A14*%
X151882000Y-75681500D03*
X153531900Y-84878500D03*
%TO.N,A13*%
X154416100Y-65008822D03*
%TO.N,A12*%
X163044000Y-69353800D03*
%TO.N,A11*%
X156980460Y-63374860D03*
%TO.N,A10*%
X157235016Y-56349988D03*
X154626510Y-63558810D03*
%TO.N,A3*%
X132840000Y-59283200D03*
X165446041Y-55743959D03*
X171120000Y-76670000D03*
%TO.N,A0*%
X125230000Y-95630000D03*
%TO.N,C11*%
X143974300Y-73214400D03*
X143003200Y-94552300D03*
%TO.N,C2*%
X128971300Y-85982900D03*
X129364400Y-93000000D03*
%TO.N,C1*%
X124320000Y-84790000D03*
X127760000Y-90430000D03*
%TO.N,B0*%
X139734100Y-65632900D03*
X142464500Y-61216100D03*
%TO.N,B1*%
X143375900Y-69321300D03*
X143595600Y-63062100D03*
%TO.N,B2*%
X146232200Y-69137100D03*
X143202900Y-61948300D03*
%TO.N,B4*%
X149822400Y-77794300D03*
X143144400Y-90147400D03*
%TO.N,B7*%
X147890400Y-78216700D03*
X139378300Y-92753100D03*
%TO.N,D2*%
X147804600Y-73781800D03*
X148761600Y-84105900D03*
%TO.N,Net-(J3-Pad3)*%
X164193000Y-73662900D03*
%TO.N,Net-(J3-Pad9)*%
X164909000Y-69541900D03*
%TD*%
D17*
%TO.N,GND*%
X146575000Y-77050300D02*
X145981000Y-76455800D01*
X145981000Y-76455800D02*
X144447000Y-76455800D01*
X148100000Y-82200000D02*
X147500000Y-82200000D01*
X147500000Y-82200000D02*
X147170000Y-81870500D01*
X147170000Y-81870500D02*
X147170000Y-81095500D01*
X147170000Y-81095500D02*
X146109000Y-80034200D01*
X146109000Y-80034200D02*
X146109000Y-78740700D01*
X146109000Y-78740700D02*
X145515000Y-78146300D01*
X145515000Y-78146300D02*
X145515000Y-78110900D01*
X162588000Y-72500000D02*
X162588000Y-70712500D01*
X162588000Y-70712500D02*
X161475000Y-69600000D01*
X143110000Y-66500000D02*
X143096000Y-66500000D01*
X143096000Y-66500000D02*
X142085000Y-65489100D01*
X137489000Y-70085300D02*
X137454000Y-70085300D01*
X137454000Y-70085300D02*
X136508000Y-69140000D01*
X136508000Y-69140000D02*
X135430000Y-69140000D01*
X135430000Y-69140000D02*
X134140000Y-67850000D01*
X145131938Y-66963836D02*
X145012800Y-66963836D01*
X146957201Y-68789099D02*
X145131938Y-66963836D01*
X146957201Y-69485101D02*
X146957201Y-68789099D01*
X146192302Y-70250000D02*
X146957201Y-69485101D01*
X144750000Y-70250000D02*
X146192302Y-70250000D01*
X143750000Y-80750000D02*
X143750000Y-79750000D01*
X145066203Y-82066203D02*
X143750000Y-80750000D01*
X143750000Y-76500000D02*
X144076464Y-76826464D01*
X144447000Y-76455800D02*
X144076464Y-76826464D01*
X141250000Y-79652928D02*
X141250000Y-79865000D01*
X142438428Y-78464500D02*
X141250000Y-79652928D01*
X142439000Y-78464500D02*
X142438428Y-78464500D01*
X144076464Y-76826464D02*
X142439000Y-78464500D01*
D18*
X123950000Y-53475000D02*
X126490000Y-53475000D01*
X126490000Y-53475000D02*
X126490000Y-58525000D01*
X123950000Y-53475000D02*
X123950000Y-58525000D01*
X125225000Y-56025000D02*
X125250000Y-56000000D01*
X125225000Y-58525000D02*
X125225000Y-56025000D01*
X126490000Y-58525000D02*
X125225000Y-58525000D01*
X125225000Y-58525000D02*
X123950000Y-58525000D01*
X165759001Y-66759001D02*
X165000000Y-66000000D01*
X165759001Y-74740999D02*
X165759001Y-66759001D01*
X165000000Y-75500000D02*
X165759001Y-74740999D01*
X162587500Y-72500000D02*
X162587500Y-75162500D01*
X161250000Y-76500000D02*
X155330000Y-76500000D01*
X162587500Y-75162500D02*
X161250000Y-76500000D01*
D17*
X149181446Y-71038554D02*
X149113764Y-71038554D01*
X152672801Y-67547199D02*
X149181446Y-71038554D01*
X152967001Y-67547199D02*
X152672801Y-67547199D01*
X153367000Y-67147200D02*
X152967001Y-67547199D01*
X160340000Y-62820000D02*
X160680000Y-62480000D01*
X160340000Y-64210000D02*
X160340000Y-62820000D01*
X141821500Y-55929500D02*
X141201000Y-56550000D01*
X141044998Y-56550000D02*
X140450000Y-57144998D01*
X141201000Y-56550000D02*
X141044998Y-56550000D01*
X140450000Y-60790000D02*
X139170000Y-62070000D01*
X140450000Y-57144998D02*
X140450000Y-60790000D01*
%TO.N,+3V3*%
X150464000Y-70438800D02*
X152323000Y-68579900D01*
X152323000Y-68579900D02*
X153348000Y-68579900D01*
X153348000Y-68579900D02*
X154050000Y-67878200D01*
X155684800Y-93977900D02*
X156039600Y-93623100D01*
X156039600Y-93623100D02*
X156970000Y-93623100D01*
X144993000Y-78632600D02*
X144993100Y-78632600D01*
X144993100Y-78632600D02*
X145161200Y-78464500D01*
X144993000Y-78632600D02*
X144825000Y-78800700D01*
X144825000Y-78800700D02*
X144825000Y-79400000D01*
X144825000Y-79400000D02*
X146720000Y-81295400D01*
X146720000Y-81295400D02*
X146720000Y-82602400D01*
X145161000Y-78464500D02*
X144993000Y-78632600D01*
X154430000Y-94574000D02*
X155026100Y-93977900D01*
X155026100Y-93977900D02*
X155684800Y-93977900D01*
X142439000Y-64813300D02*
X142438800Y-64813500D01*
X142438800Y-64813500D02*
X142438800Y-65135500D01*
X142439000Y-64813300D02*
X142439000Y-64491200D01*
X142439000Y-64491200D02*
X142700000Y-64230000D01*
X142700000Y-64230000D02*
X142700000Y-63740000D01*
X142700000Y-63740000D02*
X141660000Y-62700000D01*
X142439000Y-65135500D02*
X142439000Y-64813300D01*
X137326500Y-69215400D02*
X137842600Y-69731500D01*
X137842600Y-69731500D02*
X137842600Y-69731700D01*
X137326500Y-69215400D02*
X136810000Y-68699100D01*
X136810000Y-68699100D02*
X136810000Y-68090000D01*
X136810000Y-68090000D02*
X135380000Y-66660000D01*
X137843000Y-69731700D02*
X137326500Y-69215400D01*
X156970000Y-95525000D02*
X156970000Y-93623100D01*
X154430000Y-95525000D02*
X154430000Y-94574000D01*
D18*
X122000000Y-51000000D02*
X121000000Y-52000000D01*
X128380000Y-51000000D02*
X122000000Y-51000000D01*
X121000000Y-62760000D02*
X121050000Y-62810000D01*
X121000000Y-52000000D02*
X121000000Y-62760000D01*
X140250000Y-56000000D02*
X140250000Y-51649998D01*
X128000000Y-51380000D02*
X128380000Y-51000000D01*
X128000000Y-53000000D02*
X128000000Y-51380000D01*
X128475000Y-53475000D02*
X128000000Y-53000000D01*
X129030000Y-53475000D02*
X128475000Y-53475000D01*
D17*
X131570000Y-53475000D02*
X132745000Y-53475000D01*
X132745000Y-53475000D02*
X132820000Y-53550000D01*
X128700000Y-55990000D02*
X127900000Y-55990000D01*
X129030000Y-55660000D02*
X128700000Y-55990000D01*
X129030000Y-53475000D02*
X129030000Y-55660000D01*
X133750000Y-65030000D02*
X133300000Y-65030000D01*
X135380000Y-66660000D02*
X133750000Y-65030000D01*
D18*
X157650000Y-83170000D02*
X157770000Y-83290000D01*
X157650000Y-80870000D02*
X157650000Y-83170000D01*
X145672400Y-83650000D02*
X146720000Y-82602400D01*
X145080000Y-83650000D02*
X145672400Y-83650000D01*
X127740000Y-96540000D02*
X127770000Y-96570000D01*
X127740000Y-92770000D02*
X127740000Y-96540000D01*
X132520001Y-87410001D02*
X132490000Y-87380000D01*
X132520001Y-92939999D02*
X132520001Y-87410001D01*
X132510000Y-92950000D02*
X132520001Y-92939999D01*
D17*
X150100000Y-61070000D02*
X150490000Y-60680000D01*
X150490000Y-56510000D02*
X150260000Y-56280000D01*
X150490000Y-60680000D02*
X150490000Y-56510000D01*
X156620000Y-62240000D02*
X155870000Y-62240000D01*
X158080000Y-60780000D02*
X156620000Y-62240000D01*
X166530000Y-62190000D02*
X165410000Y-61070000D01*
X168610000Y-62190000D02*
X166530000Y-62190000D01*
X160810000Y-56320000D02*
X160790000Y-56340000D01*
X160810000Y-54500000D02*
X160810000Y-56320000D01*
X163030000Y-51310000D02*
X163310000Y-51030000D01*
X160760000Y-51310000D02*
X163030000Y-51310000D01*
D18*
X167000000Y-54000000D02*
X167000000Y-55500000D01*
X167000000Y-55500000D02*
X168500000Y-57000000D01*
X143500000Y-82070000D02*
X145080000Y-83650000D01*
X142710000Y-82070000D02*
X143500000Y-82070000D01*
X140250000Y-51180000D02*
X140250000Y-51649998D01*
X140440000Y-50990000D02*
X140250000Y-51180000D01*
X150590000Y-55950000D02*
X150590000Y-51170000D01*
X150260000Y-56280000D02*
X150590000Y-55950000D01*
X150410000Y-50990000D02*
X140440000Y-50990000D01*
X150590000Y-51170000D02*
X150410000Y-50990000D01*
X128630000Y-50750000D02*
X128380000Y-51000000D01*
X140040000Y-50750000D02*
X128630000Y-50750000D01*
X140250000Y-50960000D02*
X140040000Y-50750000D01*
X140250000Y-51649998D02*
X140250000Y-50960000D01*
X129460000Y-83310000D02*
X126850000Y-85920000D01*
X126850000Y-85920000D02*
X126850000Y-86110000D01*
D17*
%TO.N,/ANALOG_VDD*%
X138833000Y-73584900D02*
X138196200Y-74221700D01*
X138196200Y-74221700D02*
X138196200Y-74221800D01*
X138833000Y-73584900D02*
X138196000Y-74221800D01*
X138833000Y-73584900D02*
X138833000Y-72263000D01*
X138833000Y-72263000D02*
X138785000Y-72215000D01*
%TO.N,/VSSA*%
X138550000Y-74557700D02*
X138549700Y-74558000D01*
X138549700Y-74558000D02*
X138549700Y-74575400D01*
X138550000Y-74557700D02*
X138550000Y-74575400D01*
X138550000Y-74557700D02*
X139137700Y-73970000D01*
X139137700Y-73970000D02*
X139746582Y-73970000D01*
X139746582Y-73970000D02*
X140427238Y-73289344D01*
%TO.N,Net-(C7-Pad1)*%
X141299000Y-75361300D02*
X140317500Y-76342800D01*
X140317500Y-76342800D02*
X140317500Y-76343200D01*
X141299000Y-75361300D02*
X140317000Y-76343200D01*
X142281000Y-74061200D02*
X142281000Y-74379400D01*
X142281000Y-74379400D02*
X141299000Y-75361300D01*
%TO.N,Net-(C8-Pad1)*%
X140455500Y-64566300D02*
X141731700Y-65842500D01*
X141731700Y-65842500D02*
X141731700Y-65842600D01*
X141732000Y-65842600D02*
X140455500Y-64566300D01*
X138433700Y-64566300D02*
X138399999Y-64600001D01*
X140455500Y-64566300D02*
X138433700Y-64566300D01*
X138399999Y-64600001D02*
X138000000Y-65000000D01*
%TO.N,Net-(C9-Pad1)*%
X141024600Y-77050300D02*
X141025000Y-77050300D01*
X141025000Y-77050300D02*
X141050000Y-77050300D01*
X141050000Y-77050300D02*
X143860000Y-74240000D01*
%TO.N,Net-(C10-Pad1)*%
X140671100Y-76696700D02*
X140671000Y-76696700D01*
X141920000Y-72340000D02*
X143100000Y-73520000D01*
X143100000Y-73520000D02*
X143100000Y-74267800D01*
X143100000Y-74267800D02*
X140671100Y-76696700D01*
%TO.N,VCC*%
X154510000Y-90395000D02*
X154430000Y-90475000D01*
X154510000Y-87830000D02*
X154510000Y-90395000D01*
X124651800Y-64838200D02*
X124651800Y-81392400D01*
X129030000Y-60460000D02*
X124651800Y-64838200D01*
X129030000Y-58525000D02*
X129030000Y-60460000D01*
X163467999Y-79532001D02*
X162250000Y-80750000D01*
X163467999Y-70332001D02*
X163467999Y-79532001D01*
X163769010Y-70030990D02*
X163467999Y-70332001D01*
X163769010Y-66919700D02*
X163769010Y-70030990D01*
D18*
X154430000Y-90475000D02*
X156970000Y-90475000D01*
X162250000Y-82010000D02*
X162250000Y-80750000D01*
X156970000Y-87290000D02*
X162250000Y-82010000D01*
X156970000Y-90475000D02*
X156970000Y-87290000D01*
D17*
%TO.N,A15*%
X151094800Y-74498600D02*
X150110900Y-73514700D01*
X151464100Y-76358500D02*
X151094800Y-75989200D01*
X151464100Y-86085900D02*
X151464100Y-76358500D01*
X149350000Y-88200000D02*
X151464100Y-86085900D01*
X151094800Y-75989200D02*
X151094800Y-74498600D01*
X149350000Y-90475000D02*
X149350000Y-88200000D01*
%TO.N,A14*%
X150464500Y-73161200D02*
X151882000Y-74578700D01*
X151882000Y-74578700D02*
X151882000Y-75681500D01*
X153531900Y-84878500D02*
X153531900Y-92419500D01*
X153531900Y-92419500D02*
X151890000Y-94061400D01*
X151890000Y-94061400D02*
X151890000Y-95525000D01*
%TO.N,A13*%
X149757400Y-69731700D02*
X149757400Y-69702700D01*
X154416100Y-65044000D02*
X154416100Y-65008822D01*
X149757400Y-69702700D02*
X154416100Y-65044000D01*
X161761178Y-65008822D02*
X154416100Y-65008822D01*
X162050000Y-64720000D02*
X161761178Y-65008822D01*
X162050000Y-58525000D02*
X162050000Y-64720000D01*
%TO.N,A12*%
X163044000Y-65786000D02*
X163044000Y-68266000D01*
X163490000Y-65340000D02*
X163044000Y-65786000D01*
X163490000Y-54165000D02*
X163490000Y-65340000D01*
X162800000Y-53475000D02*
X163490000Y-54165000D01*
X162050000Y-53475000D02*
X162800000Y-53475000D01*
X163044000Y-68266000D02*
X163044000Y-69353800D01*
X148351600Y-71351300D02*
X148351600Y-70430400D01*
X163044000Y-69353800D02*
X162424400Y-68734200D01*
X148351600Y-70430400D02*
X149403800Y-69378200D01*
X154383400Y-68734200D02*
X151356411Y-71761189D01*
X149172400Y-71761189D02*
X149082589Y-71851000D01*
X151356411Y-71761189D02*
X149172400Y-71761189D01*
X149082589Y-71851000D02*
X148851300Y-71851000D01*
X162424400Y-68734200D02*
X154383400Y-68734200D01*
X148851300Y-71851000D02*
X148351600Y-71351300D01*
%TO.N,A11*%
X153791088Y-64283812D02*
X156071508Y-64283812D01*
X149050300Y-69024600D02*
X153791088Y-64283812D01*
X159510000Y-58525000D02*
X159510000Y-60845320D01*
X156071508Y-64283812D02*
X156980460Y-63374860D01*
X159510000Y-60845320D02*
X156980460Y-63374860D01*
%TO.N,A10*%
X158460012Y-56349988D02*
X157235016Y-56349988D01*
X159510000Y-55300000D02*
X158460012Y-56349988D01*
X159510000Y-53475000D02*
X159510000Y-55300000D01*
X154482109Y-63703211D02*
X154626510Y-63558810D01*
X148696700Y-68671100D02*
X153664589Y-63703211D01*
X153664589Y-63703211D02*
X154482109Y-63703211D01*
%TO.N,A9*%
X153407500Y-63253200D02*
X148343200Y-68317500D01*
X155770700Y-60890000D02*
X153407500Y-63253200D01*
X156670000Y-60890000D02*
X155770700Y-60890000D01*
X156970000Y-60590000D02*
X156670000Y-60890000D01*
X156970000Y-58525000D02*
X156970000Y-60590000D01*
%TO.N,A8*%
X152955600Y-62997900D02*
X147989600Y-67963900D01*
X155700000Y-60253500D02*
X152955600Y-62997900D01*
X155700000Y-56144000D02*
X155700000Y-60253500D01*
X156800000Y-55770000D02*
X156074000Y-55770000D01*
X156970000Y-55600000D02*
X156800000Y-55770000D01*
X156970000Y-53475000D02*
X156970000Y-55600000D01*
X156074000Y-55770000D02*
X155700000Y-56144000D01*
%TO.N,A7*%
X135436900Y-59738100D02*
X136650000Y-58525000D01*
X135436900Y-64782726D02*
X135436900Y-59738100D01*
X137564324Y-66625024D02*
X137279198Y-66625024D01*
X137279198Y-66625024D02*
X135436900Y-64782726D01*
X139256800Y-68317500D02*
X137564324Y-66625024D01*
%TO.N,A6*%
X134967600Y-64949837D02*
X137092798Y-67075035D01*
X134967600Y-57059300D02*
X134967600Y-64949837D01*
X136650000Y-53475000D02*
X136650000Y-55376900D01*
X137307235Y-67075035D02*
X138903300Y-68671100D01*
X136650000Y-55376900D02*
X134967600Y-57059300D01*
X137092798Y-67075035D02*
X137307235Y-67075035D01*
%TO.N,A5*%
X139295700Y-69770600D02*
X138549700Y-69024600D01*
X139295700Y-70529400D02*
X139295700Y-69770600D01*
X137963600Y-71861500D02*
X139295700Y-70529400D01*
X135701200Y-71861500D02*
X137963600Y-71861500D01*
X130020000Y-66180300D02*
X135701200Y-71861500D01*
X130660000Y-51440000D02*
X130020000Y-52080000D01*
X135240000Y-51790000D02*
X134890000Y-51440000D01*
X130020000Y-52080000D02*
X130020000Y-66180300D01*
X135240000Y-55493100D02*
X135240000Y-51790000D01*
X134890000Y-51440000D02*
X130660000Y-51440000D01*
X134110000Y-56623100D02*
X135240000Y-55493100D01*
X134110000Y-58525000D02*
X134110000Y-56623100D01*
%TO.N,A4*%
X130900000Y-55910000D02*
X133576900Y-55910000D01*
X135899700Y-71396600D02*
X130500000Y-65996900D01*
X130500000Y-65996900D02*
X130500000Y-56310000D01*
X137745500Y-71396600D02*
X135899700Y-71396600D01*
X134110000Y-55376900D02*
X134110000Y-53475000D01*
X130500000Y-56310000D02*
X130900000Y-55910000D01*
X138803800Y-70338300D02*
X137745500Y-71396600D01*
X138803800Y-69985800D02*
X138803800Y-70338300D01*
X133576900Y-55910000D02*
X134110000Y-55376900D01*
X138196200Y-69378200D02*
X138803800Y-69985800D01*
%TO.N,A3*%
X131570000Y-59283200D02*
X131570000Y-58525000D01*
X131570000Y-59283200D02*
X132840000Y-59283200D01*
X131570000Y-60740000D02*
X131570000Y-59283200D01*
X130980000Y-61330000D02*
X131570000Y-60740000D01*
X136042400Y-70850000D02*
X130980000Y-65787600D01*
X136724300Y-70850000D02*
X136042400Y-70850000D01*
X130980000Y-65787600D02*
X130980000Y-61330000D01*
X137135500Y-70438800D02*
X136724300Y-70850000D01*
X165902082Y-56200000D02*
X165446041Y-55743959D01*
X166510000Y-56200000D02*
X165902082Y-56200000D01*
X171120000Y-60810000D02*
X166510000Y-56200000D01*
X171120000Y-76670000D02*
X171120000Y-60810000D01*
%TO.N,A2*%
X170680000Y-86930000D02*
X169503100Y-86930000D01*
X123950000Y-95525000D02*
X123950000Y-97426900D01*
X123950000Y-97426900D02*
X152525400Y-97426900D01*
X152525400Y-97426900D02*
X153524000Y-96428300D01*
X153524000Y-96428300D02*
X153524000Y-93871900D01*
X153524000Y-93871900D02*
X154781200Y-92614700D01*
X154781200Y-92614700D02*
X163818400Y-92614700D01*
X163818400Y-92614700D02*
X169503100Y-86930000D01*
X123950000Y-94919300D02*
X123950000Y-95525000D01*
X123950000Y-93623100D02*
X123950000Y-94919300D01*
X122770000Y-92443100D02*
X123950000Y-93623100D01*
X122770000Y-87526700D02*
X122770000Y-92443100D01*
X137135500Y-73161200D02*
X122770000Y-87526700D01*
%TO.N,A1*%
X123950000Y-90475000D02*
X123950000Y-87053800D01*
X123950000Y-87053800D02*
X137489100Y-73514700D01*
%TO.N,A0*%
X125280000Y-86430900D02*
X137842600Y-73868300D01*
X125280000Y-92413100D02*
X125280000Y-86430900D01*
X126490000Y-93623100D02*
X125280000Y-92413100D01*
X126490000Y-95525000D02*
X126490000Y-93623100D01*
X126385000Y-95630000D02*
X126490000Y-95525000D01*
X125230000Y-95630000D02*
X126385000Y-95630000D01*
%TO.N,C15*%
X141378200Y-77403800D02*
X131570000Y-87212000D01*
X131570000Y-87212000D02*
X131570000Y-88573100D01*
X131570000Y-90475000D02*
X131570000Y-88573100D01*
%TO.N,C14*%
X134110000Y-93623100D02*
X133283100Y-92796200D01*
X133283100Y-92796200D02*
X133283100Y-86163000D01*
X133283100Y-86163000D02*
X141092300Y-78353800D01*
X141092300Y-78353800D02*
X141135300Y-78353800D01*
X141135300Y-78353800D02*
X141731700Y-77757400D01*
X134110000Y-95525000D02*
X134110000Y-93623100D01*
%TO.N,C13*%
X134110000Y-88573100D02*
X134110000Y-85976100D01*
X134110000Y-85976100D02*
X141183600Y-78902500D01*
X141183600Y-78902500D02*
X141293700Y-78902500D01*
X141293700Y-78902500D02*
X142085300Y-78110900D01*
X134110000Y-90475000D02*
X134110000Y-88573100D01*
%TO.N,C12*%
X148347900Y-93987100D02*
X146810000Y-95525000D01*
X148347900Y-88482100D02*
X148347900Y-93987100D01*
X151012200Y-85817800D02*
X148347900Y-88482100D01*
X151012200Y-76546900D02*
X151012200Y-85817800D01*
X149050300Y-74585000D02*
X151012200Y-76546900D01*
X149050300Y-74575400D02*
X149050300Y-74585000D01*
%TO.N,C11*%
X143974300Y-73214400D02*
X144185700Y-73003000D01*
X144185700Y-73003000D02*
X148185000Y-73003000D01*
X148185000Y-73003000D02*
X149403800Y-74221800D01*
X146810000Y-92376900D02*
X146810000Y-90475000D01*
X146083800Y-93103100D02*
X146810000Y-92376900D01*
X143386900Y-93103100D02*
X146083800Y-93103100D01*
X143003200Y-93486800D02*
X143386900Y-93103100D01*
X143003200Y-94552300D02*
X143003200Y-93486800D01*
%TO.N,C10*%
X148980000Y-73090900D02*
X149757400Y-73868300D01*
X149358800Y-72211200D02*
X148980000Y-72590000D01*
X150751200Y-72211200D02*
X149358800Y-72211200D01*
X149350000Y-93623100D02*
X151386600Y-93623100D01*
X151386600Y-93623100D02*
X152716900Y-92292800D01*
X148980000Y-72590000D02*
X148980000Y-73090900D01*
X152716900Y-92292800D02*
X152716900Y-74176900D01*
X152716900Y-74176900D02*
X150751200Y-72211200D01*
X149350000Y-95525000D02*
X149350000Y-93623100D01*
%TO.N,C9*%
X154430000Y-58525000D02*
X154430000Y-60465000D01*
X154430000Y-60465000D02*
X152503700Y-62391300D01*
X152503700Y-62391300D02*
X152503700Y-62742800D01*
X152503700Y-62742800D02*
X147636100Y-67610400D01*
%TO.N,C8*%
X152051800Y-62487500D02*
X147282500Y-67256800D01*
X152051800Y-61538200D02*
X152051800Y-62487500D01*
X153210000Y-60380000D02*
X152051800Y-61538200D01*
X153210000Y-56890000D02*
X153210000Y-60380000D01*
X154430000Y-55670000D02*
X153210000Y-56890000D01*
X154430000Y-53475000D02*
X154430000Y-55670000D01*
%TO.N,C7*%
X151890000Y-58525000D02*
X151890000Y-60426900D01*
X151890000Y-60426900D02*
X151599900Y-60717000D01*
X151599900Y-60717000D02*
X151599900Y-62232300D01*
X151599900Y-62232300D02*
X146928900Y-66903300D01*
%TO.N,C6*%
X151890000Y-55463188D02*
X151063100Y-56290088D01*
X151063100Y-62062000D02*
X146575400Y-66549700D01*
X151063100Y-56290088D02*
X151063100Y-62062000D01*
X151890000Y-53475000D02*
X151890000Y-55463188D01*
%TO.N,C5*%
X139190000Y-60426900D02*
X137274998Y-62341902D01*
X137274998Y-62341902D02*
X137274998Y-65348002D01*
X138078502Y-65725002D02*
X139963900Y-67610400D01*
X137274998Y-65348002D02*
X137651998Y-65725002D01*
X139190000Y-58525000D02*
X139190000Y-60426900D01*
X137651998Y-65725002D02*
X138078502Y-65725002D01*
%TO.N,C4*%
X137465598Y-66175013D02*
X135907700Y-64617115D01*
X138440000Y-53475000D02*
X139190000Y-53475000D01*
X138003300Y-60655200D02*
X138003300Y-53911700D01*
X139610400Y-67963900D02*
X137821513Y-66175013D01*
X135907700Y-62750800D02*
X138003300Y-60655200D01*
X138003300Y-53911700D02*
X138440000Y-53475000D01*
X135907700Y-64617115D02*
X135907700Y-62750800D01*
X137821513Y-66175013D02*
X137465598Y-66175013D01*
%TO.N,C3*%
X127635002Y-86197198D02*
X138903300Y-74928900D01*
X126490000Y-90475000D02*
X127635002Y-89329998D01*
X127635002Y-89329998D02*
X127635002Y-86197198D01*
%TO.N,C2*%
X128971300Y-85982900D02*
X128971300Y-85568000D01*
X128971300Y-85568000D02*
X139256800Y-75282500D01*
X129030000Y-95525000D02*
X129030000Y-93334400D01*
X129030000Y-93334400D02*
X129364400Y-93000000D01*
%TO.N,C1*%
X129030000Y-90475000D02*
X129030000Y-88573100D01*
X129030000Y-88573100D02*
X129698200Y-87904900D01*
X129698200Y-87904900D02*
X129698200Y-85548300D01*
X129698200Y-85548300D02*
X139610400Y-75636100D01*
X128985000Y-90430000D02*
X129030000Y-90475000D01*
X127760000Y-90430000D02*
X128985000Y-90430000D01*
X124320000Y-82860000D02*
X124320000Y-84790000D01*
X120450000Y-78990000D02*
X124320000Y-82860000D01*
X115410000Y-78990000D02*
X120450000Y-78990000D01*
%TO.N,C0*%
X131570000Y-93623100D02*
X130743000Y-92796100D01*
X130743000Y-92796100D02*
X130743000Y-85210500D01*
X130743000Y-85210500D02*
X139963900Y-75989600D01*
X131570000Y-95525000D02*
X131570000Y-93623100D01*
%TO.N,B0*%
X139734100Y-65632900D02*
X139672400Y-65694600D01*
X139672400Y-65694600D02*
X139672400Y-66611700D01*
X139672400Y-66611700D02*
X140317500Y-67256800D01*
X141730000Y-53475000D02*
X142556900Y-54301900D01*
X142556900Y-54301900D02*
X142556900Y-61123700D01*
X142556900Y-61123700D02*
X142464500Y-61216100D01*
%TO.N,B1*%
X141730000Y-58525000D02*
X141730000Y-61509500D01*
X141730000Y-61509500D02*
X143282600Y-63062100D01*
X143282600Y-63062100D02*
X143595600Y-63062100D01*
X143375900Y-69321300D02*
X143089100Y-69321300D01*
X143089100Y-69321300D02*
X140671100Y-66903300D01*
%TO.N,B2*%
X141024600Y-66549700D02*
X142504500Y-68029600D01*
X142504500Y-68029600D02*
X145124700Y-68029600D01*
X145124700Y-68029600D02*
X146232200Y-69137100D01*
X144270000Y-53475000D02*
X144270000Y-55376900D01*
X144270000Y-55376900D02*
X143202900Y-56444000D01*
X143202900Y-56444000D02*
X143202900Y-61948300D01*
%TO.N,B3*%
X147446900Y-93623100D02*
X144270000Y-93623100D01*
X147896000Y-93174000D02*
X147446900Y-93623100D01*
X147896000Y-88214000D02*
X147896000Y-93174000D01*
X150550700Y-85559300D02*
X147896000Y-88214000D01*
X150550700Y-77490000D02*
X150550700Y-85559300D01*
X144270000Y-93623100D02*
X144270000Y-95525000D01*
X148343200Y-75282500D02*
X150550700Y-77490000D01*
%TO.N,B4*%
X147989600Y-75636100D02*
X149822400Y-77468900D01*
X149822400Y-77468900D02*
X149822400Y-77794300D01*
X141730000Y-90475000D02*
X142816800Y-90475000D01*
X142816800Y-90475000D02*
X143144400Y-90147400D01*
%TO.N,B5*%
X141730000Y-93010000D02*
X141730000Y-95525000D01*
X145168800Y-92651200D02*
X142088800Y-92651200D01*
X145580000Y-92240000D02*
X145168800Y-92651200D01*
X145580000Y-88315500D02*
X145580000Y-92240000D01*
X142088800Y-92651200D02*
X141730000Y-93010000D01*
X149783300Y-84112200D02*
X145580000Y-88315500D01*
X149783300Y-78783100D02*
X149783300Y-84112200D01*
X149095500Y-78095300D02*
X149783300Y-78783100D01*
X149095500Y-77449000D02*
X149095500Y-78095300D01*
X147636100Y-75989600D02*
X149095500Y-77449000D01*
%TO.N,B6*%
X147282500Y-76343200D02*
X148643600Y-77704300D01*
X148643600Y-77704300D02*
X148643600Y-78282500D01*
X148643600Y-78282500D02*
X149319100Y-78958000D01*
X149319100Y-78958000D02*
X149319100Y-82674100D01*
X149319100Y-82674100D02*
X148614200Y-83379000D01*
X148614200Y-83379000D02*
X148460600Y-83379000D01*
X148460600Y-83379000D02*
X143266500Y-88573100D01*
X143266500Y-88573100D02*
X139190000Y-88573100D01*
X139190000Y-90475000D02*
X139190000Y-88573100D01*
%TO.N,B7*%
X146928900Y-76696700D02*
X147890400Y-77658200D01*
X147890400Y-77658200D02*
X147890400Y-78216700D01*
X139190000Y-95525000D02*
X139190000Y-93623100D01*
X139190000Y-93623100D02*
X139378300Y-93434800D01*
X139378300Y-93434800D02*
X139378300Y-92753100D01*
%TO.N,B8*%
X138626800Y-84863200D02*
X136650000Y-86840000D01*
X146337300Y-84863200D02*
X138626800Y-84863200D01*
X148273400Y-82927100D02*
X146337300Y-84863200D01*
X148417300Y-82927100D02*
X148273400Y-82927100D01*
X148859600Y-82484800D02*
X148417300Y-82927100D01*
X136650000Y-86840000D02*
X136650000Y-90475000D01*
X148859600Y-80995800D02*
X148859600Y-82484800D01*
X146946300Y-79082500D02*
X148859600Y-80995800D01*
X146946300Y-78128300D02*
X146946300Y-79082500D01*
X146221800Y-77403800D02*
X146946300Y-78128300D01*
%TO.N,B9*%
X145868300Y-77757400D02*
X145230100Y-77119200D01*
X145230100Y-77119200D02*
X144942500Y-77119200D01*
X144942500Y-77119200D02*
X142400000Y-79661700D01*
X142400000Y-79661700D02*
X142400000Y-80195700D01*
X142400000Y-80195700D02*
X135820900Y-86774800D01*
X135820900Y-86774800D02*
X135820900Y-92794000D01*
X135820900Y-92794000D02*
X136650000Y-93623100D01*
X136650000Y-95525000D02*
X136650000Y-93623100D01*
%TO.N,B10*%
X144345800Y-60502700D02*
X144270000Y-60426900D01*
X144345800Y-64557400D02*
X144345800Y-60502700D01*
X144211200Y-64692000D02*
X144345800Y-64557400D01*
X144270000Y-60426900D02*
X144270000Y-58525000D01*
X143825600Y-67244400D02*
X144211200Y-66858800D01*
X142426400Y-67244400D02*
X143825600Y-67244400D01*
X144211200Y-66858800D02*
X144211200Y-64692000D01*
X141378200Y-66196200D02*
X142426400Y-67244400D01*
%TO.N,B12*%
X145690000Y-64606700D02*
X145161200Y-65135500D01*
X145690000Y-56690000D02*
X145690000Y-64606700D01*
X146810000Y-55570000D02*
X145690000Y-56690000D01*
X146810000Y-53475000D02*
X146810000Y-55570000D01*
%TO.N,B13*%
X146810000Y-58525000D02*
X146810000Y-64193800D01*
X146810000Y-64193800D02*
X145514700Y-65489100D01*
%TO.N,B14*%
X149350000Y-53475000D02*
X149350000Y-55376900D01*
X149350000Y-55376900D02*
X148523100Y-56203800D01*
X148523100Y-56203800D02*
X148523100Y-63187800D01*
X148523100Y-63187800D02*
X145868300Y-65842600D01*
%TO.N,B15*%
X149350000Y-58525000D02*
X149350000Y-60426900D01*
X149350000Y-60426900D02*
X149350000Y-63068000D01*
X149350000Y-63068000D02*
X146221800Y-66196200D01*
%TO.N,D2*%
X148696700Y-74928900D02*
X147804600Y-74036800D01*
X147804600Y-74036800D02*
X147804600Y-73781800D01*
X144270000Y-90475000D02*
X144270000Y-88573100D01*
X144270000Y-88573100D02*
X144294400Y-88573100D01*
X144294400Y-88573100D02*
X148761600Y-84105900D01*
%TO.N,Net-(J3-Pad3)*%
X164412000Y-72971900D02*
X164412500Y-72971400D01*
X164412500Y-72971400D02*
X164412500Y-72500000D01*
X164412000Y-72971900D02*
X164412000Y-73443900D01*
X164412000Y-73443900D02*
X164193000Y-73662900D01*
X164412000Y-72500000D02*
X164412000Y-72971900D01*
%TO.N,Net-(J3-Pad9)*%
X164412000Y-70469100D02*
X164412500Y-70469600D01*
X164412500Y-70469600D02*
X164412500Y-70900000D01*
X164412000Y-70469100D02*
X164412000Y-70038200D01*
X164412000Y-70038200D02*
X164909000Y-69541900D01*
X164412000Y-70900000D02*
X164412000Y-70469100D01*
%TD*%
D19*
%TO.N,GND*%
X120404956Y-51343466D02*
X120371183Y-51371183D01*
X120260589Y-51505942D01*
X120178411Y-51659688D01*
X120150206Y-51752667D01*
X120127805Y-51826510D01*
X120127245Y-51832195D01*
X120115000Y-51956524D01*
X120115000Y-51956531D01*
X120110719Y-52000000D01*
X120115000Y-52043469D01*
X120115001Y-62362702D01*
X120054774Y-62508102D01*
X120015000Y-62708061D01*
X120015000Y-62911939D01*
X120054774Y-63111898D01*
X120132795Y-63300256D01*
X120246063Y-63469774D01*
X120390226Y-63613937D01*
X120559744Y-63727205D01*
X120748102Y-63805226D01*
X120948061Y-63845000D01*
X121151939Y-63845000D01*
X121351898Y-63805226D01*
X121540256Y-63727205D01*
X121709774Y-63613937D01*
X121853937Y-63469774D01*
X121967205Y-63300256D01*
X122045226Y-63111898D01*
X122085000Y-62911939D01*
X122085000Y-62708061D01*
X122045226Y-62508102D01*
X121967205Y-62319744D01*
X121885000Y-62196715D01*
X121885000Y-60100000D01*
X122811928Y-60100000D01*
X122824188Y-60224482D01*
X122860498Y-60344180D01*
X122919463Y-60454494D01*
X122998815Y-60551185D01*
X123095506Y-60630537D01*
X123205820Y-60689502D01*
X123325518Y-60725812D01*
X123450000Y-60738072D01*
X123664250Y-60735000D01*
X123823000Y-60576250D01*
X123823000Y-58652000D01*
X124077000Y-58652000D01*
X124077000Y-60576250D01*
X124235750Y-60735000D01*
X124450000Y-60738072D01*
X124574482Y-60725812D01*
X124694180Y-60689502D01*
X124804494Y-60630537D01*
X124901185Y-60551185D01*
X124980537Y-60454494D01*
X125039502Y-60344180D01*
X125075812Y-60224482D01*
X125088072Y-60100000D01*
X125351928Y-60100000D01*
X125364188Y-60224482D01*
X125400498Y-60344180D01*
X125459463Y-60454494D01*
X125538815Y-60551185D01*
X125635506Y-60630537D01*
X125745820Y-60689502D01*
X125865518Y-60725812D01*
X125990000Y-60738072D01*
X126204250Y-60735000D01*
X126363000Y-60576250D01*
X126363000Y-58652000D01*
X126617000Y-58652000D01*
X126617000Y-60576250D01*
X126775750Y-60735000D01*
X126990000Y-60738072D01*
X127114482Y-60725812D01*
X127234180Y-60689502D01*
X127344494Y-60630537D01*
X127441185Y-60551185D01*
X127520537Y-60454494D01*
X127579502Y-60344180D01*
X127615812Y-60224482D01*
X127628072Y-60100000D01*
X127625000Y-58810750D01*
X127466250Y-58652000D01*
X126617000Y-58652000D01*
X126363000Y-58652000D01*
X125513750Y-58652000D01*
X125355000Y-58810750D01*
X125351928Y-60100000D01*
X125088072Y-60100000D01*
X125085000Y-58810750D01*
X124926250Y-58652000D01*
X124077000Y-58652000D01*
X123823000Y-58652000D01*
X122973750Y-58652000D01*
X122815000Y-58810750D01*
X122811928Y-60100000D01*
X121885000Y-60100000D01*
X121885000Y-56950000D01*
X122811928Y-56950000D01*
X122815000Y-58239250D01*
X122973750Y-58398000D01*
X123823000Y-58398000D01*
X123823000Y-56473750D01*
X124077000Y-56473750D01*
X124077000Y-58398000D01*
X124926250Y-58398000D01*
X125085000Y-58239250D01*
X125088072Y-56950000D01*
X125351928Y-56950000D01*
X125355000Y-58239250D01*
X125513750Y-58398000D01*
X126363000Y-58398000D01*
X126363000Y-56473750D01*
X126204250Y-56315000D01*
X125990000Y-56311928D01*
X125865518Y-56324188D01*
X125745820Y-56360498D01*
X125635506Y-56419463D01*
X125538815Y-56498815D01*
X125459463Y-56595506D01*
X125400498Y-56705820D01*
X125364188Y-56825518D01*
X125351928Y-56950000D01*
X125088072Y-56950000D01*
X125075812Y-56825518D01*
X125039502Y-56705820D01*
X124980537Y-56595506D01*
X124901185Y-56498815D01*
X124804494Y-56419463D01*
X124694180Y-56360498D01*
X124574482Y-56324188D01*
X124450000Y-56311928D01*
X124235750Y-56315000D01*
X124077000Y-56473750D01*
X123823000Y-56473750D01*
X123664250Y-56315000D01*
X123450000Y-56311928D01*
X123325518Y-56324188D01*
X123205820Y-56360498D01*
X123095506Y-56419463D01*
X122998815Y-56498815D01*
X122919463Y-56595506D01*
X122860498Y-56705820D01*
X122824188Y-56825518D01*
X122811928Y-56950000D01*
X121885000Y-56950000D01*
X121885000Y-55050000D01*
X122811928Y-55050000D01*
X122824188Y-55174482D01*
X122860498Y-55294180D01*
X122919463Y-55404494D01*
X122998815Y-55501185D01*
X123095506Y-55580537D01*
X123205820Y-55639502D01*
X123325518Y-55675812D01*
X123450000Y-55688072D01*
X123664250Y-55685000D01*
X123823000Y-55526250D01*
X123823000Y-53602000D01*
X124077000Y-53602000D01*
X124077000Y-55526250D01*
X124235750Y-55685000D01*
X124450000Y-55688072D01*
X124574482Y-55675812D01*
X124694180Y-55639502D01*
X124804494Y-55580537D01*
X124901185Y-55501185D01*
X124980537Y-55404494D01*
X125039502Y-55294180D01*
X125075812Y-55174482D01*
X125088072Y-55050000D01*
X125351928Y-55050000D01*
X125364188Y-55174482D01*
X125400498Y-55294180D01*
X125459463Y-55404494D01*
X125538815Y-55501185D01*
X125635506Y-55580537D01*
X125745820Y-55639502D01*
X125865518Y-55675812D01*
X125990000Y-55688072D01*
X126204250Y-55685000D01*
X126363000Y-55526250D01*
X126363000Y-53602000D01*
X125513750Y-53602000D01*
X125355000Y-53760750D01*
X125351928Y-55050000D01*
X125088072Y-55050000D01*
X125085000Y-53760750D01*
X124926250Y-53602000D01*
X124077000Y-53602000D01*
X123823000Y-53602000D01*
X122973750Y-53602000D01*
X122815000Y-53760750D01*
X122811928Y-55050000D01*
X121885000Y-55050000D01*
X121885000Y-52366578D01*
X122366579Y-51885000D01*
X122813405Y-51885000D01*
X122811928Y-51900000D01*
X122815000Y-53189250D01*
X122973750Y-53348000D01*
X123823000Y-53348000D01*
X123823000Y-53328000D01*
X124077000Y-53328000D01*
X124077000Y-53348000D01*
X124926250Y-53348000D01*
X125085000Y-53189250D01*
X125088072Y-51900000D01*
X125086595Y-51885000D01*
X125353405Y-51885000D01*
X125351928Y-51900000D01*
X125355000Y-53189250D01*
X125513750Y-53348000D01*
X126363000Y-53348000D01*
X126363000Y-53328000D01*
X126617000Y-53328000D01*
X126617000Y-53348000D01*
X126637000Y-53348000D01*
X126637000Y-53602000D01*
X126617000Y-53602000D01*
X126617000Y-55526250D01*
X126775750Y-55685000D01*
X126905290Y-55686857D01*
X126904774Y-55688102D01*
X126865000Y-55888061D01*
X126865000Y-56091939D01*
X126904774Y-56291898D01*
X126913525Y-56313025D01*
X126775750Y-56315000D01*
X126617000Y-56473750D01*
X126617000Y-58398000D01*
X127466250Y-58398000D01*
X127625000Y-58239250D01*
X127627974Y-56991168D01*
X127798061Y-57025000D01*
X127891928Y-57025000D01*
X127891928Y-60100000D01*
X127904188Y-60224482D01*
X127940498Y-60344180D01*
X127985962Y-60429236D01*
X124140803Y-64274396D01*
X124111799Y-64298199D01*
X124075442Y-64342501D01*
X124016826Y-64413924D01*
X123959457Y-64521253D01*
X123946254Y-64545954D01*
X123902797Y-64689215D01*
X123891800Y-64800868D01*
X123891800Y-64800878D01*
X123888124Y-64838200D01*
X123891800Y-64875522D01*
X123891801Y-80688688D01*
X123847863Y-80732626D01*
X123734595Y-80902144D01*
X123656574Y-81090502D01*
X123651386Y-81116584D01*
X121013804Y-78479003D01*
X120990001Y-78449999D01*
X120874276Y-78355026D01*
X120742247Y-78284454D01*
X120598986Y-78240997D01*
X120487333Y-78230000D01*
X120487322Y-78230000D01*
X120450000Y-78226324D01*
X120412678Y-78230000D01*
X116688178Y-78230000D01*
X116563475Y-78043368D01*
X116431620Y-77911513D01*
X116504180Y-77889502D01*
X116614494Y-77830537D01*
X116711185Y-77751185D01*
X116790537Y-77654494D01*
X116849502Y-77544180D01*
X116885812Y-77424482D01*
X116898072Y-77300000D01*
X116895000Y-76735750D01*
X116736250Y-76577000D01*
X115537000Y-76577000D01*
X115537000Y-76597000D01*
X115283000Y-76597000D01*
X115283000Y-76577000D01*
X114083750Y-76577000D01*
X113925000Y-76735750D01*
X113921928Y-77300000D01*
X113934188Y-77424482D01*
X113970498Y-77544180D01*
X114029463Y-77654494D01*
X114108815Y-77751185D01*
X114205506Y-77830537D01*
X114315820Y-77889502D01*
X114388380Y-77911513D01*
X114256525Y-78043368D01*
X114094010Y-78286589D01*
X113982068Y-78556842D01*
X113925000Y-78843740D01*
X113925000Y-79136260D01*
X113982068Y-79423158D01*
X114094010Y-79693411D01*
X114256525Y-79936632D01*
X114463368Y-80143475D01*
X114706589Y-80305990D01*
X114976842Y-80417932D01*
X115263740Y-80475000D01*
X115556260Y-80475000D01*
X115843158Y-80417932D01*
X116113411Y-80305990D01*
X116356632Y-80143475D01*
X116563475Y-79936632D01*
X116688178Y-79750000D01*
X120135199Y-79750000D01*
X123560000Y-83174803D01*
X123560001Y-84086288D01*
X123516063Y-84130226D01*
X123402795Y-84299744D01*
X123324774Y-84488102D01*
X123285000Y-84688061D01*
X123285000Y-84891939D01*
X123324774Y-85091898D01*
X123402795Y-85280256D01*
X123516063Y-85449774D01*
X123644094Y-85577805D01*
X122259003Y-86962896D01*
X122229999Y-86986699D01*
X122174931Y-87053800D01*
X122135026Y-87102424D01*
X122076456Y-87212000D01*
X122064454Y-87234454D01*
X122020997Y-87377715D01*
X122010000Y-87489368D01*
X122010000Y-87489378D01*
X122006324Y-87526700D01*
X122010000Y-87564023D01*
X122010001Y-92405768D01*
X122006324Y-92443100D01*
X122010001Y-92480433D01*
X122020998Y-92592086D01*
X122024647Y-92604114D01*
X122064454Y-92735346D01*
X122135026Y-92867376D01*
X122206201Y-92954102D01*
X122230000Y-92983101D01*
X122258998Y-93006899D01*
X122894432Y-93642334D01*
X122860498Y-93705820D01*
X122824188Y-93825518D01*
X122811928Y-93950000D01*
X122811928Y-97100000D01*
X122824188Y-97224482D01*
X122860498Y-97344180D01*
X122919463Y-97454494D01*
X122998815Y-97551185D01*
X123095506Y-97630537D01*
X123205820Y-97689502D01*
X123238465Y-97699405D01*
X123244454Y-97719147D01*
X123315026Y-97851176D01*
X123409999Y-97966901D01*
X123525724Y-98061874D01*
X123657753Y-98132446D01*
X123801014Y-98175903D01*
X123912667Y-98186900D01*
X123950000Y-98190577D01*
X123987333Y-98186900D01*
X152488078Y-98186900D01*
X152525400Y-98190576D01*
X152562722Y-98186900D01*
X152562733Y-98186900D01*
X152674386Y-98175903D01*
X152817647Y-98132446D01*
X152949676Y-98061874D01*
X153065401Y-97966901D01*
X153089204Y-97937898D01*
X153477508Y-97549593D01*
X153478815Y-97551185D01*
X153575506Y-97630537D01*
X153685820Y-97689502D01*
X153805518Y-97725812D01*
X153930000Y-97738072D01*
X154930000Y-97738072D01*
X155054482Y-97725812D01*
X155174180Y-97689502D01*
X155284494Y-97630537D01*
X155381185Y-97551185D01*
X155460537Y-97454494D01*
X155519502Y-97344180D01*
X155555812Y-97224482D01*
X155568072Y-97100000D01*
X155568072Y-95009958D01*
X155582861Y-95012900D01*
X155786739Y-95012900D01*
X155831928Y-95003911D01*
X155831928Y-97100000D01*
X155844188Y-97224482D01*
X155880498Y-97344180D01*
X155939463Y-97454494D01*
X156018815Y-97551185D01*
X156115506Y-97630537D01*
X156225820Y-97689502D01*
X156345518Y-97725812D01*
X156470000Y-97738072D01*
X157470000Y-97738072D01*
X157594482Y-97725812D01*
X157714180Y-97689502D01*
X157824494Y-97630537D01*
X157921185Y-97551185D01*
X158000537Y-97454494D01*
X158059502Y-97344180D01*
X158095812Y-97224482D01*
X158108072Y-97100000D01*
X158371928Y-97100000D01*
X158384188Y-97224482D01*
X158420498Y-97344180D01*
X158479463Y-97454494D01*
X158558815Y-97551185D01*
X158655506Y-97630537D01*
X158765820Y-97689502D01*
X158885518Y-97725812D01*
X159010000Y-97738072D01*
X159224250Y-97735000D01*
X159383000Y-97576250D01*
X159383000Y-95652000D01*
X159637000Y-95652000D01*
X159637000Y-97576250D01*
X159795750Y-97735000D01*
X160010000Y-97738072D01*
X160134482Y-97725812D01*
X160254180Y-97689502D01*
X160364494Y-97630537D01*
X160461185Y-97551185D01*
X160540537Y-97454494D01*
X160599502Y-97344180D01*
X160635812Y-97224482D01*
X160648072Y-97100000D01*
X160911928Y-97100000D01*
X160924188Y-97224482D01*
X160960498Y-97344180D01*
X161019463Y-97454494D01*
X161098815Y-97551185D01*
X161195506Y-97630537D01*
X161305820Y-97689502D01*
X161425518Y-97725812D01*
X161550000Y-97738072D01*
X161764250Y-97735000D01*
X161923000Y-97576250D01*
X161923000Y-95652000D01*
X162177000Y-95652000D01*
X162177000Y-97576250D01*
X162335750Y-97735000D01*
X162550000Y-97738072D01*
X162674482Y-97725812D01*
X162794180Y-97689502D01*
X162904494Y-97630537D01*
X163001185Y-97551185D01*
X163080537Y-97454494D01*
X163139502Y-97344180D01*
X163175812Y-97224482D01*
X163188072Y-97100000D01*
X163185000Y-95810750D01*
X163026250Y-95652000D01*
X162177000Y-95652000D01*
X161923000Y-95652000D01*
X161073750Y-95652000D01*
X160915000Y-95810750D01*
X160911928Y-97100000D01*
X160648072Y-97100000D01*
X160645000Y-95810750D01*
X160486250Y-95652000D01*
X159637000Y-95652000D01*
X159383000Y-95652000D01*
X158533750Y-95652000D01*
X158375000Y-95810750D01*
X158371928Y-97100000D01*
X158108072Y-97100000D01*
X158108072Y-93950000D01*
X158095812Y-93825518D01*
X158059502Y-93705820D01*
X158000537Y-93595506D01*
X157921185Y-93498815D01*
X157824494Y-93419463D01*
X157740750Y-93374700D01*
X158739250Y-93374700D01*
X158655506Y-93419463D01*
X158558815Y-93498815D01*
X158479463Y-93595506D01*
X158420498Y-93705820D01*
X158384188Y-93825518D01*
X158371928Y-93950000D01*
X158375000Y-95239250D01*
X158533750Y-95398000D01*
X159383000Y-95398000D01*
X159383000Y-95378000D01*
X159637000Y-95378000D01*
X159637000Y-95398000D01*
X160486250Y-95398000D01*
X160645000Y-95239250D01*
X160648072Y-93950000D01*
X160635812Y-93825518D01*
X160599502Y-93705820D01*
X160540537Y-93595506D01*
X160461185Y-93498815D01*
X160364494Y-93419463D01*
X160280750Y-93374700D01*
X161279250Y-93374700D01*
X161195506Y-93419463D01*
X161098815Y-93498815D01*
X161019463Y-93595506D01*
X160960498Y-93705820D01*
X160924188Y-93825518D01*
X160911928Y-93950000D01*
X160915000Y-95239250D01*
X161073750Y-95398000D01*
X161923000Y-95398000D01*
X161923000Y-95378000D01*
X162177000Y-95378000D01*
X162177000Y-95398000D01*
X163026250Y-95398000D01*
X163185000Y-95239250D01*
X163185590Y-94991484D01*
X167548390Y-94991484D01*
X167613051Y-95665023D01*
X167807870Y-96313006D01*
X168125361Y-96910530D01*
X168134823Y-96924692D01*
X168583519Y-97236876D01*
X170820395Y-95000000D01*
X168583519Y-92763124D01*
X168134823Y-93075308D01*
X167814388Y-93671259D01*
X167616374Y-94318273D01*
X167548390Y-94991484D01*
X163185590Y-94991484D01*
X163188072Y-93950000D01*
X163175812Y-93825518D01*
X163139502Y-93705820D01*
X163080537Y-93595506D01*
X163001185Y-93498815D01*
X162904494Y-93419463D01*
X162820750Y-93374700D01*
X163781078Y-93374700D01*
X163818400Y-93378376D01*
X163855722Y-93374700D01*
X163855733Y-93374700D01*
X163967386Y-93363703D01*
X164110647Y-93320246D01*
X164242676Y-93249674D01*
X164358401Y-93154701D01*
X164382204Y-93125697D01*
X164924382Y-92583519D01*
X168763124Y-92583519D01*
X171000000Y-94820395D01*
X173236876Y-92583519D01*
X172924692Y-92134823D01*
X172328741Y-91814388D01*
X171681727Y-91616374D01*
X171008516Y-91548390D01*
X170334977Y-91613051D01*
X169686994Y-91807870D01*
X169089470Y-92125361D01*
X169075308Y-92134823D01*
X168763124Y-92583519D01*
X164924382Y-92583519D01*
X169578897Y-87929004D01*
X169733368Y-88083475D01*
X169976589Y-88245990D01*
X170246842Y-88357932D01*
X170533740Y-88415000D01*
X170826260Y-88415000D01*
X171113158Y-88357932D01*
X171383411Y-88245990D01*
X171626632Y-88083475D01*
X171833475Y-87876632D01*
X171995990Y-87633411D01*
X172107932Y-87363158D01*
X172165000Y-87076260D01*
X172165000Y-86783740D01*
X172107932Y-86496842D01*
X171995990Y-86226589D01*
X171833475Y-85983368D01*
X171626632Y-85776525D01*
X171452240Y-85660000D01*
X171626632Y-85543475D01*
X171833475Y-85336632D01*
X171995990Y-85093411D01*
X172107932Y-84823158D01*
X172165000Y-84536260D01*
X172165000Y-84243740D01*
X172107932Y-83956842D01*
X171995990Y-83686589D01*
X171833475Y-83443368D01*
X171701620Y-83311513D01*
X171774180Y-83289502D01*
X171884494Y-83230537D01*
X171981185Y-83151185D01*
X172060537Y-83054494D01*
X172119502Y-82944180D01*
X172155812Y-82824482D01*
X172168072Y-82700000D01*
X172165000Y-82135750D01*
X172006250Y-81977000D01*
X170807000Y-81977000D01*
X170807000Y-81997000D01*
X170553000Y-81997000D01*
X170553000Y-81977000D01*
X169353750Y-81977000D01*
X169195000Y-82135750D01*
X169191928Y-82700000D01*
X169204188Y-82824482D01*
X169240498Y-82944180D01*
X169299463Y-83054494D01*
X169378815Y-83151185D01*
X169475506Y-83230537D01*
X169585820Y-83289502D01*
X169658380Y-83311513D01*
X169526525Y-83443368D01*
X169364010Y-83686589D01*
X169252068Y-83956842D01*
X169195000Y-84243740D01*
X169195000Y-84536260D01*
X169252068Y-84823158D01*
X169364010Y-85093411D01*
X169526525Y-85336632D01*
X169733368Y-85543475D01*
X169907760Y-85660000D01*
X169733368Y-85776525D01*
X169526525Y-85983368D01*
X169397317Y-86176742D01*
X169354114Y-86180997D01*
X169210853Y-86224454D01*
X169078824Y-86295026D01*
X168963099Y-86389999D01*
X168939301Y-86418997D01*
X163503599Y-91854700D01*
X163187607Y-91854700D01*
X163185000Y-90760750D01*
X163026250Y-90602000D01*
X162177000Y-90602000D01*
X162177000Y-90622000D01*
X161923000Y-90622000D01*
X161923000Y-90602000D01*
X161073750Y-90602000D01*
X160915000Y-90760750D01*
X160912393Y-91854700D01*
X160647607Y-91854700D01*
X160645000Y-90760750D01*
X160486250Y-90602000D01*
X159637000Y-90602000D01*
X159637000Y-90622000D01*
X159383000Y-90622000D01*
X159383000Y-90602000D01*
X158533750Y-90602000D01*
X158375000Y-90760750D01*
X158372393Y-91854700D01*
X158108072Y-91854700D01*
X158108072Y-88900000D01*
X158371928Y-88900000D01*
X158375000Y-90189250D01*
X158533750Y-90348000D01*
X159383000Y-90348000D01*
X159383000Y-88423750D01*
X159637000Y-88423750D01*
X159637000Y-90348000D01*
X160486250Y-90348000D01*
X160645000Y-90189250D01*
X160648072Y-88900000D01*
X160911928Y-88900000D01*
X160915000Y-90189250D01*
X161073750Y-90348000D01*
X161923000Y-90348000D01*
X161923000Y-88423750D01*
X162177000Y-88423750D01*
X162177000Y-90348000D01*
X163026250Y-90348000D01*
X163185000Y-90189250D01*
X163188072Y-88900000D01*
X163175812Y-88775518D01*
X163139502Y-88655820D01*
X163080537Y-88545506D01*
X163001185Y-88448815D01*
X162904494Y-88369463D01*
X162794180Y-88310498D01*
X162674482Y-88274188D01*
X162550000Y-88261928D01*
X162335750Y-88265000D01*
X162177000Y-88423750D01*
X161923000Y-88423750D01*
X161764250Y-88265000D01*
X161550000Y-88261928D01*
X161425518Y-88274188D01*
X161305820Y-88310498D01*
X161195506Y-88369463D01*
X161098815Y-88448815D01*
X161019463Y-88545506D01*
X160960498Y-88655820D01*
X160924188Y-88775518D01*
X160911928Y-88900000D01*
X160648072Y-88900000D01*
X160635812Y-88775518D01*
X160599502Y-88655820D01*
X160540537Y-88545506D01*
X160461185Y-88448815D01*
X160364494Y-88369463D01*
X160254180Y-88310498D01*
X160134482Y-88274188D01*
X160010000Y-88261928D01*
X159795750Y-88265000D01*
X159637000Y-88423750D01*
X159383000Y-88423750D01*
X159224250Y-88265000D01*
X159010000Y-88261928D01*
X158885518Y-88274188D01*
X158765820Y-88310498D01*
X158655506Y-88369463D01*
X158558815Y-88448815D01*
X158479463Y-88545506D01*
X158420498Y-88655820D01*
X158384188Y-88775518D01*
X158371928Y-88900000D01*
X158108072Y-88900000D01*
X158095812Y-88775518D01*
X158059502Y-88655820D01*
X158000537Y-88545506D01*
X157921185Y-88448815D01*
X157855000Y-88394499D01*
X157855000Y-87656578D01*
X162845051Y-82666528D01*
X162878817Y-82638817D01*
X162908704Y-82602401D01*
X162989411Y-82504059D01*
X163071589Y-82350314D01*
X163122195Y-82183490D01*
X163126897Y-82135750D01*
X163135000Y-82053477D01*
X163135000Y-82053469D01*
X163139281Y-82010000D01*
X163135000Y-81966531D01*
X163135000Y-81288454D01*
X163167205Y-81240256D01*
X163245226Y-81051898D01*
X163255549Y-81000000D01*
X169191928Y-81000000D01*
X169195000Y-81564250D01*
X169353750Y-81723000D01*
X170553000Y-81723000D01*
X170553000Y-80523750D01*
X170807000Y-80523750D01*
X170807000Y-81723000D01*
X172006250Y-81723000D01*
X172165000Y-81564250D01*
X172168072Y-81000000D01*
X172155812Y-80875518D01*
X172119502Y-80755820D01*
X172060537Y-80645506D01*
X171981185Y-80548815D01*
X171884494Y-80469463D01*
X171774180Y-80410498D01*
X171654482Y-80374188D01*
X171530000Y-80361928D01*
X170965750Y-80365000D01*
X170807000Y-80523750D01*
X170553000Y-80523750D01*
X170394250Y-80365000D01*
X169830000Y-80361928D01*
X169705518Y-80374188D01*
X169585820Y-80410498D01*
X169475506Y-80469463D01*
X169378815Y-80548815D01*
X169299463Y-80645506D01*
X169240498Y-80755820D01*
X169204188Y-80875518D01*
X169191928Y-81000000D01*
X163255549Y-81000000D01*
X163285000Y-80851939D01*
X163285000Y-80789801D01*
X163979002Y-80095800D01*
X164008000Y-80072002D01*
X164102973Y-79956277D01*
X164173545Y-79824248D01*
X164217002Y-79680987D01*
X164227999Y-79569334D01*
X164227999Y-79569326D01*
X164231675Y-79532001D01*
X164227999Y-79494676D01*
X164227999Y-74697900D01*
X164294939Y-74697900D01*
X164494898Y-74658126D01*
X164683256Y-74580105D01*
X164852774Y-74466837D01*
X164996937Y-74322674D01*
X165110205Y-74153156D01*
X165188226Y-73964798D01*
X165228000Y-73764839D01*
X165228000Y-73560961D01*
X165200584Y-73423130D01*
X165281623Y-73356623D01*
X165390512Y-73223942D01*
X165471423Y-73072567D01*
X165521248Y-72908316D01*
X165538072Y-72737500D01*
X165538072Y-72262500D01*
X165521248Y-72091684D01*
X165471423Y-71927433D01*
X165390512Y-71776058D01*
X165328093Y-71700000D01*
X165390512Y-71623942D01*
X165471423Y-71472567D01*
X165521248Y-71308316D01*
X165538072Y-71137500D01*
X165538072Y-70662500D01*
X165521248Y-70491684D01*
X165492471Y-70396821D01*
X165568774Y-70345837D01*
X165712937Y-70201674D01*
X165826205Y-70032156D01*
X165904226Y-69843798D01*
X165944000Y-69643839D01*
X165944000Y-69439961D01*
X165904226Y-69240002D01*
X165826205Y-69051644D01*
X165712937Y-68882126D01*
X165568774Y-68737963D01*
X165399256Y-68624695D01*
X165210898Y-68546674D01*
X165010939Y-68506900D01*
X164807061Y-68506900D01*
X164607102Y-68546674D01*
X164529010Y-68579021D01*
X164529010Y-67623411D01*
X164572947Y-67579474D01*
X164686215Y-67409956D01*
X164764236Y-67221598D01*
X164804010Y-67021639D01*
X164804010Y-66817761D01*
X164764236Y-66617802D01*
X164686215Y-66429444D01*
X164572947Y-66259926D01*
X164428784Y-66115763D01*
X164259266Y-66002495D01*
X164070908Y-65924474D01*
X163995355Y-65909446D01*
X164000997Y-65903804D01*
X164030001Y-65880001D01*
X164124974Y-65764276D01*
X164195546Y-65632247D01*
X164239003Y-65488986D01*
X164250000Y-65377333D01*
X164250000Y-65377324D01*
X164253676Y-65340001D01*
X164250000Y-65302678D01*
X164250000Y-60968061D01*
X164375000Y-60968061D01*
X164375000Y-61171939D01*
X164414774Y-61371898D01*
X164492795Y-61560256D01*
X164606063Y-61729774D01*
X164750226Y-61873937D01*
X164919744Y-61987205D01*
X165108102Y-62065226D01*
X165308061Y-62105000D01*
X165370199Y-62105000D01*
X165966201Y-62701003D01*
X165989999Y-62730001D01*
X166105724Y-62824974D01*
X166237753Y-62895546D01*
X166381014Y-62939003D01*
X166492667Y-62950000D01*
X166492676Y-62950000D01*
X166529999Y-62953676D01*
X166567322Y-62950000D01*
X167906289Y-62950000D01*
X167950226Y-62993937D01*
X168119744Y-63107205D01*
X168308102Y-63185226D01*
X168508061Y-63225000D01*
X168711939Y-63225000D01*
X168911898Y-63185226D01*
X169100256Y-63107205D01*
X169269774Y-62993937D01*
X169413937Y-62849774D01*
X169527205Y-62680256D01*
X169605226Y-62491898D01*
X169645000Y-62291939D01*
X169645000Y-62088061D01*
X169605226Y-61888102D01*
X169527205Y-61699744D01*
X169413937Y-61530226D01*
X169269774Y-61386063D01*
X169100256Y-61272795D01*
X168911898Y-61194774D01*
X168711939Y-61155000D01*
X168508061Y-61155000D01*
X168308102Y-61194774D01*
X168119744Y-61272795D01*
X167950226Y-61386063D01*
X167906289Y-61430000D01*
X166844802Y-61430000D01*
X166445000Y-61030199D01*
X166445000Y-60968061D01*
X166405226Y-60768102D01*
X166327205Y-60579744D01*
X166213937Y-60410226D01*
X166069774Y-60266063D01*
X165900256Y-60152795D01*
X165711898Y-60074774D01*
X165511939Y-60035000D01*
X165308061Y-60035000D01*
X165108102Y-60074774D01*
X164919744Y-60152795D01*
X164750226Y-60266063D01*
X164606063Y-60410226D01*
X164492795Y-60579744D01*
X164414774Y-60768102D01*
X164375000Y-60968061D01*
X164250000Y-60968061D01*
X164250000Y-54202322D01*
X164253676Y-54164999D01*
X164250000Y-54127676D01*
X164250000Y-54127667D01*
X164239003Y-54016014D01*
X164195546Y-53872753D01*
X164124974Y-53740724D01*
X164030001Y-53624999D01*
X164001004Y-53601202D01*
X163363803Y-52964002D01*
X163340001Y-52934999D01*
X163224276Y-52840026D01*
X163188072Y-52820674D01*
X163188072Y-52061024D01*
X163208061Y-52065000D01*
X163411939Y-52065000D01*
X163611898Y-52025226D01*
X163800256Y-51947205D01*
X163969774Y-51833937D01*
X164113937Y-51689774D01*
X164184934Y-51583519D01*
X168763124Y-51583519D01*
X171000000Y-53820395D01*
X173236876Y-51583519D01*
X172924692Y-51134823D01*
X172328741Y-50814388D01*
X171681727Y-50616374D01*
X171008516Y-50548390D01*
X170334977Y-50613051D01*
X169686994Y-50807870D01*
X169089470Y-51125361D01*
X169075308Y-51134823D01*
X168763124Y-51583519D01*
X164184934Y-51583519D01*
X164227205Y-51520256D01*
X164305226Y-51331898D01*
X164345000Y-51131939D01*
X164345000Y-50928061D01*
X164305226Y-50728102D01*
X164227311Y-50540000D01*
X171727721Y-50540000D01*
X172233316Y-50589574D01*
X172688608Y-50727035D01*
X173108523Y-50950308D01*
X173477076Y-51250893D01*
X173780227Y-51617338D01*
X174006429Y-52035690D01*
X174147064Y-52490008D01*
X174161760Y-52629837D01*
X173874639Y-52089470D01*
X173865177Y-52075308D01*
X173416481Y-51763124D01*
X171179605Y-54000000D01*
X173416481Y-56236876D01*
X173865177Y-55924692D01*
X174185612Y-55328741D01*
X174200001Y-55281725D01*
X174200001Y-66100356D01*
X174074901Y-66033489D01*
X173842102Y-65962870D01*
X173660665Y-65945000D01*
X172339335Y-65945000D01*
X172157898Y-65962870D01*
X171925099Y-66033489D01*
X171880000Y-66057595D01*
X171880000Y-60847333D01*
X171883677Y-60810000D01*
X171876883Y-60741015D01*
X171869003Y-60661014D01*
X171825546Y-60517753D01*
X171754974Y-60385724D01*
X171660001Y-60269999D01*
X171631003Y-60246201D01*
X169174256Y-57789455D01*
X169303937Y-57659774D01*
X169417205Y-57490256D01*
X169495226Y-57301898D01*
X169533130Y-57111342D01*
X169671259Y-57185612D01*
X170318273Y-57383626D01*
X170991484Y-57451610D01*
X171665023Y-57386949D01*
X172313006Y-57192130D01*
X172910530Y-56874639D01*
X172924692Y-56865177D01*
X173236876Y-56416481D01*
X171000000Y-54179605D01*
X170985858Y-54193748D01*
X170806253Y-54014143D01*
X170820395Y-54000000D01*
X168583519Y-51763124D01*
X168134823Y-52075308D01*
X167814388Y-52671259D01*
X167654794Y-53192735D01*
X167490256Y-53082795D01*
X167301898Y-53004774D01*
X167101939Y-52965000D01*
X166898061Y-52965000D01*
X166698102Y-53004774D01*
X166509744Y-53082795D01*
X166340226Y-53196063D01*
X166196063Y-53340226D01*
X166082795Y-53509744D01*
X166004774Y-53698102D01*
X165965000Y-53898061D01*
X165965000Y-54101939D01*
X166004774Y-54301898D01*
X166082795Y-54490256D01*
X166115000Y-54538455D01*
X166115001Y-54949208D01*
X166105815Y-54940022D01*
X165936297Y-54826754D01*
X165747939Y-54748733D01*
X165547980Y-54708959D01*
X165344102Y-54708959D01*
X165144143Y-54748733D01*
X164955785Y-54826754D01*
X164786267Y-54940022D01*
X164642104Y-55084185D01*
X164528836Y-55253703D01*
X164450815Y-55442061D01*
X164411041Y-55642020D01*
X164411041Y-55845898D01*
X164450815Y-56045857D01*
X164528836Y-56234215D01*
X164642104Y-56403733D01*
X164786267Y-56547896D01*
X164955785Y-56661164D01*
X165144143Y-56739185D01*
X165344102Y-56778959D01*
X165409551Y-56778959D01*
X165477806Y-56834974D01*
X165609835Y-56905546D01*
X165753096Y-56949003D01*
X165864749Y-56960000D01*
X165864758Y-56960000D01*
X165902081Y-56963676D01*
X165939404Y-56960000D01*
X166195199Y-56960000D01*
X170360001Y-61124803D01*
X170360001Y-66127374D01*
X170220826Y-66052983D01*
X169991986Y-65983566D01*
X169813639Y-65966000D01*
X168536361Y-65966000D01*
X168358014Y-65983566D01*
X168129174Y-66052983D01*
X167918274Y-66165712D01*
X167733419Y-66317419D01*
X167581712Y-66502274D01*
X167468983Y-66713174D01*
X167399566Y-66942014D01*
X167376126Y-67180000D01*
X167399566Y-67417986D01*
X167468983Y-67646826D01*
X167581712Y-67857726D01*
X167733419Y-68042581D01*
X167918274Y-68194288D01*
X168129174Y-68307017D01*
X168358014Y-68376434D01*
X168536361Y-68394000D01*
X168945000Y-68394000D01*
X168945000Y-68656433D01*
X168947654Y-68683377D01*
X168947641Y-68685202D01*
X168948514Y-68694095D01*
X168951622Y-68723667D01*
X168954261Y-68750461D01*
X168954532Y-68751354D01*
X168954940Y-68755237D01*
X168966605Y-68812062D01*
X168977473Y-68869038D01*
X168980056Y-68877593D01*
X168998235Y-68936319D01*
X169020713Y-68989794D01*
X169042441Y-69043573D01*
X169046636Y-69051463D01*
X169075876Y-69105542D01*
X169108308Y-69153624D01*
X169140076Y-69202172D01*
X169145724Y-69209097D01*
X169184911Y-69256466D01*
X169226080Y-69297348D01*
X169266661Y-69338788D01*
X169273547Y-69344484D01*
X169321188Y-69383339D01*
X169369508Y-69415442D01*
X169417357Y-69448205D01*
X169425218Y-69452455D01*
X169479499Y-69481317D01*
X169533087Y-69503404D01*
X169586444Y-69526274D01*
X169594980Y-69528916D01*
X169653834Y-69546685D01*
X169710729Y-69557950D01*
X169767477Y-69570013D01*
X169776364Y-69570947D01*
X169837548Y-69576946D01*
X169865553Y-69576946D01*
X169893392Y-69579966D01*
X169902328Y-69579996D01*
X169904527Y-69579988D01*
X169932291Y-69577164D01*
X169960202Y-69577359D01*
X169969095Y-69576486D01*
X170030237Y-69570060D01*
X170087071Y-69558394D01*
X170144038Y-69547527D01*
X170152593Y-69544944D01*
X170211319Y-69526765D01*
X170264794Y-69504287D01*
X170318573Y-69482559D01*
X170326463Y-69478364D01*
X170360000Y-69460231D01*
X170360000Y-73664807D01*
X170349994Y-73658121D01*
X170177105Y-73586508D01*
X169993567Y-73550000D01*
X169806433Y-73550000D01*
X169622895Y-73586508D01*
X169450006Y-73658121D01*
X169294410Y-73762087D01*
X169162087Y-73894410D01*
X169058121Y-74050006D01*
X168986508Y-74222895D01*
X168950000Y-74406433D01*
X168950000Y-74593567D01*
X168952473Y-74606000D01*
X168536361Y-74606000D01*
X168358014Y-74623566D01*
X168129174Y-74692983D01*
X167918274Y-74805712D01*
X167733419Y-74957419D01*
X167581712Y-75142274D01*
X167468983Y-75353174D01*
X167399566Y-75582014D01*
X167376126Y-75820000D01*
X167399566Y-76057986D01*
X167468983Y-76286826D01*
X167581712Y-76497726D01*
X167733419Y-76682581D01*
X167918274Y-76834288D01*
X168129174Y-76947017D01*
X168358014Y-77016434D01*
X168536361Y-77034000D01*
X169813639Y-77034000D01*
X169991986Y-77016434D01*
X170126340Y-76975679D01*
X170202795Y-77160256D01*
X170316063Y-77329774D01*
X170460226Y-77473937D01*
X170629744Y-77587205D01*
X170818102Y-77665226D01*
X171018061Y-77705000D01*
X171221939Y-77705000D01*
X171421898Y-77665226D01*
X171610256Y-77587205D01*
X171779774Y-77473937D01*
X171923937Y-77329774D01*
X172037205Y-77160256D01*
X172095985Y-77018349D01*
X172157898Y-77037130D01*
X172339335Y-77055000D01*
X173660665Y-77055000D01*
X173842102Y-77037130D01*
X174074901Y-76966511D01*
X174200000Y-76899644D01*
X174200000Y-93713170D01*
X174192130Y-93686994D01*
X173874639Y-93089470D01*
X173865177Y-93075308D01*
X173416481Y-92763124D01*
X171179605Y-95000000D01*
X173416481Y-97236876D01*
X173865177Y-96924692D01*
X174157517Y-96380992D01*
X174150426Y-96453317D01*
X174012967Y-96908605D01*
X173789693Y-97328522D01*
X173489107Y-97697076D01*
X173122659Y-98000228D01*
X172704312Y-98226428D01*
X172249991Y-98367064D01*
X171746285Y-98420005D01*
X171319127Y-98420156D01*
X171665023Y-98386949D01*
X172313006Y-98192130D01*
X172910530Y-97874639D01*
X172924692Y-97865177D01*
X173236876Y-97416481D01*
X171000000Y-95179605D01*
X168763124Y-97416481D01*
X169075308Y-97865177D01*
X169671259Y-98185612D01*
X170318273Y-98383626D01*
X170682230Y-98420380D01*
X116116512Y-98439607D01*
X116665023Y-98386949D01*
X117313006Y-98192130D01*
X117910530Y-97874639D01*
X117924692Y-97865177D01*
X118236876Y-97416481D01*
X116000000Y-95179605D01*
X113763124Y-97416481D01*
X114075308Y-97865177D01*
X114671259Y-98185612D01*
X115318273Y-98383626D01*
X115873473Y-98439693D01*
X115032167Y-98439989D01*
X114526683Y-98390426D01*
X114071395Y-98252967D01*
X113651478Y-98029693D01*
X113282924Y-97729107D01*
X112979772Y-97362659D01*
X112753572Y-96944312D01*
X112612936Y-96489991D01*
X112559981Y-95986151D01*
X112558744Y-95099335D01*
X112613051Y-95665023D01*
X112807870Y-96313006D01*
X113125361Y-96910530D01*
X113134823Y-96924692D01*
X113583519Y-97236876D01*
X115820395Y-95000000D01*
X116179605Y-95000000D01*
X118416481Y-97236876D01*
X118865177Y-96924692D01*
X119185612Y-96328741D01*
X119383626Y-95681727D01*
X119451610Y-95008516D01*
X119386949Y-94334977D01*
X119192130Y-93686994D01*
X118874639Y-93089470D01*
X118865177Y-93075308D01*
X118416481Y-92763124D01*
X116179605Y-95000000D01*
X115820395Y-95000000D01*
X113583519Y-92763124D01*
X113134823Y-93075308D01*
X112814388Y-93671259D01*
X112616374Y-94318273D01*
X112558455Y-94891820D01*
X112555236Y-92583519D01*
X113763124Y-92583519D01*
X116000000Y-94820395D01*
X118236876Y-92583519D01*
X117924692Y-92134823D01*
X117328741Y-91814388D01*
X116681727Y-91616374D01*
X116008516Y-91548390D01*
X115334977Y-91613051D01*
X114686994Y-91807870D01*
X114089470Y-92125361D01*
X114075308Y-92134823D01*
X113763124Y-92583519D01*
X112555236Y-92583519D01*
X112531550Y-75600000D01*
X113921928Y-75600000D01*
X113925000Y-76164250D01*
X114083750Y-76323000D01*
X115283000Y-76323000D01*
X115283000Y-75123750D01*
X115537000Y-75123750D01*
X115537000Y-76323000D01*
X116736250Y-76323000D01*
X116895000Y-76164250D01*
X116898072Y-75600000D01*
X116885812Y-75475518D01*
X116849502Y-75355820D01*
X116790537Y-75245506D01*
X116711185Y-75148815D01*
X116614494Y-75069463D01*
X116504180Y-75010498D01*
X116384482Y-74974188D01*
X116260000Y-74961928D01*
X115695750Y-74965000D01*
X115537000Y-75123750D01*
X115283000Y-75123750D01*
X115124250Y-74965000D01*
X114560000Y-74961928D01*
X114435518Y-74974188D01*
X114315820Y-75010498D01*
X114205506Y-75069463D01*
X114108815Y-75148815D01*
X114029463Y-75245506D01*
X113970498Y-75355820D01*
X113934188Y-75475518D01*
X113921928Y-75600000D01*
X112531550Y-75600000D01*
X112504795Y-56416481D01*
X113763124Y-56416481D01*
X114075308Y-56865177D01*
X114671259Y-57185612D01*
X115318273Y-57383626D01*
X115991484Y-57451610D01*
X116665023Y-57386949D01*
X117313006Y-57192130D01*
X117910530Y-56874639D01*
X117924692Y-56865177D01*
X118236876Y-56416481D01*
X116000000Y-54179605D01*
X113763124Y-56416481D01*
X112504795Y-56416481D01*
X112501412Y-53991484D01*
X112548390Y-53991484D01*
X112613051Y-54665023D01*
X112807870Y-55313006D01*
X113125361Y-55910530D01*
X113134823Y-55924692D01*
X113583519Y-56236876D01*
X115820395Y-54000000D01*
X116179605Y-54000000D01*
X118416481Y-56236876D01*
X118865177Y-55924692D01*
X119185612Y-55328741D01*
X119383626Y-54681727D01*
X119451610Y-54008516D01*
X119386949Y-53334977D01*
X119192130Y-52686994D01*
X118874639Y-52089470D01*
X118865177Y-52075308D01*
X118416481Y-51763124D01*
X116179605Y-54000000D01*
X115820395Y-54000000D01*
X113583519Y-51763124D01*
X113134823Y-52075308D01*
X112814388Y-52671259D01*
X112616374Y-53318273D01*
X112548390Y-53991484D01*
X112501412Y-53991484D01*
X112500045Y-53011821D01*
X112549574Y-52506684D01*
X112687035Y-52051392D01*
X112910308Y-51631477D01*
X112949421Y-51583519D01*
X113763124Y-51583519D01*
X116000000Y-53820395D01*
X118236876Y-51583519D01*
X117924692Y-51134823D01*
X117328741Y-50814388D01*
X116681727Y-50616374D01*
X116008516Y-50548390D01*
X115334977Y-50613051D01*
X114686994Y-50807870D01*
X114089470Y-51125361D01*
X114075308Y-51134823D01*
X113763124Y-51583519D01*
X112949421Y-51583519D01*
X113210893Y-51262924D01*
X113577338Y-50959773D01*
X113995690Y-50733571D01*
X114450008Y-50592936D01*
X114953674Y-50540000D01*
X121208421Y-50540000D01*
X120404956Y-51343466D01*
%TA.AperFunction,Conductor*%
D20*
G36*
X120404956Y-51343466D02*
G01*
X120371183Y-51371183D01*
X120260589Y-51505942D01*
X120178411Y-51659688D01*
X120150206Y-51752667D01*
X120127805Y-51826510D01*
X120127245Y-51832195D01*
X120115000Y-51956524D01*
X120115000Y-51956531D01*
X120110719Y-52000000D01*
X120115000Y-52043469D01*
X120115001Y-62362702D01*
X120054774Y-62508102D01*
X120015000Y-62708061D01*
X120015000Y-62911939D01*
X120054774Y-63111898D01*
X120132795Y-63300256D01*
X120246063Y-63469774D01*
X120390226Y-63613937D01*
X120559744Y-63727205D01*
X120748102Y-63805226D01*
X120948061Y-63845000D01*
X121151939Y-63845000D01*
X121351898Y-63805226D01*
X121540256Y-63727205D01*
X121709774Y-63613937D01*
X121853937Y-63469774D01*
X121967205Y-63300256D01*
X122045226Y-63111898D01*
X122085000Y-62911939D01*
X122085000Y-62708061D01*
X122045226Y-62508102D01*
X121967205Y-62319744D01*
X121885000Y-62196715D01*
X121885000Y-60100000D01*
X122811928Y-60100000D01*
X122824188Y-60224482D01*
X122860498Y-60344180D01*
X122919463Y-60454494D01*
X122998815Y-60551185D01*
X123095506Y-60630537D01*
X123205820Y-60689502D01*
X123325518Y-60725812D01*
X123450000Y-60738072D01*
X123664250Y-60735000D01*
X123823000Y-60576250D01*
X123823000Y-58652000D01*
X124077000Y-58652000D01*
X124077000Y-60576250D01*
X124235750Y-60735000D01*
X124450000Y-60738072D01*
X124574482Y-60725812D01*
X124694180Y-60689502D01*
X124804494Y-60630537D01*
X124901185Y-60551185D01*
X124980537Y-60454494D01*
X125039502Y-60344180D01*
X125075812Y-60224482D01*
X125088072Y-60100000D01*
X125351928Y-60100000D01*
X125364188Y-60224482D01*
X125400498Y-60344180D01*
X125459463Y-60454494D01*
X125538815Y-60551185D01*
X125635506Y-60630537D01*
X125745820Y-60689502D01*
X125865518Y-60725812D01*
X125990000Y-60738072D01*
X126204250Y-60735000D01*
X126363000Y-60576250D01*
X126363000Y-58652000D01*
X126617000Y-58652000D01*
X126617000Y-60576250D01*
X126775750Y-60735000D01*
X126990000Y-60738072D01*
X127114482Y-60725812D01*
X127234180Y-60689502D01*
X127344494Y-60630537D01*
X127441185Y-60551185D01*
X127520537Y-60454494D01*
X127579502Y-60344180D01*
X127615812Y-60224482D01*
X127628072Y-60100000D01*
X127625000Y-58810750D01*
X127466250Y-58652000D01*
X126617000Y-58652000D01*
X126363000Y-58652000D01*
X125513750Y-58652000D01*
X125355000Y-58810750D01*
X125351928Y-60100000D01*
X125088072Y-60100000D01*
X125085000Y-58810750D01*
X124926250Y-58652000D01*
X124077000Y-58652000D01*
X123823000Y-58652000D01*
X122973750Y-58652000D01*
X122815000Y-58810750D01*
X122811928Y-60100000D01*
X121885000Y-60100000D01*
X121885000Y-56950000D01*
X122811928Y-56950000D01*
X122815000Y-58239250D01*
X122973750Y-58398000D01*
X123823000Y-58398000D01*
X123823000Y-56473750D01*
X124077000Y-56473750D01*
X124077000Y-58398000D01*
X124926250Y-58398000D01*
X125085000Y-58239250D01*
X125088072Y-56950000D01*
X125351928Y-56950000D01*
X125355000Y-58239250D01*
X125513750Y-58398000D01*
X126363000Y-58398000D01*
X126363000Y-56473750D01*
X126204250Y-56315000D01*
X125990000Y-56311928D01*
X125865518Y-56324188D01*
X125745820Y-56360498D01*
X125635506Y-56419463D01*
X125538815Y-56498815D01*
X125459463Y-56595506D01*
X125400498Y-56705820D01*
X125364188Y-56825518D01*
X125351928Y-56950000D01*
X125088072Y-56950000D01*
X125075812Y-56825518D01*
X125039502Y-56705820D01*
X124980537Y-56595506D01*
X124901185Y-56498815D01*
X124804494Y-56419463D01*
X124694180Y-56360498D01*
X124574482Y-56324188D01*
X124450000Y-56311928D01*
X124235750Y-56315000D01*
X124077000Y-56473750D01*
X123823000Y-56473750D01*
X123664250Y-56315000D01*
X123450000Y-56311928D01*
X123325518Y-56324188D01*
X123205820Y-56360498D01*
X123095506Y-56419463D01*
X122998815Y-56498815D01*
X122919463Y-56595506D01*
X122860498Y-56705820D01*
X122824188Y-56825518D01*
X122811928Y-56950000D01*
X121885000Y-56950000D01*
X121885000Y-55050000D01*
X122811928Y-55050000D01*
X122824188Y-55174482D01*
X122860498Y-55294180D01*
X122919463Y-55404494D01*
X122998815Y-55501185D01*
X123095506Y-55580537D01*
X123205820Y-55639502D01*
X123325518Y-55675812D01*
X123450000Y-55688072D01*
X123664250Y-55685000D01*
X123823000Y-55526250D01*
X123823000Y-53602000D01*
X124077000Y-53602000D01*
X124077000Y-55526250D01*
X124235750Y-55685000D01*
X124450000Y-55688072D01*
X124574482Y-55675812D01*
X124694180Y-55639502D01*
X124804494Y-55580537D01*
X124901185Y-55501185D01*
X124980537Y-55404494D01*
X125039502Y-55294180D01*
X125075812Y-55174482D01*
X125088072Y-55050000D01*
X125351928Y-55050000D01*
X125364188Y-55174482D01*
X125400498Y-55294180D01*
X125459463Y-55404494D01*
X125538815Y-55501185D01*
X125635506Y-55580537D01*
X125745820Y-55639502D01*
X125865518Y-55675812D01*
X125990000Y-55688072D01*
X126204250Y-55685000D01*
X126363000Y-55526250D01*
X126363000Y-53602000D01*
X125513750Y-53602000D01*
X125355000Y-53760750D01*
X125351928Y-55050000D01*
X125088072Y-55050000D01*
X125085000Y-53760750D01*
X124926250Y-53602000D01*
X124077000Y-53602000D01*
X123823000Y-53602000D01*
X122973750Y-53602000D01*
X122815000Y-53760750D01*
X122811928Y-55050000D01*
X121885000Y-55050000D01*
X121885000Y-52366578D01*
X122366579Y-51885000D01*
X122813405Y-51885000D01*
X122811928Y-51900000D01*
X122815000Y-53189250D01*
X122973750Y-53348000D01*
X123823000Y-53348000D01*
X123823000Y-53328000D01*
X124077000Y-53328000D01*
X124077000Y-53348000D01*
X124926250Y-53348000D01*
X125085000Y-53189250D01*
X125088072Y-51900000D01*
X125086595Y-51885000D01*
X125353405Y-51885000D01*
X125351928Y-51900000D01*
X125355000Y-53189250D01*
X125513750Y-53348000D01*
X126363000Y-53348000D01*
X126363000Y-53328000D01*
X126617000Y-53328000D01*
X126617000Y-53348000D01*
X126637000Y-53348000D01*
X126637000Y-53602000D01*
X126617000Y-53602000D01*
X126617000Y-55526250D01*
X126775750Y-55685000D01*
X126905290Y-55686857D01*
X126904774Y-55688102D01*
X126865000Y-55888061D01*
X126865000Y-56091939D01*
X126904774Y-56291898D01*
X126913525Y-56313025D01*
X126775750Y-56315000D01*
X126617000Y-56473750D01*
X126617000Y-58398000D01*
X127466250Y-58398000D01*
X127625000Y-58239250D01*
X127627974Y-56991168D01*
X127798061Y-57025000D01*
X127891928Y-57025000D01*
X127891928Y-60100000D01*
X127904188Y-60224482D01*
X127940498Y-60344180D01*
X127985962Y-60429236D01*
X124140803Y-64274396D01*
X124111799Y-64298199D01*
X124075442Y-64342501D01*
X124016826Y-64413924D01*
X123959457Y-64521253D01*
X123946254Y-64545954D01*
X123902797Y-64689215D01*
X123891800Y-64800868D01*
X123891800Y-64800878D01*
X123888124Y-64838200D01*
X123891800Y-64875522D01*
X123891801Y-80688688D01*
X123847863Y-80732626D01*
X123734595Y-80902144D01*
X123656574Y-81090502D01*
X123651386Y-81116584D01*
X121013804Y-78479003D01*
X120990001Y-78449999D01*
X120874276Y-78355026D01*
X120742247Y-78284454D01*
X120598986Y-78240997D01*
X120487333Y-78230000D01*
X120487322Y-78230000D01*
X120450000Y-78226324D01*
X120412678Y-78230000D01*
X116688178Y-78230000D01*
X116563475Y-78043368D01*
X116431620Y-77911513D01*
X116504180Y-77889502D01*
X116614494Y-77830537D01*
X116711185Y-77751185D01*
X116790537Y-77654494D01*
X116849502Y-77544180D01*
X116885812Y-77424482D01*
X116898072Y-77300000D01*
X116895000Y-76735750D01*
X116736250Y-76577000D01*
X115537000Y-76577000D01*
X115537000Y-76597000D01*
X115283000Y-76597000D01*
X115283000Y-76577000D01*
X114083750Y-76577000D01*
X113925000Y-76735750D01*
X113921928Y-77300000D01*
X113934188Y-77424482D01*
X113970498Y-77544180D01*
X114029463Y-77654494D01*
X114108815Y-77751185D01*
X114205506Y-77830537D01*
X114315820Y-77889502D01*
X114388380Y-77911513D01*
X114256525Y-78043368D01*
X114094010Y-78286589D01*
X113982068Y-78556842D01*
X113925000Y-78843740D01*
X113925000Y-79136260D01*
X113982068Y-79423158D01*
X114094010Y-79693411D01*
X114256525Y-79936632D01*
X114463368Y-80143475D01*
X114706589Y-80305990D01*
X114976842Y-80417932D01*
X115263740Y-80475000D01*
X115556260Y-80475000D01*
X115843158Y-80417932D01*
X116113411Y-80305990D01*
X116356632Y-80143475D01*
X116563475Y-79936632D01*
X116688178Y-79750000D01*
X120135199Y-79750000D01*
X123560000Y-83174803D01*
X123560001Y-84086288D01*
X123516063Y-84130226D01*
X123402795Y-84299744D01*
X123324774Y-84488102D01*
X123285000Y-84688061D01*
X123285000Y-84891939D01*
X123324774Y-85091898D01*
X123402795Y-85280256D01*
X123516063Y-85449774D01*
X123644094Y-85577805D01*
X122259003Y-86962896D01*
X122229999Y-86986699D01*
X122174931Y-87053800D01*
X122135026Y-87102424D01*
X122076456Y-87212000D01*
X122064454Y-87234454D01*
X122020997Y-87377715D01*
X122010000Y-87489368D01*
X122010000Y-87489378D01*
X122006324Y-87526700D01*
X122010000Y-87564023D01*
X122010001Y-92405768D01*
X122006324Y-92443100D01*
X122010001Y-92480433D01*
X122020998Y-92592086D01*
X122024647Y-92604114D01*
X122064454Y-92735346D01*
X122135026Y-92867376D01*
X122206201Y-92954102D01*
X122230000Y-92983101D01*
X122258998Y-93006899D01*
X122894432Y-93642334D01*
X122860498Y-93705820D01*
X122824188Y-93825518D01*
X122811928Y-93950000D01*
X122811928Y-97100000D01*
X122824188Y-97224482D01*
X122860498Y-97344180D01*
X122919463Y-97454494D01*
X122998815Y-97551185D01*
X123095506Y-97630537D01*
X123205820Y-97689502D01*
X123238465Y-97699405D01*
X123244454Y-97719147D01*
X123315026Y-97851176D01*
X123409999Y-97966901D01*
X123525724Y-98061874D01*
X123657753Y-98132446D01*
X123801014Y-98175903D01*
X123912667Y-98186900D01*
X123950000Y-98190577D01*
X123987333Y-98186900D01*
X152488078Y-98186900D01*
X152525400Y-98190576D01*
X152562722Y-98186900D01*
X152562733Y-98186900D01*
X152674386Y-98175903D01*
X152817647Y-98132446D01*
X152949676Y-98061874D01*
X153065401Y-97966901D01*
X153089204Y-97937898D01*
X153477508Y-97549593D01*
X153478815Y-97551185D01*
X153575506Y-97630537D01*
X153685820Y-97689502D01*
X153805518Y-97725812D01*
X153930000Y-97738072D01*
X154930000Y-97738072D01*
X155054482Y-97725812D01*
X155174180Y-97689502D01*
X155284494Y-97630537D01*
X155381185Y-97551185D01*
X155460537Y-97454494D01*
X155519502Y-97344180D01*
X155555812Y-97224482D01*
X155568072Y-97100000D01*
X155568072Y-95009958D01*
X155582861Y-95012900D01*
X155786739Y-95012900D01*
X155831928Y-95003911D01*
X155831928Y-97100000D01*
X155844188Y-97224482D01*
X155880498Y-97344180D01*
X155939463Y-97454494D01*
X156018815Y-97551185D01*
X156115506Y-97630537D01*
X156225820Y-97689502D01*
X156345518Y-97725812D01*
X156470000Y-97738072D01*
X157470000Y-97738072D01*
X157594482Y-97725812D01*
X157714180Y-97689502D01*
X157824494Y-97630537D01*
X157921185Y-97551185D01*
X158000537Y-97454494D01*
X158059502Y-97344180D01*
X158095812Y-97224482D01*
X158108072Y-97100000D01*
X158371928Y-97100000D01*
X158384188Y-97224482D01*
X158420498Y-97344180D01*
X158479463Y-97454494D01*
X158558815Y-97551185D01*
X158655506Y-97630537D01*
X158765820Y-97689502D01*
X158885518Y-97725812D01*
X159010000Y-97738072D01*
X159224250Y-97735000D01*
X159383000Y-97576250D01*
X159383000Y-95652000D01*
X159637000Y-95652000D01*
X159637000Y-97576250D01*
X159795750Y-97735000D01*
X160010000Y-97738072D01*
X160134482Y-97725812D01*
X160254180Y-97689502D01*
X160364494Y-97630537D01*
X160461185Y-97551185D01*
X160540537Y-97454494D01*
X160599502Y-97344180D01*
X160635812Y-97224482D01*
X160648072Y-97100000D01*
X160911928Y-97100000D01*
X160924188Y-97224482D01*
X160960498Y-97344180D01*
X161019463Y-97454494D01*
X161098815Y-97551185D01*
X161195506Y-97630537D01*
X161305820Y-97689502D01*
X161425518Y-97725812D01*
X161550000Y-97738072D01*
X161764250Y-97735000D01*
X161923000Y-97576250D01*
X161923000Y-95652000D01*
X162177000Y-95652000D01*
X162177000Y-97576250D01*
X162335750Y-97735000D01*
X162550000Y-97738072D01*
X162674482Y-97725812D01*
X162794180Y-97689502D01*
X162904494Y-97630537D01*
X163001185Y-97551185D01*
X163080537Y-97454494D01*
X163139502Y-97344180D01*
X163175812Y-97224482D01*
X163188072Y-97100000D01*
X163185000Y-95810750D01*
X163026250Y-95652000D01*
X162177000Y-95652000D01*
X161923000Y-95652000D01*
X161073750Y-95652000D01*
X160915000Y-95810750D01*
X160911928Y-97100000D01*
X160648072Y-97100000D01*
X160645000Y-95810750D01*
X160486250Y-95652000D01*
X159637000Y-95652000D01*
X159383000Y-95652000D01*
X158533750Y-95652000D01*
X158375000Y-95810750D01*
X158371928Y-97100000D01*
X158108072Y-97100000D01*
X158108072Y-93950000D01*
X158095812Y-93825518D01*
X158059502Y-93705820D01*
X158000537Y-93595506D01*
X157921185Y-93498815D01*
X157824494Y-93419463D01*
X157740750Y-93374700D01*
X158739250Y-93374700D01*
X158655506Y-93419463D01*
X158558815Y-93498815D01*
X158479463Y-93595506D01*
X158420498Y-93705820D01*
X158384188Y-93825518D01*
X158371928Y-93950000D01*
X158375000Y-95239250D01*
X158533750Y-95398000D01*
X159383000Y-95398000D01*
X159383000Y-95378000D01*
X159637000Y-95378000D01*
X159637000Y-95398000D01*
X160486250Y-95398000D01*
X160645000Y-95239250D01*
X160648072Y-93950000D01*
X160635812Y-93825518D01*
X160599502Y-93705820D01*
X160540537Y-93595506D01*
X160461185Y-93498815D01*
X160364494Y-93419463D01*
X160280750Y-93374700D01*
X161279250Y-93374700D01*
X161195506Y-93419463D01*
X161098815Y-93498815D01*
X161019463Y-93595506D01*
X160960498Y-93705820D01*
X160924188Y-93825518D01*
X160911928Y-93950000D01*
X160915000Y-95239250D01*
X161073750Y-95398000D01*
X161923000Y-95398000D01*
X161923000Y-95378000D01*
X162177000Y-95378000D01*
X162177000Y-95398000D01*
X163026250Y-95398000D01*
X163185000Y-95239250D01*
X163185590Y-94991484D01*
X167548390Y-94991484D01*
X167613051Y-95665023D01*
X167807870Y-96313006D01*
X168125361Y-96910530D01*
X168134823Y-96924692D01*
X168583519Y-97236876D01*
X170820395Y-95000000D01*
X168583519Y-92763124D01*
X168134823Y-93075308D01*
X167814388Y-93671259D01*
X167616374Y-94318273D01*
X167548390Y-94991484D01*
X163185590Y-94991484D01*
X163188072Y-93950000D01*
X163175812Y-93825518D01*
X163139502Y-93705820D01*
X163080537Y-93595506D01*
X163001185Y-93498815D01*
X162904494Y-93419463D01*
X162820750Y-93374700D01*
X163781078Y-93374700D01*
X163818400Y-93378376D01*
X163855722Y-93374700D01*
X163855733Y-93374700D01*
X163967386Y-93363703D01*
X164110647Y-93320246D01*
X164242676Y-93249674D01*
X164358401Y-93154701D01*
X164382204Y-93125697D01*
X164924382Y-92583519D01*
X168763124Y-92583519D01*
X171000000Y-94820395D01*
X173236876Y-92583519D01*
X172924692Y-92134823D01*
X172328741Y-91814388D01*
X171681727Y-91616374D01*
X171008516Y-91548390D01*
X170334977Y-91613051D01*
X169686994Y-91807870D01*
X169089470Y-92125361D01*
X169075308Y-92134823D01*
X168763124Y-92583519D01*
X164924382Y-92583519D01*
X169578897Y-87929004D01*
X169733368Y-88083475D01*
X169976589Y-88245990D01*
X170246842Y-88357932D01*
X170533740Y-88415000D01*
X170826260Y-88415000D01*
X171113158Y-88357932D01*
X171383411Y-88245990D01*
X171626632Y-88083475D01*
X171833475Y-87876632D01*
X171995990Y-87633411D01*
X172107932Y-87363158D01*
X172165000Y-87076260D01*
X172165000Y-86783740D01*
X172107932Y-86496842D01*
X171995990Y-86226589D01*
X171833475Y-85983368D01*
X171626632Y-85776525D01*
X171452240Y-85660000D01*
X171626632Y-85543475D01*
X171833475Y-85336632D01*
X171995990Y-85093411D01*
X172107932Y-84823158D01*
X172165000Y-84536260D01*
X172165000Y-84243740D01*
X172107932Y-83956842D01*
X171995990Y-83686589D01*
X171833475Y-83443368D01*
X171701620Y-83311513D01*
X171774180Y-83289502D01*
X171884494Y-83230537D01*
X171981185Y-83151185D01*
X172060537Y-83054494D01*
X172119502Y-82944180D01*
X172155812Y-82824482D01*
X172168072Y-82700000D01*
X172165000Y-82135750D01*
X172006250Y-81977000D01*
X170807000Y-81977000D01*
X170807000Y-81997000D01*
X170553000Y-81997000D01*
X170553000Y-81977000D01*
X169353750Y-81977000D01*
X169195000Y-82135750D01*
X169191928Y-82700000D01*
X169204188Y-82824482D01*
X169240498Y-82944180D01*
X169299463Y-83054494D01*
X169378815Y-83151185D01*
X169475506Y-83230537D01*
X169585820Y-83289502D01*
X169658380Y-83311513D01*
X169526525Y-83443368D01*
X169364010Y-83686589D01*
X169252068Y-83956842D01*
X169195000Y-84243740D01*
X169195000Y-84536260D01*
X169252068Y-84823158D01*
X169364010Y-85093411D01*
X169526525Y-85336632D01*
X169733368Y-85543475D01*
X169907760Y-85660000D01*
X169733368Y-85776525D01*
X169526525Y-85983368D01*
X169397317Y-86176742D01*
X169354114Y-86180997D01*
X169210853Y-86224454D01*
X169078824Y-86295026D01*
X168963099Y-86389999D01*
X168939301Y-86418997D01*
X163503599Y-91854700D01*
X163187607Y-91854700D01*
X163185000Y-90760750D01*
X163026250Y-90602000D01*
X162177000Y-90602000D01*
X162177000Y-90622000D01*
X161923000Y-90622000D01*
X161923000Y-90602000D01*
X161073750Y-90602000D01*
X160915000Y-90760750D01*
X160912393Y-91854700D01*
X160647607Y-91854700D01*
X160645000Y-90760750D01*
X160486250Y-90602000D01*
X159637000Y-90602000D01*
X159637000Y-90622000D01*
X159383000Y-90622000D01*
X159383000Y-90602000D01*
X158533750Y-90602000D01*
X158375000Y-90760750D01*
X158372393Y-91854700D01*
X158108072Y-91854700D01*
X158108072Y-88900000D01*
X158371928Y-88900000D01*
X158375000Y-90189250D01*
X158533750Y-90348000D01*
X159383000Y-90348000D01*
X159383000Y-88423750D01*
X159637000Y-88423750D01*
X159637000Y-90348000D01*
X160486250Y-90348000D01*
X160645000Y-90189250D01*
X160648072Y-88900000D01*
X160911928Y-88900000D01*
X160915000Y-90189250D01*
X161073750Y-90348000D01*
X161923000Y-90348000D01*
X161923000Y-88423750D01*
X162177000Y-88423750D01*
X162177000Y-90348000D01*
X163026250Y-90348000D01*
X163185000Y-90189250D01*
X163188072Y-88900000D01*
X163175812Y-88775518D01*
X163139502Y-88655820D01*
X163080537Y-88545506D01*
X163001185Y-88448815D01*
X162904494Y-88369463D01*
X162794180Y-88310498D01*
X162674482Y-88274188D01*
X162550000Y-88261928D01*
X162335750Y-88265000D01*
X162177000Y-88423750D01*
X161923000Y-88423750D01*
X161764250Y-88265000D01*
X161550000Y-88261928D01*
X161425518Y-88274188D01*
X161305820Y-88310498D01*
X161195506Y-88369463D01*
X161098815Y-88448815D01*
X161019463Y-88545506D01*
X160960498Y-88655820D01*
X160924188Y-88775518D01*
X160911928Y-88900000D01*
X160648072Y-88900000D01*
X160635812Y-88775518D01*
X160599502Y-88655820D01*
X160540537Y-88545506D01*
X160461185Y-88448815D01*
X160364494Y-88369463D01*
X160254180Y-88310498D01*
X160134482Y-88274188D01*
X160010000Y-88261928D01*
X159795750Y-88265000D01*
X159637000Y-88423750D01*
X159383000Y-88423750D01*
X159224250Y-88265000D01*
X159010000Y-88261928D01*
X158885518Y-88274188D01*
X158765820Y-88310498D01*
X158655506Y-88369463D01*
X158558815Y-88448815D01*
X158479463Y-88545506D01*
X158420498Y-88655820D01*
X158384188Y-88775518D01*
X158371928Y-88900000D01*
X158108072Y-88900000D01*
X158095812Y-88775518D01*
X158059502Y-88655820D01*
X158000537Y-88545506D01*
X157921185Y-88448815D01*
X157855000Y-88394499D01*
X157855000Y-87656578D01*
X162845051Y-82666528D01*
X162878817Y-82638817D01*
X162908704Y-82602401D01*
X162989411Y-82504059D01*
X163071589Y-82350314D01*
X163122195Y-82183490D01*
X163126897Y-82135750D01*
X163135000Y-82053477D01*
X163135000Y-82053469D01*
X163139281Y-82010000D01*
X163135000Y-81966531D01*
X163135000Y-81288454D01*
X163167205Y-81240256D01*
X163245226Y-81051898D01*
X163255549Y-81000000D01*
X169191928Y-81000000D01*
X169195000Y-81564250D01*
X169353750Y-81723000D01*
X170553000Y-81723000D01*
X170553000Y-80523750D01*
X170807000Y-80523750D01*
X170807000Y-81723000D01*
X172006250Y-81723000D01*
X172165000Y-81564250D01*
X172168072Y-81000000D01*
X172155812Y-80875518D01*
X172119502Y-80755820D01*
X172060537Y-80645506D01*
X171981185Y-80548815D01*
X171884494Y-80469463D01*
X171774180Y-80410498D01*
X171654482Y-80374188D01*
X171530000Y-80361928D01*
X170965750Y-80365000D01*
X170807000Y-80523750D01*
X170553000Y-80523750D01*
X170394250Y-80365000D01*
X169830000Y-80361928D01*
X169705518Y-80374188D01*
X169585820Y-80410498D01*
X169475506Y-80469463D01*
X169378815Y-80548815D01*
X169299463Y-80645506D01*
X169240498Y-80755820D01*
X169204188Y-80875518D01*
X169191928Y-81000000D01*
X163255549Y-81000000D01*
X163285000Y-80851939D01*
X163285000Y-80789801D01*
X163979002Y-80095800D01*
X164008000Y-80072002D01*
X164102973Y-79956277D01*
X164173545Y-79824248D01*
X164217002Y-79680987D01*
X164227999Y-79569334D01*
X164227999Y-79569326D01*
X164231675Y-79532001D01*
X164227999Y-79494676D01*
X164227999Y-74697900D01*
X164294939Y-74697900D01*
X164494898Y-74658126D01*
X164683256Y-74580105D01*
X164852774Y-74466837D01*
X164996937Y-74322674D01*
X165110205Y-74153156D01*
X165188226Y-73964798D01*
X165228000Y-73764839D01*
X165228000Y-73560961D01*
X165200584Y-73423130D01*
X165281623Y-73356623D01*
X165390512Y-73223942D01*
X165471423Y-73072567D01*
X165521248Y-72908316D01*
X165538072Y-72737500D01*
X165538072Y-72262500D01*
X165521248Y-72091684D01*
X165471423Y-71927433D01*
X165390512Y-71776058D01*
X165328093Y-71700000D01*
X165390512Y-71623942D01*
X165471423Y-71472567D01*
X165521248Y-71308316D01*
X165538072Y-71137500D01*
X165538072Y-70662500D01*
X165521248Y-70491684D01*
X165492471Y-70396821D01*
X165568774Y-70345837D01*
X165712937Y-70201674D01*
X165826205Y-70032156D01*
X165904226Y-69843798D01*
X165944000Y-69643839D01*
X165944000Y-69439961D01*
X165904226Y-69240002D01*
X165826205Y-69051644D01*
X165712937Y-68882126D01*
X165568774Y-68737963D01*
X165399256Y-68624695D01*
X165210898Y-68546674D01*
X165010939Y-68506900D01*
X164807061Y-68506900D01*
X164607102Y-68546674D01*
X164529010Y-68579021D01*
X164529010Y-67623411D01*
X164572947Y-67579474D01*
X164686215Y-67409956D01*
X164764236Y-67221598D01*
X164804010Y-67021639D01*
X164804010Y-66817761D01*
X164764236Y-66617802D01*
X164686215Y-66429444D01*
X164572947Y-66259926D01*
X164428784Y-66115763D01*
X164259266Y-66002495D01*
X164070908Y-65924474D01*
X163995355Y-65909446D01*
X164000997Y-65903804D01*
X164030001Y-65880001D01*
X164124974Y-65764276D01*
X164195546Y-65632247D01*
X164239003Y-65488986D01*
X164250000Y-65377333D01*
X164250000Y-65377324D01*
X164253676Y-65340001D01*
X164250000Y-65302678D01*
X164250000Y-60968061D01*
X164375000Y-60968061D01*
X164375000Y-61171939D01*
X164414774Y-61371898D01*
X164492795Y-61560256D01*
X164606063Y-61729774D01*
X164750226Y-61873937D01*
X164919744Y-61987205D01*
X165108102Y-62065226D01*
X165308061Y-62105000D01*
X165370199Y-62105000D01*
X165966201Y-62701003D01*
X165989999Y-62730001D01*
X166105724Y-62824974D01*
X166237753Y-62895546D01*
X166381014Y-62939003D01*
X166492667Y-62950000D01*
X166492676Y-62950000D01*
X166529999Y-62953676D01*
X166567322Y-62950000D01*
X167906289Y-62950000D01*
X167950226Y-62993937D01*
X168119744Y-63107205D01*
X168308102Y-63185226D01*
X168508061Y-63225000D01*
X168711939Y-63225000D01*
X168911898Y-63185226D01*
X169100256Y-63107205D01*
X169269774Y-62993937D01*
X169413937Y-62849774D01*
X169527205Y-62680256D01*
X169605226Y-62491898D01*
X169645000Y-62291939D01*
X169645000Y-62088061D01*
X169605226Y-61888102D01*
X169527205Y-61699744D01*
X169413937Y-61530226D01*
X169269774Y-61386063D01*
X169100256Y-61272795D01*
X168911898Y-61194774D01*
X168711939Y-61155000D01*
X168508061Y-61155000D01*
X168308102Y-61194774D01*
X168119744Y-61272795D01*
X167950226Y-61386063D01*
X167906289Y-61430000D01*
X166844802Y-61430000D01*
X166445000Y-61030199D01*
X166445000Y-60968061D01*
X166405226Y-60768102D01*
X166327205Y-60579744D01*
X166213937Y-60410226D01*
X166069774Y-60266063D01*
X165900256Y-60152795D01*
X165711898Y-60074774D01*
X165511939Y-60035000D01*
X165308061Y-60035000D01*
X165108102Y-60074774D01*
X164919744Y-60152795D01*
X164750226Y-60266063D01*
X164606063Y-60410226D01*
X164492795Y-60579744D01*
X164414774Y-60768102D01*
X164375000Y-60968061D01*
X164250000Y-60968061D01*
X164250000Y-54202322D01*
X164253676Y-54164999D01*
X164250000Y-54127676D01*
X164250000Y-54127667D01*
X164239003Y-54016014D01*
X164195546Y-53872753D01*
X164124974Y-53740724D01*
X164030001Y-53624999D01*
X164001004Y-53601202D01*
X163363803Y-52964002D01*
X163340001Y-52934999D01*
X163224276Y-52840026D01*
X163188072Y-52820674D01*
X163188072Y-52061024D01*
X163208061Y-52065000D01*
X163411939Y-52065000D01*
X163611898Y-52025226D01*
X163800256Y-51947205D01*
X163969774Y-51833937D01*
X164113937Y-51689774D01*
X164184934Y-51583519D01*
X168763124Y-51583519D01*
X171000000Y-53820395D01*
X173236876Y-51583519D01*
X172924692Y-51134823D01*
X172328741Y-50814388D01*
X171681727Y-50616374D01*
X171008516Y-50548390D01*
X170334977Y-50613051D01*
X169686994Y-50807870D01*
X169089470Y-51125361D01*
X169075308Y-51134823D01*
X168763124Y-51583519D01*
X164184934Y-51583519D01*
X164227205Y-51520256D01*
X164305226Y-51331898D01*
X164345000Y-51131939D01*
X164345000Y-50928061D01*
X164305226Y-50728102D01*
X164227311Y-50540000D01*
X171727721Y-50540000D01*
X172233316Y-50589574D01*
X172688608Y-50727035D01*
X173108523Y-50950308D01*
X173477076Y-51250893D01*
X173780227Y-51617338D01*
X174006429Y-52035690D01*
X174147064Y-52490008D01*
X174161760Y-52629837D01*
X173874639Y-52089470D01*
X173865177Y-52075308D01*
X173416481Y-51763124D01*
X171179605Y-54000000D01*
X173416481Y-56236876D01*
X173865177Y-55924692D01*
X174185612Y-55328741D01*
X174200001Y-55281725D01*
X174200001Y-66100356D01*
X174074901Y-66033489D01*
X173842102Y-65962870D01*
X173660665Y-65945000D01*
X172339335Y-65945000D01*
X172157898Y-65962870D01*
X171925099Y-66033489D01*
X171880000Y-66057595D01*
X171880000Y-60847333D01*
X171883677Y-60810000D01*
X171876883Y-60741015D01*
X171869003Y-60661014D01*
X171825546Y-60517753D01*
X171754974Y-60385724D01*
X171660001Y-60269999D01*
X171631003Y-60246201D01*
X169174256Y-57789455D01*
X169303937Y-57659774D01*
X169417205Y-57490256D01*
X169495226Y-57301898D01*
X169533130Y-57111342D01*
X169671259Y-57185612D01*
X170318273Y-57383626D01*
X170991484Y-57451610D01*
X171665023Y-57386949D01*
X172313006Y-57192130D01*
X172910530Y-56874639D01*
X172924692Y-56865177D01*
X173236876Y-56416481D01*
X171000000Y-54179605D01*
X170985858Y-54193748D01*
X170806253Y-54014143D01*
X170820395Y-54000000D01*
X168583519Y-51763124D01*
X168134823Y-52075308D01*
X167814388Y-52671259D01*
X167654794Y-53192735D01*
X167490256Y-53082795D01*
X167301898Y-53004774D01*
X167101939Y-52965000D01*
X166898061Y-52965000D01*
X166698102Y-53004774D01*
X166509744Y-53082795D01*
X166340226Y-53196063D01*
X166196063Y-53340226D01*
X166082795Y-53509744D01*
X166004774Y-53698102D01*
X165965000Y-53898061D01*
X165965000Y-54101939D01*
X166004774Y-54301898D01*
X166082795Y-54490256D01*
X166115000Y-54538455D01*
X166115001Y-54949208D01*
X166105815Y-54940022D01*
X165936297Y-54826754D01*
X165747939Y-54748733D01*
X165547980Y-54708959D01*
X165344102Y-54708959D01*
X165144143Y-54748733D01*
X164955785Y-54826754D01*
X164786267Y-54940022D01*
X164642104Y-55084185D01*
X164528836Y-55253703D01*
X164450815Y-55442061D01*
X164411041Y-55642020D01*
X164411041Y-55845898D01*
X164450815Y-56045857D01*
X164528836Y-56234215D01*
X164642104Y-56403733D01*
X164786267Y-56547896D01*
X164955785Y-56661164D01*
X165144143Y-56739185D01*
X165344102Y-56778959D01*
X165409551Y-56778959D01*
X165477806Y-56834974D01*
X165609835Y-56905546D01*
X165753096Y-56949003D01*
X165864749Y-56960000D01*
X165864758Y-56960000D01*
X165902081Y-56963676D01*
X165939404Y-56960000D01*
X166195199Y-56960000D01*
X170360001Y-61124803D01*
X170360001Y-66127374D01*
X170220826Y-66052983D01*
X169991986Y-65983566D01*
X169813639Y-65966000D01*
X168536361Y-65966000D01*
X168358014Y-65983566D01*
X168129174Y-66052983D01*
X167918274Y-66165712D01*
X167733419Y-66317419D01*
X167581712Y-66502274D01*
X167468983Y-66713174D01*
X167399566Y-66942014D01*
X167376126Y-67180000D01*
X167399566Y-67417986D01*
X167468983Y-67646826D01*
X167581712Y-67857726D01*
X167733419Y-68042581D01*
X167918274Y-68194288D01*
X168129174Y-68307017D01*
X168358014Y-68376434D01*
X168536361Y-68394000D01*
X168945000Y-68394000D01*
X168945000Y-68656433D01*
X168947654Y-68683377D01*
X168947641Y-68685202D01*
X168948514Y-68694095D01*
X168951622Y-68723667D01*
X168954261Y-68750461D01*
X168954532Y-68751354D01*
X168954940Y-68755237D01*
X168966605Y-68812062D01*
X168977473Y-68869038D01*
X168980056Y-68877593D01*
X168998235Y-68936319D01*
X169020713Y-68989794D01*
X169042441Y-69043573D01*
X169046636Y-69051463D01*
X169075876Y-69105542D01*
X169108308Y-69153624D01*
X169140076Y-69202172D01*
X169145724Y-69209097D01*
X169184911Y-69256466D01*
X169226080Y-69297348D01*
X169266661Y-69338788D01*
X169273547Y-69344484D01*
X169321188Y-69383339D01*
X169369508Y-69415442D01*
X169417357Y-69448205D01*
X169425218Y-69452455D01*
X169479499Y-69481317D01*
X169533087Y-69503404D01*
X169586444Y-69526274D01*
X169594980Y-69528916D01*
X169653834Y-69546685D01*
X169710729Y-69557950D01*
X169767477Y-69570013D01*
X169776364Y-69570947D01*
X169837548Y-69576946D01*
X169865553Y-69576946D01*
X169893392Y-69579966D01*
X169902328Y-69579996D01*
X169904527Y-69579988D01*
X169932291Y-69577164D01*
X169960202Y-69577359D01*
X169969095Y-69576486D01*
X170030237Y-69570060D01*
X170087071Y-69558394D01*
X170144038Y-69547527D01*
X170152593Y-69544944D01*
X170211319Y-69526765D01*
X170264794Y-69504287D01*
X170318573Y-69482559D01*
X170326463Y-69478364D01*
X170360000Y-69460231D01*
X170360000Y-73664807D01*
X170349994Y-73658121D01*
X170177105Y-73586508D01*
X169993567Y-73550000D01*
X169806433Y-73550000D01*
X169622895Y-73586508D01*
X169450006Y-73658121D01*
X169294410Y-73762087D01*
X169162087Y-73894410D01*
X169058121Y-74050006D01*
X168986508Y-74222895D01*
X168950000Y-74406433D01*
X168950000Y-74593567D01*
X168952473Y-74606000D01*
X168536361Y-74606000D01*
X168358014Y-74623566D01*
X168129174Y-74692983D01*
X167918274Y-74805712D01*
X167733419Y-74957419D01*
X167581712Y-75142274D01*
X167468983Y-75353174D01*
X167399566Y-75582014D01*
X167376126Y-75820000D01*
X167399566Y-76057986D01*
X167468983Y-76286826D01*
X167581712Y-76497726D01*
X167733419Y-76682581D01*
X167918274Y-76834288D01*
X168129174Y-76947017D01*
X168358014Y-77016434D01*
X168536361Y-77034000D01*
X169813639Y-77034000D01*
X169991986Y-77016434D01*
X170126340Y-76975679D01*
X170202795Y-77160256D01*
X170316063Y-77329774D01*
X170460226Y-77473937D01*
X170629744Y-77587205D01*
X170818102Y-77665226D01*
X171018061Y-77705000D01*
X171221939Y-77705000D01*
X171421898Y-77665226D01*
X171610256Y-77587205D01*
X171779774Y-77473937D01*
X171923937Y-77329774D01*
X172037205Y-77160256D01*
X172095985Y-77018349D01*
X172157898Y-77037130D01*
X172339335Y-77055000D01*
X173660665Y-77055000D01*
X173842102Y-77037130D01*
X174074901Y-76966511D01*
X174200000Y-76899644D01*
X174200000Y-93713170D01*
X174192130Y-93686994D01*
X173874639Y-93089470D01*
X173865177Y-93075308D01*
X173416481Y-92763124D01*
X171179605Y-95000000D01*
X173416481Y-97236876D01*
X173865177Y-96924692D01*
X174157517Y-96380992D01*
X174150426Y-96453317D01*
X174012967Y-96908605D01*
X173789693Y-97328522D01*
X173489107Y-97697076D01*
X173122659Y-98000228D01*
X172704312Y-98226428D01*
X172249991Y-98367064D01*
X171746285Y-98420005D01*
X171319127Y-98420156D01*
X171665023Y-98386949D01*
X172313006Y-98192130D01*
X172910530Y-97874639D01*
X172924692Y-97865177D01*
X173236876Y-97416481D01*
X171000000Y-95179605D01*
X168763124Y-97416481D01*
X169075308Y-97865177D01*
X169671259Y-98185612D01*
X170318273Y-98383626D01*
X170682230Y-98420380D01*
X116116512Y-98439607D01*
X116665023Y-98386949D01*
X117313006Y-98192130D01*
X117910530Y-97874639D01*
X117924692Y-97865177D01*
X118236876Y-97416481D01*
X116000000Y-95179605D01*
X113763124Y-97416481D01*
X114075308Y-97865177D01*
X114671259Y-98185612D01*
X115318273Y-98383626D01*
X115873473Y-98439693D01*
X115032167Y-98439989D01*
X114526683Y-98390426D01*
X114071395Y-98252967D01*
X113651478Y-98029693D01*
X113282924Y-97729107D01*
X112979772Y-97362659D01*
X112753572Y-96944312D01*
X112612936Y-96489991D01*
X112559981Y-95986151D01*
X112558744Y-95099335D01*
X112613051Y-95665023D01*
X112807870Y-96313006D01*
X113125361Y-96910530D01*
X113134823Y-96924692D01*
X113583519Y-97236876D01*
X115820395Y-95000000D01*
X116179605Y-95000000D01*
X118416481Y-97236876D01*
X118865177Y-96924692D01*
X119185612Y-96328741D01*
X119383626Y-95681727D01*
X119451610Y-95008516D01*
X119386949Y-94334977D01*
X119192130Y-93686994D01*
X118874639Y-93089470D01*
X118865177Y-93075308D01*
X118416481Y-92763124D01*
X116179605Y-95000000D01*
X115820395Y-95000000D01*
X113583519Y-92763124D01*
X113134823Y-93075308D01*
X112814388Y-93671259D01*
X112616374Y-94318273D01*
X112558455Y-94891820D01*
X112555236Y-92583519D01*
X113763124Y-92583519D01*
X116000000Y-94820395D01*
X118236876Y-92583519D01*
X117924692Y-92134823D01*
X117328741Y-91814388D01*
X116681727Y-91616374D01*
X116008516Y-91548390D01*
X115334977Y-91613051D01*
X114686994Y-91807870D01*
X114089470Y-92125361D01*
X114075308Y-92134823D01*
X113763124Y-92583519D01*
X112555236Y-92583519D01*
X112531550Y-75600000D01*
X113921928Y-75600000D01*
X113925000Y-76164250D01*
X114083750Y-76323000D01*
X115283000Y-76323000D01*
X115283000Y-75123750D01*
X115537000Y-75123750D01*
X115537000Y-76323000D01*
X116736250Y-76323000D01*
X116895000Y-76164250D01*
X116898072Y-75600000D01*
X116885812Y-75475518D01*
X116849502Y-75355820D01*
X116790537Y-75245506D01*
X116711185Y-75148815D01*
X116614494Y-75069463D01*
X116504180Y-75010498D01*
X116384482Y-74974188D01*
X116260000Y-74961928D01*
X115695750Y-74965000D01*
X115537000Y-75123750D01*
X115283000Y-75123750D01*
X115124250Y-74965000D01*
X114560000Y-74961928D01*
X114435518Y-74974188D01*
X114315820Y-75010498D01*
X114205506Y-75069463D01*
X114108815Y-75148815D01*
X114029463Y-75245506D01*
X113970498Y-75355820D01*
X113934188Y-75475518D01*
X113921928Y-75600000D01*
X112531550Y-75600000D01*
X112504795Y-56416481D01*
X113763124Y-56416481D01*
X114075308Y-56865177D01*
X114671259Y-57185612D01*
X115318273Y-57383626D01*
X115991484Y-57451610D01*
X116665023Y-57386949D01*
X117313006Y-57192130D01*
X117910530Y-56874639D01*
X117924692Y-56865177D01*
X118236876Y-56416481D01*
X116000000Y-54179605D01*
X113763124Y-56416481D01*
X112504795Y-56416481D01*
X112501412Y-53991484D01*
X112548390Y-53991484D01*
X112613051Y-54665023D01*
X112807870Y-55313006D01*
X113125361Y-55910530D01*
X113134823Y-55924692D01*
X113583519Y-56236876D01*
X115820395Y-54000000D01*
X116179605Y-54000000D01*
X118416481Y-56236876D01*
X118865177Y-55924692D01*
X119185612Y-55328741D01*
X119383626Y-54681727D01*
X119451610Y-54008516D01*
X119386949Y-53334977D01*
X119192130Y-52686994D01*
X118874639Y-52089470D01*
X118865177Y-52075308D01*
X118416481Y-51763124D01*
X116179605Y-54000000D01*
X115820395Y-54000000D01*
X113583519Y-51763124D01*
X113134823Y-52075308D01*
X112814388Y-52671259D01*
X112616374Y-53318273D01*
X112548390Y-53991484D01*
X112501412Y-53991484D01*
X112500045Y-53011821D01*
X112549574Y-52506684D01*
X112687035Y-52051392D01*
X112910308Y-51631477D01*
X112949421Y-51583519D01*
X113763124Y-51583519D01*
X116000000Y-53820395D01*
X118236876Y-51583519D01*
X117924692Y-51134823D01*
X117328741Y-50814388D01*
X116681727Y-50616374D01*
X116008516Y-50548390D01*
X115334977Y-50613051D01*
X114686994Y-50807870D01*
X114089470Y-51125361D01*
X114075308Y-51134823D01*
X113763124Y-51583519D01*
X112949421Y-51583519D01*
X113210893Y-51262924D01*
X113577338Y-50959773D01*
X113995690Y-50733571D01*
X114450008Y-50592936D01*
X114953674Y-50540000D01*
X121208421Y-50540000D01*
X120404956Y-51343466D01*
G37*
%TD.AperFunction*%
D19*
X162048774Y-69655698D02*
X162103152Y-69786976D01*
X162100000Y-69786928D01*
X161975518Y-69799188D01*
X161855820Y-69835498D01*
X161745506Y-69894463D01*
X161648815Y-69973815D01*
X161569463Y-70070506D01*
X161510498Y-70180820D01*
X161474188Y-70300518D01*
X161461928Y-70425000D01*
X161465000Y-70614250D01*
X161623750Y-70773000D01*
X162460500Y-70773000D01*
X162460500Y-70753000D01*
X162707999Y-70753000D01*
X162708000Y-79217198D01*
X162210199Y-79715000D01*
X162148061Y-79715000D01*
X161948102Y-79754774D01*
X161759744Y-79832795D01*
X161590226Y-79946063D01*
X161446063Y-80090226D01*
X161332795Y-80259744D01*
X161254774Y-80448102D01*
X161215000Y-80648061D01*
X161215000Y-80851939D01*
X161254774Y-81051898D01*
X161332795Y-81240256D01*
X161365001Y-81288455D01*
X161365000Y-81643421D01*
X156374952Y-86633470D01*
X156341184Y-86661183D01*
X156313471Y-86694951D01*
X156313468Y-86694954D01*
X156230590Y-86795941D01*
X156148412Y-86949687D01*
X156097805Y-87116510D01*
X156080719Y-87290000D01*
X156085001Y-87333479D01*
X156085001Y-88394498D01*
X156018815Y-88448815D01*
X155939463Y-88545506D01*
X155880498Y-88655820D01*
X155844188Y-88775518D01*
X155831928Y-88900000D01*
X155831928Y-89590000D01*
X155568072Y-89590000D01*
X155568072Y-88900000D01*
X155555812Y-88775518D01*
X155519502Y-88655820D01*
X155460537Y-88545506D01*
X155381185Y-88448815D01*
X155355429Y-88427677D01*
X155427205Y-88320256D01*
X155505226Y-88131898D01*
X155545000Y-87931939D01*
X155545000Y-87728061D01*
X155505226Y-87528102D01*
X155427205Y-87339744D01*
X155313937Y-87170226D01*
X155169774Y-87026063D01*
X155000256Y-86912795D01*
X154811898Y-86834774D01*
X154611939Y-86795000D01*
X154408061Y-86795000D01*
X154291900Y-86818106D01*
X154291900Y-85582211D01*
X154335837Y-85538274D01*
X154449105Y-85368756D01*
X154527126Y-85180398D01*
X154566900Y-84980439D01*
X154566900Y-84776561D01*
X154527126Y-84576602D01*
X154449105Y-84388244D01*
X154335837Y-84218726D01*
X154191674Y-84074563D01*
X154022156Y-83961295D01*
X153833798Y-83883274D01*
X153633839Y-83843500D01*
X153476900Y-83843500D01*
X153476900Y-80768061D01*
X156615000Y-80768061D01*
X156615000Y-80971939D01*
X156654774Y-81171898D01*
X156732795Y-81360256D01*
X156765000Y-81408455D01*
X156765001Y-83037235D01*
X156735000Y-83188061D01*
X156735000Y-83391939D01*
X156774774Y-83591898D01*
X156852795Y-83780256D01*
X156966063Y-83949774D01*
X157110226Y-84093937D01*
X157279744Y-84207205D01*
X157468102Y-84285226D01*
X157668061Y-84325000D01*
X157871939Y-84325000D01*
X158071898Y-84285226D01*
X158260256Y-84207205D01*
X158429774Y-84093937D01*
X158573937Y-83949774D01*
X158687205Y-83780256D01*
X158765226Y-83591898D01*
X158805000Y-83391939D01*
X158805000Y-83188061D01*
X158765226Y-82988102D01*
X158687205Y-82799744D01*
X158573937Y-82630226D01*
X158535000Y-82591289D01*
X158535000Y-81408454D01*
X158567205Y-81360256D01*
X158645226Y-81171898D01*
X158685000Y-80971939D01*
X158685000Y-80768061D01*
X158645226Y-80568102D01*
X158567205Y-80379744D01*
X158453937Y-80210226D01*
X158309774Y-80066063D01*
X158140256Y-79952795D01*
X157951898Y-79874774D01*
X157751939Y-79835000D01*
X157548061Y-79835000D01*
X157348102Y-79874774D01*
X157159744Y-79952795D01*
X156990226Y-80066063D01*
X156846063Y-80210226D01*
X156732795Y-80379744D01*
X156654774Y-80568102D01*
X156615000Y-80768061D01*
X153476900Y-80768061D01*
X153476900Y-74214233D01*
X153480577Y-74176900D01*
X153476325Y-74133724D01*
X153465903Y-74027914D01*
X153422446Y-73884653D01*
X153351874Y-73752624D01*
X153256901Y-73636899D01*
X153227903Y-73613101D01*
X152589802Y-72975000D01*
X161461928Y-72975000D01*
X161474188Y-73099482D01*
X161510498Y-73219180D01*
X161569463Y-73329494D01*
X161648815Y-73426185D01*
X161745506Y-73505537D01*
X161855820Y-73564502D01*
X161975518Y-73600812D01*
X162100000Y-73613072D01*
X162301750Y-73610000D01*
X162460500Y-73451250D01*
X162460500Y-72627000D01*
X161623750Y-72627000D01*
X161465000Y-72785750D01*
X161461928Y-72975000D01*
X152589802Y-72975000D01*
X151905237Y-72290436D01*
X151920215Y-72272186D01*
X152817401Y-71375000D01*
X161461928Y-71375000D01*
X161474188Y-71499482D01*
X161510498Y-71619180D01*
X161553698Y-71700000D01*
X161510498Y-71780820D01*
X161474188Y-71900518D01*
X161461928Y-72025000D01*
X161465000Y-72214250D01*
X161623750Y-72373000D01*
X162460500Y-72373000D01*
X162460500Y-71027000D01*
X161623750Y-71027000D01*
X161465000Y-71185750D01*
X161461928Y-71375000D01*
X152817401Y-71375000D01*
X154698202Y-69494200D01*
X162016650Y-69494200D01*
X162048774Y-69655698D01*
%TA.AperFunction,Conductor*%
D20*
G36*
X162048774Y-69655698D02*
G01*
X162103152Y-69786976D01*
X162100000Y-69786928D01*
X161975518Y-69799188D01*
X161855820Y-69835498D01*
X161745506Y-69894463D01*
X161648815Y-69973815D01*
X161569463Y-70070506D01*
X161510498Y-70180820D01*
X161474188Y-70300518D01*
X161461928Y-70425000D01*
X161465000Y-70614250D01*
X161623750Y-70773000D01*
X162460500Y-70773000D01*
X162460500Y-70753000D01*
X162707999Y-70753000D01*
X162708000Y-79217198D01*
X162210199Y-79715000D01*
X162148061Y-79715000D01*
X161948102Y-79754774D01*
X161759744Y-79832795D01*
X161590226Y-79946063D01*
X161446063Y-80090226D01*
X161332795Y-80259744D01*
X161254774Y-80448102D01*
X161215000Y-80648061D01*
X161215000Y-80851939D01*
X161254774Y-81051898D01*
X161332795Y-81240256D01*
X161365001Y-81288455D01*
X161365000Y-81643421D01*
X156374952Y-86633470D01*
X156341184Y-86661183D01*
X156313471Y-86694951D01*
X156313468Y-86694954D01*
X156230590Y-86795941D01*
X156148412Y-86949687D01*
X156097805Y-87116510D01*
X156080719Y-87290000D01*
X156085001Y-87333479D01*
X156085001Y-88394498D01*
X156018815Y-88448815D01*
X155939463Y-88545506D01*
X155880498Y-88655820D01*
X155844188Y-88775518D01*
X155831928Y-88900000D01*
X155831928Y-89590000D01*
X155568072Y-89590000D01*
X155568072Y-88900000D01*
X155555812Y-88775518D01*
X155519502Y-88655820D01*
X155460537Y-88545506D01*
X155381185Y-88448815D01*
X155355429Y-88427677D01*
X155427205Y-88320256D01*
X155505226Y-88131898D01*
X155545000Y-87931939D01*
X155545000Y-87728061D01*
X155505226Y-87528102D01*
X155427205Y-87339744D01*
X155313937Y-87170226D01*
X155169774Y-87026063D01*
X155000256Y-86912795D01*
X154811898Y-86834774D01*
X154611939Y-86795000D01*
X154408061Y-86795000D01*
X154291900Y-86818106D01*
X154291900Y-85582211D01*
X154335837Y-85538274D01*
X154449105Y-85368756D01*
X154527126Y-85180398D01*
X154566900Y-84980439D01*
X154566900Y-84776561D01*
X154527126Y-84576602D01*
X154449105Y-84388244D01*
X154335837Y-84218726D01*
X154191674Y-84074563D01*
X154022156Y-83961295D01*
X153833798Y-83883274D01*
X153633839Y-83843500D01*
X153476900Y-83843500D01*
X153476900Y-80768061D01*
X156615000Y-80768061D01*
X156615000Y-80971939D01*
X156654774Y-81171898D01*
X156732795Y-81360256D01*
X156765000Y-81408455D01*
X156765001Y-83037235D01*
X156735000Y-83188061D01*
X156735000Y-83391939D01*
X156774774Y-83591898D01*
X156852795Y-83780256D01*
X156966063Y-83949774D01*
X157110226Y-84093937D01*
X157279744Y-84207205D01*
X157468102Y-84285226D01*
X157668061Y-84325000D01*
X157871939Y-84325000D01*
X158071898Y-84285226D01*
X158260256Y-84207205D01*
X158429774Y-84093937D01*
X158573937Y-83949774D01*
X158687205Y-83780256D01*
X158765226Y-83591898D01*
X158805000Y-83391939D01*
X158805000Y-83188061D01*
X158765226Y-82988102D01*
X158687205Y-82799744D01*
X158573937Y-82630226D01*
X158535000Y-82591289D01*
X158535000Y-81408454D01*
X158567205Y-81360256D01*
X158645226Y-81171898D01*
X158685000Y-80971939D01*
X158685000Y-80768061D01*
X158645226Y-80568102D01*
X158567205Y-80379744D01*
X158453937Y-80210226D01*
X158309774Y-80066063D01*
X158140256Y-79952795D01*
X157951898Y-79874774D01*
X157751939Y-79835000D01*
X157548061Y-79835000D01*
X157348102Y-79874774D01*
X157159744Y-79952795D01*
X156990226Y-80066063D01*
X156846063Y-80210226D01*
X156732795Y-80379744D01*
X156654774Y-80568102D01*
X156615000Y-80768061D01*
X153476900Y-80768061D01*
X153476900Y-74214233D01*
X153480577Y-74176900D01*
X153476325Y-74133724D01*
X153465903Y-74027914D01*
X153422446Y-73884653D01*
X153351874Y-73752624D01*
X153256901Y-73636899D01*
X153227903Y-73613101D01*
X152589802Y-72975000D01*
X161461928Y-72975000D01*
X161474188Y-73099482D01*
X161510498Y-73219180D01*
X161569463Y-73329494D01*
X161648815Y-73426185D01*
X161745506Y-73505537D01*
X161855820Y-73564502D01*
X161975518Y-73600812D01*
X162100000Y-73613072D01*
X162301750Y-73610000D01*
X162460500Y-73451250D01*
X162460500Y-72627000D01*
X161623750Y-72627000D01*
X161465000Y-72785750D01*
X161461928Y-72975000D01*
X152589802Y-72975000D01*
X151905237Y-72290436D01*
X151920215Y-72272186D01*
X152817401Y-71375000D01*
X161461928Y-71375000D01*
X161474188Y-71499482D01*
X161510498Y-71619180D01*
X161553698Y-71700000D01*
X161510498Y-71780820D01*
X161474188Y-71900518D01*
X161461928Y-72025000D01*
X161465000Y-72214250D01*
X161623750Y-72373000D01*
X162460500Y-72373000D01*
X162460500Y-71027000D01*
X161623750Y-71027000D01*
X161465000Y-71185750D01*
X161461928Y-71375000D01*
X152817401Y-71375000D01*
X154698202Y-69494200D01*
X162016650Y-69494200D01*
X162048774Y-69655698D01*
G37*
%TD.AperFunction*%
D19*
X141638023Y-79644454D02*
X141636324Y-79661700D01*
X141640000Y-79699022D01*
X141640000Y-79880897D01*
X135309903Y-86210996D01*
X135280899Y-86234799D01*
X135229605Y-86297302D01*
X135185926Y-86350524D01*
X135125808Y-86462997D01*
X135115354Y-86482554D01*
X135071897Y-86625815D01*
X135060900Y-86737468D01*
X135060900Y-86737478D01*
X135057224Y-86774800D01*
X135060900Y-86812123D01*
X135060900Y-88448581D01*
X134964494Y-88369463D01*
X134870000Y-88318954D01*
X134870000Y-86290901D01*
X141538447Y-79622455D01*
X141585947Y-79608046D01*
X141590026Y-79605866D01*
X141638023Y-79644454D01*
%TA.AperFunction,Conductor*%
D20*
G36*
X141638023Y-79644454D02*
G01*
X141636324Y-79661700D01*
X141640000Y-79699022D01*
X141640000Y-79880897D01*
X135309903Y-86210996D01*
X135280899Y-86234799D01*
X135229605Y-86297302D01*
X135185926Y-86350524D01*
X135125808Y-86462997D01*
X135115354Y-86482554D01*
X135071897Y-86625815D01*
X135060900Y-86737468D01*
X135060900Y-86737478D01*
X135057224Y-86774800D01*
X135060900Y-86812123D01*
X135060900Y-88448581D01*
X134964494Y-88369463D01*
X134870000Y-88318954D01*
X134870000Y-86290901D01*
X141538447Y-79622455D01*
X141585947Y-79608046D01*
X141590026Y-79605866D01*
X141638023Y-79644454D01*
G37*
%TD.AperFunction*%
D19*
X129260001Y-66142968D02*
X129256324Y-66180300D01*
X129260001Y-66217633D01*
X129270998Y-66329286D01*
X129279580Y-66357576D01*
X129314454Y-66472546D01*
X129385026Y-66604576D01*
X129437469Y-66668477D01*
X129480000Y-66720301D01*
X129508998Y-66744099D01*
X135137401Y-72372503D01*
X135161199Y-72401501D01*
X135190197Y-72425299D01*
X135276923Y-72496474D01*
X135382052Y-72552667D01*
X135408953Y-72567046D01*
X135552214Y-72610503D01*
X135663867Y-72621500D01*
X135663876Y-72621500D01*
X135701199Y-72625176D01*
X135738522Y-72621500D01*
X136560698Y-72621500D01*
X136083293Y-73098905D01*
X135994613Y-73206961D01*
X135971275Y-73250623D01*
X125107805Y-84114094D01*
X125080000Y-84086289D01*
X125080000Y-82897322D01*
X125083676Y-82859999D01*
X125080000Y-82822676D01*
X125080000Y-82822667D01*
X125069003Y-82711014D01*
X125025546Y-82567753D01*
X124954974Y-82435724D01*
X124920861Y-82394158D01*
X124953698Y-82387626D01*
X125142056Y-82309605D01*
X125311574Y-82196337D01*
X125455737Y-82052174D01*
X125569005Y-81882656D01*
X125647026Y-81694298D01*
X125686800Y-81494339D01*
X125686800Y-81290461D01*
X125647026Y-81090502D01*
X125569005Y-80902144D01*
X125455737Y-80732626D01*
X125411800Y-80688689D01*
X125411800Y-72288061D01*
X127275000Y-72288061D01*
X127275000Y-72491939D01*
X127314774Y-72691898D01*
X127392795Y-72880256D01*
X127506063Y-73049774D01*
X127650226Y-73193937D01*
X127819744Y-73307205D01*
X128008102Y-73385226D01*
X128208061Y-73425000D01*
X128411939Y-73425000D01*
X128611898Y-73385226D01*
X128800256Y-73307205D01*
X128969774Y-73193937D01*
X129113937Y-73049774D01*
X129227205Y-72880256D01*
X129305226Y-72691898D01*
X129345000Y-72491939D01*
X129345000Y-72288061D01*
X129305226Y-72088102D01*
X129227205Y-71899744D01*
X129113937Y-71730226D01*
X128969774Y-71586063D01*
X128800256Y-71472795D01*
X128611898Y-71394774D01*
X128411939Y-71355000D01*
X128208061Y-71355000D01*
X128008102Y-71394774D01*
X127819744Y-71472795D01*
X127650226Y-71586063D01*
X127506063Y-71730226D01*
X127392795Y-71899744D01*
X127314774Y-72088102D01*
X127275000Y-72288061D01*
X125411800Y-72288061D01*
X125411800Y-65153001D01*
X129260001Y-61304801D01*
X129260001Y-66142968D01*
%TA.AperFunction,Conductor*%
D20*
G36*
X129260001Y-66142968D02*
G01*
X129256324Y-66180300D01*
X129260001Y-66217633D01*
X129270998Y-66329286D01*
X129279580Y-66357576D01*
X129314454Y-66472546D01*
X129385026Y-66604576D01*
X129437469Y-66668477D01*
X129480000Y-66720301D01*
X129508998Y-66744099D01*
X135137401Y-72372503D01*
X135161199Y-72401501D01*
X135190197Y-72425299D01*
X135276923Y-72496474D01*
X135382052Y-72552667D01*
X135408953Y-72567046D01*
X135552214Y-72610503D01*
X135663867Y-72621500D01*
X135663876Y-72621500D01*
X135701199Y-72625176D01*
X135738522Y-72621500D01*
X136560698Y-72621500D01*
X136083293Y-73098905D01*
X135994613Y-73206961D01*
X135971275Y-73250623D01*
X125107805Y-84114094D01*
X125080000Y-84086289D01*
X125080000Y-82897322D01*
X125083676Y-82859999D01*
X125080000Y-82822676D01*
X125080000Y-82822667D01*
X125069003Y-82711014D01*
X125025546Y-82567753D01*
X124954974Y-82435724D01*
X124920861Y-82394158D01*
X124953698Y-82387626D01*
X125142056Y-82309605D01*
X125311574Y-82196337D01*
X125455737Y-82052174D01*
X125569005Y-81882656D01*
X125647026Y-81694298D01*
X125686800Y-81494339D01*
X125686800Y-81290461D01*
X125647026Y-81090502D01*
X125569005Y-80902144D01*
X125455737Y-80732626D01*
X125411800Y-80688689D01*
X125411800Y-72288061D01*
X127275000Y-72288061D01*
X127275000Y-72491939D01*
X127314774Y-72691898D01*
X127392795Y-72880256D01*
X127506063Y-73049774D01*
X127650226Y-73193937D01*
X127819744Y-73307205D01*
X128008102Y-73385226D01*
X128208061Y-73425000D01*
X128411939Y-73425000D01*
X128611898Y-73385226D01*
X128800256Y-73307205D01*
X128969774Y-73193937D01*
X129113937Y-73049774D01*
X129227205Y-72880256D01*
X129305226Y-72691898D01*
X129345000Y-72491939D01*
X129345000Y-72288061D01*
X129305226Y-72088102D01*
X129227205Y-71899744D01*
X129113937Y-71730226D01*
X128969774Y-71586063D01*
X128800256Y-71472795D01*
X128611898Y-71394774D01*
X128411939Y-71355000D01*
X128208061Y-71355000D01*
X128008102Y-71394774D01*
X127819744Y-71472795D01*
X127650226Y-71586063D01*
X127506063Y-71730226D01*
X127392795Y-71899744D01*
X127314774Y-72088102D01*
X127275000Y-72288061D01*
X125411800Y-72288061D01*
X125411800Y-65153001D01*
X129260001Y-61304801D01*
X129260001Y-66142968D01*
G37*
%TD.AperFunction*%
D19*
X144065000Y-79362636D02*
X144061324Y-79399920D01*
X144065000Y-79437283D01*
X144065000Y-79437333D01*
X144069469Y-79482710D01*
X144075982Y-79548906D01*
X144075993Y-79548941D01*
X144075997Y-79548986D01*
X144098965Y-79624702D01*
X144119423Y-79692172D01*
X144119442Y-79692208D01*
X144119454Y-79692247D01*
X144153831Y-79756560D01*
X144189982Y-79824209D01*
X144190008Y-79824241D01*
X144190027Y-79824276D01*
X144231470Y-79874774D01*
X144261147Y-79910943D01*
X144261179Y-79910975D01*
X144285000Y-79940001D01*
X144313964Y-79963771D01*
X145960000Y-81610155D01*
X145960000Y-81898689D01*
X145916063Y-81942626D01*
X145802795Y-82112144D01*
X145724774Y-82300502D01*
X145713465Y-82357356D01*
X145406045Y-82664776D01*
X145381898Y-82654774D01*
X145325044Y-82643465D01*
X144156534Y-81474956D01*
X144128817Y-81441183D01*
X143994059Y-81330589D01*
X143840313Y-81248411D01*
X143673490Y-81197805D01*
X143543477Y-81185000D01*
X143543469Y-81185000D01*
X143500000Y-81180719D01*
X143456531Y-81185000D01*
X143248454Y-81185000D01*
X143200256Y-81152795D01*
X143011898Y-81074774D01*
X142811939Y-81035000D01*
X142635503Y-81035000D01*
X142911008Y-80759495D01*
X142940001Y-80735701D01*
X142963795Y-80706708D01*
X142963799Y-80706704D01*
X143034973Y-80619977D01*
X143034974Y-80619976D01*
X143105546Y-80487947D01*
X143149003Y-80344686D01*
X143160000Y-80233033D01*
X143160000Y-80233024D01*
X143163676Y-80195701D01*
X143160000Y-80158378D01*
X143160000Y-79976501D01*
X144065000Y-79071501D01*
X144065000Y-79362636D01*
%TA.AperFunction,Conductor*%
D20*
G36*
X144065000Y-79362636D02*
G01*
X144061324Y-79399920D01*
X144065000Y-79437283D01*
X144065000Y-79437333D01*
X144069469Y-79482710D01*
X144075982Y-79548906D01*
X144075993Y-79548941D01*
X144075997Y-79548986D01*
X144098965Y-79624702D01*
X144119423Y-79692172D01*
X144119442Y-79692208D01*
X144119454Y-79692247D01*
X144153831Y-79756560D01*
X144189982Y-79824209D01*
X144190008Y-79824241D01*
X144190027Y-79824276D01*
X144231470Y-79874774D01*
X144261147Y-79910943D01*
X144261179Y-79910975D01*
X144285000Y-79940001D01*
X144313964Y-79963771D01*
X145960000Y-81610155D01*
X145960000Y-81898689D01*
X145916063Y-81942626D01*
X145802795Y-82112144D01*
X145724774Y-82300502D01*
X145713465Y-82357356D01*
X145406045Y-82664776D01*
X145381898Y-82654774D01*
X145325044Y-82643465D01*
X144156534Y-81474956D01*
X144128817Y-81441183D01*
X143994059Y-81330589D01*
X143840313Y-81248411D01*
X143673490Y-81197805D01*
X143543477Y-81185000D01*
X143543469Y-81185000D01*
X143500000Y-81180719D01*
X143456531Y-81185000D01*
X143248454Y-81185000D01*
X143200256Y-81152795D01*
X143011898Y-81074774D01*
X142811939Y-81035000D01*
X142635503Y-81035000D01*
X142911008Y-80759495D01*
X142940001Y-80735701D01*
X142963795Y-80706708D01*
X142963799Y-80706704D01*
X143034973Y-80619977D01*
X143034974Y-80619976D01*
X143105546Y-80487947D01*
X143149003Y-80344686D01*
X143160000Y-80233033D01*
X143160000Y-80233024D01*
X143163676Y-80195701D01*
X143160000Y-80158378D01*
X143160000Y-79976501D01*
X144065000Y-79071501D01*
X144065000Y-79362636D01*
G37*
%TD.AperFunction*%
D19*
X146311326Y-79506776D02*
X146346519Y-79549658D01*
X146406300Y-79622501D01*
X146435298Y-79646299D01*
X148099600Y-81310602D01*
X148099601Y-82169998D01*
X148077171Y-82192428D01*
X147981153Y-82221554D01*
X147849123Y-82292126D01*
X147778224Y-82350312D01*
X147733399Y-82387099D01*
X147732636Y-82388029D01*
X147715226Y-82300502D01*
X147637205Y-82112144D01*
X147523937Y-81942626D01*
X147480000Y-81898689D01*
X147480000Y-81332772D01*
X147483677Y-81295480D01*
X147480000Y-81258109D01*
X147480000Y-81258067D01*
X147476015Y-81217605D01*
X147469018Y-81146493D01*
X147469007Y-81146458D01*
X147469003Y-81146414D01*
X147446396Y-81071887D01*
X147425577Y-81003228D01*
X147425558Y-81003192D01*
X147425546Y-81003153D01*
X147390488Y-80937565D01*
X147355019Y-80871191D01*
X147354993Y-80871159D01*
X147354974Y-80871124D01*
X147306725Y-80812332D01*
X147283853Y-80784457D01*
X147283827Y-80784431D01*
X147260001Y-80755399D01*
X147231033Y-80731626D01*
X146057371Y-79557716D01*
X146107341Y-79516707D01*
X146213407Y-79410641D01*
X146241587Y-79376304D01*
X146311326Y-79506776D01*
%TA.AperFunction,Conductor*%
D20*
G36*
X146311326Y-79506776D02*
G01*
X146346519Y-79549658D01*
X146406300Y-79622501D01*
X146435298Y-79646299D01*
X148099600Y-81310602D01*
X148099601Y-82169998D01*
X148077171Y-82192428D01*
X147981153Y-82221554D01*
X147849123Y-82292126D01*
X147778224Y-82350312D01*
X147733399Y-82387099D01*
X147732636Y-82388029D01*
X147715226Y-82300502D01*
X147637205Y-82112144D01*
X147523937Y-81942626D01*
X147480000Y-81898689D01*
X147480000Y-81332772D01*
X147483677Y-81295480D01*
X147480000Y-81258109D01*
X147480000Y-81258067D01*
X147476015Y-81217605D01*
X147469018Y-81146493D01*
X147469007Y-81146458D01*
X147469003Y-81146414D01*
X147446396Y-81071887D01*
X147425577Y-81003228D01*
X147425558Y-81003192D01*
X147425546Y-81003153D01*
X147390488Y-80937565D01*
X147355019Y-80871191D01*
X147354993Y-80871159D01*
X147354974Y-80871124D01*
X147306725Y-80812332D01*
X147283853Y-80784457D01*
X147283827Y-80784431D01*
X147260001Y-80755399D01*
X147231033Y-80731626D01*
X146057371Y-79557716D01*
X146107341Y-79516707D01*
X146213407Y-79410641D01*
X146241587Y-79376304D01*
X146311326Y-79506776D01*
G37*
%TD.AperFunction*%
D19*
X146769600Y-73883739D02*
X146809374Y-74083698D01*
X146887395Y-74272056D01*
X147000663Y-74441574D01*
X147098081Y-74538992D01*
X147043448Y-74583828D01*
X146937382Y-74689894D01*
X146848702Y-74797950D01*
X146831024Y-74831024D01*
X146797950Y-74848702D01*
X146689894Y-74937382D01*
X146583828Y-75043448D01*
X146495148Y-75151504D01*
X146477470Y-75184577D01*
X146444397Y-75202255D01*
X146336341Y-75290935D01*
X146230275Y-75397001D01*
X146141595Y-75505057D01*
X146123917Y-75538130D01*
X146090844Y-75555808D01*
X145982788Y-75644488D01*
X145876722Y-75750554D01*
X145788042Y-75858610D01*
X145787111Y-75860352D01*
X145786704Y-75860562D01*
X145706890Y-75924731D01*
X145706890Y-76032187D01*
X145681569Y-76115659D01*
X145677912Y-76152785D01*
X145640786Y-76156442D01*
X145557310Y-76181764D01*
X145449857Y-76181764D01*
X145385688Y-76261578D01*
X145385478Y-76261984D01*
X145383737Y-76262915D01*
X145275681Y-76351595D01*
X145268018Y-76359258D01*
X145267433Y-76359200D01*
X145267422Y-76359200D01*
X145230100Y-76355524D01*
X145192778Y-76359200D01*
X144979822Y-76359200D01*
X144942500Y-76355524D01*
X144905177Y-76359200D01*
X144905167Y-76359200D01*
X144793514Y-76370197D01*
X144650843Y-76413475D01*
X144650253Y-76413654D01*
X144518223Y-76484226D01*
X144462594Y-76529880D01*
X144402499Y-76579199D01*
X144378701Y-76608197D01*
X143390921Y-77595977D01*
X143339850Y-77595977D01*
X143339218Y-77596609D01*
X143332645Y-77529873D01*
X143307323Y-77446397D01*
X143307323Y-77338944D01*
X143227509Y-77274775D01*
X143227103Y-77274565D01*
X143226172Y-77272824D01*
X143137492Y-77164768D01*
X143031426Y-77058702D01*
X142923370Y-76970022D01*
X142890297Y-76952344D01*
X142872619Y-76919271D01*
X142783939Y-76811215D01*
X142677873Y-76705149D01*
X142569817Y-76616469D01*
X142562460Y-76612537D01*
X143899855Y-75275000D01*
X143961939Y-75275000D01*
X144161898Y-75235226D01*
X144350256Y-75157205D01*
X144519774Y-75043937D01*
X144663937Y-74899774D01*
X144777205Y-74730256D01*
X144855226Y-74541898D01*
X144895000Y-74341939D01*
X144895000Y-74138061D01*
X144855226Y-73938102D01*
X144809417Y-73827510D01*
X144852521Y-73763000D01*
X146769600Y-73763000D01*
X146769600Y-73883739D01*
%TA.AperFunction,Conductor*%
D20*
G36*
X146769600Y-73883739D02*
G01*
X146809374Y-74083698D01*
X146887395Y-74272056D01*
X147000663Y-74441574D01*
X147098081Y-74538992D01*
X147043448Y-74583828D01*
X146937382Y-74689894D01*
X146848702Y-74797950D01*
X146831024Y-74831024D01*
X146797950Y-74848702D01*
X146689894Y-74937382D01*
X146583828Y-75043448D01*
X146495148Y-75151504D01*
X146477470Y-75184577D01*
X146444397Y-75202255D01*
X146336341Y-75290935D01*
X146230275Y-75397001D01*
X146141595Y-75505057D01*
X146123917Y-75538130D01*
X146090844Y-75555808D01*
X145982788Y-75644488D01*
X145876722Y-75750554D01*
X145788042Y-75858610D01*
X145787111Y-75860352D01*
X145786704Y-75860562D01*
X145706890Y-75924731D01*
X145706890Y-76032187D01*
X145681569Y-76115659D01*
X145677912Y-76152785D01*
X145640786Y-76156442D01*
X145557310Y-76181764D01*
X145449857Y-76181764D01*
X145385688Y-76261578D01*
X145385478Y-76261984D01*
X145383737Y-76262915D01*
X145275681Y-76351595D01*
X145268018Y-76359258D01*
X145267433Y-76359200D01*
X145267422Y-76359200D01*
X145230100Y-76355524D01*
X145192778Y-76359200D01*
X144979822Y-76359200D01*
X144942500Y-76355524D01*
X144905177Y-76359200D01*
X144905167Y-76359200D01*
X144793514Y-76370197D01*
X144650843Y-76413475D01*
X144650253Y-76413654D01*
X144518223Y-76484226D01*
X144462594Y-76529880D01*
X144402499Y-76579199D01*
X144378701Y-76608197D01*
X143390921Y-77595977D01*
X143339850Y-77595977D01*
X143339218Y-77596609D01*
X143332645Y-77529873D01*
X143307323Y-77446397D01*
X143307323Y-77338944D01*
X143227509Y-77274775D01*
X143227103Y-77274565D01*
X143226172Y-77272824D01*
X143137492Y-77164768D01*
X143031426Y-77058702D01*
X142923370Y-76970022D01*
X142890297Y-76952344D01*
X142872619Y-76919271D01*
X142783939Y-76811215D01*
X142677873Y-76705149D01*
X142569817Y-76616469D01*
X142562460Y-76612537D01*
X143899855Y-75275000D01*
X143961939Y-75275000D01*
X144161898Y-75235226D01*
X144350256Y-75157205D01*
X144519774Y-75043937D01*
X144663937Y-74899774D01*
X144777205Y-74730256D01*
X144855226Y-74541898D01*
X144895000Y-74341939D01*
X144895000Y-74138061D01*
X144855226Y-73938102D01*
X144809417Y-73827510D01*
X144852521Y-73763000D01*
X146769600Y-73763000D01*
X146769600Y-73883739D01*
G37*
%TD.AperFunction*%
D19*
X142426268Y-69733271D02*
X142458695Y-69811556D01*
X142571963Y-69981074D01*
X142716126Y-70125237D01*
X142885644Y-70238505D01*
X143074002Y-70316526D01*
X143273961Y-70356300D01*
X143477839Y-70356300D01*
X143677798Y-70316526D01*
X143866156Y-70238505D01*
X144035674Y-70125237D01*
X144179837Y-69981074D01*
X144293105Y-69811556D01*
X144371126Y-69623198D01*
X144410900Y-69423239D01*
X144410900Y-69219361D01*
X144371126Y-69019402D01*
X144293105Y-68831044D01*
X144265413Y-68789600D01*
X144809899Y-68789600D01*
X145197200Y-69176902D01*
X145197200Y-69239039D01*
X145236974Y-69438998D01*
X145314995Y-69627356D01*
X145428263Y-69796874D01*
X145572426Y-69941037D01*
X145741944Y-70054305D01*
X145930302Y-70132326D01*
X146130261Y-70172100D01*
X146334139Y-70172100D01*
X146534098Y-70132326D01*
X146722456Y-70054305D01*
X146891974Y-69941037D01*
X147036137Y-69796874D01*
X147149405Y-69627356D01*
X147227426Y-69438998D01*
X147267200Y-69239039D01*
X147267200Y-69234738D01*
X147290935Y-69263659D01*
X147397001Y-69369725D01*
X147505057Y-69458405D01*
X147538130Y-69476083D01*
X147555808Y-69509156D01*
X147644488Y-69617212D01*
X147750554Y-69723278D01*
X147858610Y-69811958D01*
X147882481Y-69824718D01*
X147840598Y-69866601D01*
X147811600Y-69890399D01*
X147787802Y-69919397D01*
X147787801Y-69919398D01*
X147716626Y-70006124D01*
X147646054Y-70138154D01*
X147628849Y-70194875D01*
X147602598Y-70281414D01*
X147592847Y-70380414D01*
X147587924Y-70430400D01*
X147591601Y-70467732D01*
X147591600Y-71313977D01*
X147587924Y-71351300D01*
X147591600Y-71388622D01*
X147591600Y-71388632D01*
X147602597Y-71500285D01*
X147636547Y-71612204D01*
X147646054Y-71643546D01*
X147716626Y-71775576D01*
X147729058Y-71790724D01*
X147811599Y-71891301D01*
X147840603Y-71915104D01*
X148166632Y-72241133D01*
X148147678Y-72243000D01*
X144333719Y-72243000D01*
X144276198Y-72219174D01*
X144076239Y-72179400D01*
X143872361Y-72179400D01*
X143672402Y-72219174D01*
X143484044Y-72297195D01*
X143314526Y-72410463D01*
X143189895Y-72535094D01*
X142955000Y-72300199D01*
X142955000Y-72238061D01*
X142915226Y-72038102D01*
X142837205Y-71849744D01*
X142723937Y-71680226D01*
X142579774Y-71536063D01*
X142410256Y-71422795D01*
X142221898Y-71344774D01*
X142021939Y-71305000D01*
X141818061Y-71305000D01*
X141618102Y-71344774D01*
X141429744Y-71422795D01*
X141260226Y-71536063D01*
X141116063Y-71680226D01*
X141002795Y-71849744D01*
X140924774Y-72038102D01*
X140885000Y-72238061D01*
X140885000Y-72358679D01*
X140729136Y-72294118D01*
X140529177Y-72254344D01*
X140325299Y-72254344D01*
X140125340Y-72294118D01*
X139936982Y-72372139D01*
X139789406Y-72470746D01*
X139820000Y-72316939D01*
X139820000Y-72113061D01*
X139780226Y-71913102D01*
X139702205Y-71724744D01*
X139588937Y-71555226D01*
X139466806Y-71433095D01*
X139806704Y-71093198D01*
X139835701Y-71069401D01*
X139876347Y-71019874D01*
X139930674Y-70953677D01*
X140001246Y-70821647D01*
X140013881Y-70779993D01*
X140044703Y-70678386D01*
X140055700Y-70566733D01*
X140055700Y-70566723D01*
X140059376Y-70529400D01*
X140055700Y-70492077D01*
X140055700Y-69807922D01*
X140059376Y-69770599D01*
X140055700Y-69733276D01*
X140055700Y-69733267D01*
X140044703Y-69621614D01*
X140019658Y-69539050D01*
X140044192Y-69509156D01*
X140061870Y-69476083D01*
X140094943Y-69458405D01*
X140202999Y-69369725D01*
X140309065Y-69263659D01*
X140397745Y-69155603D01*
X140415423Y-69122530D01*
X140448496Y-69104852D01*
X140556552Y-69016172D01*
X140662618Y-68910106D01*
X140751298Y-68802050D01*
X140768976Y-68768976D01*
X140802050Y-68751298D01*
X140910106Y-68662618D01*
X141016172Y-68556552D01*
X141104852Y-68448496D01*
X141117615Y-68424617D01*
X142426268Y-69733271D01*
%TA.AperFunction,Conductor*%
D20*
G36*
X142426268Y-69733271D02*
G01*
X142458695Y-69811556D01*
X142571963Y-69981074D01*
X142716126Y-70125237D01*
X142885644Y-70238505D01*
X143074002Y-70316526D01*
X143273961Y-70356300D01*
X143477839Y-70356300D01*
X143677798Y-70316526D01*
X143866156Y-70238505D01*
X144035674Y-70125237D01*
X144179837Y-69981074D01*
X144293105Y-69811556D01*
X144371126Y-69623198D01*
X144410900Y-69423239D01*
X144410900Y-69219361D01*
X144371126Y-69019402D01*
X144293105Y-68831044D01*
X144265413Y-68789600D01*
X144809899Y-68789600D01*
X145197200Y-69176902D01*
X145197200Y-69239039D01*
X145236974Y-69438998D01*
X145314995Y-69627356D01*
X145428263Y-69796874D01*
X145572426Y-69941037D01*
X145741944Y-70054305D01*
X145930302Y-70132326D01*
X146130261Y-70172100D01*
X146334139Y-70172100D01*
X146534098Y-70132326D01*
X146722456Y-70054305D01*
X146891974Y-69941037D01*
X147036137Y-69796874D01*
X147149405Y-69627356D01*
X147227426Y-69438998D01*
X147267200Y-69239039D01*
X147267200Y-69234738D01*
X147290935Y-69263659D01*
X147397001Y-69369725D01*
X147505057Y-69458405D01*
X147538130Y-69476083D01*
X147555808Y-69509156D01*
X147644488Y-69617212D01*
X147750554Y-69723278D01*
X147858610Y-69811958D01*
X147882481Y-69824718D01*
X147840598Y-69866601D01*
X147811600Y-69890399D01*
X147787802Y-69919397D01*
X147787801Y-69919398D01*
X147716626Y-70006124D01*
X147646054Y-70138154D01*
X147628849Y-70194875D01*
X147602598Y-70281414D01*
X147592847Y-70380414D01*
X147587924Y-70430400D01*
X147591601Y-70467732D01*
X147591600Y-71313977D01*
X147587924Y-71351300D01*
X147591600Y-71388622D01*
X147591600Y-71388632D01*
X147602597Y-71500285D01*
X147636547Y-71612204D01*
X147646054Y-71643546D01*
X147716626Y-71775576D01*
X147729058Y-71790724D01*
X147811599Y-71891301D01*
X147840603Y-71915104D01*
X148166632Y-72241133D01*
X148147678Y-72243000D01*
X144333719Y-72243000D01*
X144276198Y-72219174D01*
X144076239Y-72179400D01*
X143872361Y-72179400D01*
X143672402Y-72219174D01*
X143484044Y-72297195D01*
X143314526Y-72410463D01*
X143189895Y-72535094D01*
X142955000Y-72300199D01*
X142955000Y-72238061D01*
X142915226Y-72038102D01*
X142837205Y-71849744D01*
X142723937Y-71680226D01*
X142579774Y-71536063D01*
X142410256Y-71422795D01*
X142221898Y-71344774D01*
X142021939Y-71305000D01*
X141818061Y-71305000D01*
X141618102Y-71344774D01*
X141429744Y-71422795D01*
X141260226Y-71536063D01*
X141116063Y-71680226D01*
X141002795Y-71849744D01*
X140924774Y-72038102D01*
X140885000Y-72238061D01*
X140885000Y-72358679D01*
X140729136Y-72294118D01*
X140529177Y-72254344D01*
X140325299Y-72254344D01*
X140125340Y-72294118D01*
X139936982Y-72372139D01*
X139789406Y-72470746D01*
X139820000Y-72316939D01*
X139820000Y-72113061D01*
X139780226Y-71913102D01*
X139702205Y-71724744D01*
X139588937Y-71555226D01*
X139466806Y-71433095D01*
X139806704Y-71093198D01*
X139835701Y-71069401D01*
X139876347Y-71019874D01*
X139930674Y-70953677D01*
X140001246Y-70821647D01*
X140013881Y-70779993D01*
X140044703Y-70678386D01*
X140055700Y-70566733D01*
X140055700Y-70566723D01*
X140059376Y-70529400D01*
X140055700Y-70492077D01*
X140055700Y-69807922D01*
X140059376Y-69770599D01*
X140055700Y-69733276D01*
X140055700Y-69733267D01*
X140044703Y-69621614D01*
X140019658Y-69539050D01*
X140044192Y-69509156D01*
X140061870Y-69476083D01*
X140094943Y-69458405D01*
X140202999Y-69369725D01*
X140309065Y-69263659D01*
X140397745Y-69155603D01*
X140415423Y-69122530D01*
X140448496Y-69104852D01*
X140556552Y-69016172D01*
X140662618Y-68910106D01*
X140751298Y-68802050D01*
X140768976Y-68768976D01*
X140802050Y-68751298D01*
X140910106Y-68662618D01*
X141016172Y-68556552D01*
X141104852Y-68448496D01*
X141117615Y-68424617D01*
X142426268Y-69733271D01*
G37*
%TD.AperFunction*%
D19*
X133020498Y-60344180D02*
X133079463Y-60454494D01*
X133158815Y-60551185D01*
X133255506Y-60630537D01*
X133365820Y-60689502D01*
X133485518Y-60725812D01*
X133610000Y-60738072D01*
X134207600Y-60738072D01*
X134207601Y-64422375D01*
X134174276Y-64395026D01*
X134076444Y-64342733D01*
X133959774Y-64226063D01*
X133790256Y-64112795D01*
X133601898Y-64034774D01*
X133401939Y-63995000D01*
X133198061Y-63995000D01*
X132998102Y-64034774D01*
X132809744Y-64112795D01*
X132640226Y-64226063D01*
X132496063Y-64370226D01*
X132382795Y-64539744D01*
X132304774Y-64728102D01*
X132265000Y-64928061D01*
X132265000Y-65131939D01*
X132304774Y-65331898D01*
X132382795Y-65520256D01*
X132496063Y-65689774D01*
X132640226Y-65833937D01*
X132809744Y-65947205D01*
X132998102Y-66025226D01*
X133198061Y-66065000D01*
X133401939Y-66065000D01*
X133601898Y-66025226D01*
X133650354Y-66005155D01*
X134345000Y-66699802D01*
X134345000Y-66761939D01*
X134384774Y-66961898D01*
X134462795Y-67150256D01*
X134576063Y-67319774D01*
X134720226Y-67463937D01*
X134889744Y-67577205D01*
X135078102Y-67655226D01*
X135278061Y-67695000D01*
X135340198Y-67695000D01*
X136050000Y-68404803D01*
X136050000Y-68661850D01*
X136046324Y-68699247D01*
X136052756Y-68764418D01*
X136060997Y-68848085D01*
X136061020Y-68848161D01*
X136061027Y-68848231D01*
X136081925Y-68917076D01*
X136104454Y-68991346D01*
X136104490Y-68991413D01*
X136104511Y-68991483D01*
X136139284Y-69056508D01*
X136175026Y-69123375D01*
X136175074Y-69123433D01*
X136175109Y-69123499D01*
X136220933Y-69179313D01*
X136269999Y-69239101D01*
X136299060Y-69262951D01*
X136314218Y-69278103D01*
X136299366Y-69296576D01*
X136299156Y-69296982D01*
X136297415Y-69297913D01*
X136189359Y-69386593D01*
X136083293Y-69492659D01*
X135994613Y-69600715D01*
X135950481Y-69683280D01*
X131740000Y-65472799D01*
X131740000Y-61644801D01*
X132081004Y-61303798D01*
X132110001Y-61280001D01*
X132147527Y-61234276D01*
X132204974Y-61164277D01*
X132275546Y-61032247D01*
X132280117Y-61017177D01*
X132319003Y-60888986D01*
X132330000Y-60777333D01*
X132330000Y-60777323D01*
X132333676Y-60740001D01*
X132330000Y-60702678D01*
X132330000Y-60681046D01*
X132424494Y-60630537D01*
X132521185Y-60551185D01*
X132600537Y-60454494D01*
X132659502Y-60344180D01*
X132671405Y-60304941D01*
X132738061Y-60318200D01*
X132941939Y-60318200D01*
X133008595Y-60304941D01*
X133020498Y-60344180D01*
%TA.AperFunction,Conductor*%
D20*
G36*
X133020498Y-60344180D02*
G01*
X133079463Y-60454494D01*
X133158815Y-60551185D01*
X133255506Y-60630537D01*
X133365820Y-60689502D01*
X133485518Y-60725812D01*
X133610000Y-60738072D01*
X134207600Y-60738072D01*
X134207601Y-64422375D01*
X134174276Y-64395026D01*
X134076444Y-64342733D01*
X133959774Y-64226063D01*
X133790256Y-64112795D01*
X133601898Y-64034774D01*
X133401939Y-63995000D01*
X133198061Y-63995000D01*
X132998102Y-64034774D01*
X132809744Y-64112795D01*
X132640226Y-64226063D01*
X132496063Y-64370226D01*
X132382795Y-64539744D01*
X132304774Y-64728102D01*
X132265000Y-64928061D01*
X132265000Y-65131939D01*
X132304774Y-65331898D01*
X132382795Y-65520256D01*
X132496063Y-65689774D01*
X132640226Y-65833937D01*
X132809744Y-65947205D01*
X132998102Y-66025226D01*
X133198061Y-66065000D01*
X133401939Y-66065000D01*
X133601898Y-66025226D01*
X133650354Y-66005155D01*
X134345000Y-66699802D01*
X134345000Y-66761939D01*
X134384774Y-66961898D01*
X134462795Y-67150256D01*
X134576063Y-67319774D01*
X134720226Y-67463937D01*
X134889744Y-67577205D01*
X135078102Y-67655226D01*
X135278061Y-67695000D01*
X135340198Y-67695000D01*
X136050000Y-68404803D01*
X136050000Y-68661850D01*
X136046324Y-68699247D01*
X136052756Y-68764418D01*
X136060997Y-68848085D01*
X136061020Y-68848161D01*
X136061027Y-68848231D01*
X136081925Y-68917076D01*
X136104454Y-68991346D01*
X136104490Y-68991413D01*
X136104511Y-68991483D01*
X136139284Y-69056508D01*
X136175026Y-69123375D01*
X136175074Y-69123433D01*
X136175109Y-69123499D01*
X136220933Y-69179313D01*
X136269999Y-69239101D01*
X136299060Y-69262951D01*
X136314218Y-69278103D01*
X136299366Y-69296576D01*
X136299156Y-69296982D01*
X136297415Y-69297913D01*
X136189359Y-69386593D01*
X136083293Y-69492659D01*
X135994613Y-69600715D01*
X135950481Y-69683280D01*
X131740000Y-65472799D01*
X131740000Y-61644801D01*
X132081004Y-61303798D01*
X132110001Y-61280001D01*
X132147527Y-61234276D01*
X132204974Y-61164277D01*
X132275546Y-61032247D01*
X132280117Y-61017177D01*
X132319003Y-60888986D01*
X132330000Y-60777333D01*
X132330000Y-60777323D01*
X132333676Y-60740001D01*
X132330000Y-60702678D01*
X132330000Y-60681046D01*
X132424494Y-60630537D01*
X132521185Y-60551185D01*
X132600537Y-60454494D01*
X132659502Y-60344180D01*
X132671405Y-60304941D01*
X132738061Y-60318200D01*
X132941939Y-60318200D01*
X133008595Y-60304941D01*
X133020498Y-60344180D01*
G37*
%TD.AperFunction*%
D19*
X162294997Y-65637015D02*
X162284000Y-65748668D01*
X162284000Y-65748678D01*
X162280324Y-65786000D01*
X162284000Y-65823323D01*
X162284001Y-67974200D01*
X155085000Y-67974200D01*
X155085000Y-67776261D01*
X155045226Y-67576302D01*
X154967205Y-67387944D01*
X154853937Y-67218426D01*
X154709774Y-67074263D01*
X154540256Y-66960995D01*
X154351898Y-66882974D01*
X154151939Y-66843200D01*
X153948061Y-66843200D01*
X153748102Y-66882974D01*
X153583921Y-66950980D01*
X154491080Y-66043822D01*
X154518039Y-66043822D01*
X154717998Y-66004048D01*
X154906356Y-65926027D01*
X155075874Y-65812759D01*
X155119811Y-65768822D01*
X161723856Y-65768822D01*
X161761178Y-65772498D01*
X161798500Y-65768822D01*
X161798511Y-65768822D01*
X161910164Y-65757825D01*
X162053425Y-65714368D01*
X162185454Y-65643796D01*
X162301179Y-65548823D01*
X162324982Y-65519819D01*
X162332971Y-65511830D01*
X162294997Y-65637015D01*
%TA.AperFunction,Conductor*%
D20*
G36*
X162294997Y-65637015D02*
G01*
X162284000Y-65748668D01*
X162284000Y-65748678D01*
X162280324Y-65786000D01*
X162284000Y-65823323D01*
X162284001Y-67974200D01*
X155085000Y-67974200D01*
X155085000Y-67776261D01*
X155045226Y-67576302D01*
X154967205Y-67387944D01*
X154853937Y-67218426D01*
X154709774Y-67074263D01*
X154540256Y-66960995D01*
X154351898Y-66882974D01*
X154151939Y-66843200D01*
X153948061Y-66843200D01*
X153748102Y-66882974D01*
X153583921Y-66950980D01*
X154491080Y-66043822D01*
X154518039Y-66043822D01*
X154717998Y-66004048D01*
X154906356Y-65926027D01*
X155075874Y-65812759D01*
X155119811Y-65768822D01*
X161723856Y-65768822D01*
X161761178Y-65772498D01*
X161798500Y-65768822D01*
X161798511Y-65768822D01*
X161910164Y-65757825D01*
X162053425Y-65714368D01*
X162185454Y-65643796D01*
X162301179Y-65548823D01*
X162324982Y-65519819D01*
X162332971Y-65511830D01*
X162294997Y-65637015D01*
G37*
%TD.AperFunction*%
D19*
X153054774Y-67576302D02*
X153015000Y-67776261D01*
X153015000Y-67819900D01*
X152715002Y-67819900D01*
X153122780Y-67412121D01*
X153054774Y-67576302D01*
%TA.AperFunction,Conductor*%
D20*
G36*
X153054774Y-67576302D02*
G01*
X153015000Y-67776261D01*
X153015000Y-67819900D01*
X152715002Y-67819900D01*
X153122780Y-67412121D01*
X153054774Y-67576302D01*
G37*
%TD.AperFunction*%
D19*
X145030183Y-66983531D02*
X145063257Y-67001209D01*
X145080935Y-67034283D01*
X145169615Y-67142339D01*
X145275681Y-67248405D01*
X145339076Y-67300433D01*
X145273686Y-67280597D01*
X145162033Y-67269600D01*
X145162022Y-67269600D01*
X145124700Y-67265924D01*
X145087378Y-67269600D01*
X144853377Y-67269600D01*
X144916746Y-67151047D01*
X144960203Y-67007786D01*
X144967647Y-66932208D01*
X145030183Y-66983531D01*
%TA.AperFunction,Conductor*%
D20*
G36*
X145030183Y-66983531D02*
G01*
X145063257Y-67001209D01*
X145080935Y-67034283D01*
X145169615Y-67142339D01*
X145275681Y-67248405D01*
X145339076Y-67300433D01*
X145273686Y-67280597D01*
X145162033Y-67269600D01*
X145162022Y-67269600D01*
X145124700Y-67265924D01*
X145087378Y-67269600D01*
X144853377Y-67269600D01*
X144916746Y-67151047D01*
X144960203Y-67007786D01*
X144967647Y-66932208D01*
X145030183Y-66983531D01*
G37*
%TD.AperFunction*%
D19*
X143451200Y-66484400D02*
X143083980Y-66484400D01*
X143172091Y-66396289D01*
X143133378Y-66357576D01*
X143210803Y-66357576D01*
X143274972Y-66277762D01*
X143275182Y-66277356D01*
X143276923Y-66276425D01*
X143384979Y-66187745D01*
X143451200Y-66121524D01*
X143451200Y-66484400D01*
%TA.AperFunction,Conductor*%
D20*
G36*
X143451200Y-66484400D02*
G01*
X143083980Y-66484400D01*
X143172091Y-66396289D01*
X143133378Y-66357576D01*
X143210803Y-66357576D01*
X143274972Y-66277762D01*
X143275182Y-66277356D01*
X143276923Y-66276425D01*
X143384979Y-66187745D01*
X143451200Y-66121524D01*
X143451200Y-66484400D01*
G37*
%TD.AperFunction*%
D19*
X140591928Y-60100000D02*
X140604188Y-60224482D01*
X140640498Y-60344180D01*
X140699463Y-60454494D01*
X140778815Y-60551185D01*
X140875506Y-60630537D01*
X140970001Y-60681046D01*
X140970001Y-61472168D01*
X140966324Y-61509500D01*
X140970001Y-61546833D01*
X140978656Y-61634702D01*
X140980998Y-61658485D01*
X141024454Y-61801746D01*
X141055225Y-61859314D01*
X141000226Y-61896063D01*
X140856063Y-62040226D01*
X140742795Y-62209744D01*
X140664774Y-62398102D01*
X140625000Y-62598061D01*
X140625000Y-62801939D01*
X140664774Y-63001898D01*
X140742795Y-63190256D01*
X140856063Y-63359774D01*
X141000226Y-63503937D01*
X141169744Y-63617205D01*
X141358102Y-63695226D01*
X141558061Y-63735000D01*
X141620199Y-63735000D01*
X141792988Y-63907790D01*
X141723996Y-63928718D01*
X141600715Y-63994613D01*
X141492659Y-64083293D01*
X141386593Y-64189359D01*
X141297913Y-64297415D01*
X141296982Y-64299156D01*
X141296576Y-64299366D01*
X141278192Y-64314146D01*
X141019284Y-64055279D01*
X140995501Y-64026299D01*
X140966475Y-64002478D01*
X140966458Y-64002461D01*
X140941694Y-63982141D01*
X140879776Y-63931326D01*
X140879748Y-63931311D01*
X140879726Y-63931293D01*
X140817003Y-63897772D01*
X140747747Y-63860754D01*
X140747717Y-63860745D01*
X140747691Y-63860731D01*
X140680965Y-63840496D01*
X140604486Y-63817297D01*
X140604452Y-63817294D01*
X140604427Y-63817286D01*
X140540144Y-63810960D01*
X140492833Y-63806300D01*
X140492822Y-63806300D01*
X140455500Y-63802624D01*
X140455471Y-63802627D01*
X140455441Y-63802624D01*
X140418147Y-63806300D01*
X138471022Y-63806300D01*
X138433699Y-63802624D01*
X138396377Y-63806300D01*
X138396367Y-63806300D01*
X138284714Y-63817297D01*
X138141453Y-63860754D01*
X138034998Y-63917656D01*
X138034998Y-62656703D01*
X139701003Y-60990699D01*
X139730001Y-60966901D01*
X139824974Y-60851176D01*
X139895546Y-60719147D01*
X139901535Y-60699405D01*
X139934180Y-60689502D01*
X140044494Y-60630537D01*
X140141185Y-60551185D01*
X140220537Y-60454494D01*
X140279502Y-60344180D01*
X140315812Y-60224482D01*
X140328072Y-60100000D01*
X140328072Y-57035000D01*
X140351939Y-57035000D01*
X140551898Y-56995226D01*
X140591928Y-56978645D01*
X140591928Y-60100000D01*
%TA.AperFunction,Conductor*%
D20*
G36*
X140591928Y-60100000D02*
G01*
X140604188Y-60224482D01*
X140640498Y-60344180D01*
X140699463Y-60454494D01*
X140778815Y-60551185D01*
X140875506Y-60630537D01*
X140970001Y-60681046D01*
X140970001Y-61472168D01*
X140966324Y-61509500D01*
X140970001Y-61546833D01*
X140978656Y-61634702D01*
X140980998Y-61658485D01*
X141024454Y-61801746D01*
X141055225Y-61859314D01*
X141000226Y-61896063D01*
X140856063Y-62040226D01*
X140742795Y-62209744D01*
X140664774Y-62398102D01*
X140625000Y-62598061D01*
X140625000Y-62801939D01*
X140664774Y-63001898D01*
X140742795Y-63190256D01*
X140856063Y-63359774D01*
X141000226Y-63503937D01*
X141169744Y-63617205D01*
X141358102Y-63695226D01*
X141558061Y-63735000D01*
X141620199Y-63735000D01*
X141792988Y-63907790D01*
X141723996Y-63928718D01*
X141600715Y-63994613D01*
X141492659Y-64083293D01*
X141386593Y-64189359D01*
X141297913Y-64297415D01*
X141296982Y-64299156D01*
X141296576Y-64299366D01*
X141278192Y-64314146D01*
X141019284Y-64055279D01*
X140995501Y-64026299D01*
X140966475Y-64002478D01*
X140966458Y-64002461D01*
X140941694Y-63982141D01*
X140879776Y-63931326D01*
X140879748Y-63931311D01*
X140879726Y-63931293D01*
X140817003Y-63897772D01*
X140747747Y-63860754D01*
X140747717Y-63860745D01*
X140747691Y-63860731D01*
X140680965Y-63840496D01*
X140604486Y-63817297D01*
X140604452Y-63817294D01*
X140604427Y-63817286D01*
X140540144Y-63810960D01*
X140492833Y-63806300D01*
X140492822Y-63806300D01*
X140455500Y-63802624D01*
X140455471Y-63802627D01*
X140455441Y-63802624D01*
X140418147Y-63806300D01*
X138471022Y-63806300D01*
X138433699Y-63802624D01*
X138396377Y-63806300D01*
X138396367Y-63806300D01*
X138284714Y-63817297D01*
X138141453Y-63860754D01*
X138034998Y-63917656D01*
X138034998Y-62656703D01*
X139701003Y-60990699D01*
X139730001Y-60966901D01*
X139824974Y-60851176D01*
X139895546Y-60719147D01*
X139901535Y-60699405D01*
X139934180Y-60689502D01*
X140044494Y-60630537D01*
X140141185Y-60551185D01*
X140220537Y-60454494D01*
X140279502Y-60344180D01*
X140315812Y-60224482D01*
X140328072Y-60100000D01*
X140328072Y-57035000D01*
X140351939Y-57035000D01*
X140551898Y-56995226D01*
X140591928Y-56978645D01*
X140591928Y-60100000D01*
G37*
%TD.AperFunction*%
D19*
X160688061Y-57375000D02*
X160891939Y-57375000D01*
X160911928Y-57371024D01*
X160911928Y-60100000D01*
X160924188Y-60224482D01*
X160960498Y-60344180D01*
X161019463Y-60454494D01*
X161098815Y-60551185D01*
X161195506Y-60630537D01*
X161290000Y-60681046D01*
X161290001Y-64248822D01*
X157535434Y-64248822D01*
X157640234Y-64178797D01*
X157784397Y-64034634D01*
X157897665Y-63865116D01*
X157975686Y-63676758D01*
X158015460Y-63476799D01*
X158015460Y-63414661D01*
X160021003Y-61409119D01*
X160050001Y-61385321D01*
X160144974Y-61269596D01*
X160215546Y-61137567D01*
X160259003Y-60994306D01*
X160270000Y-60882653D01*
X160270000Y-60882645D01*
X160273676Y-60845320D01*
X160270000Y-60807995D01*
X160270000Y-60681046D01*
X160364494Y-60630537D01*
X160461185Y-60551185D01*
X160540537Y-60454494D01*
X160599502Y-60344180D01*
X160635812Y-60224482D01*
X160648072Y-60100000D01*
X160648072Y-57367046D01*
X160688061Y-57375000D01*
%TA.AperFunction,Conductor*%
D20*
G36*
X160688061Y-57375000D02*
G01*
X160891939Y-57375000D01*
X160911928Y-57371024D01*
X160911928Y-60100000D01*
X160924188Y-60224482D01*
X160960498Y-60344180D01*
X161019463Y-60454494D01*
X161098815Y-60551185D01*
X161195506Y-60630537D01*
X161290000Y-60681046D01*
X161290001Y-64248822D01*
X157535434Y-64248822D01*
X157640234Y-64178797D01*
X157784397Y-64034634D01*
X157897665Y-63865116D01*
X157975686Y-63676758D01*
X158015460Y-63476799D01*
X158015460Y-63414661D01*
X160021003Y-61409119D01*
X160050001Y-61385321D01*
X160144974Y-61269596D01*
X160215546Y-61137567D01*
X160259003Y-60994306D01*
X160270000Y-60882653D01*
X160270000Y-60882645D01*
X160273676Y-60845320D01*
X160270000Y-60807995D01*
X160270000Y-60681046D01*
X160364494Y-60630537D01*
X160461185Y-60551185D01*
X160540537Y-60454494D01*
X160599502Y-60344180D01*
X160635812Y-60224482D01*
X160648072Y-60100000D01*
X160648072Y-57367046D01*
X160688061Y-57375000D01*
G37*
%TD.AperFunction*%
D19*
X141796900Y-56311928D02*
X141241071Y-56311928D01*
X141245226Y-56301898D01*
X141285000Y-56101939D01*
X141285000Y-55898061D01*
X141245226Y-55698102D01*
X141241071Y-55688072D01*
X141796900Y-55688072D01*
X141796900Y-56311928D01*
%TA.AperFunction,Conductor*%
D20*
G36*
X141796900Y-56311928D02*
G01*
X141241071Y-56311928D01*
X141245226Y-56301898D01*
X141285000Y-56101939D01*
X141285000Y-55898061D01*
X141245226Y-55698102D01*
X141241071Y-55688072D01*
X141796900Y-55688072D01*
X141796900Y-56311928D01*
G37*
%TD.AperFunction*%
%TD*%
M02*
