%TF.GenerationSoftware,KiCad,Pcbnew,5.1.9+dfsg1-1+deb11u1*%
%TF.CreationDate,2025-11-03T12:09:50+01:00*%
%TF.ProjectId,STM32F4XX,53544d33-3246-4345-9858-2e6b69636164,0.4*%
%TF.SameCoordinates,Original*%
%TF.FileFunction,Paste,Bot*%
%TF.FilePolarity,Positive*%
%FSLAX46Y46*%
G04 Gerber Fmt 4.6, Leading zero omitted, Abs format (unit mm)*
G04 Created by KiCad (PCBNEW 5.1.9+dfsg1-1+deb11u1) date 2025-11-03 12:09:50*
%MOMM*%
%LPD*%
G01*
G04 APERTURE LIST*
%ADD10R,1.000000X3.150000*%
G04 APERTURE END LIST*
%TO.C,U1*%
G36*
G01*
X145550090Y-79065522D02*
X144560140Y-78075572D01*
G75*
G02*
X144560140Y-77969506I53033J53033D01*
G01*
X144666206Y-77863440D01*
G75*
G02*
X144772272Y-77863440I53033J-53033D01*
G01*
X145762222Y-78853390D01*
G75*
G02*
X145762222Y-78959456I-53033J-53033D01*
G01*
X145656156Y-79065522D01*
G75*
G02*
X145550090Y-79065522I-53033J53033D01*
G01*
G37*
G36*
G01*
X145903643Y-78711969D02*
X144913693Y-77722019D01*
G75*
G02*
X144913693Y-77615953I53033J53033D01*
G01*
X145019759Y-77509887D01*
G75*
G02*
X145125825Y-77509887I53033J-53033D01*
G01*
X146115775Y-78499837D01*
G75*
G02*
X146115775Y-78605903I-53033J-53033D01*
G01*
X146009709Y-78711969D01*
G75*
G02*
X145903643Y-78711969I-53033J53033D01*
G01*
G37*
G36*
G01*
X146257196Y-78358416D02*
X145267246Y-77368466D01*
G75*
G02*
X145267246Y-77262400I53033J53033D01*
G01*
X145373312Y-77156334D01*
G75*
G02*
X145479378Y-77156334I53033J-53033D01*
G01*
X146469328Y-78146284D01*
G75*
G02*
X146469328Y-78252350I-53033J-53033D01*
G01*
X146363262Y-78358416D01*
G75*
G02*
X146257196Y-78358416I-53033J53033D01*
G01*
G37*
G36*
G01*
X146610750Y-78004862D02*
X145620800Y-77014912D01*
G75*
G02*
X145620800Y-76908846I53033J53033D01*
G01*
X145726866Y-76802780D01*
G75*
G02*
X145832932Y-76802780I53033J-53033D01*
G01*
X146822882Y-77792730D01*
G75*
G02*
X146822882Y-77898796I-53033J-53033D01*
G01*
X146716816Y-78004862D01*
G75*
G02*
X146610750Y-78004862I-53033J53033D01*
G01*
G37*
G36*
G01*
X146964303Y-77651309D02*
X145974353Y-76661359D01*
G75*
G02*
X145974353Y-76555293I53033J53033D01*
G01*
X146080419Y-76449227D01*
G75*
G02*
X146186485Y-76449227I53033J-53033D01*
G01*
X147176435Y-77439177D01*
G75*
G02*
X147176435Y-77545243I-53033J-53033D01*
G01*
X147070369Y-77651309D01*
G75*
G02*
X146964303Y-77651309I-53033J53033D01*
G01*
G37*
G36*
G01*
X147317857Y-77297755D02*
X146327907Y-76307805D01*
G75*
G02*
X146327907Y-76201739I53033J53033D01*
G01*
X146433973Y-76095673D01*
G75*
G02*
X146540039Y-76095673I53033J-53033D01*
G01*
X147529989Y-77085623D01*
G75*
G02*
X147529989Y-77191689I-53033J-53033D01*
G01*
X147423923Y-77297755D01*
G75*
G02*
X147317857Y-77297755I-53033J53033D01*
G01*
G37*
G36*
G01*
X147671410Y-76944202D02*
X146681460Y-75954252D01*
G75*
G02*
X146681460Y-75848186I53033J53033D01*
G01*
X146787526Y-75742120D01*
G75*
G02*
X146893592Y-75742120I53033J-53033D01*
G01*
X147883542Y-76732070D01*
G75*
G02*
X147883542Y-76838136I-53033J-53033D01*
G01*
X147777476Y-76944202D01*
G75*
G02*
X147671410Y-76944202I-53033J53033D01*
G01*
G37*
G36*
G01*
X148024963Y-76590649D02*
X147035013Y-75600699D01*
G75*
G02*
X147035013Y-75494633I53033J53033D01*
G01*
X147141079Y-75388567D01*
G75*
G02*
X147247145Y-75388567I53033J-53033D01*
G01*
X148237095Y-76378517D01*
G75*
G02*
X148237095Y-76484583I-53033J-53033D01*
G01*
X148131029Y-76590649D01*
G75*
G02*
X148024963Y-76590649I-53033J53033D01*
G01*
G37*
G36*
G01*
X148378517Y-76237095D02*
X147388567Y-75247145D01*
G75*
G02*
X147388567Y-75141079I53033J53033D01*
G01*
X147494633Y-75035013D01*
G75*
G02*
X147600699Y-75035013I53033J-53033D01*
G01*
X148590649Y-76024963D01*
G75*
G02*
X148590649Y-76131029I-53033J-53033D01*
G01*
X148484583Y-76237095D01*
G75*
G02*
X148378517Y-76237095I-53033J53033D01*
G01*
G37*
G36*
G01*
X148732070Y-75883542D02*
X147742120Y-74893592D01*
G75*
G02*
X147742120Y-74787526I53033J53033D01*
G01*
X147848186Y-74681460D01*
G75*
G02*
X147954252Y-74681460I53033J-53033D01*
G01*
X148944202Y-75671410D01*
G75*
G02*
X148944202Y-75777476I-53033J-53033D01*
G01*
X148838136Y-75883542D01*
G75*
G02*
X148732070Y-75883542I-53033J53033D01*
G01*
G37*
G36*
G01*
X149085623Y-75529989D02*
X148095673Y-74540039D01*
G75*
G02*
X148095673Y-74433973I53033J53033D01*
G01*
X148201739Y-74327907D01*
G75*
G02*
X148307805Y-74327907I53033J-53033D01*
G01*
X149297755Y-75317857D01*
G75*
G02*
X149297755Y-75423923I-53033J-53033D01*
G01*
X149191689Y-75529989D01*
G75*
G02*
X149085623Y-75529989I-53033J53033D01*
G01*
G37*
G36*
G01*
X149439177Y-75176435D02*
X148449227Y-74186485D01*
G75*
G02*
X148449227Y-74080419I53033J53033D01*
G01*
X148555293Y-73974353D01*
G75*
G02*
X148661359Y-73974353I53033J-53033D01*
G01*
X149651309Y-74964303D01*
G75*
G02*
X149651309Y-75070369I-53033J-53033D01*
G01*
X149545243Y-75176435D01*
G75*
G02*
X149439177Y-75176435I-53033J53033D01*
G01*
G37*
G36*
G01*
X149792730Y-74822882D02*
X148802780Y-73832932D01*
G75*
G02*
X148802780Y-73726866I53033J53033D01*
G01*
X148908846Y-73620800D01*
G75*
G02*
X149014912Y-73620800I53033J-53033D01*
G01*
X150004862Y-74610750D01*
G75*
G02*
X150004862Y-74716816I-53033J-53033D01*
G01*
X149898796Y-74822882D01*
G75*
G02*
X149792730Y-74822882I-53033J53033D01*
G01*
G37*
G36*
G01*
X150146284Y-74469328D02*
X149156334Y-73479378D01*
G75*
G02*
X149156334Y-73373312I53033J53033D01*
G01*
X149262400Y-73267246D01*
G75*
G02*
X149368466Y-73267246I53033J-53033D01*
G01*
X150358416Y-74257196D01*
G75*
G02*
X150358416Y-74363262I-53033J-53033D01*
G01*
X150252350Y-74469328D01*
G75*
G02*
X150146284Y-74469328I-53033J53033D01*
G01*
G37*
G36*
G01*
X150499837Y-74115775D02*
X149509887Y-73125825D01*
G75*
G02*
X149509887Y-73019759I53033J53033D01*
G01*
X149615953Y-72913693D01*
G75*
G02*
X149722019Y-72913693I53033J-53033D01*
G01*
X150711969Y-73903643D01*
G75*
G02*
X150711969Y-74009709I-53033J-53033D01*
G01*
X150605903Y-74115775D01*
G75*
G02*
X150499837Y-74115775I-53033J53033D01*
G01*
G37*
G36*
G01*
X150853390Y-73762222D02*
X149863440Y-72772272D01*
G75*
G02*
X149863440Y-72666206I53033J53033D01*
G01*
X149969506Y-72560140D01*
G75*
G02*
X150075572Y-72560140I53033J-53033D01*
G01*
X151065522Y-73550090D01*
G75*
G02*
X151065522Y-73656156I-53033J-53033D01*
G01*
X150959456Y-73762222D01*
G75*
G02*
X150853390Y-73762222I-53033J53033D01*
G01*
G37*
G36*
G01*
X149969506Y-71039860D02*
X149863440Y-70933794D01*
G75*
G02*
X149863440Y-70827728I53033J53033D01*
G01*
X150853390Y-69837778D01*
G75*
G02*
X150959456Y-69837778I53033J-53033D01*
G01*
X151065522Y-69943844D01*
G75*
G02*
X151065522Y-70049910I-53033J-53033D01*
G01*
X150075572Y-71039860D01*
G75*
G02*
X149969506Y-71039860I-53033J53033D01*
G01*
G37*
G36*
G01*
X149615953Y-70686307D02*
X149509887Y-70580241D01*
G75*
G02*
X149509887Y-70474175I53033J53033D01*
G01*
X150499837Y-69484225D01*
G75*
G02*
X150605903Y-69484225I53033J-53033D01*
G01*
X150711969Y-69590291D01*
G75*
G02*
X150711969Y-69696357I-53033J-53033D01*
G01*
X149722019Y-70686307D01*
G75*
G02*
X149615953Y-70686307I-53033J53033D01*
G01*
G37*
G36*
G01*
X149262400Y-70332754D02*
X149156334Y-70226688D01*
G75*
G02*
X149156334Y-70120622I53033J53033D01*
G01*
X150146284Y-69130672D01*
G75*
G02*
X150252350Y-69130672I53033J-53033D01*
G01*
X150358416Y-69236738D01*
G75*
G02*
X150358416Y-69342804I-53033J-53033D01*
G01*
X149368466Y-70332754D01*
G75*
G02*
X149262400Y-70332754I-53033J53033D01*
G01*
G37*
G36*
G01*
X148908846Y-69979200D02*
X148802780Y-69873134D01*
G75*
G02*
X148802780Y-69767068I53033J53033D01*
G01*
X149792730Y-68777118D01*
G75*
G02*
X149898796Y-68777118I53033J-53033D01*
G01*
X150004862Y-68883184D01*
G75*
G02*
X150004862Y-68989250I-53033J-53033D01*
G01*
X149014912Y-69979200D01*
G75*
G02*
X148908846Y-69979200I-53033J53033D01*
G01*
G37*
G36*
G01*
X148555293Y-69625647D02*
X148449227Y-69519581D01*
G75*
G02*
X148449227Y-69413515I53033J53033D01*
G01*
X149439177Y-68423565D01*
G75*
G02*
X149545243Y-68423565I53033J-53033D01*
G01*
X149651309Y-68529631D01*
G75*
G02*
X149651309Y-68635697I-53033J-53033D01*
G01*
X148661359Y-69625647D01*
G75*
G02*
X148555293Y-69625647I-53033J53033D01*
G01*
G37*
G36*
G01*
X148201739Y-69272093D02*
X148095673Y-69166027D01*
G75*
G02*
X148095673Y-69059961I53033J53033D01*
G01*
X149085623Y-68070011D01*
G75*
G02*
X149191689Y-68070011I53033J-53033D01*
G01*
X149297755Y-68176077D01*
G75*
G02*
X149297755Y-68282143I-53033J-53033D01*
G01*
X148307805Y-69272093D01*
G75*
G02*
X148201739Y-69272093I-53033J53033D01*
G01*
G37*
G36*
G01*
X147848186Y-68918540D02*
X147742120Y-68812474D01*
G75*
G02*
X147742120Y-68706408I53033J53033D01*
G01*
X148732070Y-67716458D01*
G75*
G02*
X148838136Y-67716458I53033J-53033D01*
G01*
X148944202Y-67822524D01*
G75*
G02*
X148944202Y-67928590I-53033J-53033D01*
G01*
X147954252Y-68918540D01*
G75*
G02*
X147848186Y-68918540I-53033J53033D01*
G01*
G37*
G36*
G01*
X147494633Y-68564987D02*
X147388567Y-68458921D01*
G75*
G02*
X147388567Y-68352855I53033J53033D01*
G01*
X148378517Y-67362905D01*
G75*
G02*
X148484583Y-67362905I53033J-53033D01*
G01*
X148590649Y-67468971D01*
G75*
G02*
X148590649Y-67575037I-53033J-53033D01*
G01*
X147600699Y-68564987D01*
G75*
G02*
X147494633Y-68564987I-53033J53033D01*
G01*
G37*
G36*
G01*
X147141079Y-68211433D02*
X147035013Y-68105367D01*
G75*
G02*
X147035013Y-67999301I53033J53033D01*
G01*
X148024963Y-67009351D01*
G75*
G02*
X148131029Y-67009351I53033J-53033D01*
G01*
X148237095Y-67115417D01*
G75*
G02*
X148237095Y-67221483I-53033J-53033D01*
G01*
X147247145Y-68211433D01*
G75*
G02*
X147141079Y-68211433I-53033J53033D01*
G01*
G37*
G36*
G01*
X146787526Y-67857880D02*
X146681460Y-67751814D01*
G75*
G02*
X146681460Y-67645748I53033J53033D01*
G01*
X147671410Y-66655798D01*
G75*
G02*
X147777476Y-66655798I53033J-53033D01*
G01*
X147883542Y-66761864D01*
G75*
G02*
X147883542Y-66867930I-53033J-53033D01*
G01*
X146893592Y-67857880D01*
G75*
G02*
X146787526Y-67857880I-53033J53033D01*
G01*
G37*
G36*
G01*
X146433973Y-67504327D02*
X146327907Y-67398261D01*
G75*
G02*
X146327907Y-67292195I53033J53033D01*
G01*
X147317857Y-66302245D01*
G75*
G02*
X147423923Y-66302245I53033J-53033D01*
G01*
X147529989Y-66408311D01*
G75*
G02*
X147529989Y-66514377I-53033J-53033D01*
G01*
X146540039Y-67504327D01*
G75*
G02*
X146433973Y-67504327I-53033J53033D01*
G01*
G37*
G36*
G01*
X146080419Y-67150773D02*
X145974353Y-67044707D01*
G75*
G02*
X145974353Y-66938641I53033J53033D01*
G01*
X146964303Y-65948691D01*
G75*
G02*
X147070369Y-65948691I53033J-53033D01*
G01*
X147176435Y-66054757D01*
G75*
G02*
X147176435Y-66160823I-53033J-53033D01*
G01*
X146186485Y-67150773D01*
G75*
G02*
X146080419Y-67150773I-53033J53033D01*
G01*
G37*
G36*
G01*
X145726866Y-66797220D02*
X145620800Y-66691154D01*
G75*
G02*
X145620800Y-66585088I53033J53033D01*
G01*
X146610750Y-65595138D01*
G75*
G02*
X146716816Y-65595138I53033J-53033D01*
G01*
X146822882Y-65701204D01*
G75*
G02*
X146822882Y-65807270I-53033J-53033D01*
G01*
X145832932Y-66797220D01*
G75*
G02*
X145726866Y-66797220I-53033J53033D01*
G01*
G37*
G36*
G01*
X145373312Y-66443666D02*
X145267246Y-66337600D01*
G75*
G02*
X145267246Y-66231534I53033J53033D01*
G01*
X146257196Y-65241584D01*
G75*
G02*
X146363262Y-65241584I53033J-53033D01*
G01*
X146469328Y-65347650D01*
G75*
G02*
X146469328Y-65453716I-53033J-53033D01*
G01*
X145479378Y-66443666D01*
G75*
G02*
X145373312Y-66443666I-53033J53033D01*
G01*
G37*
G36*
G01*
X145019759Y-66090113D02*
X144913693Y-65984047D01*
G75*
G02*
X144913693Y-65877981I53033J53033D01*
G01*
X145903643Y-64888031D01*
G75*
G02*
X146009709Y-64888031I53033J-53033D01*
G01*
X146115775Y-64994097D01*
G75*
G02*
X146115775Y-65100163I-53033J-53033D01*
G01*
X145125825Y-66090113D01*
G75*
G02*
X145019759Y-66090113I-53033J53033D01*
G01*
G37*
G36*
G01*
X144666206Y-65736560D02*
X144560140Y-65630494D01*
G75*
G02*
X144560140Y-65524428I53033J53033D01*
G01*
X145550090Y-64534478D01*
G75*
G02*
X145656156Y-64534478I53033J-53033D01*
G01*
X145762222Y-64640544D01*
G75*
G02*
X145762222Y-64746610I-53033J-53033D01*
G01*
X144772272Y-65736560D01*
G75*
G02*
X144666206Y-65736560I-53033J53033D01*
G01*
G37*
G36*
G01*
X142827728Y-65736560D02*
X141837778Y-64746610D01*
G75*
G02*
X141837778Y-64640544I53033J53033D01*
G01*
X141943844Y-64534478D01*
G75*
G02*
X142049910Y-64534478I53033J-53033D01*
G01*
X143039860Y-65524428D01*
G75*
G02*
X143039860Y-65630494I-53033J-53033D01*
G01*
X142933794Y-65736560D01*
G75*
G02*
X142827728Y-65736560I-53033J53033D01*
G01*
G37*
G36*
G01*
X142474175Y-66090113D02*
X141484225Y-65100163D01*
G75*
G02*
X141484225Y-64994097I53033J53033D01*
G01*
X141590291Y-64888031D01*
G75*
G02*
X141696357Y-64888031I53033J-53033D01*
G01*
X142686307Y-65877981D01*
G75*
G02*
X142686307Y-65984047I-53033J-53033D01*
G01*
X142580241Y-66090113D01*
G75*
G02*
X142474175Y-66090113I-53033J53033D01*
G01*
G37*
G36*
G01*
X142120622Y-66443666D02*
X141130672Y-65453716D01*
G75*
G02*
X141130672Y-65347650I53033J53033D01*
G01*
X141236738Y-65241584D01*
G75*
G02*
X141342804Y-65241584I53033J-53033D01*
G01*
X142332754Y-66231534D01*
G75*
G02*
X142332754Y-66337600I-53033J-53033D01*
G01*
X142226688Y-66443666D01*
G75*
G02*
X142120622Y-66443666I-53033J53033D01*
G01*
G37*
G36*
G01*
X141767068Y-66797220D02*
X140777118Y-65807270D01*
G75*
G02*
X140777118Y-65701204I53033J53033D01*
G01*
X140883184Y-65595138D01*
G75*
G02*
X140989250Y-65595138I53033J-53033D01*
G01*
X141979200Y-66585088D01*
G75*
G02*
X141979200Y-66691154I-53033J-53033D01*
G01*
X141873134Y-66797220D01*
G75*
G02*
X141767068Y-66797220I-53033J53033D01*
G01*
G37*
G36*
G01*
X141413515Y-67150773D02*
X140423565Y-66160823D01*
G75*
G02*
X140423565Y-66054757I53033J53033D01*
G01*
X140529631Y-65948691D01*
G75*
G02*
X140635697Y-65948691I53033J-53033D01*
G01*
X141625647Y-66938641D01*
G75*
G02*
X141625647Y-67044707I-53033J-53033D01*
G01*
X141519581Y-67150773D01*
G75*
G02*
X141413515Y-67150773I-53033J53033D01*
G01*
G37*
G36*
G01*
X141059961Y-67504327D02*
X140070011Y-66514377D01*
G75*
G02*
X140070011Y-66408311I53033J53033D01*
G01*
X140176077Y-66302245D01*
G75*
G02*
X140282143Y-66302245I53033J-53033D01*
G01*
X141272093Y-67292195D01*
G75*
G02*
X141272093Y-67398261I-53033J-53033D01*
G01*
X141166027Y-67504327D01*
G75*
G02*
X141059961Y-67504327I-53033J53033D01*
G01*
G37*
G36*
G01*
X140706408Y-67857880D02*
X139716458Y-66867930D01*
G75*
G02*
X139716458Y-66761864I53033J53033D01*
G01*
X139822524Y-66655798D01*
G75*
G02*
X139928590Y-66655798I53033J-53033D01*
G01*
X140918540Y-67645748D01*
G75*
G02*
X140918540Y-67751814I-53033J-53033D01*
G01*
X140812474Y-67857880D01*
G75*
G02*
X140706408Y-67857880I-53033J53033D01*
G01*
G37*
G36*
G01*
X140352855Y-68211433D02*
X139362905Y-67221483D01*
G75*
G02*
X139362905Y-67115417I53033J53033D01*
G01*
X139468971Y-67009351D01*
G75*
G02*
X139575037Y-67009351I53033J-53033D01*
G01*
X140564987Y-67999301D01*
G75*
G02*
X140564987Y-68105367I-53033J-53033D01*
G01*
X140458921Y-68211433D01*
G75*
G02*
X140352855Y-68211433I-53033J53033D01*
G01*
G37*
G36*
G01*
X139999301Y-68564987D02*
X139009351Y-67575037D01*
G75*
G02*
X139009351Y-67468971I53033J53033D01*
G01*
X139115417Y-67362905D01*
G75*
G02*
X139221483Y-67362905I53033J-53033D01*
G01*
X140211433Y-68352855D01*
G75*
G02*
X140211433Y-68458921I-53033J-53033D01*
G01*
X140105367Y-68564987D01*
G75*
G02*
X139999301Y-68564987I-53033J53033D01*
G01*
G37*
G36*
G01*
X139645748Y-68918540D02*
X138655798Y-67928590D01*
G75*
G02*
X138655798Y-67822524I53033J53033D01*
G01*
X138761864Y-67716458D01*
G75*
G02*
X138867930Y-67716458I53033J-53033D01*
G01*
X139857880Y-68706408D01*
G75*
G02*
X139857880Y-68812474I-53033J-53033D01*
G01*
X139751814Y-68918540D01*
G75*
G02*
X139645748Y-68918540I-53033J53033D01*
G01*
G37*
G36*
G01*
X139292195Y-69272093D02*
X138302245Y-68282143D01*
G75*
G02*
X138302245Y-68176077I53033J53033D01*
G01*
X138408311Y-68070011D01*
G75*
G02*
X138514377Y-68070011I53033J-53033D01*
G01*
X139504327Y-69059961D01*
G75*
G02*
X139504327Y-69166027I-53033J-53033D01*
G01*
X139398261Y-69272093D01*
G75*
G02*
X139292195Y-69272093I-53033J53033D01*
G01*
G37*
G36*
G01*
X138938641Y-69625647D02*
X137948691Y-68635697D01*
G75*
G02*
X137948691Y-68529631I53033J53033D01*
G01*
X138054757Y-68423565D01*
G75*
G02*
X138160823Y-68423565I53033J-53033D01*
G01*
X139150773Y-69413515D01*
G75*
G02*
X139150773Y-69519581I-53033J-53033D01*
G01*
X139044707Y-69625647D01*
G75*
G02*
X138938641Y-69625647I-53033J53033D01*
G01*
G37*
G36*
G01*
X138585088Y-69979200D02*
X137595138Y-68989250D01*
G75*
G02*
X137595138Y-68883184I53033J53033D01*
G01*
X137701204Y-68777118D01*
G75*
G02*
X137807270Y-68777118I53033J-53033D01*
G01*
X138797220Y-69767068D01*
G75*
G02*
X138797220Y-69873134I-53033J-53033D01*
G01*
X138691154Y-69979200D01*
G75*
G02*
X138585088Y-69979200I-53033J53033D01*
G01*
G37*
G36*
G01*
X138231534Y-70332754D02*
X137241584Y-69342804D01*
G75*
G02*
X137241584Y-69236738I53033J53033D01*
G01*
X137347650Y-69130672D01*
G75*
G02*
X137453716Y-69130672I53033J-53033D01*
G01*
X138443666Y-70120622D01*
G75*
G02*
X138443666Y-70226688I-53033J-53033D01*
G01*
X138337600Y-70332754D01*
G75*
G02*
X138231534Y-70332754I-53033J53033D01*
G01*
G37*
G36*
G01*
X137877981Y-70686307D02*
X136888031Y-69696357D01*
G75*
G02*
X136888031Y-69590291I53033J53033D01*
G01*
X136994097Y-69484225D01*
G75*
G02*
X137100163Y-69484225I53033J-53033D01*
G01*
X138090113Y-70474175D01*
G75*
G02*
X138090113Y-70580241I-53033J-53033D01*
G01*
X137984047Y-70686307D01*
G75*
G02*
X137877981Y-70686307I-53033J53033D01*
G01*
G37*
G36*
G01*
X137524428Y-71039860D02*
X136534478Y-70049910D01*
G75*
G02*
X136534478Y-69943844I53033J53033D01*
G01*
X136640544Y-69837778D01*
G75*
G02*
X136746610Y-69837778I53033J-53033D01*
G01*
X137736560Y-70827728D01*
G75*
G02*
X137736560Y-70933794I-53033J-53033D01*
G01*
X137630494Y-71039860D01*
G75*
G02*
X137524428Y-71039860I-53033J53033D01*
G01*
G37*
G36*
G01*
X136640544Y-73762222D02*
X136534478Y-73656156D01*
G75*
G02*
X136534478Y-73550090I53033J53033D01*
G01*
X137524428Y-72560140D01*
G75*
G02*
X137630494Y-72560140I53033J-53033D01*
G01*
X137736560Y-72666206D01*
G75*
G02*
X137736560Y-72772272I-53033J-53033D01*
G01*
X136746610Y-73762222D01*
G75*
G02*
X136640544Y-73762222I-53033J53033D01*
G01*
G37*
G36*
G01*
X136994097Y-74115775D02*
X136888031Y-74009709D01*
G75*
G02*
X136888031Y-73903643I53033J53033D01*
G01*
X137877981Y-72913693D01*
G75*
G02*
X137984047Y-72913693I53033J-53033D01*
G01*
X138090113Y-73019759D01*
G75*
G02*
X138090113Y-73125825I-53033J-53033D01*
G01*
X137100163Y-74115775D01*
G75*
G02*
X136994097Y-74115775I-53033J53033D01*
G01*
G37*
G36*
G01*
X137347650Y-74469328D02*
X137241584Y-74363262D01*
G75*
G02*
X137241584Y-74257196I53033J53033D01*
G01*
X138231534Y-73267246D01*
G75*
G02*
X138337600Y-73267246I53033J-53033D01*
G01*
X138443666Y-73373312D01*
G75*
G02*
X138443666Y-73479378I-53033J-53033D01*
G01*
X137453716Y-74469328D01*
G75*
G02*
X137347650Y-74469328I-53033J53033D01*
G01*
G37*
G36*
G01*
X137701204Y-74822882D02*
X137595138Y-74716816D01*
G75*
G02*
X137595138Y-74610750I53033J53033D01*
G01*
X138585088Y-73620800D01*
G75*
G02*
X138691154Y-73620800I53033J-53033D01*
G01*
X138797220Y-73726866D01*
G75*
G02*
X138797220Y-73832932I-53033J-53033D01*
G01*
X137807270Y-74822882D01*
G75*
G02*
X137701204Y-74822882I-53033J53033D01*
G01*
G37*
G36*
G01*
X138054757Y-75176435D02*
X137948691Y-75070369D01*
G75*
G02*
X137948691Y-74964303I53033J53033D01*
G01*
X138938641Y-73974353D01*
G75*
G02*
X139044707Y-73974353I53033J-53033D01*
G01*
X139150773Y-74080419D01*
G75*
G02*
X139150773Y-74186485I-53033J-53033D01*
G01*
X138160823Y-75176435D01*
G75*
G02*
X138054757Y-75176435I-53033J53033D01*
G01*
G37*
G36*
G01*
X138408311Y-75529989D02*
X138302245Y-75423923D01*
G75*
G02*
X138302245Y-75317857I53033J53033D01*
G01*
X139292195Y-74327907D01*
G75*
G02*
X139398261Y-74327907I53033J-53033D01*
G01*
X139504327Y-74433973D01*
G75*
G02*
X139504327Y-74540039I-53033J-53033D01*
G01*
X138514377Y-75529989D01*
G75*
G02*
X138408311Y-75529989I-53033J53033D01*
G01*
G37*
G36*
G01*
X138761864Y-75883542D02*
X138655798Y-75777476D01*
G75*
G02*
X138655798Y-75671410I53033J53033D01*
G01*
X139645748Y-74681460D01*
G75*
G02*
X139751814Y-74681460I53033J-53033D01*
G01*
X139857880Y-74787526D01*
G75*
G02*
X139857880Y-74893592I-53033J-53033D01*
G01*
X138867930Y-75883542D01*
G75*
G02*
X138761864Y-75883542I-53033J53033D01*
G01*
G37*
G36*
G01*
X139115417Y-76237095D02*
X139009351Y-76131029D01*
G75*
G02*
X139009351Y-76024963I53033J53033D01*
G01*
X139999301Y-75035013D01*
G75*
G02*
X140105367Y-75035013I53033J-53033D01*
G01*
X140211433Y-75141079D01*
G75*
G02*
X140211433Y-75247145I-53033J-53033D01*
G01*
X139221483Y-76237095D01*
G75*
G02*
X139115417Y-76237095I-53033J53033D01*
G01*
G37*
G36*
G01*
X139468971Y-76590649D02*
X139362905Y-76484583D01*
G75*
G02*
X139362905Y-76378517I53033J53033D01*
G01*
X140352855Y-75388567D01*
G75*
G02*
X140458921Y-75388567I53033J-53033D01*
G01*
X140564987Y-75494633D01*
G75*
G02*
X140564987Y-75600699I-53033J-53033D01*
G01*
X139575037Y-76590649D01*
G75*
G02*
X139468971Y-76590649I-53033J53033D01*
G01*
G37*
G36*
G01*
X139822524Y-76944202D02*
X139716458Y-76838136D01*
G75*
G02*
X139716458Y-76732070I53033J53033D01*
G01*
X140706408Y-75742120D01*
G75*
G02*
X140812474Y-75742120I53033J-53033D01*
G01*
X140918540Y-75848186D01*
G75*
G02*
X140918540Y-75954252I-53033J-53033D01*
G01*
X139928590Y-76944202D01*
G75*
G02*
X139822524Y-76944202I-53033J53033D01*
G01*
G37*
G36*
G01*
X140176077Y-77297755D02*
X140070011Y-77191689D01*
G75*
G02*
X140070011Y-77085623I53033J53033D01*
G01*
X141059961Y-76095673D01*
G75*
G02*
X141166027Y-76095673I53033J-53033D01*
G01*
X141272093Y-76201739D01*
G75*
G02*
X141272093Y-76307805I-53033J-53033D01*
G01*
X140282143Y-77297755D01*
G75*
G02*
X140176077Y-77297755I-53033J53033D01*
G01*
G37*
G36*
G01*
X140529631Y-77651309D02*
X140423565Y-77545243D01*
G75*
G02*
X140423565Y-77439177I53033J53033D01*
G01*
X141413515Y-76449227D01*
G75*
G02*
X141519581Y-76449227I53033J-53033D01*
G01*
X141625647Y-76555293D01*
G75*
G02*
X141625647Y-76661359I-53033J-53033D01*
G01*
X140635697Y-77651309D01*
G75*
G02*
X140529631Y-77651309I-53033J53033D01*
G01*
G37*
G36*
G01*
X140883184Y-78004862D02*
X140777118Y-77898796D01*
G75*
G02*
X140777118Y-77792730I53033J53033D01*
G01*
X141767068Y-76802780D01*
G75*
G02*
X141873134Y-76802780I53033J-53033D01*
G01*
X141979200Y-76908846D01*
G75*
G02*
X141979200Y-77014912I-53033J-53033D01*
G01*
X140989250Y-78004862D01*
G75*
G02*
X140883184Y-78004862I-53033J53033D01*
G01*
G37*
G36*
G01*
X141236738Y-78358416D02*
X141130672Y-78252350D01*
G75*
G02*
X141130672Y-78146284I53033J53033D01*
G01*
X142120622Y-77156334D01*
G75*
G02*
X142226688Y-77156334I53033J-53033D01*
G01*
X142332754Y-77262400D01*
G75*
G02*
X142332754Y-77368466I-53033J-53033D01*
G01*
X141342804Y-78358416D01*
G75*
G02*
X141236738Y-78358416I-53033J53033D01*
G01*
G37*
G36*
G01*
X141590291Y-78711969D02*
X141484225Y-78605903D01*
G75*
G02*
X141484225Y-78499837I53033J53033D01*
G01*
X142474175Y-77509887D01*
G75*
G02*
X142580241Y-77509887I53033J-53033D01*
G01*
X142686307Y-77615953D01*
G75*
G02*
X142686307Y-77722019I-53033J-53033D01*
G01*
X141696357Y-78711969D01*
G75*
G02*
X141590291Y-78711969I-53033J53033D01*
G01*
G37*
G36*
G01*
X141943844Y-79065522D02*
X141837778Y-78959456D01*
G75*
G02*
X141837778Y-78853390I53033J53033D01*
G01*
X142827728Y-77863440D01*
G75*
G02*
X142933794Y-77863440I53033J-53033D01*
G01*
X143039860Y-77969506D01*
G75*
G02*
X143039860Y-78075572I-53033J-53033D01*
G01*
X142049910Y-79065522D01*
G75*
G02*
X141943844Y-79065522I-53033J53033D01*
G01*
G37*
%TD*%
%TO.C,R3*%
G36*
G01*
X162100000Y-72737500D02*
X162100000Y-72262500D01*
G75*
G02*
X162337500Y-72025000I237500J0D01*
G01*
X162837500Y-72025000D01*
G75*
G02*
X163075000Y-72262500I0J-237500D01*
G01*
X163075000Y-72737500D01*
G75*
G02*
X162837500Y-72975000I-237500J0D01*
G01*
X162337500Y-72975000D01*
G75*
G02*
X162100000Y-72737500I0J237500D01*
G01*
G37*
G36*
G01*
X163925000Y-72737500D02*
X163925000Y-72262500D01*
G75*
G02*
X164162500Y-72025000I237500J0D01*
G01*
X164662500Y-72025000D01*
G75*
G02*
X164900000Y-72262500I0J-237500D01*
G01*
X164900000Y-72737500D01*
G75*
G02*
X164662500Y-72975000I-237500J0D01*
G01*
X164162500Y-72975000D01*
G75*
G02*
X163925000Y-72737500I0J237500D01*
G01*
G37*
%TD*%
%TO.C,R6*%
G36*
G01*
X163075000Y-70662500D02*
X163075000Y-71137500D01*
G75*
G02*
X162837500Y-71375000I-237500J0D01*
G01*
X162337500Y-71375000D01*
G75*
G02*
X162100000Y-71137500I0J237500D01*
G01*
X162100000Y-70662500D01*
G75*
G02*
X162337500Y-70425000I237500J0D01*
G01*
X162837500Y-70425000D01*
G75*
G02*
X163075000Y-70662500I0J-237500D01*
G01*
G37*
G36*
G01*
X164900000Y-70662500D02*
X164900000Y-71137500D01*
G75*
G02*
X164662500Y-71375000I-237500J0D01*
G01*
X164162500Y-71375000D01*
G75*
G02*
X163925000Y-71137500I0J237500D01*
G01*
X163925000Y-70662500D01*
G75*
G02*
X164162500Y-70425000I237500J0D01*
G01*
X164662500Y-70425000D01*
G75*
G02*
X164900000Y-70662500I0J-237500D01*
G01*
G37*
%TD*%
D10*
%TO.C,J2*%
X162050000Y-95525000D03*
X162050000Y-90475000D03*
X159510000Y-95525000D03*
X159510000Y-90475000D03*
X156970000Y-95525000D03*
X156970000Y-90475000D03*
X154430000Y-95525000D03*
X154430000Y-90475000D03*
X151890000Y-95525000D03*
X151890000Y-90475000D03*
X149350000Y-95525000D03*
X149350000Y-90475000D03*
X146810000Y-95525000D03*
X146810000Y-90475000D03*
X144270000Y-95525000D03*
X144270000Y-90475000D03*
X141730000Y-95525000D03*
X141730000Y-90475000D03*
X139190000Y-95525000D03*
X139190000Y-90475000D03*
X136650000Y-95525000D03*
X136650000Y-90475000D03*
X134110000Y-95525000D03*
X134110000Y-90475000D03*
X131570000Y-95525000D03*
X131570000Y-90475000D03*
X129030000Y-95525000D03*
X129030000Y-90475000D03*
X126490000Y-95525000D03*
X126490000Y-90475000D03*
X123950000Y-95525000D03*
X123950000Y-90475000D03*
%TD*%
%TO.C,J4*%
X123950000Y-53475000D03*
X123950000Y-58525000D03*
X126490000Y-53475000D03*
X126490000Y-58525000D03*
X129030000Y-53475000D03*
X129030000Y-58525000D03*
X131570000Y-53475000D03*
X131570000Y-58525000D03*
X134110000Y-53475000D03*
X134110000Y-58525000D03*
X136650000Y-53475000D03*
X136650000Y-58525000D03*
X139190000Y-53475000D03*
X139190000Y-58525000D03*
X141730000Y-53475000D03*
X141730000Y-58525000D03*
X144270000Y-53475000D03*
X144270000Y-58525000D03*
X146810000Y-53475000D03*
X146810000Y-58525000D03*
X149350000Y-53475000D03*
X149350000Y-58525000D03*
X151890000Y-53475000D03*
X151890000Y-58525000D03*
X154430000Y-53475000D03*
X154430000Y-58525000D03*
X156970000Y-53475000D03*
X156970000Y-58525000D03*
X159510000Y-53475000D03*
X159510000Y-58525000D03*
X162050000Y-53475000D03*
X162050000Y-58525000D03*
%TD*%
M02*
