%TF.GenerationSoftware,KiCad,Pcbnew,5.1.9+dfsg1-1*%
%TF.CreationDate,2022-01-11T09:27:10+01:00*%
%TF.ProjectId,STM32F4XX,53544d33-3246-4345-9858-2e6b69636164,1.0*%
%TF.SameCoordinates,Original*%
%TF.FileFunction,Copper,L2,Bot*%
%TF.FilePolarity,Positive*%
%FSLAX46Y46*%
G04 Gerber Fmt 4.6, Leading zero omitted, Abs format (unit mm)*
G04 Created by KiCad (PCBNEW 5.1.9+dfsg1-1) date 2022-01-11 09:27:10*
%MOMM*%
%LPD*%
G01*
G04 APERTURE LIST*
%TA.AperFunction,ComponentPad*%
%ADD10C,1.700000*%
%TD*%
%TA.AperFunction,ComponentPad*%
%ADD11O,1.700000X1.700000*%
%TD*%
%TA.AperFunction,ComponentPad*%
%ADD12R,1.700000X1.700000*%
%TD*%
%TA.AperFunction,ComponentPad*%
%ADD13C,5.600000*%
%TD*%
%TA.AperFunction,ViaPad*%
%ADD14C,0.800000*%
%TD*%
%TA.AperFunction,Conductor*%
%ADD15C,0.250000*%
%TD*%
%TA.AperFunction,Conductor*%
%ADD16C,0.254000*%
%TD*%
%TA.AperFunction,Conductor*%
%ADD17C,0.100000*%
%TD*%
G04 APERTURE END LIST*
D10*
%TO.P,J5,10*%
%TO.N,Net-(J5-Pad10)*%
X171760000Y-81640000D03*
%TO.P,J5,8*%
%TO.N,+3V3*%
X171760000Y-84180000D03*
%TO.P,J5,6*%
%TO.N,GND*%
X171760000Y-86720000D03*
%TO.P,J5,4*%
%TO.N,A13*%
X171760000Y-89260000D03*
%TO.P,J5,2*%
%TO.N,A14*%
X171760000Y-91800000D03*
%TO.P,J5,9*%
%TO.N,Net-(J5-Pad9)*%
X174300000Y-81640000D03*
%TO.P,J5,7*%
%TO.N,Net-(J5-Pad7)*%
X174300000Y-84180000D03*
%TO.P,J5,5*%
%TO.N,GND*%
X174300000Y-86720000D03*
%TO.P,J5,3*%
%TO.N,Net-(J5-Pad3)*%
X174300000Y-89260000D03*
%TO.P,J5,1*%
%TO.N,Net-(J5-Pad1)*%
%TA.AperFunction,ComponentPad*%
G36*
G01*
X175150000Y-91200000D02*
X175150000Y-92400000D01*
G75*
G02*
X174900000Y-92650000I-250000J0D01*
G01*
X173700000Y-92650000D01*
G75*
G02*
X173450000Y-92400000I0J250000D01*
G01*
X173450000Y-91200000D01*
G75*
G02*
X173700000Y-90950000I250000J0D01*
G01*
X174900000Y-90950000D01*
G75*
G02*
X175150000Y-91200000I0J-250000D01*
G01*
G37*
%TD.AperFunction*%
%TD*%
D11*
%TO.P,J1,3*%
%TO.N,A3*%
X175800000Y-119380000D03*
%TO.P,J1,2*%
%TO.N,A2*%
X175800000Y-116840000D03*
D12*
%TO.P,J1,1*%
%TO.N,GND*%
X175800000Y-114300000D03*
%TD*%
D11*
%TO.P,J2,32*%
%TO.N,VCC*%
X128400000Y-118960000D03*
%TO.P,J2,31*%
X128400000Y-121500000D03*
%TO.P,J2,30*%
X130940000Y-118960000D03*
%TO.P,J2,29*%
%TO.N,GND*%
X130940000Y-121500000D03*
%TO.P,J2,28*%
X133480000Y-118960000D03*
%TO.P,J2,27*%
X133480000Y-121500000D03*
%TO.P,J2,26*%
%TO.N,Net-(J2-Pad26)*%
X136020000Y-118960000D03*
%TO.P,J2,25*%
%TO.N,Net-(J2-Pad25)*%
X136020000Y-121500000D03*
%TO.P,J2,24*%
%TO.N,Net-(J2-Pad24)*%
X138560000Y-118960000D03*
%TO.P,J2,23*%
%TO.N,Net-(J2-Pad23)*%
X138560000Y-121500000D03*
%TO.P,J2,22*%
%TO.N,Net-(J2-Pad22)*%
X141100000Y-118960000D03*
%TO.P,J2,21*%
%TO.N,Net-(J2-Pad21)*%
X141100000Y-121500000D03*
%TO.P,J2,20*%
%TO.N,Net-(J2-Pad20)*%
X143640000Y-118960000D03*
%TO.P,J2,19*%
%TO.N,+3V3*%
X143640000Y-121500000D03*
%TO.P,J2,18*%
X146180000Y-118960000D03*
%TO.P,J2,17*%
X146180000Y-121500000D03*
%TO.P,J2,16*%
%TO.N,A0*%
X148720000Y-118960000D03*
%TO.P,J2,15*%
%TO.N,A1*%
X148720000Y-121500000D03*
%TO.P,J2,14*%
%TO.N,A2*%
X151260000Y-118960000D03*
%TO.P,J2,13*%
%TO.N,A3*%
X151260000Y-121500000D03*
%TO.P,J2,12*%
%TO.N,A4*%
X153800000Y-118960000D03*
%TO.P,J2,11*%
%TO.N,A5*%
X153800000Y-121500000D03*
%TO.P,J2,10*%
%TO.N,A6*%
X156340000Y-118960000D03*
%TO.P,J2,9*%
%TO.N,A7*%
X156340000Y-121500000D03*
%TO.P,J2,8*%
%TO.N,A8*%
X158880000Y-118960000D03*
%TO.P,J2,7*%
%TO.N,A9*%
X158880000Y-121500000D03*
%TO.P,J2,6*%
%TO.N,A10*%
X161420000Y-118960000D03*
%TO.P,J2,5*%
%TO.N,A11*%
X161420000Y-121500000D03*
%TO.P,J2,4*%
%TO.N,A12*%
X163960000Y-118960000D03*
%TO.P,J2,3*%
%TO.N,A13*%
X163960000Y-121500000D03*
%TO.P,J2,2*%
%TO.N,A14*%
X166500000Y-118960000D03*
D12*
%TO.P,J2,1*%
%TO.N,A15*%
X166500000Y-121500000D03*
%TD*%
D11*
%TO.P,J4,32*%
%TO.N,C15*%
X129400000Y-58420000D03*
%TO.P,J4,31*%
%TO.N,C14*%
X129400000Y-60960000D03*
%TO.P,J4,30*%
%TO.N,C13*%
X131940000Y-58420000D03*
%TO.P,J4,29*%
%TO.N,C12*%
X131940000Y-60960000D03*
%TO.P,J4,28*%
%TO.N,C11*%
X134480000Y-58420000D03*
%TO.P,J4,27*%
%TO.N,C10*%
X134480000Y-60960000D03*
%TO.P,J4,26*%
%TO.N,C9*%
X137020000Y-58420000D03*
%TO.P,J4,25*%
%TO.N,C8*%
X137020000Y-60960000D03*
%TO.P,J4,24*%
%TO.N,C7*%
X139560000Y-58420000D03*
%TO.P,J4,23*%
%TO.N,C6*%
X139560000Y-60960000D03*
%TO.P,J4,22*%
%TO.N,C5*%
X142100000Y-58420000D03*
%TO.P,J4,21*%
%TO.N,C4*%
X142100000Y-60960000D03*
%TO.P,J4,20*%
%TO.N,C3*%
X144640000Y-58420000D03*
%TO.P,J4,19*%
%TO.N,C2*%
X144640000Y-60960000D03*
%TO.P,J4,18*%
%TO.N,C1*%
X147180000Y-58420000D03*
%TO.P,J4,17*%
%TO.N,C0*%
X147180000Y-60960000D03*
%TO.P,J4,16*%
%TO.N,B0*%
X149720000Y-58420000D03*
%TO.P,J4,15*%
%TO.N,B1*%
X149720000Y-60960000D03*
%TO.P,J4,14*%
%TO.N,B2*%
X152260000Y-58420000D03*
%TO.P,J4,13*%
%TO.N,B3*%
X152260000Y-60960000D03*
%TO.P,J4,12*%
%TO.N,B4*%
X154800000Y-58420000D03*
%TO.P,J4,11*%
%TO.N,B5*%
X154800000Y-60960000D03*
%TO.P,J4,10*%
%TO.N,B6*%
X157340000Y-58420000D03*
%TO.P,J4,9*%
%TO.N,B7*%
X157340000Y-60960000D03*
%TO.P,J4,8*%
%TO.N,B8*%
X159880000Y-58420000D03*
%TO.P,J4,7*%
%TO.N,B9*%
X159880000Y-60960000D03*
%TO.P,J4,6*%
%TO.N,B10*%
X162420000Y-58420000D03*
%TO.P,J4,5*%
%TO.N,B12*%
X162420000Y-60960000D03*
%TO.P,J4,4*%
%TO.N,B13*%
X164960000Y-58420000D03*
%TO.P,J4,3*%
%TO.N,B14*%
X164960000Y-60960000D03*
%TO.P,J4,2*%
%TO.N,B15*%
X167500000Y-58420000D03*
D12*
%TO.P,J4,1*%
%TO.N,D2*%
X167500000Y-60960000D03*
%TD*%
D13*
%TO.P,H2,1*%
%TO.N,GND*%
X120500000Y-59500000D03*
%TD*%
%TO.P,H1,1*%
%TO.N,GND*%
X174000000Y-59500000D03*
%TD*%
%TO.P,H3,1*%
%TO.N,GND*%
X120500000Y-121000000D03*
%TD*%
D14*
%TO.N,GND*%
X154241900Y-97102700D03*
X145679400Y-97103300D03*
%TO.N,+3V3*%
X142901000Y-78585300D03*
X155460600Y-94390300D03*
X145929800Y-79259700D03*
X146900000Y-90619600D03*
X148140400Y-93993400D03*
%TO.N,A2*%
X142701800Y-106783700D03*
%TO.N,C15*%
X142199500Y-83829600D03*
%TO.N,C14*%
X141454200Y-81939300D03*
%TO.N,C13*%
X142456300Y-81915600D03*
%TO.N,C12*%
X149101300Y-82026300D03*
%TO.N,C9*%
X154342500Y-80738400D03*
%TO.N,C8*%
X157704300Y-89574600D03*
%TO.N,C7*%
X150352700Y-83464200D03*
%TO.N,C6*%
X151060200Y-84171600D03*
%TO.N,C5*%
X150150000Y-89120600D03*
%TO.N,C4*%
X149400000Y-88368200D03*
%TO.N,C3*%
X146676400Y-82508000D03*
X143440000Y-74417400D03*
%TO.N,C2*%
X142574400Y-87326300D03*
X144580600Y-80634800D03*
%TO.N,C0*%
X142587400Y-86228600D03*
X145663300Y-77326600D03*
%TO.N,B0*%
X150400000Y-93379700D03*
%TO.N,B1*%
X149386800Y-87312600D03*
%TO.N,B2*%
X151637100Y-89665500D03*
%TO.N,B5*%
X149267500Y-73883400D03*
X151026000Y-72847700D03*
%TO.N,B7*%
X152262700Y-87673900D03*
%TO.N,B8*%
X147400000Y-76351300D03*
%TO.N,B9*%
X147810000Y-72857100D03*
X151476300Y-71847300D03*
%TO.N,B10*%
X151708800Y-93382800D03*
%TO.N,B12*%
X155325000Y-90829500D03*
%TO.N,B13*%
X156703900Y-89539300D03*
%TO.N,B14*%
X153939400Y-88733000D03*
%TO.N,B15*%
X156711000Y-88424000D03*
%TD*%
D15*
%TO.N,GND*%
X173090600Y-86720000D02*
X174300000Y-86720000D01*
X171760000Y-86720000D02*
X173090600Y-86720000D01*
X173090600Y-86720000D02*
X173090600Y-60409400D01*
X173090600Y-60409400D02*
X174000000Y-59500000D01*
X154241900Y-97102700D02*
X161377300Y-97102700D01*
X161377300Y-97102700D02*
X171760000Y-86720000D01*
X145679400Y-97103300D02*
X145680000Y-97102700D01*
X145680000Y-97102700D02*
X154241900Y-97102700D01*
X145679400Y-97103300D02*
X133480000Y-109302700D01*
X133480000Y-109302700D02*
X133480000Y-117784700D01*
X130940000Y-121500000D02*
X129764700Y-121500000D01*
X120500000Y-121000000D02*
X121175300Y-120324700D01*
X121175300Y-120324700D02*
X128956800Y-120324700D01*
X128956800Y-120324700D02*
X129764700Y-121132600D01*
X129764700Y-121132600D02*
X129764700Y-121500000D01*
X133480000Y-118960000D02*
X133480000Y-117784700D01*
X133480000Y-121500000D02*
X130940000Y-121500000D01*
%TO.N,+3V3*%
X145929800Y-79259700D02*
X145929800Y-89649400D01*
X145929800Y-89649400D02*
X146900000Y-90619600D01*
X145929800Y-79259700D02*
X143575400Y-79259700D01*
X143575400Y-79259700D02*
X142901000Y-78585300D01*
X171760000Y-84180000D02*
X161549700Y-94390300D01*
X161549700Y-94390300D02*
X155460600Y-94390300D01*
X155460600Y-94390300D02*
X155279100Y-94571800D01*
X155279100Y-94571800D02*
X148718800Y-94571800D01*
X148718800Y-94571800D02*
X148140400Y-93993400D01*
X147763600Y-93993400D02*
X132303000Y-109454000D01*
X132303000Y-109454000D02*
X132303000Y-119484000D01*
X132303000Y-119484000D02*
X133143700Y-120324700D01*
X133143700Y-120324700D02*
X141656800Y-120324700D01*
X141656800Y-120324700D02*
X142464700Y-121132600D01*
X142464700Y-121132600D02*
X142464700Y-121500000D01*
X148140400Y-93993400D02*
X147763600Y-93993400D01*
X146900000Y-90619600D02*
X146900000Y-93129800D01*
X146900000Y-93129800D02*
X147763600Y-93993400D01*
X143640000Y-121500000D02*
X142464700Y-121500000D01*
%TO.N,A3*%
X175800000Y-119380000D02*
X174624700Y-119380000D01*
X151260000Y-121500000D02*
X152435300Y-121500000D01*
X152435300Y-121500000D02*
X152435300Y-121132600D01*
X152435300Y-121132600D02*
X153356800Y-120211100D01*
X153356800Y-120211100D02*
X173793600Y-120211100D01*
X173793600Y-120211100D02*
X174624700Y-119380000D01*
%TO.N,A2*%
X152204700Y-116840000D02*
X152204700Y-116286600D01*
X152204700Y-116286600D02*
X142701800Y-106783700D01*
X152204700Y-116840000D02*
X151260000Y-117784700D01*
X175800000Y-116840000D02*
X152204700Y-116840000D01*
X151260000Y-118960000D02*
X151260000Y-117784700D01*
%TO.N,C15*%
X142199500Y-83829600D02*
X128184400Y-69814500D01*
X128184400Y-69814500D02*
X128184400Y-60443600D01*
X128184400Y-60443600D02*
X129032700Y-59595300D01*
X129032700Y-59595300D02*
X129400000Y-59595300D01*
X129400000Y-58420000D02*
X129400000Y-59595300D01*
%TO.N,C14*%
X141454200Y-81939300D02*
X129400000Y-69885100D01*
X129400000Y-69885100D02*
X129400000Y-60960000D01*
%TO.N,C13*%
X142456300Y-81915600D02*
X130728800Y-70188100D01*
X130728800Y-70188100D02*
X130728800Y-60439200D01*
X130728800Y-60439200D02*
X131572700Y-59595300D01*
X131572700Y-59595300D02*
X131940000Y-59595300D01*
X131940000Y-58420000D02*
X131940000Y-59595300D01*
%TO.N,C12*%
X131940000Y-62135300D02*
X132222100Y-62135300D01*
X132222100Y-62135300D02*
X144165400Y-74078600D01*
X144165400Y-74078600D02*
X144165400Y-74164600D01*
X144165400Y-74164600D02*
X149101300Y-79100500D01*
X149101300Y-79100500D02*
X149101300Y-82026300D01*
X131940000Y-60960000D02*
X131940000Y-62135300D01*
%TO.N,C9*%
X137020000Y-58420000D02*
X138195300Y-58420000D01*
X138195300Y-58420000D02*
X138195300Y-58052700D01*
X138195300Y-58052700D02*
X139479700Y-56768300D01*
X139479700Y-56768300D02*
X152324000Y-56768300D01*
X152324000Y-56768300D02*
X153594700Y-58039000D01*
X153594700Y-58039000D02*
X153594700Y-58879000D01*
X153594700Y-58879000D02*
X154500300Y-59784600D01*
X154500300Y-59784600D02*
X155325600Y-59784600D01*
X155325600Y-59784600D02*
X155976900Y-60435900D01*
X155976900Y-60435900D02*
X155976900Y-79104000D01*
X155976900Y-79104000D02*
X154342500Y-80738400D01*
%TO.N,C8*%
X157704300Y-89574600D02*
X153167400Y-94111500D01*
X153167400Y-94111500D02*
X150068900Y-94111500D01*
X150068900Y-94111500D02*
X148652300Y-92694900D01*
X148652300Y-92694900D02*
X148652300Y-83729500D01*
X148652300Y-83729500D02*
X149826600Y-82555200D01*
X149826600Y-82555200D02*
X149826600Y-77739600D01*
X149826600Y-77739600D02*
X147473000Y-75386000D01*
X147473000Y-75386000D02*
X147402500Y-75386000D01*
X147402500Y-75386000D02*
X137020000Y-65003500D01*
X137020000Y-65003500D02*
X137020000Y-60960000D01*
%TO.N,C7*%
X139560000Y-59595300D02*
X139192700Y-59595300D01*
X139192700Y-59595300D02*
X138355300Y-60432700D01*
X138355300Y-60432700D02*
X138355300Y-65701900D01*
X138355300Y-65701900D02*
X147589100Y-74935700D01*
X147589100Y-74935700D02*
X147659600Y-74935700D01*
X147659600Y-74935700D02*
X150352700Y-77628800D01*
X150352700Y-77628800D02*
X150352700Y-83464200D01*
X139560000Y-58420000D02*
X139560000Y-59595300D01*
%TO.N,C6*%
X151060200Y-84171600D02*
X151078000Y-84153800D01*
X151078000Y-84153800D02*
X151078000Y-77717200D01*
X151078000Y-77717200D02*
X147846200Y-74485400D01*
X147846200Y-74485400D02*
X147775700Y-74485400D01*
X147775700Y-74485400D02*
X139560000Y-66269700D01*
X139560000Y-66269700D02*
X139560000Y-62135300D01*
X139560000Y-60960000D02*
X139560000Y-62135300D01*
%TO.N,C5*%
X150150000Y-89120600D02*
X150590500Y-88680100D01*
X150590500Y-88680100D02*
X150590500Y-86984200D01*
X150590500Y-86984200D02*
X152686100Y-84888600D01*
X152686100Y-84888600D02*
X152686100Y-71394400D01*
X152686100Y-71394400D02*
X143275300Y-61983600D01*
X143275300Y-61983600D02*
X143275300Y-60403200D01*
X143275300Y-60403200D02*
X142467400Y-59595300D01*
X142467400Y-59595300D02*
X142100000Y-59595300D01*
X142100000Y-58420000D02*
X142100000Y-59595300D01*
%TO.N,C4*%
X149400000Y-88368200D02*
X150115700Y-87652500D01*
X150115700Y-87652500D02*
X150115700Y-86822100D01*
X150115700Y-86822100D02*
X152235800Y-84702000D01*
X152235800Y-84702000D02*
X152235800Y-71581000D01*
X152235800Y-71581000D02*
X142790100Y-62135300D01*
X142790100Y-62135300D02*
X142100000Y-62135300D01*
X142100000Y-60960000D02*
X142100000Y-62135300D01*
%TO.N,C3*%
X143440000Y-74417400D02*
X143780100Y-74417400D01*
X143780100Y-74417400D02*
X146676400Y-77313700D01*
X146676400Y-77313700D02*
X146676400Y-82508000D01*
%TO.N,C2*%
X144580600Y-80634800D02*
X144580600Y-85320100D01*
X144580600Y-85320100D02*
X142574400Y-87326300D01*
%TO.N,C0*%
X145663300Y-77326600D02*
X143134000Y-77326600D01*
X143134000Y-77326600D02*
X142175700Y-78284900D01*
X142175700Y-78284900D02*
X142175700Y-80290600D01*
X142175700Y-80290600D02*
X143230600Y-81345500D01*
X143230600Y-81345500D02*
X143230600Y-85585400D01*
X143230600Y-85585400D02*
X142587400Y-86228600D01*
%TO.N,B0*%
X150400000Y-93379700D02*
X150911800Y-92867900D01*
X150911800Y-92867900D02*
X150911800Y-89365100D01*
X150911800Y-89365100D02*
X151040800Y-89236100D01*
X151040800Y-89236100D02*
X151040800Y-87170800D01*
X151040800Y-87170800D02*
X153136400Y-85075200D01*
X153136400Y-85075200D02*
X153136400Y-71207800D01*
X153136400Y-71207800D02*
X148544700Y-66616100D01*
X148544700Y-66616100D02*
X148544700Y-60403200D01*
X148544700Y-60403200D02*
X149352600Y-59595300D01*
X149352600Y-59595300D02*
X149720000Y-59595300D01*
X149720000Y-58420000D02*
X149720000Y-59595300D01*
%TO.N,B1*%
X149386800Y-87312600D02*
X149386800Y-86870800D01*
X149386800Y-86870800D02*
X151785500Y-84472100D01*
X151785500Y-84472100D02*
X151785500Y-77787800D01*
X151785500Y-77787800D02*
X148032800Y-74035100D01*
X148032800Y-74035100D02*
X147962300Y-74035100D01*
X147962300Y-74035100D02*
X140924600Y-66997400D01*
X140924600Y-66997400D02*
X140924600Y-57898000D01*
X140924600Y-57898000D02*
X141587100Y-57235500D01*
X141587100Y-57235500D02*
X150216800Y-57235500D01*
X150216800Y-57235500D02*
X150939000Y-57957700D01*
X150939000Y-57957700D02*
X150939000Y-59741000D01*
X150939000Y-59741000D02*
X149720000Y-60960000D01*
%TO.N,B2*%
X151637100Y-89665500D02*
X151537300Y-89565700D01*
X151537300Y-89565700D02*
X151537300Y-87311200D01*
X151537300Y-87311200D02*
X153594900Y-85253600D01*
X153594900Y-85253600D02*
X153594900Y-60562900D01*
X153594900Y-60562900D02*
X152627300Y-59595300D01*
X152627300Y-59595300D02*
X152260000Y-59595300D01*
X152260000Y-58420000D02*
X152260000Y-59595300D01*
%TO.N,B5*%
X149267500Y-73883400D02*
X149990300Y-73883400D01*
X149990300Y-73883400D02*
X151026000Y-72847700D01*
%TO.N,B7*%
X157340000Y-60960000D02*
X157340000Y-82596600D01*
X157340000Y-82596600D02*
X152262700Y-87673900D01*
%TO.N,B8*%
X158704700Y-58420000D02*
X158704700Y-58052700D01*
X158704700Y-58052700D02*
X156969900Y-56317900D01*
X156969900Y-56317900D02*
X137439700Y-56317900D01*
X137439700Y-56317900D02*
X135815300Y-57942300D01*
X135815300Y-57942300D02*
X135815300Y-64766600D01*
X135815300Y-64766600D02*
X147400000Y-76351300D01*
X159880000Y-58420000D02*
X158704700Y-58420000D01*
%TO.N,B9*%
X147810000Y-72857100D02*
X148819700Y-71847400D01*
X148819700Y-71847400D02*
X151476300Y-71847400D01*
X151476300Y-71847400D02*
X151476300Y-71847300D01*
%TO.N,B10*%
X162420000Y-59595300D02*
X162052600Y-59595300D01*
X162052600Y-59595300D02*
X161094900Y-60553000D01*
X161094900Y-60553000D02*
X161094900Y-81134400D01*
X161094900Y-81134400D02*
X154823300Y-87406000D01*
X154823300Y-87406000D02*
X154823300Y-90268300D01*
X154823300Y-90268300D02*
X151708800Y-93382800D01*
X162420000Y-58420000D02*
X162420000Y-59595300D01*
%TO.N,B12*%
X162420000Y-62135300D02*
X162420000Y-80446300D01*
X162420000Y-80446300D02*
X155325000Y-87541300D01*
X155325000Y-87541300D02*
X155325000Y-90829500D01*
X162420000Y-60960000D02*
X162420000Y-62135300D01*
%TO.N,B13*%
X164960000Y-59595300D02*
X164592600Y-59595300D01*
X164592600Y-59595300D02*
X163784700Y-60403200D01*
X163784700Y-60403200D02*
X163784700Y-80324600D01*
X163784700Y-80324600D02*
X155985700Y-88123600D01*
X155985700Y-88123600D02*
X155985700Y-88821100D01*
X155985700Y-88821100D02*
X156703900Y-89539300D01*
X164960000Y-58420000D02*
X164960000Y-59595300D01*
%TO.N,B14*%
X164960000Y-60960000D02*
X164960000Y-60690300D01*
X164960000Y-60690300D02*
X166145000Y-59505300D01*
X166145000Y-59505300D02*
X166145000Y-57839500D01*
X166145000Y-57839500D02*
X165510600Y-57205100D01*
X165510600Y-57205100D02*
X161967400Y-57205100D01*
X161967400Y-57205100D02*
X161095100Y-58077400D01*
X161095100Y-58077400D02*
X161095100Y-58869100D01*
X161095100Y-58869100D02*
X160179600Y-59784600D01*
X160179600Y-59784600D02*
X159354400Y-59784600D01*
X159354400Y-59784600D02*
X158610000Y-60529000D01*
X158610000Y-60529000D02*
X158610000Y-82982400D01*
X158610000Y-82982400D02*
X153939400Y-87653000D01*
X153939400Y-87653000D02*
X153939400Y-88733000D01*
%TO.N,B15*%
X167500000Y-59595300D02*
X166691900Y-59595300D01*
X166691900Y-59595300D02*
X166324700Y-59962500D01*
X166324700Y-59962500D02*
X166324700Y-78810300D01*
X166324700Y-78810300D02*
X156711000Y-88424000D01*
X167500000Y-58420000D02*
X167500000Y-59595300D01*
%TD*%
D16*
%TO.N,GND*%
X135420423Y-57262376D02*
X135183411Y-57104010D01*
X134913158Y-56992068D01*
X134626260Y-56935000D01*
X134333740Y-56935000D01*
X134046842Y-56992068D01*
X133776589Y-57104010D01*
X133533368Y-57266525D01*
X133326525Y-57473368D01*
X133210000Y-57647760D01*
X133093475Y-57473368D01*
X132886632Y-57266525D01*
X132643411Y-57104010D01*
X132373158Y-56992068D01*
X132086260Y-56935000D01*
X131793740Y-56935000D01*
X131506842Y-56992068D01*
X131236589Y-57104010D01*
X130993368Y-57266525D01*
X130786525Y-57473368D01*
X130670000Y-57647760D01*
X130553475Y-57473368D01*
X130346632Y-57266525D01*
X130103411Y-57104010D01*
X129833158Y-56992068D01*
X129546260Y-56935000D01*
X129253740Y-56935000D01*
X128966842Y-56992068D01*
X128696589Y-57104010D01*
X128453368Y-57266525D01*
X128246525Y-57473368D01*
X128084010Y-57716589D01*
X127972068Y-57986842D01*
X127915000Y-58273740D01*
X127915000Y-58566260D01*
X127972068Y-58853158D01*
X128084010Y-59123411D01*
X128222509Y-59330689D01*
X127673398Y-59879801D01*
X127644400Y-59903599D01*
X127620602Y-59932597D01*
X127620601Y-59932598D01*
X127549426Y-60019324D01*
X127478854Y-60151354D01*
X127454915Y-60230274D01*
X127435398Y-60294614D01*
X127425210Y-60398053D01*
X127420724Y-60443600D01*
X127424401Y-60480932D01*
X127424400Y-69777178D01*
X127420724Y-69814500D01*
X127424400Y-69851822D01*
X127424400Y-69851832D01*
X127435397Y-69963485D01*
X127458339Y-70039115D01*
X127478854Y-70106746D01*
X127549426Y-70238776D01*
X127589271Y-70287326D01*
X127644399Y-70354501D01*
X127673403Y-70378304D01*
X141164500Y-83869403D01*
X141164500Y-83931539D01*
X141204274Y-84131498D01*
X141282295Y-84319856D01*
X141395563Y-84489374D01*
X141539726Y-84633537D01*
X141709244Y-84746805D01*
X141897602Y-84824826D01*
X142097561Y-84864600D01*
X142301439Y-84864600D01*
X142470601Y-84830952D01*
X142470601Y-85196556D01*
X142285502Y-85233374D01*
X142097144Y-85311395D01*
X141927626Y-85424663D01*
X141783463Y-85568826D01*
X141670195Y-85738344D01*
X141592174Y-85926702D01*
X141552400Y-86126661D01*
X141552400Y-86330539D01*
X141592174Y-86530498D01*
X141670195Y-86718856D01*
X141702846Y-86767722D01*
X141657195Y-86836044D01*
X141579174Y-87024402D01*
X141539400Y-87224361D01*
X141539400Y-87428239D01*
X141579174Y-87628198D01*
X141657195Y-87816556D01*
X141770463Y-87986074D01*
X141914626Y-88130237D01*
X142084144Y-88243505D01*
X142272502Y-88321526D01*
X142472461Y-88361300D01*
X142676339Y-88361300D01*
X142876298Y-88321526D01*
X143064656Y-88243505D01*
X143234174Y-88130237D01*
X143378337Y-87986074D01*
X143491605Y-87816556D01*
X143569626Y-87628198D01*
X143609400Y-87428239D01*
X143609400Y-87366101D01*
X145091603Y-85883899D01*
X145120601Y-85860101D01*
X145169801Y-85800151D01*
X145169801Y-89612068D01*
X145166124Y-89649400D01*
X145180798Y-89798385D01*
X145224254Y-89941646D01*
X145294826Y-90073676D01*
X145362060Y-90155600D01*
X145389800Y-90189401D01*
X145418798Y-90213199D01*
X145865000Y-90659401D01*
X145865000Y-90721539D01*
X145904774Y-90921498D01*
X145982795Y-91109856D01*
X146096063Y-91279374D01*
X146140000Y-91323311D01*
X146140001Y-93092468D01*
X146136324Y-93129800D01*
X146140001Y-93167133D01*
X146150998Y-93278786D01*
X146155060Y-93292176D01*
X146194454Y-93422046D01*
X146265026Y-93554076D01*
X146327582Y-93630300D01*
X146360000Y-93669801D01*
X146388998Y-93693599D01*
X146688798Y-93993400D01*
X131792003Y-108890196D01*
X131762999Y-108913999D01*
X131707871Y-108981174D01*
X131668026Y-109029724D01*
X131597455Y-109161753D01*
X131597454Y-109161754D01*
X131553997Y-109305015D01*
X131543000Y-109416668D01*
X131543000Y-109416678D01*
X131539324Y-109454000D01*
X131543000Y-109491322D01*
X131543001Y-117602419D01*
X131373158Y-117532068D01*
X131086260Y-117475000D01*
X130793740Y-117475000D01*
X130506842Y-117532068D01*
X130236589Y-117644010D01*
X129993368Y-117806525D01*
X129786525Y-118013368D01*
X129670000Y-118187760D01*
X129553475Y-118013368D01*
X129346632Y-117806525D01*
X129103411Y-117644010D01*
X128833158Y-117532068D01*
X128546260Y-117475000D01*
X128253740Y-117475000D01*
X127966842Y-117532068D01*
X127696589Y-117644010D01*
X127453368Y-117806525D01*
X127246525Y-118013368D01*
X127084010Y-118256589D01*
X126972068Y-118526842D01*
X126915000Y-118813740D01*
X126915000Y-119106260D01*
X126972068Y-119393158D01*
X127084010Y-119663411D01*
X127246525Y-119906632D01*
X127453368Y-120113475D01*
X127627760Y-120230000D01*
X127453368Y-120346525D01*
X127246525Y-120553368D01*
X127084010Y-120796589D01*
X126972068Y-121066842D01*
X126915000Y-121353740D01*
X126915000Y-121646260D01*
X126972068Y-121933158D01*
X127084010Y-122203411D01*
X127246525Y-122446632D01*
X127453368Y-122653475D01*
X127696589Y-122815990D01*
X127966842Y-122927932D01*
X128253740Y-122985000D01*
X128546260Y-122985000D01*
X128833158Y-122927932D01*
X129103411Y-122815990D01*
X129346632Y-122653475D01*
X129553475Y-122446632D01*
X129675195Y-122264466D01*
X129744822Y-122381355D01*
X129939731Y-122597588D01*
X130173080Y-122771641D01*
X130435901Y-122896825D01*
X130583110Y-122941476D01*
X130813000Y-122820155D01*
X130813000Y-121627000D01*
X131067000Y-121627000D01*
X131067000Y-122820155D01*
X131296890Y-122941476D01*
X131444099Y-122896825D01*
X131706920Y-122771641D01*
X131940269Y-122597588D01*
X132135178Y-122381355D01*
X132210000Y-122255745D01*
X132284822Y-122381355D01*
X132479731Y-122597588D01*
X132713080Y-122771641D01*
X132975901Y-122896825D01*
X133123110Y-122941476D01*
X133353000Y-122820155D01*
X133353000Y-121627000D01*
X131067000Y-121627000D01*
X130813000Y-121627000D01*
X130793000Y-121627000D01*
X130793000Y-121373000D01*
X130813000Y-121373000D01*
X130813000Y-121353000D01*
X131067000Y-121353000D01*
X131067000Y-121373000D01*
X133353000Y-121373000D01*
X133353000Y-121353000D01*
X133607000Y-121353000D01*
X133607000Y-121373000D01*
X133627000Y-121373000D01*
X133627000Y-121627000D01*
X133607000Y-121627000D01*
X133607000Y-122820155D01*
X133836890Y-122941476D01*
X133984099Y-122896825D01*
X134246920Y-122771641D01*
X134480269Y-122597588D01*
X134675178Y-122381355D01*
X134744805Y-122264466D01*
X134866525Y-122446632D01*
X135073368Y-122653475D01*
X135316589Y-122815990D01*
X135586842Y-122927932D01*
X135873740Y-122985000D01*
X136166260Y-122985000D01*
X136453158Y-122927932D01*
X136723411Y-122815990D01*
X136966632Y-122653475D01*
X137173475Y-122446632D01*
X137290000Y-122272240D01*
X137406525Y-122446632D01*
X137613368Y-122653475D01*
X137856589Y-122815990D01*
X138126842Y-122927932D01*
X138413740Y-122985000D01*
X138706260Y-122985000D01*
X138993158Y-122927932D01*
X139263411Y-122815990D01*
X139506632Y-122653475D01*
X139713475Y-122446632D01*
X139830000Y-122272240D01*
X139946525Y-122446632D01*
X140153368Y-122653475D01*
X140396589Y-122815990D01*
X140666842Y-122927932D01*
X140953740Y-122985000D01*
X141246260Y-122985000D01*
X141533158Y-122927932D01*
X141803411Y-122815990D01*
X142046632Y-122653475D01*
X142253475Y-122446632D01*
X142370000Y-122272240D01*
X142486525Y-122446632D01*
X142693368Y-122653475D01*
X142936589Y-122815990D01*
X143206842Y-122927932D01*
X143493740Y-122985000D01*
X143786260Y-122985000D01*
X144073158Y-122927932D01*
X144343411Y-122815990D01*
X144586632Y-122653475D01*
X144793475Y-122446632D01*
X144910000Y-122272240D01*
X145026525Y-122446632D01*
X145233368Y-122653475D01*
X145476589Y-122815990D01*
X145746842Y-122927932D01*
X146033740Y-122985000D01*
X146326260Y-122985000D01*
X146613158Y-122927932D01*
X146883411Y-122815990D01*
X147126632Y-122653475D01*
X147333475Y-122446632D01*
X147450000Y-122272240D01*
X147566525Y-122446632D01*
X147773368Y-122653475D01*
X148016589Y-122815990D01*
X148286842Y-122927932D01*
X148573740Y-122985000D01*
X148866260Y-122985000D01*
X149153158Y-122927932D01*
X149423411Y-122815990D01*
X149666632Y-122653475D01*
X149873475Y-122446632D01*
X149990000Y-122272240D01*
X150106525Y-122446632D01*
X150313368Y-122653475D01*
X150556589Y-122815990D01*
X150826842Y-122927932D01*
X151113740Y-122985000D01*
X151406260Y-122985000D01*
X151693158Y-122927932D01*
X151963411Y-122815990D01*
X152206632Y-122653475D01*
X152413475Y-122446632D01*
X152530000Y-122272240D01*
X152646525Y-122446632D01*
X152853368Y-122653475D01*
X153096589Y-122815990D01*
X153366842Y-122927932D01*
X153653740Y-122985000D01*
X153946260Y-122985000D01*
X154233158Y-122927932D01*
X154503411Y-122815990D01*
X154746632Y-122653475D01*
X154953475Y-122446632D01*
X155070000Y-122272240D01*
X155186525Y-122446632D01*
X155393368Y-122653475D01*
X155636589Y-122815990D01*
X155906842Y-122927932D01*
X156193740Y-122985000D01*
X156486260Y-122985000D01*
X156773158Y-122927932D01*
X157043411Y-122815990D01*
X157286632Y-122653475D01*
X157493475Y-122446632D01*
X157610000Y-122272240D01*
X157726525Y-122446632D01*
X157933368Y-122653475D01*
X158176589Y-122815990D01*
X158446842Y-122927932D01*
X158733740Y-122985000D01*
X159026260Y-122985000D01*
X159313158Y-122927932D01*
X159583411Y-122815990D01*
X159826632Y-122653475D01*
X160033475Y-122446632D01*
X160150000Y-122272240D01*
X160266525Y-122446632D01*
X160473368Y-122653475D01*
X160716589Y-122815990D01*
X160986842Y-122927932D01*
X161273740Y-122985000D01*
X161566260Y-122985000D01*
X161853158Y-122927932D01*
X162123411Y-122815990D01*
X162366632Y-122653475D01*
X162573475Y-122446632D01*
X162690000Y-122272240D01*
X162806525Y-122446632D01*
X163013368Y-122653475D01*
X163256589Y-122815990D01*
X163526842Y-122927932D01*
X163813740Y-122985000D01*
X164106260Y-122985000D01*
X164393158Y-122927932D01*
X164663411Y-122815990D01*
X164906632Y-122653475D01*
X165038487Y-122521620D01*
X165060498Y-122594180D01*
X165119463Y-122704494D01*
X165198815Y-122801185D01*
X165295506Y-122880537D01*
X165405820Y-122939502D01*
X165525518Y-122975812D01*
X165650000Y-122988072D01*
X167350000Y-122988072D01*
X167474482Y-122975812D01*
X167594180Y-122939502D01*
X167704494Y-122880537D01*
X167801185Y-122801185D01*
X167880537Y-122704494D01*
X167939502Y-122594180D01*
X167975812Y-122474482D01*
X167988072Y-122350000D01*
X167988072Y-120971100D01*
X173756278Y-120971100D01*
X173793600Y-120974776D01*
X173830922Y-120971100D01*
X173830933Y-120971100D01*
X173942586Y-120960103D01*
X174085847Y-120916646D01*
X174217876Y-120846074D01*
X174333601Y-120751101D01*
X174357403Y-120722098D01*
X174699697Y-120379804D01*
X174853368Y-120533475D01*
X175096589Y-120695990D01*
X175366842Y-120807932D01*
X175653740Y-120865000D01*
X175946260Y-120865000D01*
X176233158Y-120807932D01*
X176503411Y-120695990D01*
X176746632Y-120533475D01*
X176953475Y-120326632D01*
X177115990Y-120083411D01*
X177140001Y-120025443D01*
X177140001Y-121327712D01*
X177090426Y-121833317D01*
X176952967Y-122288605D01*
X176729693Y-122708522D01*
X176429107Y-123077076D01*
X176062659Y-123380228D01*
X175644312Y-123606428D01*
X175189991Y-123747064D01*
X174686334Y-123800000D01*
X122470039Y-123800000D01*
X122736876Y-123416481D01*
X120500000Y-121179605D01*
X120485858Y-121193748D01*
X120306253Y-121014143D01*
X120320395Y-121000000D01*
X120679605Y-121000000D01*
X122916481Y-123236876D01*
X123365177Y-122924692D01*
X123685612Y-122328741D01*
X123883626Y-121681727D01*
X123951610Y-121008516D01*
X123886949Y-120334977D01*
X123692130Y-119686994D01*
X123374639Y-119089470D01*
X123365177Y-119075308D01*
X122916481Y-118763124D01*
X120679605Y-121000000D01*
X120320395Y-121000000D01*
X118083519Y-118763124D01*
X117634823Y-119075308D01*
X117500000Y-119326054D01*
X117500000Y-118583519D01*
X118263124Y-118583519D01*
X120500000Y-120820395D01*
X122736876Y-118583519D01*
X122424692Y-118134823D01*
X121828741Y-117814388D01*
X121181727Y-117616374D01*
X120508516Y-117548390D01*
X119834977Y-117613051D01*
X119186994Y-117807870D01*
X118589470Y-118125361D01*
X118575308Y-118134823D01*
X118263124Y-118583519D01*
X117500000Y-118583519D01*
X117500000Y-61916481D01*
X118263124Y-61916481D01*
X118575308Y-62365177D01*
X119171259Y-62685612D01*
X119818273Y-62883626D01*
X120491484Y-62951610D01*
X121165023Y-62886949D01*
X121813006Y-62692130D01*
X122410530Y-62374639D01*
X122424692Y-62365177D01*
X122736876Y-61916481D01*
X120500000Y-59679605D01*
X118263124Y-61916481D01*
X117500000Y-61916481D01*
X117500000Y-61174598D01*
X117625361Y-61410530D01*
X117634823Y-61424692D01*
X118083519Y-61736876D01*
X120320395Y-59500000D01*
X120679605Y-59500000D01*
X122916481Y-61736876D01*
X123365177Y-61424692D01*
X123685612Y-60828741D01*
X123883626Y-60181727D01*
X123951610Y-59508516D01*
X123886949Y-58834977D01*
X123692130Y-58186994D01*
X123374639Y-57589470D01*
X123365177Y-57575308D01*
X122916481Y-57263124D01*
X120679605Y-59500000D01*
X120320395Y-59500000D01*
X120306253Y-59485858D01*
X120485858Y-59306253D01*
X120500000Y-59320395D01*
X122736876Y-57083519D01*
X122424692Y-56634823D01*
X122248338Y-56540000D01*
X136142798Y-56540000D01*
X135420423Y-57262376D01*
%TA.AperFunction,Conductor*%
D17*
G36*
X135420423Y-57262376D02*
G01*
X135183411Y-57104010D01*
X134913158Y-56992068D01*
X134626260Y-56935000D01*
X134333740Y-56935000D01*
X134046842Y-56992068D01*
X133776589Y-57104010D01*
X133533368Y-57266525D01*
X133326525Y-57473368D01*
X133210000Y-57647760D01*
X133093475Y-57473368D01*
X132886632Y-57266525D01*
X132643411Y-57104010D01*
X132373158Y-56992068D01*
X132086260Y-56935000D01*
X131793740Y-56935000D01*
X131506842Y-56992068D01*
X131236589Y-57104010D01*
X130993368Y-57266525D01*
X130786525Y-57473368D01*
X130670000Y-57647760D01*
X130553475Y-57473368D01*
X130346632Y-57266525D01*
X130103411Y-57104010D01*
X129833158Y-56992068D01*
X129546260Y-56935000D01*
X129253740Y-56935000D01*
X128966842Y-56992068D01*
X128696589Y-57104010D01*
X128453368Y-57266525D01*
X128246525Y-57473368D01*
X128084010Y-57716589D01*
X127972068Y-57986842D01*
X127915000Y-58273740D01*
X127915000Y-58566260D01*
X127972068Y-58853158D01*
X128084010Y-59123411D01*
X128222509Y-59330689D01*
X127673398Y-59879801D01*
X127644400Y-59903599D01*
X127620602Y-59932597D01*
X127620601Y-59932598D01*
X127549426Y-60019324D01*
X127478854Y-60151354D01*
X127454915Y-60230274D01*
X127435398Y-60294614D01*
X127425210Y-60398053D01*
X127420724Y-60443600D01*
X127424401Y-60480932D01*
X127424400Y-69777178D01*
X127420724Y-69814500D01*
X127424400Y-69851822D01*
X127424400Y-69851832D01*
X127435397Y-69963485D01*
X127458339Y-70039115D01*
X127478854Y-70106746D01*
X127549426Y-70238776D01*
X127589271Y-70287326D01*
X127644399Y-70354501D01*
X127673403Y-70378304D01*
X141164500Y-83869403D01*
X141164500Y-83931539D01*
X141204274Y-84131498D01*
X141282295Y-84319856D01*
X141395563Y-84489374D01*
X141539726Y-84633537D01*
X141709244Y-84746805D01*
X141897602Y-84824826D01*
X142097561Y-84864600D01*
X142301439Y-84864600D01*
X142470601Y-84830952D01*
X142470601Y-85196556D01*
X142285502Y-85233374D01*
X142097144Y-85311395D01*
X141927626Y-85424663D01*
X141783463Y-85568826D01*
X141670195Y-85738344D01*
X141592174Y-85926702D01*
X141552400Y-86126661D01*
X141552400Y-86330539D01*
X141592174Y-86530498D01*
X141670195Y-86718856D01*
X141702846Y-86767722D01*
X141657195Y-86836044D01*
X141579174Y-87024402D01*
X141539400Y-87224361D01*
X141539400Y-87428239D01*
X141579174Y-87628198D01*
X141657195Y-87816556D01*
X141770463Y-87986074D01*
X141914626Y-88130237D01*
X142084144Y-88243505D01*
X142272502Y-88321526D01*
X142472461Y-88361300D01*
X142676339Y-88361300D01*
X142876298Y-88321526D01*
X143064656Y-88243505D01*
X143234174Y-88130237D01*
X143378337Y-87986074D01*
X143491605Y-87816556D01*
X143569626Y-87628198D01*
X143609400Y-87428239D01*
X143609400Y-87366101D01*
X145091603Y-85883899D01*
X145120601Y-85860101D01*
X145169801Y-85800151D01*
X145169801Y-89612068D01*
X145166124Y-89649400D01*
X145180798Y-89798385D01*
X145224254Y-89941646D01*
X145294826Y-90073676D01*
X145362060Y-90155600D01*
X145389800Y-90189401D01*
X145418798Y-90213199D01*
X145865000Y-90659401D01*
X145865000Y-90721539D01*
X145904774Y-90921498D01*
X145982795Y-91109856D01*
X146096063Y-91279374D01*
X146140000Y-91323311D01*
X146140001Y-93092468D01*
X146136324Y-93129800D01*
X146140001Y-93167133D01*
X146150998Y-93278786D01*
X146155060Y-93292176D01*
X146194454Y-93422046D01*
X146265026Y-93554076D01*
X146327582Y-93630300D01*
X146360000Y-93669801D01*
X146388998Y-93693599D01*
X146688798Y-93993400D01*
X131792003Y-108890196D01*
X131762999Y-108913999D01*
X131707871Y-108981174D01*
X131668026Y-109029724D01*
X131597455Y-109161753D01*
X131597454Y-109161754D01*
X131553997Y-109305015D01*
X131543000Y-109416668D01*
X131543000Y-109416678D01*
X131539324Y-109454000D01*
X131543000Y-109491322D01*
X131543001Y-117602419D01*
X131373158Y-117532068D01*
X131086260Y-117475000D01*
X130793740Y-117475000D01*
X130506842Y-117532068D01*
X130236589Y-117644010D01*
X129993368Y-117806525D01*
X129786525Y-118013368D01*
X129670000Y-118187760D01*
X129553475Y-118013368D01*
X129346632Y-117806525D01*
X129103411Y-117644010D01*
X128833158Y-117532068D01*
X128546260Y-117475000D01*
X128253740Y-117475000D01*
X127966842Y-117532068D01*
X127696589Y-117644010D01*
X127453368Y-117806525D01*
X127246525Y-118013368D01*
X127084010Y-118256589D01*
X126972068Y-118526842D01*
X126915000Y-118813740D01*
X126915000Y-119106260D01*
X126972068Y-119393158D01*
X127084010Y-119663411D01*
X127246525Y-119906632D01*
X127453368Y-120113475D01*
X127627760Y-120230000D01*
X127453368Y-120346525D01*
X127246525Y-120553368D01*
X127084010Y-120796589D01*
X126972068Y-121066842D01*
X126915000Y-121353740D01*
X126915000Y-121646260D01*
X126972068Y-121933158D01*
X127084010Y-122203411D01*
X127246525Y-122446632D01*
X127453368Y-122653475D01*
X127696589Y-122815990D01*
X127966842Y-122927932D01*
X128253740Y-122985000D01*
X128546260Y-122985000D01*
X128833158Y-122927932D01*
X129103411Y-122815990D01*
X129346632Y-122653475D01*
X129553475Y-122446632D01*
X129675195Y-122264466D01*
X129744822Y-122381355D01*
X129939731Y-122597588D01*
X130173080Y-122771641D01*
X130435901Y-122896825D01*
X130583110Y-122941476D01*
X130813000Y-122820155D01*
X130813000Y-121627000D01*
X131067000Y-121627000D01*
X131067000Y-122820155D01*
X131296890Y-122941476D01*
X131444099Y-122896825D01*
X131706920Y-122771641D01*
X131940269Y-122597588D01*
X132135178Y-122381355D01*
X132210000Y-122255745D01*
X132284822Y-122381355D01*
X132479731Y-122597588D01*
X132713080Y-122771641D01*
X132975901Y-122896825D01*
X133123110Y-122941476D01*
X133353000Y-122820155D01*
X133353000Y-121627000D01*
X131067000Y-121627000D01*
X130813000Y-121627000D01*
X130793000Y-121627000D01*
X130793000Y-121373000D01*
X130813000Y-121373000D01*
X130813000Y-121353000D01*
X131067000Y-121353000D01*
X131067000Y-121373000D01*
X133353000Y-121373000D01*
X133353000Y-121353000D01*
X133607000Y-121353000D01*
X133607000Y-121373000D01*
X133627000Y-121373000D01*
X133627000Y-121627000D01*
X133607000Y-121627000D01*
X133607000Y-122820155D01*
X133836890Y-122941476D01*
X133984099Y-122896825D01*
X134246920Y-122771641D01*
X134480269Y-122597588D01*
X134675178Y-122381355D01*
X134744805Y-122264466D01*
X134866525Y-122446632D01*
X135073368Y-122653475D01*
X135316589Y-122815990D01*
X135586842Y-122927932D01*
X135873740Y-122985000D01*
X136166260Y-122985000D01*
X136453158Y-122927932D01*
X136723411Y-122815990D01*
X136966632Y-122653475D01*
X137173475Y-122446632D01*
X137290000Y-122272240D01*
X137406525Y-122446632D01*
X137613368Y-122653475D01*
X137856589Y-122815990D01*
X138126842Y-122927932D01*
X138413740Y-122985000D01*
X138706260Y-122985000D01*
X138993158Y-122927932D01*
X139263411Y-122815990D01*
X139506632Y-122653475D01*
X139713475Y-122446632D01*
X139830000Y-122272240D01*
X139946525Y-122446632D01*
X140153368Y-122653475D01*
X140396589Y-122815990D01*
X140666842Y-122927932D01*
X140953740Y-122985000D01*
X141246260Y-122985000D01*
X141533158Y-122927932D01*
X141803411Y-122815990D01*
X142046632Y-122653475D01*
X142253475Y-122446632D01*
X142370000Y-122272240D01*
X142486525Y-122446632D01*
X142693368Y-122653475D01*
X142936589Y-122815990D01*
X143206842Y-122927932D01*
X143493740Y-122985000D01*
X143786260Y-122985000D01*
X144073158Y-122927932D01*
X144343411Y-122815990D01*
X144586632Y-122653475D01*
X144793475Y-122446632D01*
X144910000Y-122272240D01*
X145026525Y-122446632D01*
X145233368Y-122653475D01*
X145476589Y-122815990D01*
X145746842Y-122927932D01*
X146033740Y-122985000D01*
X146326260Y-122985000D01*
X146613158Y-122927932D01*
X146883411Y-122815990D01*
X147126632Y-122653475D01*
X147333475Y-122446632D01*
X147450000Y-122272240D01*
X147566525Y-122446632D01*
X147773368Y-122653475D01*
X148016589Y-122815990D01*
X148286842Y-122927932D01*
X148573740Y-122985000D01*
X148866260Y-122985000D01*
X149153158Y-122927932D01*
X149423411Y-122815990D01*
X149666632Y-122653475D01*
X149873475Y-122446632D01*
X149990000Y-122272240D01*
X150106525Y-122446632D01*
X150313368Y-122653475D01*
X150556589Y-122815990D01*
X150826842Y-122927932D01*
X151113740Y-122985000D01*
X151406260Y-122985000D01*
X151693158Y-122927932D01*
X151963411Y-122815990D01*
X152206632Y-122653475D01*
X152413475Y-122446632D01*
X152530000Y-122272240D01*
X152646525Y-122446632D01*
X152853368Y-122653475D01*
X153096589Y-122815990D01*
X153366842Y-122927932D01*
X153653740Y-122985000D01*
X153946260Y-122985000D01*
X154233158Y-122927932D01*
X154503411Y-122815990D01*
X154746632Y-122653475D01*
X154953475Y-122446632D01*
X155070000Y-122272240D01*
X155186525Y-122446632D01*
X155393368Y-122653475D01*
X155636589Y-122815990D01*
X155906842Y-122927932D01*
X156193740Y-122985000D01*
X156486260Y-122985000D01*
X156773158Y-122927932D01*
X157043411Y-122815990D01*
X157286632Y-122653475D01*
X157493475Y-122446632D01*
X157610000Y-122272240D01*
X157726525Y-122446632D01*
X157933368Y-122653475D01*
X158176589Y-122815990D01*
X158446842Y-122927932D01*
X158733740Y-122985000D01*
X159026260Y-122985000D01*
X159313158Y-122927932D01*
X159583411Y-122815990D01*
X159826632Y-122653475D01*
X160033475Y-122446632D01*
X160150000Y-122272240D01*
X160266525Y-122446632D01*
X160473368Y-122653475D01*
X160716589Y-122815990D01*
X160986842Y-122927932D01*
X161273740Y-122985000D01*
X161566260Y-122985000D01*
X161853158Y-122927932D01*
X162123411Y-122815990D01*
X162366632Y-122653475D01*
X162573475Y-122446632D01*
X162690000Y-122272240D01*
X162806525Y-122446632D01*
X163013368Y-122653475D01*
X163256589Y-122815990D01*
X163526842Y-122927932D01*
X163813740Y-122985000D01*
X164106260Y-122985000D01*
X164393158Y-122927932D01*
X164663411Y-122815990D01*
X164906632Y-122653475D01*
X165038487Y-122521620D01*
X165060498Y-122594180D01*
X165119463Y-122704494D01*
X165198815Y-122801185D01*
X165295506Y-122880537D01*
X165405820Y-122939502D01*
X165525518Y-122975812D01*
X165650000Y-122988072D01*
X167350000Y-122988072D01*
X167474482Y-122975812D01*
X167594180Y-122939502D01*
X167704494Y-122880537D01*
X167801185Y-122801185D01*
X167880537Y-122704494D01*
X167939502Y-122594180D01*
X167975812Y-122474482D01*
X167988072Y-122350000D01*
X167988072Y-120971100D01*
X173756278Y-120971100D01*
X173793600Y-120974776D01*
X173830922Y-120971100D01*
X173830933Y-120971100D01*
X173942586Y-120960103D01*
X174085847Y-120916646D01*
X174217876Y-120846074D01*
X174333601Y-120751101D01*
X174357403Y-120722098D01*
X174699697Y-120379804D01*
X174853368Y-120533475D01*
X175096589Y-120695990D01*
X175366842Y-120807932D01*
X175653740Y-120865000D01*
X175946260Y-120865000D01*
X176233158Y-120807932D01*
X176503411Y-120695990D01*
X176746632Y-120533475D01*
X176953475Y-120326632D01*
X177115990Y-120083411D01*
X177140001Y-120025443D01*
X177140001Y-121327712D01*
X177090426Y-121833317D01*
X176952967Y-122288605D01*
X176729693Y-122708522D01*
X176429107Y-123077076D01*
X176062659Y-123380228D01*
X175644312Y-123606428D01*
X175189991Y-123747064D01*
X174686334Y-123800000D01*
X122470039Y-123800000D01*
X122736876Y-123416481D01*
X120500000Y-121179605D01*
X120485858Y-121193748D01*
X120306253Y-121014143D01*
X120320395Y-121000000D01*
X120679605Y-121000000D01*
X122916481Y-123236876D01*
X123365177Y-122924692D01*
X123685612Y-122328741D01*
X123883626Y-121681727D01*
X123951610Y-121008516D01*
X123886949Y-120334977D01*
X123692130Y-119686994D01*
X123374639Y-119089470D01*
X123365177Y-119075308D01*
X122916481Y-118763124D01*
X120679605Y-121000000D01*
X120320395Y-121000000D01*
X118083519Y-118763124D01*
X117634823Y-119075308D01*
X117500000Y-119326054D01*
X117500000Y-118583519D01*
X118263124Y-118583519D01*
X120500000Y-120820395D01*
X122736876Y-118583519D01*
X122424692Y-118134823D01*
X121828741Y-117814388D01*
X121181727Y-117616374D01*
X120508516Y-117548390D01*
X119834977Y-117613051D01*
X119186994Y-117807870D01*
X118589470Y-118125361D01*
X118575308Y-118134823D01*
X118263124Y-118583519D01*
X117500000Y-118583519D01*
X117500000Y-61916481D01*
X118263124Y-61916481D01*
X118575308Y-62365177D01*
X119171259Y-62685612D01*
X119818273Y-62883626D01*
X120491484Y-62951610D01*
X121165023Y-62886949D01*
X121813006Y-62692130D01*
X122410530Y-62374639D01*
X122424692Y-62365177D01*
X122736876Y-61916481D01*
X120500000Y-59679605D01*
X118263124Y-61916481D01*
X117500000Y-61916481D01*
X117500000Y-61174598D01*
X117625361Y-61410530D01*
X117634823Y-61424692D01*
X118083519Y-61736876D01*
X120320395Y-59500000D01*
X120679605Y-59500000D01*
X122916481Y-61736876D01*
X123365177Y-61424692D01*
X123685612Y-60828741D01*
X123883626Y-60181727D01*
X123951610Y-59508516D01*
X123886949Y-58834977D01*
X123692130Y-58186994D01*
X123374639Y-57589470D01*
X123365177Y-57575308D01*
X122916481Y-57263124D01*
X120679605Y-59500000D01*
X120320395Y-59500000D01*
X120306253Y-59485858D01*
X120485858Y-59306253D01*
X120500000Y-59320395D01*
X122736876Y-57083519D01*
X122424692Y-56634823D01*
X122248338Y-56540000D01*
X136142798Y-56540000D01*
X135420423Y-57262376D01*
G37*
%TD.AperFunction*%
D16*
X172089470Y-56625361D02*
X172075308Y-56634823D01*
X171763124Y-57083519D01*
X174000000Y-59320395D01*
X174014143Y-59306253D01*
X174193748Y-59485858D01*
X174179605Y-59500000D01*
X176416481Y-61736876D01*
X176865177Y-61424692D01*
X177140000Y-60913571D01*
X177140001Y-113046112D01*
X177101185Y-112998815D01*
X177004494Y-112919463D01*
X176894180Y-112860498D01*
X176774482Y-112824188D01*
X176650000Y-112811928D01*
X176085750Y-112815000D01*
X175927000Y-112973750D01*
X175927000Y-114173000D01*
X175947000Y-114173000D01*
X175947000Y-114427000D01*
X175927000Y-114427000D01*
X175927000Y-114447000D01*
X175673000Y-114447000D01*
X175673000Y-114427000D01*
X174473750Y-114427000D01*
X174315000Y-114585750D01*
X174311928Y-115150000D01*
X174324188Y-115274482D01*
X174360498Y-115394180D01*
X174419463Y-115504494D01*
X174498815Y-115601185D01*
X174595506Y-115680537D01*
X174705820Y-115739502D01*
X174778380Y-115761513D01*
X174646525Y-115893368D01*
X174521822Y-116080000D01*
X152936226Y-116080000D01*
X152910246Y-115994353D01*
X152856268Y-115893368D01*
X152839674Y-115862323D01*
X152768499Y-115775597D01*
X152744701Y-115746599D01*
X152715703Y-115722801D01*
X150442902Y-113450000D01*
X174311928Y-113450000D01*
X174315000Y-114014250D01*
X174473750Y-114173000D01*
X175673000Y-114173000D01*
X175673000Y-112973750D01*
X175514250Y-112815000D01*
X174950000Y-112811928D01*
X174825518Y-112824188D01*
X174705820Y-112860498D01*
X174595506Y-112919463D01*
X174498815Y-112998815D01*
X174419463Y-113095506D01*
X174360498Y-113205820D01*
X174324188Y-113325518D01*
X174311928Y-113450000D01*
X150442902Y-113450000D01*
X144081114Y-107088212D01*
X171865000Y-107088212D01*
X171865000Y-107311788D01*
X171908617Y-107531067D01*
X171994176Y-107737624D01*
X172118388Y-107923520D01*
X172276480Y-108081612D01*
X172462376Y-108205824D01*
X172668933Y-108291383D01*
X172888212Y-108335000D01*
X173111788Y-108335000D01*
X173331067Y-108291383D01*
X173537624Y-108205824D01*
X173723520Y-108081612D01*
X173881612Y-107923520D01*
X174005824Y-107737624D01*
X174091383Y-107531067D01*
X174135000Y-107311788D01*
X174135000Y-107088212D01*
X174091383Y-106868933D01*
X174005824Y-106662376D01*
X173881612Y-106476480D01*
X173723520Y-106318388D01*
X173537624Y-106194176D01*
X173331067Y-106108617D01*
X173111788Y-106065000D01*
X172888212Y-106065000D01*
X172668933Y-106108617D01*
X172462376Y-106194176D01*
X172276480Y-106318388D01*
X172118388Y-106476480D01*
X171994176Y-106662376D01*
X171908617Y-106868933D01*
X171865000Y-107088212D01*
X144081114Y-107088212D01*
X143736800Y-106743899D01*
X143736800Y-106681761D01*
X143697026Y-106481802D01*
X143619005Y-106293444D01*
X143505737Y-106123926D01*
X143361574Y-105979763D01*
X143192056Y-105866495D01*
X143003698Y-105788474D01*
X142803739Y-105748700D01*
X142599861Y-105748700D01*
X142399902Y-105788474D01*
X142211544Y-105866495D01*
X142042026Y-105979763D01*
X141897863Y-106123926D01*
X141784595Y-106293444D01*
X141706574Y-106481802D01*
X141666800Y-106681761D01*
X141666800Y-106885639D01*
X141706574Y-107085598D01*
X141784595Y-107273956D01*
X141897863Y-107443474D01*
X142042026Y-107587637D01*
X142211544Y-107700905D01*
X142399902Y-107778926D01*
X142599861Y-107818700D01*
X142661999Y-107818700D01*
X151406598Y-116563300D01*
X150748998Y-117220901D01*
X150720000Y-117244699D01*
X150696202Y-117273697D01*
X150696201Y-117273698D01*
X150625026Y-117360424D01*
X150554454Y-117492454D01*
X150510998Y-117635715D01*
X150506912Y-117677203D01*
X150313368Y-117806525D01*
X150106525Y-118013368D01*
X149990000Y-118187760D01*
X149873475Y-118013368D01*
X149666632Y-117806525D01*
X149423411Y-117644010D01*
X149153158Y-117532068D01*
X148866260Y-117475000D01*
X148573740Y-117475000D01*
X148286842Y-117532068D01*
X148016589Y-117644010D01*
X147773368Y-117806525D01*
X147566525Y-118013368D01*
X147450000Y-118187760D01*
X147333475Y-118013368D01*
X147126632Y-117806525D01*
X146883411Y-117644010D01*
X146613158Y-117532068D01*
X146326260Y-117475000D01*
X146033740Y-117475000D01*
X145746842Y-117532068D01*
X145476589Y-117644010D01*
X145233368Y-117806525D01*
X145026525Y-118013368D01*
X144910000Y-118187760D01*
X144793475Y-118013368D01*
X144586632Y-117806525D01*
X144343411Y-117644010D01*
X144073158Y-117532068D01*
X143786260Y-117475000D01*
X143493740Y-117475000D01*
X143206842Y-117532068D01*
X142936589Y-117644010D01*
X142693368Y-117806525D01*
X142486525Y-118013368D01*
X142370000Y-118187760D01*
X142253475Y-118013368D01*
X142046632Y-117806525D01*
X141803411Y-117644010D01*
X141533158Y-117532068D01*
X141246260Y-117475000D01*
X140953740Y-117475000D01*
X140666842Y-117532068D01*
X140396589Y-117644010D01*
X140153368Y-117806525D01*
X139946525Y-118013368D01*
X139830000Y-118187760D01*
X139713475Y-118013368D01*
X139506632Y-117806525D01*
X139263411Y-117644010D01*
X138993158Y-117532068D01*
X138706260Y-117475000D01*
X138413740Y-117475000D01*
X138126842Y-117532068D01*
X137856589Y-117644010D01*
X137613368Y-117806525D01*
X137406525Y-118013368D01*
X137290000Y-118187760D01*
X137173475Y-118013368D01*
X136966632Y-117806525D01*
X136723411Y-117644010D01*
X136453158Y-117532068D01*
X136166260Y-117475000D01*
X135873740Y-117475000D01*
X135586842Y-117532068D01*
X135316589Y-117644010D01*
X135073368Y-117806525D01*
X134866525Y-118013368D01*
X134744805Y-118195534D01*
X134675178Y-118078645D01*
X134480269Y-117862412D01*
X134246920Y-117688359D01*
X133984099Y-117563175D01*
X133836890Y-117518524D01*
X133607000Y-117639845D01*
X133607000Y-118833000D01*
X133627000Y-118833000D01*
X133627000Y-119087000D01*
X133607000Y-119087000D01*
X133607000Y-119107000D01*
X133353000Y-119107000D01*
X133353000Y-119087000D01*
X133333000Y-119087000D01*
X133333000Y-118833000D01*
X133353000Y-118833000D01*
X133353000Y-117639845D01*
X133123110Y-117518524D01*
X133063000Y-117536756D01*
X133063000Y-109768801D01*
X140143589Y-102688212D01*
X171865000Y-102688212D01*
X171865000Y-102911788D01*
X171908617Y-103131067D01*
X171994176Y-103337624D01*
X172118388Y-103523520D01*
X172276480Y-103681612D01*
X172462376Y-103805824D01*
X172668933Y-103891383D01*
X172888212Y-103935000D01*
X173111788Y-103935000D01*
X173331067Y-103891383D01*
X173537624Y-103805824D01*
X173723520Y-103681612D01*
X173881612Y-103523520D01*
X174005824Y-103337624D01*
X174091383Y-103131067D01*
X174135000Y-102911788D01*
X174135000Y-102688212D01*
X174091383Y-102468933D01*
X174005824Y-102262376D01*
X173881612Y-102076480D01*
X173723520Y-101918388D01*
X173537624Y-101794176D01*
X173331067Y-101708617D01*
X173111788Y-101665000D01*
X172888212Y-101665000D01*
X172668933Y-101708617D01*
X172462376Y-101794176D01*
X172276480Y-101918388D01*
X172118388Y-102076480D01*
X171994176Y-102262376D01*
X171908617Y-102468933D01*
X171865000Y-102688212D01*
X140143589Y-102688212D01*
X147842401Y-94989401D01*
X148038461Y-95028400D01*
X148100598Y-95028400D01*
X148155000Y-95082802D01*
X148178799Y-95111801D01*
X148207797Y-95135599D01*
X148294523Y-95206774D01*
X148426553Y-95277346D01*
X148569814Y-95320803D01*
X148681467Y-95331800D01*
X148681476Y-95331800D01*
X148718799Y-95335476D01*
X148756122Y-95331800D01*
X155028997Y-95331800D01*
X155158702Y-95385526D01*
X155358661Y-95425300D01*
X155562539Y-95425300D01*
X155762498Y-95385526D01*
X155950856Y-95307505D01*
X156120374Y-95194237D01*
X156164311Y-95150300D01*
X161512378Y-95150300D01*
X161549700Y-95153976D01*
X161587022Y-95150300D01*
X161587033Y-95150300D01*
X161698686Y-95139303D01*
X161841947Y-95095846D01*
X161973976Y-95025274D01*
X162089701Y-94930301D01*
X162113504Y-94901297D01*
X167901061Y-89113740D01*
X170275000Y-89113740D01*
X170275000Y-89406260D01*
X170332068Y-89693158D01*
X170444010Y-89963411D01*
X170606525Y-90206632D01*
X170813368Y-90413475D01*
X170987760Y-90530000D01*
X170813368Y-90646525D01*
X170606525Y-90853368D01*
X170444010Y-91096589D01*
X170332068Y-91366842D01*
X170275000Y-91653740D01*
X170275000Y-91946260D01*
X170332068Y-92233158D01*
X170444010Y-92503411D01*
X170606525Y-92746632D01*
X170813368Y-92953475D01*
X171056589Y-93115990D01*
X171326842Y-93227932D01*
X171613740Y-93285000D01*
X171906260Y-93285000D01*
X172193158Y-93227932D01*
X172463411Y-93115990D01*
X172706632Y-92953475D01*
X172893715Y-92766392D01*
X172961595Y-92893386D01*
X173072038Y-93027962D01*
X173206614Y-93138405D01*
X173360150Y-93220472D01*
X173526746Y-93271008D01*
X173700000Y-93288072D01*
X174900000Y-93288072D01*
X175073254Y-93271008D01*
X175239850Y-93220472D01*
X175393386Y-93138405D01*
X175527962Y-93027962D01*
X175638405Y-92893386D01*
X175720472Y-92739850D01*
X175771008Y-92573254D01*
X175788072Y-92400000D01*
X175788072Y-91200000D01*
X175771008Y-91026746D01*
X175720472Y-90860150D01*
X175638405Y-90706614D01*
X175527962Y-90572038D01*
X175393386Y-90461595D01*
X175266392Y-90393715D01*
X175453475Y-90206632D01*
X175615990Y-89963411D01*
X175727932Y-89693158D01*
X175785000Y-89406260D01*
X175785000Y-89113740D01*
X175727932Y-88826842D01*
X175615990Y-88556589D01*
X175453475Y-88313368D01*
X175246632Y-88106525D01*
X175073271Y-87990689D01*
X175148792Y-87748397D01*
X174300000Y-86899605D01*
X173451208Y-87748397D01*
X173526729Y-87990689D01*
X173353368Y-88106525D01*
X173146525Y-88313368D01*
X173030000Y-88487760D01*
X172913475Y-88313368D01*
X172706632Y-88106525D01*
X172533271Y-87990689D01*
X172608792Y-87748397D01*
X171760000Y-86899605D01*
X170911208Y-87748397D01*
X170986729Y-87990689D01*
X170813368Y-88106525D01*
X170606525Y-88313368D01*
X170444010Y-88556589D01*
X170332068Y-88826842D01*
X170275000Y-89113740D01*
X167901061Y-89113740D01*
X170271768Y-86743034D01*
X170269389Y-86788531D01*
X170311401Y-87078019D01*
X170409081Y-87353747D01*
X170482528Y-87491157D01*
X170731603Y-87568792D01*
X171580395Y-86720000D01*
X171939605Y-86720000D01*
X172788397Y-87568792D01*
X173030000Y-87493486D01*
X173271603Y-87568792D01*
X174120395Y-86720000D01*
X174479605Y-86720000D01*
X175328397Y-87568792D01*
X175577472Y-87491157D01*
X175703371Y-87227117D01*
X175775339Y-86943589D01*
X175790611Y-86651469D01*
X175748599Y-86361981D01*
X175650919Y-86086253D01*
X175577472Y-85948843D01*
X175328397Y-85871208D01*
X174479605Y-86720000D01*
X174120395Y-86720000D01*
X173271603Y-85871208D01*
X173030000Y-85946514D01*
X172788397Y-85871208D01*
X171939605Y-86720000D01*
X171580395Y-86720000D01*
X171566253Y-86705858D01*
X171745858Y-86526253D01*
X171760000Y-86540395D01*
X172608792Y-85691603D01*
X172533271Y-85449311D01*
X172706632Y-85333475D01*
X172913475Y-85126632D01*
X173030000Y-84952240D01*
X173146525Y-85126632D01*
X173353368Y-85333475D01*
X173526729Y-85449311D01*
X173451208Y-85691603D01*
X174300000Y-86540395D01*
X175148792Y-85691603D01*
X175073271Y-85449311D01*
X175246632Y-85333475D01*
X175453475Y-85126632D01*
X175615990Y-84883411D01*
X175727932Y-84613158D01*
X175785000Y-84326260D01*
X175785000Y-84033740D01*
X175727932Y-83746842D01*
X175615990Y-83476589D01*
X175453475Y-83233368D01*
X175246632Y-83026525D01*
X175072240Y-82910000D01*
X175246632Y-82793475D01*
X175453475Y-82586632D01*
X175615990Y-82343411D01*
X175727932Y-82073158D01*
X175785000Y-81786260D01*
X175785000Y-81493740D01*
X175727932Y-81206842D01*
X175615990Y-80936589D01*
X175453475Y-80693368D01*
X175246632Y-80486525D01*
X175003411Y-80324010D01*
X174733158Y-80212068D01*
X174446260Y-80155000D01*
X174153740Y-80155000D01*
X173866842Y-80212068D01*
X173596589Y-80324010D01*
X173353368Y-80486525D01*
X173146525Y-80693368D01*
X173030000Y-80867760D01*
X172913475Y-80693368D01*
X172706632Y-80486525D01*
X172463411Y-80324010D01*
X172193158Y-80212068D01*
X171906260Y-80155000D01*
X171613740Y-80155000D01*
X171326842Y-80212068D01*
X171056589Y-80324010D01*
X170813368Y-80486525D01*
X170606525Y-80693368D01*
X170444010Y-80936589D01*
X170332068Y-81206842D01*
X170275000Y-81493740D01*
X170275000Y-81786260D01*
X170332068Y-82073158D01*
X170444010Y-82343411D01*
X170606525Y-82586632D01*
X170813368Y-82793475D01*
X170987760Y-82910000D01*
X170813368Y-83026525D01*
X170606525Y-83233368D01*
X170444010Y-83476589D01*
X170332068Y-83746842D01*
X170275000Y-84033740D01*
X170275000Y-84326260D01*
X170318790Y-84546408D01*
X161234899Y-93630300D01*
X156164311Y-93630300D01*
X156120374Y-93586363D01*
X155950856Y-93473095D01*
X155762498Y-93395074D01*
X155562539Y-93355300D01*
X155358661Y-93355300D01*
X155158702Y-93395074D01*
X154970344Y-93473095D01*
X154800826Y-93586363D01*
X154656663Y-93730526D01*
X154602358Y-93811800D01*
X154541901Y-93811800D01*
X157744102Y-90609600D01*
X157806239Y-90609600D01*
X158006198Y-90569826D01*
X158194556Y-90491805D01*
X158364074Y-90378537D01*
X158508237Y-90234374D01*
X158621505Y-90064856D01*
X158699526Y-89876498D01*
X158739300Y-89676539D01*
X158739300Y-89472661D01*
X158699526Y-89272702D01*
X158621505Y-89084344D01*
X158508237Y-88914826D01*
X158364074Y-88770663D01*
X158194556Y-88657395D01*
X158006198Y-88579374D01*
X157806239Y-88539600D01*
X157743283Y-88539600D01*
X157746000Y-88525939D01*
X157746000Y-88463801D01*
X166835703Y-79374099D01*
X166864701Y-79350301D01*
X166891032Y-79318217D01*
X166959674Y-79234577D01*
X167030246Y-79102547D01*
X167042191Y-79063168D01*
X167073703Y-78959286D01*
X167084700Y-78847633D01*
X167084700Y-78847623D01*
X167088376Y-78810300D01*
X167084700Y-78772977D01*
X167084700Y-62448072D01*
X168350000Y-62448072D01*
X168474482Y-62435812D01*
X168594180Y-62399502D01*
X168704494Y-62340537D01*
X168801185Y-62261185D01*
X168880537Y-62164494D01*
X168939502Y-62054180D01*
X168975812Y-61934482D01*
X168977584Y-61916481D01*
X171763124Y-61916481D01*
X172075308Y-62365177D01*
X172671259Y-62685612D01*
X173318273Y-62883626D01*
X173991484Y-62951610D01*
X174665023Y-62886949D01*
X175313006Y-62692130D01*
X175910530Y-62374639D01*
X175924692Y-62365177D01*
X176236876Y-61916481D01*
X174000000Y-59679605D01*
X171763124Y-61916481D01*
X168977584Y-61916481D01*
X168988072Y-61810000D01*
X168988072Y-60110000D01*
X168975812Y-59985518D01*
X168939502Y-59865820D01*
X168880537Y-59755506D01*
X168801185Y-59658815D01*
X168704494Y-59579463D01*
X168594180Y-59520498D01*
X168521620Y-59498487D01*
X168528623Y-59491484D01*
X170548390Y-59491484D01*
X170613051Y-60165023D01*
X170807870Y-60813006D01*
X171125361Y-61410530D01*
X171134823Y-61424692D01*
X171583519Y-61736876D01*
X173820395Y-59500000D01*
X171583519Y-57263124D01*
X171134823Y-57575308D01*
X170814388Y-58171259D01*
X170616374Y-58818273D01*
X170548390Y-59491484D01*
X168528623Y-59491484D01*
X168653475Y-59366632D01*
X168815990Y-59123411D01*
X168927932Y-58853158D01*
X168985000Y-58566260D01*
X168985000Y-58273740D01*
X168927932Y-57986842D01*
X168815990Y-57716589D01*
X168653475Y-57473368D01*
X168446632Y-57266525D01*
X168203411Y-57104010D01*
X167933158Y-56992068D01*
X167646260Y-56935000D01*
X167353740Y-56935000D01*
X167066842Y-56992068D01*
X166796589Y-57104010D01*
X166609392Y-57229091D01*
X166074403Y-56694102D01*
X166050601Y-56665099D01*
X165934876Y-56570126D01*
X165878515Y-56540000D01*
X172250121Y-56540000D01*
X172089470Y-56625361D01*
%TA.AperFunction,Conductor*%
D17*
G36*
X172089470Y-56625361D02*
G01*
X172075308Y-56634823D01*
X171763124Y-57083519D01*
X174000000Y-59320395D01*
X174014143Y-59306253D01*
X174193748Y-59485858D01*
X174179605Y-59500000D01*
X176416481Y-61736876D01*
X176865177Y-61424692D01*
X177140000Y-60913571D01*
X177140001Y-113046112D01*
X177101185Y-112998815D01*
X177004494Y-112919463D01*
X176894180Y-112860498D01*
X176774482Y-112824188D01*
X176650000Y-112811928D01*
X176085750Y-112815000D01*
X175927000Y-112973750D01*
X175927000Y-114173000D01*
X175947000Y-114173000D01*
X175947000Y-114427000D01*
X175927000Y-114427000D01*
X175927000Y-114447000D01*
X175673000Y-114447000D01*
X175673000Y-114427000D01*
X174473750Y-114427000D01*
X174315000Y-114585750D01*
X174311928Y-115150000D01*
X174324188Y-115274482D01*
X174360498Y-115394180D01*
X174419463Y-115504494D01*
X174498815Y-115601185D01*
X174595506Y-115680537D01*
X174705820Y-115739502D01*
X174778380Y-115761513D01*
X174646525Y-115893368D01*
X174521822Y-116080000D01*
X152936226Y-116080000D01*
X152910246Y-115994353D01*
X152856268Y-115893368D01*
X152839674Y-115862323D01*
X152768499Y-115775597D01*
X152744701Y-115746599D01*
X152715703Y-115722801D01*
X150442902Y-113450000D01*
X174311928Y-113450000D01*
X174315000Y-114014250D01*
X174473750Y-114173000D01*
X175673000Y-114173000D01*
X175673000Y-112973750D01*
X175514250Y-112815000D01*
X174950000Y-112811928D01*
X174825518Y-112824188D01*
X174705820Y-112860498D01*
X174595506Y-112919463D01*
X174498815Y-112998815D01*
X174419463Y-113095506D01*
X174360498Y-113205820D01*
X174324188Y-113325518D01*
X174311928Y-113450000D01*
X150442902Y-113450000D01*
X144081114Y-107088212D01*
X171865000Y-107088212D01*
X171865000Y-107311788D01*
X171908617Y-107531067D01*
X171994176Y-107737624D01*
X172118388Y-107923520D01*
X172276480Y-108081612D01*
X172462376Y-108205824D01*
X172668933Y-108291383D01*
X172888212Y-108335000D01*
X173111788Y-108335000D01*
X173331067Y-108291383D01*
X173537624Y-108205824D01*
X173723520Y-108081612D01*
X173881612Y-107923520D01*
X174005824Y-107737624D01*
X174091383Y-107531067D01*
X174135000Y-107311788D01*
X174135000Y-107088212D01*
X174091383Y-106868933D01*
X174005824Y-106662376D01*
X173881612Y-106476480D01*
X173723520Y-106318388D01*
X173537624Y-106194176D01*
X173331067Y-106108617D01*
X173111788Y-106065000D01*
X172888212Y-106065000D01*
X172668933Y-106108617D01*
X172462376Y-106194176D01*
X172276480Y-106318388D01*
X172118388Y-106476480D01*
X171994176Y-106662376D01*
X171908617Y-106868933D01*
X171865000Y-107088212D01*
X144081114Y-107088212D01*
X143736800Y-106743899D01*
X143736800Y-106681761D01*
X143697026Y-106481802D01*
X143619005Y-106293444D01*
X143505737Y-106123926D01*
X143361574Y-105979763D01*
X143192056Y-105866495D01*
X143003698Y-105788474D01*
X142803739Y-105748700D01*
X142599861Y-105748700D01*
X142399902Y-105788474D01*
X142211544Y-105866495D01*
X142042026Y-105979763D01*
X141897863Y-106123926D01*
X141784595Y-106293444D01*
X141706574Y-106481802D01*
X141666800Y-106681761D01*
X141666800Y-106885639D01*
X141706574Y-107085598D01*
X141784595Y-107273956D01*
X141897863Y-107443474D01*
X142042026Y-107587637D01*
X142211544Y-107700905D01*
X142399902Y-107778926D01*
X142599861Y-107818700D01*
X142661999Y-107818700D01*
X151406598Y-116563300D01*
X150748998Y-117220901D01*
X150720000Y-117244699D01*
X150696202Y-117273697D01*
X150696201Y-117273698D01*
X150625026Y-117360424D01*
X150554454Y-117492454D01*
X150510998Y-117635715D01*
X150506912Y-117677203D01*
X150313368Y-117806525D01*
X150106525Y-118013368D01*
X149990000Y-118187760D01*
X149873475Y-118013368D01*
X149666632Y-117806525D01*
X149423411Y-117644010D01*
X149153158Y-117532068D01*
X148866260Y-117475000D01*
X148573740Y-117475000D01*
X148286842Y-117532068D01*
X148016589Y-117644010D01*
X147773368Y-117806525D01*
X147566525Y-118013368D01*
X147450000Y-118187760D01*
X147333475Y-118013368D01*
X147126632Y-117806525D01*
X146883411Y-117644010D01*
X146613158Y-117532068D01*
X146326260Y-117475000D01*
X146033740Y-117475000D01*
X145746842Y-117532068D01*
X145476589Y-117644010D01*
X145233368Y-117806525D01*
X145026525Y-118013368D01*
X144910000Y-118187760D01*
X144793475Y-118013368D01*
X144586632Y-117806525D01*
X144343411Y-117644010D01*
X144073158Y-117532068D01*
X143786260Y-117475000D01*
X143493740Y-117475000D01*
X143206842Y-117532068D01*
X142936589Y-117644010D01*
X142693368Y-117806525D01*
X142486525Y-118013368D01*
X142370000Y-118187760D01*
X142253475Y-118013368D01*
X142046632Y-117806525D01*
X141803411Y-117644010D01*
X141533158Y-117532068D01*
X141246260Y-117475000D01*
X140953740Y-117475000D01*
X140666842Y-117532068D01*
X140396589Y-117644010D01*
X140153368Y-117806525D01*
X139946525Y-118013368D01*
X139830000Y-118187760D01*
X139713475Y-118013368D01*
X139506632Y-117806525D01*
X139263411Y-117644010D01*
X138993158Y-117532068D01*
X138706260Y-117475000D01*
X138413740Y-117475000D01*
X138126842Y-117532068D01*
X137856589Y-117644010D01*
X137613368Y-117806525D01*
X137406525Y-118013368D01*
X137290000Y-118187760D01*
X137173475Y-118013368D01*
X136966632Y-117806525D01*
X136723411Y-117644010D01*
X136453158Y-117532068D01*
X136166260Y-117475000D01*
X135873740Y-117475000D01*
X135586842Y-117532068D01*
X135316589Y-117644010D01*
X135073368Y-117806525D01*
X134866525Y-118013368D01*
X134744805Y-118195534D01*
X134675178Y-118078645D01*
X134480269Y-117862412D01*
X134246920Y-117688359D01*
X133984099Y-117563175D01*
X133836890Y-117518524D01*
X133607000Y-117639845D01*
X133607000Y-118833000D01*
X133627000Y-118833000D01*
X133627000Y-119087000D01*
X133607000Y-119087000D01*
X133607000Y-119107000D01*
X133353000Y-119107000D01*
X133353000Y-119087000D01*
X133333000Y-119087000D01*
X133333000Y-118833000D01*
X133353000Y-118833000D01*
X133353000Y-117639845D01*
X133123110Y-117518524D01*
X133063000Y-117536756D01*
X133063000Y-109768801D01*
X140143589Y-102688212D01*
X171865000Y-102688212D01*
X171865000Y-102911788D01*
X171908617Y-103131067D01*
X171994176Y-103337624D01*
X172118388Y-103523520D01*
X172276480Y-103681612D01*
X172462376Y-103805824D01*
X172668933Y-103891383D01*
X172888212Y-103935000D01*
X173111788Y-103935000D01*
X173331067Y-103891383D01*
X173537624Y-103805824D01*
X173723520Y-103681612D01*
X173881612Y-103523520D01*
X174005824Y-103337624D01*
X174091383Y-103131067D01*
X174135000Y-102911788D01*
X174135000Y-102688212D01*
X174091383Y-102468933D01*
X174005824Y-102262376D01*
X173881612Y-102076480D01*
X173723520Y-101918388D01*
X173537624Y-101794176D01*
X173331067Y-101708617D01*
X173111788Y-101665000D01*
X172888212Y-101665000D01*
X172668933Y-101708617D01*
X172462376Y-101794176D01*
X172276480Y-101918388D01*
X172118388Y-102076480D01*
X171994176Y-102262376D01*
X171908617Y-102468933D01*
X171865000Y-102688212D01*
X140143589Y-102688212D01*
X147842401Y-94989401D01*
X148038461Y-95028400D01*
X148100598Y-95028400D01*
X148155000Y-95082802D01*
X148178799Y-95111801D01*
X148207797Y-95135599D01*
X148294523Y-95206774D01*
X148426553Y-95277346D01*
X148569814Y-95320803D01*
X148681467Y-95331800D01*
X148681476Y-95331800D01*
X148718799Y-95335476D01*
X148756122Y-95331800D01*
X155028997Y-95331800D01*
X155158702Y-95385526D01*
X155358661Y-95425300D01*
X155562539Y-95425300D01*
X155762498Y-95385526D01*
X155950856Y-95307505D01*
X156120374Y-95194237D01*
X156164311Y-95150300D01*
X161512378Y-95150300D01*
X161549700Y-95153976D01*
X161587022Y-95150300D01*
X161587033Y-95150300D01*
X161698686Y-95139303D01*
X161841947Y-95095846D01*
X161973976Y-95025274D01*
X162089701Y-94930301D01*
X162113504Y-94901297D01*
X167901061Y-89113740D01*
X170275000Y-89113740D01*
X170275000Y-89406260D01*
X170332068Y-89693158D01*
X170444010Y-89963411D01*
X170606525Y-90206632D01*
X170813368Y-90413475D01*
X170987760Y-90530000D01*
X170813368Y-90646525D01*
X170606525Y-90853368D01*
X170444010Y-91096589D01*
X170332068Y-91366842D01*
X170275000Y-91653740D01*
X170275000Y-91946260D01*
X170332068Y-92233158D01*
X170444010Y-92503411D01*
X170606525Y-92746632D01*
X170813368Y-92953475D01*
X171056589Y-93115990D01*
X171326842Y-93227932D01*
X171613740Y-93285000D01*
X171906260Y-93285000D01*
X172193158Y-93227932D01*
X172463411Y-93115990D01*
X172706632Y-92953475D01*
X172893715Y-92766392D01*
X172961595Y-92893386D01*
X173072038Y-93027962D01*
X173206614Y-93138405D01*
X173360150Y-93220472D01*
X173526746Y-93271008D01*
X173700000Y-93288072D01*
X174900000Y-93288072D01*
X175073254Y-93271008D01*
X175239850Y-93220472D01*
X175393386Y-93138405D01*
X175527962Y-93027962D01*
X175638405Y-92893386D01*
X175720472Y-92739850D01*
X175771008Y-92573254D01*
X175788072Y-92400000D01*
X175788072Y-91200000D01*
X175771008Y-91026746D01*
X175720472Y-90860150D01*
X175638405Y-90706614D01*
X175527962Y-90572038D01*
X175393386Y-90461595D01*
X175266392Y-90393715D01*
X175453475Y-90206632D01*
X175615990Y-89963411D01*
X175727932Y-89693158D01*
X175785000Y-89406260D01*
X175785000Y-89113740D01*
X175727932Y-88826842D01*
X175615990Y-88556589D01*
X175453475Y-88313368D01*
X175246632Y-88106525D01*
X175073271Y-87990689D01*
X175148792Y-87748397D01*
X174300000Y-86899605D01*
X173451208Y-87748397D01*
X173526729Y-87990689D01*
X173353368Y-88106525D01*
X173146525Y-88313368D01*
X173030000Y-88487760D01*
X172913475Y-88313368D01*
X172706632Y-88106525D01*
X172533271Y-87990689D01*
X172608792Y-87748397D01*
X171760000Y-86899605D01*
X170911208Y-87748397D01*
X170986729Y-87990689D01*
X170813368Y-88106525D01*
X170606525Y-88313368D01*
X170444010Y-88556589D01*
X170332068Y-88826842D01*
X170275000Y-89113740D01*
X167901061Y-89113740D01*
X170271768Y-86743034D01*
X170269389Y-86788531D01*
X170311401Y-87078019D01*
X170409081Y-87353747D01*
X170482528Y-87491157D01*
X170731603Y-87568792D01*
X171580395Y-86720000D01*
X171939605Y-86720000D01*
X172788397Y-87568792D01*
X173030000Y-87493486D01*
X173271603Y-87568792D01*
X174120395Y-86720000D01*
X174479605Y-86720000D01*
X175328397Y-87568792D01*
X175577472Y-87491157D01*
X175703371Y-87227117D01*
X175775339Y-86943589D01*
X175790611Y-86651469D01*
X175748599Y-86361981D01*
X175650919Y-86086253D01*
X175577472Y-85948843D01*
X175328397Y-85871208D01*
X174479605Y-86720000D01*
X174120395Y-86720000D01*
X173271603Y-85871208D01*
X173030000Y-85946514D01*
X172788397Y-85871208D01*
X171939605Y-86720000D01*
X171580395Y-86720000D01*
X171566253Y-86705858D01*
X171745858Y-86526253D01*
X171760000Y-86540395D01*
X172608792Y-85691603D01*
X172533271Y-85449311D01*
X172706632Y-85333475D01*
X172913475Y-85126632D01*
X173030000Y-84952240D01*
X173146525Y-85126632D01*
X173353368Y-85333475D01*
X173526729Y-85449311D01*
X173451208Y-85691603D01*
X174300000Y-86540395D01*
X175148792Y-85691603D01*
X175073271Y-85449311D01*
X175246632Y-85333475D01*
X175453475Y-85126632D01*
X175615990Y-84883411D01*
X175727932Y-84613158D01*
X175785000Y-84326260D01*
X175785000Y-84033740D01*
X175727932Y-83746842D01*
X175615990Y-83476589D01*
X175453475Y-83233368D01*
X175246632Y-83026525D01*
X175072240Y-82910000D01*
X175246632Y-82793475D01*
X175453475Y-82586632D01*
X175615990Y-82343411D01*
X175727932Y-82073158D01*
X175785000Y-81786260D01*
X175785000Y-81493740D01*
X175727932Y-81206842D01*
X175615990Y-80936589D01*
X175453475Y-80693368D01*
X175246632Y-80486525D01*
X175003411Y-80324010D01*
X174733158Y-80212068D01*
X174446260Y-80155000D01*
X174153740Y-80155000D01*
X173866842Y-80212068D01*
X173596589Y-80324010D01*
X173353368Y-80486525D01*
X173146525Y-80693368D01*
X173030000Y-80867760D01*
X172913475Y-80693368D01*
X172706632Y-80486525D01*
X172463411Y-80324010D01*
X172193158Y-80212068D01*
X171906260Y-80155000D01*
X171613740Y-80155000D01*
X171326842Y-80212068D01*
X171056589Y-80324010D01*
X170813368Y-80486525D01*
X170606525Y-80693368D01*
X170444010Y-80936589D01*
X170332068Y-81206842D01*
X170275000Y-81493740D01*
X170275000Y-81786260D01*
X170332068Y-82073158D01*
X170444010Y-82343411D01*
X170606525Y-82586632D01*
X170813368Y-82793475D01*
X170987760Y-82910000D01*
X170813368Y-83026525D01*
X170606525Y-83233368D01*
X170444010Y-83476589D01*
X170332068Y-83746842D01*
X170275000Y-84033740D01*
X170275000Y-84326260D01*
X170318790Y-84546408D01*
X161234899Y-93630300D01*
X156164311Y-93630300D01*
X156120374Y-93586363D01*
X155950856Y-93473095D01*
X155762498Y-93395074D01*
X155562539Y-93355300D01*
X155358661Y-93355300D01*
X155158702Y-93395074D01*
X154970344Y-93473095D01*
X154800826Y-93586363D01*
X154656663Y-93730526D01*
X154602358Y-93811800D01*
X154541901Y-93811800D01*
X157744102Y-90609600D01*
X157806239Y-90609600D01*
X158006198Y-90569826D01*
X158194556Y-90491805D01*
X158364074Y-90378537D01*
X158508237Y-90234374D01*
X158621505Y-90064856D01*
X158699526Y-89876498D01*
X158739300Y-89676539D01*
X158739300Y-89472661D01*
X158699526Y-89272702D01*
X158621505Y-89084344D01*
X158508237Y-88914826D01*
X158364074Y-88770663D01*
X158194556Y-88657395D01*
X158006198Y-88579374D01*
X157806239Y-88539600D01*
X157743283Y-88539600D01*
X157746000Y-88525939D01*
X157746000Y-88463801D01*
X166835703Y-79374099D01*
X166864701Y-79350301D01*
X166891032Y-79318217D01*
X166959674Y-79234577D01*
X167030246Y-79102547D01*
X167042191Y-79063168D01*
X167073703Y-78959286D01*
X167084700Y-78847633D01*
X167084700Y-78847623D01*
X167088376Y-78810300D01*
X167084700Y-78772977D01*
X167084700Y-62448072D01*
X168350000Y-62448072D01*
X168474482Y-62435812D01*
X168594180Y-62399502D01*
X168704494Y-62340537D01*
X168801185Y-62261185D01*
X168880537Y-62164494D01*
X168939502Y-62054180D01*
X168975812Y-61934482D01*
X168977584Y-61916481D01*
X171763124Y-61916481D01*
X172075308Y-62365177D01*
X172671259Y-62685612D01*
X173318273Y-62883626D01*
X173991484Y-62951610D01*
X174665023Y-62886949D01*
X175313006Y-62692130D01*
X175910530Y-62374639D01*
X175924692Y-62365177D01*
X176236876Y-61916481D01*
X174000000Y-59679605D01*
X171763124Y-61916481D01*
X168977584Y-61916481D01*
X168988072Y-61810000D01*
X168988072Y-60110000D01*
X168975812Y-59985518D01*
X168939502Y-59865820D01*
X168880537Y-59755506D01*
X168801185Y-59658815D01*
X168704494Y-59579463D01*
X168594180Y-59520498D01*
X168521620Y-59498487D01*
X168528623Y-59491484D01*
X170548390Y-59491484D01*
X170613051Y-60165023D01*
X170807870Y-60813006D01*
X171125361Y-61410530D01*
X171134823Y-61424692D01*
X171583519Y-61736876D01*
X173820395Y-59500000D01*
X171583519Y-57263124D01*
X171134823Y-57575308D01*
X170814388Y-58171259D01*
X170616374Y-58818273D01*
X170548390Y-59491484D01*
X168528623Y-59491484D01*
X168653475Y-59366632D01*
X168815990Y-59123411D01*
X168927932Y-58853158D01*
X168985000Y-58566260D01*
X168985000Y-58273740D01*
X168927932Y-57986842D01*
X168815990Y-57716589D01*
X168653475Y-57473368D01*
X168446632Y-57266525D01*
X168203411Y-57104010D01*
X167933158Y-56992068D01*
X167646260Y-56935000D01*
X167353740Y-56935000D01*
X167066842Y-56992068D01*
X166796589Y-57104010D01*
X166609392Y-57229091D01*
X166074403Y-56694102D01*
X166050601Y-56665099D01*
X165934876Y-56570126D01*
X165878515Y-56540000D01*
X172250121Y-56540000D01*
X172089470Y-56625361D01*
G37*
%TD.AperFunction*%
%TD*%
M02*
